<svg width="91" height="20" viewBox="0 0 91 20" fill="none" xmlns="http://www.w3.org/2000/svg">
<path d="M7.60039 4.92264H13.2492L12.3761 8.27442C12.2529 8.71358 11.9895 9.10042 11.626 9.37606C11.2622 9.65672 10.8139 9.80548 10.3545 9.79796H7.74688C7.173 9.7882 6.6129 9.97421 6.15888 10.3253C5.69493 10.6854 5.3582 11.1843 5.19788 11.7493C5.08268 12.1657 5.06862 12.6037 5.15686 13.0267C5.245 13.4097 5.41051 13.7706 5.64322 14.0873C5.8812 14.4015 6.19052 14.6546 6.54563 14.8256C6.91897 15.0102 7.33043 15.1045 7.74688 15.1011H9.32902C9.61945 15.0954 9.89463 15.2308 10.0673 15.4644C10.252 15.6905 10.3113 15.994 10.2256 16.273L9.2294 19.9764H7.47147C6.31973 19.9878 5.18282 19.7162 4.1607 19.1853C3.18329 18.6904 2.32695 17.9862 1.65272 17.1227C0.987051 16.2595 0.522547 15.2584 0.293254 14.1928C0.0475715 13.0636 0.07772 11.8917 0.381151 10.7765L0.480767 10.3722C0.691689 9.58496 1.03231 8.83837 1.48865 8.16309C1.93745 7.50826 2.48727 6.92873 3.11766 6.44618C3.74782 5.96263 4.4524 5.58461 5.20374 5.32696C5.97383 5.05682 6.7843 4.92009 7.60039 4.92264ZM10.4541 19.9998L15.3646 1.54741C15.4878 1.1004 15.7557 0.706824 16.1264 0.428192C16.4898 0.142036 16.9413 -0.00914646 17.4038 0.000428401H22.6248C23.7679 -0.00664669 24.8957 0.262741 25.9122 0.785638C27.9136 1.80254 29.3511 3.66618 29.8265 5.8602C30.0738 6.98791 30.0396 8.15922 29.7269 9.27059L29.6273 9.64561C29.417 10.4339 29.0785 11.1822 28.6252 11.8606C28.1875 12.5305 27.6431 13.1243 27.0138 13.6185C25.7273 14.6096 24.1492 15.1473 22.5252 15.1479H18.0015L18.8804 11.72C19.0021 11.2816 19.2634 10.8949 19.6246 10.6183C19.9904 10.3364 20.4403 10.1857 20.9021 10.1906H22.3963C23.596 10.1879 24.6399 9.36879 24.9277 8.20411C25.0415 7.80521 25.0536 7.38421 24.9629 6.97941C24.8774 6.59554 24.7116 6.23411 24.4765 5.9188C24.2307 5.61139 23.9208 5.3614 23.5683 5.18633C23.2056 4.99989 22.8041 4.90153 22.3963 4.8992H19.5778L15.9506 18.4704C15.8246 18.9083 15.5618 19.2944 15.2005 19.5721C14.8456 19.8531 14.4051 20.0041 13.9524 19.9998H10.4541ZM41.6222 10.1495L41.6984 9.87414C41.7357 9.75724 41.7114 9.62941 41.6339 9.53427C41.5614 9.43523 41.4461 9.37652 41.3234 9.37606H33.2017C32.2284 9.38016 31.3862 8.69961 31.186 7.74705C31.1129 7.42692 31.1129 7.09444 31.186 6.77432L31.6899 4.87576H42.7004C43.3515 4.86638 43.9945 5.02158 44.5697 5.32696C45.1201 5.61022 45.602 6.01015 45.9819 6.49891C46.3616 6.98913 46.6278 7.55754 46.7612 8.16309C46.9019 8.80175 46.8878 9.46472 46.7202 10.0968L44.7455 17.4508C44.3515 18.9464 42.993 19.984 41.4464 19.9705L33.3248 19.9236C31.9732 19.9338 30.6953 19.309 29.8734 18.236C29.4845 17.7141 29.2127 17.1145 29.0764 16.4781C28.9241 15.8127 28.9402 15.1199 29.1233 14.4623L29.2229 14.0873C29.3426 13.6234 29.5408 13.1834 29.8089 12.7864C30.0767 12.397 30.4028 12.0512 30.7758 11.761C31.148 11.4881 31.5615 11.2765 32.0005 11.134C32.4584 10.9757 32.9399 10.8964 33.4244 10.8996H40.2452L39.7471 12.7747C39.6219 13.213 39.3589 13.5993 38.997 13.8764C38.6407 14.1541 38.2007 14.3028 37.7489 14.2983H34.7018C34.438 14.2822 34.2039 14.466 34.1569 14.726C34.1024 14.8944 34.1402 15.079 34.2565 15.2124C34.3634 15.3489 34.5284 15.4271 34.7018 15.4233H39.624C39.7947 15.4259 39.9614 15.3724 40.0987 15.271C40.2308 15.1756 40.3211 15.0328 40.3506 14.8725L40.3975 14.6733L41.6222 10.1495ZM56.172 4.92264C57.3314 4.90951 58.4763 5.18115 59.5062 5.7137C60.4881 6.21463 61.3467 6.92709 62.0201 7.79978C62.6921 8.6767 63.1569 9.69442 63.3795 10.7765C63.6233 11.9091 63.585 13.0843 63.2682 14.1987L62.0201 18.8865C61.944 19.2092 61.7522 19.4927 61.481 19.6834C61.2201 19.8823 60.9008 19.9894 60.5727 19.9881H57.8714C57.2532 20 56.7995 19.4108 56.9689 18.8161L58.469 13.1439C58.5848 12.7455 58.5989 12.3245 58.5101 11.9192C58.4236 11.5346 58.2558 11.1729 58.0178 10.8586C57.5181 10.2045 56.7432 9.81912 55.9201 9.81554H53.1191L50.699 18.8982C50.6205 19.2198 50.4292 19.5026 50.1599 19.6951C49.8898 19.8978 49.56 20.005 49.2223 19.9998H46.5444C46.2641 19.9971 46.0014 19.8625 45.8354 19.6365C45.6457 19.4106 45.5839 19.1037 45.6713 18.822L49.3512 4.92264H56.172ZM70.8918 9.68663C70.6972 9.83684 70.5506 10.0405 70.4699 10.2726L69.3448 14.5209C69.2759 14.7448 69.3219 14.9882 69.4678 15.1714C69.6037 15.3595 69.8218 15.4707 70.0538 15.4702H80.408L79.6052 18.4411C79.4816 18.8801 79.2183 19.2668 78.8552 19.5428C78.5007 19.8247 78.0599 19.9757 77.6071 19.9705H68.1963C67.5448 19.9788 66.9011 19.828 66.3211 19.531C65.7693 19.25 65.2868 18.8497 64.9089 18.3591C64.5335 17.8619 64.2678 17.2907 64.1296 16.6832C63.9902 16.0492 64.0123 15.3903 64.194 14.767L65.7176 9.09479C65.8817 8.48919 66.1451 7.91493 66.4969 7.39546C67.1774 6.37598 68.1738 5.60805 69.3331 5.20976C69.9216 4.99921 70.5421 4.89215 71.1672 4.89334H77.8415C78.4942 4.88671 79.1383 5.04172 79.7166 5.34454C80.2669 5.62795 80.7488 6.02791 81.1288 6.51649C81.5098 7.00597 81.7707 7.57793 81.8906 8.18653C82.0244 8.82413 82.0084 9.48406 81.8437 10.1144L81.3925 11.8137C81.2098 12.5394 80.7811 13.1793 80.1795 13.6244C79.5892 14.0802 78.8626 14.3238 78.1169 14.3158H70.5695L71.0676 12.4642C71.1771 12.0249 71.4335 11.6362 71.7942 11.3625C72.158 11.0819 72.6063 10.9331 73.0657 10.9406H76.1187C76.383 10.9545 76.6175 10.7724 76.6695 10.5129L76.7691 10.1378C76.8589 9.77546 76.5914 9.42265 76.2183 9.41122H71.5715C71.3196 9.42028 71.0789 9.51779 70.8918 9.68663ZM80.408 19.9998L85.4357 1.1255C85.5145 0.800767 85.7029 0.5131 85.969 0.310996C86.239 0.107422 86.5684 -0.00170456 86.9065 0.000428401H89.5844C89.8818 -0.00701292 90.1648 0.127978 90.3462 0.363734C90.5288 0.591111 90.5839 0.895414 90.4927 1.17238L86.7424 15.1011C86.5647 15.8141 86.2632 16.4904 85.8518 17.0992C85.4569 17.687 84.9679 18.2057 84.4044 18.6345C83.8408 19.066 83.2117 19.4042 82.541 19.6365C81.8556 19.8769 81.1344 19.9998 80.408 19.9998Z" fill="#F26C32"/>
</svg>
