<svg width="12" height="12" viewBox="0 0 12 12" fill="none" xmlns="http://www.w3.org/2000/svg">
    <path fill-rule="evenodd" clip-rule="evenodd"
          d="M6 3C6.09946 3 6.19484 3.03951 6.26517 3.10984C6.33549 3.18016 6.375 3.27554 6.375 3.375V5.625H8.625C8.72446 5.625 8.81984 5.66451 8.89017 5.73484C8.96049 5.80516 9 5.90054 9 6C9 6.09946 8.96049 6.19484 8.89017 6.26517C8.81984 6.33549 8.72446 6.375 8.625 6.375H6.375V8.625C6.375 8.72446 6.33549 8.81984 6.26517 8.89017C6.19484 8.96049 6.09946 9 6 9C5.90054 9 5.80516 8.96049 5.73484 8.89017C5.66451 8.81984 5.625 8.72446 5.625 8.625V6.375H3.375C3.27554 6.375 3.18016 6.33549 3.10984 6.26517C3.03951 6.19484 3 6.09946 3 6C3 5.90054 3.03951 5.80516 3.10984 5.73484C3.18016 5.66451 3.27554 5.625 3.375 5.625H5.625V3.375C5.625 3.27554 5.66451 3.18016 5.73484 3.10984C5.80516 3.03951 5.90054 3 6 3Z"
          fill="#5C7387"/>
</svg>
