<svg width="22" height="20" viewBox="0 0 22 20" fill="none" xmlns="http://www.w3.org/2000/svg">
    <path fill-rule="evenodd" clip-rule="evenodd"
          d="M7.9138 6.80933C6.59068 7.56562 5.69626 8.98718 5.69626 10.6172C5.69626 13.041 7.65908 15.0187 10.0829 15.0187C11.4806 15.0336 12.8041 14.3793 13.6368 13.2789H17.1312L18.4992 14.6172L17.6368 16.0745L15.4509 15.4202C15.2427 15.6581 15.0197 15.8663 14.7818 16.0745L15.4063 18.3049L13.9044 19.1377L12.3431 17.4574C12.0457 17.5466 11.7483 17.6358 11.436 17.6953L10.871 20.0001H9.17581L8.62562 17.6953C8.35796 17.6358 8.09031 17.5763 7.83752 17.4871L6.12748 19.1525L4.6851 18.3347L5.23529 15.9852C5.02711 15.8068 4.8338 15.6135 4.65536 15.4053L2.30592 16.0447L1.50295 14.5577L3.24272 13.0559C3.13864 12.7585 3.04941 12.4611 2.98993 12.1488L0.714844 11.5392L0.759452 9.84398L2.97506 9.21945C3.01967 8.92205 3.10889 8.63952 3.19811 8.35699L1.48808 6.69157L2.38027 5.24919L4.64049 5.87372C4.8338 5.65067 5.04198 5.45736 5.25016 5.26406L4.62562 2.97409L6.11261 2.15625L7.98235 4.09588L7.9138 6.80933Z"
          fill="white"/>
    <path d="M11.649 2.92937L10.1917 2.54275L9.6118 3.47955L10.727 4.55019C10.6676 4.74349 10.6081 4.92193 10.5783 5.11524L9.15083 5.50186L9.12109 6.60223L10.5932 6.98885C10.6378 7.19703 10.6824 7.39033 10.7568 7.58364L9.62667 8.56506L10.1174 9.50186L11.6341 9.0855C11.7531 9.21933 11.8869 9.35316 12.0207 9.47212L11.6638 10.9888L12.6006 11.5093L13.701 10.4238C13.8795 10.4833 14.043 10.5279 14.2215 10.5576L14.5635 12.0595H15.6638L16.0356 10.5576C16.2438 10.513 16.4371 10.4535 16.6304 10.3941L17.6415 11.4796L18.5932 10.9294L18.2066 9.48699C18.3553 9.35316 18.504 9.20446 18.6378 9.05576L20.0505 9.48699L20.6155 8.53531L19.5598 7.49442C19.6341 7.31598 19.6787 7.10781 19.7233 6.9145L19.7828 6.98885L21.2847 6.66171V5.56134L19.7828 5.17472C19.7382 4.95167 19.6787 4.72862 19.6044 4.50557L20.7047 3.50929L20.1694 2.54275L18.7122 2.95911C18.5783 2.81041 18.4445 2.67658 18.2958 2.54275L18.7419 1.14498L17.7902 0.579925L16.675 1.60595C16.4817 1.54647 16.2884 1.50186 16.0951 1.45726L16.0951 1.45725L15.7531 0.0297393L14.6527 0L14.2661 1.44238C14.0579 1.48699 13.8497 1.5316 13.6564 1.60595L12.6155 0.535317L11.649 1.05576L12.0356 2.54275C11.9018 2.66171 11.7679 2.79554 11.649 2.92937Z"
          fill="#8ABD56"/>
    <circle cx="15.1982" cy="6.0293" r="2.84277" fill="#163753"/>
</svg>
