<?xml version="1.0" encoding="utf-8"?>
<!-- Generator: Adobe Illustrator 23.0.2, SVG Export Plug-In . SVG Version: 6.00 Build 0)  -->
<svg version="1.1" id="Layer_1" xmlns="http://www.w3.org/2000/svg" xmlns:xlink="http://www.w3.org/1999/xlink" x="0px" y="0px"
	 viewBox="0 0 482.3 482.3" style="enable-background:new 0 0 482.3 482.3;" xml:space="preserve">
<style type="text/css">
	.st0{opacity:0.5;fill:#1074BC;enable-background:new    ;}
	.st1{opacity:0.7;fill:#1074BC;enable-background:new    ;}
	.st2{opacity:0.7;fill:#0C82BF;enable-background:new    ;}
	.st3{opacity:0.8;fill:#0C82BF;enable-background:new    ;}
	.st4{fill:#0C82BF;}
	.st5{opacity:0.5;fill:#048FBF;enable-background:new    ;}
	.st6{opacity:0.8;fill:#048FBF;enable-background:new    ;}
	.st7{fill:#048FBF;}
	.st8{opacity:0.7;fill:#019EC0;enable-background:new    ;}
	.st9{fill:#019EC0;}
	.st10{opacity:0.7;fill:#00ABBF;enable-background:new    ;}
	.st11{fill:#00ABBF;}
	.st12{opacity:0.5;fill:#02B8BE;enable-background:new    ;}
	.st13{opacity:0.8;fill:#02B8BE;enable-background:new    ;}
	.st14{fill:#02B8BE;}
	.st15{opacity:0.7;fill:#31BDBA;enable-background:new    ;}
	.st16{opacity:0.8;fill:#31BDBA;enable-background:new    ;}
	.st17{fill:#31BDBA;}
	.st18{opacity:0.5;fill:#47C0B4;enable-background:new    ;}
	.st19{opacity:0.7;fill:#47C0B4;enable-background:new    ;}
	.st20{fill:#FFFFFF;}
</style>
<rect x="301.5" y="422" class="st0" width="60.3" height="60.3"/>
<rect x="241.2" y="422" class="st1" width="60.3" height="60.3"/>
<rect x="180.9" y="422" class="st1" width="60.3" height="60.3"/>
<rect x="120.6" y="422" class="st0" width="60.3" height="60.3"/>
<rect x="361.8" y="361.8" class="st2" width="60.3" height="60.3"/>
<rect x="301.5" y="361.8" class="st3" width="60.3" height="60.3"/>
<rect x="241.2" y="361.8" class="st4" width="60.3" height="60.3"/>
<rect x="180.9" y="361.8" class="st4" width="60.3" height="60.3"/>
<rect x="120.6" y="361.8" class="st3" width="60.3" height="60.3"/>
<rect x="60.3" y="361.8" class="st2" width="60.3" height="60.3"/>
<rect x="422" y="301.5" class="st5" width="60.3" height="60.3"/>
<rect x="361.8" y="301.5" class="st6" width="60.3" height="60.3"/>
<rect x="301.5" y="301.5" class="st7" width="60.3" height="60.3"/>
<rect x="241.2" y="301.5" class="st7" width="60.3" height="60.3"/>
<rect x="180.9" y="301.5" class="st7" width="60.3" height="60.3"/>
<rect x="120.6" y="301.5" class="st7" width="60.3" height="60.3"/>
<rect x="60.3" y="301.5" class="st6" width="60.3" height="60.3"/>
<rect y="301.5" class="st5" width="60.3" height="60.3"/>
<rect x="422" y="241.2" class="st8" width="60.3" height="60.3"/>
<rect x="361.8" y="241.2" class="st9" width="60.3" height="60.3"/>
<rect x="301.5" y="241.2" class="st9" width="60.3" height="60.3"/>
<rect x="241.2" y="241.2" class="st9" width="60.3" height="60.3"/>
<rect x="180.9" y="241.2" class="st9" width="60.3" height="60.3"/>
<rect x="120.6" y="241.2" class="st9" width="60.3" height="60.3"/>
<rect x="60.3" y="241.2" class="st9" width="60.3" height="60.3"/>
<rect y="241.2" class="st8" width="60.3" height="60.3"/>
<rect x="422" y="180.9" class="st10" width="60.3" height="60.3"/>
<rect x="361.8" y="180.9" class="st11" width="60.3" height="60.3"/>
<rect x="301.5" y="180.9" class="st11" width="60.3" height="60.3"/>
<rect x="241.2" y="180.9" class="st11" width="60.3" height="60.3"/>
<rect x="180.9" y="180.9" class="st11" width="60.3" height="60.3"/>
<rect x="120.6" y="180.9" class="st11" width="60.3" height="60.3"/>
<rect x="60.3" y="180.9" class="st11" width="60.3" height="60.3"/>
<rect y="180.9" class="st10" width="60.3" height="60.3"/>
<rect x="422" y="120.6" class="st12" width="60.3" height="60.3"/>
<rect x="361.8" y="120.6" class="st13" width="60.3" height="60.3"/>
<rect x="301.5" y="120.6" class="st14" width="60.3" height="60.3"/>
<rect x="241.2" y="120.6" class="st14" width="60.3" height="60.3"/>
<rect x="180.9" y="120.6" class="st14" width="60.3" height="60.3"/>
<rect x="120.6" y="120.6" class="st14" width="60.3" height="60.3"/>
<rect x="60.3" y="120.6" class="st13" width="60.3" height="60.3"/>
<rect y="120.6" class="st12" width="60.3" height="60.3"/>
<rect x="361.8" y="60.3" class="st15" width="60.3" height="60.3"/>
<rect x="301.5" y="60.3" class="st16" width="60.3" height="60.3"/>
<rect x="241.2" y="60.3" class="st17" width="60.3" height="60.3"/>
<rect x="180.9" y="60.3" class="st17" width="60.3" height="60.3"/>
<rect x="120.6" y="60.3" class="st16" width="60.3" height="60.3"/>
<rect x="60.3" y="60.3" class="st15" width="60.3" height="60.3"/>
<rect x="301.5" class="st18" width="60.3" height="60.3"/>
<rect x="241.2" class="st19" width="60.3" height="60.3"/>
<rect x="180.9" class="st19" width="60.3" height="60.3"/>
<rect x="120.6" class="st18" width="60.3" height="60.3"/>
<path class="st20" d="M158.8,222.1l16.8-37.6c6.1-9.6,5.3-21.4-1.4-28.1c-0.9-0.9-1.9-1.7-2.9-2.4c-4.7-2.9-10.3-3.5-15.5-1.8
	c-5.8,1.8-10.8,5.7-14,10.8c0,0-23,53.7-31.6,77.8S105,309.2,138,342.3c35,35,85.7,43,118,18.7c1.4-0.7,2.6-1.5,3.8-2.5l99.6-83.2
	c4.8-4,12-12.2,5.6-21.6c-6.3-9.2-18.1-2.9-23,0.2l-57.3,41.7c-1.1,0.9-2.7,0.8-3.6-0.3c0,0,0-0.1-0.1-0.1c-1.5-1.8-1.7-6.5,0.6-8.4
	l87.9-74.6c7.6-6.8,8.6-16.8,2.5-23.6c-6-6.7-15.5-6.5-23.2,0.4l-79.1,61.9c-1.5,1.2-3.7,1-4.9-0.5c0-0.1-0.1-0.1-0.1-0.2
	c-1.6-1.8-2.2-4.7-0.4-6.5l89.6-86.9c7.1-6.6,7.5-17.7,0.9-24.7c-3.2-3.3-7.6-5.2-12.2-5.2c-4.7-0.1-9.2,1.7-12.6,5l-91.6,86
	c-2.2,2.2-6.5,0-7-2.6c-0.2-0.9,0.1-1.9,0.8-2.6l70.1-79.8c7-6.5,7.4-17.4,0.9-24.4s-17.4-7.4-24.4-0.9c-0.3,0.3-0.6,0.5-0.8,0.8
	L171.5,225.9c-3.8,3.8-9.4,4-12.1,1.8C157.7,226.4,157.4,223.9,158.8,222.1z"/>
</svg>
