<svg width="93" height="20" viewBox="0 0 93 20" fill="none" xmlns="http://www.w3.org/2000/svg">
<path d="M25.4492 14.0899H25.7428L26.3298 16.6339L27.2105 14.0899H27.4062L28.3064 16.5948L28.9326 14.0899H29.2066L28.4825 16.9862H28.1889L27.3083 14.5009L26.4473 16.9862H26.1342L25.4492 14.0899ZM31.4766 15.3424H33.3553C33.3553 14.677 33.0422 14.3248 32.4747 14.3248C31.8289 14.3443 31.4962 14.677 31.4766 15.3424ZM32.4747 14.0899C33.2379 14.0899 33.6293 14.5204 33.6293 15.3815C33.6293 15.4402 33.6293 15.4989 33.6293 15.5772H31.4962C31.4962 16.3208 31.868 16.7122 32.6508 16.7122C32.9639 16.7122 33.2574 16.6731 33.4923 16.5948V16.8492C33.2379 16.9275 32.9639 16.9666 32.6508 16.9666C31.7115 16.9666 31.1831 16.4774 31.1831 15.4598C31.2026 14.54 31.6332 14.0899 32.4747 14.0899ZM36.1342 16.6731C36.4277 16.7122 36.6821 16.7514 36.8974 16.7514C37.6214 16.7514 37.9737 16.3404 37.9737 15.4989C37.9737 14.7748 37.641 14.4226 36.9756 14.4226C36.7017 14.4226 36.4277 14.4617 36.1146 14.5596L36.1342 16.6731ZM35.8602 13.0723H36.1537V14.266C36.4864 14.1878 36.7799 14.1486 37.0148 14.1486C37.8563 14.1486 38.2672 14.5987 38.2672 15.5576C38.2672 16.5557 37.8367 17.084 36.9561 17.084C36.5647 17.084 36.2124 17.0449 35.8797 16.9862L35.8602 13.0723ZM45.3905 16.9079C45.1557 16.9471 44.9013 16.9862 44.6469 16.9862C43.7075 16.9862 43.1987 16.4774 43.1987 15.4598C43.1987 14.54 43.6488 14.0508 44.6469 14.0508C44.9208 14.0508 45.1557 14.0703 45.3905 14.1291V14.3835C45.1361 14.3443 44.9013 14.3052 44.686 14.3052C43.9424 14.3052 43.551 14.677 43.551 15.4598C43.551 16.3013 43.9228 16.7122 44.686 16.7122C44.9208 16.7122 45.1361 16.6927 45.3905 16.6339V16.9079ZM48.7173 16.7905C49.4023 16.7905 49.7349 16.3795 49.7349 15.5576C49.7349 14.7357 49.4023 14.3443 48.7173 14.3443C48.0324 14.3443 47.6997 14.7357 47.6997 15.5576C47.6997 16.36 48.052 16.7905 48.7173 16.7905ZM47.4257 15.5576C47.4257 14.5987 47.8563 14.0508 48.7173 14.0508C49.5784 14.0508 50.0089 14.54 50.0089 15.5576C50.0089 16.5165 49.5784 17.0645 48.7173 17.0645C47.8563 17.0058 47.4257 16.5361 47.4257 15.5576ZM52.2985 16.9862V14.0899H52.4942L52.5334 14.4617C52.8856 14.2073 53.2379 14.0899 53.5705 14.0899C54.2555 14.0899 54.5882 14.403 54.5882 14.9901V16.9862H54.2946V14.9901C54.2946 14.5792 54.0402 14.3443 53.551 14.3443C53.2183 14.3443 52.8856 14.4617 52.5529 14.7161V17.0058H52.279L52.2985 16.9862ZM56.9365 13.6398H57.1322L57.1713 14.0899H58.0128V14.3443H57.1909V16.2034C57.1909 16.5752 57.3083 16.7709 57.5823 16.7709H57.9932V17.0253H57.6019C57.1518 17.0253 56.9169 16.7514 56.9169 16.2621L56.9365 13.6398ZM60.1459 16.9862V14.0899H60.3612L60.4003 14.5792C60.6938 14.266 61.0069 14.0899 61.3201 14.0899V14.3248C60.9874 14.3248 60.6743 14.5009 60.4394 14.8336V17.0058L60.1459 16.9862ZM64.5295 16.7905C65.2144 16.7905 65.5471 16.3795 65.5471 15.5576C65.5471 14.7357 65.2144 14.3443 64.5295 14.3443C63.8445 14.3443 63.5118 14.7357 63.5118 15.5576C63.4923 16.36 63.825 16.7905 64.5295 16.7905ZM63.1987 15.5576C63.1987 14.5987 63.6293 14.0508 64.4903 14.0508C65.3514 14.0508 65.7819 14.54 65.7819 15.5576C65.7819 16.5165 65.3514 17.0645 64.4903 17.0645C63.6684 17.0058 63.1987 16.5361 63.1987 15.5576ZM68.3651 16.9862H68.0715V13.0527H68.3651V16.9862ZM73.9228 16.5752C74.2163 16.6731 74.4707 16.7122 74.686 16.7122C75.4101 16.7122 75.7623 16.3013 75.7623 15.4793C75.7623 14.7553 75.4101 14.3639 74.686 14.3639C74.4316 14.3639 74.1772 14.3835 73.9228 14.4226V16.5752ZM73.6488 14.1878C73.9619 14.1095 74.3338 14.0899 74.7056 14.0899C75.6058 14.0899 76.0363 14.54 76.0363 15.4402C76.0363 16.4578 75.6058 16.9862 74.7056 16.9862C74.4707 16.9862 74.2163 16.9471 73.9424 16.8688V18.0625H73.6488V14.1878ZM79.2653 15.5576C78.7173 15.5576 78.4433 15.7533 78.4433 16.1447C78.4433 16.5165 78.6782 16.7122 79.1283 16.7122C79.461 16.7122 79.7936 16.6339 80.0872 16.4187V15.6163C79.7741 15.5772 79.5001 15.5576 79.2653 15.5576ZM78.1498 16.1839C78.1498 15.6163 78.5216 15.3228 79.2653 15.3228C79.5392 15.3228 79.7936 15.3424 80.1068 15.3619V15.0097C80.1068 14.5792 79.8328 14.3443 79.3044 14.3443C78.9913 14.3443 78.6782 14.3835 78.4042 14.4617V14.1878C78.7173 14.1095 79.0109 14.0703 79.3044 14.0703C80.0285 14.0703 80.3807 14.3835 80.3807 14.9705V16.9666H80.2046L80.1459 16.6731C79.7936 16.8884 79.461 16.9666 79.1283 16.9666C78.4629 16.9862 78.1498 16.7318 78.1498 16.1839ZM82.7291 16.9862V14.0899H82.9248L82.9639 14.4617C83.3161 14.2073 83.6684 14.0899 84.0011 14.0899C84.686 14.0899 85.0187 14.403 85.0187 14.9901V16.9862H84.7251V14.9901C84.7251 14.5792 84.4707 14.3443 83.9815 14.3443C83.6488 14.3443 83.3161 14.4617 82.9835 14.7161V17.0058L82.7291 16.9862ZM87.5431 15.3424H89.4218C89.4023 14.677 89.1087 14.3248 88.5412 14.3248C87.8954 14.3443 87.5823 14.677 87.5431 15.3424ZM88.5412 14.0899C89.3044 14.0899 89.6958 14.5204 89.6958 15.3815C89.6958 15.4402 89.6958 15.4989 89.6958 15.5772H87.5627C87.5627 16.3208 87.9541 16.7122 88.7173 16.7122C89.0304 16.7122 89.324 16.6731 89.5588 16.5948V16.8492C89.3044 16.9275 89.0304 16.9666 88.7173 16.9666C87.778 16.9666 87.2496 16.4774 87.2496 15.4598C87.2692 14.54 87.6997 14.0899 88.5412 14.0899ZM92.2594 16.9862H91.9659V13.0527H92.2594V16.9862Z" fill="#70C4E3"/>
<path d="M30.5177 8.47307V5.22454C30.5177 4.83315 30.3807 4.57875 30.0676 4.44176C29.774 4.32435 29.3239 4.20693 28.7173 4.20693H27.3278V9.39284H28.6586C29.3631 9.39284 29.8523 9.3537 30.1459 9.25585C30.3807 9.13844 30.5177 8.86446 30.5177 8.47307ZM32.3572 5.26368V8.49264C32.3572 9.37327 32.0832 10.0191 31.5744 10.3126C31.0461 10.6257 30.0676 10.7823 28.7369 10.7823H25.4688V2.83707H28.7173C30.0089 2.83707 30.9482 2.97405 31.5157 3.34587C32.0832 3.67855 32.3572 4.32435 32.3572 5.26368ZM35.6057 10.7627H33.8641V4.87229H35.6057V10.7627ZM35.6057 4.16779H33.8641V2.75879H35.6057V4.16779ZM40.9482 6.20302H40.3415C39.8719 6.20302 39.5196 6.26172 39.2652 6.43785C39.0108 6.57484 38.8934 6.84881 38.8934 7.20106V10.7627H37.1517V4.87229H38.7956V5.8899C38.7956 5.59636 38.9717 5.34196 39.2652 5.10713C39.5783 4.87229 39.9306 4.73531 40.2437 4.73531H40.8699L40.9482 6.20302ZM45.5666 7.27934V6.43785C45.5666 6.26172 45.5079 6.12474 45.3318 6.00732C45.2143 5.92904 44.9208 5.87034 44.5686 5.87034C44.1576 5.87034 43.8641 5.90947 43.7271 6.00732C43.6096 6.0856 43.4922 6.26172 43.4922 6.43785V7.27934H45.5666ZM47.23 8.27738H43.5314V8.80576C43.5314 9.13844 43.6292 9.37327 43.8641 9.52983C44.0989 9.70595 44.5294 9.76466 45.1361 9.76466C45.7036 9.76466 46.3494 9.68638 47.0734 9.51026V10.6649C46.3494 10.8018 45.5666 10.8997 44.8425 10.8997C42.8073 10.8997 41.8288 10.2539 41.8288 8.96231V6.84881C41.8288 6.10517 42.0637 5.55722 42.5333 5.22454C43.003 4.91143 43.7271 4.75488 44.6664 4.75488C45.547 4.75488 46.232 4.89186 46.6429 5.20497C47.0734 5.49852 47.2887 6.04646 47.2887 6.84881L47.23 8.27738ZM53.2965 10.6844C52.6116 10.8018 51.9658 10.8801 51.3396 10.8801C51.0461 10.8801 50.8112 10.8801 50.6351 10.8606C50.459 10.8606 50.2437 10.841 49.9697 10.8018C49.6958 10.7627 49.5001 10.7236 49.3239 10.6257C49.187 10.5474 49.0108 10.4105 48.8543 10.293C48.7173 10.1756 48.5803 9.96035 48.4824 9.72552C48.4237 9.49069 48.3846 9.19715 48.3846 8.88403V6.88795C48.3846 6.59441 48.4042 6.34 48.4629 6.12474C48.5216 5.8899 48.5999 5.71378 48.7173 5.57679C48.7956 5.43981 48.9521 5.30282 49.1282 5.1854C49.3044 5.08756 49.4609 5.00928 49.5979 4.95057C49.7349 4.91143 49.9306 4.87229 50.185 4.83315C50.4394 4.81358 50.6155 4.79401 50.7721 4.79401C50.9091 4.79401 51.1439 4.79401 51.4179 4.79401C51.8484 4.79401 52.3963 4.85272 53.1596 5.02885V6.20302C52.3376 5.98775 51.7505 5.90947 51.2613 5.90947C50.4785 5.90947 50.0676 6.18345 50.0676 6.73139V8.8449C50.0676 9.45155 50.4981 9.76466 51.3592 9.76466C51.7701 9.76466 52.3572 9.68638 53.1987 9.49069L53.2965 10.6844ZM58.1302 10.8214C57.7975 10.8605 57.4648 10.8801 57.1909 10.8801C56.9169 10.8801 56.6821 10.8801 56.4864 10.8606C56.2907 10.841 56.0754 10.8018 55.8601 10.7431C55.6644 10.6844 55.4688 10.567 55.3318 10.4496C55.2143 10.3322 55.0774 10.156 54.9991 9.92122C54.9208 9.68638 54.8817 9.41241 54.8817 9.0993V5.96818H53.7075V4.87229H54.8817V3.13061H56.6233V4.83315H58.2085V5.92904H56.6233V8.70791C56.6233 9.11887 56.6821 9.39284 56.7995 9.52983C56.9169 9.66681 57.1909 9.72552 57.5627 9.72552C57.6801 9.72552 57.8954 9.70595 58.1889 9.66681L58.1302 10.8214Z" fill="#34383C"/>
<path d="M63.9816 7.63249L63.101 4.85362H63.0619L62.1617 7.63249H63.9816ZM66.7801 10.7636H64.9993L64.3535 8.80666H61.7116L61.0658 10.7636H59.3828L62.0443 3.36634H64.1382L66.7801 10.7636ZM71.2615 9.1002V6.86928C71.2615 6.59531 71.2028 6.39961 71.0462 6.30176C70.9092 6.20392 70.5961 6.16478 70.146 6.16478C69.6568 6.16478 69.3632 6.20392 69.2458 6.30176C69.148 6.39961 69.0893 6.61488 69.0893 6.94756V9.04149C69.0893 9.33503 69.148 9.5503 69.2458 9.66771C69.3437 9.78513 69.6372 9.82427 70.0677 9.82427C70.5961 9.82427 70.9092 9.78513 71.0658 9.68728C71.1636 9.56987 71.2615 9.39374 71.2615 9.1002ZM72.8466 10.7636H71.2811V10.1374C71.1636 10.3526 71.0462 10.5092 70.9484 10.5875C70.8505 10.6658 70.694 10.744 70.4787 10.8027C70.2634 10.8419 69.9895 10.8615 69.6177 10.8615C68.7175 10.8615 68.0912 10.744 67.7977 10.4896C67.5237 10.2548 67.3672 9.74599 67.3672 8.92407V6.791C67.3672 6.16478 67.5237 5.73425 67.876 5.49942C68.2086 5.26458 68.737 5.1276 69.5002 5.1276C70.0286 5.1276 70.3809 5.16673 70.6157 5.26458C70.8505 5.36243 71.0266 5.55812 71.2223 5.85167V2.79883H72.8466V10.7636ZM82.6313 10.7636H81.0071V6.94756C81.0071 6.61488 80.9679 6.39961 80.9092 6.30176C80.831 6.22349 80.6157 6.16478 80.2634 6.16478C79.8133 6.16478 79.5589 6.20392 79.4611 6.30176C79.3632 6.38004 79.3241 6.59531 79.3241 6.94756V10.7636H77.6998V6.94756C77.6998 6.61488 77.6607 6.39961 77.602 6.30176C77.5237 6.22349 77.3085 6.16478 76.9562 6.16478C76.5061 6.16478 76.2517 6.20392 76.1539 6.30176C76.056 6.38004 76.0169 6.59531 76.0169 6.94756V10.7636H74.3926V5.24501H76.0169V5.91037C76.1147 5.40157 76.6627 5.1276 77.602 5.1276C78.1108 5.1276 78.4826 5.1863 78.7566 5.34286C79.011 5.46028 79.1871 5.67554 79.2654 5.96908C79.3437 5.69511 79.5198 5.47985 79.7742 5.34286C80.0286 5.22544 80.42 5.14716 80.9484 5.14716C81.6529 5.14716 82.1225 5.26458 82.3574 5.53855C82.5922 5.79296 82.6901 6.20392 82.6901 6.73229L82.6313 10.7636ZM85.7429 10.7636H84.1186V5.24501H85.7429V10.7636ZM85.7429 4.59922H84.1186V3.24893H85.7429V4.59922ZM92.3965 10.7636H90.7722V6.94756C90.7722 6.65401 90.7331 6.43875 90.6353 6.32133C90.5374 6.22349 90.3026 6.18435 89.9308 6.18435C89.4611 6.18435 89.1676 6.22349 89.0697 6.32133C88.9523 6.41918 88.8936 6.61488 88.8936 6.94756V10.7636H87.2693V5.24501H88.874V5.91037C88.9914 5.40157 89.5785 5.1276 90.5765 5.1276C91.281 5.1276 91.7703 5.24501 92.0443 5.51899C92.2987 5.77339 92.4552 6.18435 92.4552 6.71272L92.3965 10.7636Z" fill="#34383C"/>
<path d="M3.72824 7.14286L6.58538 10L3.72824 12.8571L6.29967 15.4286L12.014 9.71429L6.58538 4.28571L3.72824 7.14286Z" fill="#31B7E9"/>
<path d="M11.7299 9.42829L6.01562 15.1426L6.58705 15.714L12.3013 9.99972L11.7299 9.42829Z" fill="#0682B4"/>
<path d="M8.01395 2.85714L15.1568 10L8.01395 17.1429L10.5854 19.7143L20.5854 9.71429L10.8711 1.73698e-07L8.01395 2.85714Z" fill="#31B7E9"/>
<path d="M20.3008 9.42871L10.3008 19.4287L10.8722 20.0001L20.8722 10.0001L20.3008 9.42871Z" fill="#0682B4"/>
</svg>
