<svg width="50" height="20" viewBox="0 0 50 20" fill="none" xmlns="http://www.w3.org/2000/svg">
<path d="M2.36379 20.0001H0.902344V4.69518C2.0646 4.32694 3.28439 4.13131 4.51569 4.11981C5.3097 4.1083 6.10372 4.24639 6.8517 4.52257C7.51914 4.76422 8.14054 5.14397 8.65838 5.63879C9.16471 6.12211 9.55596 6.69748 9.80912 7.3534C10.0853 8.03234 10.2119 8.76882 10.2119 9.5053C10.2119 10.4489 10.0508 11.2544 9.72857 11.9334C9.42938 12.5778 8.99209 13.1417 8.45124 13.602C7.9219 14.0392 7.312 14.3615 6.64457 14.5571C5.97714 14.7642 5.27518 14.8678 4.57323 14.8678C4.19348 14.8678 3.82524 14.8448 3.457 14.7872C3.08876 14.7297 2.72052 14.6491 2.36379 14.5571V20.0001ZM8.5433 9.47078C8.5433 8.25099 8.19808 7.26134 7.51914 6.50185C6.8402 5.75387 5.87357 5.37412 4.64227 5.37412C4.25102 5.37412 3.87127 5.39713 3.48002 5.44316C3.10027 5.48919 2.72052 5.58125 2.36379 5.70784V13.1762C2.70902 13.2913 3.05424 13.3833 3.41097 13.4639C3.7562 13.5444 4.10142 13.5789 4.45815 13.5789C5.71246 13.5789 6.70211 13.2222 7.43858 12.5087C8.17506 11.8068 8.5433 10.7941 8.5433 9.47078Z" fill="black"/>
<path d="M13.1562 14.7641V0H14.6292V14.7526H13.1562V14.7641Z" fill="black"/>
<path d="M26.7025 13.2221C26.2307 13.7399 25.6439 14.1542 24.9994 14.4304C24.355 14.7066 23.5725 14.8447 22.6634 14.8447C21.9039 14.8562 21.1444 14.7181 20.4425 14.4074C19.8326 14.1427 19.2917 13.7399 18.866 13.2336C18.4402 12.7388 18.118 12.1634 17.9223 11.542C17.7037 10.8976 17.6001 10.2187 17.6001 9.53971C17.5771 8.72268 17.7152 7.89414 17.9799 7.12314C18.1985 6.49023 18.5553 5.91486 19.0156 5.42004C19.4413 4.98275 19.9592 4.63753 20.5345 4.41889C21.1214 4.20025 21.7428 4.09668 22.3642 4.09668C23.9062 4.09668 25.08 4.56849 25.8625 5.52361C26.645 6.46722 27.0247 7.84811 27.0017 9.66629H19.0961C19.1421 10.8631 19.4874 11.8067 20.1318 12.5086C20.7762 13.2106 21.6623 13.5673 22.767 13.5673C23.3424 13.5788 23.9177 13.4753 24.4586 13.2566C24.9879 13.038 25.4482 12.7043 25.828 12.2785L26.7025 13.2221ZM25.5173 8.43499C25.5173 8.02073 25.4482 7.60646 25.3216 7.2152C25.1951 6.85847 25.0109 6.52475 24.7578 6.24858C24.4931 5.96089 24.1594 5.74225 23.8027 5.60416C22.9166 5.28195 21.9384 5.28195 21.0524 5.60416C20.7072 5.74225 20.3849 5.94938 20.1318 6.22556C19.8786 6.51325 19.6715 6.83546 19.5104 7.18068C19.3147 7.57193 19.1997 7.99771 19.1421 8.43499H25.5173Z" fill="black"/>
<path d="M36.6557 6.70904C36.3335 6.28326 35.9308 5.93804 35.459 5.68487C34.9872 5.45472 34.4578 5.33965 33.94 5.36266C33.192 5.36266 32.6627 5.50075 32.3635 5.76542C32.0643 6.01859 31.9032 6.38683 31.9147 6.77808C31.9032 7.03125 31.9837 7.28441 32.1218 7.49154C32.2714 7.69868 32.4555 7.87129 32.6742 7.99787C32.9273 8.14747 33.192 8.27405 33.4682 8.36611C33.7674 8.46968 34.0781 8.57325 34.4118 8.67681C34.8146 8.8034 35.2058 8.94149 35.6086 9.09108C35.9998 9.22917 36.3681 9.4248 36.7018 9.66646C37.024 9.89661 37.3002 10.1958 37.5073 10.541C37.7259 10.9323 37.8295 11.3811 37.818 11.8414C37.8295 12.2902 37.7144 12.7274 37.5073 13.1302C37.3002 13.51 37.0125 13.8322 36.6673 14.0853C36.2875 14.3615 35.8617 14.5571 35.4129 14.6722C34.1701 14.9944 32.8468 14.9254 31.65 14.4651C30.948 14.1544 30.3151 13.6826 29.8203 13.1072L30.9711 12.0945C31.7421 13.0842 32.7317 13.5675 33.9515 13.5675C34.7455 13.5675 35.3324 13.4179 35.7236 13.1187C36.1034 12.8195 36.299 12.4628 36.299 12.0485C36.3105 11.7608 36.2415 11.4846 36.0919 11.2315C35.9423 11.0013 35.7467 10.8172 35.5165 10.6676C35.2518 10.5065 34.9757 10.3684 34.6765 10.2764C34.3543 10.1728 34.0205 10.0692 33.6753 9.96565C33.2726 9.85058 32.8813 9.72399 32.49 9.5859C32.1218 9.45932 31.7651 9.2752 31.4429 9.04505C31.1322 8.82641 30.8675 8.53872 30.6834 8.21652C30.4762 7.82526 30.3727 7.37647 30.3842 6.92768C30.3842 5.99557 30.7179 5.28211 31.3968 4.77578C32.0758 4.26946 32.9503 4.01629 34.032 4.01629C34.734 4.00478 35.4245 4.14287 36.0689 4.40754C36.6673 4.66071 37.2311 5.1095 37.7835 5.74241L36.7018 6.73205L36.6557 6.70904Z" fill="black"/>
<path d="M40.5703 14.7645V0.0234375H42.0433V14.7645H40.5703ZM42.0548 9.32147L47.1181 4.21215H49.0973L43.9075 9.27544L49.0743 14.753H47.026L42.0548 9.32147Z" fill="black"/>
<path d="M18.29 19.9998H9.40625V18.6074H18.29V19.9998Z" fill="#53BCE6"/>
</svg>
