<svg width="104" height="36" viewBox="0 0 104 36" fill="none" xmlns="http://www.w3.org/2000/svg">
<path fill-rule="evenodd" clip-rule="evenodd" d="M78.0628 17.1845C75.3211 17.1845 73.0995 14.9419 73.0995 12.1777C73.0995 9.4135 75.3222 7.17204 78.0628 7.17204C80.1291 7.17204 81.9011 8.44714 82.6482 10.2584H85.9531C85.8891 9.99531 85.8186 9.73338 85.7316 9.48037L87.6314 7.7338L86.698 6.05076L84.1601 6.76968C83.9364 6.51456 83.6979 6.27302 83.446 6.0463L84.2251 3.60757L82.5854 2.61669L80.6459 4.41119C80.3208 4.30085 79.9858 4.21168 79.6431 4.14369L79.0469 1.64811L77.1361 1.61133L76.4782 4.1448C76.1233 4.21575 75.7736 4.31071 75.4313 4.42903L73.635 2.53867L71.9578 3.4649L72.6554 6.06971C72.4153 6.28689 72.1879 6.518 71.9744 6.76187L69.4365 6.04965L68.437 7.69368L70.3599 9.58514C70.253 9.90503 70.1671 10.235 70.101 10.5716L67.6215 11.2604L67.5664 13.1875L70.1219 13.8908C70.1968 14.2475 70.296 14.5952 70.415 14.933L68.4568 16.6528L69.3582 18.3526L72.0019 17.6303C72.208 17.8618 72.4261 18.0821 72.6554 18.2901L72.0427 20.9618L73.6703 21.8847L75.5955 19.9854C75.8864 20.0791 76.1873 20.1571 76.4925 20.2173L77.0975 22.8477H79.0094L79.6387 20.2173C79.988 20.1482 80.3307 20.0557 80.6624 19.9431L82.4333 21.8635L84.0918 20.9061L83.3909 18.3637C83.6576 18.1296 83.9078 17.8788 84.1403 17.6125L86.6054 18.3615L87.5719 16.6985L86.0269 15.1637H82.0498C81.1451 16.3909 79.696 17.1867 78.0639 17.1867L78.0628 17.1845Z" fill="#8ABD56"/>
<path fill-rule="evenodd" clip-rule="evenodd" d="M87.6442 17.1113V20.7538C87.6442 20.7538 90.5248 22.3666 93.7966 22.3666C97.0684 22.3666 100.76 20.7438 100.76 16.8962C100.76 13.0486 98.4392 11.4614 94.9702 10.5196C91.5022 9.57776 90.8884 8.95024 90.8884 7.88246C90.8884 6.94063 91.6091 5.50503 94.8633 5.50503C97.7439 5.50503 99.5225 7.17469 99.5225 7.17469V3.65814C99.5225 3.65814 96.8193 2.34961 94.3828 2.34961C91.9463 2.34961 87.6431 2.93254 87.6431 8.18006C87.6431 15.0694 97.2105 12.3241 97.2105 16.7368C97.2105 18.5257 95.53 19.1053 93.1431 19.0775C90.5137 19.0474 87.6431 17.1124 87.6431 17.1124L87.6442 17.1113ZM47.4602 2.63606H51.2477L56.8469 10.7425L62.4461 2.63606H66.3879V22.0746H62.8219V7.66957L56.8899 16.3679L50.8158 7.72419V22.0746H47.4602V2.63606ZM30.267 2.63606H33.5598V10.7169H41.9282V2.63606H45.221V22.0746H41.9282V13.8823H33.5598V22.0746H30.267V2.63606ZM0.25 2.63606H3.86452L8.4036 17.0489L13.0165 2.57922H15.9665L20.5806 17.0489L25.1185 2.63606H28.6251L22.4539 22.2139H18.9584L14.4381 8.2447L10.1536 22.2139H6.56108L0.25 2.63606Z" fill="#163753"/>
<path fill-rule="evenodd" clip-rule="evenodd" d="M83.751 3.61129C81.9702 3.61129 80.5266 5.06695 80.5266 6.86368C80.5266 8.66041 81.9702 10.1161 83.751 10.1161C85.5318 10.1161 86.9754 8.66041 86.9754 6.86368C86.9754 5.06695 85.5318 3.61129 83.751 3.61129ZM88.9171 7.94372C88.8708 8.17221 88.8091 8.39625 88.7342 8.61359L89.9287 9.79729L89.3006 10.8784L87.7005 10.3925C87.5486 10.5656 87.3855 10.7283 87.2123 10.8796L87.6686 12.5314L86.5908 13.1533L85.4381 11.905C85.2232 11.9786 85.0017 12.0387 84.7747 12.0833L84.3648 13.7931H83.1229L82.7294 12.0833C82.53 12.0443 82.336 11.9942 82.1465 11.9329L80.8957 13.1678L79.8378 12.5682L80.2368 10.8316C80.0875 10.6972 79.9458 10.5543 79.8125 10.4036L78.0945 10.874L77.5082 9.76831L78.7799 8.65149C78.7028 8.43191 78.6389 8.20565 78.5904 7.97381L76.9297 7.51794L76.965 6.26625L78.5761 5.8193C78.619 5.60084 78.6752 5.38684 78.7447 5.17841L77.4961 3.95013L78.1452 2.88234L79.7938 3.3449C79.9315 3.18663 80.0803 3.03616 80.2368 2.89572L79.7827 1.20265L80.8726 0.601881L82.0385 1.83017C82.2613 1.75365 82.4888 1.69184 82.7195 1.64514L83.1471 0L84.389 0.0245211L84.7747 1.64514C84.9973 1.68973 85.2144 1.74769 85.426 1.82013L86.6867 0.654267L87.7512 1.2985L87.2443 2.88234C87.4085 3.02947 87.5639 3.18663 87.7093 3.3527L89.3579 2.88569L89.964 3.97799L88.7298 5.11265C88.8146 5.36232 88.8829 5.61867 88.9336 5.88395L90.6241 6.31307L90.6109 7.56587L88.9138 7.94483L88.9171 7.94372Z" fill="#C3C7CC"/>
<path d="M102.186 5.78572C101.965 5.78572 101.76 5.74559 101.571 5.66534C101.383 5.58509 101.217 5.47252 101.075 5.32762C100.934 5.18272 100.824 5.01553 100.746 4.82382C100.667 4.63322 100.629 4.42702 100.629 4.20633C100.629 3.98564 100.669 3.77944 100.748 3.58885C100.827 3.39825 100.939 3.22995 101.08 3.08505C101.221 2.94015 101.387 2.82758 101.578 2.74733C101.768 2.66708 101.973 2.62695 102.195 2.62695C102.416 2.62695 102.621 2.66596 102.812 2.7451C103.003 2.82424 103.168 2.9357 103.308 3.07836C103.448 3.22103 103.557 3.38822 103.635 3.5777C103.713 3.76718 103.752 3.97338 103.752 4.19742C103.752 4.42145 103.712 4.62877 103.633 4.82159C103.554 5.01442 103.442 5.18272 103.299 5.32762C103.156 5.47252 102.99 5.58509 102.801 5.66534C102.612 5.74559 102.408 5.78572 102.186 5.78572ZM102.186 5.56391C102.374 5.56391 102.551 5.52824 102.714 5.45803C102.877 5.38781 103.019 5.29084 103.141 5.16712C103.264 5.0434 103.357 4.8985 103.425 4.73242C103.492 4.56635 103.525 4.38801 103.525 4.1963C103.525 4.00459 103.492 3.82737 103.425 3.66241C103.357 3.49745 103.265 3.35478 103.146 3.23441C103.025 3.1128 102.882 3.01625 102.725 2.95019C102.564 2.88108 102.387 2.84653 102.195 2.84653C102.003 2.84653 101.825 2.88108 101.66 2.95019C101.5 3.01639 101.355 3.11544 101.235 3.2411C101.116 3.36586 101.021 3.51268 100.956 3.67356C100.889 3.83629 100.856 4.01351 100.856 4.20522C100.856 4.39693 100.889 4.57415 100.956 4.73911C101.023 4.90407 101.116 5.04785 101.235 5.17157C101.354 5.29529 101.495 5.39115 101.658 5.46025C101.821 5.52936 101.996 5.56391 102.186 5.56391ZM101.562 5.10135V3.31131H102.27C102.493 3.31131 102.67 3.36704 102.797 3.47739C102.923 3.58773 102.987 3.73486 102.987 3.91988C102.987 4.10491 102.923 4.25984 102.797 4.36684C102.67 4.47384 102.495 4.52845 102.27 4.52845H101.863V5.10135H101.562ZM101.859 4.27767H102.248C102.39 4.27767 102.499 4.24646 102.577 4.18404C102.655 4.12163 102.694 4.03357 102.694 3.91988C102.694 3.8062 102.655 3.71926 102.577 3.65795C102.499 3.59665 102.389 3.56656 102.248 3.56656H101.859V4.27767ZM102.713 5.10135L102.27 4.41254H102.575L103.018 5.10135H102.713Z" fill="#163753"/>
<path d="M59.3744 32.4786C59.262 32.3645 59.114 32.2933 58.9556 32.2769C58.9325 32.2747 58.9093 32.2735 58.8862 32.2735C58.862 32.2735 58.8399 32.2735 58.8168 32.2769C58.6869 32.2902 58.5634 32.3405 58.4606 32.422C58.3579 32.5035 58.2801 32.6127 58.2362 32.7371C58.1924 32.8615 58.1843 32.9959 58.213 33.1248C58.2416 33.2536 58.3058 33.3716 58.398 33.465C58.5281 33.5966 58.7022 33.669 58.8862 33.669C59.0702 33.669 59.2433 33.5966 59.3733 33.465C59.5024 33.3341 59.5749 33.1568 59.5749 32.9718C59.5749 32.7869 59.5024 32.6095 59.3733 32.4786M63.2501 29.2552C63.2501 29.0769 63.1829 28.8985 63.0484 28.7626C62.9184 28.631 62.7443 28.5586 62.5613 28.5586C62.3784 28.5586 62.2043 28.631 62.0743 28.7626C62.0103 28.8272 61.9619 28.9019 61.9277 28.981C61.8913 29.068 61.8726 29.1616 61.8726 29.2552C61.8726 29.4336 61.9398 29.613 62.0743 29.749C62.1971 29.8741 62.3628 29.9467 62.5371 29.9518H62.5856C62.7608 29.9463 62.9239 29.8738 63.0484 29.749C63.1125 29.6841 63.1633 29.6071 63.1979 29.5224C63.2325 29.4377 63.2502 29.3469 63.2501 29.2552ZM63.0484 33.4684C63.3349 33.1786 63.3063 32.6859 62.9911 32.4307C62.9141 32.368 62.8246 32.3228 62.7288 32.2981C62.6429 32.2769 62.5536 32.278 62.4666 32.2713C62.255 32.2546 62.0555 32.1821 61.8836 32.0551C61.7052 31.923 61.5679 31.742 61.488 31.5334C61.4505 31.4343 61.4274 31.3317 61.4186 31.2247C61.4109 31.1367 61.4142 31.0464 61.3932 30.9583C61.3605 30.8153 61.2842 30.6862 61.175 30.5894C61.0439 30.4735 60.8841 30.4222 60.7133 30.4166C60.5039 30.4088 60.3045 30.3598 60.1237 30.2483C59.9452 30.1369 59.7976 29.9786 59.7006 29.7902C59.651 29.6921 59.6146 29.5862 59.5937 29.477C59.5772 29.3879 59.5783 29.2953 59.5716 29.2051C59.5584 29.0145 59.4648 28.8306 59.316 28.7124C58.9942 28.4549 58.5093 28.5363 58.2933 28.893C58.0807 29.2452 58.2283 29.7222 58.5986 29.8916C58.7837 29.9775 58.9898 29.9407 59.1837 29.9942C59.3865 30.0499 59.5727 30.1625 59.7171 30.3174C59.8615 30.4724 59.9629 30.6674 60.0058 30.8758C60.0433 31.0586 60.0168 31.2448 60.0995 31.4175C60.1326 31.4878 60.1777 31.5535 60.2328 31.6092C60.3054 31.6827 60.3936 31.7384 60.4907 31.772C60.6108 31.8154 60.7309 31.8065 60.8555 31.821C61.1321 31.8533 61.3932 31.9904 61.5773 32.2C61.7624 32.4106 61.8649 32.6826 61.8682 32.9635C61.8715 33.2343 62.0147 33.4851 62.2594 33.6021C62.5217 33.7292 62.8412 33.6746 63.0462 33.4662" fill="#231F20"/>
<path d="M63.1038 31.5839C63.3396 31.3454 63.3727 30.953 63.1732 30.6799C63.0828 30.5551 62.9528 30.4615 62.804 30.4191C62.652 30.3757 62.49 30.3979 62.3357 30.3589C61.9897 30.2709 61.6976 30.0179 61.5577 29.6868C61.4916 29.5263 61.4761 29.3669 61.4662 29.1953C61.4574 29.0281 61.3891 28.871 61.2756 28.7495C61.0552 28.5109 60.6838 28.4708 60.4116 28.6402C60.1295 28.8174 60.0149 29.1842 60.1372 29.494C60.1978 29.6467 60.3124 29.7715 60.4546 29.8484C60.5273 29.8875 60.6067 29.9131 60.6882 29.9242C60.772 29.9354 60.8568 29.9287 60.9406 29.941C61.291 29.9922 61.6051 30.2085 61.7781 30.5217C61.8607 30.6699 61.9092 30.836 61.9213 31.0054C61.928 31.0957 61.9246 31.1826 61.9478 31.2707C61.9676 31.3476 62.0007 31.4223 62.047 31.4858C62.2343 31.7544 62.588 31.8625 62.8889 31.731C62.9682 31.6953 63.041 31.6452 63.1027 31.5839M17.8937 28.7316L19.2789 28.7305L20.1715 32.1033L21.2007 28.7283H22.3181L23.4014 32.11L24.2973 28.7272L25.6638 28.7249L24.0527 33.647L22.8482 33.6481L21.7473 30.4013L20.6982 33.6492L19.5136 33.6503L17.8937 28.7316ZM29.2496 30.6554C29.2177 30.3143 29.1075 30.0524 28.919 29.8685C28.7306 29.6846 28.4804 29.5921 28.1686 29.5932C27.8633 29.5932 27.6099 29.6857 27.4137 29.8696C27.2165 30.0535 27.0897 30.3166 27.0324 30.6565L29.2496 30.6543V30.6554ZM28.5543 33.7986C27.9879 33.7986 27.492 33.696 27.0677 33.4898C26.6434 33.2836 26.3139 32.9827 26.077 32.587C25.8412 32.1913 25.7222 31.7254 25.7222 31.1904C25.7222 30.6944 25.8236 30.2475 26.0274 29.8507C26.2313 29.455 26.5211 29.1418 26.8969 28.9122C27.2716 28.6848 27.708 28.5689 28.2049 28.5689C28.6645 28.5689 29.0667 28.6659 29.4149 28.862C29.7621 29.0582 30.0331 29.3402 30.2271 29.7069C30.4221 30.0736 30.5191 30.5094 30.5202 31.0121C30.5202 31.2239 30.5048 31.4178 30.4728 31.5928L27.0424 31.595C27.2088 32.3295 27.7597 32.6962 28.6964 32.6951C28.9896 32.6951 29.2739 32.665 29.5516 32.6026C29.8282 32.5413 30.0783 32.4521 30.302 32.3362L30.4365 33.3895C30.2073 33.5177 29.9274 33.618 29.5957 33.6905C29.2651 33.7607 28.9168 33.7975 28.5543 33.7975M33.8857 32.5948C34.2681 32.5948 34.5788 32.4622 34.818 32.198C35.056 31.9327 35.175 31.595 35.175 31.1826C35.175 30.7702 35.0538 30.4225 34.8114 30.1572C34.5689 29.893 34.2604 29.7615 33.8846 29.7626C33.5077 29.7626 33.1992 29.8953 32.9578 30.1594C32.7165 30.4236 32.5953 30.7646 32.5953 31.1848C32.5953 31.5972 32.7143 31.935 32.9545 32.1991C33.1936 32.4633 33.5044 32.5948 33.8868 32.5948M34.1843 33.7941C33.846 33.7941 33.543 33.725 33.2719 33.5868C33.0008 33.4486 32.7881 33.2535 32.636 33.0028L32.6162 33.6414H31.3456L31.3401 25.8125H32.668L32.6713 29.3012C33.0217 28.8108 33.5474 28.5656 34.2482 28.5644C34.6747 28.5644 35.0593 28.6703 35.3998 28.8821C35.7414 29.095 36.0103 29.3993 36.2087 29.7949C36.407 30.1917 36.5062 30.6476 36.5062 31.1626C36.5062 31.6396 36.4103 32.0754 36.2164 32.4722C36.0224 32.869 35.748 33.1878 35.3899 33.4308C35.034 33.6726 34.6317 33.793 34.1865 33.7941M39.6645 32.5892C40.0469 32.5892 40.3577 32.4566 40.5968 32.1913C40.8359 31.9272 40.9538 31.5894 40.9538 31.177C40.9538 30.7646 40.8326 30.4158 40.5902 30.1516C40.3477 29.8875 40.0392 29.7559 39.6634 29.7559C39.2865 29.7559 38.978 29.8897 38.7366 30.1538C38.4953 30.418 38.3741 30.7602 38.3741 31.1793C38.3741 31.5984 38.4931 31.9294 38.7333 32.1936C38.9725 32.4577 39.2832 32.5892 39.6656 32.5892M37.12 28.7149H38.3906L38.4115 29.3525C38.741 28.823 39.2799 28.5589 40.026 28.5577C40.4535 28.5577 40.837 28.6636 41.1786 28.8754C41.5192 29.0872 41.788 29.3915 41.9864 29.7883C42.1848 30.1839 42.2839 30.6409 42.2839 31.1559C42.2839 31.6318 42.1881 32.0687 41.9941 32.4655C41.8002 32.8623 41.5258 33.1811 41.1676 33.423C40.8117 33.6659 40.4095 33.7863 39.9643 33.7874C39.6403 33.7874 39.346 33.725 39.0849 33.5991C38.8237 33.4742 38.6132 33.2948 38.4534 33.0629L38.4567 36.001H37.1277L37.1222 28.7138L37.12 28.7149ZM42.9385 28.7104H44.2201L44.23 29.5219C44.3645 29.2321 44.543 29.0092 44.7689 28.8542C44.9948 28.6993 45.2582 28.6213 45.5579 28.6213C45.7618 28.6213 45.9491 28.6569 46.1222 28.7272L46.0075 29.9933C45.8103 29.9153 45.6119 29.8774 45.4158 29.8774C45.0532 29.8774 44.77 30.0101 44.5706 30.2753C44.37 30.5395 44.2697 30.9095 44.2708 31.3866V33.6292H42.944L42.9396 28.7093L42.9385 28.7104ZM48.9157 32.5814C49.2915 32.5814 49.6011 32.4488 49.8425 32.1846C50.0838 31.9205 50.205 31.5783 50.205 31.1592C50.205 30.7401 50.0849 30.408 49.8458 30.1438C49.6066 29.8808 49.2959 29.7481 48.9135 29.7493C48.5311 29.7493 48.2203 29.8819 47.9812 30.146C47.7421 30.4102 47.6231 30.749 47.6242 31.1614C47.6242 31.5805 47.7454 31.9216 47.9878 32.1858C48.2292 32.451 48.5388 32.5826 48.9146 32.5814M48.9146 33.7807C48.4374 33.7807 47.9977 33.6715 47.5999 33.4531C47.2021 33.2346 46.8847 32.9258 46.6489 32.5257C46.412 32.1256 46.2941 31.673 46.2941 31.1626C46.2941 30.6922 46.4043 30.2597 46.6225 29.8629C46.8429 29.4661 47.1536 29.1485 47.5547 28.91C47.9559 28.6714 48.4077 28.5511 48.9113 28.5511C49.3884 28.5511 49.827 28.6581 50.226 28.8732C50.6238 29.0894 50.9411 29.397 51.177 29.7961C51.4128 30.1962 51.5318 30.6487 51.5318 31.1592C51.5318 31.6351 51.4227 32.0721 51.2034 32.4689C50.9841 32.8657 50.6734 33.1822 50.2722 33.4218C49.8711 33.6604 49.4182 33.7807 48.9157 33.7807M53.8383 33.7763C53.468 33.7763 53.1176 33.7328 52.787 33.647C52.4553 33.5601 52.2007 33.4464 52.0222 33.3048L52.1831 32.2125C52.4002 32.3607 52.6536 32.48 52.9435 32.5703C53.2333 32.6606 53.5121 32.7052 53.7799 32.7052C54.322 32.7052 54.592 32.5658 54.5909 32.2894C54.5909 32.1412 54.5336 32.0286 54.419 31.9517C54.3033 31.8737 54.0642 31.7834 53.7016 31.682C53.1275 31.5215 52.7186 31.3164 52.474 31.0689C52.2283 30.8204 52.1048 30.4882 52.1048 30.068C52.1048 29.5977 52.2801 29.2265 52.6294 28.9557C52.9798 28.6848 53.4603 28.5488 54.073 28.5477C54.3716 28.5477 54.6725 28.5834 54.9711 28.6536C55.2709 28.7238 55.5166 28.8174 55.7083 28.9334L55.5563 29.9967C55.3579 29.8808 55.1298 29.7894 54.873 29.7214C54.6152 29.6534 54.3672 29.62 54.1325 29.62C53.6675 29.62 53.4349 29.747 53.4349 29.9978C53.4349 30.1394 53.4911 30.2497 53.6024 30.3311C53.7137 30.4113 53.9352 30.5005 54.2669 30.5963C54.8796 30.7769 55.3105 30.9887 55.5629 31.2339C55.8141 31.478 55.9409 31.8168 55.942 32.2493C55.942 32.7252 55.7557 33.0997 55.3833 33.3706C55.0119 33.6414 54.4973 33.7774 53.8405 33.7785M56.9337 28.5421H57.0252C57.0781 28.5421 57.1156 28.5332 57.1387 28.5165C57.1608 28.4998 57.1729 28.4719 57.1729 28.4318C57.1729 28.3616 57.1255 28.327 57.0296 28.327H56.9348V28.5421H56.9337ZM56.8158 28.2211H57.0384C57.1189 28.2211 57.1817 28.2401 57.228 28.2769C57.2732 28.3137 57.2974 28.366 57.2974 28.4318C57.2974 28.5254 57.2588 28.589 57.1795 28.6246L57.3426 28.8888H57.2059L57.0616 28.6469H56.9348V28.8888H56.8169V28.2211H56.8158ZM57.0484 29.1474C57.1486 29.1474 57.2401 29.1228 57.3261 29.0738C57.412 29.0259 57.4792 28.9568 57.5321 28.8698C57.585 28.7818 57.6104 28.6826 57.6104 28.5722C57.6104 28.4686 57.5861 28.3727 57.5387 28.2869C57.4912 28.2004 57.4221 28.1282 57.3382 28.0774C57.2522 28.0239 57.1552 27.9982 57.0484 27.9982C56.9481 27.9982 56.8555 28.0227 56.7707 28.0707C56.6847 28.1197 56.6175 28.1877 56.5646 28.2758C56.5117 28.3638 56.4863 28.463 56.4863 28.5734C56.4863 28.6759 56.5106 28.7717 56.558 28.8587C56.6057 28.9452 56.6748 29.0178 56.7585 29.0693C56.8445 29.1228 56.9415 29.1485 57.0484 29.1485M57.0484 29.27C56.926 29.27 56.8136 29.241 56.7089 29.1808C56.6042 29.1216 56.5167 29.0355 56.4555 28.9311C56.3916 28.8241 56.3596 28.7049 56.3596 28.5722C56.3596 28.4463 56.3883 28.3315 56.4456 28.2267C56.5029 28.1219 56.5855 28.0372 56.6924 27.9726C56.7993 27.9079 56.9172 27.8756 57.0484 27.8756C57.1729 27.8756 57.2875 27.9046 57.3911 27.9637C57.4958 28.0239 57.5806 28.1075 57.6434 28.2145C57.7051 28.3215 57.7371 28.4407 57.7371 28.5734C57.7371 28.696 57.7084 28.8108 57.6489 28.9166C57.5905 29.0225 57.5079 29.1084 57.4021 29.173C57.2963 29.2377 57.1784 29.27 57.0472 29.27M69.341 33.6604H68.5851V26.8636H69.341V29.4829C69.7642 28.9055 70.3119 28.6168 70.983 28.6168C71.6541 28.6168 72.1412 28.8531 72.5445 29.3246C72.9478 29.7972 73.1495 30.4236 73.1495 31.2049C73.1495 31.9862 72.95 32.6193 72.55 33.0852C72.15 33.5511 71.6276 33.783 70.983 33.783C70.3042 33.783 69.7576 33.4976 69.341 32.927V33.6604ZM69.341 32.3251C69.4755 32.5424 69.6782 32.7263 69.9504 32.8757C70.2226 33.025 70.5025 33.0997 70.7912 33.0997C71.275 33.0997 71.6574 32.9236 71.9395 32.5703C72.2216 32.217 72.3627 31.7622 72.3627 31.2049C72.3627 30.6476 72.2216 30.1906 71.9395 29.834C71.6574 29.4773 71.275 29.299 70.7912 29.299C70.5025 29.299 70.2215 29.3759 69.9504 29.5286C69.6782 29.6813 69.4755 29.8696 69.341 30.0937V32.3251ZM75.1342 33.6604H74.3782V28.7383H75.1342V29.533C75.5838 28.9356 76.1248 28.6358 76.7563 28.6358V29.4204C76.6626 29.4004 76.5612 29.3904 76.4543 29.3904C76.2262 29.3904 75.9772 29.4717 75.7083 29.6344C75.4394 29.7972 75.2477 29.9777 75.1342 30.1739V33.6593V33.6604ZM81.5025 33.6604H80.7466V33.0997C80.3366 33.5545 79.8 33.783 79.1344 33.783C78.6848 33.783 78.288 33.637 77.9453 33.3449C77.6026 33.0529 77.4318 32.655 77.4318 32.1523C77.4318 31.6496 77.6015 31.2372 77.9409 30.9552C78.2803 30.6732 78.6782 30.5328 79.1344 30.5328C79.8264 30.5328 80.3631 30.7568 80.7466 31.2049V30.3188C80.7466 29.9922 80.632 29.7381 80.4039 29.5542C80.1758 29.3703 79.8804 29.2789 79.5168 29.2789C78.9459 29.2789 78.4489 29.5063 78.0258 29.9621L77.6731 29.4327C78.19 28.8888 78.839 28.6179 79.6181 28.6179C80.1758 28.6179 80.6287 28.7539 80.978 29.0259C81.3273 29.2978 81.5014 29.7158 81.5014 30.2798V33.6626L81.5025 33.6604ZM79.4066 33.2324C80.0116 33.2324 80.4579 33.0284 80.7466 32.6204V31.6931C80.4579 31.2852 80.0116 31.0812 79.4066 31.0812C79.0572 31.0812 78.7696 31.1815 78.5448 31.3821C78.32 31.5828 78.2076 31.8425 78.2076 32.1612C78.2076 32.48 78.32 32.7308 78.5448 32.9303C78.7696 33.1309 79.0572 33.2312 79.4066 33.2312V33.2324ZM87.0533 33.6604H86.2973V30.4403C86.2973 30.0257 86.2036 29.7325 86.0152 29.5587C85.8267 29.3859 85.5579 29.299 85.2096 29.299C84.9275 29.299 84.6542 29.3736 84.3886 29.523C84.1231 29.6723 83.917 29.8529 83.7693 30.0636V33.6615H83.0134V28.7394H83.7693V29.4528C83.9578 29.2287 84.209 29.0337 84.5253 28.8665C84.8405 28.7004 85.1666 28.6168 85.5028 28.6168C86.5375 28.6168 87.0544 29.1463 87.0544 30.2062V33.6615L87.0533 33.6604ZM92.8475 33.6604H92.0915V32.927C91.675 33.4976 91.1273 33.783 90.4496 33.783C89.7719 33.783 89.2826 33.55 88.8826 33.0852C88.4825 32.6193 88.2831 31.9929 88.2831 31.2049C88.2831 30.4169 88.4825 29.7972 88.8826 29.3246C89.2826 28.852 89.8049 28.6168 90.4496 28.6168C91.0942 28.6168 91.6684 28.9055 92.0915 29.4829V26.8636H92.8475V33.6604ZM90.6314 33.0997C90.9267 33.0997 91.2088 33.025 91.4777 32.8757C91.7466 32.7263 91.9516 32.5424 92.0926 32.3251V30.0937C91.9516 29.8696 91.7455 29.6813 91.4733 29.5286C91.2011 29.3759 90.9212 29.299 90.6325 29.299C90.1553 29.299 89.7763 29.4773 89.4941 29.834C89.212 30.1906 89.071 30.6476 89.071 31.2049C89.071 31.7622 89.212 32.217 89.4941 32.5703C89.7763 32.9236 90.1553 33.0997 90.6325 33.0997H90.6314ZM13.7436 33.569H13.0262V33.0373C12.6372 33.4698 12.127 33.686 11.4955 33.686C11.068 33.686 10.6922 33.5478 10.3671 33.2703C10.042 32.9927 9.87891 32.616 9.87891 32.1378C9.87891 31.6597 10.0398 31.2684 10.3616 31.0009C10.6834 30.7334 11.0613 30.5997 11.4955 30.5997C12.1523 30.5997 12.6625 30.8126 13.0262 31.2383V30.3968C13.0262 30.087 12.9182 29.8451 12.7011 29.6712C12.484 29.4974 12.2041 29.4104 11.8592 29.4104C11.317 29.4104 10.8453 29.6266 10.4431 30.0591L10.1081 29.5564C10.5996 29.0404 11.2145 28.7829 11.9539 28.7829C12.4829 28.7829 12.9138 28.9122 13.2455 29.1697C13.5772 29.4282 13.7425 29.8239 13.7425 30.36V33.5723L13.7436 33.569ZM11.7534 33.1621C12.3275 33.1621 12.7518 32.9682 13.0262 32.5814V31.7009C12.7518 31.3141 12.3275 31.1202 11.7534 31.1202C11.4217 31.1202 11.1495 31.2161 10.9357 31.4055C10.7219 31.5961 10.615 31.8425 10.615 32.1456C10.615 32.4488 10.7219 32.6862 10.9357 32.8757C11.1495 33.0663 11.4217 33.161 11.7534 33.161V33.1621Z" fill="#231F20"/>
</svg>
