<?xml version="1.0" encoding="utf-8"?>
<!-- Generator: Adobe Illustrator 21.0.2, SVG Export Plug-In . SVG Version: 6.00 Build 0)  -->
<svg version="1.1" id="Logo" xmlns="http://www.w3.org/2000/svg" xmlns:xlink="http://www.w3.org/1999/xlink" x="0px" y="0px"
	 viewBox="0 0 227 37" style="enable-background:new 0 0 227 37;" xml:space="preserve">
<style type="text/css">
	.st0{fill:#FFFFFF;}
</style>
<g>
	<path class="st0" d="M216.5,37h-12c-1.4,0-2.5-1.1-2.5-2.5s1.1-2.5,2.5-2.5h12c3,0,5.5-2.5,5.5-5.5s-2.5-5.5-5.5-5.5h-6
		c-5.8,0-10.5-4.7-10.5-10.5S204.7,0,210.5,0h12c1.4,0,2.5,1.1,2.5,2.5S223.9,5,222.5,5h-12c-3,0-5.5,2.5-5.5,5.5s2.5,5.5,5.5,5.5h6
		c5.8,0,10.5,4.7,10.5,10.5S222.3,37,216.5,37z"/>
	<g>
		<path class="st0" d="M186.5,37c-0.9,0-1.8-0.5-2.2-1.4l-8-16c-0.6-1.2-0.1-2.7,1.1-3.4c1.2-0.6,2.7-0.1,3.4,1.1l8,16
			c0.6,1.2,0.1,2.7-1.1,3.4C187.3,36.9,186.9,37,186.5,37z"/>
		<path class="st0" d="M178.5,21h-14c-1.4,0-2.5-1.1-2.5-2.5s1.1-2.5,2.5-2.5h14c3,0,5.5-2.5,5.5-5.5S181.5,5,178.5,5h-14
			c-1.4,0-2.5-1.1-2.5-2.5s1.1-2.5,2.5-2.5h14c5.8,0,10.5,4.7,10.5,10.5S184.3,21,178.5,21z"/>
	</g>
	<g>
		<path class="st0" d="M148.5,5h-22c-1.4,0-2.5-1.1-2.5-2.5s1.1-2.5,2.5-2.5h22c1.4,0,2.5,1.1,2.5,2.5S149.9,5,148.5,5z"/>
		<path class="st0" d="M148.5,37h-22c-1.4,0-2.5-1.1-2.5-2.5s1.1-2.5,2.5-2.5h22c1.4,0,2.5,1.1,2.5,2.5S149.9,37,148.5,37z"/>
		<path class="st0" d="M148.5,21h-22c-1.4,0-2.5-1.1-2.5-2.5s1.1-2.5,2.5-2.5h22c1.4,0,2.5,1.1,2.5,2.5S149.9,21,148.5,21z"/>
	</g>
	<g>
		<path class="st0" d="M98.5,37c-1.4,0-2.5-1.1-2.5-2.5v-13c0-1.4,1.1-2.5,2.5-2.5s2.5,1.1,2.5,2.5v13C101,35.9,99.9,37,98.5,37z"/>
		<path class="st0" d="M98.5,24.2c-0.9,0-1.7-0.4-2.1-1.2l-12-19.2c-0.7-1.2-0.4-2.7,0.8-3.4c1.2-0.7,2.7-0.4,3.4,0.8L98.5,17
			l9.9-15.8c0.7-1.2,2.3-1.5,3.4-0.8c1.2,0.7,1.5,2.3,0.8,3.4l-12,19.2C100.2,23.8,99.4,24.2,98.5,24.2z"/>
	</g>
	<g>
		<path class="st0" d="M46.5,21c-0.4,0-0.8-0.1-1.1-0.3c-1.2-0.6-1.7-2.1-1.1-3.4l8-16c0.6-1.2,2.1-1.7,3.4-1.1
			c1.2,0.6,1.7,2.1,1.1,3.4l-8,16C48.3,20.5,47.4,21,46.5,21z"/>
		<path class="st0" d="M38.5,37c-0.4,0-0.8-0.1-1.1-0.3c-1.2-0.6-1.7-2.1-1.1-3.4l8-16c0.6-1.2,2.1-1.7,3.4-1.1
			c1.2,0.6,1.7,2.1,1.1,3.4l-8,16C40.3,36.5,39.4,37,38.5,37z"/>
		<path class="st0" d="M62.5,21c-0.9,0-1.8-0.5-2.2-1.4l-8-16c-0.6-1.2-0.1-2.7,1.1-3.4c1.2-0.6,2.7-0.1,3.4,1.1l8,16
			c0.6,1.2,0.1,2.7-1.1,3.4C63.3,20.9,62.9,21,62.5,21z"/>
		<path class="st0" d="M70.5,37c-0.9,0-1.8-0.5-2.2-1.4l-8-16c-0.6-1.2-0.1-2.7,1.1-3.4c1.2-0.6,2.7-0.1,3.4,1.1l8,16
			c0.6,1.2,0.1,2.7-1.1,3.4C71.3,36.9,70.9,37,70.5,37z"/>
	</g>
	<path class="st0" d="M22.5,37h-20C1.1,37,0,35.9,0,34.5v-32C0,1.1,1.1,0,2.5,0S5,1.1,5,2.5V32h17.5c1.4,0,2.5,1.1,2.5,2.5
		S23.9,37,22.5,37z"/>
</g>
</svg>
