<svg width="547" height="330" viewBox="0 0 547 330" fill="none" xmlns="http://www.w3.org/2000/svg">
<g clip-path="url(#clip0_129_103)">
<path d="M487.153 311.252C487.659 311.275 488.16 311.142 488.588 310.871C489.016 310.6 489.35 310.204 489.546 309.736C489.741 309.269 489.788 308.752 489.681 308.257C489.573 307.762 489.316 307.312 488.944 306.968L488.775 306.295C489.259 305.064 490.1 304.006 491.19 303.256C492.28 302.506 493.569 302.099 494.891 302.086C496.214 302.074 497.51 302.457 498.614 303.186C499.718 303.915 500.579 304.958 501.086 306.179C504.015 313.035 507.806 320.133 505.921 327.685C518.375 301.291 514.139 268.46 495.735 245.885C490.648 243.085 486.524 238.104 485.451 232.322C487.969 233.175 491.108 231.127 489.215 228.475C488.394 227.461 487.566 226.456 486.745 225.442C496.309 215.256 507.704 231.264 497.177 245.012C500.621 249.33 503.603 253.995 506.077 258.933C505.506 253.69 506.187 248.386 508.066 243.457C509.966 238.864 513.539 234.996 516.681 231.025C520.502 226.187 528.366 228.419 528.881 234.559C525.355 235.718 524.896 240.812 528.93 241.509C528.315 247.217 526.27 252.677 522.984 257.385C519.698 262.092 515.276 265.893 510.13 268.437C513.925 279.086 515.407 290.422 514.477 301.689C516.291 288.521 530.426 285.326 540.305 280.089C540.934 279.686 541.667 279.474 542.414 279.48C543.161 279.486 543.891 279.709 544.513 280.123C545.135 280.536 545.624 281.122 545.919 281.809C546.214 282.495 546.302 283.253 546.174 283.989C544.809 284.544 543.503 285.232 542.274 286.045C541.698 286.432 541.257 286.987 541.009 287.634C540.762 288.282 540.72 288.99 540.891 289.662C541.062 290.334 541.437 290.937 541.964 291.387C542.491 291.837 543.145 292.114 543.835 292.178C538.855 304.503 525.98 312.778 512.757 312.733C511.486 318.255 509.645 323.631 507.263 328.772H487.646C487.576 328.554 487.512 328.329 487.446 328.111C489.263 328.225 491.087 328.116 492.877 327.787C488.071 322.097 484.354 319.193 487.151 311.249L487.153 311.252Z" fill="#D8DBFE"/>
<path d="M444.118 106.552L440.918 135.37L400.111 136.07L405.036 101.595L444.118 106.552Z" fill="#A0616A"/>
<path d="M379.546 320.013L371.219 317.764L375.933 284.575L388.223 287.895L379.546 320.013Z" fill="#A0616A"/>
<path d="M382.404 317.868L366.004 313.438C363.232 312.689 360.277 313.072 357.787 314.503C355.298 315.933 353.479 318.294 352.73 321.066L352.638 321.406L379.489 328.659L382.404 317.868Z" fill="#2F2E41"/>
<path d="M486.794 320.449H478.169L474.069 287.179H486.796L486.794 320.449Z" fill="#A0616A"/>
<path d="M488.996 317.634H472.007C469.136 317.634 466.383 318.775 464.353 320.805C462.323 322.835 461.182 325.588 461.182 328.459V328.811H488.996V317.634Z" fill="#2F2E41"/>
<path d="M441.57 118.602L447.38 129.06C449.63 131.456 451.708 134.008 453.599 136.697C454.137 137.444 455.663 137.31 456.236 138.159C456.646 138.767 456.095 140.333 456.518 140.991C456.971 141.696 457.43 142.43 457.893 143.191C458.063 143.471 459.293 142.233 458.404 144.042C458.259 144.336 458.739 144.61 458.904 144.899C466.515 157.823 470.93 172.378 471.783 187.353L474.583 194.216L473.631 200.127L474.583 204.408L474.919 209.028L475.445 212.665L478.824 236.018C484.866 258.646 488.232 281.905 488.851 305.318H475.601L455.718 241.687L433.848 194.433L412.29 224.77L411.39 228.87L408.24 230.47L407.313 233.97L404.038 236.385L399.814 242.33C397.014 263.579 397.263 281.979 387.947 297.163L372.658 295.124L379.694 228.124L398.709 160.49L400.634 123.664L441.57 118.602Z" fill="#2F2E41"/>
<path d="M445.025 122.869L449.305 98.7971L450.876 80.4721C451.766 70.0771 453.227 73.1901 447.064 64.7721L431.775 54.5791H419.544L413.432 64.7721L401.071 75.9771C393.064 84.0271 399.333 91.7351 400.206 92.7281L399.162 133.062C390.884 152.623 404.198 146.499 409.354 147.331C424.643 145.292 465.413 137.138 447.066 127.965C447.78 125.2 447.047 123.542 445.025 122.869Z" fill="#FC5185"/>
<path d="M341.24 77.2259C342.088 76.7679 343.026 76.5012 343.988 76.4445C344.95 76.3878 345.913 76.5425 346.809 76.8978C347.705 77.253 348.512 77.8001 349.174 78.5007C349.836 79.2013 350.336 80.0383 350.64 80.953L365.675 82.0589L367.231 91.359L346.02 89.499C344.449 89.9028 342.785 89.7171 341.341 88.9769C339.898 88.2368 338.776 86.9935 338.188 85.4821C337.599 83.9707 337.584 82.2961 338.147 80.7748C338.709 79.2535 339.81 77.9909 341.24 77.2259Z" fill="#A0616A"/>
<path d="M350.453 90.9638L354.805 92.8798C357.025 93.8571 359.476 94.1858 361.875 93.8278L366.891 93.0798L369.258 94.2098C372.063 95.5492 375.259 95.8257 378.253 94.9878L379.345 94.6818L380.826 95.4588C382.394 96.2817 384.114 96.7717 385.88 96.898C387.646 97.0244 389.419 96.7842 391.087 96.1928V96.1928L400.315 97.3808L426.79 80.4588C428.139 80.1842 429.403 79.5952 430.481 78.7398C431.929 77.5683 432.952 75.9532 433.392 74.1432C433.831 72.3333 433.664 70.4289 432.915 68.7236C432.166 67.0183 430.877 65.6066 429.246 64.706C427.616 63.8054 425.734 63.4659 423.892 63.7398L400.339 76.8818L399.259 76.4328C396.799 75.4097 394.132 74.9815 391.475 75.1829C388.818 75.3842 386.246 76.2096 383.968 77.5918L383.632 77.7918L382.578 77.3418C380.435 76.4255 378.125 75.9614 375.794 75.9786C373.463 75.9958 371.161 76.4939 369.031 77.4418L366.088 78.7518C362.489 77.4394 358.551 77.3858 354.917 78.5998L352.188 79.5118L350.453 90.9638Z" fill="#FC5185"/>
<path d="M392.484 181.281C392.27 180.341 392.265 179.365 392.469 178.423C392.672 177.48 393.08 176.594 393.663 175.826C394.247 175.058 394.991 174.427 395.844 173.978C396.697 173.528 397.639 173.271 398.602 173.225L403.71 159.041L413.087 160.041L405.593 179.974C405.563 181.598 404.939 183.155 403.838 184.349C402.737 185.543 401.236 186.292 399.62 186.454C398.004 186.615 396.385 186.178 395.069 185.225C393.754 184.272 392.834 182.869 392.484 181.283V181.281Z" fill="#A0616A"/>
<path d="M408.195 176.1L411.211 172.423C412.749 170.548 413.725 168.275 414.025 165.868L414.653 160.836L416.378 158.86C418.422 156.518 419.548 153.515 419.546 150.406V149.272L420.693 148.055C421.907 146.767 422.842 145.241 423.438 143.574C424.035 141.908 424.28 140.135 424.159 138.369V138.369L427.784 129.8L430.302 87.5231L430.796 78.8142C430.894 77.4412 430.666 76.0646 430.132 74.7962C429.394 73.0851 428.113 71.6645 426.488 70.7533C424.862 69.8421 422.982 69.4909 421.137 69.754C419.292 70.017 417.585 70.8796 416.279 72.2088C414.973 73.538 414.141 75.26 413.91 77.1091L408.045 124.265L407.322 125.185C405.675 127.28 404.546 129.734 404.025 132.347C403.505 134.96 403.608 137.659 404.327 140.225L404.433 140.603L403.716 141.497C402.257 143.315 401.189 145.415 400.579 147.665C399.969 149.915 399.83 152.266 400.17 154.572L400.64 157.759C398.408 160.873 397.298 164.651 397.49 168.477L397.634 171.351L408.195 176.1Z" fill="#FC5185"/>
<path d="M423.805 51.5352C432.987 51.5352 440.431 44.0915 440.431 34.9092C440.431 25.7269 432.987 18.2832 423.805 18.2832C414.623 18.2832 407.179 25.7269 407.179 34.9092C407.179 44.0915 414.623 51.5352 423.805 51.5352Z" fill="#A0616A"/>
<path d="M412.41 47.4462L415.998 30.2612C412.848 31.5452 405.163 29.8612 403.237 27.0612C401.311 24.2612 405.347 20.6192 407.671 18.1432C409.46 16.468 411.712 15.3703 414.133 14.9932C416.666 14.5155 419.226 14.1955 421.798 14.0352C425.035 13.6186 428.315 13.6563 431.542 14.1472C435.798 15.0146 439.573 17.4509 442.116 20.9724C444.66 24.4938 445.786 28.8429 445.271 33.1562C444.853 36.6112 443.406 40.1182 444.405 43.4502C445.424 46.8342 448.686 49.0362 450.368 52.1442C451.742 54.9611 452.091 58.1684 451.357 61.2152C450.614 64.2355 449.462 67.1402 447.933 69.8492C445.548 74.4492 442.827 79.0632 438.627 82.0802C436.868 83.3403 434.891 84.2664 432.797 84.8122C430.529 80.4774 429.573 75.5757 430.045 70.7062C426.604 74.7541 424.309 79.6496 423.399 84.8842C422.34 84.6175 421.312 84.2418 420.331 83.7632C417.445 82.3215 415.021 80.0983 413.336 77.3467C411.651 74.595 410.773 71.4256 410.801 68.1992C410.944 63.5922 406.452 75.7532 402.219 73.9482C394.348 70.5862 397.065 76.3482 412.41 47.4462Z" fill="#2F2E41"/>
<path d="M546.343 328.805C546.343 328.912 546.322 329.018 546.282 329.117C546.241 329.216 546.181 329.306 546.105 329.381C546.03 329.457 545.94 329.517 545.841 329.558C545.742 329.599 545.636 329.619 545.529 329.619H290.185C289.969 329.619 289.762 329.533 289.61 329.381C289.457 329.228 289.371 329.021 289.371 328.805C289.371 328.589 289.457 328.382 289.61 328.23C289.762 328.077 289.969 327.991 290.185 327.991H545.529C545.636 327.991 545.742 328.012 545.841 328.053C545.94 328.093 546.03 328.153 546.105 328.229C546.181 328.305 546.241 328.394 546.282 328.493C546.322 328.592 546.343 328.698 546.343 328.805V328.805Z" fill="#D8DBFE"/>
<path d="M84.462 190.258H257.862C264.801 190.258 271.456 187.502 276.363 182.595C281.27 177.688 284.026 171.033 284.026 164.094C284.026 157.154 281.27 150.499 276.363 145.593C271.456 140.686 264.801 137.929 257.862 137.929H84.462C77.5227 137.929 70.8677 140.686 65.9609 145.593C61.0541 150.499 58.2975 157.154 58.2975 164.094C58.2975 171.033 61.0541 177.688 65.9609 182.595C70.8677 187.502 77.5227 190.258 84.462 190.258V190.258ZM257.862 139.297C264.366 139.406 270.567 142.067 275.128 146.705C279.689 151.344 282.245 157.588 282.245 164.094C282.245 170.599 279.689 176.844 275.128 181.482C270.567 186.12 264.366 188.781 257.862 188.89H84.462C77.9577 188.781 71.7568 186.12 67.1957 181.482C62.6346 176.844 60.0786 170.599 60.0786 164.094C60.0786 157.588 62.6346 151.344 67.1957 146.705C71.7568 142.067 77.9577 139.406 84.462 139.297H257.862Z" fill="#2F2E41"/>
<path d="M212.891 138.616H214.259V87.281H311.842V85.916H212.891V138.616Z" fill="#2F2E41"/>
<path d="M327.089 101.621C337.584 101.621 346.092 93.1133 346.092 82.6182C346.092 72.1232 337.584 63.6152 327.089 63.6152C316.594 63.6152 308.086 72.1232 308.086 82.6182C308.086 93.1133 316.594 101.621 327.089 101.621Z" fill="#FC5185"/>
<path d="M324.496 92.5083C324.168 92.5083 323.844 92.4318 323.551 92.285C323.257 92.1381 323.002 91.9249 322.805 91.6622L317.621 84.7503C317.448 84.5287 317.321 84.2749 317.247 84.0036C317.174 83.7324 317.155 83.4492 317.192 83.1705C317.229 82.8919 317.321 82.6235 317.463 82.381C317.605 82.1384 317.794 81.9267 318.019 81.758C318.244 81.5894 318.5 81.4673 318.773 81.3989C319.045 81.3305 319.329 81.3172 319.607 81.3596C319.885 81.4021 320.151 81.4996 320.391 81.6463C320.631 81.7931 320.839 81.9861 321.003 82.2142L324.395 86.7363L333.106 73.6702C333.259 73.4374 333.457 73.2372 333.688 73.0811C333.919 72.925 334.178 72.8161 334.451 72.7606C334.724 72.7051 335.006 72.7042 335.279 72.7578C335.552 72.8115 335.813 72.9187 336.045 73.0732C336.276 73.2278 336.475 73.4267 336.63 73.6585C336.785 73.8902 336.892 74.1503 336.946 74.4237C337 74.6971 336.999 74.9785 336.944 75.2516C336.889 75.5248 336.78 75.7843 336.624 76.0152L326.255 91.5683C326.067 91.8496 325.815 92.0818 325.519 92.2455C325.224 92.4093 324.893 92.4997 324.555 92.5092L324.496 92.5083Z" fill="white"/>
<path d="M131.759 138.616H133.127V85.916H34.176V87.284H131.759V138.616Z" fill="#2F2E41"/>
<path d="M19.003 101.621C29.4981 101.621 38.006 93.1133 38.006 82.6182C38.006 72.1232 29.4981 63.6152 19.003 63.6152C8.50793 63.6152 0 72.1232 0 82.6182C0 93.1133 8.50793 101.621 19.003 101.621Z" fill="#FC5185"/>
<path d="M16.4099 92.5078C16.0818 92.5078 15.7581 92.4313 15.4646 92.2844C15.1711 92.1376 14.9158 91.9244 14.7189 91.6618L9.53495 84.7498C9.36198 84.5283 9.23493 84.2744 9.16123 84.0032C9.08753 83.732 9.06868 83.4488 9.10575 83.1701C9.14282 82.8915 9.23506 82.6231 9.37711 82.3806C9.51916 82.138 9.70814 81.9262 9.93302 81.7576C10.1579 81.589 10.4141 81.4669 10.6867 81.3985C10.9594 81.3301 11.2429 81.3167 11.5208 81.3592C11.7986 81.4017 12.0652 81.4992 12.3049 81.6459C12.5446 81.7926 12.7527 81.9857 12.917 82.2138L16.3089 86.7358L25.0199 73.6698C25.1711 73.4326 25.3681 73.2279 25.5994 73.0678C25.8307 72.9077 26.0916 72.7953 26.3669 72.7373C26.6421 72.6793 26.9261 72.6768 27.2024 72.73C27.4786 72.7832 27.7415 72.891 27.9755 73.047C28.2095 73.2031 28.41 73.4043 28.5653 73.6388C28.7206 73.8734 28.8276 74.1365 28.8799 74.4129C28.9321 74.6893 28.9288 74.9734 28.8699 75.2484C28.811 75.5235 28.6978 75.7841 28.537 76.0148L18.1689 91.5668C17.9814 91.8481 17.7292 92.0804 17.4334 92.2441C17.1376 92.4078 16.8069 92.4983 16.4689 92.5078H16.4099Z" fill="white"/>
<path d="M173.693 29.3408H172.325V138.614H173.693V29.3408Z" fill="#2F2E41"/>
<path d="M171.129 38.006C181.624 38.006 190.132 29.4981 190.132 19.003C190.132 8.50793 181.624 0 171.129 0C160.634 0 152.126 8.50793 152.126 19.003C152.126 29.4981 160.634 38.006 171.129 38.006Z" fill="#FC5185"/>
<path d="M168.536 28.8921C168.208 28.8921 167.884 28.8156 167.591 28.6688C167.297 28.5219 167.042 28.3087 166.845 28.0461L161.661 21.1341C161.338 20.6848 161.203 20.1267 161.287 19.5795C161.371 19.0323 161.666 18.5397 162.108 18.2076C162.551 17.8756 163.107 17.7304 163.656 17.8034C164.204 17.8764 164.702 18.1618 165.043 18.5981L168.435 23.1201L177.146 10.0541C177.459 9.59121 177.942 9.27084 178.489 9.16291C179.037 9.05498 179.606 9.16826 180.071 9.47802C180.535 9.78778 180.859 10.2688 180.97 10.8162C181.081 11.3635 180.971 11.9325 180.664 12.3991L170.295 27.9521C170.108 28.2334 169.855 28.4657 169.56 28.6295C169.264 28.7932 168.933 28.8836 168.595 28.8931L168.536 28.8921Z" fill="white"/>
<path d="M125.632 174.046C126.902 174.044 128.119 173.539 129.017 172.64C129.914 171.742 130.419 170.524 130.419 169.254V156.945C130.419 155.675 129.915 154.457 129.017 153.559C128.119 152.661 126.901 152.157 125.631 152.157C124.361 152.157 123.143 152.661 122.245 153.559C121.347 154.457 120.842 155.675 120.842 156.945V169.254C120.844 170.524 121.349 171.741 122.246 172.638C123.144 173.536 124.361 174.041 125.63 174.042L125.632 174.046Z" fill="#673DE6"/>
<path d="M111.952 174.046C113.222 174.044 114.439 173.539 115.337 172.64C116.234 171.742 116.739 170.524 116.739 169.254V156.945C116.739 155.675 116.235 154.457 115.337 153.559C114.439 152.661 113.221 152.157 111.951 152.157C110.681 152.157 109.463 152.661 108.565 153.559C107.667 154.457 107.162 155.675 107.162 156.945V169.254C107.164 170.524 107.669 171.741 108.566 172.638C109.464 173.536 110.681 174.041 111.95 174.042L111.952 174.046Z" fill="#673DE6"/>
<path d="M98.2711 174.046C99.541 174.044 100.758 173.539 101.656 172.64C102.553 171.742 103.058 170.524 103.058 169.254V156.945C103.058 155.675 102.554 154.457 101.656 153.559C100.758 152.661 99.5396 152.157 98.2696 152.157C96.9996 152.157 95.7816 152.661 94.8836 153.559C93.9856 154.457 93.4811 155.675 93.4811 156.945V169.254C93.4824 170.524 93.9873 171.741 94.8849 172.638C95.7826 173.536 96.9997 174.041 98.2691 174.042L98.2711 174.046Z" fill="#673DE6"/>
<path d="M84.5901 174.046C85.86 174.044 87.0773 173.539 87.9747 172.64C88.8722 171.742 89.3765 170.524 89.3771 169.254V156.945C89.3771 155.675 88.8726 154.457 87.9745 153.559C87.0765 152.661 85.8586 152.157 84.5886 152.157C83.3186 152.157 82.1006 152.661 81.2026 153.559C80.3046 154.457 79.8 155.675 79.8 156.945V169.254C79.8016 170.524 80.3066 171.741 81.2042 172.638C82.1017 173.536 83.3187 174.041 84.5881 174.042L84.5901 174.046Z" fill="#673DE6"/>
<path d="M263.205 153.88C248.43 153.101 233.642 152.686 218.841 152.636C204.102 152.589 189.369 152.906 174.641 153.586C166.317 153.971 157.999 154.471 149.688 155.086C148.37 155.186 148.377 153.131 149.688 153.034C164.443 151.94 179.219 151.21 194.015 150.844C208.748 150.483 223.485 150.486 238.226 150.852C246.559 151.06 254.886 151.384 263.205 151.824C264.519 151.901 264.527 153.953 263.205 153.88Z" fill="#2F1C6A"/>
<path d="M263.205 162.773C248.43 161.994 233.642 161.579 218.841 161.529C204.102 161.482 189.369 161.799 174.641 162.48C166.317 162.866 157.999 163.366 149.688 163.98C148.37 164.08 148.377 162.025 149.688 161.928C164.443 160.834 179.219 160.104 194.015 159.738C208.748 159.377 223.485 159.38 238.226 159.746C246.559 159.954 254.886 160.278 263.205 160.718C264.519 160.794 264.527 162.846 263.205 162.773Z" fill="#2F1C6A"/>
<path d="M263.205 171.665C248.43 170.886 233.642 170.471 218.841 170.421C204.102 170.374 189.369 170.691 174.641 171.371C166.317 171.757 157.999 172.257 149.688 172.871C148.37 172.971 148.377 170.916 149.688 170.819C164.443 169.725 179.219 168.995 194.015 168.629C208.748 168.268 223.485 168.271 238.226 168.637C246.559 168.845 254.886 169.169 263.205 169.609C264.519 169.686 264.527 171.738 263.205 171.665Z" fill="#2F1C6A"/>
<path opacity="0.2" d="M428.704 87.9951L430.81 132.355L424.11 144.77L426.652 128.355L428.704 87.9951Z" fill="black"/>
</g>
<defs>
<clipPath id="clip0_129_103">
<rect width="546.343" height="329.619" fill="white"/>
</clipPath>
</defs>
</svg>
