<svg width="514" height="481" viewBox="0 0 514 481" fill="none" xmlns="http://www.w3.org/2000/svg">
<g clip-path="url(#clip0_245_38645)">
<mask id="mask0_245_38645" style="mask-type:luminance" maskUnits="userSpaceOnUse" x="-8" y="0" width="522" height="481">
<path d="M513.976 0H-8V480.802H513.976V0Z" fill="white"/>
</mask>
<g mask="url(#mask0_245_38645)">
<path d="M21.5829 478C15.2283 456.817 4.96609 411.756 19.1116 358.681C24.6871 337.77 42.6673 270.351 106.858 237.63C114.332 233.822 166.313 208.311 224.6 226.439C301.962 250.503 292.723 321.088 370.913 346.562C421.408 363.021 456.31 343.681 484.321 374.546C495.484 386.85 506.708 408.392 505.965 433.965C505.369 454.678 497.152 470.024 492.562 477.332C335.573 477.555 178.584 477.777 21.5829 478Z" fill="#DBE1FD"/>
<path d="M418.159 417.209C419.309 417.716 421.288 418.668 423.502 420.201C430.193 424.826 431.059 429.203 437.268 432.084C438.27 432.541 440.434 433.444 443.341 433.778C447.917 434.31 451.628 433.123 453.631 432.307C453.631 432.307 459.061 419.014 434.436 413.017L433.57 417.06C432.914 415.985 432.259 414.897 431.591 413.821C430.342 413.499 428.474 413.203 426.273 413.475C422.092 413.982 419.285 416.207 418.159 417.209Z" fill="#CBBEF1"/>
<path d="M426.124 371.223C428.289 377.579 431.406 381.276 433.904 383.502C437.701 386.877 440.286 387.038 445.951 391.996C448.981 394.655 450.984 396.448 452.506 399.465C454.942 404.287 454.571 409.122 454.151 411.719C454.151 411.719 443.489 411.125 433.681 403.273L436.18 398.562L431.678 401.233C431.678 401.233 422.092 388.361 426.124 371.223Z" fill="#CBBEF1"/>
<path d="M460.471 391.86C441.98 387.829 435.104 368.688 435.104 368.688C435.648 367.674 443.811 365.238 443.811 365.238L433.038 363.73C433.038 363.73 431.022 360.762 432.135 354.258C433.236 347.779 428.808 338.752 428.808 338.752C436.613 340.521 442.438 343.365 446.161 345.541C451.887 348.879 460.545 353.924 464.07 363.73C464.787 365.733 465.134 367.476 465.307 368.639L461.609 373.807L465.628 371.866C466.111 382.871 460.458 391.848 460.458 391.848L460.471 391.86Z" fill="#CBBEF1"/>
<path d="M476.809 402.124C476.809 402.124 460.941 372.534 501.954 361.492C501.954 361.492 497.415 366.549 498.169 376.404C498.911 386.272 495.968 387.879 495.968 387.879L488.299 386.865L494.607 392.615C494.607 392.615 486.395 403.471 476.809 402.111V402.124Z" fill="#CBBEF1"/>
<path d="M503.116 411.954C503.116 411.954 475.473 402.63 476.562 426.903C476.562 426.903 485.331 434.792 493.543 422.835L491.329 418.247L495.139 419.026C495.139 419.026 500.296 412.696 503.104 411.954H503.116Z" fill="#CBBEF1"/>
<path d="M466.457 450.866H466.432C466.148 450.829 465.962 450.57 465.999 450.285C470.118 421.982 493.209 414.303 493.444 414.229C493.704 414.142 494.001 414.291 494.088 414.563C494.174 414.835 494.026 415.119 493.754 415.206C493.531 415.28 471.033 422.785 467.001 450.434C466.964 450.706 466.717 450.891 466.445 450.866H466.457Z" fill="#CBBEF1"/>
<path d="M465.975 456.344C465.703 456.319 465.492 456.084 465.505 455.812C466.395 439.602 469.413 423.589 474.484 408.244C478.207 396.992 483.043 386.036 488.893 375.687C489.029 375.44 489.338 375.353 489.586 375.489C489.833 375.625 489.919 375.934 489.783 376.181C483.97 386.469 479.159 397.363 475.461 408.553C470.427 423.812 467.422 439.725 466.531 455.849C466.519 456.134 466.271 456.344 465.999 456.332H465.987L465.975 456.344Z" fill="#CBBEF1"/>
<path d="M464.812 467.559C464.812 467.559 464.787 467.559 464.775 467.559C464.491 467.51 464.305 467.25 464.354 466.978C467.669 445.871 467.137 424.702 462.796 404.077C460.038 391.007 455.746 378.222 450.007 366.055C449.884 365.795 450.007 365.498 450.255 365.375C450.514 365.251 450.811 365.375 450.935 365.622C456.699 377.851 461.027 390.723 463.798 403.867C468.176 424.616 468.696 445.908 465.369 467.139C465.332 467.411 465.084 467.596 464.824 467.572L464.812 467.559Z" fill="#CBBEF1"/>
<path d="M465.727 458.644C465.455 458.62 465.257 458.397 465.257 458.125C465.567 444.659 463.377 419.41 445.295 401.555C442.438 398.736 439.272 396.188 435.858 393.963C435.623 393.814 435.561 393.493 435.71 393.258C435.87 393.023 436.18 392.961 436.415 393.11C439.878 395.372 443.106 397.969 446.012 400.825C464.367 418.94 466.581 444.511 466.271 458.15C466.271 458.434 466.037 458.657 465.752 458.644C465.752 458.644 465.727 458.644 465.715 458.644H465.727Z" fill="#CBBEF1"/>
<path d="M468.287 458.879C468.065 458.854 467.879 458.706 467.83 458.471C466.42 451.732 462.883 441.914 454.101 433.444C449.067 428.597 442.858 424.826 436.13 422.55C435.858 422.464 435.722 422.167 435.809 421.907C435.895 421.635 436.192 421.499 436.452 421.586C443.316 423.911 449.661 427.756 454.806 432.702C463.773 441.345 467.385 451.361 468.819 458.248C468.881 458.52 468.696 458.792 468.424 458.854C468.374 458.854 468.325 458.867 468.275 458.854L468.287 458.879Z" fill="#CBBEF1"/>
<path d="M446.656 453.005L451.566 478.131H481.287L486.197 453.005H446.656ZM480.198 476.796H452.679L448.288 454.341H484.589L480.198 476.796Z" fill="#CBBEF1"/>
<path d="M484.589 454.341L480.198 476.796H452.679L448.288 454.341H484.589Z" fill="#CBBEF1"/>
<path d="M487.471 453.674H445.394L442.982 445.438H489.895L487.471 453.674Z" fill="#CBBEF1"/>
<path d="M513.988 478C513.988 479.667 512.965 481 511.686 481H2.30182C1.04739 481 0 479.667 0 478C0 476.333 1.04739 475 2.30182 475H511.698C512.965 475 514 476.333 514 478H513.988Z" fill="#CBBEF1"/>
<path d="M108.533 448.406L109.325 465.197L120.048 463.775L118.49 444.016L108.533 448.406Z" fill="white"/>
<path d="M109.324 465.927C109.151 465.927 108.991 465.865 108.854 465.754C108.694 465.618 108.607 465.433 108.595 465.235L107.816 448.443C107.803 448.146 107.976 447.862 108.248 447.738L118.193 443.349C118.403 443.25 118.663 443.274 118.861 443.386C119.059 443.509 119.195 443.72 119.219 443.955L120.79 463.701C120.827 464.085 120.543 464.431 120.159 464.48L109.423 465.902C109.423 465.902 109.362 465.902 109.324 465.902V465.927ZM109.287 448.876L110.005 464.369L119.269 463.133L117.834 445.092L109.287 448.863V448.876Z" fill="#231F20"/>
<path d="M38.7887 451.806L36.8964 462.23H46.2838L48.4112 449.395L38.7887 451.806Z" fill="white"/>
<path d="M46.2841 462.96H36.8966C36.6863 462.96 36.4761 462.861 36.34 462.7C36.204 462.539 36.1421 462.317 36.1792 462.106L38.0839 451.683C38.1334 451.398 38.3437 451.176 38.6282 451.102L48.2383 448.69C48.4856 448.629 48.733 448.69 48.9061 448.863C49.0793 449.037 49.1659 449.272 49.1288 449.519L47.0014 462.354C46.9396 462.7 46.6428 462.96 46.2841 462.96ZM37.7747 461.501H45.678L47.5209 450.372L39.4445 452.4L37.7871 461.501H37.7747Z" fill="#231F20"/>
<path d="M49.2028 462.267V473.457H11.8755C11.9992 472.283 12.8773 471.318 14.0399 471.021C17.3175 470.193 21.1516 468.956 25.2579 467.052C29.661 465.024 33.2478 462.737 36.0182 460.709H47.6196C48.4854 460.709 49.2028 461.401 49.2028 462.267Z" fill="#231F20"/>
<path d="M145.527 473.766H107.086C107.185 470.007 107.259 466.248 107.358 462.477C107.358 461.611 108.1 460.907 108.991 460.894C113.245 460.845 117.513 460.783 121.767 460.721C122.188 460.721 122.608 460.87 122.93 461.129C125.243 462.984 128.199 465.024 131.823 466.867C136.077 469.03 140.072 470.329 143.375 471.133C144.624 471.442 145.502 472.517 145.527 473.766Z" fill="#231F20"/>
<path d="M49.2027 473.458V475.522H11.8507V473.767C11.8507 473.655 11.8507 473.556 11.8754 473.458H49.2027Z" fill="#231F20"/>
<path d="M145.527 473.767V475.522C132.701 475.671 119.863 475.819 107.036 475.968C107.036 475.238 107.074 474.496 107.086 473.767H145.527Z" fill="#231F20"/>
<path d="M107.086 473.767C107.086 474.496 107.049 475.238 107.036 475.968V473.767H107.086Z" fill="#231F20"/>
<path d="M36.018 454.032L50.2291 343.946L60.8039 240.253H118.514L121.297 356.039V452.177C116.239 452.894 111.18 453.612 106.133 454.329C102.93 420.325 99.7143 386.321 96.5109 352.317C94.0744 333.683 91.6378 315.037 89.2013 296.403C84.4272 315.878 79.653 335.34 74.8665 354.815C67.0746 387.99 59.2826 421.166 51.4782 454.341C46.3207 454.242 41.1632 454.143 36.0056 454.044L36.018 454.032Z" fill="#231F20"/>
<path d="M99.8505 145.24C98.8239 145.87 96.7337 146.575 92.578 144.992C93.1222 150.952 93.6787 156.9 94.2229 162.86C89.6467 164.381 85.0581 165.902 80.4818 167.423L73.7164 161.673C74.644 157.84 75.4604 153.277 75.8314 148.108C76.2519 142.433 76.0293 137.388 75.5964 133.184C72.3807 131.848 70.3523 129.462 70.5378 127.261C70.5625 126.989 70.6739 125.517 71.9107 124.602C73.4196 123.49 75.3243 124.145 75.5098 124.219C76.1901 121.363 76.8703 118.506 77.5506 115.638L89.4859 114.822L101.421 113.795C101.73 116.788 102.114 120.967 102.349 125.987C103.103 142 101.384 144.312 99.8628 145.252L99.8505 145.24Z" fill="white"/>
<path d="M80.4696 168.152C80.2964 168.152 80.1356 168.09 79.9996 167.979L73.2342 162.229C73.0239 162.056 72.9373 161.772 72.9992 161.5C74.0628 157.086 74.7678 152.572 75.1018 148.059C75.4481 143.286 75.3862 138.451 74.9039 133.678C71.6387 132.182 69.5979 129.623 69.7958 127.199C69.8576 126.42 70.1545 124.986 71.4655 124.021C72.69 123.119 74.0876 123.168 74.9533 123.329L76.821 115.477C76.8952 115.168 77.1549 114.945 77.4765 114.921L89.4118 114.105L101.335 113.078C101.731 113.041 102.077 113.338 102.126 113.721C102.547 117.728 102.856 121.845 103.054 125.95C103.821 142.247 102.077 144.733 100.234 145.87C98.5519 146.909 96.2638 146.971 93.4067 146.068L94.9404 162.798C94.9775 163.132 94.7672 163.454 94.4457 163.552L80.7046 168.115C80.6304 168.14 80.5561 168.152 80.4696 168.152ZM74.5205 161.413L80.6304 166.607L93.4438 162.353L91.8483 145.067C91.8236 144.819 91.9349 144.572 92.1328 144.424C92.3307 144.275 92.6028 144.238 92.8378 144.325C95.7567 145.438 97.983 145.549 99.4671 144.634C100.914 143.744 102.299 140.838 101.607 126.025C101.421 122.191 101.137 118.346 100.753 114.587L89.5355 115.551L78.132 116.343L76.2149 124.405C76.1654 124.603 76.0417 124.776 75.8562 124.875C75.6707 124.973 75.4604 124.986 75.2626 124.924C75.0894 124.862 73.531 124.343 72.3437 125.208C71.5026 125.827 71.3047 126.804 71.2676 127.335C71.1192 129.227 72.9744 131.317 75.881 132.529C76.1283 132.627 76.3015 132.862 76.3262 133.122C76.8581 138.118 76.9323 143.175 76.5736 148.183C76.252 152.622 75.5594 157.073 74.5328 161.426L74.5205 161.413Z" fill="#231F20"/>
<path d="M162.805 167.274C162.953 166.298 163.349 164.851 164.524 163.849C166.144 162.452 168.099 162.848 169.867 162.464C171.834 162.032 174.431 160.362 176.843 154.551C176.892 154.477 177.449 153.636 177.09 152.906C176.756 152.214 175.841 152.103 175.631 152.078C173.887 151.868 172.972 153.945 170.745 155.355C167.703 157.296 163.621 157.914 162.83 156.776C162.038 155.639 164.722 153.141 164.19 152.634C163.522 151.991 158.439 155.058 156.881 158.656C156.72 159.027 156.25 160.189 155.792 161.648C155.434 162.774 155.186 163.726 155.025 164.418C157.61 165.37 160.208 166.31 162.793 167.262L162.805 167.274Z" fill="white"/>
<path d="M162.805 167.991C162.718 167.991 162.632 167.979 162.558 167.942L154.79 165.098C154.444 164.974 154.246 164.603 154.333 164.245C154.555 163.317 154.815 162.365 155.112 161.426C155.57 159.979 156.04 158.779 156.225 158.359C157.685 154.983 161.84 152.189 163.522 151.855C164.03 151.756 164.425 151.843 164.71 152.102C165.365 152.733 164.821 153.598 164.252 154.514C164.005 154.909 163.263 156.109 163.436 156.356C163.819 156.9 167.27 156.714 170.362 154.736C171.154 154.229 171.784 153.611 172.353 153.067C173.355 152.09 174.295 151.163 175.73 151.348C176.707 151.472 177.424 151.904 177.758 152.585C178.241 153.574 177.696 154.575 177.498 154.884C175.47 159.732 172.959 162.514 170.028 163.157C169.434 163.28 168.853 163.33 168.272 163.379C167.072 163.478 165.947 163.565 165.007 164.381C164.24 165.049 163.745 166.05 163.535 167.373C163.498 167.583 163.374 167.781 163.188 167.892C163.077 167.954 162.941 167.991 162.817 167.991H162.805ZM155.891 163.96L162.261 166.297C162.595 165.036 163.188 164.022 164.042 163.293C165.341 162.167 166.837 162.044 168.148 161.945C168.692 161.895 169.212 161.858 169.707 161.747C172.155 161.215 174.332 158.693 176.175 154.266C176.2 154.217 176.225 154.18 176.249 154.13C176.348 153.994 176.596 153.524 176.447 153.228C176.348 153.017 176.014 152.857 175.544 152.807C174.852 152.721 174.32 153.203 173.355 154.13C172.749 154.724 172.056 155.391 171.141 155.985C168.086 157.939 163.423 158.928 162.236 157.209C161.506 156.17 162.335 154.835 163.015 153.759C163.065 153.685 163.114 153.611 163.164 153.524C161.68 154.217 158.699 156.344 157.561 158.953C157.425 159.274 156.955 160.436 156.497 161.883C156.275 162.576 156.077 163.28 155.904 163.973L155.891 163.96Z" fill="#231F20"/>
<path d="M153.9 163.565C149.954 173.309 146.009 183.04 142.064 192.784L123.214 161.772C122.324 160.313 120.988 159.2 119.38 158.557C110.672 155.317 101.953 152.078 93.2457 148.826C92.0089 153.005 88.1376 155.911 83.8087 155.96C83.1409 155.96 80.1354 156.084 77.5999 153.871C75.3613 151.917 74.916 149.395 74.8171 148.665C66.2954 153.388 57.7613 158.112 49.2396 162.835C45.1704 165.098 42.3505 169.03 41.5589 173.556C39.1348 187.504 36.7106 201.464 34.2988 215.424C33.2227 221.631 39.7284 226.441 45.5168 223.708C50.7609 221.223 56.005 218.738 61.2615 216.252C61.4717 219.208 61.6202 222.67 61.5954 226.515C61.5954 227.492 61.5707 228.506 61.546 229.545C61.546 229.631 61.546 229.718 61.546 229.804C61.4965 231.35 61.4223 232.859 61.3357 234.318C61.2739 235.295 61.1996 236.259 61.1254 237.186C60.9275 239.573 60.6678 241.823 60.3833 243.925C68.1011 245.607 78.2307 247.091 90.1165 246.918C101.458 246.757 111.13 245.125 118.589 243.344C118.552 241.761 118.527 240.179 118.502 238.571C118.502 237.693 118.49 236.815 118.477 235.925C118.477 234.182 118.477 232.426 118.477 230.658C118.477 229.78 118.49 228.902 118.502 228.011C118.502 227.331 118.527 226.651 118.527 225.959C118.725 214.88 119.331 204.345 120.221 194.391L141.829 220.728C144.5 224.005 149.831 222.806 150.808 218.738C155.001 201.328 159.194 183.905 163.386 166.495C157.499 164.665 159.8 165.383 153.912 163.553L153.9 163.565ZM52.5914 207.152C54.224 202.354 55.8689 197.556 57.5015 192.759C58.5405 196.889 59.3073 200.771 59.8886 204.345C57.4644 205.285 55.0279 206.212 52.5914 207.139V207.152Z" fill="#FC5185"/>
<path d="M103.264 117.789C108.001 113.857 108.855 111.05 108.533 109.097C108.038 106.055 104.266 102.321 104.303 102.383C99.5289 98.3145 95.7442 97.5973 93.184 97.6839C89.0777 97.8199 88.5954 100.009 82.2257 101.171C76.8703 102.148 74.7306 101.06 72.393 103.112C71.1686 104.188 70.5625 105.795 69.3504 109.01C68.0889 112.361 67.4581 114.043 67.7302 115.935C68.0765 118.383 69.5978 121.029 71.6138 122.76C72.7269 123.712 74.0627 124.454 74.9409 126.297C75.349 127.15 75.4974 127.941 75.5716 128.473C76.2024 126.94 76.8703 124.813 77.0929 122.204C77.1671 121.252 77.1795 120.374 77.1548 119.57C77.1177 118.717 77.699 117.963 78.5524 117.802C82.3247 117.085 90.5743 119.879 100.345 118.395C101.631 118.197 102.658 117.95 103.276 117.777L103.264 117.789Z" fill="#231F20"/>
<path d="M85.2064 128.906C85.3795 130.018 86.0103 130.859 86.6287 130.76C87.2471 130.674 87.6182 129.697 87.445 128.572C87.2719 127.459 86.6411 126.618 86.0227 126.717C85.4043 126.803 85.0332 127.78 85.2064 128.906Z" fill="#231F20"/>
<path d="M95.8559 127.582C96.0291 128.695 96.6598 129.536 97.2782 129.437C97.8967 129.35 98.2677 128.374 98.0945 127.248C97.9214 126.136 97.2906 125.295 96.6722 125.394C96.0538 125.48 95.6827 126.457 95.8559 127.582Z" fill="#231F20"/>
<path d="M95.6084 137.487C95.6084 137.487 91.2177 138.525 88.6822 138.464C88.6822 138.464 89.4614 141.505 92.9616 140.714C95.6084 140.121 95.6084 137.487 95.6084 137.487Z" fill="#231F20"/>
<path d="M82.2382 126.259C82.1146 126.259 82.0032 126.222 81.9043 126.16C81.6322 125.975 81.558 125.604 81.7435 125.332C81.8301 125.196 84.0564 122.031 87.6555 122.933C87.9771 123.02 88.175 123.341 88.0884 123.663C88.0018 123.984 87.6679 124.17 87.3463 124.095C84.6006 123.403 82.8195 125.901 82.7453 126C82.6217 126.173 82.4361 126.259 82.2382 126.259Z" fill="#231F20"/>
<path d="M93.4437 123.96C93.2706 123.96 93.1099 123.898 92.9862 123.762C92.7636 123.515 92.7883 123.144 93.0357 122.921C95.8185 120.51 99.2568 122.34 99.4052 122.426C99.702 122.587 99.8011 122.946 99.6403 123.243C99.4795 123.527 99.1085 123.638 98.8117 123.477C98.7003 123.416 95.9668 121.981 93.8395 123.824C93.7282 123.923 93.5799 123.972 93.4315 123.972L93.4437 123.96Z" fill="#231F20"/>
<path d="M91.4652 135.471C91.2178 135.471 90.9828 135.323 90.8962 135.075C90.7849 134.766 90.9581 134.42 91.2673 134.321L94.3346 133.27C91.3291 128.275 91.292 128.163 91.2673 128.089C91.156 127.78 91.3291 127.434 91.6507 127.335C91.9475 127.236 92.2691 127.384 92.4052 127.656C92.566 127.966 94.4954 131.18 95.7693 133.295C95.8559 133.443 95.8806 133.641 95.8188 133.802C95.757 133.975 95.6209 134.099 95.4477 134.16L91.6754 135.459C91.6136 135.484 91.5394 135.496 91.4775 135.496L91.4652 135.471Z" fill="#231F20"/>
<path d="M87.3462 175.003L82.2506 208.858C82.164 209.452 82.634 209.996 83.2524 209.996H109.238C109.745 209.996 110.166 209.637 110.24 209.142L115.336 175.287C115.422 174.693 114.952 174.149 114.334 174.149H88.3481C87.841 174.149 87.4204 174.508 87.3462 175.003Z" fill="white"/>
<path d="M109.226 210.725H83.2402C82.7331 210.725 82.2507 210.502 81.9168 210.119C81.5952 209.736 81.4468 209.241 81.521 208.746L86.6167 174.891C86.7404 174.038 87.4701 173.419 88.3359 173.419H114.321C114.829 173.419 115.311 173.642 115.645 174.025C115.967 174.409 116.115 174.903 116.041 175.398L110.945 209.253C110.821 210.107 110.092 210.725 109.226 210.725ZM88.0638 175.113L82.9681 208.969C82.9557 209.068 82.9928 209.13 83.0299 209.167C83.067 209.204 83.1289 209.266 83.2525 209.266H109.238C109.374 209.266 109.498 209.167 109.523 209.043L114.618 175.188C114.631 175.089 114.594 175.027 114.556 174.99C114.519 174.953 114.458 174.891 114.334 174.891H88.3482C88.2122 174.891 88.0885 174.99 88.0638 175.113Z" fill="#231F20"/>
<path d="M100.185 194.774C101.701 194.774 102.931 193.568 102.931 192.079C102.931 190.59 101.701 189.383 100.185 189.383C98.6683 189.383 97.439 190.59 97.439 192.079C97.439 193.568 98.6683 194.774 100.185 194.774Z" fill="white"/>
<path d="M100.185 195.504C98.2679 195.504 96.7095 193.97 96.7095 192.078C96.7095 190.187 98.2679 188.653 100.185 188.653C102.102 188.653 103.66 190.187 103.66 192.078C103.66 193.97 102.102 195.504 100.185 195.504ZM100.185 190.112C99.0719 190.112 98.1689 190.99 98.1689 192.078C98.1689 193.167 99.0719 194.044 100.185 194.044C101.298 194.044 102.201 193.167 102.201 192.078C102.201 190.99 101.298 190.112 100.185 190.112Z" fill="#231F20"/>
<path d="M77.4267 199.263C78.2307 199.102 79.3191 198.78 80.4569 198.125C82.0524 197.21 83.0914 196.035 83.7222 195.133C84.0561 194.65 84.6127 194.354 85.2187 194.304C88.4839 194.032 89.0405 193.34 91.0318 192.338C93.7651 190.978 94.1362 188.95 96.0162 189.099C96.1398 189.099 96.9561 189.185 97.6117 189.766C99.0835 191.077 98.4403 193.76 98.1559 194.922C97.4014 198.076 95.4101 200.079 94.5938 200.895C92.887 202.576 91.0565 203.541 89.6342 204.11C89.1147 204.32 88.5705 204.394 88.0139 204.345C87.346 204.283 86.6039 204.258 85.8 204.32C83.3882 204.481 81.4835 205.223 80.2838 205.828C79.3314 203.64 78.3667 201.451 77.4144 199.263H77.4267Z" fill="white"/>
<path d="M80.2963 206.558C80.2097 206.558 80.1231 206.546 80.0489 206.508C79.8634 206.434 79.715 206.298 79.6284 206.113L76.759 199.547C76.6724 199.349 76.6724 199.114 76.7837 198.916C76.8826 198.719 77.0682 198.583 77.2784 198.533C78.2803 198.323 79.2326 197.977 80.0984 197.47C81.2981 196.79 82.3123 195.85 83.1286 194.688C83.5862 194.032 84.3283 193.624 85.157 193.55C87.6059 193.34 88.3975 192.907 89.6095 192.239C89.9435 192.054 90.2898 191.868 90.7103 191.658C91.8358 191.089 92.5284 190.409 93.1345 189.803C93.9508 189 94.7176 188.233 96.0781 188.332C96.3502 188.357 97.3149 188.48 98.1065 189.185C99.8999 190.78 99.1825 193.773 98.8733 195.058C98.057 198.484 95.8308 200.672 95.1134 201.377C93.6416 202.824 91.8853 203.961 89.9188 204.753C89.288 205 88.6325 205.099 87.9646 205.037C87.2596 204.975 86.5546 204.963 85.862 205.012C84.0439 205.136 82.2876 205.606 80.6302 206.447C80.5313 206.496 80.42 206.521 80.3086 206.521L80.2963 206.558ZM78.441 199.757L80.6673 204.852C82.2999 204.134 84.0067 203.714 85.763 203.603C86.5299 203.553 87.3091 203.566 88.0883 203.627C88.5211 203.665 88.954 203.603 89.3745 203.442C91.1679 202.725 92.7634 201.686 94.0992 200.375C94.8289 199.658 96.746 197.779 97.4634 194.762C97.7107 193.735 98.2797 191.337 97.1418 190.31C96.6594 189.89 96.041 189.828 95.9668 189.816C95.3113 189.766 94.9279 190.1 94.161 190.867C93.5055 191.51 92.7016 192.326 91.3658 192.994C90.97 193.191 90.6361 193.377 90.3145 193.55C89.0406 194.255 88.0388 194.799 85.2807 195.034C84.8849 195.071 84.5386 195.269 84.3283 195.553C83.3883 196.888 82.2134 197.964 80.8281 198.756C80.086 199.188 79.2821 199.522 78.441 199.757Z" fill="#231F20"/>
<path d="M74.3596 148.801L72.4301 149.679C72.1086 149.827 71.9478 150.198 72.0838 150.532C74.1493 155.663 79.2945 158.965 84.8231 158.705C89.9806 158.458 94.5321 155.132 96.3626 150.322C96.4987 149.975 96.3008 149.592 95.9545 149.468L94.2353 148.862C93.4808 148.59 92.6645 148.961 92.3059 149.679C90.7969 152.733 87.5565 154.699 84.0686 154.575C80.7787 154.451 77.8598 152.498 76.4745 149.617C76.0911 148.825 75.1759 148.442 74.3719 148.801H74.3596Z" fill="#231F20"/>
<path d="M76.6973 197.952C75.0894 198.57 73.4692 199.189 71.8613 199.795C73.3826 202.873 74.9039 205.952 76.4252 209.031C77.9465 208.326 79.4678 207.622 80.9891 206.917L76.6849 197.952H76.6973Z" fill="#231F20"/>
<path d="M153.801 163.404C153.232 164.949 152.663 166.495 152.094 168.041L162.137 171.058L163.485 166.569C160.257 165.518 157.041 164.455 153.813 163.404H153.801Z" fill="#231F20"/>
<path d="M118.49 238.559C116.684 238.472 115.657 237.829 114.829 237.31C114.049 236.815 113.493 236.469 112.207 236.469C110.92 236.469 110.364 236.828 109.585 237.31C108.694 237.866 107.581 238.571 105.515 238.571C103.45 238.571 102.337 237.866 101.446 237.31C100.667 236.815 100.11 236.469 98.8242 236.469C97.5379 236.469 96.9813 236.828 96.2021 237.31C95.3116 237.866 94.1984 238.571 92.133 238.571C90.0675 238.571 88.9543 237.866 88.0638 237.31C87.2846 236.815 86.728 236.469 85.4417 236.469C84.1555 236.469 83.5989 236.828 82.8197 237.31C81.9292 237.866 80.816 238.571 78.7506 238.571C76.6851 238.571 75.5719 237.866 74.6814 237.31C73.9022 236.815 73.3456 236.469 72.0593 236.469C70.773 236.469 70.2165 236.828 69.4373 237.31C68.5468 237.866 67.4336 238.571 65.3681 238.571C63.3027 238.571 62.1895 237.866 61.299 237.31C61.2248 237.261 61.163 237.223 61.0887 237.186C61.163 236.247 61.2372 235.295 61.299 234.318C61.8679 234.553 62.3379 234.837 62.7461 235.097C63.5253 235.591 64.0819 235.938 65.3681 235.938C66.6544 235.938 67.211 235.579 67.9902 235.097C68.8807 234.54 69.9939 233.835 72.0593 233.835C74.1248 233.835 75.238 234.54 76.1285 235.097C76.9077 235.591 77.4643 235.938 78.7506 235.938C80.0368 235.938 80.5934 235.579 81.3726 235.097C82.2631 234.54 83.3763 233.835 85.4417 233.835C87.5072 233.835 88.6204 234.54 89.5109 235.097C90.2901 235.591 90.8467 235.938 92.133 235.938C93.4193 235.938 93.9758 235.579 94.755 235.097C95.6455 234.54 96.7587 233.835 98.8242 233.835C100.89 233.835 102.003 234.54 102.893 235.097C103.672 235.591 104.229 235.938 105.515 235.938C106.802 235.938 107.358 235.579 108.137 235.097C109.028 234.54 110.141 233.835 112.207 233.835C114.272 233.835 115.385 234.54 116.276 235.097C116.956 235.529 117.488 235.851 118.465 235.925C118.465 236.815 118.465 237.693 118.49 238.571V238.559Z" fill="#231F20"/>
<path d="M118.49 228.011C118.49 228.889 118.477 229.779 118.465 230.657C116.672 230.571 115.645 229.928 114.816 229.408C114.037 228.914 113.48 228.568 112.194 228.568C110.908 228.568 110.351 228.926 109.572 229.408C108.681 229.965 107.568 230.67 105.503 230.67C103.437 230.67 102.324 229.965 101.434 229.408C100.654 228.914 100.098 228.568 98.8115 228.568C97.5252 228.568 96.9686 228.926 96.1894 229.408C95.2989 229.965 94.1858 230.67 92.1203 230.67C90.0548 230.67 88.9417 229.965 88.0512 229.408C87.272 228.914 86.7154 228.568 85.4291 228.568C84.1428 228.568 83.5862 228.926 82.807 229.408C81.9165 229.965 80.8034 230.67 78.7379 230.67C76.6724 230.67 75.5593 229.965 74.6687 229.408C73.8896 228.914 73.333 228.568 72.0467 228.568C70.7604 228.568 70.2038 228.926 69.4246 229.408C68.5341 229.965 67.421 230.67 65.3555 230.67C63.4632 230.67 62.3624 230.076 61.509 229.544C61.5337 228.506 61.5584 227.504 61.5584 226.515C62.0161 226.725 62.3871 226.96 62.7334 227.183C63.5126 227.677 64.0692 228.023 65.3555 228.023C66.6418 228.023 67.1983 227.665 67.9775 227.183C68.8681 226.626 69.9812 225.921 72.0467 225.921C74.1122 225.921 75.2253 226.626 76.1158 227.183C76.895 227.677 77.4516 228.023 78.7379 228.023C80.0242 228.023 80.5808 227.665 81.36 227.183C82.2505 226.626 83.3636 225.921 85.4291 225.921C87.4946 225.921 88.6077 226.626 89.4982 227.183C90.2774 227.677 90.834 228.023 92.1203 228.023C93.4066 228.023 93.9632 227.665 94.7424 227.183C95.6329 226.626 96.746 225.921 98.8115 225.921C100.877 225.921 101.99 226.626 102.881 227.183C103.66 227.677 104.216 228.023 105.503 228.023C106.789 228.023 107.346 227.665 108.125 227.183C109.015 226.626 110.128 225.921 112.194 225.921C114.259 225.921 115.373 226.626 116.263 227.183C116.956 227.615 117.476 227.949 118.477 228.011H118.49Z" fill="#231F20"/>
<path d="M61.7438 215.857L76.9074 208.648" stroke="#231F20" stroke-miterlimit="10" stroke-linecap="round"/>
<path d="M59.8886 204.357L71.861 199.794" stroke="#231F20" stroke-miterlimit="10" stroke-linecap="round"/>
<path d="M57.5021 192.771L59.382 185.104" stroke="#231F20" stroke-miterlimit="10" stroke-linecap="round"/>
<path d="M120.221 194.391L116.066 189.086" stroke="#231F20" stroke-miterlimit="10" stroke-linecap="round"/>
<path d="M402.872 188.653H379.719V201.958H402.872V188.653Z" fill="#673DE6"/>
<path d="M379.719 188.653H207.528V201.958H379.719V188.653Z" fill="#3F3D56"/>
<path d="M402.625 85.3188H379.125V281.923H402.625V85.3188Z" fill="#673DE6"/>
<path d="M379.719 264.5H207.528V282.232H379.719V264.5Z" fill="#3F3D56"/>
<path d="M379.125 32.1489V358.586H211.694C209.164 358.586 206.992 317.082 206.535 260.272L204.733 32.1489H379.125Z" fill="#3F3D56"/>
<path d="M414.795 205.915V263.351C414.795 267.184 411.653 270.312 407.832 270.312H234.318C230.484 270.312 227.355 267.184 227.355 263.351V205.915C227.355 202.069 230.484 198.941 234.318 198.941H407.832C411.653 198.941 414.795 202.069 414.795 205.915Z" fill="#2F1C6A"/>
<path d="M379.719 205.915V263.351C379.719 265.577 377.901 267.407 375.662 267.407H202.161C199.934 267.407 198.104 265.589 198.104 263.351V205.915C198.104 203.677 199.922 201.847 202.161 201.847H375.674C377.901 201.847 379.731 203.665 379.731 205.915H379.719Z" fill="white"/>
<path d="M375.662 198.941H202.161C198.326 198.941 195.197 202.069 195.197 205.915V263.351C195.197 267.184 198.326 270.312 202.161 270.312H375.674C379.508 270.312 382.638 267.184 382.638 263.351V205.915C382.638 202.069 379.508 198.941 375.674 198.941H375.662ZM379.719 263.351C379.719 265.576 377.901 267.406 375.662 267.406H202.161C199.934 267.406 198.104 265.589 198.104 263.351V205.915C198.104 203.677 199.922 201.847 202.161 201.847H375.674C377.901 201.847 379.731 203.664 379.731 205.915V263.351H379.719Z" fill="#2F1C6A"/>
<path d="M228.035 247.4C220.997 247.4 215.271 241.675 215.271 234.639C215.271 227.603 220.997 221.878 228.035 221.878C235.072 221.878 240.799 227.603 240.799 234.639C240.799 241.675 235.072 247.4 228.035 247.4ZM228.035 224.784C222.605 224.784 218.178 229.199 218.178 234.639C218.178 240.08 222.593 244.494 228.035 244.494C233.477 244.494 237.892 240.08 237.892 234.639C237.892 229.199 233.477 224.784 228.035 224.784Z" fill="#673DE6"/>
<path d="M329.665 229.013H259.611C256.974 229.013 254.837 231.149 254.837 233.786V235.48C254.837 238.116 256.974 240.253 259.611 240.253H329.665C332.301 240.253 334.439 238.116 334.439 235.48V233.786C334.439 231.149 332.301 229.013 329.665 229.013Z" fill="#673DE6"/>
<path d="M355.465 240.253C358.573 240.253 361.092 237.734 361.092 234.627C361.092 231.519 358.573 229 355.465 229C352.357 229 349.837 231.519 349.837 234.627C349.837 237.734 352.357 240.253 355.465 240.253Z" fill="#2F1C6A"/>
<path d="M405.469 344.873L403.651 354.456C403.206 356.842 401.029 358.586 398.481 358.586H379.719V344.873H405.469Z" fill="#673DE6"/>
<path d="M414.795 286.288V343.723C414.795 347.557 411.653 350.685 407.832 350.685H234.318C230.484 350.685 227.355 347.557 227.355 343.723V286.288C227.355 282.442 230.484 279.314 234.318 279.314H407.832C411.653 279.314 414.795 282.442 414.795 286.288Z" fill="#2F1C6A"/>
<path d="M379.719 286.288V343.723C379.719 345.949 377.901 347.779 375.662 347.779H202.161C199.934 347.779 198.104 345.961 198.104 343.723V286.288C198.104 284.05 199.922 282.22 202.161 282.22H375.674C377.901 282.22 379.731 284.037 379.731 286.288H379.719Z" fill="white"/>
<path d="M375.662 279.314H202.161C198.327 279.314 195.197 282.442 195.197 286.288V343.723C195.197 347.557 198.327 350.685 202.161 350.685H375.674C379.508 350.685 382.638 347.557 382.638 343.723V286.288C382.638 282.442 379.508 279.314 375.674 279.314H375.662ZM379.719 343.723C379.719 345.949 377.901 347.779 375.662 347.779H202.161C199.934 347.779 198.104 345.962 198.104 343.723V286.288C198.104 284.05 199.922 282.22 202.161 282.22H375.674C377.901 282.22 379.731 284.037 379.731 286.288V343.723H379.719Z" fill="#2F1C6A"/>
<path d="M228.035 327.772C220.997 327.772 215.271 322.047 215.271 315.012C215.271 307.976 220.997 302.251 228.035 302.251C235.072 302.251 240.799 307.976 240.799 315.012C240.799 322.047 235.072 327.772 228.035 327.772ZM228.035 305.157C222.605 305.157 218.178 309.571 218.178 315.012C218.178 320.452 222.593 324.867 228.035 324.867C233.477 324.867 237.892 320.452 237.892 315.012C237.892 309.571 233.477 305.157 228.035 305.157Z" fill="#673DE6"/>
<path d="M329.665 309.386H259.611C256.974 309.386 254.837 311.522 254.837 314.159V315.853C254.837 318.489 256.974 320.626 259.611 320.626H329.665C332.301 320.626 334.439 318.489 334.439 315.853V314.159C334.439 311.522 332.301 309.386 329.665 309.386Z" fill="#673DE6"/>
<path d="M355.465 320.625C358.573 320.625 361.092 318.106 361.092 314.999C361.092 311.892 358.573 309.373 355.465 309.373C352.357 309.373 349.837 311.892 349.837 314.999C349.837 318.106 352.357 320.625 355.465 320.625Z" fill="#2F1C6A"/>
<path d="M414.795 125.542V182.978C414.795 186.811 411.653 189.939 407.832 189.939H234.318C230.484 189.939 227.355 186.811 227.355 182.978V125.542C227.355 121.697 230.484 118.568 234.318 118.568H407.832C411.653 118.568 414.795 121.697 414.795 125.542Z" fill="#2F1C6A"/>
<path d="M379.719 125.542V182.978C379.719 185.204 377.901 187.034 375.662 187.034H202.161C199.934 187.034 198.104 185.216 198.104 182.978V125.542C198.104 123.304 199.922 121.474 202.161 121.474H375.674C377.901 121.474 379.731 123.292 379.731 125.542H379.719Z" fill="white"/>
<path d="M375.662 118.568H202.161C198.327 118.568 195.197 121.697 195.197 125.542V182.978C195.197 186.811 198.327 189.939 202.161 189.939H375.674C379.508 189.939 382.638 186.811 382.638 182.978V125.542C382.638 121.697 379.508 118.568 375.674 118.568H375.662ZM379.719 182.978C379.719 185.204 377.901 187.034 375.662 187.034H202.161C199.934 187.034 198.104 185.216 198.104 182.978V125.542C198.104 123.304 199.922 121.474 202.161 121.474H375.674C377.901 121.474 379.731 123.292 379.731 125.542V182.978H379.719Z" fill="#2F1C6A"/>
<path d="M375.662 32.0132H202.161C198.326 32.0132 195.197 35.1415 195.197 38.9871V96.4227C195.197 100.256 198.326 103.384 202.161 103.384H375.674C379.508 103.384 382.638 100.256 382.638 96.4227V38.9871C382.638 35.1415 379.508 32.0132 375.674 32.0132H375.662ZM379.719 96.4227C379.719 98.6484 377.901 100.478 375.662 100.478H202.161C199.934 100.478 198.104 98.6607 198.104 96.4227V38.9871C198.104 36.749 199.922 34.919 202.161 34.919H375.674C377.901 34.919 379.731 36.7366 379.731 38.9871V96.4227H379.719Z" fill="#2F1C6A"/>
<path d="M228.035 167.027C220.997 167.027 215.271 161.302 215.271 154.266C215.271 147.23 220.997 141.505 228.035 141.505C235.072 141.505 240.799 147.23 240.799 154.266C240.799 161.302 235.072 167.027 228.035 167.027ZM228.035 144.411C222.605 144.411 218.178 148.825 218.178 154.266C218.178 159.707 222.593 164.121 228.035 164.121C233.477 164.121 237.892 159.707 237.892 154.266C237.892 148.825 233.477 144.411 228.035 144.411Z" fill="#673DE6"/>
<path d="M329.665 148.64H259.611C256.974 148.64 254.837 150.777 254.837 153.413V155.107C254.837 157.743 256.974 159.88 259.611 159.88H329.665C332.301 159.88 334.439 157.743 334.439 155.107V153.413C334.439 150.777 332.301 148.64 329.665 148.64Z" fill="#673DE6"/>
<path d="M414.795 38.9871V96.4227C414.795 100.256 411.653 103.384 407.832 103.384H234.318C230.484 103.384 227.355 100.256 227.355 96.4227V38.9871C227.355 35.1415 230.484 32.0132 234.318 32.0132H407.832C411.653 32.0132 414.795 35.1415 414.795 38.9871Z" fill="#2F1C6A"/>
<path d="M379.719 38.987V96.4227C379.719 98.6484 377.901 100.478 375.662 100.478H202.161C199.934 100.478 198.104 98.6607 198.104 96.4227V38.987C198.104 36.749 199.922 34.9189 202.161 34.9189H375.674C377.901 34.9189 379.731 36.7366 379.731 38.987H379.719Z" fill="white"/>
<path d="M228.035 80.4716C220.997 80.4716 215.271 74.7466 215.271 67.7109C215.271 60.6752 220.997 54.9502 228.035 54.9502C235.072 54.9502 240.799 60.6752 240.799 67.7109C240.799 74.7466 235.072 80.4716 228.035 80.4716ZM228.035 57.856C222.605 57.856 218.178 62.2703 218.178 67.7109C218.178 73.1515 222.593 77.5659 228.035 77.5659C233.477 77.5659 237.892 73.1515 237.892 67.7109C237.892 62.2703 233.477 57.856 228.035 57.856Z" fill="#673DE6"/>
<path d="M329.665 62.085H259.611C256.974 62.085 254.837 64.2218 254.837 66.8579V68.5519C254.837 71.1879 256.974 73.3248 259.611 73.3248H329.665C332.302 73.3248 334.439 71.1879 334.439 68.5519V66.8579C334.439 64.2218 332.302 62.085 329.665 62.085Z" fill="#673DE6"/>
<path d="M355.465 159.88C358.573 159.88 361.092 157.361 361.092 154.254C361.092 151.147 358.573 148.628 355.465 148.628C352.357 148.628 349.837 151.147 349.837 154.254C349.837 157.361 352.357 159.88 355.465 159.88Z" fill="#2F1C6A"/>
</g>
</g>
<defs>
<clipPath id="clip0_245_38645">
<rect width="514" height="481" fill="white"/>
</clipPath>
</defs>
</svg>
