<svg width="60" height="60" viewBox="0 0 60 60" fill="none" xmlns="http://www.w3.org/2000/svg">
<g clip-path="url(#clip0_139_435)">
<path d="M60 30C60 13.4315 46.5685 0 30 0C13.4315 0 0 13.4315 0 30C0 46.5685 13.4315 60 30 60C46.5685 60 60 46.5685 60 30Z" fill="#F4F5FF"/>
<path d="M41.144 24.0011V23.9831C41.133 23.7311 41.125 23.4641 41.12 23.1681C41.107 22.4677 40.8302 21.7981 40.3448 21.293C39.8594 20.788 39.2013 20.4848 38.502 20.4441C35.7483 20.3859 33.1212 19.2768 31.159 17.3441L31.141 17.3301C30.8306 17.0426 30.4231 16.8828 30 16.8828C29.5769 16.8828 29.1694 17.0426 28.859 17.3301L28.842 17.3461C26.8797 19.2787 24.2526 20.3878 21.499 20.4461C20.8004 20.4867 20.1428 20.7893 19.6575 21.2935C19.1722 21.7977 18.8949 22.4664 18.881 23.1661C18.881 23.4611 18.869 23.7271 18.857 23.9811V24.0281C18.798 27.1041 18.725 30.9281 20.006 34.4061C20.6789 36.2685 21.762 37.9557 23.175 39.3431C24.9477 41.0057 27.0644 42.2583 29.375 43.0121C29.458 43.0409 29.5428 43.0639 29.629 43.0811C29.8726 43.1299 30.1234 43.1299 30.367 43.0811C30.4535 43.0636 30.5387 43.0402 30.622 43.0111C32.9326 42.2564 35.0492 41.0032 36.822 39.3401C38.2341 37.9522 39.3167 36.2651 39.99 34.4031C41.275 30.9181 41.202 27.0831 41.144 24.0011ZM38.544 33.8701C37.193 37.5321 34.436 40.0471 30.115 41.5581C30.0989 41.5635 30.0826 41.5678 30.066 41.5711C30.0214 41.58 29.9755 41.58 29.931 41.5711C29.9147 41.5678 29.8987 41.5634 29.883 41.5581C25.557 40.0501 22.798 37.5361 21.449 33.8741C20.269 30.6741 20.336 27.1581 20.395 24.0581V24.0401C20.407 23.7741 20.415 23.4951 20.419 23.1881C20.4263 22.8774 20.5503 22.5809 20.7664 22.3576C20.9825 22.1343 21.2747 22.0006 21.585 21.9831C23.1604 21.9156 24.7118 21.5728 26.169 20.9701C27.5615 20.3767 28.8292 19.525 29.905 18.4601C29.9311 18.4363 29.9652 18.4232 30.0005 18.4232C30.0358 18.4232 30.0698 18.4363 30.096 18.4601C31.1713 19.5247 32.4382 20.3763 33.83 20.9701C35.2878 21.573 36.8399 21.9158 38.416 21.9831C38.7269 22.0009 39.0196 22.1354 39.2356 22.3598C39.4516 22.5841 39.5749 22.8817 39.581 23.1931C39.581 23.5011 39.594 23.7801 39.606 24.0451C39.664 27.1441 39.73 30.6601 38.545 33.8701H38.544Z" fill="#673DE6"/>
<path d="M29.9989 23.4622C28.7058 23.4622 27.4418 23.8456 26.3666 24.564C25.2915 25.2824 24.4535 26.3035 23.9586 27.4982C23.4638 28.6928 23.3343 30.0074 23.5866 31.2757C23.8388 32.5439 24.4615 33.7089 25.3759 34.6232C26.2902 35.5376 27.4552 36.1603 28.7234 36.4125C29.9917 36.6648 31.3063 36.5353 32.5009 36.0405C33.6956 35.5456 34.7167 34.7076 35.4351 33.6325C36.1535 32.5573 36.5369 31.2933 36.5369 30.0002C36.5351 28.2667 35.8457 26.6049 34.62 25.3791C33.3942 24.1534 31.7324 23.464 29.9989 23.4622V23.4622ZM29.9989 34.9992C29.01 34.9992 28.0433 34.7059 27.2211 34.1565C26.3988 33.6071 25.758 32.8262 25.3795 31.9126C25.0011 30.9989 24.9021 29.9936 25.095 29.0237C25.2879 28.0538 25.7641 27.1629 26.4634 26.4636C27.1627 25.7644 28.0536 25.2882 29.0235 25.0952C29.9934 24.9023 30.9987 25.0013 31.9124 25.3798C32.826 25.7582 33.6069 26.3991 34.1563 27.2213C34.7057 28.0436 34.9989 29.0103 34.9989 29.9992C34.9989 31.3252 34.4722 32.597 33.5345 33.5347C32.5968 34.4724 31.325 34.9992 29.9989 34.9992V34.9992Z" fill="#673DE6"/>
<path d="M31.8789 27.9712L28.8429 31.0082L28.0189 30.1842C27.8733 30.0465 27.6797 29.971 27.4793 29.9738C27.2789 29.9766 27.0875 30.0574 26.9457 30.199C26.804 30.3407 26.723 30.532 26.7201 30.7324C26.7171 30.9328 26.7924 31.1264 26.9299 31.2722L28.3009 32.6402C28.4453 32.7843 28.6409 32.8652 28.8449 32.8652C29.0489 32.8652 29.2446 32.7843 29.3889 32.6402L32.9699 29.0592C33.1075 28.9134 33.1828 28.7198 33.1798 28.5194C33.1768 28.319 33.0959 28.1277 32.9541 27.986C32.8123 27.8444 32.6209 27.7636 32.4205 27.7608C32.2201 27.758 32.0266 27.8335 31.8809 27.9712H31.8789Z" fill="#673DE6"/>
</g>
<defs>
<clipPath id="clip0_139_435">
<rect width="60" height="60" fill="white"/>
</clipPath>
</defs>
</svg>
