<svg width="60" height="60" viewBox="0 0 60 60" fill="none" xmlns="http://www.w3.org/2000/svg">
<g clip-path="url(#clip0_139_422)">
<path d="M60 30C60 13.4315 46.5685 0 30 0C13.4315 0 0 13.4315 0 30C0 46.5685 13.4315 60 30 60C46.5685 60 60 46.5685 60 30Z" fill="#F4F5FF"/>
<path d="M35.2559 26.2259C35.3422 26.3122 35.4107 26.4146 35.4574 26.5273C35.5041 26.6401 35.5281 26.7609 35.5281 26.8829C35.5281 27.0049 35.5041 27.1258 35.4574 27.2385C35.4107 27.3512 35.3422 27.4536 35.2559 27.5399L29.0229 33.7729C28.9367 33.8592 28.8342 33.9277 28.7215 33.9744C28.6088 34.0211 28.488 34.0451 28.3659 34.0451C28.2439 34.0451 28.1231 34.0211 28.0104 33.9744C27.8976 33.9277 27.7952 33.8592 27.7089 33.7729L24.7429 30.8079C24.6567 30.7216 24.5882 30.6192 24.5415 30.5065C24.4948 30.3938 24.4708 30.2729 24.4708 30.1509C24.4708 29.9045 24.5687 29.6682 24.7429 29.4939C24.9172 29.3197 25.1535 29.2218 25.3999 29.2218C25.6464 29.2218 25.8827 29.3197 26.0569 29.4939L28.3669 31.8039L33.9429 26.2279C34.0292 26.1416 34.1316 26.0732 34.2444 26.0265C34.3571 25.9798 34.4779 25.9557 34.5999 25.9557C34.722 25.9557 34.8428 25.9798 34.9555 26.0265C35.0682 26.0732 35.1707 26.1416 35.2569 26.2279L35.2559 26.2259ZM41.8909 29.9989C41.8911 32.351 41.1938 34.6503 39.8872 36.6061C38.5806 38.5619 36.7233 40.0863 34.5503 40.9865C32.3773 41.8867 29.9861 42.1223 27.6792 41.6635C25.3723 41.2046 23.2532 40.072 21.59 38.4088C19.9268 36.7456 18.7942 34.6266 18.3354 32.3197C17.8766 30.0128 18.1122 27.6216 19.0124 25.4486C19.9126 23.2756 21.4369 21.4183 23.3927 20.1117C25.3485 18.805 27.6478 18.1077 29.9999 18.1079C31.5619 18.107 33.1087 18.414 34.5519 19.0113C35.9951 19.6086 37.3064 20.4845 38.4109 21.5889C39.5154 22.6934 40.3913 24.0047 40.9886 25.448C41.5859 26.8912 41.8929 28.438 41.8919 29.9999L41.8909 29.9989ZM40.0329 29.9989C40.0329 28.0143 39.4444 26.0743 38.3418 24.4242C37.2392 22.7741 35.6721 21.488 33.8386 20.7286C32.005 19.9692 29.9875 19.7705 28.041 20.1578C26.0946 20.545 24.3067 21.5008 22.9035 22.9042C21.5002 24.3075 20.5447 26.0955 20.1576 28.042C19.7706 29.9885 19.9694 32.006 20.729 33.8395C21.4886 35.6729 22.7749 37.2399 24.4251 38.3424C26.0753 39.4448 28.0154 40.0331 29.9999 40.0329C31.3177 40.0336 32.6226 39.7745 33.8402 39.2705C35.0577 38.7666 36.164 38.0276 37.0958 37.0958C38.0276 36.164 38.7666 35.0577 39.2706 33.8402C39.7745 32.6226 40.0336 31.3176 40.0329 29.9999V29.9989Z" fill="#673DE6"/>
</g>
<defs>
<clipPath id="clip0_139_422">
<rect width="60" height="60" fill="white"/>
</clipPath>
</defs>
</svg>
