<svg width="60" height="60" viewBox="0 0 60 60" fill="none" xmlns="http://www.w3.org/2000/svg">
<g clip-path="url(#clip0_139_427)">
<path d="M60 30C60 13.4315 46.5685 0 30 0C13.4315 0 0 13.4315 0 30C0 46.5685 13.4315 60 30 60C46.5685 60 60 46.5685 60 30Z" fill="#F4F5FF"/>
<path d="M38.691 33.6281C39.8589 32.0238 40.5602 30.1277 40.7173 28.1496C40.8744 26.1715 40.4811 24.1885 39.5811 22.4201C38.6811 20.6516 37.3093 19.1666 35.6177 18.1294C33.926 17.0922 31.9804 16.5432 29.996 16.5432C28.0117 16.5432 26.0661 17.0922 24.3744 18.1294C22.6827 19.1666 21.311 20.6516 20.4109 22.4201C19.5109 24.1885 19.1177 26.1715 19.2748 28.1496C19.4319 30.1277 20.1332 32.0238 21.301 33.6281L18.181 39.7281L22.639 39.9861L25.462 43.4501L28.291 37.9241C29.4251 38.1065 30.581 38.1065 31.715 37.9241L34.538 43.4501L37.357 39.9871L41.815 39.7291L38.691 33.6281ZM34.841 40.5831L33.291 37.5501C34.9117 37.0272 36.3853 36.1276 37.591 34.9251L39.317 38.3001L36.577 38.4591L34.841 40.5831ZM23.427 38.4501L20.691 38.2961L22.417 34.9211C23.6209 36.1245 25.0927 37.0254 26.712 37.5501L25.159 40.5831L23.427 38.4501ZM20.82 27.3051C20.82 25.4894 21.3584 23.7146 22.3671 22.2049C23.3759 20.6953 24.8096 19.5187 26.487 18.8238C28.1644 18.129 30.0102 17.9472 31.791 18.3015C33.5717 18.6557 35.2074 19.53 36.4913 20.8138C37.7751 22.0977 38.6494 23.7334 39.0036 25.5141C39.3579 27.2949 39.1761 29.1407 38.4812 30.8181C37.7864 32.4955 36.6098 33.9292 35.1002 34.938C33.5905 35.9467 31.8157 36.4851 30 36.4851C27.5662 36.4822 25.233 35.514 23.512 33.7931C21.7911 32.0721 20.8229 29.7389 20.82 27.3051V27.3051Z" fill="#673DE6"/>
<path d="M30.001 34.254C31.3756 34.2538 32.7192 33.8459 33.8619 33.082C35.0047 32.3181 35.8952 31.2325 36.4208 29.9624C36.9465 28.6923 37.0837 27.2949 36.815 25.9468C36.5464 24.5988 35.884 23.3607 34.9116 22.3892C33.9392 21.4176 32.7005 20.7563 31.3523 20.4888C30.004 20.2213 28.6067 20.3597 27.3371 20.8865C26.0674 21.4132 24.9826 22.3047 24.2196 23.448C23.4567 24.5914 23.05 25.9354 23.051 27.31C23.0542 29.1517 23.7876 30.917 25.0905 32.2187C26.3934 33.5205 28.1593 34.2524 30.001 34.254V34.254ZM30.001 21.932C31.0635 21.9322 32.102 22.2473 32.9853 22.8376C33.8687 23.4279 34.5572 24.2668 34.9638 25.2483C35.3705 26.2299 35.4771 27.3099 35.27 28.352C35.063 29.394 34.5517 30.3513 33.8007 31.1028C33.0498 31.8544 32.0928 32.3664 31.0509 32.5742C30.009 32.782 28.9289 32.6762 27.9471 32.2703C26.9653 31.8644 26.1259 31.1765 25.5349 30.2936C24.944 29.4107 24.628 28.3724 24.627 27.31C24.6276 25.8846 25.1938 24.5177 26.2014 23.5095C27.2091 22.5013 28.5756 21.9343 30.001 21.933V21.932Z" fill="#673DE6"/>
<path d="M32.9551 26.094L31.8411 24.98L29.5981 27.224L28.4751 26.101L27.3611 27.214L29.5981 29.451L32.9551 26.094Z" fill="#673DE6"/>
</g>
<defs>
<clipPath id="clip0_139_427">
<rect width="60" height="60" fill="white"/>
</clipPath>
</defs>
</svg>
