<svg xmlns="http://www.w3.org/2000/svg" width="324.505" height="230" viewBox="0 0 324.505 230">
  <g id="undraw_startup_life_re_8ow9" transform="translate(-0.005 -0.011)">
    <path id="Path_3130" data-name="Path 3130" d="M85.755,540.771H91.2l2.59-21H85.754Z" transform="translate(-51.832 -316.621)" fill="#ffb6b6"/>
    <path id="Path_3131" data-name="Path 3131" d="M270.706,729.55h16.739v-.212a6.515,6.515,0,0,0-6.515-6.515h0l-3.058-2.32-5.7,2.32h-1.461Z" transform="translate(-236.975 -499.722)" fill="#2f2e41"/>
    <path id="Path_3132" data-name="Path 3132" d="M107.98,483.375l4.285,3.356L127.251,471.8l-6.325-4.954Z" transform="translate(-65.267 -284.627)" fill="#ffb6b6"/>
    <path id="Path_3133" data-name="Path 3133" d="M284.179,667.706l13.177,10.322.131-.167a6.516,6.516,0,0,0-1.111-9.147h0L295.4,665l-5.921-1.691-1.15-.9Z" transform="translate(-245.119 -464.607)" fill="#2f2e41"/>
    <path id="Path_3134" data-name="Path 3134" d="M284.194,422.937s7.224,7.492,4.014,24.884l2.7,29.779.7,1.379a4.371,4.371,0,0,1-.811,5.06h0l-.573,1.777-.535,3.478-19.934,29.968-7.626-8.027,12.308-28.095-3.345-7.224-7.759-25.151-5.351,46.021,1.07,39.6H248.8l-6.347-44.149-6.689-62.076,3.479-7.224Z" transform="translate(-215.854 -319.853)" fill="#2f2e41"/>
    <path id="Path_3135" data-name="Path 3135" d="M228.964,323.37l-.073-.1c-3.9-5.458,1.965-18.574,2.849-20.475h0a4.773,4.773,0,0,1-3.267-5.1l.381-3.241.4-3.179-2.847-2.847-.008-.071-1.638-14.335-2.382-9.521a20.9,20.9,0,0,1,5.933-20.258l5.506-.874,6.692-6.447H251.3l3.7,3.535c6.907,1.211,8.094.816,14.027,7.935l-2.7,22.135-.673,3.045,0,4.13,1.71,1.9a5.913,5.913,0,0,1,1.4,5.115l-.225,1.124h0c1.763.756,3.446,14.186,3.848,16.062l.6,2.8c.514.678,3.9,5.2,3.9,6.436,0,.186-.137.365-.431.564-2.311,1.565-11.525,12.666-17.178,10.4-6.022-2.408-29.961,1.2-30.2,1.241Z" transform="translate(-207.386 -204.971)" fill="#3f3d56"/>
    <path id="Path_3136" data-name="Path 3136" d="M219.359,357.472s2.771-15.661-.021-21.551l-11.075.791,1.685,22.342,9.682,24.807a4.412,4.412,0,1,0,7.15-2.556Z" transform="translate(-199.231 -265.782)" fill="#ffb6b6"/>
    <path id="Path_3137" data-name="Path 3137" d="M205.242,278.05l.685-7.464a21.4,21.4,0,0,1,7.674-14.537h0a9.369,9.369,0,0,1,9.8-1.294h0a9.347,9.347,0,0,1,4.827,11.813c-2.56,6.713-1.635,13.813-6.627,14.678l.542,2.58-4.908,16.015-13.977-1.619Z" transform="translate(-196.209 -215.754)" fill="#3f3d56"/>
    <path id="Path_3138" data-name="Path 3138" d="M361.1,346.694s-8.112-13.68-14.07-16.324l-7.88,7.822,15.848,15.839,23.517,12.493a4.412,4.412,0,1,0,3.754-6.6Z" transform="translate(-279.092 -262.324)" fill="#ffb6b6"/>
    <path id="Path_3139" data-name="Path 3139" d="M311.438,287.062l-4.348-6.106a21.4,21.4,0,0,1-3.662-16.025h0a9.369,9.369,0,0,1,6.589-7.375h0a9.347,9.347,0,0,1,11.363,5.808c2.437,6.759,11.328,17.866,8.108,21.778l2.093,1.6,3.164,9.013-11.652,7.888Z" transform="translate(-256.569 -217.75)" fill="#3f3d56"/>
    <circle id="Ellipse_321" data-name="Ellipse 321" cx="11.984" cy="11.984" r="11.984" transform="translate(25.805 4.867)" fill="#ffb6b6"/>
    <path id="Path_3140" data-name="Path 3140" d="M258.5,219.671c-.1-.092-.2-.19-.306-.284,0,.01,0,.02-.008.029Z" transform="translate(-229.406 -194.372)" fill="#2f2e41"/>
    <path id="Path_3141" data-name="Path 3141" d="M268.247,160.358a6.8,6.8,0,0,0-2.4-2.314,10.036,10.036,0,0,0-2.1-.743l-1.9-.517a15.036,15.036,0,0,0-2.984-.6,7.681,7.681,0,0,0-7.016,3.806c-.573,1.016-1.033,2.283-2.139,2.655-.892.3-1.865-.123-2.8-.041a3.374,3.374,0,0,0-2.561,1.887,7.27,7.27,0,0,0-.672,3.22,18.044,18.044,0,0,0,5.744,13.467c.309-.815-.2-1.7-.6-2.475s-.659-1.889.023-2.458c.759-.632,1.976-.019,2.874-.432a2.007,2.007,0,0,0,1-1.612c.087-.655,0-1.321.037-1.981a4.961,4.961,0,0,1,5.3-4.64c2.044.146,4.028,1.543,6,.968a17.8,17.8,0,0,1,2.666-1.072,4.7,4.7,0,0,1,2.951,1.042,10.52,10.52,0,0,0-1.429-8.159Z" transform="translate(-220.638 -156.162)" fill="#2f2e41"/>
    <path id="Path_3142" data-name="Path 3142" d="M387.967,713.006l-3.05-4.9-.609,2.8c-.107.49-.214.989-.312,1.483-.866-.74-1.788-1.424-2.69-2.081q-4.153-3.014-8.3-6.036l.866,5.023a35.642,35.642,0,0,0,2.413,9.077c.146.32.3.637.475.945h12.871a4.152,4.152,0,0,0,.214-.886.307.307,0,0,0,0-.059C390.048,716.456,388.988,714.648,387.967,713.006Z" transform="translate(-299.632 -489.911)" fill="#f0f0f0"/>
    <path id="Path_3143" data-name="Path 3143" d="M933.439,688.763l-5.531-8.889-1.1,5.08c-.194.89-.387,1.794-.567,2.69-1.571-1.342-3.243-2.583-4.878-3.774q-7.533-5.467-15.059-10.948l1.571,9.112c.969,5.611,1.98,11.336,4.377,16.466.266.581.552,1.155.861,1.715h23.346a7.531,7.531,0,0,0,.388-1.607.563.563,0,0,0,.007-.108C937.213,695.019,935.29,691.74,933.439,688.763Z" transform="translate(-624.614 -470.96)" fill="#f0f0f0"/>
    <path id="Path_3144" data-name="Path 3144" d="M509.478,742.092l-323.573.122a.471.471,0,0,1,0-.942l323.573-.122a.471.471,0,0,1,0,.942Z" transform="translate(-185.434 -512.202)" fill="#cacaca"/>
    <path id="Path_3145" data-name="Path 3145" d="M444.832,386.13V499.658a5.461,5.461,0,0,0,5.456,5.456H618.525a5.461,5.461,0,0,0,5.456-5.456V386.13a5.463,5.463,0,0,0-5.456-5.45H450.288a5.463,5.463,0,0,0-5.456,5.45Z" transform="translate(-345.673 -294.31)" fill="#3f3d56"/>
    <path id="Path_3146" data-name="Path 3146" d="M454.81,393.565V504.28a2.921,2.921,0,0,0,2.916,2.916h165.43a2.921,2.921,0,0,0,2.916-2.916V393.565a2.922,2.922,0,0,0-2.916-2.922H457.726A2.922,2.922,0,0,0,454.81,393.565Z" transform="translate(-350.602 -300.333)" fill="#fff"/>
    <path id="Path_3147" data-name="Path 3147" d="M434.8,708.921a3.272,3.272,0,0,0,2.574,1.232H617.514a3.315,3.315,0,0,0,3.24-3.995l-2.8-13.283a3.321,3.321,0,0,0-2.064-2.408,3.214,3.214,0,0,0-1.176-.222H440.157a3.213,3.213,0,0,0-1.176.222,3.321,3.321,0,0,0-2.064,2.408l-2.8,13.283a3.312,3.312,0,0,0,.677,2.763Z" transform="translate(-339.158 -481.432)" fill="#2f2e41"/>
    <rect id="Rectangle_638" data-name="Rectangle 638" width="5.548" height="3.329" rx="0.488" transform="translate(274.28 214.534) rotate(180)" fill="#3f3d56"/>
    <rect id="Rectangle_639" data-name="Rectangle 639" width="5.548" height="3.329" rx="0.488" transform="translate(263.839 214.534) rotate(180)" fill="#3f3d56"/>
    <rect id="Rectangle_640" data-name="Rectangle 640" width="5.548" height="3.329" rx="0.488" transform="translate(252.861 214.534) rotate(180)" fill="#3f3d56"/>
    <rect id="Rectangle_641" data-name="Rectangle 641" width="5.548" height="3.329" rx="0.488" transform="translate(241.883 214.534) rotate(180)" fill="#3f3d56"/>
    <rect id="Rectangle_642" data-name="Rectangle 642" width="5.548" height="3.329" rx="0.488" transform="translate(230.905 214.534) rotate(180)" fill="#3f3d56"/>
    <rect id="Rectangle_643" data-name="Rectangle 643" width="5.548" height="3.329" rx="0.488" transform="translate(219.927 214.534) rotate(180)" fill="#3f3d56"/>
    <rect id="Rectangle_644" data-name="Rectangle 644" width="5.548" height="3.329" rx="0.488" transform="translate(208.949 214.534) rotate(180)" fill="#3f3d56"/>
    <rect id="Rectangle_645" data-name="Rectangle 645" width="5.548" height="3.329" rx="0.488" transform="translate(197.971 214.534) rotate(180)" fill="#3f3d56"/>
    <rect id="Rectangle_646" data-name="Rectangle 646" width="5.548" height="3.329" rx="0.488" transform="translate(186.994 214.534) rotate(180)" fill="#3f3d56"/>
    <rect id="Rectangle_647" data-name="Rectangle 647" width="5.548" height="3.329" rx="0.488" transform="translate(176.015 214.534) rotate(180)" fill="#3f3d56"/>
    <rect id="Rectangle_648" data-name="Rectangle 648" width="5.548" height="3.329" rx="0.488" transform="translate(165.037 214.534) rotate(180)" fill="#3f3d56"/>
    <rect id="Rectangle_649" data-name="Rectangle 649" width="5.548" height="3.329" rx="0.488" transform="translate(154.059 214.534) rotate(180)" fill="#3f3d56"/>
    <rect id="Rectangle_650" data-name="Rectangle 650" width="5.548" height="3.329" rx="0.488" transform="translate(143.081 214.534) rotate(180)" fill="#3f3d56"/>
    <rect id="Rectangle_651" data-name="Rectangle 651" width="5.548" height="3.329" rx="0.488" transform="translate(132.103 214.534) rotate(180)" fill="#3f3d56"/>
    <rect id="Rectangle_652" data-name="Rectangle 652" width="5.548" height="3.329" rx="0.488" transform="translate(121.125 214.534) rotate(180)" fill="#3f3d56"/>
    <rect id="Rectangle_653" data-name="Rectangle 653" width="5.548" height="3.329" rx="0.488" transform="translate(110.147 214.534) rotate(180)" fill="#3f3d56"/>
    <rect id="Rectangle_654" data-name="Rectangle 654" width="5.548" height="3.329" rx="0.488" transform="translate(274.412 220.082) rotate(180)" fill="#3f3d56"/>
    <rect id="Rectangle_655" data-name="Rectangle 655" width="5.548" height="3.329" rx="0.488" transform="translate(263.969 220.082) rotate(180)" fill="#3f3d56"/>
    <rect id="Rectangle_656" data-name="Rectangle 656" width="5.548" height="3.329" rx="0.488" transform="translate(252.991 220.082) rotate(180)" fill="#3f3d56"/>
    <rect id="Rectangle_657" data-name="Rectangle 657" width="5.548" height="3.329" rx="0.488" transform="translate(242.013 220.082) rotate(180)" fill="#3f3d56"/>
    <rect id="Rectangle_658" data-name="Rectangle 658" width="5.548" height="3.329" rx="0.488" transform="translate(231.035 220.082) rotate(180)" fill="#3f3d56"/>
    <rect id="Rectangle_659" data-name="Rectangle 659" width="5.548" height="3.329" rx="0.488" transform="translate(220.057 220.082) rotate(180)" fill="#3f3d56"/>
    <rect id="Rectangle_660" data-name="Rectangle 660" width="5.548" height="3.329" rx="0.488" transform="translate(209.079 220.082) rotate(180)" fill="#3f3d56"/>
    <rect id="Rectangle_661" data-name="Rectangle 661" width="5.548" height="3.329" rx="0.488" transform="translate(198.101 220.082) rotate(180)" fill="#3f3d56"/>
    <rect id="Rectangle_662" data-name="Rectangle 662" width="5.548" height="3.329" rx="0.488" transform="translate(187.123 220.082) rotate(180)" fill="#3f3d56"/>
    <rect id="Rectangle_663" data-name="Rectangle 663" width="5.548" height="3.329" rx="0.488" transform="translate(176.145 220.082) rotate(180)" fill="#3f3d56"/>
    <rect id="Rectangle_664" data-name="Rectangle 664" width="5.548" height="3.329" rx="0.488" transform="translate(165.167 220.082) rotate(180)" fill="#3f3d56"/>
    <rect id="Rectangle_665" data-name="Rectangle 665" width="5.548" height="3.329" rx="0.488" transform="translate(154.189 220.082) rotate(180)" fill="#3f3d56"/>
    <rect id="Rectangle_666" data-name="Rectangle 666" width="5.548" height="3.329" rx="0.488" transform="translate(143.211 220.082) rotate(180)" fill="#3f3d56"/>
    <rect id="Rectangle_667" data-name="Rectangle 667" width="5.548" height="3.329" rx="0.488" transform="translate(132.233 220.082) rotate(180)" fill="#3f3d56"/>
    <rect id="Rectangle_668" data-name="Rectangle 668" width="5.548" height="3.329" rx="0.488" transform="translate(121.255 220.082) rotate(180)" fill="#3f3d56"/>
    <rect id="Rectangle_669" data-name="Rectangle 669" width="5.548" height="3.329" rx="0.488" transform="translate(110.277 220.082) rotate(180)" fill="#3f3d56"/>
    <rect id="Rectangle_670" data-name="Rectangle 670" width="44.386" height="3.329" rx="0.488" transform="translate(210.291 226.74) rotate(180)" fill="#3f3d56"/>
    <path id="Path_3148" data-name="Path 3148" d="M652.162,502.871a37.434,37.434,0,1,1-2.37-13.182c.082.22.161.44.239.662v0q.518,1.464.913,2.981a37.691,37.691,0,0,1,1.219,9.537Z" transform="translate(-424.404 -344.948)" fill="#3f3d56"/>
    <path id="Path_3149" data-name="Path 3149" d="M638.255,493.592a12.645,12.645,0,0,0-11.1-.454,5.988,5.988,0,0,0-3.7,4.075c2.094-1.236,4.8.717,5.344,3.849l-.126.035a7.661,7.661,0,0,0,1.581,5.877,4.134,4.134,0,0,1,1.984-2.943,7.863,7.863,0,0,0,2.593-2.047c.818-1.211,1.025-2.98,1.35-4.594S637.118,494.042,638.255,493.592Z" transform="translate(-452.103 -360.691)" fill="#01c98a"/>
    <path id="Path_3150" data-name="Path 3150" d="M600.8,510.683a13.341,13.341,0,0,1-2.05,2.1,4.719,4.719,0,0,0-1.491,2.787c-.088.758.048,1.528.029,2.295s-.274,1.629-.8,1.819c-.823.3-1.451-1.231-2.3-1.338-.672-.084-1.277.974-1.082,1.891s1.11,1.323,1.635.724c.475.8.14,2.244-.574,2.489-.075.5-.151,1-.224,1.505a24.766,24.766,0,0,1-5.163-4.395,13.339,13.339,0,0,1-3.04-7.186c-.2-2.125.1-4.556-.879-6.191a3.358,3.358,0,0,0-3.327-1.516c-.22.015-.442.04-.662.067a37.274,37.274,0,0,1,2.7-6.176,2.643,2.643,0,0,0,.676-.421c1.122-.953,1.621-2.881,2.531-4.215q.088-.129.182-.251a8.678,8.678,0,0,1,3.385-2.425c2.669-1.3,5.416-2.609,8.234-2.429l-.8.077q-1.4,3.932-2.81,7.864-.214.6-.431,1.208a12.429,12.429,0,0,0-1,4.746A2.9,2.9,0,0,0,594.6,506.1c.609.314,1.275-.071,1.863-.452.249-.159.5-.318.745-.479.894-.576,1.884-1.166,2.829-.781a3.337,3.337,0,0,1,1.625,2.793A5.584,5.584,0,0,1,600.8,510.683Z" transform="translate(-426.222 -359.461)" fill="#01c98a"/>
    <path id="Path_3151" data-name="Path 3151" d="M629.6,580.3l-7.833-4.823.044-.114c-1.623.618-2.3,3.5-2.029,5.864s1.178,4.47,1.638,6.769a17.967,17.967,0,0,1-.677,9.428,77.214,77.214,0,0,0,9.07-12.5,6.688,6.688,0,0,0,.82-1.819,2.894,2.894,0,0,0-.192-2.058A2.292,2.292,0,0,0,629.6,580.3Z" transform="translate(-449.81 -411.47)" fill="#01c98a"/>
    <path id="Path_3152" data-name="Path 3152" d="M618.221,510.773a2.887,2.887,0,0,0-.132,2.1,2.327,2.327,0,0,0,1.3,1.2l1.443.715a1.862,1.862,0,0,0,1.487.282,1.983,1.983,0,0,0,.893-2.02,3.6,3.6,0,0,0-1.222-2.078l-2.237-2.248-.42.515A5.611,5.611,0,0,0,618.221,510.773Z" transform="translate(-448.7 -370.776)" fill="#01c98a"/>
    <path id="Path_3153" data-name="Path 3153" d="M696.621,513.829l1.947.459c-.113,2.192-1.2,4.221-2.657,4.956a4.959,4.959,0,0,0-1.786.99,5.433,5.433,0,0,0-.9,2.1l-1.112,4.045c-.4,1.453-.909,3.067-1.943,3.591-.888.45-1.9-.1-2.586-1.024a12.321,12.321,0,0,1-1.5-3.375,3.473,3.473,0,0,1-1.457,3.071,1.9,1.9,0,0,1-2.512-.98c-.419-.735-.593-1.7-1-2.45s-1.271-1.172-1.719-.473a6.359,6.359,0,0,0-.4,1.767,1.919,1.919,0,0,1-1.6,1.543,2.674,2.674,0,0,1-1.92-.877,8.7,8.7,0,0,1-2.385-4.809,5.737,5.737,0,0,1,.067-2.63c.258-.814.879-1.443,1.5-1.288.406-.859-.4-2-1.118-1.9s-1.292.877-1.886,1.474-1.422,1.03-2.018.438a.819.819,0,0,1-.831.869,2.97,2.97,0,0,1-1.082-.574c-1.367-.852-3.1-.287-4.074,1.325.607-2.584,1.5-5.548,3.362-6.155.762-.249,1.593-.044,2.314-.475,1.275-.764,1.533-3.651.431-4.843a4.643,4.643,0,0,1-.482,3.212,1.019,1.019,0,0,1-1.767-.871.763.763,0,0,1-1.419.3,2.743,2.743,0,0,1-.082-2.309,5.439,5.439,0,0,1,1.221-1.734,14.965,14.965,0,0,1,3.155-2.814,3.577,3.577,0,0,1,3.641-.23c.609.352,1.145.938,1.767,1.248a1.309,1.309,0,0,0,1.824-.456c.463-.812.245-2.018.417-3.034.308-1.794,2.1-2.634,3.1-1.449-.743-.191-1.512.689-1.6,1.755a2.531,2.531,0,0,0,1.164,2.464c1.21.536,2.4-.812,3.31-2.06q1.432-1.96,2.868-3.917a4.726,4.726,0,0,1,.513-.624,1.65,1.65,0,0,1,2.255-.046c.967.789,1.422,2.408,2.215,3.522,1.152,1.618,2.875,2.012,4.478,2.326q1.793.349,3.589.7a37.188,37.188,0,0,1,2.083,4.6A12.608,12.608,0,0,0,696.621,513.829Z" transform="translate(-476.737 -364.204)" fill="#01c98a"/>
    <path id="Path_3154" data-name="Path 3154" d="M761.489,531.535a7.546,7.546,0,0,0-.4,2.242,5.634,5.634,0,0,1-.515-5.224Q761.095,530.017,761.489,531.535Z" transform="translate(-535.238 -382.836)" fill="#01c98a"/>
    <path id="Path_3155" data-name="Path 3155" d="M743.607,599.053a37.535,37.535,0,0,1-3.12,5.22c-.754-.322-1.564.253-2.27.794-.737.565-1.623,1.116-2.378.6-.773-.528-1.022-2-.777-3.174a8.455,8.455,0,0,1,1.449-2.981,5.845,5.845,0,0,1,2.173-2.276,1.694,1.694,0,0,1,2.255,1.394l.62-.021c-.348-.477-.165-1.466.3-1.639.538-.2,1.005.536,1.323,1.189C743.326,598.454,743.471,598.752,743.607,599.053Z" transform="translate(-519.953 -424.492)" fill="#01c98a"/>
    <path id="Path_3156" data-name="Path 3156" d="M672.774,564.333c-1.332.084-2.387-1.556-3.088-3.169s-1.341-3.458-2.543-4.279a7.427,7.427,0,0,0-2.215-.761,2.742,2.742,0,0,1-1.881-1.656l-.845-.341a12.691,12.691,0,0,0-3.208,2.288,7.17,7.17,0,0,0-1.912,4.179c-.161,1.691.435,3.577,1.548,4.213.88.5,1.9.186,2.8.645,1.114.574,1.775,2.242,2.025,3.889s.187,3.359.366,5.024.673,3.4,1.694,4.253c1.278,1.068,3.154.181,3.727-1.764.281-.954.272-2.03.482-3.02a15.986,15.986,0,0,1,2.163-4.467A6.747,6.747,0,0,0,672.774,564.333Z" transform="translate(-472.57 -398.563)" fill="#01c98a"/>
    <path id="Path_3157" data-name="Path 3157" d="M663.209,532.189a3.559,3.559,0,0,1,.347.368,1.21,1.21,0,0,1-.021,1.249,1.162,1.162,0,0,0,.832-.423,5.355,5.355,0,0,0,.638-.9.98.98,0,0,0,.188-.784c-.063-.18-.212-.256-.316-.391a2.659,2.659,0,0,1-.292-.848,1.529,1.529,0,0,0-1.108-1.168l.067.013a.633.633,0,0,0-.3.675c.04.261.208.478.192.745-.024.383-.407.563-.431.946A.732.732,0,0,0,663.209,532.189Z" transform="translate(-476.106 -383.281)" fill="#01c98a"/>
    <path id="Path_3158" data-name="Path 3158" d="M657.745,519.965h.006a1.066,1.066,0,0,0,.114-.121Z" transform="translate(-472.89 -377.5)" fill="#01c98a"/>
    <path id="Path_3159" data-name="Path 3159" d="M655.54,521.928a1.162,1.162,0,0,0,.362-1.152c-.1-.436-.439-.729-.755-.648a.77.77,0,0,1-.716.211c-.2-.05-.41-.18-.579-.033a.877.877,0,0,0-.2.385l-.188.577a.364.364,0,0,0-.022.219.185.185,0,0,0,.142.113l1.129.333a.972.972,0,0,0,.825-.005Z" transform="translate(-470.282 -377.677)" fill="#01c98a"/>
    <path id="Path_3160" data-name="Path 3160" d="M727.382,584.636l-.522-.854a2.853,2.853,0,0,0-.687-.863.609.609,0,0,0-.867.087l.021.163a3.672,3.672,0,0,1,.916,1.788c.04.291.026.592.061.884a1.031,1.031,0,0,0,.322.721c.274.183.6-.087.79-.416a1.432,1.432,0,0,0,.222-.911,1.6,1.6,0,0,0-.256-.6Z" transform="translate(-514.024 -415.832)" fill="#01c98a"/>
    <path id="Path_3161" data-name="Path 3161" d="M735.286,583.412a1.974,1.974,0,0,0-.064-.795,1.744,1.744,0,0,1,.265-.989,3.214,3.214,0,0,0,.414-.907.759.759,0,0,0-.02-.444c-.058-.129-.2-.188-.277-.086l.171.11a1.558,1.558,0,0,0-.694.034.86.86,0,0,0-.526.593,3.653,3.653,0,0,1-.138.616c-.1.21-.3.28-.424.464a1.109,1.109,0,0,0,.017,1.054,1.229,1.229,0,0,0,.7.547C734.915,583.682,735.19,583.686,735.286,583.412Z" transform="translate(-519.234 -414.223)" fill="#01c98a"/>
    <path id="Path_3162" data-name="Path 3162" d="M747.168,589.545a2.392,2.392,0,0,0,.3.553c.233.234.549.09.831.033a1.436,1.436,0,0,1,1.367.548,3.478,3.478,0,0,0-2-2.5,5.877,5.877,0,0,0-2.057-.322l-.12.031C745.794,588.778,746.75,588.758,747.168,589.545Z" transform="translate(-526.322 -418.917)" fill="#01c98a"/>
    <path id="Path_3163" data-name="Path 3163" d="M697.716,596.607l0,0,.035-.067Z" transform="translate(-497.217 -424.181)" fill="#01c98a"/>
    <path id="Path_3164" data-name="Path 3164" d="M694.728,598.135a6.541,6.541,0,0,0-.413.908,7.91,7.91,0,0,0-.3,1.554c-.037.3-.049.682.139.828a.266.266,0,0,0,.348-.047,1.377,1.377,0,0,0,.253-.375,8.644,8.644,0,0,0,.852-2.022,3.519,3.519,0,0,0-.14-2.268Z" transform="translate(-494.962 -424.321)" fill="#01c98a"/>
    <path id="Path_3165" data-name="Path 3165" d="M677.259,499.582a.839.839,0,0,0,.9.176,2.985,2.985,0,0,0,.851-.562,2,2,0,0,0,.516-.563,1.141,1.141,0,0,0,.106-.869.883.883,0,0,0-.673-.532l-1.253-.371.3-.272c-.311-.167-.655.143-.849.526a2.829,2.829,0,0,0-.258.793A2.036,2.036,0,0,0,677.259,499.582Z" transform="translate(-484.537 -363.338)" fill="#01c98a"/>
    <path id="Path_3166" data-name="Path 3166" d="M696.091,495.305a.69.69,0,0,0,.94.076,1.051,1.051,0,0,0,.416-.749c.029-.328-.133-.693-.365-.722l.053-.307c-.447-.081-1-.1-1.236.446a1.274,1.274,0,0,0,.192,1.256Z" transform="translate(-496.069 -361.515)" fill="#01c98a"/>
    <path id="Path_3167" data-name="Path 3167" d="M630.229,440.088h-153.2a.4.4,0,1,1,0-.8h153.2a.4.4,0,1,1,0,.8Z" transform="translate(-363.729 -328.474)" fill="#cacaca"/>
    <ellipse id="Ellipse_322" data-name="Ellipse 322" cx="4.321" cy="4.418" rx="4.321" ry="4.418" transform="translate(118.807 97.264)" fill="#3f3d56"/>
    <ellipse id="Ellipse_323" data-name="Ellipse 323" cx="4.321" cy="4.418" rx="4.321" ry="4.418" transform="translate(133.574 97.264)" fill="#3f3d56"/>
    <ellipse id="Ellipse_324" data-name="Ellipse 324" cx="4.321" cy="4.418" rx="4.321" ry="4.418" transform="translate(148.341 97.264)" fill="#3f3d56"/>
    <path id="Path_3168" data-name="Path 3168" d="M824.916,407.532h-10.6a.8.8,0,1,0,0,1.606h10.6a.8.8,0,1,0,0-1.606Z" transform="translate(-567.791 -309.151)" fill="#3f3d56"/>
    <path id="Path_3169" data-name="Path 3169" d="M824.916,415.152h-10.6a.8.8,0,1,0,0,1.606h10.6a.8.8,0,1,0,0-1.606Z" transform="translate(-567.791 -313.789)" fill="#3f3d56"/>
    <path id="Path_3170" data-name="Path 3170" d="M824.916,422.762h-10.6a.8.8,0,1,0,0,1.606h10.6a.8.8,0,1,0,0-1.606Z" transform="translate(-567.791 -318.421)" fill="#3f3d56"/>
    <g id="Group_5008" data-name="Group 5008" transform="translate(111.761 149.149)" opacity="0.35">
      <path id="Path_3171" data-name="Path 3171" d="M632.627,548.339c2.466-1.075-2.535-1.7-8.208-1.907s-12.536-.194-16.162-.78c-3.506-.566-3.248-1.573-3.543-2.484s-1.643-1.847-7.114-2.05c-6.818-.253-18.062.72-23.209.136-4.8-.545-1.948-2.254-8.952-2.319-4-.037-9.152.526-13.6.662a49.584,49.584,0,0,1-9.438-.492c-2.169-.355-3.68-.806-6.121-1.12-6.409-.824-18.948-.547-30.14.509s-20.785,2.787-26.195,4.5-6.905,3.4-5.645,4.834c.8.914,2.864,1.769,7.859,2.136,9.344.687,25.979-.5,35.634.13,5.381.348,7.768,1.212,12.49,1.685,5.072.508,12.5.535,19.793.523,15.19-.025,30.769-.181,46.654-.467,6.635-.12,13.587-.275,20.648-.845s14.262-1.669,15.751-2.7" transform="translate(-473.88 -537.504)" fill="#fff"/>
    </g>
    <g id="Group_5009" data-name="Group 5009" transform="translate(118.807 21.575)">
      <ellipse id="Ellipse_326" data-name="Ellipse 326" cx="26.799" cy="26.799" rx="26.799" ry="26.799" fill="#f2f2f2"/>
      <path id="Path_3189" data-name="Path 3189" d="M428.445,369.826A5.826,5.826,0,1,1,434.271,364,5.826,5.826,0,0,1,428.445,369.826Zm0-10.592A4.766,4.766,0,1,0,433.212,364a4.767,4.767,0,0,0-4.767-4.767Z" transform="translate(-382.731 -331.733)" fill="#2f2e41"/>
      <path id="Path_3190" data-name="Path 3190" d="M425.671,369.434a8.209,8.209,0,1,1,8.209-8.209A8.209,8.209,0,0,1,425.671,369.434Zm0-15.359a7.15,7.15,0,1,0,7.15,7.15,7.15,7.15,0,0,0-7.15-7.15Z" transform="translate(-379.957 -328.959)" fill="#2f2e41"/>
      <path id="Path_3191" data-name="Path 3191" d="M415.188,367.955A17.212,17.212,0,1,1,432.4,350.743a17.212,17.212,0,0,1-17.212,17.212Zm0-33.366a16.153,16.153,0,1,0,16.153,16.153,16.153,16.153,0,0,0-16.153-16.153Z" transform="translate(-369.474 -318.476)" fill="#2f2e41"/>
      <rect id="Rectangle_671" data-name="Rectangle 671" width="1.059" height="13.237" transform="matrix(0.855, -0.519, 0.519, 0.855, 31.121, 23.686)" fill="#2f2e41"/>
      <rect id="Rectangle_672" data-name="Rectangle 672" width="12.405" height="1.059" transform="translate(44.134 48.691) rotate(-60.682)" fill="#2f2e41"/>
      <rect id="Rectangle_673" data-name="Rectangle 673" width="13.142" height="1.059" transform="translate(47.38 24.242) rotate(-0.811)" fill="#2f2e41"/>
    </g>
    <g id="Group_5010" data-name="Group 5010" transform="translate(243.255 5.149)">
      <ellipse id="Ellipse_327" data-name="Ellipse 327" cx="26.8" cy="26.799" rx="26.8" ry="26.799" transform="translate(2.903)" fill="#f2f2f2"/>
      <path id="Path_3192" data-name="Path 3192" d="M478.662,500.092l-.569-.894a8.98,8.98,0,0,1,4.743-1.4l.01,1.059A7.925,7.925,0,0,0,478.662,500.092Z" transform="translate(-466.503 -481.233)" fill="#2f2e41"/>
      <path id="Path_3193" data-name="Path 3193" d="M470.121,518.888a16.949,16.949,0,0,1-10.835-30.114l.667.823a15.889,15.889,0,1,0,22.424,2.433l.827-.661a16.779,16.779,0,0,1,3.7,10.409,16.967,16.967,0,0,1-16.785,17.11Z" transform="translate(-453.01 -476.379)" fill="#2f2e41"/>
      <path id="Path_3194" data-name="Path 3194" d="M470.426,503.77l-1.016-.3a4.074,4.074,0,0,1,2.921-2.846l.085-.01,3.174-.123,1.217-1.484-.936-.3-4.55-3.345-.034-3.512-4.736,3.223-.051-5.333,1.059-.01.032,3.353,4.736-3.223.048,4.962,3.985,2.929,2.252.727-2.505,3.054-3.6.139A3.023,3.023,0,0,0,470.426,503.77Z" transform="translate(-460.267 -476.893)" fill="#2f2e41"/>
      <path id="Path_3195" data-name="Path 3195" d="M502.941,492.107,493,478.1c-5.011,1.28-5.2,8.927-5.2,9.006l-1.059-.018c.006-.364.22-8.92,6.387-10.1l.334-.064,7.232,10.186-.5-2.138,1.032-.24Z" transform="translate(-471.154 -470.005)" fill="#2f2e41"/>
      <path id="Path_3196" data-name="Path 3196" d="M480.3,514.72a7.726,7.726,0,0,1-7.717-6.93l1.054-.1a6.621,6.621,0,1,0,9.965-6.343l-2.33-1.384,4.581.693a8.375,8.375,0,0,0-5.946-1.82l-.06-1.058a9.045,9.045,0,0,1,7.91,3.333l.7,1.01-2.7-.408A7.685,7.685,0,0,1,480.3,514.72Z" transform="translate(-463.538 -481.212)" fill="#2f2e41"/>
    </g>
  </g>
</svg>
