<svg width="536" height="308" viewBox="0 0 536 308" fill="none" xmlns="http://www.w3.org/2000/svg">
<g clip-path="url(#clip0_132_287)">
<path d="M267.576 308.001C415.354 308.001 535.152 301.1 535.152 292.587C535.152 284.074 415.354 277.173 267.576 277.173C119.798 277.173 0 284.074 0 292.587C0 301.1 119.798 308.001 267.576 308.001Z" fill="#F6D4E7"/>
<path d="M487.119 0H84.507V12.809H487.119V0Z" fill="#F6D4E7"/>
<path d="M96.128 9.53088C97.9588 9.53088 99.443 8.0467 99.443 6.21588C99.443 4.38506 97.9588 2.90088 96.128 2.90088C94.2972 2.90088 92.813 4.38506 92.813 6.21588C92.813 8.0467 94.2972 9.53088 96.128 9.53088Z" fill="#FC5185"/>
<path d="M106.736 9.53088C108.567 9.53088 110.051 8.0467 110.051 6.21588C110.051 4.38506 108.567 2.90088 106.736 2.90088C104.905 2.90088 103.421 4.38506 103.421 6.21588C103.421 8.0467 104.905 9.53088 106.736 9.53088Z" fill="#FC5185"/>
<path d="M117.492 9.53088C119.323 9.53088 120.807 8.0467 120.807 6.21588C120.807 4.38506 119.323 2.90088 117.492 2.90088C115.661 2.90088 114.177 4.38506 114.177 6.21588C114.177 8.0467 115.661 9.53088 117.492 9.53088Z" fill="#FC5185"/>
<path d="M84.792 202.093L84.507 202.338V288.744H487.117V136.972L482.317 137.336L84.792 202.093Z" fill="#2F2E41"/>
<path d="M226.611 85.5449H114.181V90.0779H226.611V85.5449Z" fill="#2F2E41"/>
<path d="M226.611 95.5029H114.181V100.036H226.611V95.5029Z" fill="#2F2E41"/>
<path d="M152.296 105.46H114.215V109.993H152.296V105.46Z" fill="#2F2E41"/>
<path d="M455.271 211.202H342.841V215.735H455.271V211.202Z" fill="white"/>
<path d="M455.271 221.16H342.841V225.693H455.271V221.16Z" fill="white"/>
<path d="M381.185 231.118H343.104V235.651H381.185V231.118Z" fill="white"/>
<path d="M273.402 284.568C275.845 284.568 277.825 282.588 277.825 280.145C277.825 277.702 275.845 275.722 273.402 275.722C270.959 275.722 268.979 277.702 268.979 280.145C268.979 282.588 270.959 284.568 273.402 284.568Z" fill="#FFE6ED"/>
<path d="M286.207 285.01C288.65 285.01 290.63 283.03 290.63 280.587C290.63 278.144 288.65 276.164 286.207 276.164C283.764 276.164 281.784 278.144 281.784 280.587C281.784 283.03 283.764 285.01 286.207 285.01Z" fill="#FFE6ED"/>
<path d="M299.012 285.452C301.455 285.452 303.435 283.472 303.435 281.029C303.435 278.586 301.455 276.606 299.012 276.606C296.569 276.606 294.589 278.586 294.589 281.029C294.589 283.472 296.569 285.452 299.012 285.452Z" fill="#FFE6ED"/>
<path d="M286.247 284.125C288.201 284.125 289.785 282.541 289.785 280.587C289.785 278.633 288.201 277.049 286.247 277.049C284.293 277.049 282.709 278.633 282.709 280.587C282.709 282.541 284.293 284.125 286.247 284.125Z" fill="#2F2E41"/>
<path d="M189.308 137.35H151.227V146.038H189.308V137.35Z" fill="#2F1C6A"/>
<path d="M415.274 254.653H377.193V263.341H415.274V254.653Z" fill="white"/>
<path opacity="0.13" d="M170.487 168.087C185.036 168.087 196.83 156.293 196.83 141.744C196.83 127.195 185.036 115.401 170.487 115.401C155.938 115.401 144.144 127.195 144.144 141.744C144.144 156.293 155.938 168.087 170.487 168.087Z" fill="#673DE6"/>
<path opacity="0.13" d="M170.481 159.305C180.18 159.305 188.043 151.442 188.043 141.743C188.043 132.044 180.18 124.181 170.481 124.181C160.782 124.181 152.919 132.044 152.919 141.743C152.919 151.442 160.782 159.305 170.481 159.305Z" fill="#673DE6"/>
<path d="M170.477 153.938C177.213 153.938 182.673 148.478 182.673 141.742C182.673 135.006 177.213 129.546 170.477 129.546C163.741 129.546 158.281 135.006 158.281 141.742C158.281 148.478 163.741 153.938 170.477 153.938Z" fill="#673DE6"/>
<path opacity="0.13" d="M391.755 102.926C406.304 102.926 418.098 91.1321 418.098 76.5832C418.098 62.0344 406.304 50.2402 391.755 50.2402C377.206 50.2402 365.412 62.0344 365.412 76.5832C365.412 91.1321 377.206 102.926 391.755 102.926Z" fill="#673DE6"/>
<path opacity="0.13" d="M391.762 94.1362C401.461 94.1362 409.324 86.2734 409.324 76.5742C409.324 66.875 401.461 59.0122 391.762 59.0122C382.063 59.0122 374.2 66.875 374.2 76.5742C374.2 86.2734 382.063 94.1362 391.762 94.1362Z" fill="#673DE6"/>
<path d="M391.767 88.765C398.503 88.765 403.963 83.3047 403.963 76.569C403.963 69.8334 398.503 64.373 391.767 64.373C385.031 64.373 379.571 69.8334 379.571 76.569C379.571 83.3047 385.031 88.765 391.767 88.765Z" fill="#673DE6"/>
<path opacity="0.3" d="M396.442 285.387C410.991 285.387 422.785 273.593 422.785 259.044C422.785 244.495 410.991 232.701 396.442 232.701C381.893 232.701 370.099 244.495 370.099 259.044C370.099 273.593 381.893 285.387 396.442 285.387Z" fill="#FC5185"/>
<path opacity="0.3" d="M396.45 276.606C406.149 276.606 414.012 268.743 414.012 259.044C414.012 249.345 406.149 241.482 396.45 241.482C386.751 241.482 378.888 249.345 378.888 259.044C378.888 268.743 386.751 276.606 396.45 276.606Z" fill="#FC5185"/>
<path d="M396.454 271.24C403.19 271.24 408.65 265.78 408.65 259.044C408.65 252.308 403.19 246.848 396.454 246.848C389.718 246.848 384.258 252.308 384.258 259.044C384.258 265.78 389.718 271.24 396.454 271.24Z" fill="#FC5185"/>
<path d="M43.8671 53.3495L54.709 53.77L55.2496 39.8295L44.4078 39.409L43.8671 53.3495Z" fill="#FC5185"/>
<path d="M93.1659 88.091C93.1659 88.091 108.181 80.917 107.941 87.113C107.701 93.309 92.8049 97.386 92.8049 97.386L93.1659 88.091Z" fill="#FFB8B8"/>
<path d="M85.078 140.165C85.078 140.165 92.162 157.503 94.778 170.015C97.394 182.527 101.378 199.744 96.254 211.955C91.13 224.166 76.554 260.055 76.4 263.927C76.246 267.799 77.649 271.727 74.551 271.611C71.453 271.495 54.596 266.184 53.911 263.83C53.226 261.476 59.662 255.521 59.662 255.521L75.554 205.721L58.973 173.278L47.013 221.678L44.671 282.085C44.671 282.085 33.171 278.537 31.505 281.574C31.505 281.574 26.354 274.394 25.7 271.266C25.046 268.138 28.133 208.536 28.133 208.536C28.133 208.536 17.58 140.649 26.099 140.979C34.618 141.309 67.987 120.887 85.078 140.165Z" fill="#2F2E41"/>
<path d="M74.673 268.513C74.673 268.513 82.531 285.881 83.273 286.686C84.015 287.491 89.138 295.445 85.266 295.295C81.394 295.145 72.251 290.912 65.521 284.446C58.791 277.98 49.921 266.778 50.721 266.033C51.521 265.288 57.037 263.176 57.037 263.176L74.673 268.513Z" fill="#2F2E41"/>
<path d="M43.274 278.154C43.274 278.154 43.748 285.928 45.174 289.086C46.6 292.244 46.423 296.886 42.55 296.741C38.677 296.596 28.67 294.651 28.67 294.651C28.67 294.651 28.076 289.974 28.88 289.23C29.684 288.486 33.113 280.087 31.654 277.703C30.195 275.319 43.274 278.154 43.274 278.154Z" fill="#2F2E41"/>
<path d="M37.545 26.3462C37.545 26.3462 29.29 39.2112 26.072 42.1892C22.854 45.1672 31.907 51.7232 31.907 51.7232L48.107 53.9032C48.107 53.9032 47.907 39.1582 48.738 37.6402C49.569 36.1222 37.545 26.3462 37.545 26.3462Z" fill="#FFB8B8"/>
<path d="M51.6291 43.1802C51.6291 43.1802 48.2911 49.2552 45.1931 49.1352C42.0951 49.0152 26.0721 42.1892 25.3881 39.8352C24.7041 37.4812 20.0811 56.6932 20.0811 56.6932L59.2881 125.693L68.8521 119.083L64.218 78.5722L60.412 56.7072L51.6291 43.1802Z" fill="#2F2E41"/>
<path d="M23.942 104.93C25.5623 108.075 26.389 111.569 26.35 115.107C26.344 115.262 26.338 115.417 26.324 115.571C25.953 122.739 23.312 131.028 22.365 137.057C21.678 141.382 21.873 144.538 24.404 145.28C30.54 147.069 23.509 148.348 47.247 156.249C70.985 164.15 75.127 157.33 75.187 155.781C75.247 154.232 71.825 142.465 72.63 141.721C73.435 140.977 83.886 151.465 87.044 150.036C90.202 148.607 87.404 140.743 87.404 140.743C87.404 140.743 80.29 124.179 80.44 120.307C80.59 116.435 69.664 98.1718 69.664 98.1718L62.233 49.7958C62.233 49.7958 59.375 43.4798 55.533 42.5558C53.1125 42.053 50.5913 42.5117 48.503 43.8348L54.932 58.0448L61.715 83.1278L60.58 92.3908C60.58 92.3908 52.692 75.7968 47.511 69.3908C42.33 62.9848 31.284 47.8198 31.284 47.8198C31.284 47.8198 28.705 39.1198 30.652 36.5198C32.599 33.9198 22.531 33.5198 18.239 44.2138C15.964 49.8808 12.27 58.3308 9.95601 66.1988C7.89401 73.1688 6.92001 79.6848 8.96301 83.4098C12.084 89.0968 19.938 96.5768 23.942 104.93Z" fill="#FC5185"/>
<path opacity="0.1" d="M8.96096 83.2878C12.083 88.9778 19.937 96.4568 23.941 104.81C24.987 101.042 26.263 97.1438 26.263 97.1438C26.263 97.1438 31.156 70.9628 16.682 64.1968C14.2835 63.965 11.8848 64.6353 9.95396 66.0768C7.89296 73.0498 6.91896 79.5668 8.96096 83.2878Z" fill="black"/>
<path d="M66.421 81.6191L78.692 85.1971L95.73 85.8581L97.483 100.658L69.483 102.675C69.483 102.675 62.489 83.0181 66.421 81.6191Z" fill="#FC5185"/>
<path d="M46.411 131.321C46.411 131.321 62.827 134.045 59.08 138.985C55.333 143.925 40.79 138.731 40.79 138.731L46.411 131.321Z" fill="#FFB8B8"/>
<path opacity="0.1" d="M26.322 115.368C25.951 122.536 23.31 130.826 22.363 136.854C27.593 141.803 32.563 146.169 34.44 146.242C38.312 146.392 44.54 145.858 46.831 146.723C49.122 147.588 50.469 132.903 50.469 132.903C50.469 132.903 49.1 128.196 42.995 125.633C37.0608 122.865 31.4661 119.42 26.322 115.368V115.368Z" fill="black"/>
<path d="M16.863 59.542C16.863 59.542 3.75696 57.4829 4.46296 79.2269C5.16896 100.971 3.08196 114.851 8.35296 118.934C13.624 123.017 30.747 141.52 34.616 141.67C38.485 141.82 44.716 141.286 47.007 142.15C49.298 143.014 50.645 128.33 50.645 128.33C50.645 128.33 49.276 123.623 43.171 121.059C37.066 118.495 22.681 109.406 22.801 106.308C22.921 103.21 26.439 92.4879 26.439 92.4879C26.439 92.4879 31.337 66.308 16.863 59.542Z" fill="#FC5185"/>
<path d="M49.102 45.3959C58.519 45.3959 66.153 37.762 66.153 28.3449C66.153 18.9279 58.519 11.2939 49.102 11.2939C39.685 11.2939 32.051 18.9279 32.051 28.3449C32.051 37.762 39.685 45.3959 49.102 45.3959Z" fill="#FFB8B8"/>
<path d="M60.583 3.90677C60.9944 4.26102 61.487 4.50803 62.017 4.62578C62.283 4.67335 62.5571 4.6137 62.7793 4.45988C63.0015 4.30605 63.1538 4.07054 63.203 3.80478C63.5096 4.65547 64.0796 5.3862 64.83 5.89078C65.63 6.30578 66.858 5.95778 66.973 5.06678C67.0892 5.74298 67.3884 6.37447 67.838 6.89278C68.073 7.13989 68.3957 7.28475 68.7365 7.29616C69.0773 7.30757 69.409 7.18462 69.66 6.95379C69.4591 8.88023 69.3779 10.8173 69.417 12.7538C69.4317 13.7243 69.2549 14.6883 68.8968 15.5905C68.5387 16.4927 68.0063 17.3155 67.33 18.0118C65.198 19.8668 61.993 19.4118 59.189 19.0578C58.7649 18.9688 58.3248 18.993 57.913 19.1278C56.863 19.5748 56.913 21.0368 56.897 22.1778C56.8113 24.1801 56.0188 26.0873 54.6602 27.5607C53.3016 29.0341 51.4648 29.9784 49.476 30.2258C48.363 30.3974 47.2275 30.1201 46.319 29.4548C45.519 28.7798 45.119 27.6798 44.204 27.1728C42.72 26.3478 40.92 27.5508 39.835 28.8568C38.75 30.1628 37.681 31.7688 36 32.0078C33.777 32.3238 32.084 30.0588 31.253 27.9728C30.1072 25.0499 29.558 21.9272 29.6379 18.7888C29.7177 15.6503 30.425 12.5596 31.718 9.69878C36.359 -0.422218 52.215 -2.02323 60.583 3.90677Z" fill="#2F2E41"/>
<path d="M469.04 274.534C475.045 284.775 487.156 288.834 487.156 288.834C487.156 288.834 489.531 276.285 483.526 266.044C477.521 255.803 465.41 251.744 465.41 251.744C465.41 251.744 463.035 264.294 469.04 274.534Z" fill="#F6D4E7"/>
<path d="M472.787 270.961C483.172 276.713 487.522 288.721 487.522 288.721C487.522 288.721 475.035 291.403 464.65 285.652C454.265 279.901 449.914 267.892 449.914 267.892C449.914 267.892 462.401 265.209 472.787 270.961Z" fill="#FC5185"/>
</g>
<defs>
<clipPath id="clip0_132_287">
<rect width="535.153" height="308" fill="white"/>
</clipPath>
</defs>
</svg>
