<svg width="60" height="60" viewBox="0 0 60 60" fill="none" xmlns="http://www.w3.org/2000/svg">
<g clip-path="url(#clip0_167_755)">
<path d="M60 30C60 13.4315 46.5685 0 30 0C13.4315 0 0 13.4315 0 30C0 46.5685 13.4315 60 30 60C46.5685 60 60 46.5685 60 30Z" fill="#F4F5FF"/>
<path d="M30 17.9309C27.231 17.9307 24.524 18.7517 22.2215 20.29C19.9191 21.8283 18.1245 24.0149 17.0648 26.5732C16.0051 29.1315 15.7278 31.9466 16.2681 34.6625C16.8084 37.3783 18.1419 39.873 20.1 41.8309C20.1762 41.9071 20.2666 41.9675 20.3661 42.0088C20.4656 42.05 20.5723 42.0713 20.68 42.0713C20.7878 42.0713 20.8944 42.05 20.994 42.0088C21.0935 41.9675 21.1839 41.9071 21.26 41.8309L23.745 39.3459C23.8212 39.2698 23.8817 39.1793 23.9229 39.0798C23.9642 38.9803 23.9854 38.8736 23.9854 38.7659C23.9854 38.6582 23.9642 38.5515 23.9229 38.452C23.8817 38.3525 23.8212 38.2621 23.745 38.1859C22.5393 36.9802 21.7078 35.4516 21.3508 33.7842C20.9937 32.1168 21.1263 30.3818 21.7325 28.788C22.3388 27.1942 23.3928 25.8097 24.7678 24.8011C26.1427 23.7926 27.7799 23.203 29.4821 23.1034C31.1844 23.0038 32.8792 23.3984 34.3623 24.2397C35.8455 25.0811 37.0538 26.3332 37.8418 27.8454C38.6298 29.3576 38.9638 31.0654 38.8036 32.763C38.6434 34.4606 37.9959 36.0758 36.939 37.4139C35.3755 34.8837 33.6667 32.4463 31.821 30.1139C31.3377 29.6306 30.6821 29.359 29.9985 29.359C29.315 29.359 28.6594 29.6306 28.176 30.1139C27.6927 30.5973 27.4211 31.2528 27.4211 31.9364C27.4211 32.62 27.6927 33.2756 28.176 33.7589C29.409 34.9919 35.325 38.7819 36.316 39.4139L38.736 41.8339C38.8122 41.9101 38.9026 41.9705 39.0021 42.0118C39.1016 42.053 39.2083 42.0743 39.316 42.0743C39.4238 42.0743 39.5304 42.053 39.63 42.0118C39.7295 41.9705 39.8199 41.9101 39.896 41.8339C41.855 39.8764 43.1893 37.3818 43.7303 34.6658C44.2713 31.9498 43.9946 29.1344 42.9353 26.5756C41.876 24.0169 40.0816 21.8298 37.7791 20.291C35.4766 18.7522 32.7694 17.9309 30 17.9309V17.9309ZM22.029 38.7419L20.7 40.0699C18.9061 38.0339 17.8389 35.46 17.666 32.7519H19.546C19.7142 34.9622 20.5842 37.0609 22.029 38.7419V38.7419ZM19.546 31.1109H17.667C17.8397 28.403 18.9065 25.829 20.7 23.7929L22.028 25.1209C20.5829 26.8017 19.7132 28.9006 19.546 31.1109V31.1109ZM29.18 21.4769C26.9696 21.6444 24.8707 22.5144 23.19 23.9599L21.861 22.6319C23.8974 20.8382 26.4718 19.7714 29.18 19.5989V21.4769ZM29.338 32.5929C29.2491 32.5063 29.1783 32.403 29.1297 32.2888C29.081 32.1746 29.0555 32.0519 29.0547 31.9278C29.0539 31.8037 29.0777 31.6807 29.1248 31.5659C29.1719 31.4511 29.2414 31.3468 29.3291 31.259C29.4169 31.1712 29.5212 31.1018 29.636 31.0547C29.7508 31.0076 29.8739 30.9838 29.9979 30.9846C30.122 30.9854 30.2447 31.0109 30.3589 31.0595C30.4731 31.1082 30.5765 31.179 30.663 31.2679V31.2679C31.8786 32.7634 33.0033 34.3306 34.031 35.9609C32.4007 34.9332 30.8335 33.8085 29.338 32.5929V32.5929ZM30.82 21.4769V19.5989C33.5284 19.7717 36.1028 20.8388 38.139 22.6329L36.811 23.9609C35.1304 22.5154 33.0315 21.6453 30.821 21.4779L30.82 21.4769ZM37.971 25.1199L39.3 23.7929C41.094 25.8289 42.1611 28.4029 42.334 31.1109H40.454C40.2866 28.9005 39.4166 26.8015 37.971 25.1209V25.1199ZM39.3 40.0699L37.972 38.7419C39.4169 37.0609 40.2869 34.9622 40.455 32.7519H42.334C42.1611 35.46 41.094 38.0339 39.3 40.0699V40.0699Z" fill="#673DE6"/>
</g>
<defs>
<clipPath id="clip0_167_755">
<rect width="60" height="60" fill="white"/>
</clipPath>
</defs>
</svg>
