<svg width="60" height="60" viewBox="0 0 60 60" fill="none" xmlns="http://www.w3.org/2000/svg">
<g clip-path="url(#clip0_167_736)">
<path d="M60 30C60 13.4315 46.5685 0 30 0C13.4315 0 0 13.4315 0 30C0 46.5685 13.4315 60 30 60C46.5685 60 60 46.5685 60 30Z" fill="#F4F5FF"/>
<path d="M43.9999 28.3841C43.9881 28.2719 43.9534 28.1634 43.898 28.0652C43.8427 27.967 43.7677 27.8812 43.6779 27.8131L41.4599 26.1331L42.2669 23.4701C42.2997 23.3623 42.31 23.2489 42.2972 23.1369C42.2845 23.0249 42.2489 22.9168 42.1926 22.8191C42.1364 22.7214 42.0607 22.6363 41.9703 22.5691C41.8799 22.5018 41.7766 22.4538 41.6669 22.4281L38.9569 21.7951L38.6109 19.0341C38.5968 18.9223 38.5599 18.8145 38.5025 18.7175C38.4452 18.6205 38.3685 18.5363 38.2774 18.4701C38.1862 18.4038 38.0824 18.357 37.9724 18.3324C37.8624 18.3078 37.7486 18.306 37.6379 18.3271L34.8999 18.8511L33.4599 16.4701C33.4015 16.3736 33.324 16.2901 33.232 16.2248C33.1401 16.1595 33.0358 16.1137 32.9255 16.0903C32.8152 16.0668 32.7013 16.0663 32.5908 16.0886C32.4802 16.1109 32.3754 16.1557 32.2829 16.2201L29.9999 17.8101L27.7169 16.2201C27.6243 16.1557 27.5196 16.1109 27.409 16.0886C27.2985 16.0663 27.1846 16.0668 27.0743 16.0903C26.964 16.1137 26.8596 16.1595 26.7677 16.2248C26.6758 16.2901 26.5983 16.3736 26.5399 16.4701L25.0999 18.8511L22.3679 18.3271C22.2572 18.306 22.1433 18.3078 22.0334 18.3324C21.9234 18.357 21.8196 18.4038 21.7284 18.4701C21.6373 18.5363 21.5606 18.6205 21.5033 18.7175C21.4459 18.8145 21.409 18.9223 21.3949 19.0341L21.0489 21.7951L18.3389 22.4281C18.2293 22.454 18.1261 22.502 18.0357 22.5693C17.9454 22.6366 17.8698 22.7217 17.8135 22.8193C17.7573 22.9169 17.7217 23.0251 17.7089 23.137C17.696 23.2489 17.7062 23.3623 17.7389 23.4701L18.5459 26.1331L16.3269 27.8131C16.2365 27.8812 16.1611 27.9672 16.1054 28.0657C16.0497 28.1642 16.0149 28.2731 16.003 28.3857C15.9912 28.4982 16.0027 28.612 16.0367 28.72C16.0708 28.8279 16.1266 28.9277 16.2009 29.0131L18.0209 31.1131L16.6779 33.5511C16.6236 33.6499 16.5901 33.7587 16.5795 33.871C16.5689 33.9832 16.5815 34.0964 16.6163 34.2036C16.6512 34.3108 16.7076 34.4097 16.7822 34.4942C16.8568 34.5788 16.9479 34.6471 17.0499 34.6951L19.5689 35.8771L19.3329 38.6491C19.3234 38.7614 19.3371 38.8745 19.3731 38.9813C19.409 39.0882 19.4665 39.1865 19.5419 39.2703C19.6173 39.3541 19.7091 39.4215 19.8116 39.4684C19.9142 39.5153 20.0252 39.5407 20.1379 39.5431L22.9199 39.5981L23.8319 42.2261C23.8689 42.3327 23.9273 42.4307 24.0037 42.5138C24.08 42.597 24.1726 42.6636 24.2757 42.7095C24.3788 42.7554 24.4902 42.7797 24.6031 42.7808C24.716 42.782 24.8279 42.7599 24.9319 42.7161L27.4999 41.6371L29.3999 43.6671C29.477 43.7488 29.57 43.8139 29.6732 43.8584C29.7764 43.9029 29.8875 43.9258 29.9999 43.9258C30.1123 43.9258 30.2234 43.9029 30.3266 43.8584C30.4298 43.8139 30.5228 43.7488 30.5999 43.6671L32.4999 41.6371L35.0639 42.7181C35.1678 42.7619 35.2797 42.784 35.3925 42.783C35.5053 42.7819 35.6167 42.7577 35.7198 42.7119C35.8229 42.666 35.9155 42.5995 35.9919 42.5165C36.0683 42.4335 36.1268 42.3356 36.1639 42.2291L37.0759 39.6001L39.8579 39.5451C39.9706 39.5427 40.0816 39.5173 40.1841 39.4704C40.2866 39.4235 40.3784 39.3561 40.4539 39.2723C40.5293 39.1885 40.5868 39.0902 40.6227 38.9833C40.6587 38.8765 40.6723 38.7634 40.6629 38.6511L40.4269 35.8791L42.9459 34.6971C43.0479 34.6491 43.139 34.5808 43.2136 34.4962C43.2882 34.4117 43.3446 34.3128 43.3795 34.2056C43.4143 34.0984 43.4268 33.9852 43.4163 33.873C43.4057 33.7607 43.3722 33.6519 43.3179 33.5531L41.9749 31.1161L43.7949 29.0161C43.871 28.9307 43.9285 28.8304 43.9638 28.7216C43.9991 28.6128 44.0114 28.4979 43.9999 28.3841V28.3841ZM40.2619 31.4071L41.4619 33.5761L39.2199 34.6281C39.0675 34.6997 38.9406 34.8164 38.8564 34.9622C38.7722 35.1081 38.7347 35.2762 38.7489 35.4441L38.9589 37.9121L36.4829 37.9611C36.3143 37.9644 36.1509 38.0193 36.0144 38.1183C35.878 38.2174 35.7752 38.3558 35.7199 38.5151L34.9079 40.8551L32.6259 39.8931C32.4702 39.828 32.2983 39.8123 32.1334 39.8481C31.9685 39.8838 31.8186 39.9694 31.7039 40.0931L29.9999 41.8971L28.3059 40.0901C28.1912 39.9664 28.0412 39.8808 27.8763 39.8451C27.7115 39.8093 27.5396 39.825 27.3839 39.8901L25.0999 40.8561L24.2879 38.5161C24.2327 38.3568 24.1299 38.2182 23.9935 38.1192C23.857 38.0201 23.6935 37.9653 23.5249 37.9621L21.0509 37.9131L21.2609 35.4451C21.2751 35.2772 21.2375 35.1091 21.1533 34.9632C21.0691 34.8174 20.9423 34.7008 20.7899 34.6291L18.5469 33.5761L19.7469 31.4071C19.8279 31.2594 19.8617 31.0904 19.8438 30.9229C19.826 30.7554 19.7572 30.5974 19.6469 30.4701L18.0269 28.5971L19.9999 27.1001C20.1348 26.998 20.2351 26.8569 20.2872 26.6959C20.3392 26.5349 20.3405 26.3618 20.2909 26.2001L19.5729 23.8301L21.9849 23.2671C22.149 23.2288 22.2974 23.1412 22.4102 23.016C22.523 22.8909 22.5948 22.7342 22.6159 22.5671L22.9239 20.1091L25.3569 20.5761C25.5223 20.6079 25.6936 20.5883 25.8475 20.5198C26.0015 20.4513 26.1308 20.3373 26.2179 20.1931L27.4999 18.0761L29.5319 19.4921C29.6702 19.5884 29.8348 19.6401 30.0034 19.6401C30.172 19.6401 30.3365 19.5884 30.4749 19.4921L32.4999 18.0761L33.7809 20.1961C33.868 20.3403 33.9973 20.4543 34.1512 20.5228C34.3052 20.5913 34.4764 20.6109 34.6419 20.5791L37.0749 20.1121L37.3829 22.5701C37.404 22.7372 37.4758 22.8939 37.5886 23.019C37.7014 23.1442 37.8498 23.2318 38.0139 23.2701L40.4259 23.8331L39.7079 26.2031C39.6583 26.3648 39.6595 26.5379 39.7116 26.6989C39.7637 26.8599 39.8639 27.001 39.9989 27.1031L41.9729 28.6031L40.3529 30.4761C40.2445 30.6033 40.1772 30.7604 40.1601 30.9266C40.1429 31.0929 40.1767 31.2604 40.2569 31.4071H40.2619Z" fill="#673DE6"/>
<path d="M29.9999 22.1101C28.4394 22.1101 26.9139 22.5728 25.6164 23.4398C24.3189 24.3068 23.3076 25.539 22.7105 26.9807C22.1133 28.4224 21.957 30.0089 22.2615 31.5394C22.5659 33.0699 23.3174 34.4757 24.4208 35.5792C25.5242 36.6826 26.9301 37.4341 28.4606 37.7385C29.9911 38.0429 31.5775 37.8867 33.0192 37.2895C34.4609 36.6923 35.6932 35.6811 36.5602 34.3836C37.4271 33.0861 37.8899 31.5606 37.8899 30.0001C37.8872 27.9084 37.0551 25.903 35.576 24.424C34.0969 22.9449 32.0916 22.1128 29.9999 22.1101V22.1101ZM29.9999 36.2411C28.7656 36.2409 27.559 35.8747 26.5328 35.1888C25.5066 34.5029 24.7069 33.5282 24.2346 32.3877C23.7624 31.2473 23.639 29.9925 23.8799 28.7819C24.1208 27.5714 24.7153 26.4594 25.5882 25.5867C26.461 24.714 27.5731 24.1197 28.7837 23.879C29.9943 23.6382 31.2491 23.7619 32.3894 24.2343C33.5298 24.7067 34.5044 25.5066 35.1901 26.5329C35.8759 27.5592 36.2419 28.7658 36.2419 30.0001C36.2403 31.6551 35.5821 33.2419 34.4119 34.4121C33.2416 35.5824 31.6549 36.2405 29.9999 36.2421V36.2411Z" fill="#673DE6"/>
<path d="M33.23 27.6512C33.0754 27.4967 32.8657 27.4099 32.647 27.4099C32.4284 27.4099 32.2187 27.4967 32.064 27.6512L29.114 30.6012L27.93 29.4172C27.8545 29.3361 27.7634 29.2711 27.6622 29.226C27.561 29.1809 27.4518 29.1567 27.341 29.1547C27.2302 29.1528 27.1202 29.1732 27.0175 29.2147C26.9148 29.2561 26.8214 29.3179 26.7431 29.3962C26.6648 29.4746 26.603 29.5679 26.5615 29.6706C26.52 29.7734 26.4996 29.8834 26.5016 29.9942C26.5035 30.1049 26.5278 30.2142 26.5729 30.3154C26.618 30.4166 26.683 30.5077 26.764 30.5832L28.53 32.3502C28.6847 32.5047 28.8944 32.5915 29.113 32.5915C29.3317 32.5915 29.5414 32.5047 29.696 32.3502L33.23 28.8172C33.3845 28.6625 33.4713 28.4528 33.4713 28.2342C33.4713 28.0156 33.3845 27.8059 33.23 27.6512V27.6512Z" fill="#673DE6"/>
</g>
<defs>
<clipPath id="clip0_167_736">
<rect width="60" height="60" fill="white"/>
</clipPath>
</defs>
</svg>
