<svg width="60" height="60" viewBox="0 0 60 60" fill="none" xmlns="http://www.w3.org/2000/svg">
<g clip-path="url(#clip0_167_750)">
<path d="M60 30C60 13.4315 46.5685 0 30 0C13.4315 0 0 13.4315 0 30C0 46.5685 13.4315 60 30 60C46.5685 60 60 46.5685 60 30Z" fill="#F4F5FF"/>
<path d="M31.8999 33.733C31.3187 33.3264 30.6909 32.9906 30.0299 32.733C30.9285 31.919 31.4834 30.7934 31.5819 29.585C32.7565 28.4436 34.2916 27.7463 35.924 27.6128C37.5564 27.4792 39.1844 27.9177 40.5289 28.853C40.6295 28.9293 40.7444 28.9844 40.8668 29.0151C40.9892 29.0458 41.1165 29.0515 41.2411 29.0318C41.3658 29.0122 41.4852 28.9675 41.5921 28.9006C41.6991 28.8336 41.7914 28.7457 41.8636 28.6422C41.9357 28.5387 41.9863 28.4217 42.0121 28.2982C42.0379 28.1747 42.0386 28.0473 42.014 27.9235C41.9893 27.7997 41.94 27.6822 41.8688 27.578C41.7977 27.4738 41.7062 27.385 41.5999 27.317C41.0186 26.9104 40.3909 26.5747 39.7299 26.317C40.4444 25.6688 40.9461 24.8197 41.169 23.8811C41.392 22.9425 41.3258 21.9584 40.9792 21.0582C40.6325 20.1579 40.0217 19.3836 39.2268 18.8369C38.432 18.2902 37.4903 17.9968 36.5256 17.9951C35.561 17.9935 34.6183 18.2837 33.8216 18.8277C33.0249 19.3716 32.4114 20.1439 32.0617 21.0429C31.712 21.942 31.6424 22.9258 31.8622 23.8652C32.0819 24.8045 32.5807 25.6554 33.2929 26.306C33.1596 26.3567 33.0296 26.41 32.9029 26.466C32.3203 26.7221 31.7668 27.0399 31.2519 27.414C30.9849 26.7478 30.5713 26.1503 30.0417 25.6658C29.5122 25.1813 28.8803 24.8223 28.193 24.6154C27.5058 24.4085 26.7807 24.359 26.0717 24.4706C25.3627 24.5822 24.6879 24.8521 24.0975 25.2601C23.507 25.6682 23.016 26.204 22.661 26.8277C22.3059 27.4515 22.0959 28.1472 22.0464 28.8633C21.997 29.5793 22.1095 30.2973 22.3755 30.9639C22.6414 31.6305 23.0542 32.2287 23.5829 32.714C22.3123 33.1805 21.1631 33.9272 20.2205 34.8985C19.2779 35.8699 18.5661 37.041 18.1379 38.325C18.0023 38.7469 17.9683 39.1948 18.0385 39.6323C18.1088 40.0698 18.2815 40.4845 18.5424 40.8426C18.8034 41.2007 19.1452 41.4921 19.5401 41.6931C19.935 41.894 20.3718 41.9989 20.8149 41.999H28.9699C29.2186 41.999 29.457 41.9003 29.6328 41.7244C29.8087 41.5486 29.9074 41.3102 29.9074 41.0615C29.9074 40.8129 29.8087 40.5744 29.6328 40.3986C29.457 40.2228 29.2186 40.124 28.9699 40.124H20.8149C20.6672 40.124 20.5215 40.0891 20.3898 40.0221C20.258 39.9551 20.144 39.858 20.057 39.7386C19.9699 39.6192 19.9123 39.4809 19.8889 39.335C19.8654 39.1891 19.8767 39.0397 19.9219 38.899C20.4116 37.4674 21.338 36.2254 22.5706 35.3478C23.8031 34.4703 25.2799 34.0013 26.7929 34.007C28.2346 34.004 29.6422 34.4453 30.8239 35.271C30.9249 35.3417 31.0388 35.3918 31.1592 35.4184C31.2795 35.445 31.4039 35.4477 31.5253 35.4262C31.6466 35.4048 31.7626 35.3596 31.8665 35.2934C31.9704 35.2271 32.0603 35.141 32.1309 35.04C32.2016 34.939 32.2517 34.8251 32.2783 34.7048C32.3049 34.5845 32.3076 34.4601 32.2861 34.3387C32.2647 34.2173 32.2195 34.1014 32.1533 33.9975C32.087 33.8935 32.0009 33.8037 31.8999 33.733V33.733ZM36.5159 19.878C37.0909 19.878 37.653 20.0486 38.131 20.3682C38.6091 20.6878 38.9815 21.142 39.2013 21.6733C39.4211 22.2047 39.4783 22.7893 39.3657 23.3532C39.253 23.917 38.9757 24.4348 38.5687 24.841C38.1616 25.2472 37.6433 25.5235 37.0792 25.6349C36.5151 25.7464 35.9306 25.688 35.3997 25.4671C34.8688 25.2462 34.4154 24.8728 34.0968 24.3941C33.7782 23.9155 33.6087 23.353 33.6099 22.778C33.6123 22.0086 33.9194 21.2714 34.4641 20.7279C35.0087 20.1844 35.7465 19.8788 36.5159 19.878V19.878ZM26.8159 26.293C27.3907 26.293 27.9525 26.4635 28.4304 26.7828C28.9083 27.1021 29.2808 27.556 29.5007 28.087C29.7207 28.618 29.7782 29.2023 29.6661 29.766C29.554 30.3297 29.2772 30.8475 28.8708 31.2539C28.4644 31.6603 27.9466 31.9371 27.3829 32.0492C26.8192 32.1613 26.2349 32.1038 25.7039 31.8838C25.1729 31.6639 24.719 31.2914 24.3997 30.8135C24.0804 30.3356 23.9099 29.7738 23.9099 29.199C23.9102 28.4286 24.2161 27.6897 24.7605 27.1445C25.305 26.5993 26.0435 26.2924 26.8139 26.291L26.8159 26.293ZM41.9999 37.546C41.9999 37.6692 41.9757 37.7911 41.9285 37.9048C41.8814 38.0186 41.8123 38.1219 41.7251 38.2089C41.638 38.296 41.5346 38.365 41.4208 38.412C41.307 38.459 41.1851 38.4832 41.0619 38.483H38.4849V41.061C38.4849 41.3097 38.3862 41.5481 38.2104 41.7239C38.0345 41.8998 37.7961 41.9985 37.5474 41.9985C37.2988 41.9985 37.0603 41.8998 36.8845 41.7239C36.7087 41.5481 36.6099 41.3097 36.6099 41.061V38.483H34.0319C33.7833 38.483 33.5448 38.3843 33.369 38.2084C33.1932 38.0326 33.0944 37.7942 33.0944 37.5455C33.0944 37.2969 33.1932 37.0584 33.369 36.8826C33.5448 36.7068 33.7833 36.608 34.0319 36.608H36.6099V34.031C36.6099 33.7824 36.7087 33.5439 36.8845 33.3681C37.0603 33.1923 37.2988 33.0935 37.5474 33.0935C37.7961 33.0935 38.0345 33.1923 38.2104 33.3681C38.3862 33.5439 38.4849 33.7824 38.4849 34.031V36.609H41.0629C41.1862 36.6089 41.3082 36.6331 41.4221 36.6802C41.5359 36.7273 41.6394 36.7963 41.7265 36.8835C41.8136 36.9706 41.8827 37.0741 41.9298 37.1879C41.9769 37.3018 42.0011 37.4238 42.0009 37.547L41.9999 37.546Z" fill="#673DE6"/>
</g>
<defs>
<clipPath id="clip0_167_750">
<rect width="60" height="60" fill="white"/>
</clipPath>
</defs>
</svg>
