<svg xmlns="http://www.w3.org/2000/svg" xmlns:xlink="http://www.w3.org/1999/xlink" width="24" height="24" viewBox="0 0 24 24">
  <defs>
    <clipPath id="clip-path">
      <rect id="Rectangle_636" data-name="Rectangle 636" width="24" height="24" transform="translate(275 48.488)" fill="#07ca8d"/>
    </clipPath>
  </defs>
  <g id="Mask_Group_122" data-name="Mask Group 122" transform="translate(-275 -48.488)" clip-path="url(#clip-path)">
    <g id="free" transform="translate(275 48.488)">
      <g id="Group_5061" data-name="Group 5061">
        <g id="Group_5060" data-name="Group 5060">
          <path id="Path_3240" data-name="Path 3240" d="M23.965,9.265,22.822,2.94A2.2,2.2,0,0,0,21.06,1.178L14.735.035A2.187,2.187,0,0,0,12.8.64L.639,12.8a2.188,2.188,0,0,0,0,3.091l7.468,7.468a2.188,2.188,0,0,0,3.091,0L23.36,11.2A2.186,2.186,0,0,0,23.965,9.265Zm-1.6.939L10.2,22.366a.779.779,0,0,1-1.1,0L1.634,14.9a.779.779,0,0,1,0-1.1L13.8,1.635a.778.778,0,0,1,.688-.215L20.81,2.563a.781.781,0,0,1,.627.627L22.58,9.515A.778.778,0,0,1,22.365,10.2Z" fill="#07ca8d"/>
        </g>
      </g>
      <g id="Group_5063" data-name="Group 5063">
        <g id="Group_5062" data-name="Group 5062">
          <path id="Path_3241" data-name="Path 3241" d="M19.592,4.388a1.927,1.927,0,1,0,.564,1.362A1.929,1.929,0,0,0,19.592,4.388Zm-1,1.729h0a.519.519,0,1,1,.152-.367A.52.52,0,0,1,18.6,6.118Z" fill="#07ca8d"/>
        </g>
      </g>
      <g id="Group_5065" data-name="Group 5065">
        <g id="Group_5064" data-name="Group 5064">
          <path id="Path_3242" data-name="Path 3242" d="M8.951,17.885,7.863,16.8l.636-.636a.235.235,0,0,0,.072-.223.43.43,0,0,0-.122-.223.439.439,0,0,0-.234-.129.237.237,0,0,0-.221.069l-.636.636-.712-.712,1.092-1.092a.231.231,0,0,0,.061-.23A.541.541,0,0,0,7.644,14a.534.534,0,0,0-.249-.148.229.229,0,0,0-.232.063L5.7,15.377a.529.529,0,0,0-.15.255.236.236,0,0,0,.065.234l2.676,2.676a.232.232,0,0,0,.247.053A.759.759,0,0,0,9,18.132.231.231,0,0,0,8.951,17.885Z" fill="#07ca8d"/>
        </g>
      </g>
      <g id="Group_5067" data-name="Group 5067">
        <g id="Group_5066" data-name="Group 5066">
          <path id="Path_3243" data-name="Path 3243" d="M12.487,14.121a.18.18,0,0,0-.1-.055l-1.446-.417a1.157,1.157,0,0,0-.346-1.366q-.9-.9-1.939.135l-.873.873a.28.28,0,0,0,0,.4l2.681,2.681a.231.231,0,0,0,.247.053.759.759,0,0,0,.464-.464.231.231,0,0,0-.053-.247L10.106,14.7l.278-.278,1.7.544a.309.309,0,0,0,.333-.089.614.614,0,0,0,.171-.39A.432.432,0,0,0,12.487,14.121Zm-2.47-.346-.417.417-.784-.784.417-.417a.556.556,0,1,1,.784.784Z" fill="#07ca8d"/>
        </g>
      </g>
      <g id="Group_5069" data-name="Group 5069">
        <g id="Group_5068" data-name="Group 5068">
          <path id="Path_3244" data-name="Path 3244" d="M14.978,12.094a.534.534,0,0,0-.148-.249.541.541,0,0,0-.259-.154.231.231,0,0,0-.23.061l-1.13,1.13-.716-.716.632-.632a.235.235,0,0,0,.072-.223.43.43,0,0,0-.122-.223.439.439,0,0,0-.234-.129.237.237,0,0,0-.221.07l-.632.632-.712-.712,1.13-1.13a.231.231,0,0,0,.061-.23.541.541,0,0,0-.154-.259.534.534,0,0,0-.249-.148.229.229,0,0,0-.232.063l-1.5,1.5a.529.529,0,0,0-.15.255.236.236,0,0,0,.065.234l2.676,2.676a.235.235,0,0,0,.234.065.528.528,0,0,0,.255-.15l1.5-1.5A.229.229,0,0,0,14.978,12.094Z" fill="#07ca8d"/>
        </g>
      </g>
      <g id="Group_5071" data-name="Group 5071">
        <g id="Group_5070" data-name="Group 5070">
          <path id="Path_3245" data-name="Path 3245" d="M17.25,9.822a.534.534,0,0,0-.148-.249.541.541,0,0,0-.259-.154.231.231,0,0,0-.23.061l-1.13,1.13-.716-.716.632-.632a.235.235,0,0,0,.072-.223.43.43,0,0,0-.122-.223.438.438,0,0,0-.234-.128.237.237,0,0,0-.221.07l-.632.632-.712-.712,1.13-1.13a.231.231,0,0,0,.061-.23.541.541,0,0,0-.154-.259.534.534,0,0,0-.249-.148.229.229,0,0,0-.232.063l-1.5,1.5a.529.529,0,0,0-.15.255.236.236,0,0,0,.065.234L15.2,11.639a.235.235,0,0,0,.234.065.528.528,0,0,0,.255-.15l1.5-1.5A.229.229,0,0,0,17.25,9.822Z" fill="#07ca8d"/>
        </g>
      </g>
    </g>
  </g>
</svg>
