<svg xmlns="http://www.w3.org/2000/svg" xmlns:xlink="http://www.w3.org/1999/xlink" width="24" height="24" viewBox="0 0 24 24">
  <defs>
    <clipPath id="clip-path">
      <rect id="Rectangle_636" data-name="Rectangle 636" width="24" height="24" transform="translate(275 48.488)" fill="#07ca8d"/>
    </clipPath>
  </defs>
  <g id="Mask_Group_117" data-name="Mask Group 117" transform="translate(-275 -48.488)" clip-path="url(#clip-path)">
    <g id="surface1" transform="translate(275 48.488)">
      <path id="Path_3229" data-name="Path 3229" d="M23.3,1.732h-3.08q.017-.512.017-1.029a.7.7,0,0,0-.7-.7H4.469a.7.7,0,0,0-.7.7q0,.517.017,1.029H.7a.7.7,0,0,0-.7.7,15.24,15.24,0,0,0,2.318,8.37,7.336,7.336,0,0,0,5.573,3.619A7.22,7.22,0,0,0,9.414,15.7v3.125H8.234a2.589,2.589,0,0,0-2.586,2.586v1.18H5.6A.7.7,0,0,0,5.6,24H18.4a.7.7,0,0,0,0-1.406h-.05v-1.18a2.589,2.589,0,0,0-2.586-2.586h-1.18V15.7a7.215,7.215,0,0,0,1.523-1.279,7.337,7.337,0,0,0,5.573-3.619A15.239,15.239,0,0,0,24,2.435.7.7,0,0,0,23.3,1.732ZM3.489,10.026A13.551,13.551,0,0,1,1.421,3.138h2.44a23.5,23.5,0,0,0,2.184,8.53q.281.563.587,1.063A6.781,6.781,0,0,1,3.489,10.026ZM16.945,21.414v1.18H7.055v-1.18a1.181,1.181,0,0,1,1.18-1.18h7.531A1.181,1.181,0,0,1,16.945,21.414ZM13.18,18.828H10.82V16.314a4.575,4.575,0,0,0,2.36,0Zm.435-4.187a.684.684,0,0,0-.091.046,3.283,3.283,0,0,1-3.047,0,.7.7,0,0,0-.092-.047A5.66,5.66,0,0,1,8.8,13.331a.712.712,0,0,0-.09-.1,11.084,11.084,0,0,1-1.4-2.186A23.211,23.211,0,0,1,5.18,1.406H18.82A23.216,23.216,0,0,1,16.7,11.039a11.092,11.092,0,0,1-1.4,2.186.693.693,0,0,0-.09.1A5.662,5.662,0,0,1,13.615,14.641Zm6.9-4.615a6.781,6.781,0,0,1-3.144,2.705q.305-.5.587-1.063a23.5,23.5,0,0,0,2.184-8.53h2.44A13.551,13.551,0,0,1,20.511,10.026Zm0,0" fill="#07ca8d"/>
    </g>
  </g>
</svg>
