<svg xmlns="http://www.w3.org/2000/svg" xmlns:xlink="http://www.w3.org/1999/xlink" width="24" height="24" viewBox="0 0 24 24">
  <defs>
    <clipPath id="clip-path">
      <rect id="Rectangle_636" data-name="Rectangle 636" width="24" height="24" transform="translate(275 48.488)" fill="#07ca8d"/>
    </clipPath>
  </defs>
  <g id="Mask_Group_116" data-name="Mask Group 116" transform="translate(-275 -48.488)" clip-path="url(#clip-path)">
    <g id="transaction" transform="translate(275 48.488)">
      <g id="Group_5058" data-name="Group 5058">
        <g id="Group_5057" data-name="Group 5057">
          <path id="Path_3226" data-name="Path 3226" d="M8.234,13.824v.936a3.845,3.845,0,0,0,2.807,3.665v2h1.871V18.428a3.815,3.815,0,0,0,2.807-3.652,3.2,3.2,0,0,0-1.178-2.463,10.538,10.538,0,0,0-2.114-1.32l-.018-.009c-1.3-.679-1.883-1.155-1.883-2.181a1.451,1.451,0,0,1,2.9.017v.936H15.3V8.819a3.287,3.287,0,0,0-2.386-3.142v-2.1H11.041v2.1A3.272,3.272,0,0,0,8.655,8.8c0,2.334,1.809,3.277,2.889,3.84l.018.009c1.417.739,2.286,1.237,2.286,2.124a1.913,1.913,0,0,1-1.871,1.9,1.945,1.945,0,0,1-1.871-1.919v-.936H8.234Z" fill="#07ca8d"/>
          <path id="Path_3227" data-name="Path 3227" d="M12.023,22.105a10.037,10.037,0,0,1-8.7-4.959H6.55V15.275H0v6.55H1.871V18.36a11.984,11.984,0,0,0,10.152,5.617A11.937,11.937,0,0,0,23.953,12H22.082A10.093,10.093,0,0,1,12.023,22.105Z" fill="#07ca8d"/>
          <path id="Path_3228" data-name="Path 3228" d="M22.129,2.175V5.64A11.978,11.978,0,0,0,0,12H1.871A10.109,10.109,0,0,1,20.679,6.854H17.45V8.725H24V2.175Z" fill="#07ca8d"/>
        </g>
      </g>
    </g>
  </g>
</svg>
