<svg xmlns="http://www.w3.org/2000/svg" xmlns:xlink="http://www.w3.org/1999/xlink" width="24" height="24" viewBox="0 0 24 24">
  <defs>
    <clipPath id="clip-path">
      <rect id="Rectangle_69" data-name="Rectangle 69" width="24" height="24" transform="translate(14.028 14.028)" fill="#07ca8d"/>
    </clipPath>
  </defs>
  <g id="Mask_Group_13" data-name="Mask Group 13" transform="translate(-14.028 -14.028)" clip-path="url(#clip-path)">
    <g id="shield" transform="translate(15.648 14.004)">
      <g id="Group_4541" data-name="Group 4541" transform="translate(0)">
        <g id="Group_4540" data-name="Group 4540">
          <path id="Path_1867" data-name="Path 1867" d="M1.786,4.743A.821.821,0,0,1,2.294,4L11.843.062a.823.823,0,0,1,.627,0L22.025,4a.822.822,0,0,1,.508.745c.122,7.215-2.635,14.685-8.837,18.792a2.877,2.877,0,0,1-3.119.1c-2.729-1.559-9.062-6.5-8.791-18.893Zm1.636.571c-.065,11.116,5.529,15.51,7.967,16.894a1.348,1.348,0,0,0,1.4-.038c5.567-3.687,8.1-10.38,8.1-16.858l-8.735-3.6Z" transform="translate(-1.778 0)" fill="#07ca8d"/>
        </g>
        <path id="Path_1868" data-name="Path 1868" d="M16.459,9.37V8.292a4.032,4.032,0,0,0-8.062,0V9.37a1.849,1.849,0,0,0-.953,1.616v4.929a1.851,1.851,0,0,0,1.85,1.848h6.269a1.851,1.851,0,0,0,1.85-1.848V10.986A1.849,1.849,0,0,0,16.459,9.37Zm-4.031-3.38a2.348,2.348,0,0,1,2.387,2.3v.846H10.041V8.292a2.348,2.348,0,0,1,2.387-2.3Zm3.34,9.924a.206.206,0,0,1-.206.205H9.294a.206.206,0,0,1-.206-.205V10.986a.206.206,0,0,1,.206-.205h6.269a.206.206,0,0,1,.206.205v4.929Z" transform="translate(-2.203 -0.326)" fill="#07ca8d"/>
        <path id="Path_1869" data-name="Path 1869" d="M13.777,13.352a1.028,1.028,0,1,0-1.644.82v1.534h1.233V14.172A1.024,1.024,0,0,0,13.777,13.352Z" transform="translate(-2.524 -0.925)" fill="#07ca8d"/>
      </g>
    </g>
  </g>
</svg>
