<svg xmlns="http://www.w3.org/2000/svg" xmlns:xlink="http://www.w3.org/1999/xlink" width="28" height="28" viewBox="0 0 28 28">
  <defs>
    <clipPath id="clip-path">
      <rect id="Rectangle_636" data-name="Rectangle 636" width="28" height="28" transform="translate(275 48.488)" fill="#07ca8d"/>
    </clipPath>
  </defs>
  <g id="Mask_Group_121" data-name="Mask Group 121" transform="translate(-275 -48.488)" clip-path="url(#clip-path)">
    <g id="clock_3_" data-name="clock (3)" transform="translate(275 51.792)">
      <path id="Path_3234" data-name="Path 3234" d="M19.65,6.379a2.437,2.437,0,1,0-4.365,0,8.936,8.936,0,1,0,4.365,0Zm-3-1.082a.812.812,0,1,1,.812.812A.813.813,0,0,1,16.655,5.3ZM18.28,22.311v-.767a.812.812,0,0,0-1.625,0v.767A7.325,7.325,0,0,1,10.2,15.857h.767a.812.812,0,1,0,0-1.625H10.2a7.325,7.325,0,0,1,6.453-6.453v.767a.812.812,0,0,0,1.625,0V7.779a7.325,7.325,0,0,1,6.453,6.453h-.767a.812.812,0,1,0,0,1.625h.767A7.325,7.325,0,0,1,18.28,22.311Z" transform="translate(1.325 -2.859)" fill="#07ca8d"/>
      <path id="Path_3235" data-name="Path 3235" d="M6.764,5.672H5.031a.812.812,0,1,0,0,1.625H6.764a.812.812,0,0,0,0-1.625Z" transform="translate(0.655 -2.422)" fill="#07ca8d"/>
      <path id="Path_3236" data-name="Path 3236" d="M6.983,9.891H3.625a.812.812,0,1,0,0,1.625H6.983a.812.812,0,0,0,0-1.625Z" transform="translate(0.437 -1.767)" fill="#07ca8d"/>
      <path id="Path_3237" data-name="Path 3237" d="M7.2,14.109H2.219a.812.812,0,1,0,0,1.625H7.2a.812.812,0,0,0,0-1.625Z" transform="translate(0.218 -1.112)" fill="#07ca8d"/>
      <path id="Path_3238" data-name="Path 3238" d="M7.42,18.328H.812a.812.812,0,1,0,0,1.625H7.42a.812.812,0,0,0,0-1.625Z" transform="translate(0 -0.456)" fill="#07ca8d"/>
      <path id="Path_3239" data-name="Path 3239" d="M19.624,13.14H17.187V10.7a.812.812,0,1,0-1.625,0v3.249a.812.812,0,0,0,.812.812h3.249a.812.812,0,1,0,0-1.625Z" transform="translate(2.418 -1.767)" fill="#07ca8d"/>
    </g>
  </g>
</svg>
