<svg xmlns="http://www.w3.org/2000/svg" xmlns:xlink="http://www.w3.org/1999/xlink" width="24" height="24" viewBox="0 0 24 24">
  <defs>
    <clipPath id="clip-path">
      <rect id="Rectangle_636" data-name="Rectangle 636" width="24" height="24" transform="translate(275 48.488)" fill="#07ca8d"/>
    </clipPath>
  </defs>
  <g id="Mask_Group_119" data-name="Mask Group 119" transform="translate(-275 -48.488)" clip-path="url(#clip-path)">
    <path id="browser_1_" data-name="browser (1)" d="M12.012.012h-.023A11.988,11.988,0,0,0,0,12v.023A11.965,11.965,0,0,0,11.965,23.988a.974.974,0,0,0,.983-.9.937.937,0,0,0-.936-.971c-.865-.059-1.844-2.538-2.182-4.26a10.187,10.187,0,0,1,2.182-.235.937.937,0,1,0-.023-1.873,12.077,12.077,0,0,0-2.482.261,29.4,29.4,0,0,1-.244-3.071h13.8A.94.94,0,0,0,24,12h0A11.988,11.988,0,0,0,12.012.012Zm-7.7,5.44a11.923,11.923,0,0,0,3.383,2,31.031,31.031,0,0,0-.3,3.61H1.94A10.072,10.072,0,0,1,4.308,5.452ZM1.94,12.937H7.388a31.031,31.031,0,0,0,.3,3.61,11.92,11.92,0,0,0-3.383,2A10.072,10.072,0,0,1,1.94,12.937Zm3.717,6.928a10.06,10.06,0,0,1,2.383-1.437,14.37,14.37,0,0,0,1.128,3.281,10.1,10.1,0,0,1-3.511-1.844ZM8.508,3.888c-.175.524-.332,1.088-.468,1.685A10.062,10.062,0,0,1,5.657,4.136,10.1,10.1,0,0,1,9.168,2.292,11.335,11.335,0,0,0,8.508,3.888Zm1.776.595c.725-2.1,1.4-2.606,1.784-2.6.859.075,1.834,2.536,2.171,4.251a10.266,10.266,0,0,1-4.408.01,16.334,16.334,0,0,1,.454-1.663ZM9.262,11.063a29.4,29.4,0,0,1,.244-3.071,12.172,12.172,0,0,0,5.057-.009,29.385,29.385,0,0,1,.245,3.081H9.262Zm6.3-7.175a11.376,11.376,0,0,0-.652-1.58,10.1,10.1,0,0,1,3.456,1.828,10.057,10.057,0,0,1-2.34,1.419C15.891,4.964,15.736,4.406,15.563,3.888Zm1.119,7.175a31,31,0,0,0-.305-3.626,11.915,11.915,0,0,0,3.339-1.985,10.073,10.073,0,0,1,2.368,5.612Zm3.677,7.96,1.684-1.7a.937.937,0,0,0-.515-1.583l-5.62-.917A.937.937,0,0,0,14.835,15.9l.963,5.62a.937.937,0,0,0,1.589.5l1.654-1.671,3.36,3.36a.937.937,0,0,0,1.325-1.325Zm-3.022.39L16.9,16.882l2.531.413Z" transform="translate(275 48.488)" fill="#07ca8d"/>
  </g>
</svg>
