<svg xmlns="http://www.w3.org/2000/svg" xmlns:xlink="http://www.w3.org/1999/xlink" width="24" height="24" viewBox="0 0 24 24">
  <defs>
    <clipPath id="clip-path">
      <rect id="Rectangle_636" data-name="Rectangle 636" width="24" height="24" transform="translate(275 48.488)" fill="#07ca8d"/>
    </clipPath>
  </defs>
  <g id="Mask_Group_120" data-name="Mask Group 120" transform="translate(-275 -48.488)" clip-path="url(#clip-path)">
    <g id="podium" transform="translate(275 48.488)">
      <path id="Path_3232" data-name="Path 3232" d="M21.9,22.594V14.341H15.768V10.182H8.232v2.561H2.1v9.851H0V24H24V22.594Zm-13.664,0H3.51V14.149H8.232Zm6.129,0H9.639V11.588h4.723Zm6.129,0H15.768V15.747h4.723Z" fill="#07ca8d"/>
      <path id="Path_3233" data-name="Path 3233" d="M9.234,8.514,12,7.617l2.766.9V5.606l1.708-2.354-2.766-.9L12,0,10.289,2.352l-2.766.9L9.232,5.606Zm1.925-4.966L12,2.391l.842,1.157,1.361.443-.841,1.158V6.58L12,6.138l-1.361.442V5.149L9.8,3.991Z" fill="#07ca8d"/>
    </g>
  </g>
</svg>
