<svg xmlns="http://www.w3.org/2000/svg" xmlns:xlink="http://www.w3.org/1999/xlink" width="60" height="60" viewBox="0 0 60 60">
  <defs>
    <clipPath id="clip-path">
      <rect id="Rectangle_69" data-name="Rectangle 69" width="26" height="26" transform="translate(15 15)" fill="#07ca8d"/>
    </clipPath>
  </defs>
  <g id="Group_4477" data-name="Group 4477" transform="translate(3 3)">
    <rect id="Rectangle_27" data-name="Rectangle 27" width="60" height="60" rx="30" transform="translate(-3 -3)" fill="#f5f5f5"/>
    <g id="Mask_Group_11" data-name="Mask Group 11" transform="translate(-1 -1)" clip-path="url(#clip-path)">
      <path id="globalization" d="M22.192,3.808A13,13,0,0,0,3.808,22.192,13,13,0,0,0,22.192,3.808ZM13.762,8.393a23.712,23.712,0,0,0,4.031-.459,21.7,21.7,0,0,1,.553,4.3H13.762Zm0-1.524V1.652a5.667,5.667,0,0,1,2.884,3.035,13.652,13.652,0,0,1,.731,1.779A22.266,22.266,0,0,1,13.762,6.869ZM12.238,1.652V6.869a22.266,22.266,0,0,1-3.614-.4,13.66,13.66,0,0,1,.731-1.779A5.667,5.667,0,0,1,12.238,1.652Zm0,6.742v3.845H7.655a21.7,21.7,0,0,1,.553-4.3A23.712,23.712,0,0,0,12.238,8.393ZM6.131,12.238H1.549a11.368,11.368,0,0,1,2.1-5.893A15.331,15.331,0,0,0,6.729,7.573,23.262,23.262,0,0,0,6.131,12.238Zm0,1.523a23.266,23.266,0,0,0,.6,4.665,15.331,15.331,0,0,0-3.081,1.228,11.368,11.368,0,0,1-2.1-5.893Zm1.524,0h4.583v3.845a23.712,23.712,0,0,0-4.031.459A21.7,21.7,0,0,1,7.655,13.762Zm4.583,5.369v5.217a5.667,5.667,0,0,1-2.884-3.035,13.66,13.66,0,0,1-.731-1.779A22.267,22.267,0,0,1,12.238,19.131Zm1.523,5.217V19.131a22.266,22.266,0,0,1,3.614.4,13.659,13.659,0,0,1-.731,1.779A5.667,5.667,0,0,1,13.762,24.348Zm0-6.742V13.762h4.583a21.7,21.7,0,0,1-.553,4.3A23.712,23.712,0,0,0,13.762,17.607Zm6.107-3.845h4.582a11.368,11.368,0,0,1-2.1,5.893,15.331,15.331,0,0,0-3.081-1.228A23.262,23.262,0,0,0,19.869,13.762Zm0-1.523a23.266,23.266,0,0,0-.6-4.665,15.331,15.331,0,0,0,3.081-1.228,11.368,11.368,0,0,1,2.1,5.893Zm1.5-7.095a14.087,14.087,0,0,1-2.5.966,15.259,15.259,0,0,0-.853-2.1,10.614,10.614,0,0,0-1.132-1.814,11.436,11.436,0,0,1,4.239,2.693C21.2,4.97,21.283,5.056,21.365,5.144ZM9.124,2.191A10.616,10.616,0,0,0,7.992,4.006a15.259,15.259,0,0,0-.853,2.1,14.089,14.089,0,0,1-2.5-.966c.082-.087.165-.174.25-.259A11.437,11.437,0,0,1,9.124,2.191ZM4.635,20.856a14.088,14.088,0,0,1,2.5-.966,15.259,15.259,0,0,0,.853,2.1,10.614,10.614,0,0,0,1.132,1.814,11.436,11.436,0,0,1-4.239-2.693C4.8,21.03,4.717,20.944,4.635,20.856Zm12.241,2.952a10.616,10.616,0,0,0,1.132-1.814,15.259,15.259,0,0,0,.853-2.1,14.089,14.089,0,0,1,2.5.966c-.082.087-.165.174-.25.259A11.437,11.437,0,0,1,16.876,23.809Z" transform="translate(15 15)" fill="#07ca8d"/>
    </g>
  </g>
</svg>
