<svg xmlns="http://www.w3.org/2000/svg" xmlns:xlink="http://www.w3.org/1999/xlink" width="60" height="60" viewBox="0 0 60 60">
  <defs>
    <clipPath id="clip-path">
      <rect id="Rectangle_69" data-name="Rectangle 69" width="26" height="26" transform="translate(14 14)" fill="#07ca8d"/>
    </clipPath>
  </defs>
  <g id="Group_4477" data-name="Group 4477" transform="translate(3 3)">
    <rect id="Rectangle_27" data-name="Rectangle 27" width="60" height="60" rx="30" transform="translate(-3 -3)" fill="#f5f5f5"/>
    <g id="Mask_Group_69" data-name="Mask Group 69" clip-path="url(#clip-path)">
      <g id="hierarchical-structure" transform="translate(14 14)">
        <path id="Path_2714" data-name="Path 2714" d="M25.238,18.383H22.953V14.016a.762.762,0,0,0-.762-.762h-8.43V9.648h3.3a.762.762,0,0,0,.762-.762V.762A.762.762,0,0,0,17.063,0H8.938a.762.762,0,0,0-.762.762V8.887a.762.762,0,0,0,.762.762h3.3v3.605H3.809a.762.762,0,0,0-.762.762v4.367H.762A.762.762,0,0,0,0,19.145v6.094A.762.762,0,0,0,.762,26H6.855a.762.762,0,0,0,.762-.762V19.145a.762.762,0,0,0-.762-.762H4.57V14.777h7.668v3.605H9.953a.762.762,0,0,0-.762.762v6.094A.762.762,0,0,0,9.953,26h6.094a.762.762,0,0,0,.762-.762V19.145a.762.762,0,0,0-.762-.762H13.762V14.777H21.43v3.605H19.145a.762.762,0,0,0-.762.762v6.094a.762.762,0,0,0,.762.762h6.094A.762.762,0,0,0,26,25.238V19.145A.762.762,0,0,0,25.238,18.383ZM9.7,1.523h6.6v6.6H9.7ZM6.094,24.477H1.523v-4.57h4.57Zm9.191,0h-4.57v-4.57h4.57Zm9.191,0h-4.57v-4.57h4.57Z" fill="#07ca8d"/>
      </g>
    </g>
  </g>
</svg>
