<?xml version="1.0" encoding="UTF-8"?><svg id="Layer_2" xmlns="http://www.w3.org/2000/svg" viewBox="0 0 256.77 96.7"><defs><style>.cls-1{fill:#0069ff;}.cls-2{fill:#081b4b;}</style></defs><g id="Layer_1-2"><g><path class="cls-2" d="M21.12,58.68c3.7,0,6.16,1.67,7.57,4.84h12.76c-2.02-10.12-8.71-15.14-19.98-15.14C7.13,48.65,0,56.66,0,72.58c.35,16.02,7.57,24.11,21.65,24.11,10.82,.26,17.69-5.81,19.8-15.31h-8.8c-1.5,0-2.82,.53-3.96,1.67-1.94,2.2-4.31,3.34-7.04,3.34-6.51,.09-9.77-4.58-9.77-13.82s3.08-13.9,9.24-13.9Z"/><path class="cls-2" d="M53.68,35.8h-6.07v59.84h11.7V41.52c0-3.08-2.55-5.72-5.63-5.72Z"/><path class="cls-2" d="M86.68,48.39c-14.08,0-21.12,8.01-21.12,24.2s7.04,24.11,21.12,24.11,21.21-8.1,21.21-24.11-7.13-24.2-21.21-24.2Zm-.09,37.84c-5.98,0-9.06-4.58-9.15-13.64,0-9.24,3.08-13.9,9.24-13.9s8.98,4.49,8.98,13.55c-.09,9.24-3.08,13.99-9.06,13.99Z"/><path class="cls-2" d="M141.06,54.9v24.55c0,5.19-2.64,7.74-7.92,7.74s-7.92-2.55-7.92-7.74v-30.36h-11.7v27.98c0,7.83,2.02,12.94,6.07,15.49,4.05,2.64,8.36,3.96,13.2,3.96s9.59-1.23,13.73-3.61c4.14-2.55,6.16-7.83,6.16-15.84v-27.98h-5.98c-3.87,0-5.72,1.94-5.63,5.81Z"/><path class="cls-2" d="M145.92,.67c-12.22,2.06-23.21,6.76-29.47,18.69-2.18,4.15-4.52,3.17-7.79,2.72-14.99-2.06-27.99,4.88-32.33,17.24-.71,2.09-2.09,2.28,2.65,4.24,3.9,1.61,3.45,1.26,6.82-4.19,5.64-9.14,16.86-10.71,26.5-4.82,7.15,4.37,10.03,2.51,11.16-5.29,.69-4.77,3.43-8.28,6.96-11.16,16.7-13.64,53.2-10.82,58.69,21.41v16.07c-2.99-4.84-7.48-7.22-13.29-7.22-12.41,.44-18.57,8.54-18.57,24.38s7.22,23.32,21.65,23.58c14.52,.09,21.82-6.86,21.82-20.86v-29.7c.03-.34,.03-.72,0-1.13v-2.97c0-.48-.07-.94-.18-1.39-1.98-25.01-27.71-44.18-54.62-39.63Zm33.16,85.73c-6.69,0-9.86-4.75-9.77-14.17,.35-8.98,3.61-13.38,9.94-13.38s9.59,4.4,9.86,13.38c0,9.42-3.34,14.17-10.03,14.17Z"/><path class="cls-2" d="M230.41,85.73c-.97-1.3-1.84-2.67-2.6-4.1-1.27-2.38-2.26-4.93-2.92-7.61,0,0,0,0,0,.01,0-.02,0-.03-.01-.05-2.99,6.66-9.68,11.29-17.45,11.29v11.08s.01,0,.02,0v.04c9.21,0,17.45-4.12,22.99-10.62,0-.01-.02-.02-.02-.03,0,0,0,0,0,0Z"/><path class="cls-1" d="M237.63,66.15c0-16.68-13.52-30.2-30.2-30.2v11.08c10.56,0,19.12,8.56,19.12,19.12,0,16.68,13.52,30.2,30.2,30.2v-11.08c-10.56,0-19.12-8.56-19.12-19.12Z"/><path class="cls-2" d="M256.75,35.95h0c-9.21,0-17.45,4.12-22.99,10.61,2.57,3.46,4.48,7.44,5.54,11.75,0-.01,.01-.02,.01-.03,0,.01,0,.02,0,.04,2.99-6.66,9.68-11.29,17.45-11.29v-11.08s-.02,0-.02,0Z"/></g></g></svg>