<svg width="54" height="54" viewBox="0 0 54 54" fill="none" xmlns="http://www.w3.org/2000/svg">
<g clip-path="url(#clip0_150_754)">
<path d="M27.0001 53.9001C41.8566 53.9001 53.9001 41.8566 53.9001 27.0001C53.9001 12.1436 41.8566 0.100098 27.0001 0.100098C12.1436 0.100098 0.100098 12.1436 0.100098 27.0001C0.100098 41.8566 12.1436 53.9001 27.0001 53.9001Z" stroke="#D8DBF3"/>
<path d="M19.5989 19.667H34.2649C34.7507 19.6683 35.2163 19.8618 35.5599 20.2053C35.9035 20.5487 36.0973 21.0142 36.0989 21.5V32.5C36.0973 32.9856 35.9037 33.451 35.5603 33.7944C35.2169 34.1378 34.7515 34.3314 34.2659 34.333H19.5989C19.1131 34.3317 18.6475 34.1382 18.3039 33.7947C17.9602 33.4513 17.7665 32.9858 17.7649 32.5V21.5C17.7665 21.0142 17.9602 20.5487 18.3039 20.2053C18.6475 19.8618 19.1131 19.6683 19.5989 19.667V19.667Z" stroke="#673DE6" stroke-width="1.833" stroke-linecap="round" stroke-linejoin="round"/>
<path d="M36.0989 21.5L26.9319 27.917L17.7649 21.5" stroke="#673DE6" stroke-width="1.833" stroke-linecap="round" stroke-linejoin="round"/>
</g>
<defs>
<clipPath id="clip0_150_754">
<rect width="54" height="54" fill="white"/>
</clipPath>
</defs>
</svg>
