<svg width="54" height="54" viewBox="0 0 54 54" fill="none" xmlns="http://www.w3.org/2000/svg">
<g clip-path="url(#clip0_144_746)">
<path d="M27.0001 53.9001C41.8566 53.9001 53.9001 41.8566 53.9001 27.0001C53.9001 12.1436 41.8566 0.100098 27.0001 0.100098C12.1436 0.100098 0.100098 12.1436 0.100098 27.0001C0.100098 41.8566 12.1436 53.9001 27.0001 53.9001Z" stroke="#D8DBF3"/>
<path d="M19.1499 32.5V27C19.1499 24.812 20.0191 22.7135 21.5663 21.1664C23.1134 19.6192 25.2119 18.75 27.3999 18.75C29.5879 18.75 31.6864 19.6192 33.2335 21.1664C34.7807 22.7135 35.6499 24.812 35.6499 27V32.5" stroke="#673DE6" stroke-width="1.833" stroke-linecap="round" stroke-linejoin="round"/>
<path d="M35.6499 33.417C35.6499 33.9031 35.4568 34.3694 35.113 34.7131C34.7693 35.0569 34.303 35.25 33.8169 35.25H32.8999C32.4138 35.25 31.9475 35.0569 31.6038 34.7131C31.26 34.3694 31.0669 33.9031 31.0669 33.417V30.667C31.0668 30.4262 31.1141 30.1877 31.2061 29.9652C31.2982 29.7427 31.4332 29.5406 31.6034 29.3702C31.7736 29.1999 31.9758 29.0648 32.1982 28.9726C32.4207 28.8805 32.6591 28.833 32.8999 28.833H35.6499V33.417ZM19.1499 33.417C19.1499 33.9031 19.343 34.3694 19.6868 34.7131C20.0305 35.0569 20.4968 35.25 20.9829 35.25H21.8999C22.386 35.25 22.8523 35.0569 23.196 34.7131C23.5398 34.3694 23.7329 33.9031 23.7329 33.417V30.667C23.733 30.4262 23.6857 30.1877 23.5937 29.9652C23.5016 29.7427 23.3666 29.5406 23.1964 29.3702C23.0262 29.1999 22.824 29.0648 22.6016 28.9726C22.3791 28.8805 22.1407 28.833 21.8999 28.833H19.1499V33.417Z" stroke="#673DE6" stroke-width="1.833" stroke-linecap="round" stroke-linejoin="round"/>
</g>
<defs>
<clipPath id="clip0_144_746">
<rect width="54" height="54" fill="white"/>
</clipPath>
</defs>
</svg>
