<svg width="533" height="414" viewBox="0 0 533 414" fill="none" xmlns="http://www.w3.org/2000/svg">
<g clip-path="url(#clip0_179_1053)">
<path d="M268.295 360.769L269.227 339.814C278.942 334.621 289.778 331.878 300.794 331.823C285.633 344.223 287.527 368.113 277.249 384.781C274.003 389.955 269.635 394.333 264.467 397.589C259.3 400.846 253.465 402.898 247.397 403.593L234.709 411.361C232.968 401.655 233.352 391.688 235.834 382.145C238.316 372.602 242.838 363.711 249.087 356.084C252.635 351.84 256.704 348.059 261.197 344.832C264.235 352.845 268.295 360.769 268.295 360.769Z" fill="#F2F2F2"/>
<path d="M206.488 31.5029C204.95 27.9502 202.617 24.7984 199.667 22.2909C196.718 19.7833 193.232 17.9871 189.478 17.0409C181.143 14.8729 168.939 18.175 162.678 22.917C151.217 31.59 148.42 61.3869 156.294 70.8029C157.86 70.7399 163.265 70.6939 164.85 70.6479L167.092 64.9729V70.5919C179.465 70.3019 192.346 70.4829 205.235 70.6709C206.387 64.0049 209.135 37.9159 206.488 31.5029Z" fill="#2F2E41"/>
<path d="M204.388 390.799H215.674L221.042 347.269H204.386L204.388 390.799Z" fill="#FFB6B6"/>
<path d="M105.596 383.781L116.516 386.627L132.69 345.859L116.572 341.659L105.596 383.781Z" fill="#FFB6B6"/>
<path d="M167.788 123.446L165.231 130.094L165.743 136.742L215.788 154.072L213.305 124.972L207.679 118.323L167.788 123.446Z" fill="#FFB6B6"/>
<path d="M189.258 63.6159C199.13 63.6159 207.132 55.6135 207.132 45.7419C207.132 35.8704 199.13 27.8679 189.258 27.8679C179.386 27.8679 171.384 35.8704 171.384 45.7419C171.384 55.6135 179.386 63.6159 189.258 63.6159Z" fill="#FFB6B6"/>
<path d="M201.538 22.4669C198.104 20.3733 194.17 19.2407 190.148 19.1877C186.126 19.1347 182.164 20.1632 178.675 22.1656C175.187 24.1681 172.3 27.0709 170.318 30.5706C168.335 34.0703 167.329 38.0383 167.405 42.0599C177.148 44.5499 187.531 45.5919 198.534 42.6599L201.049 36.5039L202.532 42.6639C205.898 45.0319 209.147 45.0276 212.279 42.6509C212.412 38.6407 211.49 34.6658 209.605 31.1236C207.72 27.5814 204.938 24.596 201.538 22.4659V22.4669Z" fill="#2F2E41"/>
<path d="M201.59 385.232L219.43 384.167V391.81L236.391 403.524C237.228 404.103 237.857 404.934 238.189 405.896C238.52 406.858 238.535 407.9 238.232 408.871C237.93 409.842 237.324 410.691 236.505 411.295C235.686 411.898 234.695 412.223 233.678 412.224H212.439L208.778 404.664L207.349 412.224H199.341L201.59 385.232Z" fill="#2F2E41"/>
<path d="M103.303 377.43L120.835 380.899L118.907 388.299L132.365 403.912C133.03 404.683 133.431 405.646 133.509 406.661C133.588 407.676 133.34 408.69 132.801 409.554C132.263 410.418 131.463 411.087 130.517 411.464C129.571 411.841 128.53 411.906 127.545 411.649L106.993 406.292L105.358 398.053L102.068 405.008L94.319 402.988L103.303 377.43Z" fill="#2F2E41"/>
<path d="M106.981 356.407L140.061 288.418L150.445 205.667C143.285 192.367 156.582 165.313 156.582 165.313V153.953L208.091 163.67C218.626 192.405 223.735 222.846 223.158 253.446L221.082 363.446H221.733C222.813 363.446 223.85 363.875 224.614 364.639C225.378 365.403 225.807 366.439 225.807 367.52C225.807 368.6 225.378 369.637 224.614 370.401C223.85 371.165 222.813 371.594 221.733 371.594H201.365C200.284 371.594 199.248 371.165 198.484 370.401C197.72 369.637 197.291 368.6 197.291 367.52C197.291 366.439 197.72 365.403 198.484 364.639C199.248 363.875 200.284 363.446 201.365 363.446H201.89L187.268 223.507L170.268 292.563L129.18 356.146C130.226 356.23 131.2 356.715 131.896 357.501C132.593 358.286 132.958 359.311 132.916 360.36C132.874 361.409 132.427 362.401 131.67 363.128C130.913 363.855 129.904 364.261 128.854 364.261H108.483C107.536 364.261 106.619 363.93 105.89 363.327C105.16 362.723 104.664 361.884 104.487 360.954C104.309 360.025 104.461 359.062 104.917 358.232C105.372 357.402 106.103 356.757 106.983 356.408L106.981 356.407Z" fill="#2F2E41"/>
<path d="M151.925 172.277C152.094 171.612 152.469 171.018 152.997 170.58C153.525 170.141 154.178 169.881 154.862 169.837C155.541 162.075 160.027 112.292 160.198 110.832L160.205 110.77L161.505 83.0208C161.552 82.0134 161.969 81.0586 162.676 80.3391C163.382 79.6196 164.33 79.1859 165.336 79.1208L172.197 78.6728C172.291 78.6697 172.38 78.6301 172.446 78.5623C172.511 78.4946 172.548 78.404 172.548 78.3098C172.548 76.7795 173.156 75.3119 174.238 74.2298C175.32 73.1477 176.788 72.5398 178.318 72.5398H198.631C199.947 72.5401 201.217 73.0207 202.204 73.8915C203.19 74.7623 203.824 75.9632 203.988 77.2688C203.997 77.3587 204.04 77.4419 204.107 77.5017C204.175 77.5616 204.263 77.5938 204.353 77.5918V77.5918C206.66 77.544 208.909 78.3248 210.69 79.7925C212.471 81.2603 213.667 83.3178 214.061 85.5918C216.838 101.749 222.403 138.42 219.652 158.807C218.694 165.907 219.129 176.578 219.492 182.516C219.528 183.09 219.45 183.665 219.264 184.209C219.077 184.752 218.785 185.254 218.404 185.685C219.214 185.918 219.902 186.457 220.322 187.188C220.743 187.919 220.863 188.784 220.658 189.602C220.447 190.44 219.911 191.16 219.169 191.603C218.427 192.046 217.539 192.176 216.701 191.965L154.288 176.231C153.451 176.019 152.731 175.484 152.288 174.743C151.845 174.001 151.715 173.114 151.925 172.277Z" fill="#FC5185"/>
<path d="M341.033 413.197H0.970001C0.712741 413.197 0.466014 413.095 0.284103 412.913C0.102193 412.731 0 412.484 0 412.227C0 411.97 0.102193 411.723 0.284103 411.541C0.466014 411.359 0.712741 411.257 0.970001 411.257H341.033C341.29 411.257 341.537 411.359 341.719 411.541C341.901 411.723 342.003 411.97 342.003 412.227C342.003 412.484 341.901 412.731 341.719 412.913C341.537 413.095 341.29 413.197 341.033 413.197V413.197Z" fill="#CACACA"/>
<path d="M154.803 219.091C155.623 218.267 156.252 217.273 156.646 216.179C157.041 215.086 157.19 213.919 157.085 212.761C156.979 211.603 156.621 210.483 156.036 209.478C155.451 208.474 154.652 207.61 153.697 206.948L166.358 144.06L152.374 148.549L142.239 209.377C141.244 211.056 140.896 213.04 141.262 214.957C141.628 216.874 142.683 218.591 144.226 219.785C145.77 220.979 147.697 221.567 149.645 221.44C151.592 221.312 153.426 220.476 154.8 219.091H154.803Z" fill="#FFB6B6"/>
<path d="M173.497 86.037L164.821 79.488C164.821 79.488 157.168 78.946 155.813 92.747C154.458 106.548 151.675 133.447 151.675 133.447L138.4 194.93L156.776 198.963L170.995 132.613L179.525 112.913L173.497 86.037Z" fill="#FC5185"/>
<path d="M286.17 103.84C285.087 103.417 283.925 103.237 282.765 103.313C281.606 103.388 280.477 103.716 279.457 104.275C278.438 104.834 277.554 105.609 276.867 106.546C276.18 107.483 275.706 108.56 275.48 109.7L212.764 123.188L222.464 134.217L282.28 119.234C284.216 119.476 286.175 119.003 287.786 117.902C289.398 116.801 290.552 115.15 291.03 113.258C291.509 111.366 291.279 109.364 290.385 107.629C289.49 105.895 287.993 104.547 286.174 103.84H286.17Z" fill="#FFB6B6"/>
<path d="M202.905 137.895C200.901 135.958 199.394 133.567 198.512 130.924L187.061 96.4908C186.408 94.5286 186.183 92.4495 186.401 90.3931C186.618 88.3367 187.273 86.3506 188.321 84.5682C189.37 82.7858 190.787 81.2483 192.479 80.0591C194.171 78.8698 196.097 78.0562 198.129 77.673C200.161 77.2897 202.252 77.3457 204.26 77.8372C206.269 78.3286 208.149 79.2441 209.775 80.5223C211.4 81.8004 212.733 83.4115 213.685 85.2475C214.636 87.0834 215.184 89.1017 215.291 91.1668L216.691 118.267L262.969 111.49L274.998 122.548L274.348 122.769C271.793 123.639 213.3 143.469 203.617 138.399C203.356 138.267 203.116 138.099 202.903 137.899L202.905 137.895Z" fill="#FC5185"/>
<path d="M331.164 75.2967C331.417 78.9117 332.482 82.4231 334.28 85.5697C338.068 92.2227 344.565 97.0397 351.562 99.9027C360.304 103.48 370.048 103.59 379.326 102.793C387.943 102.052 396.472 100.335 405.12 99.9807C411.808 99.7666 418.503 99.9262 425.174 100.459C438.115 101.378 451.003 103.082 463.808 105.148C467.275 105.7 470.735 106.294 474.19 106.93C474.516 106.959 474.839 107.018 475.154 107.109C475.217 107.135 475.318 107.115 475.375 107.151C475.475 107.217 474.953 106.985 475.275 107.251C475.719 107.717 476.115 108.226 476.457 108.772L481.186 114.858C482.542 116.603 483.801 118.724 485.553 120.099C486.789 121.053 488.28 121.621 489.838 121.729C491.395 121.838 492.951 121.483 494.307 120.709C495.724 119.813 496.854 118.528 497.562 117.009C498.65 115.014 499.947 113.14 501.433 111.421C507.059 104.858 514.879 100.821 521.419 95.2977C524.587 92.7321 527.29 89.6416 529.412 86.1607C531.221 83.0107 532.345 79.5147 532.712 75.9007C533.495 68.5607 531.243 61.0757 527.455 54.8317C523.335 48.1238 517.415 42.7059 510.37 39.1937C502.455 35.1607 493.696 33.1937 484.917 32.2177C475.572 31.3355 466.182 31.0246 456.799 31.2867C446.287 31.4041 435.794 31.8664 425.32 32.6737C414.831 33.4857 404.384 34.6397 393.979 36.1357C383.994 37.5717 373.888 39.0677 364.114 41.6077C355.48 43.8517 346.87 47.3587 340.423 53.7137C334.689 59.3657 330.702 67.0977 331.164 75.2967Z" fill="#D8DBFE"/>
<path d="M376.783 45.7969C367.462 47.5169 357.707 49.6219 349.883 54.7219C342.148 59.7659 337.446 67.6949 337.903 74.9219C338.571 85.4799 349.797 93.3759 360.02 95.4449C369.813 97.4249 380.013 96.0839 390.813 94.6629C393.203 94.3489 395.674 94.0229 398.119 93.7409C424.703 90.6679 474.619 100.133 476.731 100.541L478.931 100.961L490.55 115.913C493.375 110.033 497.526 104.888 502.677 100.885C504.912 99.0989 507.245 97.4399 509.5 95.8359C515.254 91.7439 520.689 87.8789 523.689 82.5689C530.222 71.0049 522.502 54.8789 511.489 47.6399C499.08 39.4839 482.727 38.2049 466.905 38.0399C465.257 38.0226 463.608 38.0139 461.959 38.0139C433.415 38.0172 404.931 40.6196 376.859 45.7889L376.783 45.7969Z" fill="white"/>
<path d="M369.346 58.5768C369.346 58.2562 369.408 57.9386 369.531 57.6422C369.653 57.3459 369.833 57.0765 370.059 56.8495C370.286 56.6226 370.555 56.4425 370.851 56.3195C371.147 56.1965 371.464 56.1331 371.785 56.1328H483.991C484.639 56.1328 485.26 56.3901 485.717 56.8479C486.175 57.3058 486.432 57.9268 486.432 58.5743C486.432 59.2218 486.175 59.8429 485.717 60.3007C485.26 60.7586 484.639 61.0158 483.991 61.0158H371.784C371.137 61.015 370.518 60.7578 370.061 60.3005C369.604 59.8432 369.347 59.2233 369.346 58.5768V58.5768Z" fill="#D8DBFE"/>
<path d="M369.346 73.5619C369.346 73.2413 369.408 72.9237 369.531 72.6273C369.653 72.331 369.833 72.0616 370.059 71.8347C370.286 71.6077 370.555 71.4276 370.851 71.3046C371.147 71.1816 371.464 71.1182 371.785 71.1179H483.996C484.643 71.1186 485.264 71.3764 485.722 71.8348C486.179 72.2931 486.436 72.9144 486.435 73.5619C486.434 74.2094 486.176 74.8302 485.718 75.2876C485.26 75.745 484.639 76.0016 483.991 76.0009H371.784C371.137 76.0001 370.518 75.7429 370.061 75.2856C369.604 74.8284 369.347 74.2084 369.346 73.5619V73.5619Z" fill="#D8DBFE"/>
<path d="M468.476 88.5468C468.476 88.2261 468.538 87.9086 468.661 87.6122C468.783 87.3158 468.963 87.0465 469.189 86.8195C469.416 86.5926 469.685 86.4124 469.981 86.2895C470.277 86.1665 470.594 86.103 470.915 86.1028H483.991C484.639 86.1028 485.26 86.36 485.717 86.8179C486.175 87.2758 486.432 87.8968 486.432 88.5443C486.432 89.1918 486.175 89.8128 485.717 90.2707C485.26 90.7286 484.639 90.9858 483.991 90.9858H470.915C470.268 90.9852 469.648 90.7281 469.191 90.2708C468.734 89.8136 468.477 89.1935 468.476 88.5468V88.5468Z" fill="#D8DBFE"/>
<path d="M284.917 84.9239C284.856 84.9239 284.794 84.9239 284.733 84.9239C284.011 84.8977 283.306 84.6976 282.679 84.3405C282.051 83.9834 281.518 83.4799 281.127 82.8729C278.195 78.4907 274.597 74.5931 270.463 71.3209C267.963 69.3209 265.345 67.4609 262.816 65.6619C256.292 61.0229 250.147 56.6539 246.737 50.6159C239.3 37.4509 248.058 19.1159 260.569 10.8919C274.602 1.66889 293.06 0.222898 310.916 0.0328979C312.772 0.0135646 314.629 0.00390625 316.487 0.00390625C348.66 0.0160006 380.765 2.95139 412.406 8.7739C422.927 10.7149 433.941 13.0929 442.791 18.8639C451.591 24.6009 456.936 33.6349 456.414 41.8799C455.651 53.9089 442.891 62.9089 431.272 65.2589C420.197 67.4979 408.693 65.9849 396.513 64.3819C393.824 64.0279 391.044 63.6629 388.295 63.3449C358.416 59.8909 302.285 70.5359 299.911 70.9909L297.555 71.4419L288.413 83.2089C288.002 83.7446 287.472 84.1781 286.866 84.4756C286.259 84.773 285.592 84.9264 284.917 84.9239V84.9239Z" fill="#673DE6"/>
<path d="M417.972 26.2039H291.682C290.953 26.2039 290.253 25.9141 289.737 25.3984C289.222 24.8827 288.932 24.1832 288.932 23.4539C288.932 22.7245 289.222 22.025 289.737 21.5093C290.253 20.9936 290.953 20.7039 291.682 20.7039H417.972C418.701 20.7039 419.401 20.9936 419.917 21.5093C420.432 22.025 420.722 22.7245 420.722 23.4539C420.722 24.1832 420.432 24.8827 419.917 25.3984C419.401 25.9141 418.701 26.2039 417.972 26.2039V26.2039Z" fill="white"/>
<path d="M417.972 43.0698H291.683C291.322 43.0702 290.964 42.9995 290.63 42.8616C290.297 42.7238 289.993 42.5216 289.738 42.2665C289.221 41.7513 288.931 41.0522 288.93 40.3228C288.929 39.5935 289.218 38.8937 289.733 38.3774C290.249 37.8611 290.948 37.5706 291.677 37.5698H417.977C418.706 37.5698 419.406 37.8595 419.922 38.3753C420.437 38.891 420.727 39.5905 420.727 40.3198C420.727 41.0492 420.437 41.7486 419.922 42.2644C419.406 42.7801 418.706 43.0698 417.977 43.0698H417.972Z" fill="white"/>
<path d="M306.4 59.9358H291.682C290.953 59.9358 290.253 59.6461 289.737 59.1303C289.222 58.6146 288.932 57.9151 288.932 57.1858C288.932 56.4564 289.222 55.757 289.737 55.2413C290.253 54.7255 290.953 54.4358 291.682 54.4358H306.399C307.128 54.4358 307.828 54.7255 308.344 55.2413C308.859 55.757 309.149 56.4564 309.149 57.1858C309.149 57.9151 308.859 58.6146 308.344 59.1303C307.828 59.6461 307.128 59.9358 306.399 59.9358H306.4Z" fill="white"/>
</g>
<defs>
<clipPath id="clip0_179_1053">
<rect width="532.867" height="413.198" fill="white"/>
</clipPath>
</defs>
</svg>
