<svg width="421" height="328" viewBox="0 0 421 328" fill="none" xmlns="http://www.w3.org/2000/svg">
<circle cx="158.5" cy="158.5" r="158.5" fill="#DFE7FD"/>
<path d="M73.4023 241.144V244.742C73.4023 246.516 74.8266 247.94 76.6007 247.94H82.5226C83.8968 247.94 85.1212 248.815 85.546 250.139C85.9458 251.413 86.4705 252.638 87.0702 253.812C87.6948 255.036 87.47 256.536 86.4955 257.51L82.2977 261.708C81.0483 262.957 81.0483 264.981 82.2977 266.23L84.8463 268.779C86.0957 270.028 88.1196 270.028 89.369 268.779L93.5668 264.581C94.5413 263.607 96.0405 263.357 97.2648 264.007C98.4392 264.606 99.6636 265.131 100.938 265.531C102.237 265.956 103.137 267.18 103.137 268.554V274.476C103.137 276.25 104.561 277.674 106.335 277.674H109.933C111.707 277.674 113.131 276.25 113.131 274.476V268.554C113.131 267.18 114.006 265.956 115.33 265.531C116.605 265.131 117.829 264.606 119.003 264.007C120.228 263.382 121.727 263.607 122.701 264.581L126.899 268.779C128.149 270.028 130.173 270.028 131.422 268.779L133.971 266.23C135.22 264.981 135.22 262.957 133.971 261.708L129.773 257.51C128.798 256.536 128.548 255.036 129.198 253.812C129.798 252.638 130.322 251.413 130.722 250.139C131.147 248.84 132.371 247.94 133.746 247.94H139.668C141.442 247.94 142.866 246.516 142.866 244.742V241.144C142.866 239.37 141.442 237.945 139.668 237.945H133.746C132.371 237.945 131.147 237.071 130.722 235.746C130.322 234.472 129.798 233.248 129.198 232.073C128.573 230.849 128.798 229.35 129.773 228.375L133.971 224.178C135.22 222.928 135.22 220.904 133.971 219.655L131.422 217.106C130.173 215.857 128.149 215.857 126.899 217.106L122.701 221.304C121.727 222.279 120.228 222.528 119.003 221.879C117.829 221.279 116.605 220.754 115.33 220.355C114.031 219.93 113.131 218.705 113.131 217.331V211.409C113.131 209.635 111.707 208.211 109.933 208.211H106.335C104.561 208.211 103.137 209.635 103.137 211.409V217.331C103.137 218.705 102.262 219.93 100.938 220.355C99.6636 220.754 98.4392 221.279 97.2648 221.879C96.0405 222.503 94.5413 222.279 93.5668 221.304L89.369 217.106C88.1196 215.857 86.0957 215.857 84.8463 217.106L82.2977 219.655C81.0483 220.904 81.0483 222.928 82.2977 224.178L86.4955 228.375C87.47 229.35 87.7198 230.849 87.0702 232.073C86.4705 233.248 85.9458 234.472 85.546 235.746C85.1212 237.046 83.8968 237.945 82.5226 237.945H76.6007C74.8266 237.945 73.4023 239.37 73.4023 241.144ZM110.533 230.899C115.33 231.799 119.278 235.746 120.178 240.544C121.827 249.189 114.381 256.636 105.71 255.011C100.913 254.112 96.965 250.164 96.0655 245.366C94.4163 236.721 101.862 229.275 110.533 230.899Z" fill="#673DE6"/>
<path d="M238.867 21.0952L186.379 21.7043L233.287 51.9698L234.315 37.7698L243.152 32.9159L202.3 24.0646L237.8 28.081L240.257 25.4351L244.371 21L238.867 21.0952Z" fill="#673DE6"/>
<path fill-rule="evenodd" clip-rule="evenodd" d="M256.996 35.5612L256.577 37.046C255.758 36.8175 254.92 36.5891 254.102 36.3797L254.482 34.876C255.32 35.0854 256.158 35.3138 256.996 35.5422V35.5612Z" fill="white"/>
<path fill-rule="evenodd" clip-rule="evenodd" d="M249.952 33.793L252.485 34.3831L252.123 35.8868L249.609 35.2967L249.952 33.793Z" fill="white"/>
<path fill-rule="evenodd" clip-rule="evenodd" d="M245.399 32.8594L247.951 33.3543L247.627 34.8771L245.113 34.3631L245.399 32.8594Z" fill="white"/>
<path fill-rule="evenodd" clip-rule="evenodd" d="M267.301 40.5116L267.853 39.084L270.272 40.0357L269.681 41.4634L267.301 40.5116Z" fill="white"/>
<path fill-rule="evenodd" clip-rule="evenodd" d="M263.433 37.5234C264.252 37.809 265.09 38.0755 265.89 38.38L265.376 39.8267C264.576 39.5221 263.757 39.2747 262.957 38.9891L263.452 37.5234H263.433Z" fill="white"/>
<path fill-rule="evenodd" clip-rule="evenodd" d="M261.492 36.8952L261.035 38.3609C260.216 38.0944 259.397 37.8469 258.578 37.6185L259.016 36.1338C259.854 36.3812 260.673 36.6287 261.511 36.8952H261.492Z" fill="white"/>
<path fill-rule="evenodd" clip-rule="evenodd" d="M280.538 45.1743C281.261 45.6692 282.023 46.107 282.747 46.621L281.852 47.8773C281.166 47.3824 280.423 46.9446 279.719 46.4687L280.538 45.1553V45.1743Z" fill="white"/>
<path fill-rule="evenodd" clip-rule="evenodd" d="M278.728 44.1284L277.966 45.4608C277.242 45.023 276.481 44.6423 275.719 44.2426L276.423 42.8721C277.204 43.2718 277.985 43.6715 278.728 44.1284Z" fill="white"/>
<path fill-rule="evenodd" clip-rule="evenodd" d="M271.586 42.2816L272.214 40.873C273.014 41.1966 273.795 41.5964 274.595 41.958L273.928 43.3476C273.148 42.9859 272.386 42.6052 271.605 42.2816H271.586Z" fill="white"/>
<path fill-rule="evenodd" clip-rule="evenodd" d="M289.547 55.7589L290.88 54.9785C291.318 55.778 291.718 56.5965 292.08 57.434L290.632 57.986C290.309 57.2246 289.947 56.4632 289.547 55.7399V55.7589Z" fill="white"/>
<path fill-rule="evenodd" clip-rule="evenodd" d="M286.82 52.1612L287.944 51.1143C288.553 51.7614 289.106 52.4848 289.677 53.17L288.439 54.0837C287.887 53.4365 287.392 52.7703 286.82 52.1612Z" fill="white"/>
<path fill-rule="evenodd" clip-rule="evenodd" d="M283.492 49.1147L284.444 47.8965L286.482 49.6287L285.435 50.7517L283.492 49.1147Z" fill="white"/>
<path fill-rule="evenodd" clip-rule="evenodd" d="M291.889 69.2166C291.547 70.0351 291.147 70.8536 290.766 71.6721L289.395 70.9678C289.737 70.2064 290.099 69.445 290.442 68.6836L291.889 69.2356V69.2166Z" fill="white"/>
<path fill-rule="evenodd" clip-rule="evenodd" d="M291.489 64.3242L293.031 64.4765L292.822 65.828C292.746 66.2848 292.708 66.7417 292.536 67.1604L291.051 66.7797C291.203 66.38 291.241 65.9612 291.298 65.5615L291.489 64.3242Z" fill="white"/>
<path fill-rule="evenodd" clip-rule="evenodd" d="M291.409 61.1263L291.219 59.9081L292.723 59.5654L292.933 60.9359C293.009 61.3928 293.085 61.8496 293.066 62.3065L291.523 62.3636C291.562 61.9448 291.466 61.5451 291.409 61.1263Z" fill="white"/>
<path fill-rule="evenodd" clip-rule="evenodd" d="M283.702 80.8472C283.073 81.4563 282.464 82.0845 281.778 82.6365L280.75 81.4753C281.417 80.9424 282.007 80.3142 282.616 79.7432L283.702 80.8472Z" fill="white"/>
<path fill-rule="evenodd" clip-rule="evenodd" d="M286.934 77.3829L285.182 79.3625L284.059 78.3156L285.754 76.4121L286.934 77.3829Z" fill="white"/>
<path fill-rule="evenodd" clip-rule="evenodd" d="M288.381 72.7178L289.696 73.5172L288.991 74.6593L288.21 75.7253L286.953 74.8116L287.715 73.8028L288.381 72.7178Z" fill="white"/>
<path fill-rule="evenodd" clip-rule="evenodd" d="M272.556 89.4697L270.347 90.8402L269.566 89.5268L271.738 88.1562L272.556 89.4697Z" fill="white"/>
<path fill-rule="evenodd" clip-rule="evenodd" d="M276.462 86.8618L274.31 88.3465L273.453 87.0521L275.567 85.6055L276.462 86.8618Z" fill="white"/>
<path fill-rule="evenodd" clip-rule="evenodd" d="M280.178 84.0068C279.53 84.5779 278.806 85.0728 278.121 85.6248L277.188 84.3875C277.854 83.8545 278.559 83.3787 279.206 82.8076L280.178 84.0068Z" fill="white"/>
<path fill-rule="evenodd" clip-rule="evenodd" d="M259.628 94.8369L260.294 96.2265L257.933 97.3305L257.285 95.9219L259.628 94.8369Z" fill="white"/>
<path fill-rule="evenodd" clip-rule="evenodd" d="M264.466 94.1322C263.704 94.551 262.923 94.9317 262.143 95.3124L261.457 93.9229C262.219 93.5422 263 93.1615 263.742 92.7617L264.466 94.1322Z" fill="white"/>
<path fill-rule="evenodd" clip-rule="evenodd" d="M268.54 91.8871C267.798 92.3249 267.036 92.7627 266.274 93.1625L265.531 91.811C266.293 91.4113 267.036 90.9925 267.779 90.5547L268.54 91.8871Z" fill="white"/>
<path fill-rule="evenodd" clip-rule="evenodd" d="M246.904 100.339L247.456 101.786L245.037 102.718L244.504 101.272L246.904 100.339Z" fill="white"/>
<path fill-rule="evenodd" clip-rule="evenodd" d="M251.189 98.6064L251.78 100.034L249.38 101.024L248.809 99.5963L251.189 98.6064Z" fill="white"/>
<path fill-rule="evenodd" clip-rule="evenodd" d="M255.401 96.7979L256.049 98.2064L253.668 99.2343L253.059 97.8257L255.401 96.7979Z" fill="white"/>
<path fill-rule="evenodd" clip-rule="evenodd" d="M233.84 105.021L234.316 106.486L231.859 107.267L231.383 105.801L233.84 105.021Z" fill="white"/>
<path fill-rule="evenodd" clip-rule="evenodd" d="M238.215 103.535L238.71 105.001L236.273 105.838L235.777 104.373L238.215 103.535Z" fill="white"/>
<path fill-rule="evenodd" clip-rule="evenodd" d="M242.563 101.994L243.096 103.441L240.658 104.316L240.125 102.87L242.563 101.994Z" fill="white"/>
<path fill-rule="evenodd" clip-rule="evenodd" d="M220.55 109.019L220.969 110.503L218.474 111.189L218.074 109.704L220.55 109.019Z" fill="white"/>
<path fill-rule="evenodd" clip-rule="evenodd" d="M225.003 107.762L225.422 109.227L222.946 109.951L222.527 108.466L225.003 107.762Z" fill="white"/>
<path fill-rule="evenodd" clip-rule="evenodd" d="M229.402 106.43L229.859 107.895L227.383 108.657L226.945 107.172L229.402 106.43Z" fill="white"/>
<path fill-rule="evenodd" clip-rule="evenodd" d="M204.586 112.977L207.1 112.425L207.443 113.929L204.91 114.5L204.586 112.977Z" fill="white"/>
<path fill-rule="evenodd" clip-rule="evenodd" d="M211.6 111.359L211.962 112.863L209.448 113.472L209.086 111.968L211.6 111.359Z" fill="white"/>
<path fill-rule="evenodd" clip-rule="evenodd" d="M216.05 110.235L216.45 111.72L213.936 112.367L213.555 110.864L216.05 110.235Z" fill="white"/>
<path d="M122.348 92.1528H398.67C403.812 92.1528 408.002 96.3215 408.002 101.48V287.013C408.002 292.153 403.831 296.341 398.67 296.341H122.348C117.206 296.341 113.016 292.172 113.016 287.013V101.461C113.016 96.3215 117.186 92.1338 122.348 92.1338V92.1528Z" fill="#36474F"/>
<path d="M176.395 314.043L188.793 308.142C189.136 307.99 189.498 307.895 189.86 307.895H239.986V296.321H281.028V307.895H331.021C331.383 307.895 331.744 307.971 332.087 308.123L344.638 314.024C347.057 315.166 346.238 318.783 343.571 318.783H177.462C174.795 318.783 173.976 315.166 176.395 314.024V314.043Z" fill="#36474F"/>
<path d="M395.719 104.373V214.224V233.125V269.806H378.35L268.766 104.373H395.719Z" fill="#D1C5F7"/>
<path d="M215.02 104.373L324.604 269.806H311.616H300.589L191.023 104.373H215.02Z" fill="#D1C5F7"/>
<path d="M136.1 104.373H164.324H165.638L275.204 269.806H125.32V233.125V214.224V104.373H136.1Z" fill="#D1C5F7"/>
<path d="M268.76 104.373L378.345 269.806H339.836H324.6L215.016 104.373H268.76Z" fill="#A18DE2"/>
<path d="M191.024 104.373L300.589 269.806H275.202L165.637 104.373H191.024Z" fill="#D1C5F7"/>
<path d="M178.51 55.1591L185.709 59.0803L178.51 63.0205L174.568 70.2157L170.644 63.0205L163.445 59.0803L170.644 55.1591L174.568 47.9639L178.51 55.1591Z" fill="white"/>
<path d="M195.953 67.9318L200.104 70.216L195.953 72.5002L193.667 76.6498L191.382 72.5002L187.211 70.216L191.382 67.9318L193.667 63.7822L195.953 67.9318Z" fill="white"/>
<path d="M314.555 269.348H206.957L206.957 72.1028C206.957 70.2888 208.438 68.8055 210.241 68.8055H311.27C313.074 68.8055 314.555 70.2888 314.555 72.1028V269.348Z" fill="white" stroke="black"/>
<path d="M228.574 83.7412H308.601C309.458 83.7412 310.163 84.4455 310.163 85.3021V95.7523C310.163 96.6088 309.458 97.3131 308.601 97.3131H228.574V83.7602V83.7412Z" fill="#D1C5F7"/>
<path d="M212.827 83.7407H225.321V97.2936H212.827C211.97 97.2936 211.266 96.5893 211.266 95.7327V85.2825C211.266 84.426 211.97 83.7217 212.827 83.7217V83.7407Z" fill="#D1C5F7"/>
<path d="M303.27 88.3848C304.355 88.3848 305.25 89.2604 305.25 90.3644C305.25 91.4684 304.374 92.344 303.27 92.344C302.165 92.344 301.289 91.4684 301.289 90.3644C301.289 89.2604 302.165 88.3848 303.27 88.3848Z" fill="#5A5BAE"/>
<path d="M297.289 88.3848C298.375 88.3848 299.27 89.2604 299.27 90.3644C299.27 91.4684 298.394 92.344 297.289 92.344C296.185 92.344 295.309 91.4684 295.309 90.3644C295.309 89.2604 296.185 88.3848 297.289 88.3848Z" fill="white"/>
<path d="M291.289 88.3848C292.375 88.3848 293.27 89.2604 293.27 90.3644C293.27 91.4684 292.394 92.344 291.289 92.344C290.185 92.344 289.309 91.4684 289.309 90.3644C289.309 89.2604 290.185 88.3848 291.289 88.3848Z" fill="#8888BA"/>
<path d="M228.574 106.372H308.601C309.458 106.372 310.163 107.076 310.163 107.933V118.383C310.163 119.24 309.458 119.944 308.601 119.944H228.574V106.391V106.372Z" fill="#D1C5F7"/>
<path d="M212.827 106.372H225.321V119.924H212.827C211.97 119.924 211.266 119.22 211.266 118.364V107.913C211.266 107.057 211.97 106.353 212.827 106.353V106.372Z" fill="#D1C5F7"/>
<path d="M303.27 110.997C304.355 110.997 305.25 111.873 305.25 112.977C305.25 114.081 304.374 114.956 303.27 114.956C302.165 114.956 301.289 114.081 301.289 112.977C301.289 111.873 302.165 110.997 303.27 110.997Z" fill="#5A5BAE"/>
<path d="M297.289 110.997C298.375 110.997 299.27 111.873 299.27 112.977C299.27 114.081 298.394 114.956 297.289 114.956C296.185 114.956 295.309 114.081 295.309 112.977C295.309 111.873 296.185 110.997 297.289 110.997Z" fill="white"/>
<path d="M291.289 110.997C292.375 110.997 293.27 111.873 293.27 112.977C293.27 114.081 292.394 114.956 291.289 114.956C290.185 114.956 289.309 114.081 289.309 112.977C289.309 111.873 290.185 110.997 291.289 110.997Z" fill="#8888BA"/>
<path d="M228.574 128.987H308.601C309.458 128.987 310.163 129.692 310.163 130.548V140.998C310.163 141.855 309.458 142.559 308.601 142.559H228.574V129.006V128.987Z" fill="#D1C5F7"/>
<path d="M212.827 128.987H225.321V142.54H212.827C211.97 142.54 211.266 141.835 211.266 140.979V130.529C211.266 129.672 211.97 128.968 212.827 128.968V128.987Z" fill="#D1C5F7"/>
<path d="M303.27 133.613C304.355 133.613 305.25 134.489 305.25 135.593C305.25 136.697 304.374 137.573 303.27 137.573C302.165 137.573 301.289 136.697 301.289 135.593C301.289 134.489 302.165 133.613 303.27 133.613Z" fill="#5A5BAE"/>
<path d="M297.289 133.613C298.375 133.613 299.27 134.489 299.27 135.593C299.27 136.697 298.394 137.573 297.289 137.573C296.185 137.573 295.309 136.697 295.309 135.593C295.309 134.489 296.185 133.613 297.289 133.613Z" fill="white"/>
<path d="M291.289 133.613C292.375 133.613 293.27 134.489 293.27 135.593C293.27 136.697 292.394 137.573 291.289 137.573C290.185 137.573 289.309 136.697 289.309 135.593C289.309 134.489 290.185 133.613 291.289 133.613Z" fill="#8888BA"/>
<path d="M260.756 262.02C264.808 262.02 268.093 258.735 268.093 254.682C268.093 250.63 264.808 247.345 260.756 247.345C256.703 247.345 253.418 250.63 253.418 254.682C253.418 258.735 256.703 262.02 260.756 262.02Z" fill="white"/>
<path d="M261.518 211.426C261.466 211.404 261.404 211.377 261.332 211.346C261.089 211.241 260.735 211.083 260.295 210.875C259.416 210.458 258.194 209.842 256.833 209.043C254.1 207.439 250.84 205.123 248.617 202.243C247.536 200.843 246.491 198.324 245.533 195.263C244.582 192.222 243.736 188.709 243.03 185.371C242.324 182.035 241.761 178.882 241.374 176.563C241.18 175.403 241.031 174.453 240.93 173.792C240.891 173.539 240.859 173.328 240.835 173.165L261.518 165.695L282.2 173.165C282.176 173.328 282.145 173.539 282.106 173.792C282.005 174.453 281.855 175.403 281.662 176.563C281.275 178.882 280.711 182.035 280.006 185.371C279.3 188.709 278.454 192.222 277.502 195.263C276.545 198.324 275.5 200.843 274.419 202.243C272.196 205.123 268.935 207.439 266.203 209.043C264.841 209.842 263.62 210.458 262.74 210.875C262.3 211.083 261.946 211.241 261.703 211.346C261.631 211.377 261.569 211.404 261.518 211.426Z" fill="#673DE6" stroke="black"/>
<path d="M261.517 168.48L243.297 175.053C243.297 175.053 246.193 195.47 250.102 200.548C254.024 205.613 261.505 208.628 261.505 208.628C261.505 208.628 268.998 205.613 272.907 200.548C276.829 195.483 279.713 175.053 279.713 175.053L261.493 168.48H261.517Z" fill="white"/>
<path d="M270.241 188.37C271.382 183.554 268.402 178.726 263.584 177.585C258.766 176.444 253.935 179.423 252.794 184.238C251.652 189.053 254.632 193.882 259.45 195.023C264.268 196.164 269.099 193.185 270.241 188.37Z" fill="#F06E34"/>
<path d="M259.296 190.73C259.151 190.863 258.91 190.863 258.777 190.73L254.855 186.81L256.074 185.592L258.825 188.342C258.97 188.487 259.199 188.487 259.344 188.342L266.885 181.323L268.056 182.577L259.308 190.718L259.296 190.73Z" fill="white"/>
<path d="M201.605 269.764H131.816V143.244C131.816 141.426 133.305 139.937 135.125 139.937H198.296C200.116 139.937 201.605 141.426 201.605 143.244L201.605 269.764Z" fill="white" stroke="black"/>
<path d="M145.906 149.487H197.727C198.28 149.487 198.737 149.944 198.737 150.496V157.254C198.737 157.806 198.28 158.262 197.727 158.262H145.906V149.487Z" fill="#D1C5F7"/>
<path d="M135.697 149.487H143.791V158.262H135.697C135.145 158.262 134.688 157.806 134.688 157.254V150.496C134.688 149.944 135.145 149.487 135.697 149.487Z" fill="#D1C5F7"/>
<path d="M194.268 152.494C194.973 152.494 195.544 153.065 195.544 153.769C195.544 154.474 194.973 155.045 194.268 155.045C193.564 155.045 192.992 154.474 192.992 153.769C192.992 153.065 193.564 152.494 194.268 152.494Z" fill="#5A5BAE"/>
<path d="M190.397 152.494C191.102 152.494 191.673 153.065 191.673 153.769C191.673 154.474 191.102 155.045 190.397 155.045C189.692 155.045 189.121 154.474 189.121 153.769C189.121 153.065 189.692 152.494 190.397 152.494Z" fill="white"/>
<path d="M186.514 152.494C187.219 152.494 187.79 153.065 187.79 153.769C187.79 154.474 187.219 155.045 186.514 155.045C185.81 155.045 185.238 154.474 185.238 153.769C185.238 153.065 185.81 152.494 186.514 152.494Z" fill="#8888BA"/>
<path d="M145.906 164.144H197.727C198.28 164.144 198.737 164.6 198.737 165.152V171.91C198.737 172.462 198.28 172.919 197.727 172.919H145.906V164.144Z" fill="#D1C5F7"/>
<path d="M135.697 164.144H143.791V172.919H135.697C135.145 172.919 134.688 172.462 134.688 171.91V165.152C134.688 164.6 135.145 164.144 135.697 164.144Z" fill="#D1C5F7"/>
<path d="M194.268 167.133C194.973 167.133 195.544 167.704 195.544 168.408C195.544 169.112 194.973 169.684 194.268 169.684C193.564 169.684 192.992 169.112 192.992 168.408C192.992 167.704 193.564 167.133 194.268 167.133Z" fill="#5A5BAE"/>
<path d="M190.397 167.133C191.102 167.133 191.673 167.704 191.673 168.408C191.673 169.112 191.102 169.684 190.397 169.684C189.692 169.684 189.121 169.112 189.121 168.408C189.121 167.704 189.692 167.133 190.397 167.133Z" fill="white"/>
<path d="M186.514 167.133C187.219 167.133 187.79 167.704 187.79 168.408C187.79 169.112 187.219 169.684 186.514 169.684C185.81 169.684 185.238 169.112 185.238 168.408C185.238 167.704 185.81 167.133 186.514 167.133Z" fill="#8888BA"/>
<path d="M145.906 178.783H197.727C198.28 178.783 198.737 179.24 198.737 179.792V186.549C198.737 187.101 198.28 187.558 197.727 187.558H145.906V178.783Z" fill="#D1C5F7"/>
<path d="M135.697 178.783H143.791V187.558H135.697C135.145 187.558 134.688 187.101 134.688 186.549V179.792C134.688 179.24 135.145 178.783 135.697 178.783Z" fill="#D1C5F7"/>
<path d="M194.268 181.79C194.973 181.79 195.544 182.361 195.544 183.065C195.544 183.77 194.973 184.341 194.268 184.341C193.564 184.341 192.992 183.77 192.992 183.065C192.992 182.361 193.564 181.79 194.268 181.79Z" fill="#5A5BAE"/>
<path d="M190.397 181.79C191.102 181.79 191.673 182.361 191.673 183.065C191.673 183.77 191.102 184.341 190.397 184.341C189.692 184.341 189.121 183.77 189.121 183.065C189.121 182.361 189.692 181.79 190.397 181.79Z" fill="white"/>
<path d="M186.514 181.79C187.219 181.79 187.79 182.361 187.79 183.065C187.79 183.77 187.219 184.341 186.514 184.341C185.81 184.341 185.238 183.77 185.238 183.065C185.238 182.361 185.81 181.79 186.514 181.79Z" fill="#8888BA"/>
<path d="M166.719 264.916C169.338 264.916 171.461 262.794 171.461 260.176C171.461 257.559 169.338 255.437 166.719 255.437C164.1 255.437 161.977 257.559 161.977 260.176C161.977 262.794 164.1 264.916 166.719 264.916Z" fill="white"/>
<path d="M389.598 269.764H319.827V143.244C319.827 141.426 321.317 139.937 323.136 139.937H386.289C388.108 139.937 389.598 141.426 389.598 143.244V269.764Z" fill="white" stroke="black"/>
<path d="M333.91 149.487H385.731C386.284 149.487 386.741 149.944 386.741 150.496V157.254C386.741 157.806 386.284 158.262 385.731 158.262H333.91V149.487Z" fill="#D1C5F7"/>
<path d="M323.701 149.487H331.795V158.262H323.701C323.148 158.262 322.691 157.806 322.691 157.254V150.496C322.691 149.944 323.148 149.487 323.701 149.487Z" fill="#D1C5F7"/>
<path d="M382.268 152.494C382.973 152.494 383.544 153.065 383.544 153.769C383.544 154.474 382.973 155.045 382.268 155.045C381.564 155.045 380.992 154.474 380.992 153.769C380.992 153.065 381.564 152.494 382.268 152.494Z" fill="#5A5BAE"/>
<path d="M378.397 152.494C379.102 152.494 379.673 153.065 379.673 153.769C379.673 154.474 379.102 155.045 378.397 155.045C377.692 155.045 377.121 154.474 377.121 153.769C377.121 153.065 377.692 152.494 378.397 152.494Z" fill="white"/>
<path d="M374.514 152.494C375.219 152.494 375.79 153.065 375.79 153.769C375.79 154.474 375.219 155.045 374.514 155.045C373.81 155.045 373.238 154.474 373.238 153.769C373.238 153.065 373.81 152.494 374.514 152.494Z" fill="#8888BA"/>
<path d="M333.91 164.144H385.731C386.284 164.144 386.741 164.6 386.741 165.152V171.91C386.741 172.462 386.284 172.919 385.731 172.919H333.91V164.144Z" fill="#D1C5F7"/>
<path d="M323.701 164.144H331.795V172.919H323.701C323.148 172.919 322.691 172.462 322.691 171.91V165.152C322.691 164.6 323.148 164.144 323.701 164.144Z" fill="#D1C5F7"/>
<path d="M382.268 167.133C382.973 167.133 383.544 167.704 383.544 168.408C383.544 169.112 382.973 169.684 382.268 169.684C381.564 169.684 380.992 169.112 380.992 168.408C380.992 167.704 381.564 167.133 382.268 167.133Z" fill="#5A5BAE"/>
<path d="M378.397 167.133C379.102 167.133 379.673 167.704 379.673 168.408C379.673 169.112 379.102 169.684 378.397 169.684C377.692 169.684 377.121 169.112 377.121 168.408C377.121 167.704 377.692 167.133 378.397 167.133Z" fill="white"/>
<path d="M374.514 167.133C375.219 167.133 375.79 167.704 375.79 168.408C375.79 169.112 375.219 169.684 374.514 169.684C373.81 169.684 373.238 169.112 373.238 168.408C373.238 167.704 373.81 167.133 374.514 167.133Z" fill="#8888BA"/>
<path d="M333.91 178.783H385.731C386.284 178.783 386.741 179.24 386.741 179.792V186.549C386.741 187.101 386.284 187.558 385.731 187.558H333.91V178.783Z" fill="#D1C5F7"/>
<path d="M323.701 178.783H331.795V187.558H323.701C323.148 187.558 322.691 187.101 322.691 186.549V179.792C322.691 179.24 323.148 178.783 323.701 178.783Z" fill="#D1C5F7"/>
<path d="M382.268 181.79C382.973 181.79 383.544 182.361 383.544 183.065C383.544 183.77 382.973 184.341 382.268 184.341C381.564 184.341 380.992 183.77 380.992 183.065C380.992 182.361 381.564 181.79 382.268 181.79Z" fill="#5A5BAE"/>
<path d="M378.397 181.79C379.102 181.79 379.673 182.361 379.673 183.065C379.673 183.77 379.102 184.341 378.397 184.341C377.692 184.341 377.121 183.77 377.121 183.065C377.121 182.361 377.692 181.79 378.397 181.79Z" fill="white"/>
<path d="M374.514 181.79C375.219 181.79 375.79 182.361 375.79 183.065C375.79 183.77 375.219 184.341 374.514 184.341C373.81 184.341 373.238 183.77 373.238 183.065C373.238 182.361 373.81 181.79 374.514 181.79Z" fill="#8888BA"/>
<path d="M349.973 260.176C349.973 262.803 352.106 264.916 354.715 264.916C357.324 264.916 359.457 262.784 359.457 260.176C359.457 257.568 357.324 255.437 354.715 255.437C352.106 255.437 349.973 257.568 349.973 260.176Z" fill="white"/>
<path d="M104.164 119.185L103.859 122.478C104.183 122.478 108.278 122.896 108.278 122.896L108.583 119.603L104.164 119.185Z" fill="#C9937A"/>
<path d="M102.868 121.222C102.868 121.222 92.8694 125.105 92.679 125.162C92.5838 125.2 92.1076 125.257 91.5934 125.314C90.7935 125.409 90.1651 126.018 90.1079 126.78C90.0889 127.046 90.0698 127.256 90.1079 127.313C90.1841 127.465 108.486 129.064 108.486 129.064C108.486 129.064 109.477 123.239 108.524 122.916C107.572 122.592 104.201 123.068 102.887 121.222H102.868Z" fill="#111111"/>
<path d="M97.1363 123.43L97.86 125.067L97.2315 125.333L96.5078 123.677L97.1363 123.43Z" fill="white"/>
<path d="M96.0308 123.867L96.7164 125.428L96.088 125.695L95.4023 124.115L96.0308 123.867Z" fill="white"/>
<path d="M94.9835 124.268L95.631 125.771L95.0025 126.057L94.3359 124.515L94.9835 124.268Z" fill="white"/>
<path d="M89.2443 113.111L87.4922 115.909C87.7779 116.062 91.244 118.27 91.244 118.27L92.9962 115.472L89.2443 113.111Z" fill="#C9937A"/>
<path d="M87.1694 114.33C87.1694 114.33 76.5043 113.302 76.2948 113.283C76.1995 113.283 75.7425 113.112 75.2473 112.94C74.4855 112.674 73.6666 112.94 73.2476 113.588C73.1143 113.816 73 114.006 73 114.063C73 114.235 88.6359 123.866 88.6359 123.866C88.6359 123.866 92.1401 119.108 91.4355 118.384C90.7308 117.68 87.5122 116.576 87.1504 114.349L87.1694 114.33Z" fill="#111111"/>
<path d="M81.0548 113.739L80.9595 115.528L80.293 115.49L80.3882 113.682L81.0548 113.739Z" fill="white"/>
<path d="M79.8751 113.624L79.7799 115.338L79.1133 115.3L79.2085 113.567L79.8751 113.624Z" fill="white"/>
<path d="M78.7501 113.53L78.6549 115.167L77.9883 115.129L78.0835 113.473L78.7501 113.53Z" fill="white"/>
<path d="M126.592 77.3253C126.592 77.3253 105.014 75.3647 103.034 77.706C101.053 80.0663 88.5977 114.101 88.5977 114.101L93.3017 116.48L109.947 90.231L129.03 81.1513L126.592 77.3253Z" fill="#263238"/>
<path d="M121.911 37.238C121.911 37.238 118.064 37.8091 116.712 36.9715C115.359 36.1149 110.236 30.7471 113.55 31.3752C116.864 32.0034 116.845 31.7369 118.178 29.5669C119.511 27.3969 120.063 22.9237 124.787 22.6763C129.491 22.4479 134.48 22.7143 135.452 26.0645C136.423 29.4146 135.68 33.1265 136.785 34.516C137.889 35.9056 138.613 37.1048 135.909 36.6098C133.204 36.134 130.024 38.1326 130.024 38.1326L125.225 35.8865L121.93 37.238H121.911Z" fill="#111111"/>
<path d="M121.641 35.791C121.641 35.791 122.307 40.2071 123.926 40.5307C125.545 40.8352 124.497 43.1194 127.316 43.7666C130.135 44.4138 132.096 42.872 132.706 43.5001C133.315 44.1283 136.058 48.9632 136.058 48.9632L137.296 50.3337L140.267 39.5789L136.705 35.5626C136.705 35.5626 133.125 37.1805 132.706 34.5918C132.287 31.984 128.173 31.5462 128.44 34.154C128.706 36.7618 124.25 29.3762 121.641 35.81V35.791Z" fill="#C9937A"/>
<path d="M137.697 38.8559C137.697 38.8559 141.392 35.1822 141.906 37.5235C142.42 39.8648 148.933 39.2747 152.228 50.1056C155.523 60.9364 157.618 79.1719 157.808 82.8456C157.999 86.5004 154.323 91.7921 152.095 91.9063C149.867 92.0205 153.18 87.5282 145.886 80.5615C138.592 73.5947 132.421 73.4995 132.421 73.4995C132.421 73.4995 132.06 57.8337 133.031 53.589C134.002 49.3442 135.031 39.979 137.678 38.8559H137.697Z" fill="#FC5185"/>
<path d="M152.114 91.9066C152.114 91.9066 137.621 92.3063 129.584 92.0208C122.957 91.7733 115.605 91.1452 115.605 91.1452L110.558 120.459L104.121 120.002L105.111 82.351C105.111 82.351 103.893 76.6596 115.872 77.2306C127.851 77.8017 144.534 76.4502 144.534 76.4502L148.915 80.2953L152.114 91.9256V91.9066Z" fill="#263238"/>
<path d="M122.21 71.2149C122.21 71.2149 113.716 70.3773 112.783 70.4344C111.85 70.4725 109.012 71.7478 108.079 73.1755C107.146 74.6031 106.003 76.9253 107.355 76.3543C108.707 75.7833 109.641 74.2224 113.316 74.7934C116.992 75.3645 118.668 76.0878 122.058 75.4787C125.448 74.8696 122.21 71.2149 122.21 71.2149Z" fill="#C9937A"/>
<path d="M93.8203 64.2104L105.114 76.526L100.848 76.7544L88.7734 64.0771L93.8203 64.2104Z" fill="#111111"/>
<path d="M140.114 53.9702C140.114 53.9702 141.981 42.8538 146.894 47.6506C151.808 52.4474 149.979 59.6045 149.484 67.1233C149.008 74.3566 145.847 81.4947 140.419 81.3044C134.991 81.114 121.793 75.3655 121.793 75.3655L122.25 70.6638L138.381 71.863C138.381 71.863 138.134 60.5563 140.095 53.9511L140.114 53.9702Z" fill="#FC5185"/>
<path d="M117.745 75.1879L100.797 76.0371L100.86 77.2918L117.808 76.4426L117.745 75.1879Z" fill="#111111"/>
<path d="M128.062 34.687C128.062 34.687 130.862 37.6565 131.014 38.7414C131.166 39.8264 131.109 42.7959 130.233 43.1576C129.357 43.5192 127.586 43.8238 127.586 43.8238L129.205 43.957C129.205 43.957 132.538 44.0141 132.709 43.5002C132.88 42.9672 134.233 41.0066 133.642 39.5409C133.052 38.0752 132.138 36.6666 132.138 36.6666L128.462 33.5068L128.043 34.706L128.062 34.687Z" fill="#111111"/>
<g clip-path="url(#clip0_511_706)">
<path d="M218.212 231.37C218.475 231.16 218.437 230.842 218.514 230.571C219.35 227.641 221.921 225.765 225.145 225.756C226.65 225.751 228.158 225.767 229.663 225.748C230.12 225.742 230.255 225.832 230.102 226.284C229.857 227.005 229.695 227.752 229.476 228.482C229.161 229.536 228.556 229.966 227.386 229.979C226.685 229.988 225.983 229.969 225.282 229.984C223.837 230.016 222.758 231.007 222.767 232.276C222.777 233.505 223.765 234.426 225.171 234.501C225.612 234.525 226.054 234.504 226.494 234.524C227.303 234.557 227.614 234.939 227.433 235.676C227.328 236.106 227.197 236.529 227.077 236.955C226.735 238.169 225.892 238.757 224.548 238.718C221.819 238.638 219.303 236.733 218.503 234.156C218.426 233.911 218.48 233.609 218.211 233.43V231.37H218.212Z" fill="#F06E34"/>
<path d="M237.248 234.5C236.522 234.5 235.794 234.492 235.067 234.502C234.716 234.508 234.535 234.467 234.669 234.053C234.935 233.235 235.121 232.393 235.381 231.573C235.634 230.779 236.289 230.331 237.176 230.295C237.668 230.276 238.165 230.313 238.655 230.279C239.999 230.186 240.995 229.162 240.958 227.941C240.92 226.714 239.872 225.776 238.509 225.757C237.885 225.748 237.26 225.788 236.64 225.745C236.119 225.71 235.941 225.911 235.813 226.369C234.852 229.826 233.855 233.273 232.876 236.725C232.387 238.448 232.015 238.719 230.102 238.719C229.479 238.719 228.854 238.696 228.232 238.726C227.754 238.748 227.678 238.623 227.804 238.184C228.646 235.28 229.455 232.368 230.277 229.458C230.878 227.329 231.48 225.2 232.089 223.074C232.411 221.951 232.995 221.523 234.204 221.52C235.788 221.517 237.371 221.51 238.955 221.52C242.434 221.545 245.408 224.311 245.5 227.6C245.602 231.217 242.834 234.283 239.274 234.477C238.601 234.514 237.924 234.483 237.25 234.483C237.25 234.488 237.25 234.494 237.25 234.498L237.248 234.5Z" fill="#F06E34"/>
<path d="M254.869 230.901C254.672 231.565 254.553 232.17 254.314 232.728C253.991 233.483 253.327 233.836 252.465 233.842C251.634 233.847 250.803 233.85 249.972 233.841C249.617 233.836 249.32 233.923 249.309 234.294C249.299 234.668 249.592 234.773 249.947 234.773C251.376 234.77 252.804 234.77 254.233 234.773C254.631 234.773 254.858 234.58 254.958 234.231C255.336 232.907 255.704 231.58 256.098 230.261C256.279 229.653 255.923 229.61 255.439 229.613C253.257 229.622 251.075 229.617 248.892 229.616C246.993 229.616 246.234 228.703 246.695 226.979C246.922 226.129 247.507 225.704 248.45 225.704C251.229 225.704 254.01 225.701 256.788 225.704C259.703 225.709 261.441 227.832 260.696 230.484C260.145 232.448 259.584 234.412 259.02 236.373C258.574 237.923 257.487 238.709 255.787 238.71C253.397 238.71 251.007 238.71 248.618 238.696C246.312 238.683 244.569 237.073 244.555 234.968C244.539 232.682 246.303 230.919 248.636 230.905C250.684 230.894 252.732 230.902 254.867 230.902L254.869 230.901Z" fill="#F06E34"/>
<path d="M291.513 234.867C291.242 235.801 291.028 236.658 290.744 237.492C290.472 238.295 289.821 238.714 288.918 238.717C286.011 238.724 283.103 238.738 280.196 238.714C277.945 238.695 276.16 236.691 276.636 234.626C277.077 232.715 277.62 230.819 278.242 228.956C278.884 227.033 280.841 225.777 282.997 225.761C285.047 225.746 287.098 225.746 289.149 225.761C291.609 225.779 293.342 227.803 292.853 230.089C292.725 230.688 292.551 231.28 292.356 231.863C291.947 233.073 290.842 233.853 289.494 233.864C287.365 233.881 285.236 233.859 283.107 233.877C282.658 233.88 282.481 233.788 282.648 233.342C282.778 232.998 282.847 232.633 282.964 232.282C283.256 231.41 283.881 230.965 284.871 230.946C285.702 230.93 286.533 230.915 287.362 230.95C287.979 230.977 288.145 230.616 288.162 230.177C288.181 229.724 287.798 229.644 287.403 229.644C286.131 229.644 284.858 229.642 283.587 229.647C282.961 229.65 282.57 229.948 282.408 230.522C282.122 231.539 281.828 232.553 281.539 233.571C281.247 234.6 281.456 234.866 282.576 234.867C285.224 234.872 287.873 234.869 290.521 234.869H291.513V234.867Z" fill="#F06E33"/>
<path d="M267.143 225.756C268.241 225.828 269.57 225.62 270.881 225.9C274.517 226.676 276.794 230.099 275.92 233.506C275.565 234.886 275.157 236.252 274.778 237.627C274.573 238.369 274.086 238.74 273.261 238.724C272.56 238.709 271.858 238.727 271.159 238.719C270.242 238.71 269.931 238.345 270.157 237.506C270.567 235.988 271.006 234.477 271.421 232.96C271.863 231.348 270.84 230.031 269.095 229.988C268.294 229.969 267.338 229.767 266.732 230.1C266.145 230.422 266.221 231.416 266.017 232.115C265.49 233.908 264.992 235.707 264.481 237.505C264.217 238.435 263.839 238.713 262.832 238.719C262.157 238.724 261.482 238.727 260.806 238.719C259.945 238.709 259.606 238.328 259.82 237.561C260.878 233.774 261.954 229.993 263.008 226.205C263.105 225.857 263.272 225.74 263.652 225.749C264.742 225.771 265.832 225.756 267.144 225.756H267.143Z" fill="#F06E34"/>
<path d="M291.484 238.659C292.148 236.316 292.811 233.982 293.47 231.648C294.304 228.692 295.136 225.734 295.97 222.777C296.247 221.796 296.612 221.525 297.665 221.521C298.315 221.518 298.963 221.515 299.613 221.521C300.589 221.53 300.883 221.916 300.614 222.858C299.929 225.269 299.233 227.677 298.543 230.089C298.104 231.626 297.689 233.168 297.225 234.696C296.492 237.105 293.92 238.887 291.484 238.658V238.659Z" fill="#F06E34"/>
<path d="M304.613 222.553C304.832 223.378 304.624 224.022 303.729 224.357C303.654 224.385 303.539 224.319 303.442 224.297C303.378 224.268 303.312 224.212 303.25 224.215C302.459 224.244 301.93 223.902 301.806 223.174C301.681 222.435 302.122 221.981 302.85 221.759C303.356 221.753 303.823 221.843 304.143 222.263C304.262 222.419 304.354 222.606 304.615 222.554L304.613 222.553ZM303.832 223.86C303.66 223.443 303.412 223.131 303.709 222.694C303.887 222.432 303.576 222.139 303.217 222.121C302.975 222.109 302.569 221.928 302.533 222.336C302.489 222.834 302.401 223.358 302.622 223.863C302.99 223.749 302.709 223.365 302.995 223.266C303.36 223.334 303.298 223.848 303.832 223.86Z" fill="#FEEEE4"/>
<path d="M302.848 221.757C302.12 221.981 301.68 222.435 301.805 223.172C301.928 223.901 302.458 224.244 303.248 224.213C303.31 224.21 303.376 224.267 303.44 224.295C302.304 224.457 301.748 224.172 301.53 223.315C301.345 222.596 301.792 221.83 302.547 221.569C302.673 221.525 302.793 221.495 302.853 221.657C302.848 221.69 302.846 221.724 302.846 221.756L302.848 221.757Z" fill="#F48B58"/>
<path d="M302.848 221.758C302.848 221.724 302.848 221.692 302.854 221.659C303.829 221.465 304.182 221.645 304.613 222.554C304.352 222.606 304.26 222.419 304.141 222.263C303.821 221.845 303.355 221.754 302.848 221.759V221.758Z" fill="#F48F5F"/>
<path d="M303.831 223.86C303.296 223.848 303.359 223.334 302.993 223.267C302.708 223.365 302.989 223.751 302.62 223.863C302.4 223.358 302.487 222.834 302.531 222.336C302.567 221.929 302.973 222.11 303.215 222.121C303.574 222.139 303.885 222.432 303.707 222.694C303.41 223.131 303.659 223.443 303.831 223.86Z" fill="#F2814C"/>
</g>
<defs>
<clipPath id="clip0_511_706">
<rect width="86.6906" height="29.4421" fill="white" transform="translate(218.199 215.473)"/>
</clipPath>
</defs>
</svg>
