<svg width="432" height="385" viewBox="0 0 432 385" fill="none" xmlns="http://www.w3.org/2000/svg">
<g clip-path="url(#clip0_162_380)">
<path d="M357.531 234.651H182.521C181.123 234.649 179.784 234.093 178.795 233.105C177.807 232.117 177.251 230.777 177.249 229.38V170.34C177.251 168.942 177.806 167.603 178.795 166.614C179.783 165.626 181.123 165.07 182.52 165.069H357.53C358.927 165.07 360.267 165.626 361.255 166.614C362.244 167.603 362.799 168.942 362.801 170.34V229.381C362.8 230.779 362.244 232.119 361.256 233.107C360.268 234.095 358.928 234.651 357.53 234.653L357.531 234.651Z" fill="#D8DBFE"/>
<path d="M251.235 180.924H204.847V186.195H251.235V180.924Z" fill="#673DE6"/>
<path d="M312.192 187.249C313.939 187.249 315.355 185.833 315.355 184.086C315.355 182.339 313.939 180.923 312.192 180.923C310.445 180.923 309.029 182.339 309.029 184.086C309.029 185.833 310.445 187.249 312.192 187.249Z" fill="#673DE6"/>
<path d="M322.711 187.249C324.458 187.249 325.874 185.833 325.874 184.086C325.874 182.339 324.458 180.923 322.711 180.923C320.964 180.923 319.548 182.339 319.548 184.086C319.548 185.833 320.964 187.249 322.711 187.249Z" fill="#673DE6"/>
<path d="M333.229 187.249C334.976 187.249 336.392 185.833 336.392 184.086C336.392 182.339 334.976 180.923 333.229 180.923C331.482 180.923 330.066 182.339 330.066 184.086C330.066 185.833 331.482 187.249 333.229 187.249Z" fill="#673DE6"/>
<path d="M357.531 309.299H182.521C181.123 309.297 179.784 308.741 178.795 307.753C177.807 306.765 177.251 305.425 177.249 304.028V244.988C177.251 243.59 177.806 242.251 178.795 241.262C179.783 240.274 181.123 239.718 182.52 239.717H357.53C358.927 239.718 360.267 240.274 361.255 241.262C362.244 242.251 362.799 243.59 362.801 244.988V304.028C362.799 305.425 362.244 306.765 361.255 307.753C360.267 308.741 358.927 309.297 357.53 309.299H357.531Z" fill="#D8DBFE"/>
<path d="M251.235 255.606H204.847V260.877H251.235V255.606Z" fill="#673DE6"/>
<path d="M312.192 261.931C313.939 261.931 315.355 260.515 315.355 258.768C315.355 257.021 313.939 255.605 312.192 255.605C310.445 255.605 309.029 257.021 309.029 258.768C309.029 260.515 310.445 261.931 312.192 261.931Z" fill="#673DE6"/>
<path d="M322.711 261.931C324.458 261.931 325.874 260.515 325.874 258.768C325.874 257.021 324.458 255.605 322.711 255.605C320.964 255.605 319.548 257.021 319.548 258.768C319.548 260.515 320.964 261.931 322.711 261.931Z" fill="#673DE6"/>
<path d="M333.229 261.931C334.976 261.931 336.392 260.515 336.392 258.768C336.392 257.021 334.976 255.605 333.229 255.605C331.482 255.605 330.066 257.021 330.066 258.768C330.066 260.515 331.482 261.931 333.229 261.931Z" fill="#673DE6"/>
<path d="M357.531 383.943H182.521C181.123 383.941 179.784 383.386 178.795 382.398C177.807 381.409 177.251 380.07 177.249 378.672V319.632C177.251 318.235 177.806 316.895 178.795 315.907C179.783 314.919 181.123 314.363 182.52 314.361H357.53C358.927 314.363 360.267 314.919 361.255 315.907C362.244 316.895 362.799 318.235 362.801 319.632V378.672C362.799 380.07 362.244 381.409 361.255 382.397C360.267 383.386 358.927 383.941 357.53 383.943H357.531Z" fill="#D8DBFE"/>
<path d="M251.235 330.174H204.847V335.445H251.235V330.174Z" fill="#673DE6"/>
<path d="M312.192 336.5C313.939 336.5 315.355 335.084 315.355 333.337C315.355 331.59 313.939 330.174 312.192 330.174C310.445 330.174 309.029 331.59 309.029 333.337C309.029 335.084 310.445 336.5 312.192 336.5Z" fill="#673DE6"/>
<path d="M322.711 336.5C324.458 336.5 325.874 335.084 325.874 333.337C325.874 331.59 324.458 330.174 322.711 330.174C320.964 330.174 319.548 331.59 319.548 333.337C319.548 335.084 320.964 336.5 322.711 336.5Z" fill="#673DE6"/>
<path d="M333.229 336.5C334.976 336.5 336.392 335.084 336.392 333.337C336.392 331.59 334.976 330.174 333.229 330.174C331.482 330.174 330.066 331.59 330.066 333.337C330.066 335.084 331.482 336.5 333.229 336.5Z" fill="#673DE6"/>
<path d="M291.706 107.585L291.512 107.442C291.262 107.257 290.979 107.122 290.677 107.046C290.376 106.971 290.062 106.955 289.754 107C289.447 107.046 289.151 107.151 288.884 107.311C288.617 107.471 288.385 107.682 288.199 107.931L248.806 160.969H244.472V159.951C244.472 159.7 244.372 159.459 244.195 159.282C244.017 159.104 243.776 159.004 243.525 159.004H240.939C240.688 159.004 240.447 159.104 240.269 159.282C240.092 159.459 239.992 159.7 239.992 159.951V160.969H238.492V159.951C238.492 159.7 238.392 159.459 238.215 159.282C238.037 159.104 237.796 159.004 237.545 159.004H234.959C234.708 159.004 234.467 159.104 234.289 159.282C234.112 159.459 234.012 159.7 234.012 159.951V160.969H232.52V159.951C232.52 159.7 232.42 159.459 232.243 159.282C232.065 159.104 231.824 159.004 231.573 159.004H228.987C228.736 159.004 228.495 159.104 228.318 159.282C228.14 159.459 228.04 159.7 228.04 159.951V160.969H226.54V159.951C226.54 159.7 226.44 159.459 226.263 159.282C226.085 159.104 225.844 159.004 225.593 159.004H223.007C222.756 159.004 222.515 159.104 222.337 159.282C222.16 159.459 222.06 159.7 222.06 159.951V160.969H220.568V159.951C220.568 159.7 220.468 159.459 220.291 159.282C220.113 159.104 219.872 159.004 219.621 159.004H217.035C216.784 159.004 216.543 159.104 216.365 159.282C216.188 159.459 216.088 159.7 216.088 159.951V160.969H214.588V159.951C214.588 159.7 214.488 159.459 214.311 159.282C214.133 159.104 213.892 159.004 213.641 159.004H211.055C210.804 159.004 210.563 159.104 210.385 159.282C210.208 159.459 210.108 159.7 210.108 159.951V160.969H208.608V159.951C208.608 159.7 208.508 159.459 208.331 159.282C208.153 159.104 207.912 159.004 207.661 159.004H205.075C204.824 159.004 204.583 159.104 204.405 159.282C204.228 159.459 204.128 159.7 204.128 159.951V160.969H202.636V159.951C202.636 159.7 202.536 159.459 202.359 159.282C202.181 159.104 201.94 159.004 201.689 159.004H199.113C198.862 159.004 198.621 159.104 198.443 159.282C198.266 159.459 198.166 159.7 198.166 159.951V160.969H196.666V159.951C196.666 159.7 196.566 159.459 196.389 159.282C196.211 159.104 195.97 159.004 195.719 159.004H193.133C192.882 159.004 192.641 159.104 192.464 159.282C192.286 159.459 192.186 159.7 192.186 159.951V160.969H190.693V159.951C190.693 159.7 190.593 159.459 190.416 159.282C190.238 159.104 189.997 159.004 189.746 159.004H187.16C186.909 159.004 186.668 159.104 186.49 159.282C186.313 159.459 186.213 159.7 186.213 159.951V160.969H184.343C184.032 160.969 183.724 161.03 183.437 161.149C183.15 161.268 182.889 161.443 182.669 161.663C182.449 161.883 182.274 162.144 182.155 162.431C182.036 162.718 181.975 163.026 181.975 163.337V165.596C181.975 165.907 182.036 166.215 182.155 166.502C182.274 166.79 182.449 167.051 182.669 167.271C182.889 167.49 183.15 167.665 183.437 167.784C183.724 167.903 184.032 167.964 184.343 167.964H248.409C249.221 167.964 250.007 167.685 250.637 167.172C251.266 166.66 251.699 165.947 251.864 165.152L251.889 165.17L292.189 110.906C292.376 110.657 292.512 110.373 292.589 110.07C292.666 109.768 292.682 109.454 292.637 109.145C292.593 108.837 292.487 108.54 292.327 108.272C292.168 108.005 291.956 107.771 291.706 107.585V107.585Z" fill="#3F3D56"/>
<path d="M43.3003 363.831L51.2583 367.904L70.7523 339.147L59.0083 333.136L43.3003 363.831Z" fill="#FFB7B7"/>
<path d="M42.6041 360.194L58.2761 368.214C59.5878 368.885 60.7544 369.808 61.7093 370.93C62.6642 372.053 63.3887 373.352 63.8415 374.754C64.2943 376.156 64.4665 377.634 64.3482 379.102C64.2299 380.571 63.8235 382.002 63.1521 383.314L62.9861 383.639L37.3271 370.508L42.6041 360.194Z" fill="#2F2E41"/>
<path d="M134.897 374.971H143.837L148.09 340.491H134.896L134.897 374.971Z" fill="#FFB7B7"/>
<path d="M132.61 372.053H150.216C153.191 372.053 156.045 373.234 158.149 375.338C160.254 377.441 161.436 380.295 161.437 383.27V383.635H132.611L132.61 372.053Z" fill="#2F2E41"/>
<path d="M93.1952 94.3298C93.1952 94.3298 87.2092 89.7438 87.2092 100.946L86.2642 137.966L96.8181 172.943L102.962 161.601L100.441 137.026L93.1952 94.3298Z" fill="#E34978"/>
<path d="M157.433 194.98C157.433 194.98 164.375 228.786 155.582 256.529L150.723 363.199L132.91 361.811L126.663 282.676L120.642 243.338L108.147 279.203L66.9598 355.103L47.9858 340.294C47.9858 340.294 69.0119 282.923 84.5449 270.877L92.3348 182.148L157.433 194.98Z" fill="#2F2E41"/>
<path d="M153.857 38.8299C159.239 28.9852 155.621 16.6418 145.776 11.2602C135.931 5.87859 123.588 9.49671 118.206 19.3415C112.825 29.1862 116.443 41.5296 126.287 46.9112C136.132 52.2928 148.476 48.6747 153.857 38.8299Z" fill="#FFB7B7"/>
<path d="M134.587 33.393C137.022 33.71 138.859 31.218 139.711 28.915C140.563 26.612 141.211 23.93 143.33 22.686C146.223 20.986 149.924 23.031 153.23 22.47C156.966 21.837 159.395 17.878 159.585 14.093C159.775 10.308 158.269 6.66899 156.792 3.17999L156.276 7.51601C156.345 6.04638 156.036 4.58367 155.378 3.26776C154.72 1.95185 153.735 0.82673 152.518 0L153.183 6.362C153.042 5.48416 152.728 4.6429 152.261 3.88651C151.793 3.13011 151.181 2.47348 150.459 1.95428C149.738 1.43509 148.92 1.06355 148.054 0.861008C147.189 0.658463 146.291 0.628898 145.414 0.774002L145.514 4.565C141.216 3.90235 136.861 3.6892 132.519 3.929C128.148 4.18175 123.965 5.79346 120.554 8.539C115.648 12.802 113.854 19.822 114.454 26.294C115.054 32.766 117.727 38.845 120.511 44.718C121.211 46.196 122.18 47.863 123.805 48.051C124.542 48.0614 125.261 47.8265 125.849 47.3833C126.437 46.9401 126.861 46.3138 127.054 45.603C127.404 44.169 127.391 42.6705 127.015 41.243C126.44 39.0934 126.256 36.8577 126.473 34.643C126.859 32.457 128.431 30.297 130.635 30.029C132.839 29.761 135.093 32.28 134.035 34.229L134.587 33.393Z" fill="#2F2E41"/>
<path d="M158.446 204.459L90.6343 200.084L95.7343 178.938L157.712 192.793L158.446 204.459Z" fill="#FC5185"/>
<path d="M116.645 56.7888L120.898 50.8838C120.898 50.8838 125.652 52.4998 138.384 58.8368L139.284 64.3698L161.384 200.301L121.213 198.568L110.274 198.335L106.694 190.31L102.28 198.165L91.597 197.938L80.7271 191.638L91.4391 158.871L94.9051 128.94L89.549 100.74C89.549 100.74 82.8091 74.8458 108.768 60.8838L116.645 56.7888Z" fill="#FC5185"/>
<path d="M206.979 159.358C205.995 159.608 204.969 159.639 203.972 159.449C202.974 159.26 202.031 158.854 201.208 158.26C200.384 157.666 199.701 156.899 199.207 156.013C198.712 155.126 198.417 154.142 198.344 153.13L174.512 146.747L184.099 138.234L205.261 145.601C206.97 145.591 208.622 146.209 209.906 147.336C211.19 148.463 212.016 150.021 212.227 151.717C212.439 153.412 212.022 155.126 211.055 156.534C210.087 157.942 208.637 158.947 206.979 159.358V159.358Z" fill="#FFB7B7"/>
<path d="M196.419 155.879C195.918 156.152 195.365 156.316 194.797 156.361C194.228 156.406 193.657 156.331 193.119 156.141L153.91 141.261C144.345 137.871 136.338 131.121 131.377 122.269L115.03 93.104C112.751 90.5099 111.59 87.1203 111.799 83.6739C112.009 80.2274 113.572 77.0033 116.148 74.7041C118.724 72.4048 122.104 71.2167 125.552 71.3986C129 71.5804 132.236 73.1176 134.556 75.675L162.856 120.527L198.467 141.411C199.165 141.869 199.705 142.53 200.015 143.305C200.325 144.081 200.39 144.932 200.2 145.745L198.429 153.245C198.239 154.05 197.807 154.778 197.193 155.331C196.957 155.544 196.698 155.727 196.419 155.879V155.879Z" fill="#E34978"/>
<path d="M430.68 385.001H0.456078C0.329468 384.982 0.213917 384.918 0.130409 384.821C0.0469018 384.724 0.000976563 384.6 0.000976562 384.472C0.000976563 384.344 0.0469018 384.22 0.130409 384.123C0.213917 384.026 0.329468 383.962 0.456078 383.943H430.68C430.807 383.962 430.922 384.026 431.006 384.123C431.089 384.22 431.135 384.344 431.135 384.472C431.135 384.6 431.089 384.724 431.006 384.821C430.922 384.918 430.807 384.982 430.68 385.001Z" fill="#CBCBCB"/>
</g>
<defs>
<clipPath id="clip0_162_380">
<rect width="431.136" height="385" fill="white"/>
</clipPath>
</defs>
</svg>
