<svg width="434" height="400" viewBox="0 0 434 400" fill="none" xmlns="http://www.w3.org/2000/svg">
<path opacity="0.5" d="M286.204 250.082C278.559 250.092 208.809 249.125 170.696 196.834C150.409 169 136.796 123.485 156.683 98.685C162.556 91.3617 165.634 92.973 197.026 75.6373C240.116 51.8426 239.915 45.7166 257.752 40.2719C280.974 33.1842 315.284 33.1995 340.986 50.6031C370.149 70.3521 374.462 103.168 378.782 136.037C383.021 168.294 387.316 200.976 364.768 225.048C341.392 250.002 303.822 250.056 286.204 250.082Z" fill="#E8EDF2"/>
<path opacity="0.5" d="M390.55 230.033C390.343 229.908 390.275 229.638 390.399 229.431C391.293 227.939 392.173 226.412 393.01 224.89C393.127 224.678 393.393 224.601 393.605 224.718C393.818 224.835 393.893 225.101 393.776 225.312C392.933 226.843 392.05 228.381 391.148 229.882C391.067 230.019 390.922 230.095 390.773 230.095C390.695 230.095 390.618 230.074 390.548 230.033H390.55ZM397.195 217.699C396.976 217.595 396.883 217.335 396.985 217.116C397.729 215.543 398.453 213.936 399.136 212.339C399.23 212.116 399.489 212.014 399.711 212.109C399.934 212.205 400.038 212.461 399.942 212.684C399.253 214.291 398.525 215.909 397.778 217.489C397.702 217.648 397.546 217.74 397.381 217.74C397.319 217.74 397.255 217.727 397.195 217.699ZM402.59 204.77C402.362 204.689 402.243 204.439 402.324 204.21C402.907 202.575 403.469 200.904 403.994 199.245C404.067 199.015 404.313 198.886 404.543 198.96C404.773 199.033 404.901 199.279 404.83 199.509C404.303 201.178 403.737 202.86 403.151 204.505C403.086 204.684 402.918 204.795 402.737 204.795C402.688 204.795 402.639 204.787 402.59 204.769V204.77ZM406.68 191.373C406.446 191.314 406.303 191.077 406.361 190.843C406.78 189.155 407.175 187.439 407.531 185.738C407.58 185.5 407.812 185.349 408.05 185.398C408.286 185.447 408.439 185.679 408.39 185.917C408.031 187.627 407.635 189.357 407.212 191.054C407.163 191.254 406.984 191.386 406.788 191.386C406.752 191.386 406.718 191.382 406.682 191.373H406.68ZM409.427 177.639C409.188 177.603 409.022 177.383 409.057 177.143C409.308 175.423 409.531 173.675 409.718 171.948C409.744 171.708 409.961 171.533 410.201 171.559C410.442 171.585 410.616 171.8 410.589 172.042C410.401 173.781 410.176 175.54 409.923 177.27C409.891 177.488 409.704 177.645 409.491 177.645C409.471 177.645 409.45 177.645 409.427 177.639ZM125.822 169.203C125.667 167.461 125.544 165.692 125.454 163.944C125.441 163.702 125.627 163.497 125.869 163.483C126.11 163.468 126.316 163.657 126.329 163.898C126.42 165.635 126.542 167.395 126.695 169.126C126.716 169.368 126.539 169.579 126.258 169.603C126.033 169.603 125.843 169.432 125.822 169.203ZM410.812 163.704C410.57 163.693 410.384 163.487 410.395 163.246C410.476 161.511 410.527 159.749 410.546 158.009C410.55 157.769 410.744 157.575 410.989 157.575C411.231 157.577 411.425 157.777 411.423 158.018C411.404 159.77 411.353 161.543 411.27 163.287C411.259 163.521 411.067 163.704 410.833 163.704C410.825 163.704 410.819 163.704 410.812 163.704ZM125.701 155.6C125.46 155.6 125.265 155.4 125.267 155.159C125.282 153.407 125.329 151.634 125.409 149.89C125.42 149.648 125.626 149.463 125.865 149.471C126.107 149.482 126.293 149.686 126.284 149.927C126.207 151.662 126.159 153.424 126.144 155.165C126.142 155.406 125.946 155.598 125.707 155.598H125.703L125.701 155.6ZM410.378 149.282C410.291 147.545 410.172 145.788 410.023 144.056C410.003 143.815 410.182 143.604 410.421 143.583C410.663 143.562 410.874 143.741 410.895 143.981C411.046 145.722 411.165 147.491 411.251 149.239C411.263 149.48 411.078 149.686 410.814 149.699C410.582 149.699 410.387 149.516 410.376 149.282H410.378ZM126.459 141.616C126.218 141.59 126.044 141.375 126.071 141.133C126.256 139.392 126.476 137.633 126.725 135.903C126.759 135.664 126.982 135.498 127.222 135.532C127.461 135.566 127.627 135.788 127.593 136.028C127.346 137.746 127.127 139.496 126.944 141.226C126.92 141.45 126.731 141.616 126.508 141.616C126.493 141.616 126.476 141.616 126.461 141.614L126.459 141.616ZM409.006 135.389C408.752 133.67 408.461 131.932 408.142 130.223C408.097 129.985 408.256 129.757 408.493 129.712C408.731 129.669 408.959 129.825 409.005 130.063C409.325 131.783 409.618 133.531 409.874 135.26C409.91 135.5 409.744 135.722 409.44 135.762C409.227 135.762 409.04 135.605 409.008 135.389H409.006ZM128.58 127.773C128.344 127.724 128.191 127.492 128.24 127.256C128.597 125.542 128.989 123.813 129.406 122.117C129.465 121.883 129.702 121.738 129.936 121.797C130.17 121.855 130.316 122.093 130.257 122.327C129.842 124.011 129.452 125.731 129.099 127.434C129.055 127.641 128.874 127.783 128.67 127.783C128.64 127.783 128.612 127.779 128.582 127.773H128.58ZM406.277 121.697C405.854 120.012 405.392 118.311 404.907 116.64C404.839 116.408 404.973 116.165 405.205 116.097C405.437 116.029 405.68 116.163 405.748 116.395C406.237 118.076 406.701 119.786 407.127 121.482C407.186 121.716 407.044 121.955 406.703 122.027C406.507 122.027 406.328 121.895 406.278 121.695L406.277 121.697ZM132.057 114.206C131.825 114.134 131.697 113.889 131.77 113.657C132.293 111.986 132.855 110.304 133.438 108.657C133.519 108.429 133.77 108.31 133.996 108.391C134.225 108.472 134.343 108.723 134.262 108.95C133.681 110.587 133.125 112.259 132.604 113.919C132.545 114.106 132.372 114.226 132.187 114.226C132.144 114.226 132.098 114.221 132.057 114.206ZM402.209 108.339C401.619 106.698 400.99 105.046 400.34 103.429C400.249 103.205 400.358 102.95 400.583 102.86C400.807 102.769 401.062 102.879 401.153 103.103C401.807 104.729 402.439 106.39 403.034 108.042C403.115 108.271 402.998 108.521 402.62 108.629C402.441 108.629 402.273 108.518 402.209 108.339ZM136.852 101.063C136.63 100.968 136.526 100.71 136.62 100.487C137.303 98.8824 138.026 97.2681 138.767 95.6895C138.869 95.4708 139.131 95.3765 139.35 95.4802C139.569 95.5839 139.663 95.8442 139.562 96.0629C138.824 97.632 138.105 99.237 137.428 100.831C137.356 100.997 137.196 101.097 137.024 101.097C136.968 101.097 136.909 101.085 136.852 101.061V101.063ZM396.829 95.4255C396.082 93.8545 395.293 92.2741 394.486 90.7295C394.374 90.5145 394.457 90.2505 394.67 90.1392C394.885 90.0279 395.15 90.1109 395.261 90.324C396.074 91.878 396.866 93.4679 397.619 95.0483C397.723 95.2671 397.63 95.5273 397.412 95.6329C397.351 95.6612 397.287 95.6763 397.223 95.6763C397.059 95.6763 396.902 95.5839 396.827 95.4255H396.829ZM142.916 88.4626C142.703 88.3457 142.625 88.0798 142.742 87.8685C143.582 86.3353 144.461 84.7982 145.353 83.3008C145.478 83.0933 145.746 83.0254 145.953 83.148C146.161 83.2725 146.229 83.5403 146.104 83.7477C145.216 85.2376 144.342 86.7653 143.508 88.2872C143.429 88.4324 143.278 88.5154 143.123 88.5154C143.052 88.5154 142.98 88.4984 142.914 88.4607L142.916 88.4626ZM390.203 83.1122C389.305 81.6223 388.366 80.1286 387.411 78.6727C387.279 78.4709 387.335 78.1993 387.537 78.0654C387.739 77.9334 388.011 77.99 388.145 78.1918C389.105 79.6571 390.05 81.1602 390.954 82.6596C391.078 82.867 391.012 83.1348 390.805 83.2612C390.735 83.3046 390.656 83.3253 390.578 83.3253C390.429 83.3253 390.284 83.2499 390.203 83.1141V83.1122ZM150.192 76.5114C149.992 76.3756 149.941 76.1021 150.077 75.9022C151.062 74.4595 152.088 73.0149 153.126 71.6098C153.269 71.4156 153.545 71.3741 153.739 71.5174C153.933 71.6608 153.975 71.9361 153.832 72.1304C152.8 73.5278 151.781 74.963 150.802 76.3982C150.717 76.5227 150.579 76.5887 150.44 76.5887C150.355 76.5887 150.268 76.5642 150.192 76.5133V76.5114ZM382.402 71.5137C381.363 70.1199 380.282 68.7262 379.191 67.3702C379.04 67.1817 379.069 66.9063 379.257 66.7535C379.446 66.6027 379.721 66.631 379.874 66.8195C380.972 68.1831 382.059 69.5862 383.106 70.9875C383.251 71.1817 383.211 71.4552 383.017 71.6004C382.938 71.6589 382.845 71.6872 382.755 71.6872C382.621 71.6872 382.489 71.6268 382.404 71.5118L382.402 71.5137ZM158.606 65.324C158.422 65.1694 158.397 64.8921 158.552 64.7073C159.674 63.3683 160.836 62.0293 162.006 60.7298C162.168 60.5507 162.446 60.5356 162.625 60.6978C162.804 60.86 162.819 61.1372 162.657 61.3164C161.493 62.6082 160.338 63.9378 159.223 65.2693C159.137 65.373 159.012 65.4258 158.888 65.4258C158.788 65.4258 158.688 65.3919 158.606 65.324ZM373.507 60.7393C372.335 59.455 371.126 58.1725 369.907 56.9316C369.738 56.7581 369.741 56.4808 369.913 56.313C370.087 56.1432 370.364 56.147 370.532 56.3186C371.756 57.5671 372.975 58.8571 374.152 60.149C374.314 60.3281 374.303 60.6054 374.124 60.7676C374.039 60.8449 373.933 60.8807 373.83 60.8807C373.711 60.8807 373.592 60.8336 373.505 60.7374L373.507 60.7393ZM168.077 55.006C167.907 54.8325 167.909 54.5553 168.083 54.3874C169.332 53.1616 170.62 51.9414 171.911 50.7627C172.09 50.5986 172.367 50.6118 172.529 50.7909C172.692 50.9701 172.68 51.2473 172.501 51.4095C171.216 52.5807 169.937 53.7934 168.696 55.0117C168.611 55.0947 168.5 55.138 168.388 55.138C168.277 55.138 168.162 55.0947 168.075 55.0079L168.077 55.006ZM363.608 50.8871C362.318 49.7235 360.988 48.5655 359.658 47.4491C359.473 47.2944 359.448 47.0172 359.603 46.8323C359.758 46.6475 360.035 46.623 360.22 46.7777C361.559 47.8998 362.897 49.0634 364.195 50.2365C364.374 50.3987 364.389 50.6759 364.227 50.8551C364.14 50.9512 364.021 51.0003 363.901 51.0003C363.797 51.0003 363.691 50.9626 363.608 50.8871ZM178.514 45.6574C178.363 45.4688 178.391 45.1935 178.58 45.0407C179.944 43.9412 181.345 42.8511 182.745 41.8063C182.939 41.6611 183.213 41.7007 183.358 41.895C183.503 42.0892 183.464 42.3627 183.27 42.5079C181.877 43.547 180.485 44.6296 179.129 45.7234C179.047 45.7894 178.949 45.8215 178.853 45.8215C178.725 45.8215 178.598 45.7649 178.512 45.6593L178.514 45.6574ZM352.798 42.0515C351.4 41.018 349.965 39.9977 348.533 39.0189C348.333 38.8831 348.282 38.6097 348.418 38.4097C348.553 38.2098 348.827 38.1589 349.027 38.2947C350.468 39.281 351.911 40.307 353.319 41.3461C353.513 41.4895 353.555 41.7648 353.411 41.9591C353.324 42.076 353.192 42.1364 353.058 42.1364C352.968 42.1364 352.877 42.1081 352.798 42.0496V42.0515ZM189.818 37.3687C189.686 37.1669 189.74 36.8953 189.944 36.7614C191.408 35.7996 192.912 34.8547 194.41 33.9476C194.617 33.8231 194.887 33.8891 195.012 34.0966C195.136 34.3041 195.07 34.5719 194.862 34.6982C193.374 35.5978 191.88 36.5389 190.423 37.4932C190.35 37.5422 190.267 37.5648 190.184 37.5648C190.04 37.5648 189.901 37.4951 189.818 37.3668V37.3687ZM341.184 34.3154C339.694 33.4252 338.166 32.5501 336.645 31.7165C336.432 31.5996 336.355 31.3337 336.472 31.1225C336.589 30.9112 336.855 30.832 337.066 30.949C338.596 31.7882 340.134 32.6689 341.633 33.5648C341.841 33.6892 341.909 33.957 341.784 34.1645C341.703 34.3022 341.556 34.3776 341.407 34.3776C341.33 34.3776 341.252 34.3569 341.183 34.3154H341.184ZM201.888 30.2248C201.775 30.0098 201.858 29.7457 202.073 29.6345C203.626 28.8216 205.216 28.0276 206.797 27.2733C207.016 27.1695 207.276 27.2619 207.382 27.4788C207.485 27.6976 207.393 27.9579 207.174 28.0635C205.603 28.8122 204.024 29.6024 202.479 30.4115C202.414 30.4454 202.345 30.4605 202.277 30.4605C202.118 30.4605 201.967 30.3756 201.888 30.2266V30.2248ZM328.875 27.7598C327.305 27.0205 325.701 26.302 324.107 25.6212C323.885 25.5269 323.781 25.2685 323.875 25.046C323.97 24.8234 324.228 24.7197 324.451 24.814C326.056 25.4986 327.669 26.2228 329.248 26.9659C329.467 27.0696 329.561 27.3298 329.458 27.5486C329.382 27.707 329.226 27.7994 329.061 27.7994C328.999 27.7994 328.935 27.7862 328.875 27.758V27.7598ZM214.607 24.301C214.517 24.0766 214.624 23.822 214.849 23.7315C216.477 23.0752 218.139 22.4415 219.788 21.8455C220.016 21.7644 220.267 21.8814 220.348 22.1096C220.429 22.3378 220.312 22.5886 220.084 22.6697C218.445 23.26 216.794 23.8918 215.013 24.5745C214.839 24.5745 214.675 24.4708 214.607 24.2991V24.301ZM315.987 22.4509C314.35 21.8682 312.678 21.3099 311.02 20.7875C310.79 20.7158 310.662 20.4688 310.733 20.2387C310.805 20.0067 311.052 19.8804 311.282 19.952C312.952 20.4763 314.635 21.0402 316.282 21.6249C316.51 21.706 316.629 21.9568 316.548 22.185C316.484 22.3642 316.316 22.4773 316.135 22.4773C316.086 22.4773 316.037 22.4698 315.987 22.4509ZM227.843 19.6654C227.775 19.4334 227.909 19.1901 228.141 19.1222C229.821 18.6319 231.532 18.1661 233.23 17.738C233.463 17.6795 233.703 17.8209 233.762 18.0548C233.82 18.2886 233.679 18.5282 233.445 18.5866C231.758 19.011 230.058 19.4749 228.266 19.9803C228.075 19.9803 227.902 19.8559 227.845 19.6654H227.843ZM302.612 18.4301C300.925 18.0133 299.206 17.621 297.503 17.2665C297.265 17.2174 297.114 16.9855 297.163 16.7478C297.212 16.5102 297.444 16.3593 297.682 16.4084C299.395 16.7648 301.125 17.159 302.823 17.5795C303.057 17.638 303.202 17.8756 303.144 18.1095C303.095 18.3094 302.915 18.4414 302.719 18.4414C302.683 18.4414 302.649 18.4376 302.614 18.4282L302.612 18.4301ZM241.457 16.365C241.412 16.1274 241.568 15.8992 241.806 15.8539C243.525 15.5314 245.273 15.2372 247.005 14.9788C247.247 14.943 247.467 15.1089 247.503 15.3485C247.539 15.588 247.373 15.8105 247.135 15.8464C245.415 16.1028 243.677 16.3952 241.887 16.7233C241.679 16.7233 241.496 16.5762 241.457 16.365ZM288.904 15.7502C287.185 15.5012 285.436 15.2806 283.706 15.0957C283.465 15.0693 283.291 14.8543 283.318 14.6129C283.344 14.3715 283.557 14.198 283.801 14.2244C285.542 14.4112 287.3 14.6337 289.03 14.8845C289.27 14.9185 289.436 15.141 289.402 15.3805C289.37 15.5993 289.183 15.7558 288.968 15.7558C288.947 15.7558 288.927 15.7558 288.904 15.7502ZM255.331 14.4225C255.31 14.1811 255.487 13.9698 255.729 13.9472C257.47 13.7963 259.24 13.6737 260.988 13.5851C261.234 13.5738 261.436 13.7586 261.449 14C261.46 14.2414 261.275 14.447 261.034 14.4602C259.296 14.5488 257.536 14.6695 255.768 14.8223C255.544 14.8223 255.353 14.6507 255.333 14.4225H255.331ZM275 14.4281C273.264 14.3489 271.502 14.298 269.761 14.281C269.52 14.2791 269.325 14.0811 269.327 13.8397C269.329 13.5983 269.525 13.4059 269.769 13.4059C271.519 13.4229 273.293 13.4738 275.04 13.553C275.281 13.5644 275.468 13.768 275.457 14.0113C275.445 14.2452 275.253 14.43 275.019 14.43C275.011 14.43 275.006 14.43 274.998 14.43L275 14.4281Z" fill="#2F2E41"/>
<path d="M182.43 267.364L182.503 293.289C182.507 294.385 183.225 295.481 184.662 296.316L184.588 270.391C183.151 269.557 182.433 268.462 182.43 267.364Z" fill="#DEDFFB"/>
<path d="M342.097 293.236L342.023 267.312C342.026 268.423 341.294 269.535 339.831 270.381L339.904 296.306C341.368 295.46 342.1 294.348 342.097 293.236Z" fill="#DEDFFB"/>
<path d="M339.833 270.373L339.895 296.31L267.31 338.243C264.393 339.904 259.659 339.904 256.775 338.243L184.659 296.31L184.596 270.405C181.712 268.711 181.712 265.983 184.627 264.289L257.213 222.357C260.129 220.695 264.863 220.695 267.748 222.357L339.864 264.289C342.748 265.952 342.748 268.711 339.832 270.373H339.833Z" fill="#DEDFFB"/>
<path d="M184.587 270.39L184.661 296.315L256.778 338.236L256.704 312.311L184.587 270.39Z" fill="#D1E8FD"/>
<path d="M267.226 312.311L267.299 338.236L339.904 296.306L339.831 270.381L267.226 312.311Z" fill="#D1E8FD"/>
<path d="M256.704 312.311L256.778 338.236C259.668 339.916 264.39 339.916 267.299 338.236L267.226 312.311C264.316 313.991 259.594 313.991 256.704 312.311Z" fill="#DEDFFB"/>
<path d="M184.622 264.295C181.713 265.975 181.697 268.71 184.588 270.391L256.705 312.312C259.595 313.992 264.317 313.992 267.227 312.312L339.832 270.382C342.741 268.702 342.757 265.967 339.866 264.286L267.749 222.365C264.858 220.685 260.137 220.685 257.227 222.365L184.622 264.295Z" fill="#F8F9FE"/>
<path d="M190.708 261.389L190.774 267.765C190.776 268.748 191.421 269.729 192.709 270.477L192.643 264.102C191.356 263.354 190.711 262.372 190.708 261.389Z" fill="#FC5185"/>
<path d="M333.819 267.718L333.753 261.343C333.755 262.338 333.101 263.336 331.788 264.094L331.853 270.47C333.166 269.711 333.821 268.715 333.819 267.718Z" fill="#FC5185"/>
<path d="M192.642 264.102L192.707 270.476L257.347 308.051L257.281 301.676L192.642 264.102Z" fill="#FC5185"/>
<path d="M266.712 301.676L266.778 308.051L331.854 270.468L331.788 264.094L266.712 301.676Z" fill="#DF3260"/>
<path d="M257.281 301.676L257.347 308.051C259.937 309.558 264.169 309.558 266.778 308.051L267.086 301.46C264.479 302.966 259.873 303.182 257.282 301.676H257.281Z" fill="#DF3260"/>
<path d="M192.672 258.638C190.065 260.144 190.051 262.596 192.642 264.102L257.281 301.676C259.871 303.182 264.103 303.182 266.712 301.676L331.789 264.094C334.396 262.588 334.41 260.136 331.819 258.63L267.18 221.056C264.59 219.55 260.358 219.55 257.749 221.056L192.672 258.638Z" fill="#FC5185"/>
<path d="M182.43 230.673L182.503 256.598C182.507 257.694 183.225 258.79 184.662 259.625L184.588 233.7C183.151 232.866 182.433 231.771 182.43 230.673Z" fill="#DEDFFB"/>
<path d="M342.097 256.546L342.023 230.621C342.026 231.732 341.294 232.845 339.831 233.69L339.904 259.615C341.368 258.769 342.1 257.657 342.097 256.546Z" fill="#DEDFFB"/>
<path d="M339.488 233.334L339.55 259.271L267.308 301.015L267.318 301.018C264.402 302.681 259.658 303.21 256.773 301.548L184.657 259.616L184.595 233.711C184.28 233.397 183.935 233.052 184.25 233.366C181.365 231.672 181.365 228.943 184.282 227.25L256.867 185.317C259.784 183.656 264.518 183.656 267.402 185.317L339.519 227.25C342.403 228.943 342.403 231.672 339.487 233.334H339.488Z" fill="#DEDFFB"/>
<path d="M184.587 233.699L184.661 259.624L256.778 301.545L256.704 275.62L184.587 233.699Z" fill="#D1E8FD"/>
<path d="M266.883 275.278L266.957 301.202L339.562 259.272L339.488 233.347L266.883 275.278Z" fill="#D1E8FD"/>
<path d="M256.704 275.62L256.778 301.545C259.668 303.225 264.4 302.696 267.31 301.015L267.226 275.62C264.316 277.3 259.594 277.3 256.704 275.62Z" fill="#DEDFFB"/>
<path d="M184.278 227.26C181.369 228.94 181.353 231.676 184.244 233.357L256.361 275.278C259.252 276.958 263.973 276.958 266.883 275.278L339.488 233.347C342.398 231.668 342.413 228.932 339.522 227.251L267.405 185.33C264.515 183.65 259.793 183.65 256.883 185.33L184.278 227.26Z" fill="#F8F9FE"/>
<path d="M190.708 224.698L190.774 231.074C190.776 232.057 191.421 233.039 192.709 233.787L192.643 227.411C191.356 226.663 190.711 225.681 190.708 224.698Z" fill="#FC5185"/>
<path d="M333.819 231.026L333.753 224.651C333.755 225.646 333.101 226.644 331.788 227.402L331.853 233.778C333.166 233.019 333.821 232.023 333.819 231.026Z" fill="#FC5185"/>
<path d="M192.642 227.411L192.707 233.786L257.347 271.359L257.281 264.985L192.642 227.411Z" fill="#FC5185"/>
<path d="M266.712 264.985L266.778 271.359L331.854 233.778L331.788 227.402L266.712 264.985Z" fill="#DF3260"/>
<path d="M256.774 264.853L257.346 271.359C259.937 272.866 264.168 272.866 266.777 271.359L267.07 264.984C264.462 266.49 259.365 266.358 256.774 264.852V264.853Z" fill="#DF3260"/>
<path d="M192.672 221.947C190.065 223.453 190.051 225.905 192.642 227.411L257.281 264.985C259.871 266.491 264.103 266.491 266.712 264.985L331.789 227.403C334.396 225.897 334.41 223.445 331.819 221.939L267.18 184.365C264.59 182.859 260.358 182.859 257.749 184.365L192.672 221.947Z" fill="#FC5185"/>
<path d="M182.43 193.981L182.503 219.906C182.507 221.003 183.225 222.098 184.662 222.933L184.588 197.009C183.151 196.174 182.433 195.079 182.43 193.981Z" fill="#DEDFFB"/>
<path d="M342.097 219.855L342.023 193.93C342.026 195.042 341.294 196.154 339.831 197L339.904 222.924C341.368 222.079 342.1 220.966 342.097 219.855Z" fill="#DEDFFB"/>
<path d="M339.833 196.984L339.895 222.921L267.31 264.853C264.393 266.547 259.659 266.547 256.775 264.853L184.659 222.921L184.596 197.015C181.712 195.322 181.712 192.593 184.627 190.9L257.213 148.967C260.129 147.304 264.863 147.304 267.748 148.967L339.864 190.9C342.748 192.593 342.748 195.322 339.832 196.984H339.833Z" fill="#DEDFFB"/>
<path d="M184.587 197.009L184.661 222.933L256.778 264.854L256.704 238.93L184.587 197.009Z" fill="#D1E8FD"/>
<path d="M267.226 238.93L267.299 264.854L339.904 222.924L339.831 197L267.226 238.93Z" fill="#D1E8FD"/>
<path d="M256.704 238.93L256.778 264.854C259.668 266.534 264.39 266.534 267.299 264.854L267.226 238.93C264.316 240.61 259.594 240.61 256.704 238.93Z" fill="#DEDFFB"/>
<path d="M184.622 190.912C181.713 192.592 181.697 195.328 184.588 197.009L256.705 238.93C259.595 240.61 264.317 240.61 267.227 238.93L339.832 197C342.741 195.32 342.757 192.584 339.866 190.903L267.749 148.982C264.858 147.302 260.137 147.302 257.227 148.982L184.622 190.912Z" fill="#F8F9FE"/>
<path d="M213.489 192.045C211.662 193.101 211.652 194.818 213.468 195.874L258.758 222.2C260.574 223.256 263.539 223.256 265.366 222.2L310.964 195.868C312.79 194.812 312.801 193.095 310.985 192.039L265.695 165.713C263.879 164.657 260.914 164.657 259.087 165.713L213.489 192.045Z" fill="#D1E8FD"/>
<path d="M335.842 207.383V217.172C335.882 218.57 334.883 220.288 333.645 221.007L273.533 255.726C272.295 256.446 271.296 255.886 271.296 254.448L271.256 244.699C271.256 243.261 272.255 241.582 273.493 240.864L333.606 206.145C334.844 205.425 335.842 205.985 335.842 207.383Z" fill="#DEDFFB"/>
<path d="M276.825 242.386C276.105 242.801 275.534 243.79 275.537 244.583L275.551 249.629C275.554 250.439 276.128 250.766 276.847 250.351L306.075 233.471C306.795 233.056 307.365 232.067 307.363 231.257L307.348 226.211C307.346 225.418 306.772 225.091 306.053 225.506L276.825 242.386Z" fill="#5094FF"/>
<path d="M326.869 213.91C325.257 214.84 323.939 217.124 323.944 218.978C323.948 220.831 325.276 221.587 326.889 220.656C328.501 219.726 329.803 217.451 329.798 215.597C329.792 213.744 328.483 212.979 326.87 213.91H326.869Z" fill="#673DE6"/>
<path d="M319.732 223.795C320.88 221.819 320.883 219.677 319.739 219.012C318.594 218.347 316.736 219.41 315.588 221.386C314.44 223.362 314.437 225.503 315.581 226.169C316.726 226.834 318.584 225.771 319.732 223.795Z" fill="#673DE6"/>
<path d="M335.842 244.07V253.859C335.882 255.258 334.883 256.975 333.645 257.694L273.533 292.414C272.295 293.133 271.296 292.574 271.296 291.136L271.256 281.387C271.256 279.948 272.255 278.27 273.493 277.551L333.606 242.832C334.844 242.112 335.842 242.672 335.842 244.07Z" fill="#DEDFFB"/>
<path d="M276.825 279.073C276.105 279.489 275.534 280.477 275.537 281.271L275.551 286.316C275.554 287.127 276.128 287.453 276.847 287.038L306.075 270.159C306.795 269.743 307.365 268.755 307.363 267.944L307.348 262.899C307.346 262.105 306.772 261.778 306.053 262.194L276.825 279.073Z" fill="#5094FF"/>
<path d="M326.869 250.597C325.257 251.528 323.939 253.811 323.944 255.665C323.95 257.519 325.276 258.274 326.889 257.344C328.501 256.413 329.803 254.138 329.798 252.285C329.794 250.431 328.483 249.666 326.87 250.597H326.869Z" fill="#673DE6"/>
<path d="M319.733 260.48C320.881 258.504 320.884 256.363 319.739 255.697C318.595 255.032 316.736 256.095 315.588 258.071C314.44 260.047 314.438 262.189 315.582 262.854C316.726 263.519 318.585 262.456 319.733 260.48Z" fill="#673DE6"/>
<path d="M335.842 244.07V253.859C335.882 255.258 334.883 256.975 333.645 257.694L273.533 292.414C272.295 293.133 271.296 292.574 271.296 291.136L271.256 281.387C271.256 279.948 272.255 278.27 273.493 277.551L333.606 242.832C334.844 242.112 335.842 242.672 335.842 244.07Z" fill="#DEDFFB"/>
<path d="M276.825 279.073C276.105 279.489 275.534 280.477 275.537 281.271L275.551 286.316C275.554 287.127 276.128 287.453 276.847 287.038L306.075 270.159C306.795 269.743 307.365 268.755 307.363 267.944L307.348 262.899C307.346 262.105 306.772 261.778 306.053 262.194L276.825 279.073Z" fill="#78E75A"/>
<path d="M326.869 250.597C325.257 251.528 323.939 253.811 323.944 255.665C323.95 257.519 325.276 258.274 326.889 257.344C328.501 256.413 329.803 254.138 329.798 252.285C329.794 250.431 328.483 249.666 326.87 250.597H326.869Z" fill="#4C5C75"/>
<path d="M319.733 260.48C320.881 258.504 320.884 256.363 319.739 255.697C318.595 255.032 316.736 256.095 315.588 258.071C314.44 260.047 314.438 262.189 315.582 262.854C316.726 263.519 318.585 262.456 319.733 260.48Z" fill="#4C5C75"/>
<path d="M335.842 280.758V290.546C335.882 291.945 334.883 293.662 333.645 294.382L273.533 329.101C272.295 329.821 271.296 329.261 271.296 327.823L271.256 318.074C271.256 316.636 272.255 314.957 273.493 314.238L333.606 279.519C334.844 278.8 335.842 279.359 335.842 280.758Z" fill="#DEDFFB"/>
<path d="M276.825 315.761C276.105 316.176 275.534 317.165 275.537 317.958L275.551 323.003C275.554 323.814 276.128 324.141 276.847 323.725L306.075 306.846C306.795 306.43 307.365 305.442 307.363 304.631L307.348 299.586C307.346 298.793 306.772 298.466 306.053 298.881L276.825 315.761Z" fill="#673DE6"/>
<path d="M326.869 287.284C325.257 288.215 323.939 290.499 323.944 292.352C323.95 294.206 325.276 294.962 326.889 294.031C328.501 293.1 329.803 290.826 329.798 288.972C329.794 287.119 328.483 286.354 326.87 287.284H326.869Z" fill="#F3A250"/>
<path d="M319.734 297.167C320.882 295.191 320.885 293.05 319.741 292.384C318.596 291.719 316.738 292.782 315.59 294.758C314.442 296.734 314.439 298.876 315.583 299.541C316.728 300.206 318.586 299.143 319.734 297.167Z" fill="#F3A250"/>
<path d="M274.287 204.003C267.676 207.798 256.872 207.798 250.262 204.003C243.59 200.115 243.528 193.87 250.139 190.043C256.751 186.186 267.524 186.186 274.195 190.043C280.898 193.869 280.898 200.114 274.287 204.003Z" fill="#DEDFFB"/>
<path d="M314.907 118.761C308.385 153.103 291.066 176.784 269.167 195.996C256.816 199.411 245.88 199.772 237.499 194.636C237.666 194.746 237.804 194.858 237.971 194.941L229.256 189.861C222.539 185.946 215.129 177.285 212.132 165.347C210.439 158.628 209.717 151.133 209.717 143.221L209.606 106.019C209.606 105.741 209.606 105.714 209.606 105.991C229.035 93.9701 244.911 78.0901 257.816 58.9888C270.778 63.1535 286.709 60.6547 306.11 50.2717L317.101 56.685C316.777 89.4618 318.478 100.256 314.908 118.761H314.907Z" fill="#497BFE"/>
<path d="M268.801 65.4043L257.818 58.99C270.771 63.1617 286.699 60.6629 306.122 50.2658L317.105 56.6801C297.683 67.0772 281.755 69.576 268.801 65.4043Z" fill="#57B3FE"/>
<path d="M237.964 194.929L229.245 189.85C222.533 185.936 215.126 177.286 212.13 165.344C210.445 158.631 209.727 151.123 209.702 143.22L209.603 106.007L220.601 112.426L220.7 149.639C220.751 165.831 223.976 186.771 237.964 194.929Z" fill="#57B3FE"/>
<path d="M220.59 112.416L209.607 106.002C229.025 93.9692 244.915 78.0932 257.817 58.989L268.8 65.4033C255.898 84.5065 240.007 100.384 220.59 112.416Z" fill="#497BFE"/>
<path d="M268.801 65.4043C281.754 69.576 297.682 67.0772 317.105 56.6801C316.774 89.059 318.483 99.9897 314.92 118.75C308.381 153.096 291.056 176.773 269.171 196.002C247.234 202.08 229.832 198.458 223.119 171.766C221.436 165.054 220.718 157.531 220.696 149.642L220.59 112.416C240.008 100.384 255.898 84.5075 268.8 65.4033L268.801 65.4043Z" fill="#5094FF"/>
<path d="M306.766 118.087C301.597 145.207 288.69 167.28 266.159 187.405C261.424 188.612 257.183 189.231 253.531 189.231C249.197 189.231 244.339 188.519 240.068 184.866C231.037 177.247 229.098 160.512 229.049 148.706L228.957 116.57C245.237 105.951 259.505 92.1125 271.421 75.3633C274.486 76.0134 277.642 76.3229 280.893 76.3229C288.042 76.3229 295.811 74.7746 304.075 71.6789C305.623 71.1525 307.201 70.5024 308.779 69.8212C308.458 91.0806 309.945 101.277 306.767 118.086L306.766 118.087Z" fill="#57B3FE"/>
<path d="M302.061 115.239C296.892 142.359 283.985 164.432 261.454 184.556C256.719 185.764 252.478 186.383 248.826 186.383C246.04 186.383 243.007 186.104 240.067 184.866C231.036 177.247 229.097 160.512 229.048 148.706L228.956 116.57C245.236 105.951 259.504 92.1125 271.42 75.3634C274.485 76.0134 277.641 76.3229 280.892 76.3229C288.042 76.3229 295.81 74.7746 304.074 71.679C303.792 88.1859 305.193 98.6755 302.062 115.238L302.061 115.239Z" fill="white"/>
<path d="M267.734 189.184C266.592 189.845 265.66 191.469 265.664 192.788C265.668 194.105 266.607 194.643 267.748 193.981C268.889 193.319 269.811 191.702 269.807 190.384C269.803 189.067 268.876 188.522 267.734 189.185V189.184Z" fill="#D1E8FD"/>
<path d="M227.883 113.689C227.883 115.303 226.745 117.308 225.339 118.115C223.933 118.922 222.765 118.264 222.765 116.65C222.765 115.035 223.901 113.031 225.339 112.224C226.745 111.417 227.883 112.075 227.883 113.689Z" fill="#D1E8FD"/>
<path d="M312.827 61.7706C311.417 62.5835 310.264 64.5757 310.269 66.1926C310.274 67.8094 311.434 68.4695 312.844 67.6566C314.254 66.8437 315.393 64.8594 315.388 63.2426C315.383 61.6257 314.237 60.9577 312.827 61.7696V61.7706Z" fill="#D1E8FD"/>
<path d="M289.509 126.637C292.497 124.911 294.924 126.294 294.934 129.728C294.944 133.144 292.548 137.321 289.545 139.055L241.897 166.572C238.917 168.293 236.491 166.91 236.481 163.485C236.471 160.028 238.894 155.867 241.862 154.152L289.509 126.636V126.637Z" fill="#FC5185"/>
<path d="M245.136 157.641L246.588 156.803V158.032L245.136 158.871L246.169 159.458L245.387 160.798L244.353 160.211L244.381 161.888L243.293 162.502V160.826L242.259 162.614L241.477 162.167L242.51 160.407L241.058 161.245V159.988L242.51 159.15L241.477 158.563L242.231 157.222L243.264 157.837V156.133L244.353 155.518V157.194L245.387 155.406L246.141 155.853L245.136 157.641Z" fill="#F5F5F5"/>
<path d="M262.257 147.723L263.709 146.885V148.142L262.257 148.98L263.291 149.567L262.536 150.908L261.503 150.321V151.997L260.414 152.612V150.936L259.38 152.724L258.626 152.277L259.631 150.489L258.179 151.327V150.097L259.631 149.259L258.599 148.673L259.38 147.332L260.414 147.919V146.242L261.474 145.628L261.503 147.304L262.508 145.516L263.291 145.963L262.257 147.723Z" fill="#F5F5F5"/>
<path d="M270.831 142.778L272.284 141.94V143.198L270.831 144.036L271.865 144.622L271.11 145.963L270.078 145.376V147.025L268.988 147.667V145.991L267.954 147.779L267.173 147.332L268.206 145.544L266.754 146.382V145.153L268.206 144.315L267.173 143.728L267.927 142.387L268.988 142.974L268.96 141.298L270.05 140.683V142.332L271.083 140.571L271.865 141.018L270.831 142.778Z" fill="#F5F5F5"/>
<path d="M255.162 153.087L253.711 153.925L254.744 154.512L253.962 155.853L252.929 155.267V156.943L251.839 157.558V155.881L250.806 157.669L250.052 157.222L251.085 155.462L249.633 156.3V155.043L251.085 154.205L250.052 153.618L250.806 152.277L251.839 152.863V151.187L252.929 150.573V152.25L253.962 150.461L254.715 150.908L253.711 152.668L255.134 151.83L255.162 153.087Z" fill="#F5F5F5"/>
<path opacity="0.5" d="M273.519 98.8845V105.644L270.806 107.292V100.532C270.766 97.1945 268.498 95.8421 265.663 97.5321C262.909 99.222 260.641 103.32 260.641 106.658V113.418L257.886 115.066V108.306C257.886 103.194 261.369 96.8559 265.662 94.2787C269.955 91.7015 273.478 93.7713 273.518 98.8835L273.519 98.8845Z" fill="#FC5185"/>
<path d="M276.582 120.996C276.582 121.246 276.474 121.496 276.296 121.71L266.723 132.073C266.115 132.752 265.258 133.145 264.329 133.217L256.006 133.86C255.398 133.896 254.863 133.431 254.863 132.824L254.827 115.171C254.827 114.885 254.934 114.6 255.148 114.421L264.901 105.095C265.401 104.594 266.044 104.273 266.723 104.165L275.296 102.45C275.939 102.308 276.547 102.808 276.547 103.451L276.583 120.996H276.582Z" fill="#FC5185"/>
<path d="M265.977 112.302C266.754 111.854 267.391 112.212 267.394 113.11L267.402 115.947C268.427 115.947 269.135 116.76 269.139 118.171C269.144 120.158 267.743 122.586 266.009 123.587C264.277 124.587 262.869 123.782 262.863 121.794C262.859 120.385 263.556 118.76 264.577 117.577L264.569 114.74C264.567 113.844 265.196 112.752 265.976 112.301L265.977 112.302Z" fill="white"/>
<path d="M67.2948 375.461C67.2948 375.461 75.2704 389.475 72.3331 394.127C69.3957 398.779 58.5429 399.433 56.258 390.128C53.9731 380.823 54.0946 378.546 53.057 376.341C52.0194 374.137 56.6664 370.212 56.9927 370.212L67.2948 375.461Z" fill="#939FBC"/>
<path d="M96.5871 356.589C96.5871 356.589 114.269 364.413 113.344 370.677C112.419 376.941 100.861 373.673 96.9305 370.677C93.001 367.682 90.6315 366.525 86.8172 367.137C83.003 367.749 77.5122 365.98 77.4545 362.712C77.3969 359.444 79.1188 356.312 79.1188 356.312L87.8573 351.07L96.5859 356.589H96.5871Z" fill="#939FBC"/>
<path d="M176.899 119.466C176.899 119.466 186.328 125.236 181.742 129.821C174.534 137.027 167.141 138.728 163.992 134.577C160.842 130.427 162.506 126.736 163.992 123.004C165.477 119.273 165.499 115.185 167.319 114.927C168.976 114.693 170.492 115.58 169.11 118.931C169.016 119.158 169.28 119.3 169.462 119.118C171.979 116.586 179.418 109.598 182.192 112.439C183.948 114.239 176.899 119.465 176.899 119.465V119.466Z" fill="#F4D6D4"/>
<path d="M92.3451 103.232C92.0066 103.484 81.6774 117.275 67.1158 114.252C62.5044 117.825 67.0618 127.104 67.0618 127.104H64.8726C64.8726 127.104 61.0682 118.812 57.9824 122.042C54.8599 125.22 61.4999 133.189 61.4999 133.189L59.5081 140.629C59.5081 140.629 44.1125 113.75 52.1335 106.266C52.1335 106.266 54.5741 93.5222 67.404 93.7197C80.2523 93.8633 84.6663 102.891 92.3463 103.232H92.3451Z" fill="#2F2E41"/>
<path d="M65.7656 117.915C66.0085 117.019 66.4193 116.195 67.0742 115.517C66.4205 116.171 66.0085 116.995 65.7656 117.915Z" fill="#AA6256"/>
<path d="M80.0537 142.61C80.3493 145.405 79.476 148.704 78.0681 150.989C78.0681 150.989 64.4766 155.317 58.4277 145.052C58.5173 144.706 61.706 132.405 61.5024 133.189C61.5024 133.189 62.7007 134.287 64.6777 135.685C68.1118 138.201 73.8025 141.776 79.4135 142.516C79.4527 142.516 79.9556 142.612 80.0549 142.612L80.0537 142.61Z" fill="#F5C9C6"/>
<path d="M105.606 284.696C100.793 317.373 98.6246 357.542 98.6246 357.542C90.8514 361.083 86.863 360.116 78.9695 356.491L75.9868 291.272L81.5782 249.375L83.543 234.529L102.385 232.495C102.385 232.495 110.417 252.053 105.604 284.696H105.606Z" fill="#2F2E41"/>
<path d="M60.0896 146.123C60.0896 146.123 66.9553 155.241 66.9773 155.422C67.0227 155.579 70.7143 170.237 71.0516 170.53C71.3889 170.824 81.5635 186.54 81.5635 186.54L90.703 193.498C90.703 193.498 93.4723 189.31 93.4723 189.062C93.4723 188.814 93.8096 171.228 93.6293 170.982C93.4723 170.734 86.8016 145.187 86.8016 145.187C80.7847 156.225 71.0957 155.195 60.0884 146.124L60.0896 146.123Z" fill="white"/>
<path d="M78.0669 150.988L83.5785 155.198L82.2429 158.772L92.3452 182.273L90.6711 189.715L86.7403 184.236L79.5742 159.307L76.4062 157.099L78.0669 150.988Z" fill="#FC5185"/>
<path d="M88.9322 359.71C86.12 359.473 83.1029 358.389 78.9686 356.49L75.9858 291.271L81.5772 249.374C83.7456 251.543 84.1184 255.407 84.7292 258.628C85.3731 261.915 86.5934 265.068 87.5758 268.254C92.354 284.254 89.8803 301.372 87.9143 317.948C86.288 331.846 85.1351 346.422 88.931 359.71H88.9322Z" fill="#44546B"/>
<path d="M88.357 254.053C88.9666 261.612 67.5835 375.948 67.5835 375.948C61.9357 378.282 58.2441 379.605 53.0452 376.355C48.0633 357.643 49.7239 335.644 52.232 312.628C54.7058 289.611 46.8442 256.189 46.8442 256.189C46.8442 256.189 52.47 254.866 59.5858 253.545C71.6504 251.376 87.9842 249.308 88.357 254.053Z" fill="#2F2E41"/>
<path d="M171.21 136.497C164.736 147.65 156.231 155.31 147.488 163.005C145.691 164.599 143.455 165.649 141.049 165.989C128.578 167.854 107.364 163.515 101.399 160.26L79.5068 141.82L90.2297 137.041C98.1255 136.566 114.242 143.074 130.61 149.311C135.219 150.599 140.201 149.142 143.319 145.514L162.872 126.498C167.074 128.905 168.6 130.939 171.208 136.497H171.21Z" fill="#2F2E41"/>
<path d="M94.0232 173.837C94.3776 174.164 92.4043 185.404 90.7952 190.123C90.6038 190.614 92.3859 203.413 92.3859 203.413L87.4212 208.706L91.1042 253.208C91.2404 253.535 91.4047 253.808 91.5678 254.053C93.4504 256.946 97.4867 256.264 103.215 255.063C109.435 253.752 108.944 245.131 108.944 245.131C108.944 245.131 107.743 223.822 105.508 212.962C104.498 208.161 104.008 195.418 103.544 182.103C104.265 170.237 103.992 158.982 102.071 148.738C101.179 143.984 98.0103 139.903 93.4946 138.176C87.4604 135.867 80.1128 134.954 80.1128 134.954L86.9601 143.139C86.9601 143.139 89.6877 158.555 90.0421 158.555C90.4235 158.555 93.8331 173.48 94.0244 173.834L94.0232 173.837Z" fill="#673DE6"/>
<path d="M92.1161 199.573C92.5232 202.488 92.6986 205.431 92.641 208.373L91.7457 253.848C91.7113 253.915 91.6095 253.983 91.5764 254.052C91.4072 253.815 91.2379 253.544 91.1018 253.204L87.4077 208.697L90.7964 190.121L92.1161 199.572V199.573Z" fill="#2F2E41"/>
<path d="M62.8727 281.509C62.8383 294.662 62.6691 307.779 62.1613 320.932C61.9921 324.627 61.8228 328.322 61.3482 332.016C59.6214 345.535 55.6931 351.808 58.5691 369.202C59.0437 372.049 60.1953 375.167 60.3989 378.218C58.0944 378.489 55.7568 378.049 53.0452 376.354C48.0633 357.642 49.7239 335.643 52.232 312.626C54.7058 289.61 46.8442 256.187 46.8442 256.187C46.8442 256.187 52.47 254.865 59.5858 253.544C62.7034 262.289 62.8727 272.085 62.8727 281.509Z" fill="#44546B"/>
<path d="M48.0446 257.192C55.6351 260 80.895 267.912 91.115 253.208L90.763 190.793C89.9339 191.103 70.301 155.283 56.7365 137.664L52.2158 144.81C52.2158 144.81 36.7699 157.172 36.2805 160.646C35.7924 164.135 48.2813 188.827 49.6623 199.197C50.9648 208.987 49.8855 241.029 46.4944 254.166C46.1669 255.435 46.8157 256.737 48.0446 257.192Z" fill="#673DE6"/>
<path d="M57.2095 137.02L58.7499 135.921C58.7499 135.921 67.1376 149.948 78.0677 150.992L76.1421 158.066C76.1421 158.066 63.4717 154.167 58.041 147.76C55.0975 144.289 53.5338 139.643 57.2095 137.02Z" fill="#DEDFFB"/>
<path d="M78.0684 150.992C78.0684 150.992 81.2498 144.354 79.7057 134.949L86.7246 146.297C86.407 149.689 85.4884 152.748 83.8707 155.419L78.0684 150.99V150.992Z" fill="#DEDFFB"/>
<path d="M56.792 219.715C56.9661 219.663 60.5412 219.219 62.8151 218.938C64.3383 218.75 65.6641 218.279 67.1837 218.495C68.8014 218.724 71.1758 219.165 72.0257 219.928C73.652 221.389 75.2611 223.568 73.5367 223.527C71.8123 223.487 66.3534 222.027 66.7544 222.908C67.1555 223.787 70.3283 226.179 73.8126 227.407C77.297 228.635 78.2389 229.795 76.6825 231.551C75.1262 233.309 64.7982 235.449 59.6447 227.106L57.4653 225.543L56.792 219.714V219.715Z" fill="#F4D6D4"/>
<path d="M58.5593 218.424C60.1562 218.668 61.7837 218.884 63.4627 219.052C63.5326 221.997 62.771 225.538 61.6905 229.305C60.0004 229.211 58.3521 229.111 56.7319 229.002L58.5593 218.425V218.424Z" fill="white"/>
<path d="M62.8504 218.61C53.7231 217.699 45.6825 215.77 39.2523 212.334C37.6211 211.462 36.9306 209.489 37.5733 207.755C41.5923 196.906 45.0411 185.983 46.3068 175.779C49.3263 164.649 46.324 158.382 39.917 157.859C38.3888 157.734 36.9478 158.568 36.1996 159.907C28.7392 173.231 23.4397 192.713 19.7934 213.941C19.4537 215.922 20.1467 217.95 21.6258 219.311C30.1962 227.195 43.9962 228.541 60.9714 229.483C61.8729 225.684 62.5327 222.039 62.8504 218.61Z" fill="#2F2E41"/>
<path d="M59.7005 159.517H66.2743L62.6195 164.947L90.7689 190.923C91.5808 188.771 73.0725 156.221 56.4468 141.492C55.3196 140.493 55.3 138.993 56.2554 137.87L57.5702 136.821L56.6614 134.95C56.6614 134.95 55.3147 135.823 54.9812 136.231C51.9506 139.941 51.487 144.787 53.767 148.875L59.6993 159.517H59.7005Z" fill="#2F2E41"/>
<path d="M90.5641 190.446C93.472 172.158 82.5015 135.453 82.5015 135.453C93.5812 132.472 96.575 149.651 96.575 149.651L91.9353 153.069L97.1305 154.609C98.3852 166.985 92.9226 183.641 90.7677 190.923L90.5629 190.446H90.5641Z" fill="#2F2E41"/>
<path d="M61.5033 133.19C61.5033 133.19 62.6905 134.281 64.6761 135.685C68.0918 138.205 73.8083 141.766 79.4033 142.517C79.4524 142.517 79.548 142.565 79.6449 142.565C81.292 142.759 82.9637 142.783 84.5139 142.274C91.9253 139.803 89.6 112.401 86.6455 108.791C76.2268 117.084 67.4957 114.192 67.0984 114.242C66.9046 114.387 66.7353 114.533 66.5894 114.727C65.9357 115.381 65.5236 116.205 65.2808 117.125C64.215 121.317 67.0493 127.108 67.0493 127.108H64.8699C64.8699 127.108 61.0667 118.822 57.9908 122.043C54.8658 125.217 61.5033 133.189 61.5033 133.189V133.19Z" fill="#F4D6D4"/>
<path d="M67.1121 114.255C67.1121 114.255 59.6247 113.736 52.1372 106.266C56.81 109.112 61.8225 111.763 67.1121 114.255Z" fill="#51383C"/>
<path d="M58.0033 127.629C59.2702 130.503 61.4987 133.189 61.4987 133.189L59.5069 140.629C59.5069 140.629 56.1097 134.696 53.3379 127.629H58.0033Z" fill="#2F2E41"/>
<path d="M403.403 125.285C410.525 125.285 416.298 119.511 416.298 112.39C416.298 105.268 410.525 99.4951 403.403 99.4951C396.282 99.4951 390.508 105.268 390.508 112.39C390.508 119.511 396.282 125.285 403.403 125.285Z" fill="#673DE6"/>
<path d="M169.117 64.7888C176.239 64.7888 182.012 59.0156 182.012 51.894C182.012 44.7724 176.239 38.9991 169.117 38.9991C161.996 38.9991 156.223 44.7724 156.223 51.894C156.223 59.0156 161.996 64.7888 169.117 64.7888Z" fill="#673DE6"/>
<path d="M174.736 45.5809H163.546C163.359 45.5729 163.175 45.6394 163.036 45.766C162.897 45.8926 162.813 46.069 162.804 46.2569V55.9984C162.804 56.0969 162.843 56.1913 162.912 56.261C162.982 56.3306 163.077 56.3697 163.175 56.3697H166.522C166.758 56.8741 167.118 57.3108 167.567 57.6397C168.017 57.9686 168.542 58.1791 169.094 58.2519C169.125 58.256 169.158 58.256 169.189 58.2519C169.741 58.179 170.266 57.9684 170.715 57.6395C171.165 57.3106 171.524 56.874 171.761 56.3697H175.107C175.155 56.3698 175.204 56.3602 175.249 56.3416C175.294 56.323 175.335 56.2956 175.37 56.2611C175.404 56.2266 175.431 56.1857 175.45 56.1406C175.469 56.0955 175.478 56.0472 175.478 55.9984V46.2569C175.469 46.069 175.385 45.8926 175.246 45.766C175.107 45.6394 174.924 45.5729 174.736 45.5809V45.5809ZM174.736 46.3236V48.5514H163.546V46.3236H174.736ZM169.141 57.5092C168.533 57.4169 167.977 57.1098 167.575 56.6435C167.174 56.1773 166.952 55.5826 166.95 54.9671V52.7926L169.141 52.0148L171.332 52.7926V54.9671C171.331 55.5827 171.109 56.1774 170.707 56.6437C170.305 57.1099 169.75 57.4169 169.141 57.5092ZM172.008 55.6275C172.052 55.4102 172.074 55.1889 172.074 54.9671V52.5303C172.074 52.4536 172.051 52.3788 172.006 52.3161C171.962 52.2535 171.9 52.2061 171.827 52.1805L169.265 51.2709C169.185 51.2423 169.097 51.2423 169.017 51.2709L166.455 52.1805C166.383 52.2061 166.32 52.2535 166.276 52.3161C166.232 52.3788 166.208 52.4536 166.208 52.5303V54.9667C166.208 55.1885 166.23 55.4097 166.274 55.627H163.546V49.2941H174.736V55.6275H172.008Z" fill="#F5F5F5"/>
<path d="M408.745 118.009H398.061C397.865 118.008 397.678 117.931 397.54 117.793C397.402 117.654 397.324 117.467 397.324 117.272V110.824C397.324 110.629 397.402 110.442 397.54 110.304C397.678 110.165 397.865 110.088 398.06 110.088H408.745C408.94 110.088 409.127 110.165 409.265 110.304C409.404 110.442 409.481 110.629 409.482 110.824V117.271C409.481 117.467 409.404 117.654 409.266 117.792C409.128 117.93 408.94 118.008 408.745 118.009V118.009ZM398.061 110.823V117.271H408.745V110.823H398.061Z" fill="white"/>
<path d="M406.718 110.824H400.087V107.876C400.087 105.743 401.482 104.192 403.403 104.192C405.324 104.192 406.719 105.742 406.719 107.876L406.718 110.824ZM400.824 110.087H405.982V107.877C405.982 106.141 404.921 104.929 403.403 104.929C401.884 104.929 400.824 106.141 400.824 107.877L400.824 110.087Z" fill="white"/>
<path d="M403.403 114.6C403.81 114.6 404.139 114.27 404.139 113.863C404.139 113.456 403.81 113.127 403.403 113.127C402.996 113.127 402.666 113.456 402.666 113.863C402.666 114.27 402.996 114.6 403.403 114.6Z" fill="white"/>
<g clip-path="url(#clip0_438_197)">
<path d="M319.288 19.4996C319.288 12.3649 313.504 6.58112 306.369 6.58112C299.234 6.58112 293.451 12.3649 293.451 19.4996C293.451 26.6342 299.234 32.418 306.369 32.418C313.504 32.418 319.288 26.6342 319.288 19.4996Z" fill="#673DE6"/>
<mask id="mask0_438_197" style="mask-type:luminance" maskUnits="userSpaceOnUse" x="301" y="14" width="11" height="11">
<path d="M311.536 14.3322H301.202V24.667H311.536V14.3322Z" fill="white"/>
</mask>
<g mask="url(#mask0_438_197)">
<path d="M305.68 22.2555C305.87 22.2555 306.024 22.1013 306.024 21.911C306.024 21.7208 305.87 21.5665 305.68 21.5665C305.49 21.5665 305.335 21.7208 305.335 21.911C305.335 22.1013 305.49 22.2555 305.68 22.2555Z" fill="white"/>
<path d="M304.302 22.2555C304.492 22.2555 304.647 22.1013 304.647 21.911C304.647 21.7208 304.492 21.5665 304.302 21.5665C304.112 21.5665 303.958 21.7208 303.958 21.911C303.958 22.1013 304.112 22.2555 304.302 22.2555Z" fill="white"/>
<path d="M302.924 22.2555C303.114 22.2555 303.269 22.1013 303.269 21.911C303.269 21.7208 303.114 21.5665 302.924 21.5665C302.734 21.5665 302.58 21.7208 302.58 21.911C302.58 22.1013 302.734 22.2555 302.924 22.2555Z" fill="white"/>
<path d="M309.814 21.5665H307.403C307.311 21.5665 307.224 21.6028 307.159 21.6674C307.094 21.732 307.058 21.8197 307.058 21.911C307.058 22.0024 307.094 22.09 307.159 22.1546C307.224 22.2192 307.311 22.2555 307.403 22.2555H309.814C309.905 22.2555 309.993 22.2192 310.058 22.1546C310.122 22.09 310.159 22.0024 310.159 21.911C310.159 21.8197 310.122 21.732 310.058 21.6674C309.993 21.6028 309.905 21.5665 309.814 21.5665Z" fill="white"/>
<path d="M305.68 17.4326C305.87 17.4326 306.024 17.2784 306.024 17.0881C306.024 16.8979 305.87 16.7437 305.68 16.7437C305.49 16.7437 305.335 16.8979 305.335 17.0881C305.335 17.2784 305.49 17.4326 305.68 17.4326Z" fill="white"/>
<path d="M304.302 17.4326C304.492 17.4326 304.647 17.2784 304.647 17.0881C304.647 16.8979 304.492 16.7437 304.302 16.7437C304.112 16.7437 303.958 16.8979 303.958 17.0881C303.958 17.2784 304.112 17.4326 304.302 17.4326Z" fill="white"/>
<path d="M302.924 17.4326C303.114 17.4326 303.269 17.2784 303.269 17.0881C303.269 16.8979 303.114 16.7437 302.924 16.7437C302.734 16.7437 302.58 16.8979 302.58 17.0881C302.58 17.2784 302.734 17.4326 302.924 17.4326Z" fill="white"/>
<path d="M307.403 17.4326H309.814C309.905 17.4326 309.993 17.3963 310.058 17.3317C310.122 17.2671 310.159 17.1795 310.159 17.0881C310.159 16.9968 310.122 16.9092 310.058 16.8446C309.993 16.7799 309.905 16.7437 309.814 16.7437H307.403C307.311 16.7437 307.224 16.7799 307.159 16.8446C307.094 16.9092 307.058 16.9968 307.058 17.0881C307.058 17.1795 307.094 17.2671 307.159 17.3317C307.224 17.3963 307.311 17.4326 307.403 17.4326Z" fill="white"/>
</g>
<path d="M311.416 19.1902C311.65 19.1899 311.874 19.0968 312.04 18.9314C312.205 18.7659 312.298 18.5415 312.299 18.3075V15.2636C312.298 15.0296 312.205 14.8052 312.04 14.6398C311.874 14.4743 311.65 14.3812 311.416 14.3809H301.158C300.924 14.3812 300.7 14.4743 300.534 14.6398C300.369 14.8052 300.276 15.0296 300.275 15.2636V18.3085C300.276 18.5423 300.369 18.7664 300.535 18.9317C300.7 19.097 300.924 19.1899 301.158 19.1902H301.478V19.9917H301.158C300.924 19.992 300.7 20.0851 300.534 20.2506C300.369 20.416 300.276 20.6404 300.275 20.8744V23.9193C300.276 24.1532 300.369 24.3773 300.535 24.5425C300.7 24.7078 300.924 24.8007 301.158 24.801H311.416C311.65 24.8006 311.875 24.7075 312.04 24.542C312.205 24.3765 312.298 24.1522 312.299 23.9183V20.8739C312.298 20.64 312.205 20.4158 312.04 20.2504C311.874 20.085 311.65 19.992 311.416 19.9917H311.096V19.1902H311.416ZM301.077 18.3075V15.2636C301.077 15.2529 301.079 15.2424 301.083 15.2325C301.087 15.2226 301.093 15.2136 301.101 15.2061C301.108 15.1985 301.117 15.1926 301.127 15.1885C301.137 15.1845 301.147 15.1824 301.158 15.1825H311.416C311.427 15.1825 311.438 15.1846 311.447 15.1887C311.457 15.1927 311.466 15.1987 311.474 15.2063C311.481 15.2138 311.487 15.2228 311.491 15.2326C311.495 15.2424 311.497 15.253 311.497 15.2636V18.3085C311.497 18.3191 311.495 18.3297 311.491 18.3395C311.487 18.3493 311.481 18.3582 311.473 18.3657C311.466 18.3732 311.457 18.3791 311.447 18.3831C311.437 18.3872 311.426 18.3892 311.416 18.3891H301.158C301.147 18.3892 301.137 18.3872 301.127 18.3831C301.117 18.379 301.108 18.3731 301.101 18.3655C301.093 18.358 301.087 18.349 301.083 18.3391C301.079 18.3292 301.077 18.3187 301.077 18.308V18.3075ZM311.497 20.8739V23.9188C311.497 23.9294 311.495 23.94 311.491 23.9498C311.487 23.9596 311.481 23.9685 311.473 23.976C311.466 23.9835 311.457 23.9894 311.447 23.9935C311.437 23.9975 311.426 23.9995 311.416 23.9995H301.158C301.147 23.9995 301.137 23.9975 301.127 23.9934C301.117 23.9894 301.108 23.9834 301.101 23.9758C301.093 23.9683 301.087 23.9593 301.083 23.9494C301.079 23.9396 301.077 23.929 301.077 23.9183V20.8739C301.077 20.8633 301.079 20.8528 301.083 20.843C301.087 20.8331 301.093 20.8242 301.101 20.8167C301.108 20.8092 301.117 20.8033 301.127 20.7993C301.137 20.7952 301.147 20.7932 301.158 20.7933H311.416C311.427 20.7932 311.437 20.7953 311.447 20.7993C311.457 20.8034 311.466 20.8093 311.473 20.8169C311.481 20.8244 311.487 20.8334 311.491 20.8433C311.495 20.8532 311.497 20.8633 311.497 20.8739ZM310.295 19.9917H302.279V19.1902H310.295V19.9917Z" fill="white"/>
</g>
<path d="M148.423 225.586C148.423 223.502 150.172 221.807 152.323 221.807C154.473 221.807 156.223 223.502 156.223 225.586C156.223 227.669 154.473 229.364 152.323 229.364C150.172 229.364 148.423 227.669 148.423 225.586ZM148.886 225.586C148.886 227.421 150.428 228.915 152.323 228.915C154.218 228.915 155.76 227.421 155.76 225.586C155.76 223.75 154.218 222.256 152.323 222.256C150.428 222.256 148.886 223.75 148.886 225.586Z" fill="#2F2E41"/>
<path d="M194.49 63.8611C194.49 62.2485 195.803 60.9362 197.415 60.9362C199.028 60.9362 200.34 62.2485 200.34 63.8611C200.34 65.4737 199.028 66.786 197.415 66.786C195.803 66.786 194.49 65.4737 194.49 63.8611ZM194.95 63.8611C194.95 65.22 196.056 66.3251 197.415 66.3251C198.774 66.3251 199.879 65.22 199.879 63.8611C199.879 62.5022 198.773 61.3961 197.415 61.3961C196.057 61.3961 194.95 62.5022 194.95 63.8611Z" fill="#2F2E41"/>
<path d="M355.118 145.515C355.118 143.634 356.649 142.103 358.53 142.103C360.412 142.103 361.943 143.634 361.943 145.515C361.943 147.397 360.413 148.928 358.53 148.928C356.648 148.928 355.118 147.397 355.118 145.515ZM355.566 145.515C355.566 147.15 356.895 148.48 358.53 148.48C360.165 148.48 361.495 147.15 361.495 145.515C361.495 143.88 360.165 142.551 358.53 142.551C356.895 142.551 355.566 143.88 355.566 145.515Z" fill="#2F2E41"/>
<path d="M386.816 238.817H369.88C366.854 238.817 366.734 234.309 369.757 234.159C370.12 234.141 370.508 234.141 370.923 234.162C370.647 228.834 378.863 226.992 380.657 231.172C384.13 229 387.191 231.902 386.176 234.241C386.176 234.241 386.476 234.22 386.939 234.244C389.904 234.399 389.784 238.817 386.815 238.817H386.816Z" fill="#673DE6"/>
<path d="M384.825 236.907H378.326V252.5H384.825V236.907Z" fill="white"/>
<path d="M378.198 252.501V236.907C378.198 236.837 378.256 236.779 378.326 236.779H384.825C384.896 236.779 384.953 236.837 384.953 236.907V252.501C384.953 252.571 384.896 252.629 384.825 252.629H378.326C378.256 252.629 378.198 252.571 378.198 252.501ZM384.697 237.035H378.455V252.373H384.697V237.035Z" fill="#2F2E41"/>
<path d="M384.319 237.649H378.833V238.818H384.319V237.649Z" fill="#673DE6"/>
<path d="M381.251 237.649H378.833V238.818H381.251V237.649Z" fill="#2F2E41"/>
<path d="M380.778 238.229C380.778 238.29 380.827 238.339 380.888 238.339C380.949 238.339 380.998 238.29 380.998 238.229C380.998 238.169 380.949 238.119 380.888 238.119C380.827 238.119 380.778 238.168 380.778 238.229Z" fill="white"/>
<path d="M380.433 238.229C380.433 238.29 380.482 238.339 380.543 238.339C380.605 238.339 380.654 238.29 380.654 238.229C380.654 238.169 380.605 238.119 380.543 238.119C380.482 238.119 380.433 238.168 380.433 238.229Z" fill="white"/>
<path d="M380.088 238.229C380.088 238.29 380.137 238.339 380.198 238.339C380.259 238.339 380.309 238.29 380.309 238.229C380.309 238.169 380.259 238.119 380.198 238.119C380.137 238.119 380.088 238.168 380.088 238.229Z" fill="white"/>
<path d="M379.73 238.229C379.73 238.29 379.779 238.339 379.84 238.339C379.9 238.339 379.95 238.29 379.95 238.229C379.95 238.169 379.901 238.119 379.84 238.119C379.779 238.119 379.73 238.168 379.73 238.229Z" fill="white"/>
<path d="M384.319 239.247H378.833V240.416H384.319V239.247Z" fill="#673DE6"/>
<path d="M381.251 239.247H378.833V240.416H381.251V239.247Z" fill="#2F2E41"/>
<path d="M380.778 239.828C380.778 239.888 380.827 239.938 380.888 239.938C380.949 239.938 380.998 239.888 380.998 239.828C380.998 239.767 380.949 239.717 380.888 239.717C380.827 239.717 380.778 239.767 380.778 239.828Z" fill="white"/>
<path d="M380.433 239.828C380.433 239.888 380.482 239.938 380.543 239.938C380.605 239.938 380.654 239.888 380.654 239.828C380.654 239.767 380.605 239.717 380.543 239.717C380.482 239.717 380.433 239.767 380.433 239.828Z" fill="white"/>
<path d="M380.088 239.828C380.088 239.888 380.137 239.938 380.198 239.938C380.259 239.938 380.309 239.888 380.309 239.828C380.309 239.767 380.259 239.717 380.198 239.717C380.137 239.717 380.088 239.767 380.088 239.828Z" fill="white"/>
<path d="M379.73 239.828C379.73 239.888 379.779 239.938 379.84 239.938C379.9 239.938 379.95 239.888 379.95 239.828C379.95 239.767 379.901 239.717 379.84 239.717C379.779 239.717 379.73 239.767 379.73 239.828Z" fill="white"/>
<path d="M384.319 240.846H378.833V242.014H384.319V240.846Z" fill="#673DE6"/>
<path d="M381.251 240.846H378.833V242.014H381.251V240.846Z" fill="#2F2E41"/>
<path d="M380.778 241.426C380.778 241.487 380.827 241.537 380.888 241.537C380.949 241.537 380.998 241.487 380.998 241.426C380.998 241.365 380.949 241.316 380.888 241.316C380.827 241.316 380.778 241.365 380.778 241.426Z" fill="white"/>
<path d="M380.543 241.537C380.604 241.537 380.653 241.487 380.653 241.426C380.653 241.365 380.604 241.316 380.543 241.316C380.482 241.316 380.433 241.365 380.433 241.426C380.433 241.487 380.482 241.537 380.543 241.537Z" fill="white"/>
<path d="M380.088 241.426C380.088 241.487 380.137 241.537 380.198 241.537C380.259 241.537 380.309 241.487 380.309 241.426C380.309 241.365 380.259 241.316 380.198 241.316C380.137 241.316 380.088 241.365 380.088 241.426Z" fill="white"/>
<path d="M379.73 241.426C379.73 241.487 379.779 241.537 379.84 241.537C379.9 241.537 379.95 241.487 379.95 241.426C379.95 241.365 379.901 241.316 379.84 241.316C379.779 241.316 379.73 241.365 379.73 241.426Z" fill="white"/>
<path d="M384.319 242.444H378.833V243.613H384.319V242.444Z" fill="#673DE6"/>
<path d="M381.251 242.444H378.833V243.613H381.251V242.444Z" fill="#2F2E41"/>
<path d="M380.778 243.025C380.778 243.086 380.827 243.135 380.888 243.135C380.949 243.135 380.998 243.086 380.998 243.025C380.998 242.964 380.949 242.915 380.888 242.915C380.827 242.915 380.778 242.964 380.778 243.025Z" fill="white"/>
<path d="M380.433 243.025C380.433 243.086 380.482 243.135 380.543 243.135C380.605 243.135 380.654 243.086 380.654 243.025C380.654 242.964 380.605 242.915 380.543 242.915C380.482 242.915 380.433 242.964 380.433 243.025Z" fill="white"/>
<path d="M380.088 243.025C380.088 243.086 380.137 243.135 380.198 243.135C380.259 243.135 380.309 243.086 380.309 243.025C380.309 242.964 380.259 242.915 380.198 242.915C380.137 242.915 380.088 242.964 380.088 243.025Z" fill="white"/>
<path d="M379.73 243.025C379.73 243.086 379.779 243.135 379.84 243.135C379.9 243.135 379.95 243.086 379.95 243.025C379.95 242.964 379.901 242.915 379.84 242.915C379.779 242.915 379.73 242.964 379.73 243.025Z" fill="white"/>
<path d="M384.319 244.043H378.833V245.211H384.319V244.043Z" fill="#673DE6"/>
<path d="M381.251 244.043H378.833V245.211H381.251V244.043Z" fill="#2F2E41"/>
<path d="M380.778 244.624C380.778 244.684 380.827 244.733 380.888 244.733C380.949 244.733 380.998 244.684 380.998 244.624C380.998 244.563 380.949 244.513 380.888 244.513C380.827 244.513 380.778 244.562 380.778 244.624Z" fill="white"/>
<path d="M380.433 244.624C380.433 244.684 380.482 244.733 380.543 244.733C380.605 244.733 380.654 244.684 380.654 244.624C380.654 244.563 380.605 244.513 380.543 244.513C380.482 244.513 380.433 244.562 380.433 244.624Z" fill="white"/>
<path d="M380.088 244.624C380.088 244.684 380.137 244.733 380.198 244.733C380.259 244.733 380.309 244.684 380.309 244.624C380.309 244.563 380.259 244.513 380.198 244.513C380.137 244.513 380.088 244.562 380.088 244.624Z" fill="white"/>
<path d="M379.73 244.624C379.73 244.684 379.779 244.733 379.84 244.733C379.9 244.733 379.95 244.684 379.95 244.624C379.95 244.563 379.901 244.513 379.84 244.513C379.779 244.513 379.73 244.562 379.73 244.624Z" fill="white"/>
<path d="M384.319 245.641H378.833V246.81H384.319V245.641Z" fill="#673DE6"/>
<path d="M381.251 245.641H378.833V246.81H381.251V245.641Z" fill="#2F2E41"/>
<path d="M380.778 246.222C380.778 246.283 380.827 246.332 380.888 246.332C380.949 246.332 380.998 246.283 380.998 246.222C380.998 246.161 380.949 246.112 380.888 246.112C380.827 246.112 380.778 246.161 380.778 246.222Z" fill="white"/>
<path d="M380.433 246.222C380.433 246.283 380.482 246.332 380.543 246.332C380.605 246.332 380.654 246.283 380.654 246.222C380.654 246.161 380.605 246.112 380.543 246.112C380.482 246.112 380.433 246.161 380.433 246.222Z" fill="white"/>
<path d="M380.088 246.222C380.088 246.283 380.137 246.332 380.198 246.332C380.259 246.332 380.309 246.283 380.309 246.222C380.309 246.161 380.259 246.112 380.198 246.112C380.137 246.112 380.088 246.161 380.088 246.222Z" fill="white"/>
<path d="M379.73 246.222C379.73 246.283 379.779 246.332 379.84 246.332C379.9 246.332 379.95 246.283 379.95 246.222C379.95 246.161 379.901 246.112 379.84 246.112C379.779 246.112 379.73 246.161 379.73 246.222Z" fill="white"/>
<path d="M392.302 236.907H385.803V252.5H392.302V236.907Z" fill="white"/>
<path d="M385.675 252.501V236.907C385.675 236.837 385.733 236.779 385.803 236.779H392.302C392.373 236.779 392.43 236.837 392.43 236.907V252.501C392.43 252.571 392.373 252.629 392.302 252.629H385.803C385.733 252.629 385.675 252.571 385.675 252.501ZM392.174 237.035H385.932V252.373H392.174V237.035Z" fill="#2F2E41"/>
<path d="M391.796 237.649H386.31V238.818H391.796V237.649Z" fill="#673DE6"/>
<path d="M388.728 237.649H386.31V238.818H388.728V237.649Z" fill="#2F2E41"/>
<path d="M388.255 238.229C388.255 238.29 388.304 238.339 388.365 238.339C388.425 238.339 388.475 238.29 388.475 238.229C388.475 238.169 388.426 238.119 388.365 238.119C388.303 238.119 388.255 238.168 388.255 238.229Z" fill="white"/>
<path d="M387.91 238.229C387.91 238.29 387.959 238.339 388.021 238.339C388.082 238.339 388.13 238.29 388.13 238.229C388.13 238.169 388.081 238.119 388.021 238.119C387.96 238.119 387.91 238.168 387.91 238.229Z" fill="white"/>
<path d="M387.565 238.229C387.565 238.29 387.615 238.339 387.676 238.339C387.737 238.339 387.786 238.29 387.786 238.229C387.786 238.169 387.737 238.119 387.676 238.119C387.615 238.119 387.565 238.168 387.565 238.229Z" fill="white"/>
<path d="M387.207 238.229C387.207 238.29 387.256 238.339 387.317 238.339C387.379 238.339 387.427 238.29 387.427 238.229C387.427 238.169 387.378 238.119 387.317 238.119C387.257 238.119 387.207 238.168 387.207 238.229Z" fill="white"/>
<path d="M391.796 239.247H386.31V240.416H391.796V239.247Z" fill="#673DE6"/>
<path d="M388.728 239.247H386.31V240.416H388.728V239.247Z" fill="#2F2E41"/>
<path d="M388.255 239.828C388.255 239.888 388.304 239.938 388.365 239.938C388.425 239.938 388.475 239.888 388.475 239.828C388.475 239.767 388.426 239.717 388.365 239.717C388.303 239.717 388.255 239.767 388.255 239.828Z" fill="white"/>
<path d="M387.91 239.828C387.91 239.888 387.959 239.938 388.021 239.938C388.082 239.938 388.13 239.888 388.13 239.828C388.13 239.767 388.081 239.717 388.021 239.717C387.96 239.717 387.91 239.767 387.91 239.828Z" fill="white"/>
<path d="M387.565 239.828C387.565 239.888 387.615 239.938 387.676 239.938C387.737 239.938 387.786 239.888 387.786 239.828C387.786 239.767 387.737 239.717 387.676 239.717C387.615 239.717 387.565 239.767 387.565 239.828Z" fill="white"/>
<path d="M387.207 239.828C387.207 239.888 387.256 239.938 387.317 239.938C387.379 239.938 387.427 239.888 387.427 239.828C387.427 239.767 387.378 239.717 387.317 239.717C387.257 239.717 387.207 239.767 387.207 239.828Z" fill="white"/>
<path d="M391.796 240.846H386.31V242.014H391.796V240.846Z" fill="#673DE6"/>
<path d="M388.728 240.846H386.31V242.014H388.728V240.846Z" fill="#2F2E41"/>
<path d="M388.255 241.426C388.255 241.487 388.304 241.537 388.365 241.537C388.425 241.537 388.475 241.487 388.475 241.426C388.475 241.365 388.426 241.316 388.365 241.316C388.303 241.316 388.255 241.365 388.255 241.426Z" fill="white"/>
<path d="M387.91 241.426C387.91 241.487 387.959 241.537 388.021 241.537C388.082 241.537 388.13 241.487 388.13 241.426C388.13 241.365 388.081 241.316 388.021 241.316C387.96 241.316 387.91 241.365 387.91 241.426Z" fill="white"/>
<path d="M387.675 241.537C387.736 241.537 387.786 241.487 387.786 241.426C387.786 241.365 387.736 241.316 387.675 241.316C387.614 241.316 387.565 241.365 387.565 241.426C387.565 241.487 387.614 241.537 387.675 241.537Z" fill="white"/>
<path d="M387.207 241.426C387.207 241.487 387.256 241.537 387.317 241.537C387.379 241.537 387.427 241.487 387.427 241.426C387.427 241.365 387.378 241.316 387.317 241.316C387.257 241.316 387.207 241.365 387.207 241.426Z" fill="white"/>
<path d="M391.796 242.444H386.31V243.613H391.796V242.444Z" fill="#673DE6"/>
<path d="M388.728 242.444H386.31V243.613H388.728V242.444Z" fill="#2F2E41"/>
<path d="M388.255 243.025C388.255 243.086 388.304 243.135 388.365 243.135C388.425 243.135 388.475 243.086 388.475 243.025C388.475 242.964 388.426 242.915 388.365 242.915C388.303 242.915 388.255 242.964 388.255 243.025Z" fill="white"/>
<path d="M387.91 243.025C387.91 243.086 387.959 243.135 388.021 243.135C388.082 243.135 388.13 243.086 388.13 243.025C388.13 242.964 388.081 242.915 388.021 242.915C387.96 242.915 387.91 242.964 387.91 243.025Z" fill="white"/>
<path d="M387.565 243.025C387.565 243.086 387.615 243.135 387.676 243.135C387.737 243.135 387.786 243.086 387.786 243.025C387.786 242.964 387.737 242.915 387.676 242.915C387.615 242.915 387.565 242.964 387.565 243.025Z" fill="white"/>
<path d="M387.207 243.025C387.207 243.086 387.256 243.135 387.317 243.135C387.379 243.135 387.427 243.086 387.427 243.025C387.427 242.964 387.378 242.915 387.317 242.915C387.257 242.915 387.207 242.964 387.207 243.025Z" fill="white"/>
<path d="M391.796 244.043H386.31V245.211H391.796V244.043Z" fill="#673DE6"/>
<path d="M388.728 244.043H386.31V245.211H388.728V244.043Z" fill="#2F2E41"/>
<path d="M388.255 244.624C388.255 244.684 388.304 244.733 388.365 244.733C388.425 244.733 388.475 244.684 388.475 244.624C388.475 244.563 388.426 244.513 388.365 244.513C388.303 244.513 388.255 244.562 388.255 244.624Z" fill="white"/>
<path d="M387.91 244.624C387.91 244.684 387.959 244.733 388.021 244.733C388.082 244.733 388.13 244.684 388.13 244.624C388.13 244.563 388.081 244.513 388.021 244.513C387.96 244.513 387.91 244.562 387.91 244.624Z" fill="white"/>
<path d="M387.565 244.624C387.565 244.684 387.615 244.733 387.676 244.733C387.737 244.733 387.786 244.684 387.786 244.624C387.786 244.563 387.737 244.513 387.676 244.513C387.615 244.513 387.565 244.562 387.565 244.624Z" fill="white"/>
<path d="M387.207 244.624C387.207 244.684 387.256 244.733 387.317 244.733C387.379 244.733 387.427 244.684 387.427 244.624C387.427 244.563 387.378 244.513 387.317 244.513C387.257 244.513 387.207 244.562 387.207 244.624Z" fill="white"/>
<path d="M391.796 245.641H386.31V246.81H391.796V245.641Z" fill="#673DE6"/>
<path d="M388.728 245.641H386.31V246.81H388.728V245.641Z" fill="#2F2E41"/>
<path d="M388.255 246.222C388.255 246.283 388.304 246.332 388.365 246.332C388.425 246.332 388.475 246.283 388.475 246.222C388.475 246.161 388.426 246.112 388.365 246.112C388.303 246.112 388.255 246.161 388.255 246.222Z" fill="white"/>
<path d="M387.91 246.222C387.91 246.283 387.959 246.332 388.021 246.332C388.082 246.332 388.13 246.283 388.13 246.222C388.13 246.161 388.081 246.112 388.021 246.112C387.96 246.112 387.91 246.161 387.91 246.222Z" fill="white"/>
<path d="M387.565 246.222C387.565 246.283 387.615 246.332 387.676 246.332C387.737 246.332 387.786 246.283 387.786 246.222C387.786 246.161 387.737 246.112 387.676 246.112C387.615 246.112 387.565 246.161 387.565 246.222Z" fill="white"/>
<path d="M387.207 246.222C387.207 246.283 387.256 246.332 387.317 246.332C387.379 246.332 387.427 246.283 387.427 246.222C387.427 246.161 387.378 246.112 387.317 246.112C387.257 246.112 387.207 246.161 387.207 246.222Z" fill="white"/>
<path d="M377.349 236.907H370.85V252.5H377.349V236.907Z" fill="white"/>
<path d="M370.722 252.501V236.907C370.722 236.837 370.779 236.779 370.85 236.779H377.349C377.419 236.779 377.477 236.837 377.477 236.907V252.501C377.477 252.571 377.419 252.629 377.349 252.629H370.85C370.779 252.629 370.722 252.571 370.722 252.501ZM377.221 237.035H370.978V252.373H377.221V237.035Z" fill="#2F2E41"/>
<path d="M376.843 237.649H371.356V238.818H376.843V237.649Z" fill="#673DE6"/>
<path d="M373.774 237.649H371.356V238.818H373.774V237.649Z" fill="#2F2E41"/>
<path d="M373.301 238.229C373.301 238.29 373.35 238.339 373.412 238.339C373.473 238.339 373.522 238.29 373.522 238.229C373.522 238.169 373.473 238.119 373.412 238.119C373.35 238.119 373.301 238.168 373.301 238.229Z" fill="white"/>
<path d="M372.957 238.229C372.957 238.29 373.006 238.339 373.066 238.339C373.127 238.339 373.177 238.29 373.177 238.229C373.177 238.169 373.128 238.119 373.066 238.119C373.005 238.119 372.957 238.168 372.957 238.229Z" fill="white"/>
<path d="M372.612 238.229C372.612 238.29 372.661 238.339 372.722 238.339C372.783 238.339 372.832 238.29 372.832 238.229C372.832 238.169 372.783 238.119 372.722 238.119C372.661 238.119 372.612 238.168 372.612 238.229Z" fill="white"/>
<path d="M372.253 238.229C372.253 238.29 372.303 238.339 372.364 238.339C372.425 238.339 372.474 238.29 372.474 238.229C372.474 238.169 372.424 238.119 372.364 238.119C372.303 238.119 372.253 238.168 372.253 238.229Z" fill="white"/>
<path d="M376.843 239.247H371.356V240.416H376.843V239.247Z" fill="#673DE6"/>
<path d="M373.774 239.247H371.356V240.416H373.774V239.247Z" fill="#2F2E41"/>
<path d="M373.301 239.828C373.301 239.888 373.35 239.938 373.412 239.938C373.473 239.938 373.522 239.888 373.522 239.828C373.522 239.767 373.473 239.717 373.412 239.717C373.35 239.717 373.301 239.767 373.301 239.828Z" fill="white"/>
<path d="M372.957 239.828C372.957 239.888 373.006 239.938 373.066 239.938C373.127 239.938 373.177 239.888 373.177 239.828C373.177 239.767 373.128 239.717 373.066 239.717C373.005 239.717 372.957 239.767 372.957 239.828Z" fill="white"/>
<path d="M372.612 239.828C372.612 239.888 372.661 239.938 372.722 239.938C372.783 239.938 372.832 239.888 372.832 239.828C372.832 239.767 372.783 239.717 372.722 239.717C372.661 239.717 372.612 239.767 372.612 239.828Z" fill="white"/>
<path d="M372.253 239.828C372.253 239.888 372.303 239.938 372.364 239.938C372.425 239.938 372.474 239.888 372.474 239.828C372.474 239.767 372.424 239.717 372.364 239.717C372.303 239.717 372.253 239.767 372.253 239.828Z" fill="white"/>
<path d="M376.843 240.846H371.356V242.014H376.843V240.846Z" fill="#673DE6"/>
<path d="M373.774 240.846H371.356V242.014H373.774V240.846Z" fill="#2F2E41"/>
<path d="M373.412 241.537C373.473 241.537 373.522 241.487 373.522 241.426C373.522 241.365 373.473 241.316 373.412 241.316C373.351 241.316 373.301 241.365 373.301 241.426C373.301 241.487 373.351 241.537 373.412 241.537Z" fill="white"/>
<path d="M372.957 241.426C372.957 241.487 373.006 241.537 373.066 241.537C373.127 241.537 373.177 241.487 373.177 241.426C373.177 241.365 373.128 241.316 373.066 241.316C373.005 241.316 372.957 241.365 372.957 241.426Z" fill="white"/>
<path d="M372.612 241.426C372.612 241.487 372.661 241.537 372.722 241.537C372.783 241.537 372.832 241.487 372.832 241.426C372.832 241.365 372.783 241.316 372.722 241.316C372.661 241.316 372.612 241.365 372.612 241.426Z" fill="white"/>
<path d="M372.253 241.426C372.253 241.487 372.303 241.537 372.364 241.537C372.425 241.537 372.474 241.487 372.474 241.426C372.474 241.365 372.424 241.316 372.364 241.316C372.303 241.316 372.253 241.365 372.253 241.426Z" fill="white"/>
<path d="M376.843 242.444H371.356V243.613H376.843V242.444Z" fill="#673DE6"/>
<path d="M373.774 242.444H371.356V243.613H373.774V242.444Z" fill="#2F2E41"/>
<path d="M373.301 243.025C373.301 243.086 373.35 243.135 373.412 243.135C373.473 243.135 373.522 243.086 373.522 243.025C373.522 242.964 373.473 242.915 373.412 242.915C373.35 242.915 373.301 242.964 373.301 243.025Z" fill="white"/>
<path d="M372.957 243.025C372.957 243.086 373.006 243.135 373.066 243.135C373.127 243.135 373.177 243.086 373.177 243.025C373.177 242.964 373.128 242.915 373.066 242.915C373.005 242.915 372.957 242.964 372.957 243.025Z" fill="white"/>
<path d="M372.612 243.025C372.612 243.086 372.661 243.135 372.722 243.135C372.783 243.135 372.832 243.086 372.832 243.025C372.832 242.964 372.783 242.915 372.722 242.915C372.661 242.915 372.612 242.964 372.612 243.025Z" fill="white"/>
<path d="M372.253 243.025C372.253 243.086 372.303 243.135 372.364 243.135C372.425 243.135 372.474 243.086 372.474 243.025C372.474 242.964 372.424 242.915 372.364 242.915C372.303 242.915 372.253 242.964 372.253 243.025Z" fill="white"/>
<path d="M376.843 244.043H371.356V245.211H376.843V244.043Z" fill="#673DE6"/>
<path d="M373.774 244.043H371.356V245.211H373.774V244.043Z" fill="#2F2E41"/>
<path d="M373.301 244.624C373.301 244.684 373.35 244.733 373.412 244.733C373.473 244.733 373.522 244.684 373.522 244.624C373.522 244.563 373.473 244.513 373.412 244.513C373.35 244.513 373.301 244.562 373.301 244.624Z" fill="white"/>
<path d="M372.957 244.624C372.957 244.684 373.006 244.733 373.066 244.733C373.127 244.733 373.177 244.684 373.177 244.624C373.177 244.563 373.128 244.513 373.066 244.513C373.005 244.513 372.957 244.562 372.957 244.624Z" fill="white"/>
<path d="M372.612 244.624C372.612 244.684 372.661 244.733 372.722 244.733C372.783 244.733 372.832 244.684 372.832 244.624C372.832 244.563 372.783 244.513 372.722 244.513C372.661 244.513 372.612 244.562 372.612 244.624Z" fill="white"/>
<path d="M372.253 244.624C372.253 244.684 372.303 244.733 372.364 244.733C372.425 244.733 372.474 244.684 372.474 244.624C372.474 244.563 372.424 244.513 372.364 244.513C372.303 244.513 372.253 244.562 372.253 244.624Z" fill="white"/>
<path d="M376.843 245.641H371.356V246.81H376.843V245.641Z" fill="#673DE6"/>
<path d="M373.774 245.641H371.356V246.81H373.774V245.641Z" fill="#2F2E41"/>
<path d="M373.301 246.222C373.301 246.283 373.35 246.332 373.412 246.332C373.473 246.332 373.522 246.283 373.522 246.222C373.522 246.161 373.473 246.112 373.412 246.112C373.35 246.112 373.301 246.161 373.301 246.222Z" fill="white"/>
<path d="M372.957 246.222C372.957 246.283 373.006 246.332 373.066 246.332C373.127 246.332 373.177 246.283 373.177 246.222C373.177 246.161 373.128 246.112 373.066 246.112C373.005 246.112 372.957 246.161 372.957 246.222Z" fill="white"/>
<path d="M372.612 246.222C372.612 246.283 372.661 246.332 372.722 246.332C372.783 246.332 372.832 246.283 372.832 246.222C372.832 246.161 372.783 246.112 372.722 246.112C372.661 246.112 372.612 246.161 372.612 246.222Z" fill="white"/>
<path d="M372.253 246.222C372.253 246.283 372.303 246.332 372.364 246.332C372.425 246.332 372.474 246.283 372.474 246.222C372.474 246.161 372.424 246.112 372.364 246.112C372.303 246.112 372.253 246.161 372.253 246.222Z" fill="white"/>
<defs>
<clipPath id="clip0_438_197">
<rect width="25.8369" height="25.8369" fill="white" transform="translate(293.451 6.58112)"/>
</clipPath>
</defs>
</svg>
