<svg width="426" height="365" viewBox="0 0 426 365" fill="none" xmlns="http://www.w3.org/2000/svg">
<g clip-path="url(#clip0_135_332)">
<path d="M177.913 355.247H187.613L192.228 317.83H177.911L177.913 355.247Z" fill="#FFB8B8"/>
<path d="M206.358 364.256L175.87 364.258L175.869 352.478L194.577 352.477C196.124 352.477 197.656 352.781 199.086 353.373C200.515 353.965 201.814 354.832 202.908 355.926C204.002 357.02 204.869 358.319 205.461 359.748C206.053 361.177 206.358 362.709 206.358 364.256V364.256Z" fill="#2F2E41"/>
<path d="M87.713 349.683L97.213 351.647L109.313 315.94L95.293 313.04L87.713 349.683Z" fill="#FFB8B8"/>
<path d="M113.701 364.254L83.8446 358.081L86.2296 346.546L104.55 350.334C106.065 350.647 107.503 351.255 108.783 352.124C110.063 352.993 111.159 354.106 112.009 355.398C112.858 356.691 113.445 358.138 113.736 359.658C114.026 361.177 114.014 362.739 113.701 364.254V364.254Z" fill="#2F2E41"/>
<path d="M114.181 228.184C113.363 227.357 112.736 226.361 112.345 225.265C111.954 224.17 111.807 223.002 111.916 221.844C112.025 220.686 112.386 219.566 112.975 218.563C113.563 217.559 114.364 216.697 115.322 216.037L107.795 188.782L121.772 193.314L126.777 218.501C127.783 220.184 128.136 222.178 127.769 224.104C127.402 226.03 126.34 227.754 124.785 228.949C123.231 230.143 121.292 230.726 119.336 230.585C117.38 230.444 115.544 229.59 114.177 228.185L114.181 228.184Z" fill="#FFB8B8"/>
<path d="M174.601 341.529C173.754 341.53 172.935 341.229 172.29 340.68C171.646 340.132 171.218 339.371 171.084 338.535L153.005 238.917C152.966 238.662 152.845 238.427 152.661 238.247C152.476 238.067 152.239 237.952 151.983 237.919C151.728 237.886 151.468 237.938 151.244 238.065C151.02 238.193 150.844 238.389 150.742 238.626L110.466 331.811C110.108 332.627 109.459 333.279 108.645 333.642C107.832 334.005 106.912 334.052 106.066 333.774L91.918 329.02C91.4568 328.865 91.0323 328.617 90.6706 328.291C90.309 327.966 90.0179 327.57 89.8153 327.127C89.6127 326.685 89.5029 326.206 89.4927 325.719C89.4825 325.233 89.5721 324.749 89.756 324.299L109.228 276.599L125.484 204.631L125.599 204.544C125.912 204.306 157.185 180.964 178.556 199.635C198.112 216.72 194.473 314.356 193.545 333.754C193.512 334.521 193.23 335.255 192.742 335.848C192.254 336.44 191.586 336.857 190.84 337.036L175.469 341.422C175.186 341.492 174.896 341.527 174.605 341.527L174.601 341.529Z" fill="#2F2E41"/>
<path d="M144.089 118.197C154.822 118.197 163.523 109.496 163.523 98.7631C163.523 88.03 154.822 79.3291 144.089 79.3291C133.356 79.3291 124.655 88.03 124.655 98.7631C124.655 109.496 133.356 118.197 144.089 118.197Z" fill="#FFB8B8"/>
<path d="M182.22 219.408C181.402 218.581 180.775 217.585 180.384 216.49C179.993 215.394 179.846 214.226 179.955 213.068C180.064 211.91 180.425 210.79 181.013 209.787C181.602 208.783 182.403 207.921 183.361 207.261L175.833 180.006L189.81 184.538L194.815 209.725C195.821 211.408 196.174 213.402 195.807 215.328C195.44 217.254 194.378 218.978 192.823 220.173C191.269 221.367 189.329 221.95 187.374 221.809C185.418 221.668 183.582 220.814 182.215 219.409L182.22 219.408Z" fill="#FFB8B8"/>
<path d="M122.56 211.348C122.29 211.348 122.023 211.295 121.774 211.192C113.567 207.856 120.111 142.737 120.393 139.966L120.424 139.847C120.624 139.384 120.829 138.93 121.039 138.485C123.061 133.989 126.448 130.244 130.72 127.783C134.991 125.321 139.929 124.267 144.833 124.771C149.816 125.154 154.558 127.074 158.404 130.267C162.249 133.46 165.008 137.768 166.301 142.596L181.509 198.314C181.671 198.906 181.678 199.53 181.528 200.125C181.378 200.72 181.076 201.267 180.652 201.711C180.229 202.155 179.697 202.482 179.11 202.66C178.523 202.838 177.899 202.861 177.3 202.727C165.468 200.084 136.794 195.393 126.1 208.873C124.79 210.531 123.623 211.348 122.56 211.348Z" fill="#FC5185"/>
<path d="M181.725 205.988C181.335 205.988 180.948 205.923 180.579 205.798C180.124 205.646 179.704 205.402 179.346 205.082C178.988 204.762 178.699 204.372 178.497 203.937L165.262 175.722L152.384 138.65C151.833 137.056 151.752 135.338 152.151 133.699C152.55 132.061 153.412 130.572 154.634 129.41V129.41C155.644 128.452 156.868 127.749 158.204 127.358C159.54 126.967 160.95 126.9 162.317 127.162C163.684 127.424 164.969 128.007 166.066 128.864C167.162 129.722 168.039 130.828 168.624 132.091L185.76 169.114L199.131 193.265C199.361 193.681 199.506 194.139 199.556 194.612C199.607 195.084 199.562 195.562 199.425 196.018C199.287 196.473 199.06 196.896 198.757 197.262C198.453 197.628 198.08 197.93 197.658 198.149L183.358 205.583C182.852 205.846 182.29 205.983 181.72 205.983L181.725 205.988Z" fill="#FC5185"/>
<path d="M123.466 212.979C123.338 212.979 123.21 212.973 123.082 212.959L107.059 211.259C106.582 211.209 106.12 211.062 105.701 210.828C105.281 210.595 104.914 210.279 104.62 209.9C104.326 209.52 104.112 209.085 103.99 208.621C103.868 208.157 103.842 207.673 103.912 207.198L108.464 176.367L118.205 138.352C118.626 136.719 119.507 135.241 120.745 134.096C121.983 132.95 123.524 132.185 125.185 131.892V131.892C126.556 131.652 127.965 131.741 129.294 132.153C130.624 132.565 131.836 133.288 132.831 134.262C133.826 135.235 134.575 136.431 135.016 137.752C135.457 139.072 135.577 140.478 135.367 141.854L129.201 182.182L127.007 209.7C126.936 210.591 126.532 211.423 125.876 212.03C125.22 212.637 124.36 212.976 123.466 212.978V212.979Z" fill="#FC5185"/>
<path d="M147.077 88.245L163.228 87.069C163.772 83.4157 163.075 79.6855 161.249 76.475C159.423 73.2644 156.573 70.7588 153.155 69.3591C146.271 66.7441 137.727 69.649 135.082 73.815C131.6 73.5131 128.095 74.0094 124.833 75.266C121.571 76.5226 118.639 78.5065 116.26 81.0668C113.881 83.6272 112.116 86.6964 111.102 90.0411C110.087 93.3859 109.848 96.918 110.404 100.369C110.96 103.82 112.295 107.098 114.309 109.955C116.322 112.812 118.961 115.172 122.024 116.856C125.087 118.54 128.494 119.503 131.985 119.672C135.476 119.841 138.96 119.212 142.171 117.832C135.506 108.473 138.927 93.604 147.077 88.245Z" fill="#2F2E41"/>
<path d="M116.786 79.4361C111.774 74.8571 105.649 71.1971 98.909 70.3881C92.169 69.5791 84.809 72.0491 80.925 77.6191C77.041 83.1891 77.725 91.8471 83.179 95.8831C85.4203 97.5403 87.1204 99.8243 88.0648 102.447C89.0092 105.069 89.1556 107.913 88.4855 110.619C87.8154 113.324 86.3588 115.771 84.2995 117.649C82.2403 119.528 79.6707 120.754 76.9151 121.174C66.8941 122.7 59.348 133.026 60.098 143.136C60.848 153.246 69.132 162.059 79.012 164.327C88.892 166.595 99.702 162.694 106.598 155.264C113.494 147.834 116.582 137.285 115.798 127.178C115.014 117.071 110.575 107.443 104.198 99.5651C102.466 97.4261 103.767 94.0331 105.993 92.4131C108.219 90.7931 111.053 90.3401 113.658 89.4511C116.263 88.5621 118.952 86.8861 119.552 84.2001C120.152 81.5141 117.102 78.3761 116.786 79.4361Z" fill="#2F2E41"/>
<path d="M412.355 138.471H300.787C297.22 138.467 293.801 137.049 291.279 134.527C288.757 132.005 287.338 128.586 287.334 125.019V13.451C287.338 9.88488 288.757 6.46602 291.278 3.94438C293.8 1.42275 297.219 0.00423437 300.785 0H412.355C415.921 0.00423437 419.34 1.42275 421.862 3.94438C424.383 6.46602 425.802 9.88488 425.806 13.451V125.019C425.802 128.585 424.383 132.004 421.862 134.526C419.34 137.047 415.921 138.466 412.355 138.47V138.471ZM300.787 1.58299C297.64 1.58643 294.623 2.83803 292.398 5.06316C290.173 7.28828 288.921 10.3052 288.918 13.452V125.019C288.921 128.166 290.173 131.183 292.398 133.408C294.623 135.633 297.64 136.885 300.787 136.888H412.355C415.502 136.885 418.519 135.633 420.744 133.408C422.969 131.183 424.221 128.166 424.224 125.019V13.451C424.221 10.3042 422.969 7.28727 420.744 5.06215C418.519 2.83703 415.502 1.58544 412.355 1.582L300.787 1.58299Z" fill="#3F3D56"/>
<path d="M352.993 90.32C350.701 90.3407 348.43 89.8786 346.328 88.9639C344.226 88.0493 342.34 86.7024 340.793 85.0109C338.946 82.8699 337.561 80.3699 336.727 77.668C335.892 74.9662 335.625 72.1209 335.943 69.311C336.385 63.9343 338.637 58.8665 342.332 54.936C344.095 53.0284 346.229 51.5012 348.604 50.448C350.978 49.3947 353.543 48.8377 356.14 48.811C358.546 48.8004 360.928 49.2966 363.13 50.2671C365.332 51.2376 367.304 52.6607 368.92 54.444C370.761 56.5265 372.151 58.9681 373.001 61.6148C373.852 64.2614 374.144 67.0556 373.86 69.821V69.821C373.518 75.5217 371.063 80.8901 366.974 84.877C363.179 88.4082 358.177 90.3554 352.993 90.32V90.32ZM356.136 54.6119C348.802 54.6119 342.47 61.292 341.719 69.819C341.472 71.8273 341.643 73.8648 342.219 75.8045C342.795 77.7441 343.765 79.544 345.068 81.092C346.069 82.1938 347.293 83.0694 348.659 83.6602C350.025 84.251 351.501 84.5435 352.989 84.518C359.83 84.518 367.149 79.8179 368.076 69.3099C368.289 67.3465 368.094 65.3601 367.502 63.4759C366.91 61.5917 365.934 59.8505 364.636 58.3619C363.562 57.1752 362.25 56.2279 360.785 55.5818C359.321 54.9357 357.737 54.6052 356.136 54.6119V54.6119Z" fill="#FC5185"/>
<path d="M380.57 90.396C379.923 90.3976 379.277 90.3424 378.64 90.2311C376.965 89.942 375.367 89.3151 373.942 88.3887C372.517 87.4622 371.295 86.2555 370.351 84.8421C368.29 81.7731 367.419 77.66 367.834 72.948L369.727 51.4671C369.795 50.7006 370.164 49.9923 370.754 49.4981C371.343 49.0038 372.105 48.7641 372.872 48.8316C373.638 48.8991 374.346 49.2683 374.841 49.858C375.335 50.4477 375.575 51.2096 375.507 51.9761L373.614 73.457C373.072 79.616 375.329 83.751 379.653 84.517C382.111 84.7243 384.55 83.947 386.434 82.3561C389.121 80.2971 392.482 76.0431 393.234 67.4641C394.101 57.6221 391.586 49.1741 385.961 43.0311C380.061 36.5911 371.136 33.1871 360.144 33.1871C339.944 33.1871 322.063 49.6191 320.294 69.8171C319.948 73.617 320.222 77.4478 321.104 81.16C321.193 81.5304 321.209 81.9148 321.149 82.2911C321.09 82.6674 320.957 83.0284 320.758 83.3533C320.559 83.6783 320.298 83.9609 319.99 84.185C319.682 84.4091 319.333 84.5704 318.963 84.6596C318.592 84.7487 318.208 84.7641 317.832 84.7047C317.455 84.6453 317.094 84.5124 316.769 84.3136C316.444 84.1147 316.162 83.8538 315.938 83.5457C315.713 83.2377 315.552 82.8884 315.463 82.5181C314.434 78.1958 314.113 73.7351 314.514 69.31C315.67 57.9477 320.953 47.404 329.363 39.6766C337.773 31.9493 348.725 27.5751 360.144 27.3831C372.807 27.3831 383.214 31.4381 390.244 39.1111C396.901 46.3811 400.017 56.6311 399.018 67.9721C398.078 78.6531 393.575 84.193 389.963 86.961C387.285 89.09 383.99 90.2948 380.57 90.3951V90.396Z" fill="#FC5185"/>
<path d="M353.225 112.491C343.702 112.567 334.478 109.171 327.277 102.939C326.991 102.687 326.757 102.382 326.589 102.04C326.421 101.698 326.322 101.326 326.298 100.946C326.273 100.566 326.324 100.185 326.447 99.8241C326.57 99.4635 326.763 99.1307 327.015 98.8446C327.266 98.5585 327.572 98.3248 327.914 98.1568C328.256 97.9887 328.627 97.8897 329.007 97.8653C329.388 97.8409 329.769 97.8917 330.13 98.0147C330.49 98.1377 330.823 98.3305 331.109 98.5821C337.251 103.883 345.113 106.765 353.225 106.689C359.725 106.689 363.666 106.255 369.794 103.68C370.503 103.382 371.302 103.378 372.014 103.669C372.727 103.959 373.295 104.521 373.593 105.231C373.891 105.94 373.895 106.739 373.604 107.451C373.313 108.163 372.751 108.731 372.042 109.029C365.034 111.973 360.391 112.491 353.225 112.491Z" fill="#FC5185"/>
<path d="M302.262 365H0.791016C0.581097 365 0.379789 364.917 0.231354 364.768C0.0829187 364.62 -0.000488281 364.418 -0.000488281 364.208C-0.000488281 363.999 0.0829187 363.797 0.231354 363.649C0.379789 363.5 0.581097 363.417 0.791016 363.417H302.262C302.472 363.417 302.673 363.5 302.822 363.649C302.97 363.797 303.053 363.999 303.053 364.208C303.053 364.418 302.97 364.62 302.822 364.768C302.673 364.917 302.472 365 302.262 365V365Z" fill="#CCCCCC"/>
</g>
<defs>
<clipPath id="clip0_135_332">
<rect width="425.806" height="365" fill="white"/>
</clipPath>
</defs>
</svg>
