<svg xmlns="http://www.w3.org/2000/svg" xmlns:xlink="http://www.w3.org/1999/xlink" width="24" height="24" viewBox="0 0 24 24">
  <defs>
    <clipPath id="clip-path">
      <rect id="Rectangle_636" data-name="Rectangle 636" width="24" height="24" transform="translate(15 15)" fill="#07ca8d"/>
    </clipPath>
  </defs>
  <g id="Mask_Group_104" data-name="Mask Group 104" transform="translate(-15 -15)" clip-path="url(#clip-path)">
    <path id="globalization" d="M20.485,3.515A12,12,0,0,0,3.515,20.485,12,12,0,0,0,20.485,3.515ZM12.7,7.748a21.888,21.888,0,0,0,3.721-.424,20.026,20.026,0,0,1,.51,3.973H12.7Zm0-1.407V1.525a5.231,5.231,0,0,1,2.662,2.8,12.6,12.6,0,0,1,.674,1.643A20.554,20.554,0,0,1,12.7,6.341ZM11.3,1.525V6.341A20.554,20.554,0,0,1,7.96,5.969a12.609,12.609,0,0,1,.674-1.643A5.231,5.231,0,0,1,11.3,1.525Zm0,6.223V11.3H7.066a20.03,20.03,0,0,1,.51-3.973A21.888,21.888,0,0,0,11.3,7.748ZM5.659,11.3H1.43a10.494,10.494,0,0,1,1.937-5.44A14.151,14.151,0,0,0,6.211,6.99,21.473,21.473,0,0,0,5.659,11.3Zm0,1.406a21.476,21.476,0,0,0,.552,4.306,14.151,14.151,0,0,0-2.844,1.133A10.494,10.494,0,0,1,1.43,12.7Zm1.407,0H11.3v3.549a21.888,21.888,0,0,0-3.721.424A20.026,20.026,0,0,1,7.066,12.7ZM11.3,17.659v4.816a5.231,5.231,0,0,1-2.662-2.8,12.609,12.609,0,0,1-.674-1.643A20.554,20.554,0,0,1,11.3,17.659ZM12.7,22.475V17.659a20.554,20.554,0,0,1,3.336.372,12.609,12.609,0,0,1-.674,1.643A5.231,5.231,0,0,1,12.7,22.475Zm0-6.223V12.7h4.231a20.03,20.03,0,0,1-.51,3.973A21.888,21.888,0,0,0,12.7,16.252ZM18.341,12.7H22.57a10.494,10.494,0,0,1-1.937,5.44,14.151,14.151,0,0,0-2.844-1.133A21.473,21.473,0,0,0,18.341,12.7Zm0-1.406a21.476,21.476,0,0,0-.552-4.306,14.151,14.151,0,0,0,2.844-1.133A10.494,10.494,0,0,1,22.57,11.3Zm1.381-6.549a13,13,0,0,1-2.312.891A14.085,14.085,0,0,0,16.623,3.7a9.8,9.8,0,0,0-1.045-1.675,10.557,10.557,0,0,1,3.913,2.486C19.569,4.588,19.646,4.667,19.722,4.748ZM8.422,2.023A9.8,9.8,0,0,0,7.377,3.7,14.086,14.086,0,0,0,6.59,5.639a13.005,13.005,0,0,1-2.312-.891c.076-.081.152-.16.231-.239A10.557,10.557,0,0,1,8.422,2.023ZM4.278,19.252a13,13,0,0,1,2.312-.891A14.085,14.085,0,0,0,7.377,20.3a9.8,9.8,0,0,0,1.045,1.675,10.557,10.557,0,0,1-3.913-2.486C4.431,19.412,4.354,19.333,4.278,19.252Zm11.3,2.725A9.8,9.8,0,0,0,16.623,20.3a14.086,14.086,0,0,0,.787-1.942,13.006,13.006,0,0,1,2.312.891c-.076.081-.152.16-.231.239A10.557,10.557,0,0,1,15.578,21.977Z" transform="translate(15 15)" fill="#07ca8d"/>
  </g>
</svg>
