<svg xmlns="http://www.w3.org/2000/svg" xmlns:xlink="http://www.w3.org/1999/xlink" width="26" height="26" viewBox="0 0 26 26">
  <defs>
    <clipPath id="clip-path">
      <rect id="Rectangle_637" data-name="Rectangle 637" width="26" height="26" transform="translate(275 48.487)" fill="#07ca8d" stroke="#707070" stroke-width="1"/>
    </clipPath>
  </defs>
  <g id="Mask_Group_105" data-name="Mask Group 105" transform="translate(-275 -48.487)" clip-path="url(#clip-path)">
    <g id="surface1" transform="translate(278.081 48.487)">
      <path id="Path_3120" data-name="Path 3120" d="M19.35,15.561a3.069,3.069,0,0,1-1.861-1.807l-.187-.49H15.2a7.9,7.9,0,0,0-4.476-4.447,4.865,4.865,0,1,0-5.673,0A7.873,7.873,0,0,0,.023,16.149v4.482H9.26a9.006,9.006,0,0,0,4.363,5.016l.682.353.682-.353a9.013,9.013,0,0,0,4.874-8.006v-1.9Zm-1.012,2.08a7.462,7.462,0,0,1-4.033,6.644,7.475,7.475,0,0,1-4.033-6.644v-.855a4.583,4.583,0,0,0,2.051-2h3.964a4.585,4.585,0,0,0,2.051,2ZM4.542,4.866A3.343,3.343,0,1,1,7.885,8.209,3.347,3.347,0,0,1,4.542,4.866Zm-3,14.243V16.149a6.337,6.337,0,0,1,11.98-2.885H11.307l-.187.49A3.07,3.07,0,0,1,9.26,15.561l-.511.178v1.9a8.965,8.965,0,0,0,.121,1.467Zm0,0" transform="translate(-0.023)" fill="#07ca8d"/>
      <path id="Path_3121" data-name="Path 3121" d="M14.868,15.809l-1.523,1.472-.508.491L11.6,16.6l-1.046,1.107.115.109,1.612,1.523.571.539.558-.539,1.461-1.412,1.361-1.315-1.058-1.1Zm0,0" transform="translate(0.854 1.293)" fill="#07ca8d"/>
    </g>
  </g>
</svg>
