<svg xmlns="http://www.w3.org/2000/svg" xmlns:xlink="http://www.w3.org/1999/xlink" width="24" height="24" viewBox="0 0 24 24">
  <defs>
    <clipPath id="clip-path">
      <rect id="Rectangle_69" data-name="Rectangle 69" width="24" height="24" transform="translate(275 48.487)" fill="#07ca8d"/>
    </clipPath>
  </defs>
  <g id="Mask_Group_106" data-name="Mask Group 106" transform="translate(-275 -48.487)" clip-path="url(#clip-path)">
    <g id="credit-card-payment" transform="translate(275 48.487)">
      <path id="Path_3122" data-name="Path 3122" d="M23.928,12.43,21.016,1.564A2.112,2.112,0,0,0,18.433.072L3.038,4.2A2.112,2.112,0,0,0,1.547,6.78l.47,1.753A2.112,2.112,0,0,0,0,10.641v11.25A2.112,2.112,0,0,0,2.109,24H18.047a2.112,2.112,0,0,0,2.109-2.109V15.625l2.28-.611a2.112,2.112,0,0,0,1.492-2.583Zm-3.481-7.56.364,1.358-8.592,2.3H6.785ZM3.4,5.555,18.8,1.43a.7.7,0,0,1,.861.5l.425,1.585L3.33,8,2.905,6.417a.7.7,0,0,1,.5-.861ZM18.75,21.891a.7.7,0,0,1-.7.7H2.109a.7.7,0,0,1-.7-.7V10.641a.7.7,0,0,1,.7-.7H18.047a.7.7,0,0,1,.7.7Zm3.322-8.235-1.916.513V10.641a2.112,2.112,0,0,0-2.109-2.109h-.4l3.523-.944,1.4,5.207a.7.7,0,0,1-.5.861Z" fill="#07ca8d"/>
      <path id="Path_3123" data-name="Path 3123" d="M3.516,15.562H8.2a.7.7,0,0,0,.7-.7V12.047a.7.7,0,0,0-.7-.7H3.516a.7.7,0,0,0-.7.7v2.812A.7.7,0,0,0,3.516,15.562Zm.7-2.812H7.5v1.406H4.219Z" fill="#07ca8d"/>
      <path id="Path_3124" data-name="Path 3124" d="M16.641,11.344H14.3a.7.7,0,0,0,0,1.406h2.344a.7.7,0,1,0,0-1.406Z" fill="#07ca8d"/>
      <path id="Path_3125" data-name="Path 3125" d="M16.641,14.156H14.3a.7.7,0,0,0,0,1.406h2.344a.7.7,0,1,0,0-1.406Z" fill="#07ca8d"/>
      <path id="Path_3126" data-name="Path 3126" d="M8.2,19.781H3.516a.7.7,0,1,0,0,1.406H8.2a.7.7,0,1,0,0-1.406Z" fill="#07ca8d"/>
      <path id="Path_3127" data-name="Path 3127" d="M3.516,18.375H4.922a.7.7,0,1,0,0-1.406H3.516a.7.7,0,1,0,0,1.406Z" fill="#07ca8d"/>
      <path id="Path_3128" data-name="Path 3128" d="M9.141,16.969H7.734a.7.7,0,1,0,0,1.406H9.141a.7.7,0,1,0,0-1.406Z" fill="#07ca8d"/>
      <path id="Path_3129" data-name="Path 3129" d="M13.359,16.969H11.953a.7.7,0,1,0,0,1.406h1.406a.7.7,0,1,0,0-1.406Z" fill="#07ca8d"/>
    </g>
  </g>
</svg>
