<svg id="undraw_certification_aif8" xmlns="http://www.w3.org/2000/svg" width="281.566" height="228.382" viewBox="0 0 281.566 228.382">
  <path id="Path_2537" data-name="Path 2537" d="M274.647,674.575a288.558,288.558,0,0,0,39.186-2.568c.424-.054.854-.115,1.281-.178,3.188-.454,6.378-.972,9.479-1.541a204.736,204.736,0,0,0,39.114-11.079c39.93-15.972,65.035-12.573,79.064-6.909,15.183,6.13,21.019,16.159,21.076,16.26l.5-.283c-.058-.1-5.97-10.281-21.318-16.491-9-3.642-19.439-5.233-31.032-4.732-14.471.627-30.79,4.537-48.5,11.622a204.194,204.194,0,0,1-39,11.048c-3.094.567-6.276,1.085-9.458,1.537-.425.063-.851.123-1.274.178-35.208,4.843-69.174,1.922-91.468-1.38a293.3,293.3,0,0,1-30.32-5.937l-.15.554a293.777,293.777,0,0,0,30.386,5.951,362.05,362.05,0,0,0,52.442,3.949Z" transform="translate(-182.782 -464.839)" fill="#3f3d56"/>
  <path id="Path_2538" data-name="Path 2538" d="M274.607,196.723c10.123,0,19.977-.474,29.485-1.421,21.848-2.176,41.905-6.871,59.614-13.954,39.929-15.972,65.035-12.573,79.064-6.909,15.183,6.13,21.019,16.159,21.076,16.259l.5-.283c-.058-.1-5.97-10.28-21.318-16.491-9-3.642-19.439-5.234-31.032-4.732-14.471.627-30.79,4.537-48.5,11.622-39.992,16-84.495,16.626-114.785,14.338-32.831-2.481-56.5-8.829-56.74-8.893l-.15.554c.236.064,23.952,6.425,56.834,8.91C257.456,196.391,266.126,196.723,274.607,196.723Z" transform="translate(-182.78 -151.794)" fill="#3f3d56"/>
  <path id="Path_2539" data-name="Path 2539" d="M678.468,121.7s11.289-4.032,18.546,12.1,18.546,33.867,18.546,33.867l-6.451,1.613s-1.613-11.289-5.645-12.9l1.613,14.515s-48.382,16.934-70.154-1.613l.806-5.645s-3.225.806-3.225,5.645l-2.419-2.419s2.419-4.838,9.676-11.289c4.763-4.234,6.4-12.29,6.963-17.326a20.967,20.967,0,0,1,4.827-11.418C656.375,121.23,665.163,115.29,678.468,121.7Z" transform="translate(-585.155 -118.919)" fill="#2f2e41"/>
  <path id="Path_2540" data-name="Path 2540" d="M876.782,391.56s-21.244,18.12-24.368,28.742,11.871,11.871,11.871,11.871l32.491,3.124s.625,15,6.248,16.87,1.142-24.8,1.142-24.8l-31.758-8.943,14.371-15Z" transform="translate(-851.986 -297.525)" fill="#fbbebe"/>
  <path id="Path_2541" data-name="Path 2541" d="M597.052,445.907l2.5,33.115L613.3,535.256s12.5,25.617,1.875,26.242-10-24.368-10-24.368l-19.994-53.109-1.874-36.239Z" transform="translate(-472.911 -333.128)" fill="#fbbebe"/>
  <ellipse id="Ellipse_227" data-name="Ellipse 227" cx="20.619" cy="20.619" rx="20.619" ry="20.619" transform="translate(68.533 13.434)" fill="#fbbebe"/>
  <path id="Path_2542" data-name="Path 2542" d="M740.622,246.635s-7.5,26.867,4.374,33.74S715,292.247,703.758,271.628c0,0,19.994-6.873,14.371-24.993Z" transform="translate(-642.098 -202.585)" fill="#fbbebe"/>
  <path id="Path_2543" data-name="Path 2543" d="M649,351.143l3.749-1.25s7.5,3.124,7.5,8.747,1.25,28.117,1.25,28.117l-16.87,1.874Z" transform="translate(-536.105 -270.23)" fill="#07ca8d"/>
  <path id="Path_2544" data-name="Path 2544" d="M628.32,605.007c23.065,3.417,56.683,6.176,91.547,1.381,0-.345,0-.68,0-1.008q0-2.924-.224-5.783c-1.786-23.465-13.874-43.027-18.552-49.806-.235-.344-.454-.655-.649-.93-.755-1.06-1.194-1.619-1.194-1.619s-36.239-.592-54.983,6.906a8.064,8.064,0,0,0-2.441,1.6C634.838,562.192,630.732,583.13,628.32,605.007Z" transform="translate(-588.854 -399.504)" fill="#2f2e41"/>
  <path id="Path_2545" data-name="Path 2545" d="M876.389,326.219s-8.122-4.374-16.245,5L843.9,349.962l12.5,13.746,23.743-14.371Z" transform="translate(-823.476 -254.053)" fill="#07ca8d"/>
  <path id="Path_2546" data-name="Path 2546" d="M725.48,171.384c-7.3-5.283-13.208-11.367-17.116-18.6,0,0-13.4,14.884-21.581,15.628s-.744-17.861-.744-17.861l14.884-3.721,14.14,1.488,11.163,7.442Z" transform="translate(-614.047 -137.201)" fill="#2f2e41"/>
  <path id="Path_2547" data-name="Path 2547" d="M691.232,315.474s8.744,13.825,34.988,7.225l14.892,4.1,1.979.545s-1.875,37.489-6.873,44.362-3.749,10.622-2.5,11.247,4.374-.625,2.5,2.5-4.374,1.25-1.874,3.124,3.749,8.747,3.749,8.747l-58.733,7.5s1.875-24.368-3.124-36.864-6.248-17.495-6.248-17.495l3.749-31.241Z" transform="translate(-626.448 -247.682)" fill="#07ca8d"/>
  <rect id="Rectangle_572" data-name="Rectangle 572" width="80.397" height="100.497" transform="translate(186.849 55.561)" fill="#e6e6e6"/>
  <rect id="Rectangle_573" data-name="Rectangle 573" width="17.228" height="11.485" transform="translate(195 64.031)" fill="#fff"/>
  <rect id="Rectangle_574" data-name="Rectangle 574" width="66.615" height="4.02" transform="translate(195 86.428)" fill="#fff"/>
  <rect id="Rectangle_575" data-name="Rectangle 575" width="66.615" height="4.02" transform="translate(194.888 97.052)" fill="#fff"/>
  <rect id="Rectangle_576" data-name="Rectangle 576" width="66.615" height="4.02" transform="translate(194.888 107.676)" fill="#fff"/>
  <rect id="Rectangle_577" data-name="Rectangle 577" width="66.615" height="4.02" transform="translate(194.888 118.3)" fill="#fff"/>
  <rect id="Rectangle_578" data-name="Rectangle 578" width="66.615" height="4.02" transform="translate(194.888 128.924)" fill="#fff"/>
  <path id="Path_2548" data-name="Path 2548" d="M420.9,541.029a15.748,15.748,0,1,0,2.441-8.436A15.748,15.748,0,0,0,420.9,541.029Z" transform="translate(-249.844 -385.114)" fill="#07ca8d"/>
  <path id="Path_2549" data-name="Path 2549" d="M463.429,542.046l-15.545,15.543c-.977-1.513-6.42-8.542-6.42-8.542a22.031,22.031,0,0,1,2.228-1.967L448.2,553.1l13.4-13.4a15.739,15.739,0,0,1,1.82,2.352Z" transform="translate(-261.874 -397.147)" fill="#fff"/>
</svg>
