<svg xmlns="http://www.w3.org/2000/svg" width="326.213" height="393" viewBox="0 0 326.213 393">
  <g id="undraw_certificate_re_yadi" transform="translate(0.003 0)">
    <path id="Path_3330" data-name="Path 3330" d="M308.261,417.059A15.96,15.96,0,0,0,332.43,420.9l49.2,28.217L379.794,419.7l-46.438-22.285a16.046,16.046,0,0,0-25.095,19.643Z" transform="translate(-305.93 -229.092)" fill="#ffb8b8"/>
    <path id="Path_3331" data-name="Path 3331" d="M550.342,628.623c-14.594,20.426-14.071,54.6-10,92h69l3-7,4,7h65s-5-95-14-98S550.342,628.623,550.342,628.623Z" transform="translate(-405.58 -327.621)" fill="#2f2e41"/>
    <circle id="Ellipse_354" data-name="Ellipse 354" cx="34.999" cy="34.999" r="34.999" transform="translate(168.762 17.598)" fill="#ffb8b8"/>
    <path id="Path_3332" data-name="Path 3332" d="M618.888,275.368l6.844,13.118,47.34,21.1L660.628,430.013l-5.238,12.47,2.83,10.83-6.822,7.992c6.848,6.2,7.718,12.683,3.993,19.392l-21.8,4.994s-121.214,10.779-111-8c11.162-20.518,14-81.114-10.637-113.495-20.919-27.491-4.859-63.163-4.859-63.163L556.718,286.2l18.252-10.837Z" transform="translate(-389.83 -178.69)" fill="#3f3d56"/>
    <path id="Path_3333" data-name="Path 3333" d="M648.829,107.194a1.93,1.93,0,0,1,1.857-1.1c-16.023-.958-32.9.909-46.306,9.739-3.248,2.139-6.31,4.691-9.844,6.243a1.06,1.06,0,0,0-.216,1.8l.388.3a1.064,1.064,0,0,1-.346,1.856h0a1.064,1.064,0,0,0-.267,1.912l2.975,1.923a1.06,1.06,0,0,1,.01,1.783,5.288,5.288,0,0,1-.791.4,1.062,1.062,0,0,0-.337,1.784,10.573,10.573,0,0,1,2.878,4.207,27.109,27.109,0,0,1,1.337,8.142c1.025-3.978,5.366-6.319,9.467-6.557s8.1,1.115,12.091,2.088a66.887,66.887,0,0,0,26.549,1.021c-3,6.017-.469,13.193,2.076,19.415l8.238-3.531c11.314-6.386,3.433,20.629-.8,24.337,8.636,2.994,31.24-30.237,23.968-42.842-3.783-6.557-1.1-15.014-8.534-21.233-3.645-3.837-10.922-2.132-14.637-5.32-1.462-1.255.767-4.613-1.243-5.345C656.676,107.979,648.939,106.949,648.829,107.194Z" transform="translate(-429.529 -105.865)" fill="#2f2e41"/>
    <path id="Path_3334" data-name="Path 3334" d="M495.422,300.308C489,328.82,472.528,395.393,455.816,409.315a9.749,9.749,0,0,1-3.719,2.2c-58.741,14.31-77.563-22.193-77.563-22.193s15.742-7.671,16.141-22.666l31.746,9.85L450.1,314.225l4.072-3.8.023-.023Z" transform="translate(-335.406 -189.405)" fill="#3f3d56"/>
    <path id="Path_3335" data-name="Path 3335" d="M785.555,702.668a15.96,15.96,0,0,0-1.676-24.415l16.468-54.272-28.255,8.382-11.306,50.252a16.046,16.046,0,0,0,24.769,20.052Z" transform="translate(-500.293 -328.469)" fill="#ffb8b8"/>
    <path id="Path_3336" data-name="Path 3336" d="M773.624,330.044l13.052,3.036s53.947,104.962,40.947,124.962S798.7,544.255,798.7,544.255s-23.555-4.683-32.555-16.682l16.481-78.531-17-66Z" transform="translate(-503.434 -202.181)" fill="#3f3d56"/>
    <path id="Path_3337" data-name="Path 3337" d="M345.51,466.285l.469-169.048a12.92,12.92,0,0,1,12.941-12.87l127.669.354a12.92,12.92,0,0,1,12.87,12.941l-.469,169.048a12.92,12.92,0,0,1-12.941,12.87l-127.669-.354a12.92,12.92,0,0,1-12.87-12.941Z" transform="translate(-322.936 -182.556)" fill="#e6e6e6"/>
    <path id="Path_3338" data-name="Path 3338" d="M362.928,422.9l.3-108.68a12.1,12.1,0,0,1,12.12-12.053l109.721.3a12.1,12.1,0,0,1,12.053,12.12l-.417,150.43a12.1,12.1,0,0,1-12.12,12.053l-67.97-.188A53.9,53.9,0,0,1,362.928,422.9Z" transform="translate(-330.42 -190.204)" fill="#fff"/>
    <path id="Path_3339" data-name="Path 3339" d="M486.721,378.134H401.167a5.133,5.133,0,1,1,0-10.266h85.554a5.133,5.133,0,0,1,0,10.267Z" transform="translate(-344.644 -218.432)" fill="#01c98a"/>
    <path id="Path_3340" data-name="Path 3340" d="M419.989,336.634H401.167a5.133,5.133,0,0,1,0-10.267h18.822a5.133,5.133,0,0,1,0,10.267Z" transform="translate(-344.644 -200.602)" fill="#01c98a"/>
    <path id="Path_3341" data-name="Path 3341" d="M486.721,419.634H401.167a5.133,5.133,0,1,1,0-10.266h85.554a5.133,5.133,0,0,1,0,10.267Z" transform="translate(-344.644 -236.262)" fill="#01c98a"/>
    <path id="Path_3342" data-name="Path 3342" d="M486.721,461.134H401.167a5.133,5.133,0,0,1,0-10.266h85.554a5.133,5.133,0,1,1,0,10.266Z" transform="translate(-344.644 -254.092)" fill="#01c98a"/>
    <circle id="Ellipse_355" data-name="Ellipse 355" cx="20.425" cy="20.425" r="20.425" transform="translate(114.73 228.562)" fill="#01c98a"/>
    <path id="Path_3343" data-name="Path 3343" d="M532.1,545.029a2.271,2.271,0,0,1-1.817-.909l-5.572-7.43a2.272,2.272,0,0,1,3.635-2.726l3.646,4.86,9.363-14.045a2.272,2.272,0,0,1,3.781,2.521l-11.145,16.717a2.273,2.273,0,0,1-1.827,1.011Z" transform="translate(-399.734 -285.413)" fill="#fff"/>
    <circle id="Ellipse_356" data-name="Ellipse 356" cx="9.696" cy="9.696" r="9.696" transform="translate(81.905 43.064)" fill="#f2f2f2"/>
    <circle id="Ellipse_357" data-name="Ellipse 357" cx="9.696" cy="9.696" r="9.696" transform="translate(46.542 321.97)" fill="#f2f2f2"/>
    <circle id="Ellipse_358" data-name="Ellipse 358" cx="9.696" cy="9.696" r="9.696" transform="translate(269.553 80.708)" fill="#f2f2f2"/>
  </g>
</svg>
