<svg width="60" height="60" viewBox="0 0 60 60" fill="none" xmlns="http://www.w3.org/2000/svg">
<g clip-path="url(#clip0_1298_35936)">
<path d="M60 30C60 13.4315 46.5685 0 30 0C13.4315 0 0 13.4315 0 30C0 46.5685 13.4315 60 30 60C46.5685 60 60 46.5685 60 30Z" fill="#F4F5FF"/>
<mask id="mask0_1298_35936" style="mask-type:luminance" maskUnits="userSpaceOnUse" x="20" y="20" width="20" height="20">
<path d="M40 20H20V40H40V20Z" fill="white"/>
</mask>
<g mask="url(#mask0_1298_35936)">
<path d="M20.781 27.344H22.344C22.5511 27.344 22.7498 27.2617 22.8963 27.1152C23.0427 26.9688 23.125 26.7701 23.125 26.563C23.125 26.3558 23.0427 26.1572 22.8963 26.0107C22.7498 25.8643 22.5511 25.782 22.344 25.782H20.781C20.5737 25.782 20.375 25.8643 20.2284 26.0109C20.0818 26.1574 19.9995 26.3562 19.9995 26.5635C19.9995 26.7707 20.0818 26.9695 20.2284 27.1161C20.375 27.2626 20.5737 27.344 20.781 27.344Z" fill="#6741EE"/>
<path d="M23.549 24.0679C23.6987 24.1928 23.8897 24.2571 24.0845 24.2483C24.2792 24.2395 24.4636 24.1582 24.6015 24.0204C24.7393 23.8825 24.8206 23.6981 24.8294 23.5034C24.8382 23.3086 24.7739 23.1177 24.649 22.9679L23.56 21.8689C23.4103 21.7441 23.2193 21.6797 23.0246 21.6885C22.8298 21.6973 22.6454 21.7787 22.5076 21.9165C22.3697 22.0543 22.2884 22.2387 22.2796 22.4335C22.2708 22.6282 22.3352 22.8192 22.46 22.9689L23.549 24.0679Z" fill="#6741EE"/>
<path d="M27.656 23.125C27.8631 23.125 28.0618 23.0427 28.2083 22.8963C28.3547 22.7498 28.437 22.5511 28.437 22.344V20.781C28.437 20.5739 28.3547 20.3752 28.2083 20.2287C28.0618 20.0823 27.8631 20 27.656 20C27.4489 20 27.2502 20.0823 27.1037 20.2287C26.9573 20.3752 26.875 20.5739 26.875 20.781V22.344C26.875 22.4466 26.8952 22.5481 26.9345 22.6429C26.9737 22.7376 27.0312 22.8237 27.1037 22.8963C27.1763 22.9688 27.2624 23.0263 27.3571 23.0655C27.4519 23.1048 27.5534 23.125 27.656 23.125Z" fill="#6741EE"/>
<path d="M33.4382 36.875C33.2311 36.875 33.0324 36.9573 32.886 37.1038C32.7395 37.2502 32.6572 37.4489 32.6572 37.656V39.219C32.6572 39.4263 32.7396 39.625 32.8861 39.7716C33.0327 39.9182 33.2315 40.0005 33.4387 40.0005C33.646 40.0005 33.8448 39.9182 33.9913 39.7716C34.1379 39.625 34.2202 39.4263 34.2202 39.219V37.656C34.2202 37.5534 34.2 37.4517 34.1607 37.3569C34.1214 37.2621 34.0638 37.1759 33.9911 37.1034C33.9185 37.0309 33.8323 36.9734 33.7374 36.9342C33.6425 36.895 33.5409 36.8749 33.4382 36.875Z" fill="#6741EE"/>
<path d="M38.015 28.5279L39.929 24.3479C39.9837 24.2289 40.0075 24.0981 39.9984 23.9674C39.9893 23.8368 39.9474 23.7105 39.8767 23.6003C39.806 23.4901 39.7087 23.3994 39.5938 23.3366C39.4789 23.2738 39.35 23.2409 39.219 23.2409H36.719V20.7809C36.7191 20.6497 36.6862 20.5205 36.6231 20.4053C36.5601 20.2902 36.4691 20.1927 36.3584 20.1221C36.2478 20.0514 36.1211 20.0098 35.9901 20.001C35.8592 19.9922 35.7281 20.0166 35.609 20.0719L31.391 22.0249C31.2557 22.0876 31.1412 22.1876 31.0609 22.3132C30.9806 22.4389 30.938 22.5849 30.938 22.7339V25.2639C30.481 25.4759 30.019 25.6869 29.567 25.8939C26.154 27.4579 22.931 28.9339 21.194 30.6499C20.8143 31.0269 20.5132 31.4754 20.3082 31.9697C20.1032 32.4639 19.9985 32.9939 20 33.5289V36.8749C20.0011 37.7034 20.3307 38.4977 20.9165 39.0835C21.5023 39.6693 22.2965 39.9989 23.125 39.9999H26.525C27.0561 40.0014 27.5822 39.8981 28.0733 39.696C28.5644 39.4938 29.0108 39.1968 29.387 38.8219C30.804 37.5219 31.987 35.2639 33.326 32.2729C33.4133 32.0776 33.5007 31.8809 33.588 31.6829C33.6294 31.5891 33.652 31.488 33.6544 31.3855C33.6567 31.283 33.6389 31.181 33.6018 31.0853C33.5648 30.9897 33.5093 30.9023 33.4384 30.8281C33.3676 30.7539 33.2828 30.6944 33.189 30.6529C33.0952 30.6115 32.9941 30.589 32.8916 30.5866C32.789 30.5842 32.687 30.6021 32.5914 30.6391C32.4957 30.6762 32.4083 30.7317 32.3341 30.8025C32.26 30.8734 32.2004 30.9581 32.159 31.0519C32.073 31.2466 31.9867 31.4406 31.9 31.6339C31.1001 33.6588 30.0232 35.563 28.7 37.2919L24.45 33.0419C24.3003 32.9171 24.1093 32.8527 23.9146 32.8615C23.7198 32.8703 23.5354 32.9517 23.3976 33.0895C23.2597 33.2273 23.1784 33.4118 23.1696 33.6065C23.1608 33.8012 23.2252 33.9922 23.35 34.1419L27.461 38.2529C27.1638 38.3723 26.8463 38.4334 26.526 38.4329H23.126C22.7119 38.4324 22.3149 38.2677 22.0221 37.9749C21.7293 37.682 21.5645 37.2851 21.564 36.8709V33.5289C21.5631 33.2003 21.6273 32.8748 21.753 32.5712C21.8786 32.2676 22.0632 31.9918 22.296 31.7599C23.836 30.2379 27.081 28.7529 30.219 27.3159C30.673 27.1079 31.139 26.8949 31.6 26.6809L33.636 28.6389C33.7074 28.7455 33.804 28.8329 33.9172 28.8932C34.0304 28.9536 34.1567 28.9851 34.285 28.9849H37.3C37.4506 28.9858 37.5981 28.9431 37.725 28.862C37.8519 28.7809 37.9526 28.6649 38.015 28.5279ZM34.623 27.4219L32.5 25.3799C32.5 25.3709 32.5 25.3609 32.5 25.3519V23.2339L35.156 21.9999V24.0199C35.156 24.2271 35.2383 24.4257 35.3848 24.5722C35.5312 24.7187 35.7299 24.8009 35.937 24.8009H38L36.8 27.4219H34.623Z" fill="#6741EE"/>
<path d="M39.219 31.563H37.656C37.4487 31.563 37.25 31.6453 37.1034 31.7919C36.9568 31.9384 36.8745 32.1372 36.8745 32.3445C36.8745 32.5518 36.9568 32.7505 37.1034 32.8971C37.25 33.0437 37.4487 33.126 37.656 33.126H39.219C39.4261 33.126 39.6248 33.0437 39.7713 32.8972C39.9177 32.7508 40 32.5521 40 32.345C40 32.1379 39.9177 31.9392 39.7713 31.7927C39.6248 31.6463 39.4261 31.564 39.219 31.564V31.563Z" fill="#6741EE"/>
<path d="M37.0371 35.346C36.8873 35.2211 36.6963 35.1568 36.5016 35.1656C36.3069 35.1744 36.1225 35.2557 35.9846 35.3935C35.8468 35.5314 35.7655 35.7158 35.7567 35.9105C35.7479 36.1053 35.8122 36.2963 35.9371 36.446L37.0311 37.54C37.1808 37.6648 37.3718 37.7292 37.5665 37.7204C37.7612 37.7116 37.9457 37.6303 38.0835 37.4924C38.2213 37.3546 38.3027 37.1702 38.3115 36.9754C38.3203 36.7807 38.2559 36.5897 38.1311 36.44L37.0371 35.346Z" fill="#6741EE"/>
</g>
</g>
<defs>
<clipPath id="clip0_1298_35936">
<rect width="60" height="60" fill="white"/>
</clipPath>
</defs>
</svg>
