<svg width="60" height="60" viewBox="0 0 60 60" fill="none" xmlns="http://www.w3.org/2000/svg">
<g clip-path="url(#clip0_1298_35973)">
<path d="M60 30C60 13.4315 46.5685 0 30 0C13.4315 0 0 13.4315 0 30C0 46.5685 13.4315 60 30 60C46.5685 60 60 46.5685 60 30Z" fill="#F4F5FF"/>
<mask id="mask0_1298_35973" style="mask-type:luminance" maskUnits="userSpaceOnUse" x="19" y="19" width="22" height="22">
<path d="M41 19H19V41H41V19Z" fill="white"/>
</mask>
<g mask="url(#mask0_1298_35973)">
<path d="M39.5258 20.473C38.5802 19.5296 37.299 18.9998 35.9633 18.9998C34.6276 18.9998 33.3464 19.5296 32.4008 20.473L29.2938 23.581L30.7288 25.015L33.8378 21.906C34.1173 21.6265 34.4491 21.4049 34.8143 21.2536C35.1795 21.1024 35.5709 21.0246 35.9661 21.0247C36.3614 21.0247 36.7528 21.1026 37.1179 21.2539C37.4831 21.4052 37.8148 21.6269 38.0943 21.9065C38.3737 22.186 38.5954 22.5178 38.7466 22.883C38.8978 23.2482 38.9756 23.6396 38.9756 24.0348C38.9755 24.4301 38.8976 24.8214 38.7463 25.1866C38.595 25.5517 38.3733 25.8835 38.0938 26.163L33.4298 30.827C32.8655 31.3912 32.1002 31.7081 31.3023 31.7081C30.5043 31.7081 29.7391 31.3912 29.1748 30.827L27.7378 32.262C28.2055 32.7298 28.7608 33.1009 29.372 33.3541C29.9832 33.6073 30.6383 33.7376 31.2998 33.7376C31.9613 33.7376 32.6164 33.6073 33.2276 33.3541C33.8387 33.1009 34.3941 32.7298 34.8618 32.262L39.5268 27.6C40.4707 26.6542 41.0007 25.3725 41.0005 24.0363C41.0003 22.7 40.4699 21.4185 39.5258 20.473Z" fill="#6741EE"/>
<path d="M26.1628 38.0921C25.8833 38.3714 25.5516 38.593 25.1865 38.7442C24.8214 38.8954 24.4301 38.9732 24.0349 38.9731C23.2369 38.9731 22.4715 38.6559 21.9073 38.0916C21.343 37.5272 21.0261 36.7618 21.0262 35.9637C21.0263 35.1656 21.3434 34.4003 21.9078 33.8361L26.5718 29.1721C27.1364 28.6086 27.9016 28.2922 28.6993 28.2922C29.497 28.2922 30.2621 28.6086 30.8268 29.1721L32.2618 27.7371C31.3163 26.7934 30.0351 26.2634 28.6993 26.2634C27.3635 26.2634 26.0822 26.7934 25.1368 27.7371L20.4728 32.4011C20.0049 32.869 19.6337 33.4246 19.3805 34.036C19.1273 34.6474 18.997 35.3026 18.9971 35.9644C18.9972 37.3009 19.5282 38.5826 20.4733 39.5276C21.4184 40.4725 22.7001 41.0033 24.0366 41.0032C25.3731 41.0032 26.6548 40.4722 27.5998 39.5271L30.7088 36.4171L29.2738 34.9821L26.1628 38.0921Z" fill="#6741EE"/>
</g>
</g>
<defs>
<clipPath id="clip0_1298_35973">
<rect width="60" height="60" fill="white"/>
</clipPath>
</defs>
</svg>
