<svg width="60" height="60" viewBox="0 0 60 60" fill="none" xmlns="http://www.w3.org/2000/svg">
<g clip-path="url(#clip0_1298_35923)">
<path d="M60 30C60 13.4315 46.5685 0 30 0C13.4315 0 0 13.4315 0 30C0 46.5685 13.4315 60 30 60C46.5685 60 60 46.5685 60 30Z" fill="#F4F5FF"/>
<mask id="mask0_1298_35923" style="mask-type:luminance" maskUnits="userSpaceOnUse" x="19" y="19" width="22" height="22">
<path d="M41 19H19V41H41V19Z" fill="white"/>
</mask>
<g mask="url(#mask0_1298_35923)">
<path d="M20.4922 23.325C20.4953 23.1786 20.5411 23.0363 20.6239 22.9156C20.7066 22.7948 20.8228 22.7008 20.9582 22.645L29.7072 19.035C29.8913 18.959 30.098 18.959 30.2822 19.035L39.0402 22.646C39.176 22.702 39.2925 22.7964 39.3753 22.9178C39.4581 23.0392 39.5036 23.1821 39.5062 23.329C39.6182 29.943 37.0912 36.79 31.4062 40.555C30.9887 40.8433 30.4969 41.005 29.9898 41.0208C29.4827 41.0366 28.9818 40.9058 28.5472 40.644C26.0472 39.215 20.2402 34.687 20.4882 23.325H20.4922ZM21.9922 23.848C21.9322 34.037 27.0602 38.066 29.2922 39.334C29.4885 39.4458 29.7117 39.5016 29.9376 39.4955C30.1634 39.4893 30.3832 39.4213 30.5732 39.299C35.6732 35.92 37.9942 29.784 38.0012 23.846L29.9942 20.546L21.9922 23.848Z" fill="#6741EE"/>
<path d="M33.5531 27.268V26.279C33.5038 25.3322 33.093 24.4405 32.4055 23.7878C31.7179 23.1351 30.8061 22.7712 29.8581 22.7712C28.91 22.7712 27.9982 23.1351 27.3107 23.7878C26.6231 24.4405 26.2123 25.3322 26.1631 26.279V27.267C25.8989 27.4138 25.6786 27.6285 25.525 27.8888C25.3714 28.1491 25.2899 28.4457 25.2891 28.748V33.266C25.2907 33.7158 25.4705 34.1466 25.7891 34.4642C26.1077 34.7817 26.5392 34.96 26.9891 34.96H32.7351C33.1849 34.96 33.6164 34.7817 33.935 34.4642C34.2537 34.1466 34.4335 33.7158 34.4351 33.266V28.749C34.4334 28.4459 34.3508 28.1488 34.1957 27.8884C34.0406 27.628 33.8187 27.4138 33.5531 27.268ZM29.8531 24.168C30.4237 24.1572 30.9752 24.3736 31.3862 24.7695C31.7973 25.1654 32.0343 25.7083 32.0451 26.279V27.054H27.6701V26.279C27.6811 25.7092 27.9177 25.1671 28.3278 24.7716C28.738 24.376 29.2883 24.1593 29.8581 24.169L29.8531 24.168ZM32.9141 33.268C32.9138 33.3177 32.8939 33.3654 32.8587 33.4006C32.8235 33.4358 32.7758 33.4557 32.7261 33.456H26.9851C26.9353 33.4557 26.8876 33.4358 26.8524 33.4006C26.8172 33.3654 26.7973 33.3177 26.7971 33.268V28.749C26.7973 28.6992 26.8172 28.6515 26.8524 28.6163C26.8876 28.5811 26.9353 28.5612 26.9851 28.561H32.7311C32.7808 28.5612 32.8285 28.5811 32.8637 28.6163C32.8989 28.6515 32.9188 28.6992 32.9191 28.749V33.267L32.9141 33.268Z" fill="#6741EE"/>
<path d="M30.8 30.37C30.8003 30.2094 30.7595 30.0513 30.6815 29.9109C30.6035 29.7704 30.4909 29.6523 30.3543 29.5676C30.2178 29.483 30.0618 29.4347 29.9014 29.4273C29.7409 29.4199 29.5812 29.4537 29.4374 29.5254C29.2937 29.5971 29.1706 29.7044 29.0801 29.8371C28.9895 29.9698 28.9343 30.1234 28.9198 30.2834C28.9054 30.4434 28.9321 30.6045 28.9974 30.7512C29.0627 30.898 29.1645 31.0257 29.293 31.122V32.528H30.423V31.121C30.5399 31.0338 30.6349 30.9205 30.7003 30.7901C30.7658 30.6597 30.7999 30.5159 30.8 30.37Z" fill="#6741EE"/>
</g>
</g>
<defs>
<clipPath id="clip0_1298_35923">
<rect width="60" height="60" fill="white"/>
</clipPath>
</defs>
</svg>
