<svg width="418" height="300" viewBox="0 0 418 300" fill="none" xmlns="http://www.w3.org/2000/svg">
<g clip-path="url(#clip0_431_118)">
<path d="M319.903 296.277C307.029 296.169 278.918 296.277 277.677 296.277C277.353 296.277 277.018 296.245 276.705 296.277C275.659 296.385 275.421 295.77 275.529 294.928C276.08 290.806 275.767 286.64 276.036 282.507C276.403 277.079 276.662 271.64 276.975 266.202C277.407 258.658 277.849 251.115 278.259 243.572C278.378 241.457 278.389 239.342 278.454 237.227C278.497 235.684 278.367 234.108 279.824 233.007C280.137 232.77 280.321 232.349 280.04 231.917C279.695 231.389 279.231 231.453 278.756 231.691C278.184 231.982 277.58 232.252 277.051 232.63C267.792 239.105 258.533 245.569 249.295 252.087C243.112 256.446 236.982 260.86 230.831 265.263C229.439 266.256 228.058 267.248 226.698 268.274C224.799 269.676 222.835 269.752 220.731 268.748C217.008 266.979 213.846 264.432 210.824 261.702C200.734 252.583 191.173 242.935 181.666 233.223C180.781 232.317 180.835 231.745 181.709 230.892C185.432 227.256 189.101 223.554 192.813 219.896C194.324 218.407 194.357 218.428 195.997 219.615C203.583 225.087 211.191 230.536 218.961 235.727C221.022 237.108 223.288 237.238 225.295 235.748C230.454 231.917 235.504 227.946 240.436 223.835C248.065 217.489 255.932 211.446 263.777 205.371C267.317 202.63 270.932 199.997 274.504 197.32C277.202 195.302 280.256 194.342 283.472 193.727C288.425 192.788 293.367 191.806 298.321 190.921C300.317 190.565 302.357 190.446 304.364 190.144C305.249 190.015 305.929 190.446 306.684 190.705C316.288 193.975 326.044 194.979 335.929 192.216C338.249 191.569 340.439 191.245 342.824 191.698C347.853 192.637 352.947 193.187 357.878 194.644C360.63 195.464 362.788 196.975 364.547 199.274C370.903 207.615 377.853 215.504 383.81 224.158C386.475 228.033 389.281 231.842 391.385 236.083C392.357 238.036 392.184 239.633 391.159 241.554C384.047 255 376.105 267.982 368.529 281.158C368.011 282.054 367.58 283.036 366.759 283.748C365.907 282.799 366.554 281.633 366.317 280.576C365.896 278.709 366.587 277.209 367.677 275.655C371.831 269.72 375.824 263.687 379.871 257.687C381.047 255.939 381.069 255.907 379.752 254.31C375.058 248.687 370.364 243.076 365.616 237.507C364.86 236.612 364.083 235.846 364.245 234.551C364.277 234.248 364.17 233.903 364.029 233.622C363.813 233.18 363.49 232.759 362.918 232.824C362.4 232.889 362 233.202 361.914 233.741C361.839 234.216 361.806 234.712 361.828 235.198C362.033 241.295 362.227 247.392 362.486 253.479C362.756 259.899 363.112 266.31 363.414 272.73C363.727 279.389 364.018 286.047 364.31 292.716C364.321 292.964 364.353 293.202 364.364 293.45C364.407 294.497 364.439 295.284 364.105 295.748C363.63 296.428 362.465 296.364 362.076 296.353C358.094 296.18 354.036 297.313 350.119 296.569C350 296.547 339.964 296.461 319.882 296.299L319.903 296.277Z" fill="#673DE6"/>
<path d="M278.874 42.6907C282.144 41.7842 285.425 40.867 288.695 39.9605C292.763 38.8382 296.95 38.4065 301.094 37.7375C308.928 36.4749 316.806 36.8094 324.662 36.8634C328.061 36.885 331.45 37.5648 334.698 38.4821C342.069 40.554 349.105 43.4677 355.687 47.4497C360.662 50.4605 365.087 54.1296 368.993 58.3814C371.669 61.3058 374.205 64.3814 376.644 67.5109C380.486 72.4317 384.392 77.3094 387.705 82.608C392.227 89.8274 396.392 97.2303 399.997 104.978C404.184 113.978 407.713 123.216 410.82 132.615C413.464 140.622 415.472 148.791 416.68 157.144C417.36 161.795 417.727 166.457 418.169 171.13C418.99 179.903 418.633 188.687 418.472 197.45C418.374 202.586 417.716 207.755 416.885 212.871C416.151 217.424 415.31 221.957 414.177 226.425C412.806 231.842 411.5 237.27 409.59 242.536C407.831 247.424 405.964 252.27 404.022 257.083C401.615 263.05 398.626 268.662 394.914 273.95C392.669 277.144 390.295 280.209 387.813 283.198C385.472 286.014 382.407 288.076 379.569 290.374C377.173 292.317 374.378 293.676 372.09 295.737C370.795 295.781 369.5 295.781 368.205 295.867C367.115 295.942 366.835 295.435 366.846 294.421C366.867 292.878 366.802 291.324 366.684 289.791C366.587 288.507 366.975 287.45 367.709 286.403C369.112 284.406 370.461 282.378 371.713 280.284C379.115 267.863 386.389 255.367 393.274 242.644C394.709 240 394.774 237.648 393.349 235.068C390.835 230.514 388.245 225.993 385.299 221.709C379.644 213.453 373.007 205.932 366.943 197.989C364.579 194.892 361.579 192.95 357.727 192.086C352.018 190.791 346.256 189.842 340.45 189.076C338.313 188.795 338.302 188.849 337.86 186.712C337.763 186.237 337.72 185.763 337.655 185.277C337.029 180.734 337.59 176.18 337.515 171.637C337.504 170.687 338.227 170.439 338.82 170.083C341.097 168.723 342.932 166.91 344.356 164.676C345.317 163.176 346.32 161.687 347.216 160.144C350.216 154.932 353.076 149.644 354.824 143.838C356.011 139.889 356.529 135.896 355.612 131.817C354.878 128.536 353.669 125.558 350.151 124.317C349.32 124.025 349.277 123.615 349.407 122.86C349.946 119.763 348.759 117.302 346.385 115.371C344.151 113.547 341.594 112.338 338.81 111.583C333.079 110.04 327.252 109.824 321.382 110.363C314.551 111 307.86 112.198 301.644 115.338C298.86 116.752 296.205 118.381 294.284 120.853C290.885 125.245 290.853 129.583 296.712 131.579C297.543 131.86 297.867 132.086 297.543 133.101C295.396 139.932 294.004 146.924 293.076 154.025C292.547 158.083 292.18 162.108 293.4 166.112C294.673 170.288 297.252 172.942 301.687 173.719C303.738 174.076 305.734 173.892 307.763 173.719C309.252 173.59 309.392 173.719 308.971 175.09C307.979 178.349 306.673 181.5 305.486 184.694C304.547 187.209 303.284 188.763 300.392 188.353C300.09 188.309 299.756 188.46 299.432 188.504C294.533 189.27 289.633 190.014 284.745 190.813C280.968 191.428 277.266 192.248 274.105 194.666C267.576 199.64 260.918 204.442 254.443 209.493C247.515 214.889 240.748 220.489 233.917 226.004C233.356 226.457 232.698 227.255 232.137 227.061C231.425 226.802 231.824 225.799 231.824 225.13C231.846 209.666 231.889 194.191 231.953 178.727C232.061 150.907 231.802 123.086 232.277 95.277C232.396 88.608 232.223 81.9497 232.007 75.2914C231.986 74.7734 231.748 74.0936 232.396 73.8022C232.892 73.5864 233.292 74.0612 233.68 74.331C237.23 76.7698 240.802 79.1871 244.32 81.6691C246.015 82.867 246.306 82.9641 247.968 81.777C257.378 75.0756 267.036 68.7519 276.705 62.4497C278.313 61.4029 279.004 60.2698 278.95 58.295C278.831 53.0936 278.572 47.8814 278.831 42.6799L278.874 42.6907Z" fill="#D1E8FD"/>
<path d="M63.0852 160C63.4122 165.203 63.1898 170.406 63.1767 175.609C63.1767 183.688 63.1244 191.767 63.0721 199.846C62.9936 212.041 62.8758 224.224 62.8366 236.419C62.7973 247.221 62.8366 258.023 62.8627 268.825C62.8627 269.976 63.0066 271.126 63.1506 272.277C63.6347 276.47 66.0813 278.809 70.399 279.308C75.5148 279.896 80.6567 279.717 85.7725 279.691C116.271 279.563 146.756 279.627 177.254 279.87C191.359 279.985 205.476 280.126 219.58 280.19C223.126 280.203 226.685 280.036 230.218 279.819C234.692 279.551 237.597 276.508 237.584 272.06C237.584 264.632 237.466 257.218 237.401 249.791C237.401 249.113 237.401 248.436 237.401 247.771C237.427 246.851 237.819 246.851 238.434 247.388C240.789 249.446 243.157 251.478 245.486 253.562C249.634 257.269 253.69 261.066 258.479 264.019C258.806 264.223 259.159 264.402 259.486 264.62C264.249 267.879 268.736 267.355 273.368 264.083C291.411 251.325 309.545 238.708 327.653 226.026C328.058 225.745 328.451 225.477 328.856 225.183C329.877 224.467 330.034 225.068 329.995 225.899C329.785 230.028 329.537 234.157 329.327 238.298C328.882 246.953 328.555 255.607 328.006 264.262C327.469 272.724 327.012 281.174 326.828 289.65C326.802 291.184 326.253 292.705 326.462 294.252C326.684 295.913 325.834 296.092 324.421 296.092C314.569 296.092 304.704 296.169 294.852 296.207C275.435 296.297 256.019 296.386 236.602 296.45C211.338 296.527 186.073 296.565 160.821 296.668C145.945 296.719 131.055 296.898 116.179 296.936C89.0696 297 61.9469 296.987 34.8372 297C31.7887 297 28.7271 296.923 25.6786 296.885C23.1534 294.916 20.3535 293.318 18.1161 290.966C12.6471 285.201 8.31638 278.809 5.56878 271.331C3.50154 265.693 1.9184 259.941 1.32963 254.06C0.81936 249.037 0.910947 243.91 1.53897 238.81C2.324 232.393 3.97256 226.218 5.80429 220.044C7.15192 215.506 9.14065 211.236 11.3649 207.069C13.4583 203.157 15.6695 199.296 17.9853 195.5C20.2488 191.792 22.9964 188.392 25.7047 184.992C28.6617 181.259 32.1943 178.025 35.6092 174.701C42.5828 167.926 50.8911 163.336 60.2067 160.384C61.1749 160.077 62.13 160.013 63.1113 160.013L63.0852 160Z" fill="#CAFEF4"/>
<path d="M403.31 295.867C399.004 295.845 394.688 295.899 390.382 295.867C384.295 295.813 378.198 296.05 372.112 295.748C370.828 295.78 369.511 295.802 368.227 295.888C367.137 295.953 366.857 295.446 366.867 294.442C366.889 292.899 366.813 291.334 366.716 289.791C366.619 288.518 367.008 287.449 367.731 286.414C369.134 284.406 370.483 282.378 371.734 280.284C379.126 267.852 386.411 255.356 393.296 242.633C394.72 239.989 394.785 237.647 393.36 235.068C390.846 230.503 388.256 225.993 385.321 221.698C379.655 213.432 373.04 205.932 366.965 197.978C364.59 194.892 361.59 192.939 357.738 192.075C352.018 190.791 346.267 189.831 340.472 189.075C338.335 188.784 338.313 188.86 337.893 186.701C337.795 186.227 337.741 185.752 337.688 185.277C337.062 180.734 337.623 176.18 337.547 171.637C337.526 170.687 338.259 170.45 338.853 170.093C341.13 168.723 342.954 166.921 344.389 164.676C345.339 163.165 346.353 161.687 347.238 160.144C350.238 154.932 353.087 149.644 354.857 143.838C356.044 139.888 356.551 135.896 355.634 131.827C354.9 128.536 353.68 125.568 350.184 124.316C349.353 124.025 349.299 123.626 349.439 122.86C349.968 119.773 348.781 117.313 346.418 115.381C344.173 113.547 341.616 112.349 338.831 111.593C333.112 110.029 327.274 109.824 321.403 110.374C314.562 111 307.882 112.209 301.677 115.349C298.893 116.773 296.227 118.381 294.317 120.885C290.928 125.277 290.885 129.604 296.745 131.611C297.576 131.881 297.9 132.108 297.576 133.144C295.439 139.964 294.047 146.968 293.119 154.068C292.59 158.126 292.234 162.162 293.443 166.165C294.716 170.342 297.306 172.986 301.741 173.763C303.792 174.119 305.799 173.935 307.817 173.763C309.295 173.622 309.447 173.741 309.026 175.133C308.044 178.392 306.738 181.532 305.551 184.716C304.601 187.23 303.349 188.784 300.446 188.385C300.144 188.331 299.821 188.482 299.497 188.536C294.608 189.302 289.709 190.047 284.821 190.845C281.033 191.46 277.342 192.291 274.169 194.698C267.651 199.683 260.982 204.485 254.508 209.525C247.59 214.921 240.813 220.521 233.982 226.036C233.421 226.489 232.763 227.288 232.213 227.083C231.5 226.824 231.889 225.831 231.889 225.162C231.921 209.687 231.954 194.212 232.029 178.759C232.126 150.939 231.878 123.108 232.353 95.2985C232.45 88.6295 232.288 81.9604 232.083 75.3129C232.062 74.7842 231.813 74.1043 232.461 73.8237C232.968 73.6079 233.356 74.0827 233.745 74.3525C237.306 76.7914 240.867 79.2086 244.385 81.7014C246.08 82.8885 246.371 82.9856 248.033 81.7986C257.454 75.0971 267.101 68.7842 276.77 62.4712C278.367 61.4245 279.058 60.3022 279.015 58.3166C278.896 53.1043 278.637 47.9029 278.918 42.6907C278.885 41.9569 278.831 41.2338 278.821 40.5C278.68 33.2698 278.518 26.0396 278.486 18.7986C278.486 17.0504 277.828 16.1871 276.231 15.5936C273.565 14.6116 270.986 13.4245 268.375 12.3022C261.651 9.43171 254.939 6.572 248.238 3.67991C247.072 3.17272 245.993 3.05401 244.741 3.59358C235.169 7.80221 225.565 11.9785 215.928 16.0468C214.687 16.5756 214.385 17.2878 214.364 18.4209C214.364 21.0324 214.31 23.6331 214.299 26.2446C214.277 28.5 214.277 28.5216 211.925 28.5C190.547 28.4137 169.169 28.3274 147.792 28.2303C132.824 28.1655 117.878 28.0792 102.932 28.0144C99.7592 28.0144 96.5865 27.9821 93.4139 28.036C90.2736 28.0684 88.8383 29.3633 88.3743 32.482C88.288 33.0432 88.2556 33.6043 88.234 34.1763C88.1477 36.6043 88.0614 39.0432 88.0506 41.4713C87.9966 47.0072 88.0182 52.5108 87.9966 58.0252C87.975 59.795 87.9642 59.8381 86.3563 59.7518C80.4319 59.4497 74.4966 59.6007 68.5613 59.5791C66.0362 59.5576 63.5002 59.6331 60.9966 59.795C58.5901 59.9784 57.3491 61.2194 56.9714 63.6151C56.7556 65.0612 56.6369 66.518 56.6369 67.9964C56.6584 76.7698 56.6584 85.5539 56.6369 94.3489C56.6045 110.04 56.5397 125.741 56.4858 141.432C56.5829 141.583 56.5721 141.701 56.4534 141.82V144.345C56.5937 144.486 56.5937 144.615 56.4534 144.766C56.4858 145.09 56.5397 145.414 56.5397 145.737C56.5182 155.935 56.5074 166.133 56.475 176.342C56.475 178.036 56.4102 179.73 56.3779 181.435C56.6369 185.816 56.4426 190.209 56.4426 194.601C56.4426 201.421 56.4102 208.241 56.3779 215.061C56.3131 225.356 56.2052 235.64 56.1728 245.935C56.1405 255.043 56.1728 264.173 56.2052 273.28C56.2052 274.262 56.3239 275.234 56.421 276.194C56.8311 279.744 58.8491 281.708 62.4102 282.129C66.6189 282.626 70.8599 282.464 75.0793 282.453C100.223 282.356 125.389 282.399 150.533 282.604C162.177 282.701 173.81 282.82 185.454 282.874C188.367 282.896 191.302 282.755 194.227 282.572C197.928 282.356 200.313 279.777 200.313 276.021C200.292 269.762 200.216 263.482 200.162 257.223C200.141 256.651 200.141 256.09 200.162 255.507C200.184 254.73 200.497 254.73 201.015 255.183C202.946 256.91 204.9 258.626 206.831 260.396C210.241 263.514 213.597 266.719 217.536 269.223C217.828 269.396 218.108 269.547 218.367 269.73C222.306 272.482 225.997 272.039 229.817 269.288C244.698 258.518 259.655 247.856 274.59 237.151C274.914 236.914 275.249 236.676 275.572 236.439C276.425 235.845 276.554 236.352 276.5 237.054C276.328 240.55 276.123 244.025 275.961 247.521C275.605 254.838 275.313 262.144 274.871 269.439C274.428 276.583 274.04 283.726 273.9 290.87C273.867 292.155 273.425 293.449 273.598 294.755C273.781 296.147 273.069 296.298 271.914 296.298C263.767 296.298 255.641 296.363 247.515 296.396C231.5 296.46 215.486 296.547 199.472 296.601C178.633 296.665 157.806 296.698 136.968 296.784C124.687 296.816 112.417 296.967 100.148 297C77.7664 297.054 55.4066 297.032 33.0469 297.054C30.5325 297.054 28.0073 296.989 25.4929 296.957C25.3419 296.957 25.1692 296.957 25.0181 296.935C24.3922 297.259 23.7771 297.226 23.1728 296.935H23.0217C21.2196 297.388 19.4066 297.108 17.6044 297.086C17.1944 297.119 16.7951 297.183 16.3958 297.183C14.5936 297.248 12.8131 297.248 11.0217 297.367C10.2555 297.421 9.56486 297.842 9.66199 298.759C9.74832 299.568 10.4605 299.676 11.1404 299.708C13.0073 299.795 14.8742 299.967 16.7411 299.946C36.8131 299.881 56.8958 299.773 76.9678 299.708C103.234 299.622 129.511 299.568 155.788 299.525C169.288 299.493 182.799 299.503 196.32 299.471C211.439 299.439 226.536 299.331 241.655 299.298C250.666 299.277 259.677 299.385 268.687 299.363C276.08 299.363 283.482 299.244 290.875 299.223C311.626 299.19 332.389 299.223 353.141 299.19C369.9 299.158 386.648 299.072 403.407 299.007C405.565 299.007 406.483 298.532 406.558 297.475C406.655 296.32 405.706 295.834 403.331 295.834L403.31 295.867ZM308.982 181.975C309.911 179.374 310.752 176.73 311.141 174C311.281 172.964 311.939 172.716 312.598 172.306C313.008 172.036 313.493 171.734 313.364 171.173C313.191 170.46 312.5 170.482 311.972 170.514C311.324 170.547 310.688 170.698 310.072 170.903C307.947 171.593 305.777 171.798 303.576 171.701C299.691 171.518 296.961 169.381 296.044 165.593C295.277 162.442 295.008 159.248 295.364 155.978C296.098 149.018 297.436 142.187 299.4 135.486C300.295 132.432 300.317 132.464 303.522 132.766C305.54 132.95 307.58 133.036 309.598 133.209C310.731 133.306 311.875 133.424 312.975 133.662C315.166 134.158 315.468 134.665 315.22 136.867C315.155 137.428 315.047 138 315.08 138.561C315.177 139.953 314.821 140.903 313.353 141.496C312.144 141.993 311.367 143.137 311.065 144.496C310.968 144.906 311.011 145.349 311.357 145.619C311.713 145.888 312.155 145.802 312.49 145.554C313.223 145.047 313.893 144.453 314.659 143.978C316.018 143.126 316.979 143.525 317.324 145.101C317.54 146.137 317.508 147.173 317.108 148.209C316.536 149.73 315.706 151.122 314.734 152.45C314.346 152.957 313.882 153.432 313.526 153.971C313.17 154.543 312.339 155.104 312.878 155.87C313.45 156.68 314.13 156.108 314.767 155.698C315.447 155.255 315.565 155.752 315.652 156.291C316.029 158.773 316.159 161.266 316.774 163.737C318.306 169.964 323.529 173.816 329.918 173.169C330.803 173.083 331.688 172.964 332.583 172.878C333.5 172.791 334.623 171.896 335.249 172.521C335.842 173.115 335.27 174.356 335.216 175.316C335.098 177.842 335.27 180.356 335.4 182.87C335.518 184.888 335.486 184.953 333.554 185.633C332.788 185.903 331.99 186.194 331.213 186.28C328.774 186.486 326.346 186.734 324.328 186.604C319.202 186.334 314.486 186.313 310.04 184.36C308.443 183.647 308.389 183.701 309.004 181.964L308.982 181.975ZM307.17 186.475C307.58 185.816 307.914 185.86 308.54 186.119C310.936 187.133 313.375 188.104 315.975 188.396C322.224 189.075 328.461 189.583 334.59 187.629C335.475 187.338 335.831 187.338 336.134 188.342C336.457 189.324 336.252 189.561 335.324 189.831C332.324 190.694 329.27 191.05 326.184 191.191C324.652 191.277 323.108 191.687 321.652 191.255C316.903 191.169 312.371 190.36 307.979 188.762C306.317 188.169 306.263 187.899 307.18 186.475H307.17ZM215.907 55.241C216.166 52.036 216.004 48.831 216.166 45.6043C216.22 44.3849 216.349 41.6223 216.338 38.7195C216.306 32.3741 216.403 26.0288 216.285 19.6835C216.252 18.259 216.792 17.7303 217.914 17.1691C221.853 15.2159 225.9 13.5864 229.957 11.9245C235.051 9.8202 240.166 7.76984 245.249 5.63315C246.317 5.1907 247.213 5.17991 248.238 5.61157C256.903 9.32379 265.558 13.0468 274.245 16.6403C275.907 17.331 276.468 18.2375 276.533 20.0504C276.986 32.331 276.738 44.6223 277.008 56.8813C277.04 58.9856 276.436 60.2266 274.601 61.3813C265.493 67.0468 256.536 72.9388 247.731 79.0791C246.695 79.7914 245.961 79.8885 244.946 79.1763C240.673 76.2086 236.356 73.2842 232.051 70.3921C227.95 67.6403 223.817 64.8993 219.651 62.2122C217.763 60.9928 216.813 60.3777 216.36 59.536C215.626 58.1763 215.788 56.9245 215.918 55.241H215.907ZM128.561 34.9317C129.576 34.7914 130.612 35.6763 130.72 36.7446C130.806 37.813 129.792 39 128.712 39.0648C127.763 39.1295 126.641 38.1799 126.511 37.2195C126.371 36.2482 127.439 35.0612 128.561 34.9317ZM112.666 35.2878C113.669 35.2878 114.587 36.1187 114.619 37.0576C114.641 38.0396 113.605 39.0756 112.579 39.0972C111.543 39.1187 110.691 38.2986 110.691 37.2842C110.669 36.1619 111.543 35.2986 112.655 35.2986L112.666 35.2878ZM97.1369 34.8454C98.2592 34.813 99.0686 35.6547 99.0578 36.8525C99.0578 37.9209 98.2916 38.7518 97.3096 38.7734C96.2952 38.795 95.2592 37.8454 95.1729 36.8418C95.1081 35.8274 96.0362 34.8885 97.1369 34.8561V34.8454ZM90.457 166.489C90.6621 148.673 90.6729 130.878 90.7592 113.061C90.8563 91.8885 90.8132 70.7266 90.8132 49.554V48.3346C90.8347 46.0144 90.8347 45.9712 93.0362 45.9389C96.77 45.8741 100.515 45.723 104.248 45.8202C114.9 46.0899 125.572 45.8525 136.234 45.9712C141.77 46.0252 147.295 45.9712 152.831 45.9712C171.889 45.9389 190.925 46.3489 209.972 46.3921C210.943 46.3921 211.925 46.4137 212.885 46.3382C213.975 46.2734 214.277 46.759 214.256 47.7842C214.223 51.2806 214.374 54.7878 214.202 58.2842C214.115 60.2482 214.86 61.4353 216.425 62.4712C220.428 65.1367 224.335 67.9209 228.306 70.5971C229.256 71.2446 229.677 71.9029 229.677 73.1439C229.59 93.1511 229.58 113.147 229.504 133.165C229.472 147.075 229.482 160.975 229.245 174.885C228.943 192.313 229.159 209.719 229.094 227.137C229.072 229.144 228.619 230.568 226.892 231.561C226.267 231.939 225.727 232.424 225.144 232.888C222.856 234.723 220.687 234.788 218.292 232.953C210.49 226.942 202.396 221.363 194.432 215.579C193.126 214.608 191.767 213.691 190.407 212.816C189.49 212.223 188.518 211.716 187.59 212.816C187.115 213.378 186.781 213.075 186.382 212.73C183.749 210.453 182.993 207.27 182.119 204.129C181.914 203.396 182.561 203.45 183.036 203.439C184.644 203.417 186.274 203.385 187.903 203.385C190.666 203.406 193.439 203.471 196.202 203.439C198.166 203.417 199.223 202.554 199.677 200.687C199.892 199.824 200.087 198.96 200.087 198.043C200.065 190.565 200.087 183.065 200.087 175.575C200.087 175.079 200.087 174.593 199.99 174.119C199.547 171.982 198.101 170.795 195.867 170.763C186.026 170.644 176.184 170.579 166.331 170.428C152.745 170.212 139.169 169.986 125.583 170.018C124.687 170.018 123.781 170.05 122.907 170.223C120.835 170.633 119.853 171.82 119.82 173.957C119.756 181.996 119.702 190.025 119.637 198.065C119.637 198.302 119.637 198.561 119.659 198.798C119.874 202.241 120.878 203.212 124.364 203.255C134.95 203.428 145.525 203.579 156.112 203.73C156.673 203.73 157.245 203.752 157.828 203.752C158.659 203.752 158.68 203.968 158.281 204.734C157.418 206.46 157.774 208.198 158.669 209.86C159.921 212.201 161.723 214.036 163.968 215.46C164.734 215.935 165.5 216.388 166.245 216.863C166.385 216.95 166.536 217.101 166.536 217.219C166.569 217.543 166.266 217.554 166.04 217.554C164.087 217.575 162.133 217.586 160.191 217.586C147.889 217.586 135.608 217.586 123.306 217.64C122.41 217.64 120.759 216.95 120.748 218.493C120.748 219.593 122.356 219.173 123.23 219.226C125.831 219.378 128.443 219.367 131.033 219.367C143.162 219.388 155.292 219.453 167.421 219.334C169.579 219.313 171.166 219.874 172.547 221.471C173.313 222.324 173.993 223.219 174.651 224.147C175.126 224.86 175.504 225.507 174.716 226.284C173.702 227.298 174.328 228.248 175.04 229.079C175.936 230.115 176.961 231.065 177.889 232.079C178.148 232.349 178.601 232.651 178.299 233.083C178.159 233.255 177.684 233.223 177.382 233.201C173.162 233.147 168.91 233.083 164.691 233.05C151.018 232.932 137.356 232.629 123.684 232.759C122.874 232.759 122.043 232.608 121.256 232.932C120.986 233.029 120.684 233.234 120.694 233.622C120.694 234 120.953 234.302 121.223 234.367C121.935 234.507 122.669 234.572 123.392 234.583C129.824 234.68 136.256 234.766 142.666 234.852C154.623 234.993 166.59 235.144 178.547 235.208C180.112 235.23 181.223 235.565 182.346 236.752C185.853 240.485 189.543 244.079 193.137 247.726C193.396 247.985 193.914 248.18 193.698 248.676C193.547 248.978 193.137 248.827 192.835 248.816C175.018 248.126 157.191 248.482 139.374 248.396C124.903 248.331 110.41 248.363 95.9391 248.309C91.9355 248.309 90.3599 246.68 90.3599 242.676C90.3815 217.273 90.1873 191.86 90.4786 166.468L90.457 166.489ZM160.277 184.813C161.615 186.442 162.997 188.039 164.378 189.637C165.004 190.37 165.112 190.888 164 191.158C163.223 191.363 162.748 191.903 162.511 192.637C162.22 193.554 162.036 194.503 160.979 194.924C160.601 195.097 160.353 195.658 160.482 195.971C161.464 198.291 158.993 199.262 158.561 201.032C158.378 201.777 157.731 201.68 157.169 201.691C155.389 201.691 153.587 201.777 151.806 201.658C146.195 201.324 140.572 201.453 134.961 201.507C131.227 201.539 127.515 201 123.748 201.334C122.054 201.486 121.59 200.924 121.59 199.198C121.569 191.05 121.558 182.924 121.612 174.788C121.612 172.295 122.087 171.95 124.73 172.004C136.439 172.263 148.159 172.5 159.867 172.737C171.662 172.953 183.446 173.158 195.241 173.18C197.551 173.18 198.058 173.719 198.112 176.061C198.317 183.863 197.583 191.665 197.777 199.478C197.81 201.043 197.281 201.486 195.77 201.669C195.446 201.723 195.112 201.701 194.788 201.691C190.806 201.637 186.813 201.572 182.831 201.507C182.054 201.485 181.256 201.658 180.932 200.525C179.594 195.755 176.54 192.054 173.195 188.579C170.324 185.59 167.54 182.503 164.27 179.924C163.353 179.212 162.403 178.619 161.216 178.521C159.382 178.403 158.454 179.298 158.551 181.122C158.637 182.579 159.36 183.755 160.266 184.834L160.277 184.813ZM160.687 205.565C162.079 205.77 162.457 205.111 161.777 203.914C161.507 203.417 161.119 202.996 160.882 202.489C160.374 201.356 160.914 200.536 162.155 200.601C162.63 200.633 163.083 200.838 163.558 200.935C163.968 201.032 164.389 201.108 164.594 200.633C164.766 200.191 164.572 199.834 164.259 199.543C163.644 199.014 162.975 198.539 162.392 197.978C161.972 197.557 161.82 196.888 162.123 196.403C162.543 195.755 163.126 196.219 163.601 196.489C163.957 196.694 164.281 196.932 164.605 197.169C165.025 197.46 165.457 197.741 165.856 197.201C166.245 196.705 165.889 196.338 165.565 195.928C165.004 195.216 163.871 194.525 164.561 193.521C165.177 192.626 166.191 193.349 167.022 193.575C167.41 193.694 167.874 193.813 168.187 193.511C168.63 193.09 168.274 192.583 168.047 192.205C166.59 189.766 164.788 187.554 162.867 185.45C161.982 184.5 161.087 183.55 160.439 182.417C160.083 181.759 159.727 180.96 160.256 180.367C160.946 179.601 161.864 180.162 162.446 180.604C163.687 181.521 164.853 182.557 165.91 183.68C168.317 186.205 170.561 188.903 173 191.396C176.378 194.86 178.536 198.982 180.058 203.493C180.554 204.95 181.105 206.396 181.547 207.874C182.227 210.162 183.295 212.234 184.957 213.96C185.432 214.457 185.669 214.759 185.097 215.331C182.54 217.932 179.961 220.543 177.446 223.187C176.713 223.964 176.356 223.759 175.849 222.982C173.356 219.28 170.27 216.28 166.18 214.295C163.774 213.129 161.615 211.5 160.256 209.039C159.813 208.23 159.479 207.432 159.522 206.579C159.522 205.716 159.705 205.414 160.677 205.565H160.687ZM178.601 224.816C181.515 221.665 184.439 218.493 187.59 215.557C188.389 214.813 188.896 214.468 189.986 215.288C192.565 217.209 192.63 217.133 190.288 219.464C186.9 222.842 183.522 226.23 180.36 229.845C180.101 230.137 179.766 230.385 179.432 230.698C179.141 230.396 178.871 230.083 178.601 229.802C176.205 227.363 176.227 227.374 178.601 224.827V224.816ZM80.939 66.982C82.2124 66.9496 83.0434 67.8453 82.9462 69.1403C82.8599 70.3813 81.9642 71.1259 80.6369 71.0935C79.4175 71.0612 78.5973 70.2086 78.7052 69.1295C78.8023 68.0072 79.8383 67.0036 80.9498 66.9928L80.939 66.982ZM66.4678 66.3561C67.5038 66.3022 68.6908 67.3921 68.7772 68.4281C68.8635 69.6691 67.6872 70.9856 66.457 71.0612C65.3347 71.1151 64.4067 70.1655 64.3743 68.8921C64.3419 67.6187 65.3239 66.4101 66.4786 66.3669L66.4678 66.3561ZM198.274 275.601C198.069 278.989 196.579 280.435 193.148 280.457C186.63 280.478 180.123 280.554 173.605 280.424C153.177 280.003 132.748 280.241 112.32 280.133C96.6081 280.047 80.9175 280.014 65.2052 279.96C64.6441 279.96 64.0721 279.982 63.4894 279.96C60.1333 279.896 58.8599 278.568 58.8707 275.104C58.9246 266.158 59.011 257.201 59.011 248.244C59.0325 224.557 59.011 200.87 59.011 177.194C59.2807 141.496 59.3455 124.144 59.3671 115.014C59.3887 92.5899 59.3671 81.3669 59.3671 81.0971C59.3671 80.4388 59.421 79.7698 59.3671 79.1331C59.27 78.0108 59.5829 77.5683 60.8455 77.6007C69.1225 77.8597 77.4426 77.8381 85.7304 77.6978C85.7952 77.6978 85.8815 77.7194 85.9678 77.7194C87.9858 77.7518 88.0074 77.7518 87.9858 79.6834C87.9534 84.1403 87.8887 88.6079 87.8887 93.0863C87.8671 114.561 87.8887 136.057 87.8563 157.554C87.8239 183.766 87.7376 209.978 87.716 236.18C87.716 239.266 87.6513 242.352 88.1693 245.428C88.8168 249.097 90.1873 250.295 93.8671 250.381C108.997 250.673 124.137 250.672 139.266 250.672C155.961 250.651 172.655 250.651 189.349 250.651C191.216 250.651 193.083 250.629 194.95 250.683C196.914 250.748 198.09 251.957 198.101 253.878C198.166 260.795 198.22 267.701 198.274 274.629C198.274 274.953 198.295 275.277 198.252 275.601H198.274ZM365.27 254.795C365.303 254.417 365.562 254.255 366.08 254.342C366.792 254.633 367.288 255.259 367.234 256.155C367.18 257.007 366.76 257.698 365.907 258.043C365.734 258.108 365.454 258.097 365.378 257.719C365.206 256.748 365.195 255.788 365.26 254.806L365.27 254.795ZM365.929 271.392C365.831 270.345 365.842 269.288 365.778 268.219C365.659 265.964 365.95 263.676 365.4 261.431C365.26 260.46 365.616 259.899 366.533 259.543C367.213 259.284 367.752 258.766 368.195 258.151C369.727 256.068 369.004 253.403 366.533 252.669C365.378 252.334 364.925 251.892 364.903 250.716C364.871 247.306 364.925 243.896 364.45 240.507C364.418 240.291 364.45 239.892 364.547 239.849C365.022 239.665 365.26 240.065 365.519 240.378C369.047 244.64 372.554 248.892 376.072 253.165C378.274 255.842 378.231 255.831 376.245 258.777C373.601 262.683 371.022 266.611 368.411 270.55C368.141 270.96 367.903 271.403 367.601 271.759C367.159 272.266 367.029 273.367 366.209 273.151C365.551 272.967 365.993 271.996 365.939 271.381L365.929 271.392ZM366.339 280.575C365.918 278.708 366.598 277.198 367.698 275.633C371.842 269.708 375.846 263.676 379.893 257.665C381.058 255.917 381.08 255.885 379.752 254.288C375.069 248.676 370.375 243.054 365.616 237.496C364.849 236.601 364.094 235.834 364.256 234.539C364.288 234.237 364.17 233.881 364.04 233.611C363.824 233.169 363.501 232.748 362.939 232.813C362.411 232.878 362.011 233.191 361.925 233.73C361.86 234.205 361.828 234.701 361.839 235.187C362.044 241.273 362.227 247.37 362.497 253.478C362.767 259.888 363.123 266.309 363.414 272.719C363.738 279.388 364.029 286.036 364.31 292.705C364.331 292.942 364.364 293.201 364.364 293.439C364.385 294.011 364.418 294.475 364.385 294.809C364.364 295.23 364.299 295.521 364.116 295.737C364.083 295.791 364.029 295.824 363.997 295.856C363.943 295.888 363.9 295.921 363.846 295.953C363.166 296.363 362.033 296.072 361.882 296.039C358.763 296.126 354.09 296.255 348.425 296.331C337.86 296.482 334.957 296.331 319.903 296.277C314.27 296.255 279.08 296.277 277.677 296.277C277.353 296.277 277.018 296.244 276.695 296.277C275.659 296.374 275.421 295.748 275.529 294.917C276.09 290.795 275.767 286.64 276.036 282.496C276.414 277.068 276.684 271.619 276.986 266.19C277.407 258.637 277.849 251.093 278.259 243.561C278.378 241.435 278.4 239.32 278.464 237.216C278.518 235.673 278.378 234.097 279.824 232.996C280.148 232.759 280.321 232.338 280.04 231.906C279.705 231.378 279.231 231.432 278.767 231.691C278.195 231.982 277.58 232.252 277.051 232.619C267.792 239.083 258.522 245.547 249.295 252.065C243.123 256.424 236.982 260.849 230.831 265.252C229.439 266.234 228.069 267.237 226.687 268.252C224.788 269.655 222.824 269.73 220.72 268.726C217.008 266.957 213.835 264.421 210.813 261.69C200.734 252.583 191.162 242.924 181.666 233.201C180.781 232.306 180.835 231.723 181.72 230.881C185.432 227.234 189.101 223.532 192.813 219.885C194.324 218.396 194.356 218.406 196.008 219.593C203.594 225.054 211.191 230.503 218.982 235.716C221.033 237.086 223.288 237.226 225.306 235.737C230.464 231.917 235.504 227.935 240.436 223.824C248.065 217.478 255.943 211.435 263.777 205.349C267.306 202.619 270.921 199.985 274.504 197.309C277.202 195.291 280.256 194.342 283.482 193.716C288.436 192.788 293.378 191.795 298.331 190.921C300.339 190.565 302.367 190.446 304.385 190.144C305.27 190.003 305.95 190.446 306.695 190.705C316.31 193.975 326.054 194.978 335.939 192.216C338.259 191.568 340.472 191.245 342.846 191.687C347.864 192.637 352.979 193.176 357.9 194.644C360.662 195.453 362.821 196.964 364.569 199.273C370.936 207.626 377.885 215.514 383.842 224.158C386.508 228.021 389.303 231.831 391.407 236.083C392.378 238.036 392.206 239.633 391.191 241.543C384.08 255 376.137 267.971 368.562 281.158C368.033 282.054 367.612 283.047 366.792 283.737C365.939 282.788 366.587 281.633 366.349 280.586L366.339 280.575Z" fill="#080909"/>
<path d="M130.72 36.7446C130.806 37.813 129.792 39 128.712 39.0648C127.763 39.1295 126.64 38.1799 126.511 37.2194C126.371 36.2482 127.439 35.0612 128.561 34.9317C129.576 34.7914 130.612 35.6763 130.72 36.7446Z" fill="white"/>
<path d="M114.619 37.0468C114.64 38.0288 113.604 39.0648 112.579 39.0864C111.543 39.108 110.691 38.2878 110.691 37.2735C110.669 36.1512 111.543 35.2878 112.655 35.2878C113.658 35.2878 114.576 36.1188 114.608 37.0576L114.619 37.0468Z" fill="white"/>
<path d="M99.0575 36.8418C99.0575 37.9101 98.2913 38.7411 97.3093 38.7626C96.2949 38.7842 95.259 37.8346 95.1726 36.831C95.1079 35.8166 96.0359 34.8778 97.1367 34.8454C98.259 34.813 99.0683 35.6547 99.0575 36.8526V36.8418Z" fill="white"/>
<path d="M82.9463 69.1295C82.86 70.3705 81.9643 71.1151 80.637 71.0828C79.4176 71.0504 78.5974 70.1979 78.7053 69.1187C78.8024 67.9964 79.8384 66.9928 80.9499 66.9821C82.2233 66.9497 83.0542 67.8454 82.9571 69.1403L82.9463 69.1295Z" fill="white"/>
<path d="M68.7772 68.4173C68.8635 69.6583 67.6873 70.9749 66.457 71.0504C65.3347 71.1044 64.4067 70.1547 64.3743 68.8814C64.3419 67.608 65.324 66.3993 66.4786 66.3562C67.5146 66.3022 68.7016 67.3921 68.788 68.4281L68.7772 68.4173Z" fill="white"/>
<path d="M376.256 258.777C373.612 262.683 371.033 266.611 368.421 270.55C368.151 270.96 367.914 271.403 367.612 271.759C367.169 272.266 367.04 273.367 366.22 273.151C365.562 272.968 366.004 271.996 365.95 271.381C365.853 270.335 365.864 269.277 365.799 268.209C365.68 265.953 365.972 263.665 365.421 261.421C365.281 260.45 365.637 259.888 366.554 259.532C367.234 259.273 367.774 258.755 368.216 258.14C369.749 256.058 369.026 253.392 366.554 252.658C365.4 252.324 364.946 251.881 364.925 250.705C364.892 247.295 364.946 243.885 364.472 240.496C364.439 240.281 364.472 239.881 364.569 239.838C365.044 239.655 365.281 240.054 365.54 240.367C369.069 244.629 372.576 248.881 376.094 253.155C378.295 255.831 378.252 255.82 376.267 258.766L376.256 258.777Z" fill="white"/>
<path d="M335.313 189.831C332.313 190.694 329.259 191.05 326.173 191.191C324.641 191.277 323.097 191.687 321.641 191.255C316.892 191.169 312.36 190.36 307.968 188.763C306.306 188.169 306.252 187.899 307.169 186.475C307.579 185.817 307.914 185.86 308.54 186.119C310.936 187.133 313.374 188.104 315.975 188.396C322.223 189.076 328.461 189.583 334.59 187.63C335.475 187.338 335.831 187.338 336.133 188.342C336.457 189.324 336.252 189.561 335.324 189.831H335.313Z" fill="white"/>
<path d="M190.288 219.453C186.899 222.831 183.522 226.219 180.36 229.835C180.101 230.126 179.766 230.374 179.432 230.687C179.14 230.385 178.87 230.072 178.601 229.791C176.205 227.353 176.227 227.363 178.601 224.817C181.514 221.666 184.439 218.493 187.59 215.558C188.388 214.813 188.896 214.468 189.986 215.288C192.565 217.209 192.629 217.133 190.288 219.464V219.453Z" fill="white"/>
<path d="M185.097 215.331C182.54 217.932 179.961 220.543 177.446 223.187C176.712 223.964 176.356 223.759 175.849 222.982C173.356 219.281 170.27 216.281 166.18 214.295C163.774 213.129 161.615 211.5 160.256 209.04C159.813 208.23 159.479 207.432 159.522 206.579C159.522 205.716 159.705 205.414 160.677 205.565C162.069 205.77 162.446 205.112 161.766 203.914C161.497 203.417 161.108 202.996 160.871 202.489C160.364 201.356 160.903 200.536 162.144 200.601C162.619 200.633 163.072 200.838 163.547 200.935C163.957 201.032 164.378 201.108 164.583 200.633C164.756 200.191 164.561 199.835 164.248 199.543C163.633 199.014 162.964 198.54 162.382 197.978C161.961 197.558 161.81 196.888 162.112 196.403C162.533 195.755 163.115 196.219 163.59 196.489C163.946 196.694 164.27 196.932 164.594 197.169C165.015 197.46 165.446 197.741 165.846 197.201C166.234 196.705 165.878 196.338 165.554 195.928C164.993 195.216 163.86 194.525 164.551 193.522C165.166 192.626 166.18 193.349 167.011 193.576C167.4 193.694 167.864 193.813 168.177 193.511C168.619 193.09 168.263 192.583 168.036 192.205C166.579 189.766 164.777 187.554 162.856 185.45C161.971 184.5 161.076 183.55 160.428 182.417C160.072 181.759 159.716 180.96 160.245 180.367C160.935 179.601 161.853 180.162 162.435 180.604C163.676 181.522 164.842 182.558 165.9 183.68C168.306 186.205 170.551 188.903 172.989 191.396C176.367 194.86 178.525 198.982 180.047 203.493C180.543 204.95 181.094 206.396 181.536 207.874C182.216 210.162 183.284 212.234 184.946 213.96C185.421 214.457 185.659 214.759 185.087 215.331H185.097Z" fill="white"/>
<path d="M335.194 175.327C335.248 174.356 335.82 173.126 335.226 172.532C334.601 171.907 333.478 172.802 332.561 172.889C331.665 172.975 330.78 173.094 329.896 173.18C323.496 173.827 318.273 169.975 316.752 163.748C316.137 161.266 316.007 158.773 315.629 156.302C315.543 155.763 315.424 155.266 314.744 155.709C314.119 156.119 313.439 156.691 312.856 155.881C312.316 155.115 313.147 154.554 313.503 153.982C313.86 153.443 314.313 152.968 314.712 152.461C315.683 151.133 316.514 149.741 317.086 148.22C317.496 147.184 317.529 146.148 317.302 145.112C316.967 143.536 315.996 143.148 314.637 143.989C313.87 144.464 313.191 145.058 312.468 145.565C312.133 145.824 311.691 145.899 311.334 145.63C311 145.36 310.946 144.917 311.043 144.507C311.345 143.148 312.133 141.993 313.331 141.507C314.809 140.914 315.165 139.964 315.057 138.572C315.025 138.011 315.122 137.439 315.198 136.878C315.457 134.676 315.144 134.158 312.953 133.673C311.852 133.435 310.709 133.317 309.575 133.22C307.557 133.047 305.518 132.961 303.5 132.777C300.295 132.475 300.273 132.443 299.378 135.497C297.414 142.198 296.065 149.04 295.342 155.989C294.985 159.259 295.255 162.453 296.021 165.604C296.939 169.392 299.669 171.529 303.554 171.712C305.755 171.809 307.935 171.615 310.05 170.914C310.665 170.709 311.302 170.558 311.95 170.525C312.478 170.493 313.169 170.471 313.342 171.184C313.482 171.745 312.985 172.047 312.575 172.317C311.917 172.727 311.248 172.975 311.119 174.011C310.73 176.741 309.899 179.385 308.96 181.986C308.345 183.712 308.399 183.669 309.996 184.381C314.442 186.335 319.158 186.345 324.284 186.626C326.302 186.766 328.73 186.507 331.169 186.302C331.946 186.216 332.744 185.925 333.511 185.655C335.442 184.975 335.475 184.91 335.356 182.892C335.216 180.378 335.054 177.874 335.173 175.338L335.194 175.327ZM303.165 165.162C302.788 165.302 302.388 165.313 302.162 165.345C300.349 165.291 298.298 163.576 297.888 161.957C297.77 161.45 297.737 160.91 298.18 160.597C298.676 160.274 299.162 160.63 299.432 161.04C300.316 162.443 301.622 163.166 303.176 163.532C303.554 163.63 304.061 163.738 304.093 164.191C304.147 164.763 303.619 165 303.165 165.162ZM302.399 144.961C301.45 144.982 300.511 144.043 300.511 143.072C300.511 142.155 301.46 141.032 302.259 140.989C303.122 140.935 304.266 141.917 304.298 142.77C304.331 143.741 303.295 144.928 302.399 144.961Z" fill="white"/>
<path d="M276.522 20.0504C276.457 18.2374 275.896 17.331 274.234 16.6403C265.547 13.0468 256.892 9.32376 248.227 5.61152C247.213 5.16908 246.306 5.19066 245.238 5.63311C240.166 7.7698 235.04 9.82016 229.946 11.9245C225.889 13.5864 221.831 15.2159 217.903 17.1691C216.781 17.7302 216.241 18.259 216.274 19.6835C216.392 26.0288 216.295 32.3741 216.328 38.7195C216.349 41.6224 216.209 44.3849 216.155 45.6044C216.004 48.831 216.155 52.036 215.896 55.2411C215.756 56.9245 215.605 58.1763 216.339 59.536C216.792 60.3886 217.741 60.9929 219.63 62.2123C223.806 64.8886 227.928 67.6404 232.029 70.3922C236.335 73.295 240.651 76.2087 244.925 79.1763C245.939 79.8886 246.673 79.7915 247.709 79.0792C256.515 72.9389 265.472 67.0468 274.58 61.3814C276.414 60.2267 277.018 58.9857 276.986 56.8814C276.716 44.6116 276.964 32.331 276.511 20.0504H276.522ZM263.098 38.4713C262.914 44.6439 262.763 50.8274 262.795 57.0109C262.795 57.2806 262.968 58.0792 262.493 58.6404C262.04 59.1691 261.22 59.1799 260.885 59.2015C259.321 59.2015 253.569 59.2015 245.756 59.1152C241.126 59.1152 236.475 59.1475 231.846 59.1152C230.033 59.0936 229.957 58.9749 229.946 57.1511C229.892 50.9785 229.374 44.795 229.569 38.6116C229.59 38.0504 229.536 37.4785 229.59 36.9173C229.731 34.8669 230 34.608 232.051 34.4245C233.583 34.2842 235.137 34.608 236.648 34.2087C236.356 32.7518 236.594 31.2734 236.799 29.849C237.274 26.4928 238.882 23.7195 241.655 21.7015C244.374 19.7159 247.741 19.5756 250.58 21.3454C254.464 23.741 255.943 27.4856 256.299 31.813C256.482 34.1547 256.418 34.1763 258.878 34.1871C262.914 34.2195 263.259 34.4461 263.119 38.4821L263.098 38.4713Z" fill="white"/>
<path d="M228.306 70.608C224.335 67.9317 220.439 65.1476 216.425 62.4821C214.86 61.4461 214.116 60.2591 214.202 58.295C214.375 54.7986 214.224 51.2914 214.256 47.795C214.277 46.7807 213.965 46.2843 212.885 46.349C211.914 46.4137 210.932 46.403 209.972 46.403C190.914 46.349 171.878 45.9497 152.831 45.9821C147.295 45.9821 141.77 46.036 136.234 45.9821C125.583 45.8634 114.91 46.1008 104.249 45.831C100.515 45.7339 96.7702 45.885 93.0364 45.9497C90.8349 45.9821 90.8349 46.0145 90.8133 48.3454V49.5648C90.8133 70.7375 90.8673 91.8994 90.7594 113.072C90.6731 130.889 90.6623 148.684 90.4572 166.5C90.1659 191.903 90.3601 217.317 90.3385 242.709C90.3385 246.712 91.9141 248.342 95.9177 248.342C110.389 248.396 124.882 248.363 139.353 248.428C157.17 248.514 174.997 248.158 192.813 248.849C193.116 248.871 193.526 249.022 193.677 248.709C193.893 248.212 193.375 248.018 193.116 247.759C189.522 244.112 185.842 240.518 182.324 236.784C181.202 235.597 180.08 235.263 178.526 235.241C166.569 235.176 154.601 235.025 142.644 234.885C136.234 234.799 129.803 234.712 123.371 234.615C122.637 234.594 121.914 234.529 121.202 234.399C120.932 234.335 120.673 234.022 120.673 233.655C120.651 233.266 120.964 233.061 121.234 232.964C122.011 232.64 122.842 232.791 123.662 232.791C137.335 232.651 150.997 232.964 164.67 233.083C168.889 233.115 173.141 233.18 177.36 233.234C177.662 233.255 178.137 233.288 178.277 233.115C178.58 232.694 178.126 232.381 177.867 232.112C176.939 231.097 175.914 230.148 175.018 229.112C174.306 228.281 173.68 227.331 174.695 226.317C175.472 225.54 175.105 224.892 174.63 224.18C173.972 223.252 173.292 222.345 172.526 221.504C171.155 219.907 169.558 219.345 167.4 219.367C155.27 219.486 143.141 219.421 131.011 219.399C128.41 219.399 125.799 219.421 123.209 219.259C122.346 219.205 120.727 219.637 120.727 218.525C120.749 216.982 122.389 217.673 123.285 217.673C135.587 217.619 147.867 217.619 160.17 217.619C162.123 217.619 164.076 217.597 166.018 217.586C166.234 217.586 166.547 217.565 166.515 217.252C166.515 217.133 166.364 216.982 166.223 216.896C165.479 216.421 164.713 215.968 163.946 215.493C161.702 214.068 159.911 212.234 158.648 209.892C157.752 208.23 157.396 206.504 158.259 204.766C158.648 204 158.637 203.784 157.806 203.784C157.234 203.784 156.652 203.763 156.09 203.763C145.504 203.612 134.928 203.461 124.342 203.288C120.867 203.234 119.864 202.273 119.637 198.831C119.616 198.594 119.616 198.335 119.616 198.097C119.68 190.058 119.734 182.029 119.799 173.989C119.831 171.853 120.813 170.666 122.885 170.255C123.77 170.083 124.666 170.05 125.562 170.05C139.148 170.018 152.723 170.234 166.31 170.461C176.162 170.612 186.004 170.676 195.846 170.795C198.09 170.827 199.526 172.014 199.968 174.151C200.065 174.626 200.065 175.122 200.065 175.608C200.065 183.086 200.044 190.586 200.065 198.076C200.065 198.993 199.882 199.856 199.655 200.72C199.202 202.586 198.144 203.45 196.18 203.471C193.418 203.504 190.644 203.439 187.882 203.417C186.252 203.417 184.623 203.45 183.015 203.471C182.54 203.493 181.893 203.439 182.098 204.162C182.961 207.302 183.727 210.486 186.36 212.763C186.749 213.097 187.094 213.41 187.569 212.849C188.497 211.748 189.468 212.255 190.385 212.849C191.745 213.734 193.105 214.651 194.411 215.612C202.364 221.396 210.457 226.975 218.27 232.986C220.666 234.82 222.835 234.755 225.123 232.921C225.695 232.468 226.245 231.971 226.871 231.594C228.598 230.59 229.062 229.166 229.072 227.169C229.137 209.741 228.921 192.335 229.224 174.917C229.461 161.007 229.439 147.108 229.483 133.198C229.547 113.18 229.569 93.1727 229.655 73.1763C229.655 71.9353 229.234 71.2771 228.285 70.6296L228.306 70.608ZM104.313 80.5468C104.335 76.9209 105.705 75.4857 109.321 75.4425C115.342 75.3454 121.364 75.2699 127.375 75.2591C127.882 75.2591 138.457 75.313 159.608 75.2375C178.267 75.1727 184.364 74.9353 199.396 75.2159C203.227 75.2807 206.389 75.367 208.461 75.4209C210.101 75.2159 211.375 75.4857 212.108 75.6907C213.08 75.9821 214.364 76.349 215.141 77.4713C215.594 78.1296 215.821 78.9821 215.799 80.1044C215.616 88.144 216.015 96.2267 215.529 104.266C215.313 107.849 213.522 109.446 209.831 109.446C202.59 109.468 195.339 109.381 188.098 109.392C176 109.392 163.903 109.597 151.806 109.414C137.723 109.198 123.641 109.079 109.547 109.122C106.223 109.144 104.335 107.169 104.324 103.759C104.303 96.0217 104.303 88.2843 104.324 80.5468H104.313ZM216.22 132.043C216.101 138.216 215.864 144.399 215.95 150.572C216.004 154.435 213.943 156.302 210.5 156.68C207.738 156.982 204.965 156.939 202.224 156.939C192.209 156.939 182.216 156.885 172.213 156.82C152.443 156.702 132.684 156.561 112.936 156.432C110.972 156.41 109.029 156.281 107.162 155.622C105.479 155.029 104.529 153.939 104.281 152.072C103.871 149.083 103.99 146.083 103.925 143.061C103.839 138.755 103.785 134.439 103.774 130.133C103.774 128.849 103.72 127.522 104.076 126.248C104.551 124.522 105.651 123.453 107.486 123.248C108.134 123.184 108.77 123.151 109.439 123.151C126.187 122.968 142.946 122.817 153.522 122.698C176.119 122.558 192.544 122.461 208.968 122.363C209.702 122.363 210.425 122.342 211.159 122.396C213.889 122.579 215.432 124.058 215.929 126.723C216.231 128.504 216.252 130.284 216.231 132.065L216.22 132.043Z" fill="white"/>
<path d="M198.295 274.63C198.295 274.953 198.317 275.277 198.274 275.601C198.069 278.989 196.579 280.435 193.148 280.457C186.63 280.478 180.122 280.554 173.605 280.424C153.176 280.004 132.748 280.241 112.32 280.133C96.6081 280.047 80.9174 280.014 65.2052 279.96C64.6441 279.96 64.0721 279.982 63.4894 279.96C60.1333 279.896 58.8599 278.568 58.8707 275.104C58.9246 266.158 59.011 257.201 59.011 248.245C59.0325 224.558 59.011 200.871 59.011 177.194C59.2807 141.496 59.3455 124.144 59.3671 115.014C59.3887 92.59 59.3671 81.367 59.3671 81.0972C59.3671 80.4389 59.421 79.7698 59.3671 79.1331C59.27 78.0108 59.5829 77.5684 60.8455 77.6008C69.1225 77.8598 77.4426 77.8382 85.7304 77.6979C85.7951 77.6979 85.8815 77.7195 85.9678 77.7195C87.9858 77.7518 88.0074 77.7518 87.9858 79.6835C87.9534 84.1403 87.8887 88.608 87.8887 93.0864C87.8671 114.561 87.8887 136.058 87.8563 157.554C87.8239 183.766 87.7376 209.978 87.716 236.18C87.716 239.266 87.6513 242.353 88.1692 245.428C88.8167 249.097 90.1872 250.295 93.8671 250.381C108.997 250.673 124.137 250.673 139.266 250.673C155.961 250.651 172.655 250.651 189.349 250.651C191.216 250.651 193.083 250.63 194.95 250.683C196.914 250.748 198.09 251.957 198.101 253.878C198.166 260.795 198.22 267.701 198.274 274.63H198.295Z" fill="white"/>
<path d="M22.9895 296.946C21.1982 297.41 19.3744 297.129 17.5723 297.108C19.3636 296.45 21.1766 296.752 22.9895 296.946Z" fill="#CAFEF4"/>
<path d="M24.9747 296.968C24.3596 297.291 23.7445 297.248 23.1294 296.968C23.7445 296.73 24.3596 296.752 24.9747 296.968Z" fill="#CAFEF4"/>
<path d="M56.4426 141.432C56.5398 141.572 56.529 141.701 56.4103 141.82C56.3671 141.723 56.3131 141.626 56.2808 141.529C56.2808 141.518 56.3887 141.475 56.4426 141.442V141.432Z" fill="#CAFEF4"/>
<path d="M56.3997 144.345C56.5399 144.486 56.5399 144.626 56.3997 144.766C56.3457 144.669 56.281 144.561 56.2378 144.464C56.2378 144.443 56.3349 144.389 56.3889 144.345H56.3997Z" fill="#CAFEF4"/>
<path d="M159.878 172.727C171.673 172.953 183.457 173.148 195.252 173.169C197.561 173.169 198.068 173.709 198.122 176.061C198.317 183.874 197.594 191.666 197.766 199.478C197.799 201.032 197.281 201.475 195.77 201.669C195.446 201.712 195.122 201.691 194.799 201.691C190.817 201.626 186.835 201.561 182.842 201.486C182.065 201.475 181.256 201.648 180.943 200.514C179.594 195.745 176.54 192.054 173.205 188.568C170.335 185.579 167.561 182.482 164.281 179.925C163.363 179.212 162.425 178.608 161.238 178.522C159.403 178.392 158.464 179.299 158.572 181.112C158.658 182.558 159.392 183.734 160.277 184.813C161.615 186.443 162.997 188.05 164.389 189.648C165.025 190.371 165.122 190.889 164.022 191.169C163.245 191.374 162.759 191.925 162.522 192.648C162.22 193.565 162.036 194.504 160.989 194.935C160.612 195.097 160.363 195.669 160.504 195.982C161.486 198.302 159.004 199.273 158.594 201.032C158.41 201.788 157.763 201.691 157.212 201.691C155.421 201.691 153.63 201.777 151.838 201.669C146.227 201.335 140.615 201.453 135.004 201.507C131.259 201.54 127.536 200.989 123.792 201.335C122.086 201.486 121.622 200.925 121.622 199.198C121.612 191.061 121.601 182.925 121.644 174.788C121.655 172.284 122.13 171.95 124.784 172.004C136.493 172.252 148.202 172.489 159.91 172.727H159.878Z" fill="#673DE6"/>
<path d="M367.245 256.155C367.191 257.007 366.77 257.698 365.917 258.043C365.745 258.108 365.464 258.097 365.389 257.719C365.216 256.748 365.205 255.788 365.27 254.806C365.302 254.428 365.561 254.266 366.079 254.353C366.792 254.644 367.288 255.27 367.234 256.165L367.245 256.155Z" fill="white"/>
<path d="M215.928 126.701C215.432 124.036 213.889 122.558 211.158 122.374C210.425 122.32 209.702 122.342 208.968 122.342C192.543 122.439 176.119 122.547 153.522 122.676C142.957 122.795 126.187 122.946 109.439 123.13C108.781 123.13 108.133 123.162 107.486 123.227C105.651 123.432 104.55 124.5 104.076 126.227C103.719 127.5 103.773 128.827 103.773 130.112C103.795 134.417 103.838 138.734 103.925 143.04C103.989 146.061 103.871 149.061 104.281 152.05C104.54 153.917 105.489 155.007 107.162 155.601C109.029 156.259 110.96 156.399 112.935 156.41C132.684 156.55 152.453 156.68 172.212 156.799C182.227 156.863 192.22 156.917 202.223 156.917C204.975 156.917 207.738 156.971 210.5 156.658C213.943 156.281 215.993 154.414 215.95 150.55C215.863 144.378 216.101 138.194 216.22 132.022C216.241 130.241 216.22 128.46 215.917 126.68L215.928 126.701ZM213.77 129.345C213.867 136.5 213.738 143.666 213.446 150.809C213.349 153.086 212.55 153.863 210.036 153.896C204.824 153.96 199.622 154.014 194.41 154.014C172.115 153.993 149.82 153.96 127.514 153.95C122.237 153.95 116.95 153.928 111.651 153.917C111.004 153.917 110.345 153.939 109.698 153.885C106.968 153.701 106.46 153.022 106.266 150.27C105.759 143.363 106.061 136.446 105.964 129.54C105.964 128.968 105.91 128.385 105.986 127.824C106.201 126.097 106.903 125.385 108.662 125.309C110.863 125.223 113.054 125.277 115.266 125.277H160.18C194.55 125.374 206.842 125.245 208.223 125.018C209.259 124.845 209.712 124.964 210.662 124.964C212.615 124.986 213.479 125.709 213.738 127.63C213.824 128.201 213.77 128.784 213.77 129.345Z" fill="#080909"/>
<path d="M213.738 127.629C213.479 125.709 212.616 124.986 210.662 124.964C209.713 124.964 209.259 124.845 208.223 125.018C206.831 125.234 194.551 125.374 160.18 125.277H115.266C113.065 125.277 110.874 125.223 108.662 125.309C106.892 125.374 106.202 126.086 105.986 127.824C105.921 128.385 105.964 128.957 105.964 129.54C106.061 136.446 105.759 143.363 106.266 150.27C106.45 153.022 106.957 153.701 109.698 153.885C110.346 153.939 111.004 153.917 111.651 153.917C116.95 153.939 122.238 153.95 127.515 153.95C149.82 153.971 172.115 154.004 194.41 154.014C199.623 154.014 204.824 153.96 210.036 153.896C212.551 153.863 213.349 153.086 213.446 150.809C213.738 143.665 213.867 136.511 213.77 129.345C213.77 128.784 213.824 128.212 213.738 127.629ZM120.338 142.629C118.623 142.662 117.112 141.097 117.133 139.317C117.155 137.277 118.558 135.755 120.392 135.82C122.41 135.874 123.597 137.072 123.565 139.025C123.533 141.032 122.141 142.586 120.338 142.619V142.629ZM135.91 141.863C134.184 141.809 133.04 140.644 133.04 138.95C133.061 137.05 134.4 135.723 136.234 135.799C137.982 135.863 139.288 137.288 139.191 138.971C139.072 140.655 137.648 141.928 135.921 141.874L135.91 141.863ZM151.59 141.41C150.047 141.464 149.033 140.309 149.043 138.561C149.065 137.104 150.231 135.928 151.644 135.95C153.252 135.971 154.32 136.921 154.342 138.378C154.364 140.126 153.22 141.378 151.59 141.41ZM168.047 141.432C166.558 141.41 165.446 140.331 165.403 138.831C165.371 137.428 166.558 135.96 167.777 135.928C169.374 135.874 170.497 137.029 170.497 138.691C170.475 140.32 169.482 141.442 168.058 141.421L168.047 141.432ZM183.22 141.399C181.968 141.345 180.813 140.299 180.781 139.122C180.727 137.752 182.141 136.327 183.576 136.306C184.914 136.306 185.939 137.277 185.939 138.55C185.961 140.093 184.655 141.453 183.22 141.399ZM199.223 141.669C198.123 141.615 197.151 140.428 197.141 139.111C197.141 137.741 198.026 136.824 199.385 136.802C200.572 136.781 201.695 137.957 201.673 139.144C201.641 140.471 200.421 141.745 199.234 141.669H199.223Z" fill="white"/>
<path d="M215.81 80.1151C215.831 78.9928 215.604 78.1511 215.151 77.482C214.374 76.3597 213.079 75.9928 212.119 75.7015C211.385 75.4964 210.112 75.2266 208.471 75.4317C206.399 75.3777 203.248 75.2914 199.407 75.2266C184.374 74.9353 178.288 75.1727 159.619 75.2482C138.457 75.313 127.892 75.2698 127.385 75.2698C121.374 75.2914 115.353 75.3561 109.331 75.4533C105.716 75.5072 104.345 76.9317 104.324 80.5576C104.302 88.295 104.302 96.0324 104.324 103.77C104.345 107.18 106.223 109.144 109.547 109.133C123.64 109.079 137.723 109.198 151.806 109.425C163.903 109.608 176 109.403 188.097 109.403C195.338 109.381 202.59 109.468 209.831 109.457C213.533 109.457 215.313 107.86 215.529 104.277C216.025 96.2374 215.615 88.1547 215.799 80.1151H215.81ZM213.435 103.371C213.414 106.036 212.928 106.543 210.295 106.565C201.576 106.63 192.867 106.63 184.169 106.651C176.022 106.673 167.896 106.716 160.309 106.36C143.475 106.683 127.212 106.619 110.939 106.694C110.378 106.694 109.806 106.716 109.223 106.694C106.698 106.608 106.255 106.155 106.255 103.662C106.277 96.0108 106.277 88.3597 106.277 80.7087C106.277 77.6547 106.73 77.1259 109.806 77.2015C126.651 77.6115 143.496 77.3202 160.331 77.3849C174.263 77.4389 188.173 77.3633 202.083 77.4065C204.845 77.4065 207.619 77.4281 210.36 77.6223C213.079 77.8274 213.446 78.2698 213.446 80.9353C213.479 88.4137 213.468 95.9029 213.425 103.381L213.435 103.371Z" fill="#080909"/>
<path d="M258.867 34.1871C256.407 34.1655 256.471 34.1547 256.288 31.813C255.932 27.4857 254.453 23.7411 250.569 21.3454C247.73 19.5756 244.364 19.7159 241.644 21.7015C238.882 23.7195 237.263 26.4821 236.788 29.849C236.583 31.2734 236.346 32.7519 236.637 34.2087C235.126 34.6188 233.561 34.295 232.04 34.4245C229.989 34.608 229.72 34.867 229.579 36.9173C229.525 37.4785 229.579 38.0504 229.558 38.6116C229.353 44.8058 229.881 50.9785 229.935 57.1512C229.957 58.9857 230.022 59.1044 231.835 59.1152C236.464 59.1476 241.115 59.1152 245.745 59.1152C253.569 59.2015 259.32 59.2015 260.874 59.2015C261.209 59.1799 262.029 59.1692 262.482 58.6404C262.957 58.0792 262.784 57.2807 262.784 57.0109C262.752 50.8166 262.903 44.644 263.087 38.4713C263.227 34.4353 262.882 34.2087 258.846 34.1763L258.867 34.1871ZM238.73 32.4929C238.871 29.8274 239.658 27.3885 241.342 25.295C244.18 21.7447 248.691 21.831 251.518 25.3598C253.126 27.3454 253.806 29.6224 253.892 32.1152C253.914 32.9245 254.033 33.5073 253.655 33.8957C253.364 34.1979 252.964 34.2303 252.328 34.2842C250.439 34.3814 248.777 34.3382 248.421 34.3166C247.882 34.295 247.061 34.295 246.058 34.349C244.212 34.349 242.346 34.3274 240.479 34.349C238.633 34.3706 238.612 34.3814 238.709 32.4821L238.73 32.4929ZM261.112 45.2807C260.788 48.6907 260.842 52.0792 260.723 55.4893C260.669 56.5361 260.367 56.8814 259.32 56.8598C254.928 56.8058 250.547 56.8382 245.108 56.8382C241.784 56.6979 237.403 56.9893 233.011 57.054C232.007 57.0756 231.5 56.903 231.608 55.7483C232.105 49.9749 231.824 44.2123 231.878 38.4389C231.878 36.5073 231.425 36.3022 233.95 36.313H258.824C260.842 36.313 261.112 36.5504 261.187 38.6763C261.241 40.8778 261.328 43.09 261.133 45.2591L261.112 45.2807Z" fill="#080909"/>
<path d="M253.655 33.8957C253.363 34.1979 252.964 34.2303 252.327 34.2842C250.439 34.3813 248.777 34.3382 248.421 34.3166C247.881 34.295 247.061 34.295 246.058 34.349C244.212 34.349 242.345 34.3274 240.478 34.349C238.633 34.3706 238.612 34.3813 238.709 32.4821C238.849 29.8166 239.637 27.3778 241.32 25.2842C244.158 21.7339 248.669 21.8202 251.496 25.349C253.104 27.3346 253.784 29.6116 253.871 32.1044C253.892 32.9137 254.011 33.4965 253.633 33.8849L253.655 33.8957Z" fill="white"/>
<path d="M304.094 164.191C304.148 164.763 303.619 165 303.166 165.162C302.788 165.302 302.389 165.313 302.162 165.346C300.349 165.292 298.299 163.576 297.889 161.957C297.77 161.45 297.738 160.91 298.18 160.597C298.676 160.274 299.162 160.63 299.432 161.04C300.317 162.443 301.622 163.166 303.176 163.533C303.554 163.63 304.061 163.738 304.094 164.191Z" fill="#080909"/>
<path d="M304.299 142.77C304.331 143.741 303.295 144.928 302.4 144.96C301.45 144.982 300.511 144.043 300.511 143.072C300.511 142.155 301.461 141.032 302.259 140.989C303.123 140.935 304.267 141.917 304.299 142.77Z" fill="#080909"/>
<path d="M160.32 106.349C143.486 106.673 127.212 106.608 110.939 106.683C110.367 106.683 109.795 106.705 109.234 106.683C106.709 106.608 106.255 106.144 106.255 103.651C106.255 96 106.277 88.3489 106.266 80.6978C106.266 77.6331 106.719 77.1151 109.795 77.1906C126.64 77.5899 143.486 77.2985 160.32 77.3633C174.241 77.4172 188.151 77.3633 202.072 77.3849C204.835 77.3849 207.597 77.4172 210.349 77.6115C213.068 77.8057 213.425 78.2482 213.435 80.9136C213.457 88.4028 213.446 95.8813 213.403 103.37C213.392 106.025 212.907 106.532 210.263 106.554C201.554 106.619 192.845 106.629 184.148 106.64C176.011 106.64 167.874 106.716 160.299 106.349H160.32Z" fill="#673DE6"/>
<path d="M245.087 56.849C241.763 56.7087 237.382 57.0108 232.99 57.0756C231.997 57.0972 231.479 56.9137 231.576 55.759C232.062 50.0072 231.803 44.2339 231.846 38.4713C231.857 36.5288 231.403 36.3346 233.929 36.3346C242.216 36.3454 250.504 36.3346 258.792 36.3346C260.81 36.3346 261.09 36.572 261.144 38.6979C261.198 40.8885 261.295 43.1008 261.09 45.2698C260.777 48.6691 260.831 52.0792 260.702 55.4893C260.659 56.536 260.346 56.8705 259.299 56.8598C254.918 56.8166 250.526 56.8382 245.087 56.8382V56.849ZM246.328 40.9533C245.389 40.9965 244.472 41.4821 243.975 42.518C243.49 43.5324 243.414 44.6763 244.31 45.4425C245.195 46.1979 245.27 47.0396 245.227 48.0432C245.206 48.518 245.238 49.0252 245.367 49.4785C245.54 50.1152 245.864 50.7734 246.619 50.7734C247.45 50.7734 247.547 50.0504 247.666 49.3921C247.957 47.7519 248.195 46.1547 249.069 44.6116C250.18 42.6583 248.821 40.8885 246.328 40.9425V40.9533Z" fill="#673DE6"/>
<path d="M123.565 139.036C123.533 141.043 122.141 142.597 120.339 142.63C118.623 142.662 117.112 141.097 117.134 139.317C117.155 137.277 118.558 135.755 120.393 135.82C122.411 135.874 123.598 137.072 123.565 139.025V139.036Z" fill="#080909"/>
<path d="M139.191 138.96C139.072 140.644 137.647 141.917 135.921 141.863C134.194 141.809 133.05 140.644 133.05 138.95C133.072 137.05 134.41 135.723 136.245 135.799C137.993 135.863 139.299 137.288 139.201 138.971L139.191 138.96Z" fill="#080909"/>
<path d="M154.342 138.367C154.364 140.115 153.22 141.367 151.59 141.399C150.047 141.453 149.033 140.299 149.044 138.55C149.065 137.094 150.231 135.917 151.644 135.939C153.252 135.96 154.321 136.91 154.342 138.367Z" fill="#080909"/>
<path d="M170.486 138.691C170.464 140.32 169.471 141.443 168.047 141.421C166.558 141.399 165.446 140.32 165.403 138.82C165.371 137.417 166.558 135.95 167.777 135.917C169.374 135.863 170.497 137.018 170.497 138.68L170.486 138.691Z" fill="#080909"/>
<path d="M185.928 138.54C185.95 140.083 184.644 141.442 183.209 141.388C181.957 141.334 180.802 140.288 180.77 139.111C180.716 137.741 182.13 136.317 183.565 136.295C184.903 136.295 185.928 137.266 185.928 138.54Z" fill="#080909"/>
<path d="M201.651 139.133C201.619 140.461 200.4 141.734 199.213 141.658C198.112 141.605 197.141 140.417 197.13 139.101C197.13 137.73 198.015 136.813 199.374 136.792C200.562 136.77 201.684 137.946 201.662 139.133H201.651Z" fill="#080909"/>
<path d="M246.328 40.9534C248.821 40.8994 250.18 42.6692 249.069 44.6224C248.195 46.1656 247.947 47.7627 247.666 49.403C247.547 50.0613 247.461 50.7735 246.619 50.7843C245.853 50.7843 245.529 50.1368 245.368 49.4893C245.249 49.0253 245.206 48.5289 245.227 48.0541C245.281 47.0505 245.195 46.2087 244.31 45.4534C243.414 44.6872 243.479 43.5541 243.975 42.5289C244.472 41.4929 245.389 41.0073 246.328 40.9641V40.9534Z" fill="#080909"/>
<ellipse cx="275.432" cy="21.0432" rx="11.3309" ry="11.3309" fill="#FC5185"/>
<path d="M277.275 27.7161C277.109 27.7699 276.934 27.789 276.76 27.7723C276.587 27.7557 276.418 27.7036 276.266 27.6192C276.113 27.5345 275.98 27.4196 275.873 27.2816C275.767 27.1433 275.69 26.9848 275.648 26.8156C275.585 26.6499 275.557 26.473 275.566 26.2962C275.575 26.119 275.619 25.9458 275.698 25.7869C275.776 25.6282 275.887 25.487 276.022 25.3729C276.157 25.2584 276.315 25.1731 276.484 25.1221C276.823 25.0352 277.182 25.0823 277.487 25.2534C277.791 25.4246 278.018 25.7067 278.121 26.041C278.222 26.3753 278.191 26.7362 278.034 27.0482C277.876 27.3603 277.605 27.5994 277.275 27.7161ZM276.329 23.6639L275.764 23.8407C275.623 23.884 275.471 23.873 275.338 23.8097C275.205 23.7464 275.1 23.6354 275.045 23.4988L275.023 23.4436C274.536 22.3348 274.587 21.0468 275.177 19.6174C275.72 18.3362 275.98 17.4241 275.706 16.5507C275.39 15.5409 274.551 15.156 273.405 15.4951C272.959 15.6349 272.823 15.619 272.455 15.9228C272.375 15.9895 272.282 16.0398 272.182 16.07C272.082 16.1003 271.977 16.1099 271.873 16.0988C271.772 16.0883 271.675 16.0579 271.587 16.009C271.498 15.9601 271.421 15.8938 271.359 15.8142C271.239 15.661 271.181 15.4678 271.198 15.2739C271.215 15.08 271.305 14.8998 271.45 14.7696C272.072 14.2285 272.799 13.8219 273.586 13.5758C276.053 12.8035 277.114 14.3786 277.54 15.7396C277.957 17.0709 277.546 18.2324 276.919 19.7281C276.396 20.9706 276.332 21.9211 276.705 22.9054C276.732 22.9797 276.743 23.0589 276.738 23.1378C276.734 23.2167 276.713 23.2935 276.678 23.3644C276.643 23.4351 276.594 23.4981 276.534 23.5492C276.474 23.6004 276.404 23.6392 276.328 23.6627L276.329 23.6639Z" fill="white"/>
</g>
<defs>
<clipPath id="clip0_431_118">
<rect width="418" height="300" fill="white"/>
</clipPath>
</defs>
</svg>
