<svg width="460" height="386" viewBox="0 0 460 386" fill="none" xmlns="http://www.w3.org/2000/svg">
<g clip-path="url(#clip0_163_483)">
<path d="M459.121 22.513V74.36H457.759V73.807H1.364V74.36H0V22.513C0.00582448 16.544 2.3796 10.8211 6.60034 6.60034C10.8211 2.3796 16.544 0.00582448 22.513 0H436.613C442.581 0.00714784 448.303 2.38149 452.522 6.6021C456.742 10.8227 459.115 16.5448 459.121 22.513V22.513Z" fill="#673DE6"/>
<path d="M436.609 0H22.5091C16.5401 0.00582448 10.8172 2.3796 6.59644 6.60034C2.37569 10.8211 0.00191823 16.544 -0.00390625 22.513V318.588C0.00218458 324.558 2.37663 330.281 6.59821 334.501C10.8198 338.722 16.5435 341.095 22.5131 341.1H436.613C442.582 341.094 448.305 338.72 452.526 334.5C456.747 330.279 459.12 324.556 459.126 318.587V22.513C459.12 16.5433 456.746 10.8198 452.524 6.59892C448.303 2.37806 442.579 0.00476552 436.609 0V0ZM457.759 318.588C457.752 324.195 455.522 329.57 451.557 333.534C447.593 337.498 442.218 339.729 436.611 339.736H22.5111C16.9045 339.729 11.5296 337.498 7.56509 333.534C3.60062 329.57 1.37024 324.195 1.3631 318.588V22.513C1.37024 16.9064 3.60062 11.5315 7.56509 7.567C11.5296 3.60253 16.9045 1.37215 22.5111 1.36501H436.611C442.218 1.37215 447.593 3.60253 451.557 7.567C455.522 11.5315 457.752 16.9064 457.759 22.513V318.588Z" fill="#3F3D56"/>
<path d="M92.7797 50.8241C100.315 50.8241 106.424 44.7155 106.424 37.1801C106.424 29.6448 100.315 23.5361 92.7797 23.5361C85.2444 23.5361 79.1357 29.6448 79.1357 37.1801C79.1357 44.7155 85.2444 50.8241 92.7797 50.8241Z" fill="white"/>
<path d="M366.342 50.8241C373.878 50.8241 379.986 44.7155 379.986 37.1801C379.986 29.6448 373.878 23.5361 366.342 23.5361C358.807 23.5361 352.698 29.6448 352.698 37.1801C352.698 44.7155 358.807 50.8241 366.342 50.8241Z" fill="white"/>
<path d="M132.201 189.313H51.0354C47.5967 189.309 44.2999 187.941 41.8683 185.51C39.4368 183.078 38.0691 179.781 38.0654 176.343V137.981C38.0691 134.542 39.4368 131.245 41.8683 128.814C44.2999 126.382 47.5967 125.014 51.0354 125.011H132.201C135.64 125.014 138.937 126.382 141.368 128.814C143.8 131.245 145.168 134.542 145.171 137.981V176.343C145.168 179.781 143.8 183.078 141.368 185.51C138.937 187.941 135.64 189.309 132.201 189.313V189.313Z" fill="#673DE6"/>
<path d="M270.277 189.313H189.111C185.672 189.309 182.375 187.941 179.944 185.51C177.512 183.078 176.144 179.781 176.141 176.343V137.981C176.144 134.542 177.512 131.245 179.944 128.814C182.375 126.382 185.672 125.014 189.111 125.011H270.277C273.715 125.014 277.012 126.382 279.444 128.814C281.875 131.245 283.243 134.542 283.247 137.981V176.343C283.243 179.781 281.875 183.078 279.444 185.51C277.012 187.941 273.715 189.309 270.277 189.313V189.313Z" fill="#673DE6"/>
<path d="M270.277 288.43H189.111C185.568 288.426 182.172 287.017 179.667 284.512C177.162 282.007 175.752 278.61 175.748 275.068V236.706C175.752 233.163 177.161 229.766 179.666 227.261C182.172 224.756 185.568 223.347 189.111 223.343H270.276C273.819 223.347 277.216 224.756 279.721 227.261C282.226 229.766 283.635 233.163 283.639 236.706V275.068C283.635 278.61 282.226 282.007 279.72 284.512C277.215 287.017 273.819 288.426 270.276 288.43H270.277Z" fill="#D8DBFE"/>
<path d="M131.934 288.43H50.7692C47.2265 288.426 43.8301 287.017 41.3249 284.512C38.8198 282.007 37.4105 278.61 37.4062 275.068V236.706C37.4102 233.163 38.8194 229.766 41.3246 227.261C43.8298 224.756 47.2264 223.347 50.7692 223.343H131.934C135.477 223.347 138.874 224.756 141.379 227.261C143.884 229.766 145.293 233.163 145.297 236.706V275.068C145.293 278.61 143.884 282.007 141.379 284.512C138.873 287.017 135.477 288.426 131.934 288.43Z" fill="#D8DBFE"/>
<path d="M408.354 288.43H327.188C323.645 288.426 320.249 287.017 317.744 284.511C315.238 282.006 313.829 278.61 313.825 275.067V236.706C313.829 233.163 315.238 229.766 317.744 227.261C320.249 224.756 323.645 223.347 327.188 223.343H408.353C411.896 223.347 415.293 224.756 417.798 227.261C420.303 229.766 421.712 233.163 421.716 236.706V275.068C421.712 278.61 420.303 282.007 417.798 284.511C415.293 287.016 411.897 288.426 408.354 288.43Z" fill="#D8DBFE"/>
<path d="M408.354 189.389H327.188C323.645 189.385 320.249 187.976 317.744 185.47C315.238 182.965 313.829 179.569 313.825 176.026V137.664C313.829 134.121 315.238 130.724 317.744 128.219C320.249 125.714 323.645 124.305 327.188 124.301H408.353C411.896 124.305 415.293 125.714 417.798 128.219C420.303 130.724 421.712 134.121 421.716 137.664V176.026C421.712 179.568 420.303 182.965 417.798 185.47C415.293 187.975 411.897 189.385 408.354 189.389Z" fill="#D8DBFE"/>
<path d="M91.6184 179.171C103.774 179.171 113.627 169.318 113.627 157.162C113.627 145.007 103.774 135.153 91.6184 135.153C79.4631 135.153 69.6094 145.007 69.6094 157.162C69.6094 169.318 79.4631 179.171 91.6184 179.171Z" fill="white"/>
<path d="M89.4365 165.557C88.9415 165.558 88.4596 165.398 88.0635 165.101L88.0385 165.083L82.8665 161.123C82.6188 160.942 82.4098 160.714 82.2518 160.451C82.0937 160.188 81.9899 159.896 81.9462 159.593C81.9026 159.289 81.9201 158.98 81.9978 158.683C82.0754 158.387 82.2116 158.108 82.3983 157.865C82.585 157.622 82.8185 157.418 83.0851 157.267C83.3516 157.115 83.6457 157.018 83.9502 156.982C84.2547 156.945 84.5635 156.97 84.8582 157.055C85.1529 157.14 85.4277 157.283 85.6665 157.475L89.0165 160.044L96.9335 149.719C97.3047 149.236 97.8525 148.92 98.4566 148.84C99.0606 148.76 99.6717 148.924 100.155 149.294L100.106 149.361L100.156 149.295C100.64 149.666 100.956 150.214 101.035 150.818C101.115 151.422 100.952 152.033 100.581 152.517L91.2695 164.662C91.0544 164.942 90.7776 165.169 90.4606 165.326C90.1436 165.482 89.7948 165.563 89.4415 165.562L89.4365 165.557Z" fill="#673DE6"/>
<path d="M230.087 178.854C242.242 178.854 252.096 169 252.096 156.845C252.096 144.69 242.242 134.836 230.087 134.836C217.932 134.836 208.078 144.69 208.078 156.845C208.078 169 217.932 178.854 230.087 178.854Z" fill="white"/>
<path d="M227.906 165.241C227.411 165.242 226.929 165.082 226.533 164.785L226.508 164.767L221.336 160.807C221.089 160.626 220.88 160.397 220.722 160.134C220.563 159.872 220.46 159.58 220.416 159.276C220.372 158.973 220.39 158.664 220.468 158.367C220.545 158.07 220.681 157.792 220.868 157.549C221.055 157.306 221.288 157.102 221.555 156.95C221.821 156.799 222.115 156.702 222.42 156.665C222.724 156.629 223.033 156.654 223.328 156.739C223.623 156.823 223.897 156.966 224.136 157.159L227.486 159.728L235.403 149.403C235.774 148.919 236.322 148.603 236.926 148.524C237.53 148.444 238.141 148.607 238.625 148.978L238.576 149.045L238.627 148.979C239.11 149.35 239.427 149.898 239.506 150.502C239.586 151.106 239.423 151.717 239.052 152.201L229.74 164.346C229.524 164.626 229.246 164.852 228.928 165.008C228.61 165.163 228.26 165.243 227.906 165.241V165.241Z" fill="#673DE6"/>
<path d="M378.835 260.706C379.558 259.915 380.099 258.976 380.42 257.953C380.741 256.931 380.833 255.851 380.691 254.789C380.549 253.727 380.176 252.709 379.598 251.807C379.02 250.905 378.252 250.14 377.346 249.567L365.06 183.956L350.117 189.497L366.894 252.246C366.032 253.831 365.78 255.677 366.188 257.435C366.596 259.192 367.635 260.739 369.108 261.782C370.58 262.824 372.384 263.291 374.177 263.092C375.971 262.893 377.629 262.043 378.837 260.703L378.835 260.706Z" fill="#A0616A"/>
<path d="M259.597 160.59C259.634 160.997 259.64 161.407 259.612 161.815L288.667 184.177L296.906 180.794L303.637 192.561L289.637 199.968C288.506 200.566 287.211 200.782 285.947 200.582C284.683 200.381 283.517 199.777 282.626 198.858L253.581 168.917C252.044 169.263 250.438 169.134 248.976 168.545C247.514 167.957 246.266 166.937 245.398 165.622C244.53 164.307 244.083 162.759 244.116 161.183C244.149 159.608 244.661 158.08 245.584 156.802C246.507 155.525 247.797 154.559 249.282 154.033C250.767 153.506 252.378 153.445 253.899 153.856C255.42 154.267 256.78 155.131 257.798 156.334C258.816 157.537 259.444 159.022 259.597 160.59V160.59Z" fill="#A0616A"/>
<path d="M327.476 377.155H319.113L315.134 351.717H327.478L327.476 377.155Z" fill="#A0616A"/>
<path d="M329.609 385.262H302.641V384.921C302.641 382.136 303.747 379.465 305.716 377.496C307.685 375.527 310.356 374.421 313.141 374.421H329.613L329.609 385.262Z" fill="#2F2E41"/>
<path d="M358.858 377.155H350.495L346.516 351.717H358.86L358.858 377.155Z" fill="#A0616A"/>
<path d="M360.99 385.262H334.022V384.921C334.022 382.136 335.129 379.465 337.098 377.496C339.067 375.527 341.738 374.421 344.522 374.421H360.994L360.99 385.262Z" fill="#2F2E41"/>
<path d="M317.376 372.126C316.613 372.127 315.876 371.842 315.311 371.328C314.747 370.814 314.394 370.108 314.323 369.348L307.035 271.323L307.379 271.295L357.535 267.172L357.549 267.528L361.536 369.074C361.552 369.486 361.484 369.898 361.336 370.284C361.189 370.669 360.966 371.021 360.679 371.319C360.393 371.616 360.049 371.853 359.67 372.014C359.29 372.176 358.881 372.259 358.468 372.259H348.629C347.895 372.262 347.185 372.002 346.628 371.524C346.071 371.047 345.704 370.385 345.595 369.659L332.241 287.627C332.228 287.542 332.184 287.466 332.117 287.412C332.05 287.359 331.965 287.333 331.88 287.339C331.794 287.345 331.714 287.383 331.656 287.445C331.597 287.508 331.564 287.59 331.563 287.676L330.957 368.669C330.951 369.451 330.647 370.201 330.106 370.767C329.566 371.333 328.83 371.671 328.049 371.713L317.537 372.123C317.486 372.125 317.429 372.126 317.376 372.126Z" fill="#2F2E41"/>
<path d="M325.938 147.442C335.192 147.442 342.694 139.94 342.694 130.686C342.694 121.432 335.192 113.93 325.938 113.93C316.684 113.93 309.182 121.432 309.182 130.686C309.182 139.94 316.684 147.442 325.938 147.442Z" fill="#A0616A"/>
<path d="M329.181 277.576C321.858 277.554 314.57 276.558 307.509 274.614C306.829 274.416 306.238 273.989 305.836 273.406C305.434 272.823 305.246 272.12 305.302 271.414C307.558 237.514 308.088 211.205 303.345 193.002C301.296 185.482 302.196 177.463 305.863 170.585C308.405 165.87 312.183 161.936 316.791 159.205C321.399 156.475 326.663 155.05 332.019 155.085V155.085C332.53 155.094 333.046 155.112 333.566 155.14C349.784 155.975 362.421 170.647 361.737 187.846L358.475 269.825C358.463 270.423 358.275 271.004 357.933 271.495C357.591 271.986 357.111 272.365 356.554 272.584C347.804 275.876 338.532 277.567 329.182 277.576H329.181Z" fill="#FC5185"/>
<path d="M306.1 199.299L293.549 183.919C293.192 183.481 292.934 182.972 292.791 182.425C292.649 181.879 292.626 181.308 292.724 180.752C292.822 180.195 293.038 179.667 293.359 179.202C293.68 178.737 294.097 178.347 294.582 178.058L311.582 167.927C312.694 167.006 313.976 166.314 315.356 165.892C316.736 165.47 318.187 165.326 319.623 165.468C321.059 165.61 322.453 166.036 323.723 166.72C324.994 167.404 326.117 168.333 327.026 169.454C327.935 170.575 328.613 171.865 329.02 173.249C329.428 174.634 329.557 176.085 329.399 177.52C329.242 178.955 328.802 180.344 328.104 181.607C327.407 182.871 326.466 183.983 325.335 184.881L312.048 199.462C311.668 199.879 311.202 200.209 310.682 200.43C310.162 200.652 309.601 200.758 309.036 200.742C308.471 200.727 307.917 200.59 307.41 200.341C306.903 200.092 306.456 199.736 306.098 199.299H306.1Z" fill="#FC5185"/>
<path d="M345.583 197.369C345.068 197.138 344.608 196.799 344.236 196.375C343.863 195.95 343.587 195.45 343.425 194.909L337.775 176.009C336.54 173.391 336.396 170.389 337.375 167.664C338.353 164.939 340.373 162.715 342.992 161.48C345.61 160.245 348.612 160.1 351.337 161.079C354.062 162.057 356.286 164.078 357.521 166.696L368.447 183.196C368.759 183.667 368.966 184.2 369.053 184.758C369.14 185.315 369.106 185.886 368.953 186.429C368.8 186.973 368.532 187.477 368.167 187.908C367.802 188.339 367.348 188.685 366.836 188.925L348.857 197.341C348.346 197.581 347.789 197.708 347.224 197.712C346.659 197.717 346.1 197.6 345.584 197.369H345.583Z" fill="#FC5185"/>
<path d="M334.216 144.433L321.796 141.59C320.515 141.297 318.976 140.737 318.796 139.435C318.557 137.685 321.076 136.466 320.843 134.715C320.618 133.015 318.324 132.801 316.688 132.3C315.165 131.766 313.909 130.659 313.187 129.216C312.464 127.772 312.332 126.103 312.818 124.564C311.048 127.058 307.005 127.272 304.709 125.251C303.613 124.177 302.89 122.78 302.646 121.266C302.402 119.751 302.649 118.198 303.352 116.834C304.097 115.493 305.148 114.347 306.419 113.489C307.691 112.631 309.146 112.084 310.668 111.895C313.729 111.548 316.823 112.125 319.552 113.551C319.734 111.618 322.152 110.834 324.089 110.817C328.122 110.865 332.04 112.168 335.297 114.545C338.555 116.923 340.991 120.257 342.265 124.083C344.647 131.759 343.054 140.174 336.388 144.665L334.216 144.433Z" fill="#2F2E41"/>
<path d="M459.318 385.443H199.399C199.218 385.443 199.044 385.371 198.917 385.243C198.789 385.115 198.717 384.942 198.717 384.761C198.717 384.58 198.789 384.407 198.917 384.279C199.044 384.151 199.218 384.079 199.399 384.079H459.318C459.499 384.079 459.672 384.151 459.8 384.279C459.928 384.407 460 384.58 460 384.761C460 384.942 459.928 385.115 459.8 385.243C459.672 385.371 459.499 385.443 459.318 385.443V385.443Z" fill="#3F3D56"/>
</g>
<defs>
<clipPath id="clip0_163_483">
<rect width="460" height="385.444" fill="white"/>
</clipPath>
</defs>
</svg>
