<svg xmlns="http://www.w3.org/2000/svg" xmlns:xlink="http://www.w3.org/1999/xlink" width="60" height="60" viewBox="0 0 60 60">
  <defs>
    <clipPath id="clip-path">
      <rect id="Rectangle_69" data-name="Rectangle 69" width="28" height="28" transform="translate(13 13)" fill="#07ca8d"/>
    </clipPath>
  </defs>
  <g id="hacked-host-ic3" transform="translate(3 3)">
    <rect id="Rectangle_27" data-name="Rectangle 27" width="60" height="60" rx="30" transform="translate(-3 -3)" fill="#f5f5f5"/>
    <g id="Mask_Group_82" data-name="Mask Group 82" clip-path="url(#clip-path)">
      <g id="priority" transform="translate(12.993 13)">
        <path id="Path_2751" data-name="Path 2751" d="M15.752,3.519l-.038-.009-.016,0-.013,0A10.651,10.651,0,0,0,3.519,15.866s0,.008,0,.013,0,.014,0,.021V15.9A.819.819,0,0,0,4.91,16.3L16.139,4.888a.818.818,0,0,0-.388-1.369Zm-2.036,1.5L5,13.873A9.021,9.021,0,0,1,13.715,5.015Zm0,0" fill="#07ca8d"/>
        <path id="Path_2752" data-name="Path 2752" d="M13.323,24.646h.014c.229.014.454.022.671.022A10.661,10.661,0,0,0,24.656,14.02c0-.2-.006-.406-.017-.61h0a.818.818,0,0,0-1.395-.536L12.81,23.249a.819.819,0,0,0,.513,1.4Zm2.151-1.735,7.415-7.372A9.033,9.033,0,0,1,15.474,22.911Zm0,0" fill="#07ca8d"/>
        <path id="Path_2753" data-name="Path 2753" d="M1.553,19.106a.82.82,0,0,0,.775-1.085A12.35,12.35,0,0,1,17.969,2.328.819.819,0,1,0,18.495.777,13.989,13.989,0,0,0,.778,18.552a.819.819,0,0,0,.775.554Zm0,0" fill="#07ca8d"/>
        <path id="Path_2754" data-name="Path 2754" d="M27.465,10.226a.819.819,0,1,0-1.577.444A12.351,12.351,0,0,1,10.8,25.941a.819.819,0,1,0-.424,1.582,13.988,13.988,0,0,0,17.087-17.3Zm0,0" fill="#07ca8d"/>
        <path id="Path_2755" data-name="Path 2755" d="M3.967,25.693l.562-.562a1.736,1.736,0,0,0,.079-2.713l-.028-.028a1.685,1.685,0,0,0-2.645.034L.76,23.6a.419.419,0,0,0-.063.6l3.61,3.61c.182.182.494.051.715-.17s.352-.534.17-.715Zm-.681-.681-1.2-1.2.562-.562a.685.685,0,0,1,1.079.057l.062.062a.685.685,0,0,1,.057,1.079Zm0,0" fill="#07ca8d"/>
        <path id="Path_2756" data-name="Path 2756" d="M7.333,22.043l.375-.375L10,22.4a.428.428,0,0,0,.448-.119.816.816,0,0,0,.1-1.016.264.264,0,0,0-.131-.074L8.463,20.63A1.582,1.582,0,0,0,8,18.791c-.925-.925-1.834-.6-2.611.182L4.211,20.147a.374.374,0,0,0-.006.539l3.61,3.61c.182.182.494.051.715-.17s.352-.534.17-.715Zm-.681-.681L5.6,20.306l.562-.562a.637.637,0,0,1,1.039.017A.637.637,0,0,1,7.214,20.8Zm0,0" fill="#07ca8d"/>
        <path id="Path_2757" data-name="Path 2757" d="M11.409,20.7c.182.182.494.051.715-.17s.352-.534.17-.715l-3.61-3.61c-.187-.187-.488-.045-.709.176s-.363.522-.176.71Zm0,0" fill="#07ca8d"/>
        <path id="Path_2758" data-name="Path 2758" d="M14.837,17.888a1.745,1.745,0,0,0,.057-2.736l-1.5-1.5a1.745,1.745,0,0,0-2.736.057,1.739,1.739,0,0,0-.051,2.73l1.5,1.5a1.739,1.739,0,0,0,2.73-.051ZM11.488,15.55A.723.723,0,1,1,12.5,14.533l1.5,1.5a.723.723,0,1,1-1.016,1.016Zm0,0" fill="#07ca8d"/>
        <path id="Path_2759" data-name="Path 2759" d="M14.343,10.015,13.168,11.19a.374.374,0,0,0-.006.539l3.61,3.61c.182.182.494.051.715-.17s.352-.534.17-.715L16.29,13.086l.375-.374,2.288.732a.428.428,0,0,0,.448-.119.816.816,0,0,0,.1-1.016.263.263,0,0,0-.131-.074l-1.947-.562a1.582,1.582,0,0,0-.465-1.839c-.925-.925-1.834-.6-2.611.182Zm1.828,1.828-.562.562-1.056-1.056.562-.562a.636.636,0,0,1,1.039.017A.636.636,0,0,1,16.171,11.843Zm0,0" fill="#07ca8d"/>
        <path id="Path_2760" data-name="Path 2760" d="M21.081,11.576c.222-.222.352-.534.17-.715l-3.61-3.61c-.187-.187-.488-.046-.71.176s-.363.522-.176.709l3.61,3.61c.182.182.494.051.715-.17Zm0,0" fill="#07ca8d"/>
        <path id="Path_2761" data-name="Path 2761" d="M18.4,6.746c.216.216.5.307.67.136l.783-.783,3.082,3.082c.182.182.494.051.715-.17s.352-.533.17-.715L20.735,5.213l.784-.784c.17-.17.079-.454-.136-.67-.187-.187-.471-.312-.659-.125L18.271,6.087c-.187.187-.062.471.125.658Zm0,0" fill="#07ca8d"/>
        <path id="Path_2762" data-name="Path 2762" d="M21.773,3.437l3.122.772a.209.209,0,0,1,.1.057L26.422,5.69c.182.182.494.051.715-.17s.352-.533.17-.715L25.883,3.38a.208.208,0,0,1-.057-.1L25.048.161A.186.186,0,0,0,25,.087c-.21-.21-.721-.006-.965.238a.354.354,0,0,0-.091.42l.67,2.248L22.358,2.33a.361.361,0,0,0-.42.091c-.244.244-.448.755-.238.965a.189.189,0,0,0,.074.051Zm0,0" fill="#07ca8d"/>
      </g>
    </g>
  </g>
</svg>
