<svg xmlns="http://www.w3.org/2000/svg" xmlns:xlink="http://www.w3.org/1999/xlink" width="60" height="60" viewBox="0 0 60 60">
  <defs>
    <clipPath id="clip-path">
      <rect id="Rectangle_69" data-name="Rectangle 69" width="28" height="28" transform="translate(13 13)" fill="#07ca8d"/>
    </clipPath>
  </defs>
  <g id="hacked-host-ic2" transform="translate(3 3)">
    <rect id="Rectangle_27" data-name="Rectangle 27" width="60" height="60" rx="30" transform="translate(-3 -3)" fill="#f5f5f5"/>
    <g id="Mask_Group_77" data-name="Mask Group 77" clip-path="url(#clip-path)">
      <g id="bin" transform="translate(13 13)">
        <g id="Group_4828" data-name="Group 4828">
          <g id="Group_4827" data-name="Group 4827">
            <path id="Path_2738" data-name="Path 2738" d="M23.844,3.281h-4.1v-.82A2.464,2.464,0,0,0,17.281,0H10.719A2.464,2.464,0,0,0,8.258,2.461v.82h-4.1a2.461,2.461,0,0,0-.765,4.8L4.854,25.743A2.475,2.475,0,0,0,7.306,28H20.694a2.475,2.475,0,0,0,2.453-2.257L24.609,8.081a2.461,2.461,0,0,0-.765-4.8ZM9.9,2.461a.821.821,0,0,1,.82-.82h6.563a.821.821,0,0,1,.82.82v.82H9.9ZM21.511,25.607a.825.825,0,0,1-.817.752H7.306a.825.825,0,0,1-.817-.752L5.047,8.2H22.953ZM23.844,6.563H4.156a.82.82,0,0,1,0-1.641H23.844a.82.82,0,0,1,0,1.641Z" fill="#07ca8d"/>
          </g>
        </g>
        <g id="Group_4830" data-name="Group 4830">
          <g id="Group_4829" data-name="Group 4829">
            <path id="Path_2739" data-name="Path 2739" d="M10.717,23.848,9.9,10.613a.82.82,0,0,0-1.638.1l.82,13.234a.82.82,0,1,0,1.638-.1Z" fill="#07ca8d"/>
          </g>
        </g>
        <g id="Group_4832" data-name="Group 4832">
          <g id="Group_4831" data-name="Group 4831">
            <path id="Path_2740" data-name="Path 2740" d="M14,9.844a.82.82,0,0,0-.82.82V23.9a.82.82,0,0,0,1.641,0V10.664A.82.82,0,0,0,14,9.844Z" fill="#07ca8d"/>
          </g>
        </g>
        <g id="Group_4834" data-name="Group 4834">
          <g id="Group_4833" data-name="Group 4833">
            <path id="Path_2741" data-name="Path 2741" d="M18.973,9.845a.821.821,0,0,0-.869.768l-.82,13.234a.82.82,0,0,0,1.638.1l.82-13.234A.82.82,0,0,0,18.973,9.845Z" fill="#07ca8d"/>
          </g>
        </g>
      </g>
    </g>
  </g>
</svg>
