<svg xmlns="http://www.w3.org/2000/svg" xmlns:xlink="http://www.w3.org/1999/xlink" width="60" height="60" viewBox="0 0 60 60">
  <defs>
    <clipPath id="clip-path">
      <rect id="Rectangle_69" data-name="Rectangle 69" width="26" height="26" transform="translate(14 14)" fill="#07ca8d"/>
    </clipPath>
  </defs>
  <g id="hacked-host-ic1" transform="translate(3 3)">
    <rect id="Rectangle_27" data-name="Rectangle 27" width="60" height="60" rx="30" transform="translate(-3 -3)" fill="#f5f5f5"/>
    <g id="Mask_Group_81" data-name="Mask Group 81" clip-path="url(#clip-path)">
      <path id="Reply" d="M26,25.133a.866.866,0,0,1-.775-.479c-1.6-3.209-3.124-6.247-11.358-6.444v6.056a.867.867,0,0,1-1.455.636L1.145,14.5a.867.867,0,0,1,0-1.273L12.412,2.83a.867.867,0,0,1,1.455.637V9.544c12,.3,13,6.848,13,14.723a.868.868,0,0,1-.668.844.889.889,0,0,1-.2.023ZM3.011,13.867l9.122,8.42V17.333A.866.866,0,0,1,13,16.467c7.186,0,10.246,2.006,12.041,4.417-.405-5.914-2.467-9.617-12.041-9.617a.866.866,0,0,1-.867-.867V5.446Z" transform="translate(13.133 13.133)" fill="#07ca8d"/>
    </g>
  </g>
</svg>
