<svg width="60" height="60" viewBox="0 0 60 60" fill="none" xmlns="http://www.w3.org/2000/svg">
<g clip-path="url(#clip0_1286_35645)">
<path d="M60 30C60 13.4315 46.5685 0 30 0C13.4315 0 0 13.4315 0 30C0 46.5685 13.4315 60 30 60C46.5685 60 60 46.5685 60 30Z" fill="#F4F5FF"/>
<mask id="mask0_1286_35645" style="mask-type:luminance" maskUnits="userSpaceOnUse" x="16" y="16" width="28" height="28">
<path d="M44 16H16V44H44V16Z" fill="white"/>
</mask>
<g mask="url(#mask0_1286_35645)">
<path d="M16.933 33.467C17.1805 33.467 17.4178 33.3687 17.5928 33.1937C17.7677 33.0188 17.866 32.7814 17.866 32.534V29.646C17.866 29.4924 17.927 29.3452 18.0356 29.2366C18.1442 29.128 18.2915 29.067 18.445 29.067H27.2V30.355C27.2 31.0035 27.4576 31.6253 27.9161 32.0839C28.3747 32.5424 28.9966 32.8 29.645 32.8H30.933V41.555C30.933 41.7086 30.872 41.8558 30.7634 41.9644C30.6549 42.073 30.5076 42.134 30.354 42.134H18.445C18.333 42.134 18.221 41.947 18.128 41.695C18.0714 41.5451 17.9814 41.4101 17.8648 41.3002C17.7482 41.1902 17.6082 41.1083 17.4552 41.0606C17.3022 41.0129 17.1404 41.0006 16.982 41.0248C16.8236 41.049 16.6728 41.1089 16.541 41.2C16.3526 41.3289 16.212 41.5164 16.1411 41.7334C16.0703 41.9504 16.073 42.1847 16.149 42.4C16.3211 42.871 16.6343 43.2774 17.046 43.5638C17.4576 43.8501 17.9476 44.0025 18.449 44H30.354C31.0025 44 31.6244 43.7424 32.0829 43.2839C32.5414 42.8253 32.799 42.2035 32.799 41.555V32.8H41.554C42.2017 32.7974 42.822 32.5389 43.28 32.081C43.7379 31.623 43.9964 31.0026 43.999 30.355V18.446C43.9967 17.7982 43.7383 17.1776 43.2803 16.7194C42.8224 16.2612 42.2018 16.0026 41.554 16H29.645C28.9974 16.0026 28.377 16.2611 27.9191 16.719C27.4611 17.177 27.2027 17.7974 27.2 18.445V27.2H18.445C18.1238 27.1999 17.8056 27.263 17.5088 27.3859C17.212 27.5088 16.9423 27.689 16.7151 27.9161C16.488 28.1433 16.3078 28.413 16.1849 28.7098C16.0621 29.0066 15.9989 29.3248 15.999 29.646V32.53C15.999 32.7774 16.0973 33.0148 16.2723 33.1897C16.4473 33.3647 16.6846 33.463 16.932 33.463L16.933 33.467ZM29.066 18.446C29.0647 18.3696 29.0787 18.2937 29.1073 18.2228C29.136 18.152 29.1786 18.0876 29.2326 18.0336C29.2866 17.9795 29.351 17.9369 29.4219 17.9083C29.4927 17.8797 29.5686 17.8656 29.645 17.867H41.554C41.6304 17.8656 41.7063 17.8797 41.7772 17.9083C41.848 17.9369 41.9124 17.9795 41.9665 18.0336C42.0205 18.0876 42.0631 18.152 42.0917 18.2228C42.1203 18.2937 42.1344 18.3696 42.133 18.446V30.355C42.1344 30.4314 42.1203 30.5073 42.0917 30.5782C42.0631 30.649 42.0205 30.7134 41.9665 30.7674C41.9124 30.8215 41.848 30.8641 41.7772 30.8927C41.7063 30.9213 41.6304 30.9354 41.554 30.934H29.645C29.4915 30.934 29.3442 30.873 29.2356 30.7644C29.127 30.6558 29.066 30.5086 29.066 30.355V18.446Z" fill="#6741EE"/>
<path d="M42.7948 35.6749C42.8585 35.5635 42.8986 35.44 42.9124 35.3124C42.9262 35.1847 42.9136 35.0555 42.8752 34.933C42.8368 34.8104 42.7736 34.6971 42.6894 34.6002C42.6052 34.5032 42.5019 34.4246 42.386 34.3694C42.27 34.3142 42.1439 34.2835 42.0156 34.2793C41.8872 34.2751 41.7594 34.2974 41.6401 34.3448C41.5208 34.3923 41.4125 34.4639 41.3221 34.5551C41.2317 34.6463 41.1611 34.7552 41.1148 34.8749C39.8968 37.6356 37.6989 39.847 34.9458 41.0819C34.7153 41.1863 34.5235 41.3605 34.3974 41.5798C34.2713 41.7992 34.2173 42.0526 34.2431 42.3043C34.2688 42.5559 34.373 42.7932 34.5409 42.9824C34.7088 43.1717 34.932 43.3034 35.1788 43.3589L37.1858 43.8349C37.3058 43.8647 37.4306 43.8703 37.5529 43.8515C37.6751 43.8327 37.7924 43.7899 37.898 43.7254C38.0035 43.6609 38.0953 43.5762 38.1678 43.476C38.2404 43.3759 38.2924 43.2623 38.3208 43.1419C38.3491 43.0215 38.3534 42.8967 38.3332 42.7747C38.3129 42.6526 38.2687 42.5358 38.2031 42.431C38.1374 42.3262 38.0516 42.2355 37.9506 42.164C37.8496 42.0926 37.7355 42.0419 37.6148 42.0149L37.2978 41.9399C39.7245 40.4591 41.6429 38.2746 42.7978 35.6769L42.7948 35.6749Z" fill="#6741EE"/>
<path d="M17.4088 23.8781C17.3481 23.985 17.3095 24.1031 17.2953 24.2252C17.281 24.3474 17.2914 24.4711 17.3259 24.5892C17.3603 24.7073 17.4181 24.8172 17.4959 24.9125C17.5736 25.0078 17.6697 25.0866 17.7784 25.1441C17.8871 25.2016 18.0062 25.2367 18.1288 25.2473C18.2513 25.2579 18.3747 25.2438 18.4917 25.2058C18.6087 25.1679 18.7168 25.1068 18.8098 25.0263C18.9027 24.9458 18.9786 24.8474 19.0328 24.7371C20.3048 22.1221 22.4652 20.0447 25.1278 18.8761C25.3568 18.7777 25.5483 18.6086 25.6743 18.3936C25.8002 18.1786 25.854 17.9289 25.8278 17.6811C25.8044 17.4332 25.7004 17.1998 25.5317 17.0167C25.363 16.8336 25.139 16.7108 24.8938 16.6671L22.6538 16.1821C22.5307 16.1553 22.4034 16.1533 22.2794 16.1761C22.1555 16.1989 22.0372 16.2461 21.9316 16.3149C21.826 16.3837 21.7351 16.4728 21.6642 16.577C21.5932 16.6812 21.5436 16.7984 21.5183 16.9219C21.493 17.0454 21.4924 17.1726 21.5166 17.2964C21.5408 17.4201 21.5893 17.5377 21.6593 17.6426C21.7293 17.7474 21.8194 17.8373 21.9243 17.9071C22.0293 17.9769 22.1471 18.0251 22.2708 18.0491L22.6068 18.1241C20.369 19.5196 18.5675 21.5148 17.4068 23.8831L17.4088 23.8781Z" fill="#6741EE"/>
</g>
</g>
<defs>
<clipPath id="clip0_1286_35645">
<rect width="60" height="60" fill="white"/>
</clipPath>
</defs>
</svg>
