<svg width="421" height="328" viewBox="0 0 421 328" fill="none" xmlns="http://www.w3.org/2000/svg">
<circle cx="158.5" cy="158.5" r="158.5" fill="#DFE7FD"/>
<g clip-path="url(#clip0_515_1639)">
<path d="M59.3698 99.558C60.6976 86.9262 71.3726 77.0899 84.3538 77.0899C89.1148 77.0899 93.5438 78.4352 97.3438 80.7326C101.161 78.042 105.817 76.4521 110.84 76.4521C122.642 76.4521 132.391 85.1616 134.06 96.5006C145.111 99.0601 153.348 108.94 153.348 120.768C153.348 134.536 142.184 145.7 128.417 145.7H68.4112C55.1766 145.7 44.4492 134.973 44.4492 121.738C44.4492 111.709 50.6166 103.122 59.3698 99.558Z" fill="#D1C5F7"/>
<path opacity="0.6" d="M120.45 118.601C120.738 117.204 120.895 115.754 120.895 114.277C120.895 112.801 120.738 111.342 120.45 109.944L117.06 109.464C116.667 108.049 116.117 106.721 115.409 105.48L117.462 102.737C115.864 100.291 113.776 98.2036 111.33 96.605L108.587 98.6579C107.346 97.9503 106.01 97.3912 104.603 96.9981L104.123 93.6174C102.725 93.3204 101.275 93.1719 99.7899 93.1719C98.3049 93.1719 96.846 93.3291 95.4483 93.6174L94.9678 96.9981C93.5614 97.3912 92.2248 97.9416 90.9756 98.6579L88.2326 96.605C85.7954 98.2036 83.7075 100.291 82.1089 102.729L84.1618 105.472C83.4629 106.712 82.9126 108.04 82.5107 109.455L79.1213 109.936C78.8243 111.333 78.6758 112.783 78.6758 114.269C78.6758 115.754 78.8243 117.204 79.1213 118.593L82.5107 119.082C82.9039 120.488 83.4542 121.825 84.1705 123.057L82.1089 125.808C83.7075 128.246 85.7954 130.334 88.2326 131.932L90.9756 129.871C92.2161 130.578 93.5527 131.137 94.9591 131.522L95.4396 134.92C96.8373 135.217 98.2874 135.365 99.7725 135.365C101.258 135.365 102.708 135.208 104.105 134.92L104.586 131.522C105.992 131.137 107.329 130.578 108.569 129.871L111.312 131.932C113.75 130.334 115.846 128.246 117.436 125.808L115.374 123.065C116.091 121.816 116.641 120.488 117.034 119.082L120.424 118.593L120.45 118.601ZM99.7812 124.446C94.1554 124.446 89.6129 119.894 89.6129 114.269C89.6129 108.643 94.1554 104.091 99.7812 104.091C105.407 104.091 109.958 108.652 109.958 114.269C109.958 119.886 105.407 124.446 99.7812 124.446Z" fill="white"/>
<path d="M196.033 75.9545C197.361 63.3227 208.036 53.4863 221.017 53.4863C225.778 53.4863 230.207 54.8316 234.007 57.1291C237.824 54.4385 242.481 52.8486 247.504 52.8486C259.306 52.8486 269.055 61.5581 270.723 72.897C281.774 75.4566 290.011 85.3367 290.011 97.1648C290.011 110.932 278.847 122.096 265.08 122.096H205.083C191.849 122.096 181.121 111.369 181.121 98.1345C181.121 88.1059 187.288 79.5187 196.042 75.9545H196.033Z" fill="#D1C5F7"/>
<g opacity="0.6">
<path d="M224.852 97.1816C224.852 93.8184 226.651 91.9053 229.071 91.9053C231.491 91.9053 233.273 93.8184 233.273 97.1816C233.273 100.545 231.473 102.458 229.071 102.458C226.669 102.458 224.852 100.545 224.852 97.1816ZM231.796 97.1816C231.796 94.5435 230.678 93.2156 229.071 93.2156C227.464 93.2156 226.328 94.5435 226.328 97.1816C226.328 99.8198 227.446 101.148 229.071 101.148C230.696 101.148 231.796 99.8198 231.796 97.1816Z" fill="white"/>
<path d="M234.688 97.1816C234.688 93.8184 236.487 91.9053 238.907 91.9053C241.327 91.9053 243.109 93.8184 243.109 97.1816C243.109 100.545 241.309 102.458 238.907 102.458C236.505 102.458 234.688 100.545 234.688 97.1816ZM241.632 97.1816C241.632 94.5435 240.514 93.2156 238.907 93.2156C237.299 93.2156 236.164 94.5435 236.164 97.1816C236.164 99.8198 237.282 101.148 238.907 101.148C240.532 101.148 241.632 99.8198 241.632 97.1816Z" fill="white"/>
<path d="M247.686 92.0186V102.344H246.227V93.3027H243.895V92.0186H247.686Z" fill="white"/>
<path d="M249.949 97.1816C249.949 93.8184 251.749 91.9053 254.169 91.9053C256.588 91.9053 258.37 93.8184 258.37 97.1816C258.37 100.545 256.571 102.458 254.169 102.458C251.766 102.458 249.949 100.545 249.949 97.1816ZM256.894 97.1816C256.894 94.5435 255.776 93.2156 254.169 93.2156C252.561 93.2156 251.426 94.5435 251.426 97.1816C251.426 99.8198 252.544 101.148 254.169 101.148C255.793 101.148 256.894 99.8198 256.894 97.1816Z" fill="white"/>
<path d="M262.948 92.0186V102.344H261.489V93.3027H259.156V92.0186H262.948Z" fill="white"/>
<path d="M265.203 97.1816C265.203 93.8184 267.003 91.9053 269.422 91.9053C271.842 91.9053 273.624 93.8184 273.624 97.1816C273.624 100.545 271.825 102.458 269.422 102.458C267.02 102.458 265.203 100.545 265.203 97.1816ZM272.148 97.1816C272.148 94.5435 271.03 93.2156 269.422 93.2156C267.815 93.2156 266.679 94.5435 266.679 97.1816C266.679 99.8198 267.798 101.148 269.422 101.148C271.047 101.148 272.148 99.8198 272.148 97.1816Z" fill="white"/>
<path d="M278.201 92.0186V102.344H276.743V93.3027H274.41V92.0186H278.201Z" fill="white"/>
</g>
<path d="M117.956 210.126C117.956 198.201 110.12 188.103 99.3227 184.705C97.759 172.326 87.2063 162.752 74.4085 162.752C69.2544 162.752 64.4673 164.307 60.4838 166.963C56.5003 164.298 51.7132 162.752 46.5591 162.752C33.7613 162.752 23.1999 172.326 21.6449 184.705C10.8476 188.112 3.01172 198.201 3.01172 210.126C3.01172 224.845 14.9447 236.778 29.6643 236.778H91.8974V236.761C106.337 236.455 117.956 224.653 117.956 210.126Z" fill="#FC5185"/>
<path d="M60.2537 166.823C56.3139 164.254 51.6054 162.752 46.5474 162.752C33.7496 162.752 23.1882 172.326 21.6332 184.705C10.8359 188.112 3 198.201 3 210.126C3 224.845 14.933 236.778 29.6526 236.778H48.3732L60.2537 166.823Z" fill="#FD3471"/>
<path d="M125.369 223.754H57.3789V228.812H125.369V223.754Z" fill="#D1C5F7"/>
<path d="M125.369 199.232H57.3789V204.29H125.369V199.232Z" fill="#D1C5F7"/>
<path d="M54.0421 227.562H128.418C130.348 227.562 131.921 229.126 131.921 231.066V246.807C131.921 248.738 130.357 250.31 128.418 250.31H54.0421C52.1115 250.31 50.5391 248.747 50.5391 246.807V231.066C50.5391 229.135 52.1028 227.562 54.0421 227.562Z" fill="white"/>
<path d="M84.3112 227.562L80.6073 250.301H54.0421C52.1028 250.301 50.5391 248.738 50.5391 246.807V231.057C50.5391 229.126 52.1028 227.562 54.0421 227.562H84.3112Z" fill="#EDEDED"/>
<path d="M126.914 245.305V232.577H55.5522V245.305H126.914Z" fill="#D1C5F7"/>
<path d="M121.272 238.936C121.272 240.15 120.294 241.128 119.079 241.128C117.865 241.128 116.887 240.15 116.887 238.936C116.887 237.722 117.865 236.743 119.079 236.743C120.294 236.743 121.272 237.722 121.272 238.936Z" fill="#5231B8"/>
<path d="M111.811 238.936C111.811 239.975 110.972 240.814 109.933 240.814C108.893 240.814 108.055 239.975 108.055 238.936C108.055 237.896 108.893 237.058 109.933 237.058C110.972 237.058 111.811 237.896 111.811 238.936Z" fill="#5231B8"/>
<path d="M102.659 238.936C102.659 239.975 101.82 240.814 100.781 240.814C99.741 240.814 98.9023 239.975 98.9023 238.936C98.9023 237.896 99.741 237.058 100.781 237.058C101.82 237.058 102.659 237.896 102.659 238.936Z" fill="white"/>
<path d="M93.5024 238.936C93.5024 239.975 92.6638 240.814 91.6243 240.814C90.5847 240.814 89.7461 239.975 89.7461 238.936C89.7461 237.896 90.5847 237.058 91.6243 237.058C92.6638 237.058 93.5024 237.896 93.5024 238.936Z" fill="#5231B8"/>
<path d="M84.3462 238.936C84.3462 239.975 83.5076 240.814 82.468 240.814C81.4285 240.814 80.5898 239.975 80.5898 238.936C80.5898 237.896 81.4285 237.058 82.468 237.058C83.5076 237.058 84.3462 237.896 84.3462 238.936Z" fill="white"/>
<path d="M54.0421 202.657H128.418C130.348 202.657 131.921 204.221 131.921 206.16V221.902C131.921 223.833 130.357 225.405 128.418 225.405H54.0421C52.1115 225.405 50.5391 223.841 50.5391 221.902V206.16C50.5391 204.23 52.1028 202.657 54.0421 202.657Z" fill="white"/>
<path d="M88.3646 202.657L84.6607 225.396H54.0421C52.1028 225.396 50.5391 223.833 50.5391 221.902V206.152C50.5391 204.221 52.1028 202.657 54.0421 202.657H88.3646Z" fill="#EDEDED"/>
<path d="M126.906 220.381V207.653H55.5444V220.381H126.906Z" fill="#D1C5F7"/>
<path d="M54.0421 178.136H128.418C130.348 178.136 131.921 179.699 131.921 181.639V197.38C131.921 199.311 130.357 200.883 128.418 200.883H54.0421C52.1115 200.883 50.5391 199.32 50.5391 197.38V181.639C50.5391 179.708 52.1028 178.136 54.0421 178.136Z" fill="white"/>
<path d="M92.3655 178.136L88.6616 200.883H54.0421C52.1028 200.883 50.5391 199.32 50.5391 197.38V181.639C50.5391 179.708 52.1028 178.136 54.0421 178.136H92.3655Z" fill="#EDEDED"/>
<path d="M126.914 195.878V183.15H55.5522V195.878H126.914Z" fill="#D1C5F7"/>
<path d="M119.087 216.215C120.298 216.215 121.28 215.234 121.28 214.023C121.28 212.812 120.298 211.83 119.087 211.83C117.876 211.83 116.895 212.812 116.895 214.023C116.895 215.234 117.876 216.215 119.087 216.215Z" fill="#5231B8"/>
<path d="M111.811 214.023C111.811 215.062 110.972 215.901 109.933 215.901C108.893 215.901 108.055 215.062 108.055 214.023C108.055 212.983 108.893 212.145 109.933 212.145C110.972 212.145 111.811 212.983 111.811 214.023Z" fill="#5231B8"/>
<path d="M102.659 214.023C102.659 215.062 101.82 215.901 100.781 215.901C99.741 215.901 98.9023 215.062 98.9023 214.023C98.9023 212.983 99.741 212.145 100.781 212.145C101.82 212.145 102.659 212.983 102.659 214.023Z" fill="white"/>
<path d="M93.5024 214.023C93.5024 215.062 92.6638 215.901 91.6243 215.901C90.5847 215.901 89.7461 215.062 89.7461 214.023C89.7461 212.983 90.5847 212.145 91.6243 212.145C92.6638 212.145 93.5024 212.983 93.5024 214.023Z" fill="#5231B8"/>
<path d="M84.3462 214.023C84.3462 215.062 83.5076 215.901 82.468 215.901C81.4285 215.901 80.5898 215.062 80.5898 214.023C80.5898 212.983 81.4285 212.145 82.468 212.145C83.5076 212.145 84.3462 212.983 84.3462 214.023Z" fill="white"/>
<path d="M121.272 189.509C121.272 190.723 120.294 191.702 119.079 191.702C117.865 191.702 116.887 190.723 116.887 189.509C116.887 188.295 117.865 187.316 119.079 187.316C120.294 187.316 121.272 188.295 121.272 189.509Z" fill="#5231B8"/>
<path d="M111.811 189.509C111.811 190.549 110.972 191.387 109.933 191.387C108.893 191.387 108.055 190.549 108.055 189.509C108.055 188.469 108.893 187.631 109.933 187.631C110.972 187.631 111.811 188.469 111.811 189.509Z" fill="white"/>
<path d="M102.659 189.509C102.659 190.549 101.82 191.387 100.781 191.387C99.741 191.387 98.9023 190.549 98.9023 189.509C98.9023 188.469 99.741 187.631 100.781 187.631C101.82 187.631 102.659 188.469 102.659 189.509Z" fill="white"/>
<path d="M93.5024 189.509C93.5024 190.549 92.6638 191.387 91.6243 191.387C90.5847 191.387 89.7461 190.549 89.7461 189.509C89.7461 188.469 90.5847 187.631 91.6243 187.631C92.6638 187.631 93.5024 188.469 93.5024 189.509Z" fill="#5231B8"/>
<path d="M84.3462 189.509C84.3462 190.549 83.5076 191.387 82.468 191.387C81.4285 191.387 80.5898 190.549 80.5898 189.509C80.5898 188.469 81.4285 187.631 82.468 187.631C83.5076 187.631 84.3462 188.469 84.3462 189.509Z" fill="#5231B8"/>
<path d="M226.424 215.725C226.424 206.308 220.239 198.341 211.713 195.65C210.481 185.875 202.147 178.318 192.04 178.318C187.969 178.318 184.196 179.541 181.042 181.647C177.897 179.55 174.115 178.318 170.044 178.318C159.937 178.318 151.603 185.875 150.371 195.65C141.845 198.341 135.66 206.308 135.66 215.725C135.66 227.343 145.077 236.769 156.704 236.769H205.851C217.26 236.516 226.433 227.195 226.433 215.725H226.424Z" fill="#FC5185"/>
<path d="M180.867 181.533C177.757 179.506 174.045 178.318 170.044 178.318C159.937 178.318 151.603 185.875 150.371 195.65C141.845 198.341 135.66 206.308 135.66 215.725C135.66 227.343 145.077 236.769 156.704 236.769H171.485L180.867 181.533Z" fill="#FD3471"/>
<path d="M215.193 260.032H147.203V265.09H215.193V260.032Z" fill="#D1C5F7"/>
<path d="M215.193 235.521H147.203V240.578H215.193V235.521Z" fill="#D1C5F7"/>
<path d="M143.855 263.842H218.23C220.161 263.842 221.733 265.405 221.733 267.345V283.087C221.733 285.017 220.17 286.59 218.23 286.59H143.855C141.924 286.59 140.352 285.026 140.352 283.087V267.345C140.352 265.414 141.915 263.842 143.855 263.842Z" fill="white"/>
<path d="M174.124 263.842L170.42 286.581H143.855C141.915 286.581 140.352 285.017 140.352 283.087V267.336C140.352 265.405 141.915 263.842 143.855 263.842H174.124Z" fill="#EDEDED"/>
<path d="M216.719 281.584V268.856H145.357V281.584H216.719Z" fill="#D1C5F7"/>
<path d="M211.088 275.215C211.088 276.429 210.11 277.408 208.896 277.408C207.682 277.408 206.703 276.429 206.703 275.215C206.703 274.001 207.682 273.022 208.896 273.022C210.11 273.022 211.088 274.001 211.088 275.215Z" fill="#5231B8"/>
<path d="M201.62 275.215C201.62 276.255 200.781 277.093 199.741 277.093C198.702 277.093 197.863 276.255 197.863 275.215C197.863 274.176 198.702 273.337 199.741 273.337C200.781 273.337 201.62 274.176 201.62 275.215Z" fill="#5231B8"/>
<path d="M192.467 275.215C192.467 276.255 191.629 277.093 190.589 277.093C189.55 277.093 188.711 276.255 188.711 275.215C188.711 274.176 189.55 273.337 190.589 273.337C191.629 273.337 192.467 274.176 192.467 275.215Z" fill="white"/>
<path d="M183.311 275.215C183.311 276.255 182.472 277.093 181.433 277.093C180.393 277.093 179.555 276.255 179.555 275.215C179.555 274.176 180.393 273.337 181.433 273.337C182.472 273.337 183.311 274.176 183.311 275.215Z" fill="#5231B8"/>
<path d="M174.155 275.215C174.155 276.255 173.316 277.093 172.277 277.093C171.237 277.093 170.398 276.255 170.398 275.215C170.398 274.176 171.237 273.337 172.277 273.337C173.316 273.337 174.155 274.176 174.155 275.215Z" fill="white"/>
<path d="M218.233 238.937H143.866C141.932 238.937 140.363 240.505 140.363 242.44V258.173C140.363 260.107 141.932 261.676 143.866 261.676H218.233C220.168 261.676 221.736 260.107 221.736 258.173V242.44C221.736 240.505 220.168 238.937 218.233 238.937Z" fill="white"/>
<path d="M178.177 238.937L174.473 261.676H143.855C141.915 261.676 140.352 260.112 140.352 258.181V242.431C140.352 240.5 141.915 238.937 143.855 238.937H178.177Z" fill="#EDEDED"/>
<path d="M216.727 256.669V243.941H145.365V256.669H216.727Z" fill="#D1C5F7"/>
<path d="M143.855 214.424H218.23C220.161 214.424 221.733 215.988 221.733 217.927V233.669C221.733 235.599 220.17 237.172 218.23 237.172H143.855C141.924 237.172 140.352 235.608 140.352 233.669V217.927C140.352 215.996 141.915 214.424 143.855 214.424Z" fill="white"/>
<path d="M182.181 214.415L178.477 237.163H143.866C141.927 237.163 140.363 235.599 140.363 233.66V217.918C140.363 215.987 141.927 214.415 143.866 214.415H182.19H182.181Z" fill="#EDEDED"/>
<path d="M216.727 232.158V219.43H145.365V232.158H216.727Z" fill="#D1C5F7"/>
<path d="M211.088 250.31C211.088 251.524 210.11 252.503 208.896 252.503C207.682 252.503 206.703 251.524 206.703 250.31C206.703 249.096 207.682 248.117 208.896 248.117C210.11 248.117 211.088 249.096 211.088 250.31Z" fill="#5231B8"/>
<path d="M201.62 250.31C201.62 251.349 200.781 252.188 199.741 252.188C198.702 252.188 197.863 251.349 197.863 250.31C197.863 249.27 198.702 248.432 199.741 248.432C200.781 248.432 201.62 249.27 201.62 250.31Z" fill="#5231B8"/>
<path d="M192.467 250.31C192.467 251.349 191.629 252.188 190.589 252.188C189.55 252.188 188.711 251.349 188.711 250.31C188.711 249.27 189.55 248.432 190.589 248.432C191.629 248.432 192.467 249.27 192.467 250.31Z" fill="white"/>
<path d="M183.311 250.31C183.311 251.349 182.472 252.188 181.433 252.188C180.393 252.188 179.555 251.349 179.555 250.31C179.555 249.27 180.393 248.432 181.433 248.432C182.472 248.432 183.311 249.27 183.311 250.31Z" fill="#5231B8"/>
<path d="M174.155 250.31C174.155 251.349 173.316 252.188 172.277 252.188C171.237 252.188 170.398 251.349 170.398 250.31C170.398 249.27 171.237 248.432 172.277 248.432C173.316 248.432 174.155 249.27 174.155 250.31Z" fill="white"/>
<path d="M211.088 225.789C211.088 227.004 210.11 227.982 208.896 227.982C207.682 227.982 206.703 227.004 206.703 225.789C206.703 224.575 207.682 223.597 208.896 223.597C210.11 223.597 211.088 224.575 211.088 225.789Z" fill="#5231B8"/>
<path d="M201.62 225.789C201.62 226.829 200.781 227.667 199.741 227.667C198.702 227.667 197.863 226.829 197.863 225.789C197.863 224.75 198.702 223.911 199.741 223.911C200.781 223.911 201.62 224.75 201.62 225.789Z" fill="white"/>
<path d="M192.467 225.789C192.467 226.829 191.629 227.667 190.589 227.667C189.55 227.667 188.711 226.829 188.711 225.789C188.711 224.75 189.55 223.911 190.589 223.911C191.629 223.911 192.467 224.75 192.467 225.789Z" fill="white"/>
<path d="M183.311 225.789C183.311 226.829 182.472 227.667 181.433 227.667C180.393 227.667 179.555 226.829 179.555 225.789C179.555 224.75 180.393 223.911 181.433 223.911C182.472 223.911 183.311 224.75 183.311 225.789Z" fill="#5231B8"/>
<path d="M174.155 225.789C174.155 226.829 173.316 227.667 172.277 227.667C171.237 227.667 170.398 226.829 170.398 225.789C170.398 224.75 171.237 223.911 172.277 223.911C173.316 223.911 174.155 224.75 174.155 225.789Z" fill="#5231B8"/>
<path d="M354.007 210.126C354.007 198.201 346.171 188.103 335.373 184.705C333.81 172.326 323.257 162.752 310.459 162.752C305.305 162.752 300.518 164.307 296.535 166.963C292.551 164.298 287.764 162.752 282.61 162.752C269.812 162.752 259.251 172.326 257.696 184.705C246.898 188.112 239.062 198.201 239.062 210.126C239.062 224.845 250.995 236.778 265.715 236.778H327.957V236.761C342.397 236.455 354.015 224.653 354.015 210.126H354.007Z" fill="#FC5185"/>
<path d="M296.305 166.823C292.365 164.254 287.656 162.752 282.598 162.752C269.8 162.752 259.239 172.326 257.684 184.705C246.887 188.112 239.051 198.201 239.051 210.126C239.051 224.845 250.984 236.778 265.703 236.778H284.424L296.305 166.823Z" fill="#FD3471"/>
<path d="M305.002 223.754H237.012V228.812H305.002V223.754Z" fill="#D1C5F7"/>
<path d="M305.002 199.232H237.012V204.29H305.002V199.232Z" fill="#D1C5F7"/>
<path d="M233.667 227.562H308.043C309.973 227.562 311.546 229.126 311.546 231.066V246.807C311.546 248.738 309.982 250.31 308.043 250.31H233.667C231.736 250.31 230.164 248.747 230.164 246.807V231.066C230.164 229.135 231.728 227.562 233.667 227.562Z" fill="white"/>
<path d="M263.936 227.562L260.232 250.301H233.667C231.728 250.301 230.164 248.738 230.164 246.807V231.057C230.164 229.126 231.728 227.562 233.667 227.562H263.936Z" fill="#EDEDED"/>
<path d="M306.539 245.295V232.567H235.177V245.295H306.539Z" fill="#D1C5F7"/>
<path d="M300.905 238.936C300.905 240.15 299.926 241.128 298.712 241.128C297.498 241.128 296.52 240.15 296.52 238.936C296.52 237.722 297.498 236.743 298.712 236.743C299.926 236.743 300.905 237.722 300.905 238.936Z" fill="#5231B8"/>
<path d="M289.558 240.814C290.595 240.814 291.436 239.973 291.436 238.936C291.436 237.899 290.595 237.058 289.558 237.058C288.521 237.058 287.68 237.899 287.68 238.936C287.68 239.973 288.521 240.814 289.558 240.814Z" fill="#5231B8"/>
<path d="M282.284 238.936C282.284 239.975 281.445 240.814 280.406 240.814C279.366 240.814 278.527 239.975 278.527 238.936C278.527 237.896 279.366 237.058 280.406 237.058C281.445 237.058 282.284 237.896 282.284 238.936Z" fill="white"/>
<path d="M273.127 238.936C273.127 239.975 272.289 240.814 271.249 240.814C270.21 240.814 269.371 239.975 269.371 238.936C269.371 237.896 270.21 237.058 271.249 237.058C272.289 237.058 273.127 237.896 273.127 238.936Z" fill="#5231B8"/>
<path d="M263.971 238.936C263.971 239.975 263.133 240.814 262.093 240.814C261.053 240.814 260.215 239.975 260.215 238.936C260.215 237.896 261.053 237.058 262.093 237.058C263.133 237.058 263.971 237.896 263.971 238.936Z" fill="white"/>
<path d="M233.667 202.657H308.043C309.973 202.657 311.546 204.221 311.546 206.16V221.902C311.546 223.833 309.982 225.405 308.043 225.405H233.667C231.736 225.405 230.164 223.841 230.164 221.902V206.16C230.164 204.23 231.728 202.657 233.667 202.657Z" fill="white"/>
<path d="M268.001 202.657L264.297 225.396H233.679C231.739 225.396 230.176 223.833 230.176 221.902V206.152C230.176 204.221 231.739 202.657 233.679 202.657H268.001Z" fill="#EDEDED"/>
<path d="M306.539 220.39V207.662H235.177V220.39H306.539Z" fill="#D1C5F7"/>
<path d="M233.679 178.136H308.054C309.985 178.136 311.557 179.699 311.557 181.639V197.38C311.557 199.311 309.994 200.883 308.054 200.883H233.679C231.748 200.883 230.176 199.32 230.176 197.38V181.639C230.176 179.708 231.739 178.136 233.679 178.136Z" fill="white"/>
<path d="M271.994 178.136L268.29 200.883H233.679C231.739 200.883 230.176 199.32 230.176 197.38V181.639C230.176 179.708 231.739 178.136 233.679 178.136H272.002H271.994Z" fill="#EDEDED"/>
<path d="M306.539 195.87V183.142H235.177V195.87H306.539Z" fill="#D1C5F7"/>
<path d="M300.905 214.023C300.905 215.237 299.926 216.215 298.712 216.215C297.498 216.215 296.52 215.237 296.52 214.023C296.52 212.808 297.498 211.83 298.712 211.83C299.926 211.83 300.905 212.808 300.905 214.023Z" fill="#5231B8"/>
<path d="M291.436 214.023C291.436 215.062 290.597 215.901 289.558 215.901C288.518 215.901 287.68 215.062 287.68 214.023C287.68 212.983 288.518 212.145 289.558 212.145C290.597 212.145 291.436 212.983 291.436 214.023Z" fill="#5231B8"/>
<path d="M282.284 214.023C282.284 215.062 281.445 215.901 280.406 215.901C279.366 215.901 278.527 215.062 278.527 214.023C278.527 212.983 279.366 212.145 280.406 212.145C281.445 212.145 282.284 212.983 282.284 214.023Z" fill="white"/>
<path d="M273.127 214.023C273.127 215.062 272.289 215.901 271.249 215.901C270.21 215.901 269.371 215.062 269.371 214.023C269.371 212.983 270.21 212.145 271.249 212.145C272.289 212.145 273.127 212.983 273.127 214.023Z" fill="#5231B8"/>
<path d="M263.971 214.023C263.971 215.062 263.133 215.901 262.093 215.901C261.053 215.901 260.215 215.062 260.215 214.023C260.215 212.983 261.053 212.145 262.093 212.145C263.133 212.145 263.971 212.983 263.971 214.023Z" fill="white"/>
<path d="M300.905 189.509C300.905 190.723 299.926 191.702 298.712 191.702C297.498 191.702 296.52 190.723 296.52 189.509C296.52 188.295 297.498 187.316 298.712 187.316C299.926 187.316 300.905 188.295 300.905 189.509Z" fill="#5231B8"/>
<path d="M291.436 189.509C291.436 190.549 290.597 191.387 289.558 191.387C288.518 191.387 287.68 190.549 287.68 189.509C287.68 188.469 288.518 187.631 289.558 187.631C290.597 187.631 291.436 188.469 291.436 189.509Z" fill="white"/>
<path d="M282.284 189.509C282.284 190.549 281.445 191.387 280.406 191.387C279.366 191.387 278.527 190.549 278.527 189.509C278.527 188.469 279.366 187.631 280.406 187.631C281.445 187.631 282.284 188.469 282.284 189.509Z" fill="white"/>
<path d="M273.127 189.509C273.127 190.549 272.289 191.387 271.249 191.387C270.21 191.387 269.371 190.549 269.371 189.509C269.371 188.469 270.21 187.631 271.249 187.631C272.289 187.631 273.127 188.469 273.127 189.509Z" fill="#5231B8"/>
<path d="M263.971 189.509C263.971 190.549 263.133 191.387 262.093 191.387C261.053 191.387 260.215 190.549 260.215 189.509C260.215 188.469 261.053 187.631 262.093 187.631C263.133 187.631 263.971 188.469 263.971 189.509Z" fill="#5231B8"/>
<path d="M121.684 29H240.411C244.657 29 248.107 32.4506 248.107 36.6961V107.822C248.107 112.88 244.002 116.995 238.935 116.995H123.161C118.103 116.995 113.988 112.889 113.988 107.822V36.6961C113.988 32.4506 117.43 29 121.684 29Z" fill="#5231B8"/>
<path opacity="0.2" d="M179.873 29H121.684C117.439 29 113.988 32.4419 113.988 36.6961V107.822C113.988 112.889 118.094 116.995 123.161 116.995H162.166L179.873 29Z" fill="white"/>
<path d="M113.988 43.4834H248.107V123.782C248.107 128.027 244.657 131.478 240.411 131.478H121.684C117.439 131.478 113.988 128.027 113.988 123.782V43.4834Z" fill="#D6E0EA"/>
<path d="M244.48 43.4834V123.782C244.48 126.027 242.655 127.853 240.41 127.853L121.674 127.853C119.429 127.853 117.603 126.027 117.603 123.782V43.4834L244.48 43.4834Z" fill="#F3F9FF"/>
<path d="M216.355 36.3726C216.355 38.0062 215.035 39.3252 213.402 39.3252C211.768 39.3252 210.449 38.0062 210.449 36.3726C210.449 34.739 211.768 33.4199 213.402 33.4199C215.035 33.4199 216.355 34.739 216.355 36.3726Z" fill="white"/>
<path d="M228.429 36.3726C228.429 38.0062 227.11 39.3252 225.476 39.3252C223.843 39.3252 222.523 38.0062 222.523 36.3726C222.523 34.739 223.843 33.4199 225.476 33.4199C227.11 33.4199 228.429 34.739 228.429 36.3726Z" fill="white"/>
<path d="M240.499 36.3726C240.499 38.0062 239.18 39.3252 237.546 39.3252C235.913 39.3252 234.594 38.0062 234.594 36.3726C234.594 34.739 235.913 33.4199 237.546 33.4199C239.18 33.4199 240.499 34.739 240.499 36.3726Z" fill="white"/>
<path d="M209.69 118.803C209.69 120.105 208.633 121.162 207.331 121.162C206.03 121.162 204.973 120.105 204.973 118.803C204.973 117.501 206.03 116.444 207.331 116.444C208.633 116.444 209.69 117.501 209.69 118.803Z" fill="#5231B8"/>
<path d="M219.893 118.803C219.893 120.105 218.836 121.162 217.534 121.162C216.233 121.162 215.176 120.105 215.176 118.803C215.176 117.501 216.233 116.444 217.534 116.444C218.836 116.444 219.893 117.501 219.893 118.803Z" fill="#5231B8"/>
<path d="M231.059 118.803C231.059 120.646 229.565 122.131 227.731 122.131C225.896 122.131 224.402 120.637 224.402 118.803C224.402 116.968 225.896 115.475 227.731 115.475C229.565 115.475 231.059 116.968 231.059 118.803Z" fill="#5231B8"/>
<path d="M240.28 118.803C240.28 120.105 239.223 121.162 237.921 121.162C236.62 121.162 235.562 120.105 235.562 118.803C235.562 117.501 236.62 116.444 237.921 116.444C239.223 116.444 240.28 117.501 240.28 118.803Z" fill="#5231B8"/>
<path d="M126.526 118.803C126.526 120.105 125.469 121.162 124.167 121.162C122.866 121.162 121.809 120.105 121.809 118.803C121.809 117.501 122.866 116.444 124.167 116.444C125.469 116.444 126.526 117.501 126.526 118.803Z" fill="#5231B8"/>
<path d="M136.729 118.803C136.729 120.105 135.672 121.162 134.37 121.162C133.069 121.162 132.012 120.105 132.012 118.803C132.012 117.501 133.069 116.444 134.37 116.444C135.672 116.444 136.729 117.501 136.729 118.803Z" fill="#5231B8"/>
<path d="M146.924 118.803C146.924 120.105 145.867 121.162 144.566 121.162C143.264 121.162 142.207 120.105 142.207 118.803C142.207 117.501 143.264 116.444 144.566 116.444C145.867 116.444 146.924 117.501 146.924 118.803Z" fill="#5231B8"/>
<path d="M157.127 118.803C157.127 120.105 156.07 121.162 154.769 121.162C153.467 121.162 152.41 120.105 152.41 118.803C152.41 117.501 153.467 116.444 154.769 116.444C156.07 116.444 157.127 117.501 157.127 118.803Z" fill="#5231B8"/>
<path d="M105.488 51.8619V45.3887L101.041 44.751C100.701 43.2834 100.115 41.9207 99.3552 40.6715L102.037 37.1073L97.4683 32.5123L93.8779 35.2029C92.6287 34.4429 91.266 33.8576 89.7984 33.5169L89.1607 29.0967H82.6875L82.0498 33.5169C80.5822 33.8576 79.2194 34.4429 77.9702 35.2029L74.4061 32.5123L69.8111 37.1073L72.493 40.6715C71.7068 41.9207 71.1564 43.2834 70.807 44.751L66.3867 45.3887V51.8619L70.807 52.4996C71.1477 53.9672 71.7068 55.33 72.493 56.6054L69.8111 60.1695L74.4061 64.7383L77.9702 62.0477C79.2194 62.8252 80.5822 63.4192 82.0498 63.7599L82.6875 68.1802H89.1607L89.7984 63.7599C91.266 63.4192 92.6287 62.8339 93.8779 62.0477L97.4683 64.7383L102.037 60.1695L99.3552 56.5792C100.115 55.3125 100.701 53.941 101.041 52.4996L105.488 51.8619ZM85.9459 56.7364C81.4558 56.7364 77.8479 53.1111 77.8479 48.6384C77.8479 44.1657 81.4558 40.523 85.9459 40.523C90.4361 40.523 94.0439 44.1657 94.0439 48.6384C94.0439 53.1111 90.4186 56.7364 85.9459 56.7364Z" fill="#D1C5F7"/>
<path d="M306.967 141.289V135.68L303.115 135.13C302.818 133.863 302.311 132.675 301.656 131.601L303.979 128.517L300.022 124.542L296.912 126.866C295.838 126.211 294.65 125.704 293.383 125.407L292.833 121.581H287.224L286.674 125.407C285.407 125.704 284.219 126.211 283.145 126.866L280.061 124.542L276.086 128.517L278.41 131.601C277.729 132.675 277.248 133.863 276.951 135.13L273.125 135.68V141.289L276.951 141.839C277.248 143.106 277.729 144.294 278.41 145.395L276.086 148.478L280.061 152.436L283.145 150.112C284.219 150.784 285.407 151.3 286.674 151.588L287.224 155.414H292.833L293.383 151.588C294.65 151.291 295.838 150.784 296.912 150.112L300.022 152.436L303.979 148.478L301.656 145.368C302.311 144.268 302.818 143.08 303.115 141.839L306.967 141.289ZM290.046 145.508C286.159 145.508 283.031 142.372 283.031 138.493C283.031 134.615 286.15 131.461 290.046 131.461C293.942 131.461 297.061 134.615 297.061 138.493C297.061 142.372 293.925 145.508 290.046 145.508Z" fill="white"/>
<path d="M258.247 269.721V266.008L255.696 265.641C255.504 264.803 255.163 264.017 254.735 263.3L256.273 261.256L253.661 258.627L251.599 260.164C250.883 259.727 250.105 259.395 249.258 259.195L248.891 256.661H245.178L244.811 259.195C243.973 259.387 243.187 259.727 242.47 260.164L240.426 258.627L237.797 261.256L239.334 263.3C238.889 264.017 238.565 264.794 238.373 265.641L235.84 266.008V269.721L238.373 270.088C238.574 270.927 238.889 271.713 239.334 272.438L237.797 274.482L240.426 277.103L242.47 275.565C243.187 276.011 243.964 276.351 244.811 276.544L245.178 279.077H248.891L249.258 276.544C250.096 276.351 250.883 276.011 251.599 275.565L253.661 277.103L256.273 274.482L254.735 272.42C255.172 271.695 255.504 270.909 255.696 270.079L258.247 269.712V269.721ZM247.048 272.516C244.471 272.516 242.409 270.437 242.409 267.878C242.409 265.318 244.479 263.23 247.048 263.23C249.616 263.23 251.686 265.318 251.686 267.878C251.686 270.437 249.607 272.516 247.048 272.516Z" fill="white"/>
<path d="M148.793 295.788C148.793 293.228 150.164 291.77 152.008 291.77C153.851 291.77 155.214 293.228 155.214 295.788C155.214 298.348 153.842 299.806 152.008 299.806C150.173 299.806 148.793 298.348 148.793 295.788ZM154.087 295.788C154.087 293.779 153.231 292.765 152.008 292.765C150.785 292.765 149.92 293.779 149.92 295.788C149.92 297.797 150.776 298.81 152.008 298.81C153.239 298.81 154.087 297.797 154.087 295.788Z" fill="#DDE9F2"/>
<path d="M156.297 295.788C156.297 293.228 157.668 291.77 159.512 291.77C161.355 291.77 162.718 293.228 162.718 295.788C162.718 298.348 161.346 299.806 159.512 299.806C157.677 299.806 156.297 298.348 156.297 295.788ZM161.591 295.788C161.591 293.779 160.735 292.765 159.512 292.765C158.289 292.765 157.424 293.779 157.424 295.788C157.424 297.797 158.28 298.81 159.512 298.81C160.743 298.81 161.591 297.797 161.591 295.788Z" fill="#DDE9F2"/>
<path d="M166.195 291.848V299.71H165.086V292.826H163.312V291.848H166.204H166.195Z" fill="#DDE9F2"/>
<path d="M167.914 295.788C167.914 293.228 169.286 291.77 171.129 291.77C172.972 291.77 174.335 293.228 174.335 295.788C174.335 298.348 172.963 299.806 171.129 299.806C169.294 299.806 167.914 298.348 167.914 295.788ZM173.208 295.788C173.208 293.779 172.352 292.765 171.129 292.765C169.906 292.765 169.041 293.779 169.041 295.788C169.041 297.797 169.897 298.81 171.129 298.81C172.361 298.81 173.208 297.797 173.208 295.788Z" fill="#DDE9F2"/>
<path d="M177.82 291.848V299.71H176.711V292.826H174.938V291.848H177.829H177.82Z" fill="#DDE9F2"/>
<path d="M179.543 295.788C179.543 293.228 180.914 291.77 182.758 291.77C184.601 291.77 185.964 293.228 185.964 295.788C185.964 298.348 184.592 299.806 182.758 299.806C180.923 299.806 179.543 298.348 179.543 295.788ZM184.837 295.788C184.837 293.779 183.981 292.765 182.758 292.765C181.535 292.765 180.67 293.779 180.67 295.788C180.67 297.797 181.526 298.81 182.758 298.81C183.989 298.81 184.837 297.797 184.837 295.788Z" fill="#DDE9F2"/>
<path d="M189.441 291.848V299.71H188.332V292.826H186.559V291.848H189.45H189.441Z" fill="#DDE9F2"/>
<path d="M29.1016 154.88C29.1016 151.657 30.8225 149.822 33.1375 149.822C35.4524 149.822 37.1646 151.657 37.1646 154.88C37.1646 158.104 35.4437 159.929 33.1375 159.929C30.8312 159.929 29.1016 158.095 29.1016 154.88ZM35.7494 154.88C35.7494 152.356 34.6749 151.08 33.1375 151.08C31.6 151.08 30.508 152.347 30.508 154.88C30.508 157.414 31.5825 158.68 33.1375 158.68C34.6924 158.68 35.7494 157.414 35.7494 154.88Z" fill="#DDE9F2"/>
<path d="M38.5195 154.88C38.5195 151.657 40.2405 149.822 42.5554 149.822C44.8704 149.822 46.5826 151.657 46.5826 154.88C46.5826 158.104 44.8616 159.929 42.5554 159.929C40.2492 159.929 38.5195 158.095 38.5195 154.88ZM45.1674 154.88C45.1674 152.356 44.0929 151.08 42.5554 151.08C41.0179 151.08 39.926 152.347 39.926 154.88C39.926 157.414 41.0005 158.68 42.5554 158.68C44.1104 158.68 45.1674 157.414 45.1674 154.88Z" fill="#DDE9F2"/>
<path d="M50.9573 149.936V159.816H49.5596V151.158H47.332V149.927H50.9573V149.936Z" fill="#DDE9F2"/>
<path d="M53.125 154.88C53.125 151.657 54.8459 149.822 57.1609 149.822C59.4758 149.822 61.188 151.657 61.188 154.88C61.188 158.104 59.4671 159.929 57.1609 159.929C54.8547 159.929 53.125 158.095 53.125 154.88ZM59.7729 154.88C59.7729 152.356 58.6984 151.08 57.1609 151.08C55.6234 151.08 54.5314 152.347 54.5314 154.88C54.5314 157.414 55.6059 158.68 57.1609 158.68C58.7158 158.68 59.7729 157.414 59.7729 154.88Z" fill="#DDE9F2"/>
<path d="M65.5628 149.936V159.816H64.1651V151.158H61.9375V149.927H65.5628V149.936Z" fill="#DDE9F2"/>
<path d="M70.7972 149.936V159.816H69.3995V151.158H67.1719V149.927H70.7972V149.936Z" fill="#DDE9F2"/>
<path d="M72.9531 154.88C72.9531 151.657 74.6741 149.822 76.989 149.822C79.304 149.822 81.0162 151.657 81.0162 154.88C81.0162 158.104 79.2952 159.929 76.989 159.929C74.6828 159.929 72.9531 158.095 72.9531 154.88ZM79.601 154.88C79.601 152.356 78.5265 151.08 76.989 151.08C75.4515 151.08 74.3596 152.347 74.3596 154.88C74.3596 157.414 75.4341 158.68 76.989 158.68C78.544 158.68 79.601 157.414 79.601 154.88Z" fill="#DDE9F2"/>
<path d="M82.3789 154.88C82.3789 151.657 84.0998 149.822 86.4148 149.822C88.7297 149.822 90.4419 151.657 90.4419 154.88C90.4419 158.104 88.721 159.929 86.4148 159.929C84.1086 159.929 82.3789 158.095 82.3789 154.88ZM89.0268 154.88C89.0268 152.356 87.9523 151.08 86.4148 151.08C84.8773 151.08 83.7854 152.347 83.7854 154.88C83.7854 157.414 84.8598 158.68 86.4148 158.68C87.9697 158.68 89.0268 157.414 89.0268 154.88Z" fill="#DDE9F2"/>
<path d="M91.7969 154.88C91.7969 151.657 93.5178 149.822 95.8328 149.822C98.1477 149.822 99.8599 151.657 99.8599 154.88C99.8599 158.104 98.139 159.929 95.8328 159.929C93.5265 159.929 91.7969 158.095 91.7969 154.88ZM98.4447 154.88C98.4447 152.356 97.3702 151.08 95.8328 151.08C94.2953 151.08 93.2033 152.347 93.2033 154.88C93.2033 157.414 94.2778 158.68 95.8328 158.68C97.3877 158.68 98.4447 157.414 98.4447 154.88Z" fill="#DDE9F2"/>
<path d="M104.239 149.936V159.816H102.841V151.158H100.613V149.927H104.239V149.936Z" fill="#DDE9F2"/>
<path d="M106.402 154.88C106.402 151.657 108.123 149.822 110.438 149.822C112.753 149.822 114.465 151.657 114.465 154.88C114.465 158.104 112.744 159.929 110.438 159.929C108.132 159.929 106.402 158.095 106.402 154.88ZM113.05 154.88C113.05 152.356 111.976 151.08 110.438 151.08C108.901 151.08 107.809 152.347 107.809 154.88C107.809 157.414 108.883 158.68 110.438 158.68C111.993 158.68 113.05 157.414 113.05 154.88Z" fill="#DDE9F2"/>
<path d="M118.84 149.936V159.816H117.442V151.158H115.215V149.927H118.84V149.936Z" fill="#DDE9F2"/>
<path d="M184.879 166.499C184.879 163.276 186.6 161.441 188.915 161.441C191.23 161.441 192.942 163.276 192.942 166.499C192.942 169.723 191.221 171.549 188.915 171.549C186.609 171.549 184.879 169.714 184.879 166.499ZM191.527 166.499C191.527 163.975 190.452 162.699 188.915 162.699C187.377 162.699 186.285 163.966 186.285 166.499C186.285 169.033 187.36 170.299 188.915 170.299C190.47 170.299 191.527 169.033 191.527 166.499Z" fill="#DDE9F2"/>
<path d="M197.317 161.555V171.435H195.919V162.778H193.691V161.546H197.317V161.555Z" fill="#DDE9F2"/>
<path d="M202.543 161.555V171.435H201.146V162.778H198.918V161.546H202.543V161.555Z" fill="#DDE9F2"/>
<path d="M204.707 166.499C204.707 163.276 206.428 161.441 208.743 161.441C211.058 161.441 212.77 163.276 212.77 166.499C212.77 169.723 211.049 171.549 208.743 171.549C206.437 171.549 204.707 169.714 204.707 166.499ZM211.355 166.499C211.355 163.975 210.28 162.699 208.743 162.699C207.205 162.699 206.113 163.966 206.113 166.499C206.113 169.033 207.188 170.299 208.743 170.299C210.298 170.299 211.355 169.033 211.355 166.499Z" fill="#DDE9F2"/>
<path d="M214.125 166.499C214.125 163.276 215.846 161.441 218.161 161.441C220.476 161.441 222.188 163.276 222.188 166.499C222.188 169.723 220.467 171.549 218.161 171.549C215.855 171.549 214.125 169.714 214.125 166.499ZM220.773 166.499C220.773 163.975 219.698 162.699 218.161 162.699C216.623 162.699 215.531 163.966 215.531 166.499C215.531 169.033 216.606 170.299 218.161 170.299C219.716 170.299 220.773 169.033 220.773 166.499Z" fill="#DDE9F2"/>
<path d="M223.551 166.499C223.551 163.276 225.272 161.441 227.587 161.441C229.902 161.441 231.614 163.276 231.614 166.499C231.614 169.723 229.893 171.549 227.587 171.549C225.28 171.549 223.551 169.714 223.551 166.499ZM230.199 166.499C230.199 163.975 229.124 162.699 227.587 162.699C226.049 162.699 224.957 163.966 224.957 166.499C224.957 169.033 226.032 170.299 227.587 170.299C229.142 170.299 230.199 169.033 230.199 166.499Z" fill="#DDE9F2"/>
<path d="M257.823 47.9133C257.823 49.2149 256.766 50.272 255.464 50.272C254.162 50.272 253.105 49.2149 253.105 47.9133C253.105 46.6117 254.162 45.5547 255.464 45.5547C256.766 45.5547 257.823 46.6117 257.823 47.9133Z" fill="#DDE9F2"/>
<path d="M268.026 47.9133C268.026 49.2149 266.969 50.272 265.667 50.272C264.366 50.272 263.309 49.2149 263.309 47.9133C263.309 46.6117 264.366 45.5547 265.667 45.5547C266.969 45.5547 268.026 46.6117 268.026 47.9133Z" fill="#DDE9F2"/>
<path d="M279.188 47.9133C279.188 49.7565 277.694 51.2416 275.86 51.2416C274.025 51.2416 272.531 49.7478 272.531 47.9133C272.531 46.0788 274.025 44.585 275.86 44.585C277.694 44.585 279.188 46.0788 279.188 47.9133Z" fill="#DDE9F2"/>
<path d="M288.424 47.9133C288.424 49.2149 287.367 50.272 286.066 50.272C284.764 50.272 283.707 49.2149 283.707 47.9133C283.707 46.6117 284.764 45.5547 286.066 45.5547C287.367 45.5547 288.424 46.6117 288.424 47.9133Z" fill="#DDE9F2"/>
<path d="M117.176 260.032C117.176 258.731 118.233 257.674 119.534 257.674C120.836 257.674 121.893 258.731 121.893 260.032C121.893 261.334 120.836 262.391 119.534 262.391C118.233 262.391 117.176 261.334 117.176 260.032Z" fill="#DDE9F2"/>
<path d="M106.98 260.032C106.98 258.731 108.037 257.674 109.339 257.674C110.641 257.674 111.698 258.731 111.698 260.032C111.698 261.334 110.641 262.391 109.339 262.391C108.037 262.391 106.98 261.334 106.98 260.032Z" fill="#DDE9F2"/>
<path d="M95.8047 260.032C95.8047 258.189 97.2985 256.704 99.133 256.704C100.967 256.704 102.461 258.198 102.461 260.032C102.461 261.867 100.967 263.361 99.133 263.361C97.2985 263.361 95.8047 261.867 95.8047 260.032Z" fill="#DDE9F2"/>
<path d="M86.582 260.032C86.582 258.731 87.639 257.674 88.9407 257.674C90.2423 257.674 91.2993 258.731 91.2993 260.032C91.2993 261.334 90.2423 262.391 88.9407 262.391C87.639 262.391 86.582 261.334 86.582 260.032Z" fill="#DDE9F2"/>
<path d="M239.185 173.558H235.176V175.925H239.185V173.558Z" fill="white"/>
<path d="M239.185 169.111H235.176V171.479H239.185V169.111Z" fill="white"/>
<path d="M239.185 164.665H235.176V167.032H239.185V164.665Z" fill="white"/>
<path d="M239.185 160.219H235.176V162.586H239.185V160.219Z" fill="white"/>
<path d="M239.185 155.772H235.176V158.14H239.185V155.772Z" fill="white"/>
<path d="M239.185 151.326H235.176V153.694H239.185V151.326Z" fill="white"/>
<path d="M239.185 146.879H235.176V149.246H239.185V146.879Z" fill="white"/>
<path d="M239.185 142.433H235.176V144.8H239.185V142.433Z" fill="white"/>
<path d="M239.185 137.986H235.176V140.354H239.185V137.986Z" fill="white"/>
<path d="M239.185 133.54H235.176V135.907H239.185V133.54Z" fill="white"/>
<path d="M183.049 173.558H179.039V175.925H183.049V173.558Z" fill="white"/>
<path d="M183.049 169.111H179.039V171.479H183.049V169.111Z" fill="white"/>
<path d="M183.049 164.665H179.039V167.032H183.049V164.665Z" fill="white"/>
<path d="M183.049 160.219H179.039V162.586H183.049V160.219Z" fill="white"/>
<path d="M183.049 155.772H179.039V158.14H183.049V155.772Z" fill="white"/>
<path d="M183.049 151.326H179.039V153.694H183.049V151.326Z" fill="white"/>
<path d="M183.049 146.879H179.039V149.246H183.049V146.879Z" fill="white"/>
<path d="M183.049 142.433H179.039V144.8H183.049V142.433Z" fill="white"/>
<path d="M183.049 137.986H179.039V140.354H183.049V137.986Z" fill="white"/>
<path d="M183.049 133.54H179.039V135.907H183.049V133.54Z" fill="white"/>
<path d="M126.904 173.558H122.895V175.925H126.904V173.558Z" fill="white"/>
<path d="M126.904 169.111H122.895V171.479H126.904V169.111Z" fill="white"/>
<path d="M126.904 164.665H122.895V167.032H126.904V164.665Z" fill="white"/>
<path d="M126.904 160.219H122.895V162.586H126.904V160.219Z" fill="white"/>
<path d="M126.904 155.772H122.895V158.14H126.904V155.772Z" fill="white"/>
<path d="M126.904 151.326H122.895V153.694H126.904V151.326Z" fill="white"/>
<path d="M126.904 146.879H122.895V149.246H126.904V146.879Z" fill="white"/>
<path d="M126.904 142.433H122.895V144.8H126.904V142.433Z" fill="white"/>
<path d="M126.904 137.986H122.895V140.354H126.904V137.986Z" fill="white"/>
<path d="M126.904 133.54H122.895V135.907H126.904V133.54Z" fill="white"/>
<g clip-path="url(#clip1_515_1639)">
<path d="M196.451 59H170.549C164.723 59 160 63.7231 160 69.5494V95.4506C160 101.277 164.723 106 170.549 106H196.451C202.277 106 207 101.277 207 95.4506V69.5494C207 63.7231 202.277 59 196.451 59Z" fill="#5231B8"/>
<path d="M181.537 82.0688V73.5056L172.762 74.7429V82.0688H181.537ZM172.762 82.9805V90.3065L181.537 91.5275V82.9805H172.762ZM182.578 83.0456V91.674L194.235 93.2857V83.0456H182.578ZM194.235 81.9712V71.7148L182.578 73.3591V81.9712H194.235Z" fill="white"/>
</g>
</g>
<defs>
<clipPath id="clip0_515_1639">
<rect width="351" height="270.806" fill="white" transform="translate(3 29)"/>
</clipPath>
<clipPath id="clip1_515_1639">
<rect width="47" height="47" fill="white" transform="translate(160 59)"/>
</clipPath>
</defs>
</svg>
