<svg width="60" height="60" viewBox="0 0 60 60" fill="none" xmlns="http://www.w3.org/2000/svg">
<g clip-path="url(#clip0_1286_35633)">
<path d="M60 30C60 13.4315 46.5685 0 30 0C13.4315 0 0 13.4315 0 30C0 46.5685 13.4315 60 30 60C46.5685 60 60 46.5685 60 30Z" fill="#F4F5FF"/>
<mask id="mask0_1286_35633" style="mask-type:luminance" maskUnits="userSpaceOnUse" x="16" y="16" width="28" height="28">
<path d="M44 16H16V44H44V16Z" fill="white"/>
</mask>
<g mask="url(#mask0_1286_35633)">
<path d="M37.1569 24.296C35.8979 15.996 24.1029 15.996 22.8439 24.296C22.0298 24.2635 21.2173 24.3941 20.4543 24.68C19.6913 24.9659 18.9932 25.4015 18.4009 25.9611C17.8086 26.5207 17.3342 27.193 17.0055 27.9386C16.6767 28.6842 16.5004 29.4879 16.4867 30.3026C16.473 31.1173 16.6224 31.9266 16.9259 32.6827C17.2294 33.4389 17.6811 34.1268 18.2542 34.7059C18.8274 35.2851 19.5105 35.7438 20.2635 36.0552C21.0165 36.3665 21.8241 36.5243 22.6389 36.519H24.1389C24.3776 36.519 24.6066 36.4242 24.7753 36.2554C24.9441 36.0867 25.0389 35.8577 25.0389 35.619C25.0389 35.3804 24.9441 35.1514 24.7753 34.9826C24.6066 34.8139 24.3776 34.719 24.1389 34.719H22.6389C22.0307 34.7257 21.428 34.6037 20.8702 34.3612C20.3124 34.1186 19.8122 33.7609 19.4023 33.3115C18.9924 32.8622 18.6821 32.3312 18.4917 31.7536C18.3013 31.1759 18.2351 30.5645 18.2975 29.9594C18.3599 29.3544 18.5495 28.7694 18.8538 28.2427C19.158 27.7161 19.5702 27.2596 20.0632 26.9034C20.5561 26.5471 21.1188 26.299 21.7144 26.1754C22.3099 26.0518 22.9249 26.0554 23.5189 26.186C23.6581 26.212 23.8013 26.2051 23.9374 26.166C24.0734 26.1269 24.1984 26.0565 24.3025 25.9606C24.4065 25.8647 24.4868 25.7458 24.5369 25.6134C24.587 25.4811 24.6055 25.3388 24.5909 25.198C24.8909 18.098 35.1069 18.098 35.4109 25.19C35.3948 25.3317 35.4121 25.4751 35.4614 25.6089C35.5108 25.7426 35.5908 25.8629 35.695 25.9601C35.7992 26.0574 35.9248 26.1288 36.0616 26.1687C36.1985 26.2087 36.3428 26.216 36.4829 26.19C37.077 26.0594 37.6919 26.0558 38.2875 26.1794C38.883 26.303 39.4458 26.5511 39.9387 26.9074C40.4317 27.2636 40.8439 27.7201 41.1481 28.2467C41.4524 28.7734 41.6419 29.3584 41.7043 29.9634C41.7667 30.5685 41.7006 31.1799 41.5102 31.7576C41.3198 32.3352 41.0095 32.8662 40.5996 33.3155C40.1897 33.7649 39.6895 34.1226 39.1317 34.3652C38.5739 34.6077 37.9712 34.7297 37.3629 34.723H35.8629C35.6242 34.723 35.3953 34.8179 35.2265 34.9866C35.0578 35.1554 34.9629 35.3844 34.9629 35.623C34.9629 35.8617 35.0578 36.0907 35.2265 36.2594C35.3953 36.4282 35.6242 36.523 35.8629 36.523H37.3629C38.1777 36.5283 38.9854 36.3705 39.7384 36.0592C40.4913 35.7478 41.1745 35.2891 41.7477 34.7099C42.3208 34.1308 42.7725 33.4429 43.076 32.6867C43.3795 31.9306 43.5289 31.1213 43.5152 30.3066C43.5015 29.4919 43.3251 28.6882 42.9964 27.9426C42.6677 27.197 42.1933 26.5247 41.601 25.9651C41.0087 25.4055 40.3106 24.9699 39.5476 24.684C38.7846 24.3981 37.9721 24.2675 37.1579 24.3L37.1569 24.296Z" fill="#6741EE"/>
<path d="M27.4829 29.1201C27.3126 28.953 27.0835 28.8594 26.8449 28.8594C26.6063 28.8594 26.3773 28.953 26.2069 29.1201L23.9529 31.3731C23.8296 31.5002 23.7462 31.6607 23.7129 31.8347C23.6797 32.0087 23.698 32.1886 23.7657 32.3523C23.8334 32.516 23.9475 32.6563 24.094 32.7559C24.2404 32.8556 24.4128 32.9102 24.5899 32.9131C25.0899 32.9701 25.6139 32.2211 25.9419 31.9341V41.0281C25.9419 41.2668 26.0368 41.4957 26.2055 41.6645C26.3743 41.8333 26.6032 41.9281 26.8419 41.9281C27.0806 41.9281 27.3096 41.8333 27.4783 41.6645C27.6471 41.4957 27.7419 41.2668 27.7419 41.0281V31.9341C28.0749 32.2241 28.5899 32.9681 29.0939 32.9131C29.2709 32.91 29.443 32.8553 29.5893 32.7557C29.7355 32.6561 29.8495 32.516 29.9171 32.3525C29.9848 32.189 30.0032 32.0093 29.9701 31.8355C29.9371 31.6617 29.8539 31.5013 29.7309 31.3741L27.4829 29.1201Z" fill="#6741EE"/>
<path d="M32.2541 38.8509L31.5391 38.1359C31.37 37.9669 31.1407 37.8719 30.9016 37.8719C30.6625 37.8719 30.4331 37.9669 30.2641 38.1359C30.095 38.305 30 38.5343 30 38.7734C30 39.0125 30.095 39.2419 30.2641 39.4109L32.5181 41.6639C32.6884 41.831 32.9175 41.9246 33.1561 41.9246C33.3947 41.9246 33.6237 41.831 33.7941 41.6639L36.0481 39.4099C36.1318 39.3262 36.1982 39.2268 36.2435 39.1174C36.2888 39.0081 36.3121 38.8908 36.3121 38.7724C36.3121 38.654 36.2888 38.5368 36.2435 38.4274C36.1982 38.318 36.1318 38.2187 36.0481 38.1349C35.9643 38.0512 35.865 37.9848 35.7556 37.9395C35.6462 37.8942 35.529 37.8709 35.4106 37.8709C35.2922 37.8709 35.1749 37.8942 35.0655 37.9395C34.9562 37.9848 34.8568 38.0512 34.7731 38.1349L34.0581 38.8499V29.7569C34.0581 29.5182 33.9632 29.2893 33.7945 29.1205C33.6257 28.9518 33.3968 28.8569 33.1581 28.8569C32.9194 28.8569 32.6904 28.9518 32.5217 29.1205C32.3529 29.2893 32.2581 29.5182 32.2581 29.7569L32.2541 38.8509Z" fill="#6741EE"/>
<path d="M33.1559 27.5041C33.3339 27.5041 33.5079 27.4513 33.6559 27.3524C33.8039 27.2535 33.9192 27.113 33.9874 26.9485C34.0555 26.7841 34.0733 26.6031 34.0386 26.4285C34.0038 26.2539 33.9181 26.0936 33.7923 25.9677C33.6664 25.8418 33.506 25.7561 33.3314 25.7214C33.1569 25.6867 32.9759 25.7045 32.8114 25.7726C32.647 25.8407 32.5064 25.9561 32.4075 26.1041C32.3086 26.2521 32.2559 26.4261 32.2559 26.6041C32.2559 26.8428 32.3507 27.0717 32.5195 27.2405C32.6882 27.4093 32.9172 27.5041 33.1559 27.5041Z" fill="#6741EE"/>
</g>
</g>
<defs>
<clipPath id="clip0_1286_35633">
<rect width="60" height="60" fill="white"/>
</clipPath>
</defs>
</svg>
