<svg width="60" height="60" viewBox="0 0 60 60" fill="none" xmlns="http://www.w3.org/2000/svg">
<g clip-path="url(#clip0_1286_35667)">
<path d="M60 30C60 13.4315 46.5685 0 30 0C13.4315 0 0 13.4315 0 30C0 46.5685 13.4315 60 30 60C46.5685 60 60 46.5685 60 30Z" fill="#F4F5FF"/>
<mask id="mask0_1286_35667" style="mask-type:luminance" maskUnits="userSpaceOnUse" x="16" y="16" width="28" height="28">
<path d="M44 16H16V44H44V16Z" fill="white"/>
</mask>
<g mask="url(#mask0_1286_35667)">
<path d="M30 16C27.2311 16 24.5243 16.8211 22.222 18.3594C19.9197 19.8978 18.1253 22.0843 17.0657 24.6424C16.0061 27.2006 15.7288 30.0155 16.269 32.7313C16.8092 35.447 18.1426 37.9416 20.1005 39.8995C22.0584 41.8574 24.553 43.1908 27.2687 43.731C29.9845 44.2712 32.7994 43.9939 35.3576 42.9343C37.9157 41.8747 40.1022 40.0803 41.6406 37.778C43.1789 35.4757 44 32.7689 44 30C43.9958 26.2883 42.5194 22.7298 39.8948 20.1052C37.2702 17.4806 33.7117 16.0042 30 16ZM30 41.752C27.6757 41.752 25.4036 41.0628 23.4709 39.7714C21.5383 38.4801 20.0321 36.6447 19.1426 34.4973C18.2531 32.3499 18.0204 29.987 18.4738 27.7073C18.9273 25.4276 20.0465 23.3336 21.6901 21.6901C23.3336 20.0465 25.4276 18.9273 27.7073 18.4738C29.987 18.0204 32.3499 18.2531 34.4973 19.1426C36.6447 20.032 38.4801 21.5383 39.7714 23.4709C41.0628 25.4035 41.752 27.6757 41.752 30C41.7486 33.1158 40.5093 36.1029 38.3061 38.3061C36.1029 40.5093 33.1158 41.7486 30 41.752Z" fill="#6741EE"/>
<path d="M39.446 26.1641L37.814 23.6901C37.6498 23.4412 37.3935 23.2677 37.1014 23.2078C36.8093 23.1478 36.5054 23.2064 36.2565 23.3706C36.0076 23.5347 35.8341 23.7911 35.7742 24.0832C35.7142 24.3752 35.7728 24.6792 35.937 24.9281L37.252 26.9221L34.335 34.6101L30.335 25.0401C30.2199 24.765 30.0002 24.547 29.7244 24.4339C29.4485 24.3208 29.139 24.322 28.864 24.4371C28.589 24.5522 28.3709 24.7718 28.2578 25.0477C28.1447 25.3236 28.1459 25.633 28.261 25.9081L29.518 28.9081L27.356 34.6081L23.356 25.0381C23.2409 24.763 23.0212 24.545 22.7454 24.4319C22.4695 24.3188 22.16 24.32 21.885 24.4351C21.61 24.5502 21.3919 24.7698 21.2788 25.0457C21.1657 25.3216 21.1669 25.631 21.282 25.9061L26.373 38.0761C26.4586 38.2805 26.6027 38.4551 26.7872 38.5779C26.9717 38.7006 27.1884 38.7661 27.41 38.7661H27.429C27.6538 38.7623 27.8723 38.6912 28.0562 38.562C28.2402 38.4327 28.3812 38.2513 28.461 38.0411L30.782 31.9241L33.355 38.0761C33.4406 38.2805 33.5847 38.4551 33.7692 38.5779C33.9537 38.7006 34.1704 38.7661 34.392 38.7661H34.4C34.6248 38.7623 34.8433 38.6912 35.0272 38.562C35.2112 38.4327 35.3522 38.2513 35.432 38.0411L39.554 27.1801C39.6175 27.0142 39.6409 26.8357 39.6221 26.6591C39.6033 26.4825 39.543 26.3128 39.446 26.1641Z" fill="#6741EE"/>
</g>
</g>
<defs>
<clipPath id="clip0_1286_35667">
<rect width="60" height="60" fill="white"/>
</clipPath>
</defs>
</svg>
