<svg width="60" height="60" viewBox="0 0 60 60" fill="none" xmlns="http://www.w3.org/2000/svg">
<g clip-path="url(#clip0_1286_35610)">
<path d="M60 30C60 13.4315 46.5685 0 30 0C13.4315 0 0 13.4315 0 30C0 46.5685 13.4315 60 30 60C46.5685 60 60 46.5685 60 30Z" fill="#F4F5FF"/>
<mask id="mask0_1286_35610" style="mask-type:luminance" maskUnits="userSpaceOnUse" x="16" y="16" width="28" height="28">
<path d="M44 16H16V44H44V16Z" fill="white"/>
</mask>
<g mask="url(#mask0_1286_35610)">
<path d="M41.7501 19.9761H18.2501C17.5858 19.9771 16.949 20.2415 16.4793 20.7112C16.0096 21.181 15.7452 21.8178 15.7441 22.4821V37.5171C15.7452 38.1814 16.0096 38.8182 16.4793 39.2879C16.949 39.7577 17.5858 40.022 18.2501 40.0231H41.7501C42.4145 40.0223 43.0515 39.758 43.5213 39.2882C43.9911 38.8184 44.2553 38.1815 44.2561 37.5171V22.4821C44.2556 21.8176 43.9914 21.1805 43.5216 20.7106C43.0517 20.2408 42.4146 19.9766 41.7501 19.9761ZM41.3991 21.6471L31.7721 31.2231C31.5394 31.4559 31.2631 31.6406 30.959 31.7667C30.6548 31.8927 30.3288 31.9576 29.9996 31.9576C29.6704 31.9576 29.3444 31.8927 29.0403 31.7667C28.7362 31.6406 28.4599 31.4559 28.2271 31.2231L18.6011 21.6471H41.3991ZM17.4151 37.1781V22.8231L24.6341 30.0041L17.4151 37.1781ZM18.6021 38.3531L25.8181 31.1831L27.0441 32.4051C27.8272 33.1862 28.8881 33.6249 29.9941 33.6249C31.1002 33.6249 32.1611 33.1862 32.9441 32.4051L34.1741 31.1821L41.3901 38.3521L18.6021 38.3531ZM42.5851 37.1781L35.3661 30.0051L42.5851 22.8241V37.1781Z" fill="#6741EE"/>
</g>
</g>
<defs>
<clipPath id="clip0_1286_35610">
<rect width="60" height="60" fill="white"/>
</clipPath>
</defs>
</svg>
