<svg width="60" height="60" viewBox="0 0 60 60" fill="none" xmlns="http://www.w3.org/2000/svg">
<g clip-path="url(#clip0_1286_35602)">
<path d="M60 30C60 13.4315 46.5685 0 30 0C13.4315 0 0 13.4315 0 30C0 46.5685 13.4315 60 30 60C46.5685 60 60 46.5685 60 30Z" fill="#F4F5FF"/>
<mask id="mask0_1286_35602" style="mask-type:luminance" maskUnits="userSpaceOnUse" x="17" y="17" width="26" height="26">
<path d="M43 17H17V43H43V17Z" fill="white"/>
</mask>
<g mask="url(#mask0_1286_35602)">
<path d="M39.192 20.808C36.7465 18.407 33.4518 17.0689 30.0247 17.0846C26.5977 17.1004 23.3154 18.4687 20.8921 20.8921C18.4687 23.3154 17.1004 26.5977 17.0846 30.0247C17.0689 33.4518 18.407 36.7465 20.808 39.192C23.2535 41.593 26.5482 42.9311 29.9753 42.9154C33.4023 42.8996 36.6846 41.5313 39.1079 39.1079C41.5313 36.6846 42.8996 33.4023 42.9154 29.9753C42.9311 26.5482 41.593 23.2535 39.192 20.808ZM30.762 25.393C32.1163 25.3554 33.4649 25.2019 34.793 24.934C35.1204 26.3453 35.3057 27.7858 35.346 29.234H30.762V25.393ZM30.762 23.869V18.652C32.0755 19.2584 33.1073 20.3443 33.646 21.687C33.9312 22.2621 34.1755 22.8566 34.377 23.466C33.185 23.6987 31.976 23.8335 30.762 23.869ZM29.238 18.652V23.869C28.0244 23.8344 26.8157 23.7006 25.624 23.469C25.8256 22.8596 26.0698 22.2651 26.355 21.69C26.8928 20.3463 27.9243 19.2594 29.238 18.652ZM29.238 25.394V29.239H24.655C24.6953 27.7908 24.8806 26.3503 25.208 24.939C26.5359 25.2051 27.8842 25.357 29.238 25.393V25.394ZM23.131 29.238H18.549C18.6841 27.1159 19.4116 25.0743 20.649 23.345C21.6283 23.8645 22.661 24.2762 23.729 24.573C23.3726 26.1038 23.1722 27.6668 23.131 29.238ZM23.131 30.761C23.1729 32.3323 23.3739 33.8953 23.731 35.426C22.6626 35.7227 21.6296 36.1345 20.65 36.654C19.4126 34.9247 18.6851 32.8831 18.55 30.761H23.131ZM24.655 30.761H29.238V34.606C27.8837 34.6436 26.5351 34.7971 25.207 35.065C24.8797 33.6527 24.6948 32.2112 24.655 30.762V30.761ZM29.238 36.13V41.347C27.9245 40.7406 26.8927 39.6547 26.354 38.312C26.0688 37.7369 25.8246 37.1424 25.623 36.533C26.815 36.3006 28.0241 36.1662 29.238 36.131V36.13ZM30.761 41.347V36.131C31.9746 36.1656 33.1833 36.2994 34.375 36.531C34.1734 37.1404 33.9292 37.7349 33.644 38.31C33.1064 39.6535 32.0753 40.7404 30.762 41.348L30.761 41.347ZM30.761 34.605V30.762H35.344C35.3037 32.2102 35.1184 33.6507 34.791 35.062C33.4635 34.7956 32.1155 34.6434 30.762 34.607L30.761 34.605ZM36.868 30.76H41.45C41.3149 32.8821 40.5874 34.9237 39.35 36.653C38.3704 36.1335 37.3374 35.7217 36.269 35.425C36.626 33.8949 36.827 32.3326 36.869 30.762L36.868 30.76ZM36.868 29.237C36.8261 27.6657 36.6251 26.1027 36.268 24.572C37.3364 24.2753 38.3694 23.8635 39.349 23.344C40.5864 25.0733 41.3139 27.1149 41.449 29.237H36.868ZM38.368 22.142C37.5673 22.5427 36.7301 22.8662 35.868 23.108C35.6361 22.3878 35.351 21.6859 35.015 21.008C34.6997 20.3668 34.3204 19.759 33.883 19.194C35.4781 19.7665 36.926 20.6863 38.122 21.887C38.2 21.97 38.283 22.056 38.365 22.144L38.368 22.142ZM26.124 19.191C25.6865 19.7563 25.3073 20.3644 24.992 21.006C24.656 21.6839 24.3709 22.3858 24.139 23.106C23.2769 22.8642 22.4397 22.5407 21.639 22.14C21.721 22.053 21.804 21.966 21.889 21.881C23.0842 20.6819 24.5306 19.7632 26.124 19.191ZM21.635 37.856C22.4357 37.4553 23.2729 37.1318 24.135 36.89C24.3669 37.6102 24.652 38.3121 24.988 38.99C25.3033 39.6312 25.6826 40.239 26.12 40.804C24.5249 40.2315 23.077 39.3117 21.881 38.111C21.8 38.03 21.717 37.944 21.635 37.856ZM33.876 40.808C34.3134 40.243 34.6927 39.6352 35.008 38.994C35.344 38.3161 35.6291 37.6142 35.861 36.894C36.7231 37.1358 37.5603 37.4593 38.361 37.86C38.279 37.947 38.196 38.034 38.111 38.119C36.9158 39.3181 35.4694 40.2358 33.876 40.808Z" fill="#6741EE"/>
</g>
</g>
<defs>
<clipPath id="clip0_1286_35602">
<rect width="60" height="60" fill="white"/>
</clipPath>
</defs>
</svg>
