<svg width="60" height="60" viewBox="0 0 60 60" fill="none" xmlns="http://www.w3.org/2000/svg">
<g clip-path="url(#clip0_1286_35620)">
<path d="M60 30C60 13.4315 46.5685 0 30 0C13.4315 0 0 13.4315 0 30C0 46.5685 13.4315 60 30 60C46.5685 60 60 46.5685 60 30Z" fill="#F4F5FF"/>
<mask id="mask0_1286_35620" style="mask-type:luminance" maskUnits="userSpaceOnUse" x="16" y="16" width="28" height="28">
<path d="M44 16H16V44H44V16Z" fill="white"/>
</mask>
<g mask="url(#mask0_1286_35620)">
<path d="M17.9 21.505C17.904 21.3188 17.9623 21.1378 18.0676 20.9842C18.1729 20.8306 18.3207 20.711 18.493 20.64L29.633 16.04C29.8674 15.9434 30.1305 15.9434 30.365 16.04L41.512 20.64C41.685 20.7113 41.8333 20.8317 41.9387 20.9863C42.0441 21.1409 42.1019 21.323 42.105 21.51C42.247 29.928 39.031 38.643 31.795 43.434C31.2637 43.8008 30.6379 44.0065 29.9926 44.0266C29.3473 44.0466 28.71 43.8801 28.157 43.547C24.972 41.728 17.584 35.965 17.9 21.505ZM19.812 22.172C19.736 35.14 26.263 40.272 29.112 41.882C29.3619 42.0245 29.6462 42.0956 29.9338 42.0877C30.2214 42.0798 30.5012 41.9931 30.743 41.837C37.243 37.537 40.189 29.727 40.197 22.169L29.999 17.972L19.812 22.172Z" fill="#6741EE"/>
<path d="M34.5219 26.523V25.265C34.5219 24.0177 34.0264 22.8215 33.1444 21.9395C32.2624 21.0575 31.0662 20.562 29.8189 20.562C28.5716 20.562 27.3754 21.0575 26.4934 21.9395C25.6114 22.8215 25.1159 24.0177 25.1159 25.265V26.523C24.7793 26.7094 24.4986 26.9826 24.3031 27.314C24.1076 27.6455 24.0043 28.0232 24.0039 28.408V34.158C24.0042 34.7299 24.2313 35.2784 24.6356 35.6829C25.0398 36.0875 25.588 36.3152 26.1599 36.316H33.4729C34.0447 36.3155 34.593 36.0882 34.9976 35.6841C35.4021 35.2799 35.6298 34.7318 35.6309 34.16V28.41C35.6312 28.0251 35.5285 27.6472 35.3335 27.3154C35.1385 26.9836 34.8583 26.71 34.5219 26.523ZM29.8219 22.58C30.547 22.5677 31.2474 22.8434 31.7695 23.3468C32.2916 23.8501 32.5927 24.5399 32.6069 25.265V26.252H27.0339V25.265C27.0481 24.5399 27.3493 23.8501 27.8713 23.3468C28.3934 22.8434 29.0938 22.5677 29.8189 22.58H29.8219ZM33.7219 34.158C33.7219 34.2217 33.6966 34.2827 33.6516 34.3277C33.6066 34.3727 33.5456 34.398 33.4819 34.398H26.1599C26.0963 34.398 26.0352 34.3727 25.9902 34.3277C25.9452 34.2827 25.9199 34.2217 25.9199 34.158V28.408C25.9199 28.3444 25.9452 28.2833 25.9902 28.2383C26.0352 28.1933 26.0963 28.168 26.1599 28.168H33.4729C33.5366 28.168 33.5976 28.1933 33.6426 28.2383C33.6876 28.2833 33.7129 28.3444 33.7129 28.408V34.158H33.7219Z" fill="#6741EE"/>
<path d="M31.0182 30.4701C31.0189 30.2653 30.9672 30.0636 30.868 29.8844C30.7688 29.7052 30.6254 29.5544 30.4514 29.4463C30.2774 29.3382 30.0786 29.2765 29.874 29.2669C29.6694 29.2574 29.4657 29.3004 29.2824 29.3919C29.0991 29.4833 28.9423 29.6202 28.8268 29.7894C28.7114 29.9586 28.6412 30.1546 28.6229 30.3586C28.6047 30.5626 28.6389 30.7679 28.7225 30.955C28.806 31.142 28.936 31.3045 29.1002 31.4271V33.2171H30.5392V31.4271C30.6879 31.3159 30.8087 31.1714 30.8919 31.0053C30.975 30.8391 31.0183 30.6559 31.0182 30.4701Z" fill="#6741EE"/>
</g>
</g>
<defs>
<clipPath id="clip0_1286_35620">
<rect width="60" height="60" fill="white"/>
</clipPath>
</defs>
</svg>
