<svg width="539" height="333" viewBox="0 0 539 333" fill="none" xmlns="http://www.w3.org/2000/svg">
<g clip-path="url(#clip0_163_588)">
<path d="M484.463 305.146C482.226 305.932 479.824 306.129 477.489 305.718C475.154 305.306 472.964 304.3 471.13 302.797C466.46 298.877 464.996 292.421 463.805 286.442L460.281 268.756L467.658 273.836C472.964 277.489 478.388 281.26 482.058 286.551C485.728 291.842 487.334 299.066 484.383 304.791" fill="#D8DBFE"/>
<path d="M483.324 327.786C484.253 321.021 485.208 314.169 484.555 307.331C484.133 301.234 481.982 295.383 478.355 290.464C476.353 287.888 473.916 285.68 471.155 283.941C470.435 283.487 469.773 284.627 470.489 285.08C475.266 288.099 478.961 292.556 481.041 297.81C483.341 303.652 483.707 310.022 483.311 316.228C483.072 319.981 482.564 323.71 482.053 327.434C482.013 327.603 482.038 327.78 482.124 327.931C482.209 328.081 482.349 328.194 482.514 328.245C482.683 328.29 482.862 328.267 483.014 328.181C483.166 328.095 483.278 327.952 483.325 327.784L483.324 327.786Z" fill="#E4E7FF"/>
<path d="M476.644 316.926C475.685 318.384 474.366 319.571 472.815 320.372C471.264 321.173 469.532 321.561 467.788 321.498C463.304 321.285 459.567 318.157 456.203 315.186L446.252 306.4L452.838 306.085C457.574 305.858 462.433 305.645 466.944 307.108C471.455 308.571 475.616 312.084 476.444 316.753" fill="#D8DBFE"/>
<path d="M485.949 331.675C481.479 323.765 476.294 314.975 467.029 312.165C464.453 311.386 461.752 311.107 459.072 311.343C458.227 311.416 458.438 312.718 459.281 312.643C463.775 312.27 468.26 313.457 471.981 316.003C475.479 318.541 478.445 321.741 480.71 325.422C482.156 327.622 483.45 329.922 484.745 332.209C485.158 332.944 486.367 332.416 485.949 331.675Z" fill="#E4E7FF"/>
<path d="M36.5742 314.56C37.8744 315.725 39.4528 316.535 41.1572 316.913C42.8616 317.291 44.6345 317.223 46.3052 316.717C50.5862 315.365 53.3993 311.385 55.8923 307.653L63.2673 296.615L56.8193 297.993C52.1823 298.984 47.4302 300.02 43.4432 302.587C39.4562 305.154 36.3312 309.614 36.7272 314.339" fill="#D8DBFE"/>
<path d="M31.3439 331.192C33.6439 322.402 36.4099 312.579 44.6489 307.492C46.9402 306.081 49.4801 305.121 52.1318 304.664C52.9678 304.519 53.0959 305.832 52.2629 305.977C47.8233 306.765 43.7907 309.058 40.8439 312.471C38.1107 315.819 36.0616 319.671 34.8129 323.808C33.9779 326.308 33.3128 328.855 32.6468 331.401C32.4328 332.217 31.1279 332.016 31.3439 331.192Z" fill="#E4E7FF"/>
<path d="M121.935 202.479H272.657C273.861 202.478 275.015 201.999 275.866 201.148C276.717 200.297 277.196 199.143 277.197 197.939V147.093C277.196 145.89 276.717 144.736 275.866 143.884C275.015 143.033 273.861 142.555 272.657 142.553H121.935C120.731 142.555 119.577 143.033 118.726 143.884C117.875 144.736 117.396 145.89 117.395 147.093V197.939C117.396 199.143 117.875 200.297 118.726 201.148C119.577 201.999 120.731 202.478 121.935 202.479V202.479Z" fill="#D8DBFE"/>
<path d="M253.589 156.173H213.639V160.713H253.589V156.173Z" fill="#673DE6"/>
<path d="M160.977 161.621C162.481 161.621 163.701 160.402 163.701 158.897C163.701 157.393 162.481 156.173 160.977 156.173C159.473 156.173 158.253 157.393 158.253 158.897C158.253 160.402 159.473 161.621 160.977 161.621Z" fill="#673DE6"/>
<path d="M151.898 161.621C153.402 161.621 154.622 160.402 154.622 158.897C154.622 157.393 153.402 156.173 151.898 156.173C150.393 156.173 149.174 157.393 149.174 158.897C149.174 160.402 150.393 161.621 151.898 161.621Z" fill="#673DE6"/>
<path d="M142.818 161.621C144.322 161.621 145.542 160.402 145.542 158.897C145.542 157.393 144.322 156.173 142.818 156.173C141.313 156.173 140.094 157.393 140.094 158.897C140.094 160.402 141.313 161.621 142.818 161.621Z" fill="#673DE6"/>
<path d="M121.935 266.944H272.657C273.861 266.943 275.015 266.464 275.866 265.613C276.717 264.762 277.196 263.608 277.197 262.404V211.558C277.196 210.354 276.717 209.2 275.866 208.349C275.015 207.498 273.861 207.019 272.657 207.018H121.935C120.731 207.019 119.577 207.498 118.726 208.349C117.875 209.2 117.396 210.354 117.395 211.558V262.404C117.396 263.608 117.875 264.762 118.726 265.613C119.577 266.464 120.731 266.943 121.935 266.944V266.944Z" fill="#D8DBFE"/>
<path d="M253.589 220.638H213.639V225.178H253.589V220.638Z" fill="#673DE6"/>
<path d="M160.977 226.086C162.481 226.086 163.701 224.866 163.701 223.362C163.701 221.858 162.481 220.638 160.977 220.638C159.473 220.638 158.253 221.858 158.253 223.362C158.253 224.866 159.473 226.086 160.977 226.086Z" fill="#673DE6"/>
<path d="M151.898 226.086C153.402 226.086 154.622 224.866 154.622 223.362C154.622 221.858 153.402 220.638 151.898 220.638C150.393 220.638 149.174 221.858 149.174 223.362C149.174 224.866 150.393 226.086 151.898 226.086Z" fill="#673DE6"/>
<path d="M142.818 226.086C144.322 226.086 145.542 224.866 145.542 223.362C145.542 221.858 144.322 220.638 142.818 220.638C141.313 220.638 140.094 221.858 140.094 223.362C140.094 224.866 141.313 226.086 142.818 226.086Z" fill="#673DE6"/>
<path d="M121.935 331.409H272.657C273.861 331.408 275.015 330.929 275.866 330.078C276.717 329.227 277.196 328.073 277.197 326.869V276.023C277.196 274.819 276.717 273.665 275.866 272.814C275.015 271.963 273.861 271.484 272.657 271.483H121.935C120.731 271.484 119.577 271.963 118.726 272.814C117.875 273.665 117.396 274.819 117.395 276.023V326.869C117.396 328.073 117.875 329.227 118.726 330.078C119.577 330.929 120.731 331.408 121.935 331.409V331.409Z" fill="#D8DBFE"/>
<path d="M253.589 285.103H213.639V289.643H253.589V285.103Z" fill="#673DE6"/>
<path d="M160.977 290.551C162.481 290.551 163.701 289.331 163.701 287.827C163.701 286.323 162.481 285.103 160.977 285.103C159.473 285.103 158.253 286.323 158.253 287.827C158.253 289.331 159.473 290.551 160.977 290.551Z" fill="#673DE6"/>
<path d="M151.898 290.551C153.402 290.551 154.622 289.331 154.622 287.827C154.622 286.323 153.402 285.103 151.898 285.103C150.393 285.103 149.174 286.323 149.174 287.827C149.174 289.331 150.393 290.551 151.898 290.551Z" fill="#673DE6"/>
<path d="M142.818 290.551C144.322 290.551 145.542 289.331 145.542 287.827C145.542 286.323 144.322 285.103 142.818 285.103C141.313 285.103 140.094 286.323 140.094 287.827C140.094 289.331 141.313 290.551 142.818 290.551Z" fill="#673DE6"/>
<path d="M178.75 92.9032L178.917 92.7802C179.132 92.6205 179.377 92.5047 179.636 92.4394C179.896 92.3741 180.166 92.3607 180.431 92.3998C180.696 92.4389 180.95 92.5298 181.18 92.6673C181.41 92.8048 181.611 92.9862 181.77 93.2012L215.696 138.878H219.428V138.001C219.428 137.785 219.514 137.577 219.667 137.424C219.82 137.271 220.028 137.185 220.244 137.185H222.471C222.688 137.185 222.895 137.271 223.048 137.424C223.201 137.577 223.287 137.785 223.287 138.001V138.878H224.576V138.001C224.576 137.785 224.662 137.577 224.815 137.424C224.968 137.271 225.176 137.185 225.392 137.185H227.619C227.836 137.185 228.043 137.271 228.196 137.424C228.349 137.577 228.435 137.785 228.435 138.001V138.878H229.72V138.001C229.72 137.894 229.741 137.788 229.782 137.689C229.823 137.59 229.883 137.5 229.959 137.424C230.035 137.348 230.125 137.288 230.224 137.247C230.323 137.206 230.429 137.185 230.536 137.185H232.763C232.98 137.185 233.187 137.271 233.34 137.424C233.493 137.577 233.579 137.785 233.579 138.001V138.878H234.868V138.001C234.868 137.785 234.954 137.577 235.107 137.424C235.26 137.271 235.468 137.185 235.684 137.185H237.911C238.128 137.185 238.335 137.271 238.488 137.424C238.641 137.577 238.727 137.785 238.727 138.001V138.878H240.012V138.001C240.012 137.785 240.098 137.577 240.251 137.424C240.404 137.271 240.612 137.185 240.828 137.185H243.055C243.272 137.185 243.479 137.271 243.632 137.424C243.785 137.577 243.871 137.785 243.871 138.001V138.878H245.16V138.001C245.16 137.894 245.181 137.788 245.222 137.689C245.263 137.59 245.323 137.5 245.399 137.424C245.475 137.348 245.565 137.288 245.664 137.247C245.763 137.206 245.869 137.185 245.976 137.185H248.203C248.42 137.185 248.627 137.271 248.78 137.424C248.933 137.577 249.019 137.785 249.019 138.001V138.878H250.308V138.001C250.308 137.785 250.394 137.577 250.547 137.424C250.7 137.271 250.908 137.185 251.124 137.185H253.35C253.567 137.185 253.774 137.271 253.927 137.424C254.08 137.577 254.166 137.785 254.166 138.001V138.878H255.45V138.001C255.45 137.894 255.471 137.788 255.512 137.689C255.553 137.59 255.613 137.5 255.689 137.424C255.765 137.348 255.855 137.288 255.954 137.247C256.053 137.206 256.159 137.185 256.266 137.185H258.493C258.71 137.185 258.917 137.271 259.07 137.424C259.223 137.577 259.309 137.785 259.309 138.001V138.878H260.598V138.001C260.598 137.785 260.684 137.577 260.837 137.424C260.99 137.271 261.198 137.185 261.414 137.185H263.641C263.858 137.185 264.065 137.271 264.218 137.424C264.371 137.577 264.457 137.785 264.457 138.001V138.878H265.742V138.001C265.742 137.785 265.828 137.577 265.981 137.424C266.134 137.271 266.342 137.185 266.558 137.185H268.785C269.002 137.185 269.209 137.271 269.362 137.424C269.515 137.577 269.601 137.785 269.601 138.001V138.878H271.216C271.757 138.878 272.276 139.093 272.658 139.475C273.04 139.858 273.255 140.376 273.255 140.917V142.862C273.255 143.403 273.04 143.922 272.658 144.304C272.276 144.686 271.757 144.901 271.216 144.901H216.043C215.344 144.901 214.667 144.66 214.125 144.219C213.583 143.778 213.21 143.163 213.068 142.479L213.047 142.494L178.338 95.7612C178.177 95.5466 178.06 95.3024 177.994 95.0425C177.928 94.7826 177.913 94.5123 177.952 94.2468C177.99 93.9813 178.08 93.726 178.217 93.4955C178.354 93.2649 178.535 93.0637 178.75 92.9032V92.9032Z" fill="#3F3D56"/>
<path d="M393.16 314.088L386.307 317.596L369.514 292.83L379.628 287.654L393.16 314.088Z" fill="#A0616A"/>
<path d="M393.764 310.956L380.264 317.863C377.984 319.031 376.26 321.056 375.473 323.494C374.685 325.931 374.898 328.582 376.064 330.863L376.207 331.142L398.307 319.833L393.764 310.956Z" fill="#2F2E41"/>
<path d="M314.008 323.683H306.308L302.646 293.983H314.009L314.008 323.683Z" fill="#A0616A"/>
<path d="M315.974 321.17H300.809C298.247 321.17 295.789 322.188 293.978 324C292.166 325.811 291.148 328.269 291.147 330.831V331.145H315.974V321.17Z" fill="#2F2E41"/>
<path d="M350.019 81.4679C350.019 81.4679 355.174 77.5179 355.174 87.1679L355.988 119.05L346.898 149.169L341.607 139.401L343.778 118.237L350.019 81.4679Z" fill="#FC5185"/>
<path d="M294.871 168.672C294.871 168.672 288.893 197.786 296.465 221.679L300.65 313.545L315.994 312.345L321.374 244.193L326.554 210.32L337.317 241.211L372.788 306.573L389.129 293.82C389.129 293.82 371.021 244.411 357.644 234.038L350.935 157.623L294.871 168.672Z" fill="#2F2E41"/>
<path d="M328.412 16.6559C323.777 8.1772 313.147 5.06115 304.668 9.69597C296.189 14.3308 293.073 24.9614 297.708 33.44C302.343 41.9187 312.973 45.0347 321.452 40.3999C329.931 35.7651 333.047 25.1345 328.412 16.6559Z" fill="#A0616A"/>
<path d="M314.297 28.758C312.197 29.031 310.618 26.885 309.884 24.901C309.15 22.917 308.591 20.608 306.768 19.537C304.277 18.073 301.089 19.837 298.241 19.351C295.024 18.806 292.932 15.396 292.768 12.137C292.604 8.87804 293.901 5.74405 295.174 2.73705L295.618 6.47104C295.559 5.20539 295.825 3.94569 296.392 2.81238C296.958 1.67907 297.806 0.71007 298.854 -0.00195312L298.281 5.47705C298.403 4.72108 298.673 3.99661 299.076 3.34525C299.478 2.69388 300.005 2.12843 300.627 1.68134C301.249 1.23425 301.953 0.914316 302.698 0.739914C303.444 0.565512 304.217 0.540067 304.972 0.665039L304.882 3.93004C308.583 3.3593 312.334 3.17565 316.073 3.38205C319.836 3.60062 323.437 4.98852 326.373 7.35205C330.598 11.0231 332.141 17.069 331.623 22.642C331.105 28.215 328.805 33.455 326.405 38.512C325.805 39.785 324.967 41.221 323.568 41.383C322.933 41.3923 322.314 41.1901 321.807 40.8082C321.3 40.4264 320.934 39.8866 320.768 39.274C320.467 38.039 320.479 36.7484 320.802 35.519C321.297 33.6687 321.455 31.7444 321.269 29.838C320.937 27.956 319.582 26.0951 317.685 25.8651C315.788 25.6351 313.846 27.803 314.758 29.483L314.297 28.758Z" fill="#2F2E41"/>
<path d="M293.788 176.457L352.188 172.689L347.788 154.478L294.411 166.41L293.788 176.457Z" fill="#A0616A"/>
<path d="M329.807 48.9073L326.144 43.8213C326.144 43.8213 322.05 45.2123 311.085 50.6703L310.31 55.4353L291.274 172.501L325.874 171.009L335.295 170.809L338.378 163.898L342.178 170.663L351.378 170.463L360.739 165.036L351.507 136.821L348.522 111.044L353.135 86.7593C353.135 86.7593 358.935 64.4593 336.583 52.4353L329.807 48.9073Z" fill="#FC5185"/>
<path d="M251.831 137.527C252.678 137.742 253.562 137.769 254.421 137.606C255.28 137.443 256.092 137.093 256.801 136.582C257.51 136.07 258.098 135.41 258.524 134.646C258.95 133.883 259.204 133.036 259.267 132.164L279.792 126.664L271.535 119.333L253.31 125.678C251.839 125.669 250.415 126.201 249.309 127.171C248.203 128.142 247.491 129.485 247.309 130.945C247.127 132.405 247.486 133.882 248.32 135.095C249.153 136.308 250.403 137.173 251.831 137.526V137.527Z" fill="#A0616A"/>
<path d="M261.021 134.423C261.452 134.659 261.929 134.8 262.419 134.839C262.909 134.878 263.401 134.813 263.865 134.649L297.629 121.834C305.866 118.914 312.762 113.102 317.035 105.478L331.115 80.3612C332.1 79.2571 332.859 77.9696 333.347 76.5724C333.835 75.1751 334.043 73.6954 333.959 72.2177C333.875 70.7401 333.501 69.2934 332.858 67.9603C332.215 66.6272 331.316 65.4338 330.212 64.4482C329.108 63.4627 327.82 62.7042 326.423 62.2162C325.026 61.7282 323.546 61.5202 322.068 61.604C320.591 61.6879 319.144 62.062 317.811 62.7049C316.478 63.3479 315.284 64.2471 314.299 65.3512L289.928 103.978L259.258 121.959C258.656 122.354 258.191 122.923 257.924 123.591C257.657 124.258 257.601 124.992 257.765 125.692L259.29 132.155C259.453 132.85 259.824 133.478 260.354 133.955C260.557 134.138 260.781 134.297 261.021 134.427V134.423Z" fill="#FC5185"/>
<path d="M0.570007 332.435H538.283C538.434 332.435 538.579 332.375 538.686 332.268C538.793 332.161 538.853 332.016 538.853 331.865C538.853 331.714 538.793 331.569 538.686 331.462C538.579 331.355 538.434 331.295 538.283 331.295H0.570007C0.418834 331.295 0.273842 331.355 0.166946 331.462C0.0600507 331.569 0 331.714 0 331.865C0 332.016 0.0600507 332.161 0.166946 332.268C0.273842 332.375 0.418834 332.435 0.570007 332.435Z" fill="#D8DBFE"/>
</g>
<defs>
<clipPath id="clip0_163_588">
<rect width="538.853" height="332.563" fill="white"/>
</clipPath>
</defs>
</svg>
