<svg width="21" height="22" viewBox="0 0 21 22" fill="none" xmlns="http://www.w3.org/2000/svg">
<path d="M14.8317 12.9775H5.5619C2.54921 12.9775 0 15.5267 0 18.5394V20.8569C0 21.4363 0.347619 21.7839 0.926984 21.7839C1.50635 21.7839 1.85397 21.4363 1.85397 20.8569V18.5394C1.85397 16.5696 3.59206 14.8315 5.5619 14.8315H14.8317C16.8016 14.8315 18.5397 16.5696 18.5397 18.5394V20.8569C18.5397 21.4363 18.8873 21.7839 19.4667 21.7839C20.046 21.7839 20.3936 21.4363 20.3936 20.8569V18.5394C20.3936 15.5267 17.8444 12.9775 14.8317 12.9775Z" fill="#673DE6"/>
<path d="M10.1967 11.1238C13.2094 11.1238 15.7586 8.5746 15.7586 5.5619C15.7586 2.54921 13.2094 0 10.1967 0C7.18397 0 4.63477 2.54921 4.63477 5.5619C4.63477 8.5746 7.18397 11.1238 10.1967 11.1238ZM6.48873 5.5619C6.48873 3.59206 8.22683 1.85397 10.1967 1.85397C12.1665 1.85397 13.9046 3.59206 13.9046 5.5619C13.9046 7.53174 12.1665 9.26984 10.1967 9.26984C8.22683 9.26984 6.48873 7.53174 6.48873 5.5619Z" fill="#673DE6"/>
</svg>
