<svg width="21" height="21" viewBox="0 0 21 21" fill="none" xmlns="http://www.w3.org/2000/svg">
<g clip-path="url(#clip0_131_269)">
<path d="M8.75 18.375C8.75 18.5481 8.69868 18.7172 8.60254 18.8611C8.50639 19.005 8.36973 19.1172 8.20985 19.1834C8.04996 19.2496 7.87403 19.2669 7.7043 19.2332C7.53456 19.1994 7.37865 19.1161 7.25628 18.9937C7.13391 18.8713 7.05058 18.7154 7.01681 18.5457C6.98305 18.376 7.00038 18.2 7.06661 18.0402C7.13283 17.8803 7.24498 17.7436 7.38888 17.6475C7.53277 17.5513 7.70194 17.5 7.875 17.5C8.10706 17.5 8.32962 17.5922 8.49372 17.7563C8.65781 17.9204 8.75 18.1429 8.75 18.375V18.375Z" stroke="#673DE6" stroke-width="1.75" stroke-linecap="round" stroke-linejoin="round"/>
<path d="M18.375 18.375C18.375 18.5481 18.3237 18.7172 18.2275 18.8611C18.1314 19.005 17.9947 19.1172 17.8348 19.1834C17.675 19.2496 17.499 19.2669 17.3293 19.2332C17.1596 19.1994 17.0037 19.1161 16.8813 18.9937C16.7589 18.8713 16.6756 18.7154 16.6418 18.5457C16.6081 18.376 16.6254 18.2 16.6916 18.0402C16.7578 17.8803 16.87 17.7436 17.0139 17.6475C17.1578 17.5513 17.3269 17.5 17.5 17.5C17.7321 17.5 17.9546 17.5922 18.1187 17.7563C18.2828 17.9204 18.375 18.1429 18.375 18.375V18.375Z" stroke="#673DE6" stroke-width="1.75" stroke-linecap="round" stroke-linejoin="round"/>
<path d="M0.875 0.875H4.375L6.72 12.591C6.79996 12.9939 7.0191 13.3558 7.33903 13.6134C7.65897 13.871 8.05933 14.0079 8.47 14H16.97C17.3807 14.0079 17.781 13.871 18.101 13.6134C18.4209 13.3558 18.64 12.9939 18.72 12.591L20.12 5.25H5.25" stroke="#673DE6" stroke-width="1.75" stroke-linecap="round" stroke-linejoin="round"/>
</g>
<defs>
<clipPath id="clip0_131_269">
<rect width="21" height="20.125" fill="white"/>
</clipPath>
</defs>
</svg>
