<svg width="20" height="20" viewBox="0 0 20 20" fill="none" xmlns="http://www.w3.org/2000/svg">
<path d="M20 3V17C20 17.7956 19.6839 18.5587 19.1213 19.1213C18.5587 19.6839 17.7956 20 17 20H5C4.20435 20 3.44129 19.6839 2.87868 19.1213C2.31607 18.5587 2 17.7956 2 17V14C2 13.7348 2.10536 13.4804 2.29289 13.2929C2.48043 13.1054 2.73478 13 3 13C3.26522 13 3.51957 13.1054 3.70711 13.2929C3.89464 13.4804 4 13.7348 4 14V17C4 17.2652 4.10536 17.5196 4.29289 17.7071C4.48043 17.8946 4.73478 18 5 18H17C17.2652 18 17.5196 17.8946 17.7071 17.7071C17.8946 17.5196 18 17.2652 18 17V3C18 2.73478 17.8946 2.48043 17.7071 2.29289C17.5196 2.10536 17.2652 2 17 2H5C4.73478 2 4.48043 2.10536 4.29289 2.29289C4.10536 2.48043 4 2.73478 4 3V6C4 6.26522 3.89464 6.51957 3.70711 6.70711C3.51957 6.89464 3.26522 7 3 7C2.73478 7 2.48043 6.89464 2.29289 6.70711C2.10536 6.51957 2 6.26522 2 6V3C2 2.20435 2.31607 1.44129 2.87868 0.87868C3.44129 0.316071 4.20435 0 5 0H17C17.7956 0 18.5587 0.316071 19.1213 0.87868C19.6839 1.44129 20 2.20435 20 3ZM8.29 13.29C8.19627 13.383 8.12188 13.4936 8.07111 13.6154C8.02034 13.7373 7.9942 13.868 7.9942 14C7.9942 14.132 8.02034 14.2627 8.07111 14.3846C8.12188 14.5064 8.19627 14.617 8.29 14.71C8.38296 14.8037 8.49356 14.8781 8.61542 14.9289C8.73728 14.9797 8.86799 15.0058 9 15.0058C9.13201 15.0058 9.26272 14.9797 9.38458 14.9289C9.50644 14.8781 9.61704 14.8037 9.71 14.71L13.71 10.71C13.8037 10.617 13.8781 10.5064 13.9289 10.3846C13.9797 10.2627 14.0058 10.132 14.0058 10C14.0058 9.86799 13.9797 9.73728 13.9289 9.61542C13.8781 9.49356 13.8037 9.38296 13.71 9.29L9.71 5.29C9.5217 5.1017 9.2663 4.99591 9 4.99591C8.7337 4.99591 8.4783 5.1017 8.29 5.29C8.1017 5.4783 7.99591 5.7337 7.99591 6C7.99591 6.2663 8.1017 6.5217 8.29 6.71L10.59 9H1C0.734784 9 0.48043 9.10536 0.292893 9.29289C0.105357 9.48043 0 9.73478 0 10C0 10.2652 0.105357 10.5196 0.292893 10.7071C0.48043 10.8946 0.734784 11 1 11H10.59L8.29 13.29Z" fill="#673DE6"/>
</svg>
