<svg width="392" height="301" viewBox="0 0 392 301" fill="none" xmlns="http://www.w3.org/2000/svg">
<path d="M250.235 0.000110141C240.526 -0.0146395 151.95 1.33741 103.548 74.4154C77.7852 113.315 60.4986 176.924 85.7533 211.582C93.2117 221.817 97.1204 219.565 136.985 243.792C191.707 277.046 191.451 285.608 214.103 293.217C243.593 303.122 287.165 303.101 319.804 278.779C356.839 251.179 362.316 205.317 367.801 159.382C373.185 114.302 378.639 68.627 350.005 34.9863C320.319 0.111551 272.609 0.0361649 250.235 0.000110141Z" fill="#D1E8FD"/>
<path d="M384.774 199.999L213.475 176.177C209.174 175.628 205.951 171.968 205.951 167.632L203.601 48.1495C203.601 48.1495 207.506 45.334 209.718 44.2556C210.844 43.7066 212.141 43.4657 213.491 43.6378L384.281 65.4181C388.581 65.9671 391.805 69.6267 391.805 73.9631V191.318C391.805 193.417 390.846 195.269 389.361 196.49C387.994 197.614 384.774 200.001 384.774 200.001V199.999Z" fill="#99B9FF"/>
<path d="M379.546 201.585L208.757 179.805C204.457 179.256 201.233 175.597 201.233 171.26V53.9069C201.233 49.8737 204.773 46.7566 208.773 47.2679L379.563 69.0482C383.863 69.5973 387.087 73.2568 387.087 77.5932V194.948C387.087 198.981 383.547 202.098 379.546 201.587V201.585Z" fill="white"/>
<path d="M375.916 196.749L212.837 175.952C209.71 175.554 207.365 172.892 207.365 169.739V56.5388C207.365 53.8462 209.73 51.7632 212.401 52.1041L375.48 72.9011C378.607 73.2994 380.952 75.9609 380.952 79.114V192.313C380.952 195.005 378.587 197.088 375.916 196.747V196.749Z" fill="#CADDFF"/>
<path d="M380.392 202.18C380.087 202.18 379.782 202.161 379.477 202.123L208.688 180.343C204.129 179.761 200.692 175.857 200.692 171.262V53.9068C200.692 51.8288 201.587 49.8507 203.145 48.4773C204.704 47.1039 206.78 46.4681 208.842 46.7303L379.631 68.5106C384.191 69.0924 387.627 72.9962 387.627 77.5915V194.946C387.627 197.024 386.733 199.002 385.174 200.376C383.847 201.546 382.142 202.18 380.392 202.18ZM379.613 201.048C381.367 201.271 383.132 200.73 384.458 199.563C385.784 198.396 386.544 196.713 386.544 194.946V77.5915C386.544 73.5386 383.512 70.097 379.494 69.5841L208.704 47.8037C206.952 47.5809 205.186 48.1217 203.86 49.2902C202.534 50.457 201.774 52.1401 201.774 53.9068V171.262C201.774 175.315 204.805 178.756 208.826 179.269L379.615 201.049L379.613 201.048Z" fill="#673DE6"/>
<path d="M279.907 270.699L104.257 248.047C102.882 247.871 102.107 246.719 102.125 245.569C102.136 244.776 102.202 239.184 102.202 239.184L195.077 186.088C199.73 183.43 205.751 182.404 211.066 183.084L384.497 205.456C385.541 205.591 386.436 206.267 386.851 207.236L387.129 207.888C387.129 207.888 386.98 212.551 387.041 213.641C387.088 214.493 386.705 215.371 385.812 215.881L295.268 267.651C290.616 270.309 285.222 271.377 279.907 270.697V270.699Z" fill="#99B9FF"/>
<path d="M125.86 244.577L104.884 241.868C102.56 241.57 101.951 238.489 103.985 237.327L194.043 185.892C198.695 183.233 204.089 182.165 209.404 182.845L384.426 205.455C386.75 205.753 387.36 208.834 385.326 209.996L295.268 261.431C290.615 264.089 285.222 265.158 279.907 264.478L125.86 244.577Z" fill="white"/>
<path d="M314.174 235.926L162.407 216.178C160.309 215.909 159.757 213.126 161.594 212.077L197.278 191.901C201.482 189.5 206.351 188.535 211.153 189.15L362.92 208.898C365.018 209.167 365.57 211.949 363.733 212.998L328.049 233.174C323.845 235.575 318.976 236.54 314.174 235.926Z" fill="#CADDFF"/>
<path d="M283 265.215C281.944 265.215 280.889 265.148 279.838 265.014L194.128 254.02C193.832 253.983 193.622 253.711 193.661 253.414C193.699 253.117 193.972 252.911 194.266 252.945L279.976 263.939C285.142 264.601 290.476 263.542 294.999 260.959L385.058 209.524C385.933 209.024 386.108 208.154 385.979 207.505C385.851 206.856 385.356 206.118 384.356 205.991L209.333 183.381C204.169 182.719 198.832 183.778 194.31 186.36L181.693 193.568C181.434 193.716 181.103 193.625 180.953 193.366C180.804 193.108 180.896 192.776 181.155 192.627L193.773 185.42C198.499 182.72 204.076 181.616 209.471 182.306L384.494 204.915C385.787 205.081 386.787 206.015 387.039 207.293C387.293 208.572 386.724 209.816 385.593 210.463L295.535 261.898C291.728 264.073 287.371 265.212 282.998 265.212L283 265.215Z" fill="#99B9FF"/>
<path d="M362.342 191.188L227.462 174.13C225.14 173.836 223.259 171.611 223.259 169.159V4.57574C223.259 2.12402 225.14 0.375364 227.462 0.668719L362.342 17.7275C364.664 18.0209 366.545 20.2464 366.545 22.6982V187.283C366.545 189.735 364.664 191.483 362.342 191.19V191.188Z" fill="#99B9FF"/>
<path d="M362.849 191.762C362.659 191.762 362.468 191.749 362.274 191.726L227.395 174.667C224.815 174.341 222.718 171.871 222.718 169.161V4.57573C222.718 3.19418 223.245 1.96832 224.203 1.12431C225.106 0.327826 226.289 -0.0228882 227.531 0.132803L362.41 17.1932C364.99 17.5194 367.087 19.9891 367.087 22.6998V187.285C367.087 188.666 366.56 189.892 365.603 190.736C364.841 191.408 363.879 191.764 362.849 191.764V191.762ZM362.41 190.651C363.341 190.769 364.219 190.51 364.886 189.922C365.608 189.286 366.004 188.348 366.004 187.281V22.6981C366.004 20.5136 364.331 18.5256 362.274 18.265L227.393 1.20625C226.463 1.08661 225.584 1.34719 224.917 1.93554C224.196 2.57141 223.799 3.50884 223.799 4.57573V169.161C223.799 171.345 225.473 173.333 227.529 173.594L362.409 190.653L362.41 190.651Z" fill="black"/>
<path d="M341.32 100.135L248.832 88.4374C247.865 88.3145 247.08 87.3885 247.08 86.3675V77.4915C247.08 76.4705 247.863 75.7412 248.832 75.8641L341.32 87.5622C342.287 87.6851 343.072 88.6111 343.072 89.6321V98.5081C343.072 99.5291 342.287 100.258 341.32 100.135Z" fill="white"/>
<path d="M342.02 125.372L248.833 113.585C248.058 113.487 247.43 112.745 247.43 111.927V102.313C247.43 101.496 248.058 100.912 248.833 101.011L342.02 112.797C342.795 112.896 343.423 113.638 343.423 114.456V124.069C343.423 124.887 342.795 125.47 342.02 125.372Z" fill="white"/>
<path d="M327.483 149.794L262.67 141.597C261.606 141.462 260.744 140.443 260.744 139.32V130.812C260.744 129.689 261.606 128.888 262.67 129.022L327.483 137.219C328.547 137.354 329.409 138.373 329.409 139.496V148.005C329.409 149.127 328.547 149.929 327.483 149.794Z" fill="#CADDFF"/>
<path d="M309.655 65.542C317.8 58.6197 318.069 45.5552 310.256 36.3617C302.443 27.1681 289.506 25.3269 281.361 32.2492C273.215 39.1716 272.946 52.236 280.759 61.4296C288.573 70.6231 301.51 72.4643 309.655 65.542Z" fill="#673DE6"/>
<path d="M300.099 51.8287C302.942 49.4126 303.036 44.8525 300.308 41.6434C297.581 38.4343 293.066 37.7914 290.223 40.2075C287.38 42.6235 287.286 47.1837 290.013 50.3928C292.741 53.6019 297.256 54.2448 300.099 51.8287Z" fill="white"/>
<path d="M280.546 61.1752C282.987 58.7513 285.95 56.3766 289.106 54.9574C289.868 54.6148 290.773 54.6263 291.609 54.9934C294.821 56.4045 297.32 56.2439 300.096 55.5392C300.77 55.3687 301.517 55.49 302.161 55.8915C305.632 58.0564 308.635 60.8343 310.919 64.3545C301.901 73.4207 287.454 70.2036 280.548 61.1752H280.546Z" fill="white"/>
<path d="M295.508 70.4658C283.76 69.0416 274.203 58.2056 274.203 46.3124C274.203 34.4193 283.76 25.9022 295.508 27.328C307.255 28.7521 316.813 39.5882 316.813 51.4814C316.813 63.3745 307.255 71.8916 295.508 70.4658ZM295.508 29.0865C284.718 27.777 275.938 35.6009 275.938 46.5238C275.938 57.4468 284.718 67.3995 295.508 68.709C306.298 70.0184 315.077 62.1945 315.077 51.2716C315.077 40.3486 306.298 30.3959 295.508 29.0865Z" fill="#CADDFF"/>
<path d="M42.3724 102.53C35.7588 104.985 30.1449 110.15 26.3242 116.952C16.5751 134.306 -8.8666 185.168 3.16795 224.441C17.9086 272.549 142.528 271.261 175.006 250.787C183.257 245.585 217.019 210.494 173.686 181.327C133.967 154.591 117.55 174.217 99.2362 163.683C80.922 153.149 67.6926 110.876 60.936 104.87C56.571 100.991 49.7839 99.7786 42.3724 102.53Z" fill="#673DE6"/>
<path d="M80.7074 218.292C80.5253 218.292 80.341 218.222 80.2022 218.081C63.7355 201.626 25.4396 199.676 25.0558 199.659C24.6611 199.642 24.3554 199.305 24.3749 198.911C24.3923 198.516 24.737 198.219 25.123 198.228C26.7168 198.301 64.36 200.223 81.217 217.067C81.4967 217.346 81.4967 217.8 81.217 218.079C81.0782 218.218 80.8939 218.29 80.7096 218.29L80.7074 218.292Z" fill="#99B9FF"/>
<path d="M119.284 219.196C119.187 219.196 119.089 219.177 118.994 219.133C106.153 213.422 97.0889 218.543 96.9978 218.598C96.6574 218.797 96.2193 218.682 96.0199 218.34C95.8204 217.999 95.9353 217.561 96.2757 217.362C96.6682 217.132 106.029 211.797 119.575 217.826C119.937 217.986 120.1 218.409 119.937 218.771C119.818 219.038 119.558 219.196 119.282 219.196H119.284Z" fill="#99B9FF"/>
<path d="M177.767 249.638C177.882 250.015 191.64 265.563 191.64 265.563L182.468 269.173L171.39 255.688L177.767 249.638Z" fill="white"/>
<path d="M182.467 269.891C182.257 269.891 182.053 269.798 181.914 269.628L170.836 256.143C170.597 255.853 170.623 255.428 170.896 255.17L177.274 249.12C177.454 248.948 177.71 248.886 177.95 248.946C178.143 248.998 178.304 249.126 178.397 249.298C178.952 250.087 186.917 259.144 192.177 265.088C192.331 265.263 192.392 265.502 192.338 265.73C192.283 265.957 192.121 266.144 191.904 266.228L182.732 269.839C182.647 269.871 182.558 269.889 182.469 269.889L182.467 269.891ZM172.364 255.749L182.688 268.316L190.425 265.27C181.799 255.517 178.774 252.006 177.697 250.69L172.364 255.746V255.749Z" fill="black"/>
<path d="M182.311 262.843C182.664 262.065 183.276 261.176 184.327 260.61C185.912 259.758 187.875 260.048 189.258 261.2C192.717 264.079 202.099 272.224 207.41 280.021C209.285 282.777 208.192 286.286 203.732 286.045C196.42 285.648 184.876 282.203 175.461 273.419C174.381 272.41 173.873 270.923 174.147 269.47C174.37 268.284 174.732 266.801 175.313 265.404C175.868 264.071 177.323 263.351 178.726 263.685L179.99 263.986C180.94 264.212 181.912 263.73 182.313 262.841L182.311 262.843Z" fill="white"/>
<path d="M204.174 286.774C204.018 286.774 203.859 286.769 203.694 286.761C196.005 286.344 184.422 282.76 174.972 273.943C173.697 272.753 173.125 271.033 173.441 269.34C173.736 267.768 174.144 266.35 174.649 265.133C175.338 263.475 177.121 262.572 178.888 262.993L180.152 263.295C180.762 263.438 181.397 263.128 181.657 262.551C182.173 261.412 182.98 260.523 183.988 259.981C185.777 259.018 188.08 259.29 189.715 260.653C193.442 263.756 202.688 271.821 208.001 279.622C209.124 281.273 209.315 283.198 208.5 284.644C208.04 285.46 206.878 286.776 204.171 286.776L204.174 286.774ZM178.025 264.322C177.138 264.322 176.323 264.841 175.972 265.682C175.503 266.809 175.126 268.128 174.848 269.605C174.621 270.812 175.033 272.044 175.948 272.898C185.118 281.453 196.333 284.929 203.77 285.332C205.462 285.427 206.695 284.929 207.253 283.94C207.799 282.97 207.632 281.624 206.817 280.425C201.606 272.773 192.482 264.817 188.8 261.751C187.607 260.757 185.946 260.554 184.667 261.241C183.927 261.64 183.353 262.278 182.962 263.141C182.42 264.34 181.096 264.992 179.823 264.687L178.559 264.385C178.379 264.342 178.201 264.322 178.025 264.322Z" fill="black"/>
<path d="M202.213 283.157C197.972 283.157 189.968 281.348 177.327 271.766C177.012 271.528 176.949 271.079 177.188 270.762C177.426 270.448 177.875 270.387 178.192 270.624C197.347 285.143 205.216 281.27 205.292 281.229C205.641 281.045 206.075 281.177 206.259 281.528C206.444 281.878 206.311 282.311 205.96 282.496C205.834 282.563 204.637 283.155 202.211 283.155L202.213 283.157Z" fill="black"/>
<path d="M194.268 274.934C194.094 274.934 193.919 274.871 193.782 274.744C193.492 274.475 193.474 274.021 193.743 273.731L197.455 269.724C197.724 269.433 198.177 269.416 198.468 269.685C198.759 269.954 198.776 270.407 198.507 270.697L194.795 274.705C194.654 274.856 194.461 274.934 194.27 274.934H194.268Z" fill="black"/>
<path d="M190.983 272.235C190.8 272.235 190.618 272.165 190.477 272.027C190.198 271.749 190.195 271.294 190.473 271.014L194.56 266.894C194.838 266.614 195.291 266.612 195.573 266.89C195.853 267.167 195.855 267.623 195.577 267.902L191.49 272.022C191.351 272.163 191.167 272.235 190.983 272.235Z" fill="black"/>
<path d="M149.075 257.954L144.849 276.504L137.903 271.216L141.115 253.385L149.075 257.954Z" fill="white"/>
<path d="M144.848 277.22C144.694 277.22 144.54 277.17 144.414 277.075L137.469 271.786C137.254 271.623 137.15 271.354 137.198 271.09L140.409 253.259C140.451 253.029 140.6 252.834 140.813 252.737C141.025 252.639 141.27 252.648 141.472 252.765L149.432 257.334C149.705 257.49 149.844 257.806 149.775 258.114L145.551 276.665C145.496 276.901 145.325 277.096 145.097 277.179C145.017 277.207 144.935 277.222 144.852 277.222L144.848 277.22ZM138.683 270.912L144.395 275.262L148.255 258.311L141.634 254.512L138.681 270.912H138.683Z" fill="black"/>
<path d="M147.242 273.141C146.817 278.913 145.798 290.521 141.433 298.752C140.262 300.959 135.689 300.795 134.03 297.785C130.57 291.507 126.146 280.841 128.748 267.963C128.952 266.957 129.624 266.107 130.554 265.675C131.647 265.17 133.375 264.535 135.834 264.086C137.06 263.863 138.222 264.721 138.371 265.959L138.92 270.498L139.499 269.745C140.369 268.611 141.899 268.219 143.207 268.793C143.912 269.104 144.69 269.444 145.393 269.754C146.709 270.333 147.351 271.708 147.244 273.143L147.242 273.141Z" fill="white"/>
<path d="M138.4 300.964C136.312 300.964 134.354 299.856 133.402 298.13C127.825 288.018 126.023 277.823 128.044 267.82C128.293 266.595 129.117 265.55 130.251 265.023C131.307 264.533 133.109 263.852 135.703 263.379C136.481 263.238 137.29 263.425 137.925 263.895C138.563 264.366 138.983 265.086 139.079 265.87L139.428 268.767C140.527 267.796 142.106 267.525 143.491 268.134L145.677 269.095C147.195 269.761 148.088 271.37 147.954 273.191C147.412 280.559 146.213 291.26 142.062 299.084C141.447 300.246 140.094 300.946 138.446 300.959C138.43 300.959 138.413 300.959 138.398 300.959L138.4 300.964ZM136.223 264.765C136.136 264.765 136.05 264.773 135.961 264.788C133.515 265.235 131.834 265.871 130.854 266.324C130.132 266.658 129.607 267.323 129.449 268.104C127.497 277.764 129.249 287.632 134.657 297.438C135.518 298.999 137.218 299.546 138.437 299.53C139.534 299.522 140.441 299.095 140.8 298.414C145.289 289.95 146.189 277.699 146.527 273.087C146.618 271.86 146.072 270.832 145.103 270.407L142.917 269.446C141.909 269.004 140.735 269.305 140.063 270.179L139.484 270.932C139.306 271.161 139.009 271.263 138.727 271.185C138.448 271.109 138.242 270.869 138.205 270.58L137.656 266.042C137.609 265.641 137.4 265.287 137.075 265.047C136.824 264.86 136.527 264.765 136.221 264.765H136.223Z" fill="black"/>
<path d="M137.625 297.351C137.389 297.351 137.157 297.234 137.02 297.019C128.921 284.3 130.756 269.652 130.838 269.034C130.89 268.642 131.243 268.364 131.642 268.418C132.035 268.47 132.31 268.83 132.258 269.223C132.239 269.368 130.417 283.983 138.23 296.252C138.442 296.586 138.345 297.028 138.011 297.241C137.892 297.316 137.759 297.353 137.627 297.353L137.625 297.351Z" fill="black"/>
<path d="M145.819 281.769C145.754 281.769 145.687 281.76 145.62 281.741L140.218 280.184C139.839 280.073 139.62 279.679 139.728 279.297C139.839 278.918 140.236 278.699 140.615 278.807L146.017 280.364C146.396 280.475 146.615 280.869 146.507 281.251C146.416 281.565 146.129 281.769 145.819 281.769Z" fill="black"/>
<path d="M144.781 286.466C144.696 286.466 144.612 286.451 144.529 286.42L139.427 284.501C139.056 284.363 138.87 283.948 139.009 283.58C139.148 283.209 139.562 283.022 139.93 283.161L145.033 285.08C145.403 285.219 145.59 285.633 145.451 286.002C145.343 286.288 145.069 286.466 144.781 286.466Z" fill="black"/>
<path d="M101.975 173.2C101.975 173.2 127.833 170.125 151.13 183.305C157.002 186.627 160.604 192.876 160.567 199.622C160.493 213.016 159.075 237.499 150.87 258.752C150.404 259.962 149.018 260.532 147.832 260.007L137.346 255.365C136.641 255.052 136.142 254.406 136.023 253.645C135.251 248.736 132.647 230.064 135.258 216.518C138.287 200.797 87.6333 184.135 87.6333 184.135L101.975 173.198V173.2Z" fill="black"/>
<path d="M180.592 252.908L171.246 259.051C170.622 259.461 169.791 259.357 169.288 258.806C163.538 252.502 131.075 217.097 122.935 212.461C113.994 207.37 97.2913 199.704 82.1191 199.795C66.9491 199.887 63.7485 189.348 63.7485 189.348L85.3825 175.371C85.3825 175.371 122.818 179.61 138.636 192.475C152.919 204.093 176.602 243.35 181.065 250.863C181.479 251.561 181.271 252.461 180.592 252.908Z" fill="black"/>
<path d="M160.397 218.342C160.174 218.342 159.955 218.238 159.816 218.042C153.508 209.265 143.692 197.508 138.184 193.028C132.226 188.182 122.487 184.003 109.245 180.61C108.861 180.512 108.631 180.122 108.729 179.738C108.827 179.354 109.215 179.122 109.601 179.222C123.047 182.667 132.967 186.937 139.089 191.915C144.689 196.471 154.616 208.352 160.978 217.205C161.208 217.526 161.137 217.973 160.816 218.205C160.69 218.296 160.543 218.339 160.399 218.339L160.397 218.342Z" fill="#673DE6"/>
<path d="M85.0404 141.305L87.8116 147.008C91.1097 153.795 96.1815 159.561 102.489 163.696L105.046 165.372C106.685 166.448 108.635 166.947 110.588 166.795L110.888 166.771C113.873 166.539 116.84 167.411 119.225 169.221L112.518 171.377C108.429 172.691 103.977 172.383 100.145 170.44C96.4743 168.579 91.9879 165.524 88.2452 160.652C80.4065 150.439 78.5938 144.15 78.5938 144.15L85.0425 141.308L85.0404 141.305Z" fill="white"/>
<path d="M107.426 172.897C104.798 172.897 102.204 172.285 99.8192 171.077C94.9598 168.612 90.8724 165.251 87.6762 161.085C79.844 150.883 77.9792 144.61 77.9033 144.348C77.8035 144.003 77.9748 143.639 78.3023 143.495L84.7511 140.653C85.1045 140.497 85.5165 140.648 85.6835 140.995L88.4547 146.698C91.6942 153.366 96.6837 159.036 102.881 163.1L105.437 164.776C106.936 165.758 108.744 166.22 110.531 166.084L110.828 166.06C113.992 165.808 117.125 166.734 119.653 168.653C119.866 168.814 119.972 169.08 119.927 169.345C119.881 169.607 119.695 169.824 119.441 169.906L112.734 172.062C110.986 172.623 109.197 172.903 107.426 172.903V172.897ZM79.4797 144.538C80.1302 146.314 82.5068 152.002 88.8103 160.214C91.8764 164.208 95.799 167.432 100.465 169.8C104.121 171.654 108.321 171.971 112.296 170.694L117.589 168.993C115.586 167.833 113.27 167.304 110.941 167.484L110.642 167.508C108.538 167.673 106.413 167.124 104.65 165.971L102.094 164.295C95.6797 160.09 90.519 154.22 87.1645 147.32L84.6947 142.24L79.4797 144.541V144.538Z" fill="black"/>
<path d="M76.5027 195.988C76.5027 195.988 68.0005 202.48 63.3254 200.611C58.6504 198.744 66.6973 190.747 69.0673 190.437C71.4374 190.127 76.5027 195.986 76.5027 195.986V195.988Z" fill="black"/>
<path d="M77.9838 100.234C81.8088 99.7027 86.1694 103.053 85.7357 108.762C85.3823 113.426 80.5164 114.836 78.2635 117.327C70.9799 125.383 77.9707 134.126 72.2766 142.162C66.8534 149.816 58.6201 144.547 47.6003 153.338C38.9268 160.257 70.4573 149.743 59.418 157.044C50.6122 162.868 34.0891 162.38 24.7542 151.677C15.8768 141.498 13.8342 126.218 22.9306 118.845C31.1076 112.216 36.8798 119.949 45.5989 113.73C54.1944 107.6 51.8308 101.656 57.1998 99.0956C64.5419 95.5936 67.1375 101.741 77.9816 100.236L77.9838 100.234Z" fill="black"/>
<path d="M32.7358 157.254C33.2237 154.385 33.9328 151.013 34.657 148.791C36.884 141.949 38.4018 137.498 46.0346 133.43C47.1773 132.821 48.3764 132.326 49.6059 131.916L54.2181 130.377C54.2181 130.377 73.2543 124.932 80.8805 132.291C81.4985 132.888 82.2792 133.56 82.7801 134.349L87.7478 141.839L87.7023 141.858C83.2875 143.662 81.44 148.94 83.8014 153.084C86.5162 157.848 90.2588 163.412 93.9819 165.726C95.1572 166.457 104.635 170.351 104.635 170.351C104.635 170.351 106.962 177.442 92.3773 183.522C77.7928 189.602 67.1655 191.805 64.1059 199.312C62.2953 203.757 54.9206 182.448 50.1718 162.482C49.259 158.64 45.6638 156.053 41.7325 156.419L32.738 157.254H32.7358Z" fill="white"/>
<path d="M63.4834 200.622C63.4508 200.622 63.4183 200.622 63.3901 200.617C62.7006 200.563 61.0851 200.439 56.7939 188.129C54.2742 180.902 51.6071 171.613 49.4756 162.647C48.6494 159.173 45.3426 156.801 41.7973 157.13L32.8029 157.965C32.5838 157.989 32.3627 157.902 32.2109 157.74C32.0591 157.577 31.9919 157.351 32.0309 157.132C32.6077 153.741 33.3341 150.541 33.976 148.567C36.153 141.878 37.7273 137.044 45.6983 132.794C46.8193 132.196 48.0228 131.686 49.378 131.233L53.9902 129.694C54.8142 129.457 73.5447 124.214 81.3747 131.773C81.4788 131.873 81.5872 131.975 81.6978 132.079C82.2703 132.619 82.9186 133.23 83.3827 133.961L88.3439 141.44C88.4632 141.62 88.4935 141.841 88.4307 142.047C88.3678 142.253 88.216 142.418 88.0165 142.5L87.971 142.52C86.0476 143.307 84.5558 144.883 83.8792 146.848C83.207 148.797 83.4043 150.942 84.4213 152.728C88.0078 159.023 91.4447 163.306 94.359 165.119C95.1852 165.632 101.118 168.133 104.906 169.69C105.099 169.77 105.249 169.93 105.314 170.128C105.418 170.442 107.675 177.921 92.6525 184.183C89.3652 185.553 86.2189 186.75 83.4434 187.804C73.9111 191.43 67.0243 194.049 64.7692 199.583C64.4093 200.465 63.8433 200.624 63.4834 200.624V200.622ZM42.4543 155.669C46.4008 155.669 49.9375 158.41 50.8677 162.315C55.4473 181.572 61.3649 197.879 63.401 199.134C63.414 199.108 63.427 199.078 63.4443 199.041C65.9336 192.93 73.0655 190.22 82.936 186.464C85.7028 185.413 88.8362 184.22 92.1017 182.858C104.123 177.847 104.186 172.211 104.008 170.865C102.109 170.082 94.7038 167.016 93.6023 166.331C90.4429 164.366 86.9345 160.027 83.1767 153.433C81.9537 151.289 81.7173 148.717 82.524 146.377C83.246 144.283 84.7422 142.554 86.6873 141.535L82.1792 134.739C81.8041 134.15 81.2251 133.603 80.7134 133.12C80.5984 133.011 80.4857 132.905 80.3794 132.801C73.1349 125.81 54.5995 131.006 54.4108 131.06L49.829 132.591C48.5519 133.018 47.4178 133.497 46.3683 134.056C38.9069 138.033 37.4844 142.4 35.3355 149.007C34.7718 150.74 34.1364 153.474 33.6008 156.452L41.6629 155.703C41.9274 155.68 42.192 155.667 42.4543 155.667V155.669Z" fill="black"/>
<path d="M89.5717 175.18L82.5093 173.168C81.4598 172.868 80.33 173.139 79.5277 173.879L76.4595 176.717C75.874 177.259 75.1042 177.552 74.3063 177.546C70.826 177.509 54.7799 173.788 53.0257 171.127C52.1583 169.811 50.84 165.205 49.8468 161.391C49.0142 158.195 45.9893 156.074 42.6998 156.382L35.6157 157.046C35.6157 157.046 38.6515 174.029 44.762 179.174C49.5064 183.17 60.2313 184.703 75.5617 182.919C75.5617 182.919 78.758 182.377 81.2733 179.009C82.8801 176.858 87.1344 177.684 89.589 176.936C90.4607 176.67 90.4499 175.434 89.5739 175.184L89.5717 175.18Z" fill="white"/>
<path d="M63.8088 184.372C54.6929 184.372 47.9449 182.791 44.302 179.723C38.0636 174.471 35.0387 157.876 34.9129 157.172C34.8782 156.974 34.9259 156.773 35.0473 156.612C35.1688 156.452 35.3509 156.352 35.5504 156.332L42.6345 155.669C46.2904 155.328 49.6146 157.657 50.5405 161.209C52.3597 168.183 53.2531 170.169 53.6239 170.733C55.1071 172.983 70.494 176.789 74.3147 176.83C74.9175 176.837 75.5224 176.611 75.9735 176.193L79.0417 173.354C80.0197 172.45 81.4248 172.114 82.7041 172.48L89.7666 174.493C90.467 174.692 90.9418 175.317 90.9484 176.045C90.9549 176.774 90.4908 177.407 89.7948 177.619C88.858 177.906 87.7565 177.977 86.5899 178.051C84.673 178.174 82.6911 178.302 81.8433 179.437C79.187 182.993 75.8195 183.6 75.6786 183.624C71.383 184.125 67.4083 184.372 63.8067 184.372H63.8088ZM36.4698 157.683C37.1442 161.02 40.104 174.315 45.2236 178.626C49.9333 182.592 60.9617 183.897 75.4791 182.206C75.4791 182.206 78.4021 181.653 80.7006 178.578C81.943 176.913 84.3651 176.756 86.501 176.62C87.5808 176.55 88.6022 176.485 89.3806 176.247C89.4739 176.219 89.5216 176.154 89.5216 176.056C89.5216 175.958 89.4717 175.893 89.3784 175.867L82.316 173.855C81.5115 173.625 80.6312 173.836 80.0175 174.404L76.9492 177.242C76.2402 177.899 75.3164 178.259 74.345 178.259H74.3038C70.8778 178.222 54.3937 174.493 52.4335 171.52C51.6875 170.388 50.586 167.04 49.1592 161.569C48.4111 158.698 45.7266 156.822 42.7711 157.091L36.4741 157.681L36.4698 157.683Z" fill="black"/>
<path d="M55.0074 130.498C55.0074 130.498 58.9842 117.676 59.1208 116.119C59.1208 116.119 57.8545 115.452 57.926 113.5C58.0605 109.788 61.7446 111.627 61.7446 111.627L62.1067 111.713C64.2187 112.223 66.4326 112.112 68.4861 111.397L72.7947 109.894C72.7947 109.894 73.6967 111.477 72.6472 114.532C72.1463 115.989 72.2439 117.681 72.5084 119.45C72.5778 119.916 72.2569 120.352 71.7907 120.424L70.6393 120.599C70.0386 121.994 69.5009 122.822 68.5056 123.718C68.2324 123.963 67.8746 124.097 67.5103 124.077C67.0137 124.051 66.2483 123.945 65.3896 123.585L64.7413 129.026L67.5992 128.956C67.5992 128.956 68.6292 132.365 63.2169 134.833C60.2289 136.194 55.9983 135.919 52.8065 135.396C51.1693 135.13 50.7617 132.963 52.1971 132.131L55.0095 130.496L55.0074 130.498Z" fill="white"/>
<path d="M57.6377 136.539C55.8835 136.539 54.151 136.344 52.6873 136.106C51.6378 135.934 50.8333 135.147 50.6404 134.104C50.4495 133.063 50.9157 132.046 51.833 131.515L54.4025 130.021C55.8662 125.294 57.9478 118.334 58.3403 116.432C57.8524 115.994 57.1455 115.077 57.2041 113.476C57.2518 112.188 57.6833 111.291 58.4921 110.811C59.8083 110.031 61.5517 110.751 61.9789 110.95L62.2673 111.02C64.2513 111.497 66.3156 111.395 68.2412 110.722L72.5497 109.22C72.875 109.107 73.2371 109.241 73.4084 109.541C73.4518 109.617 74.4579 111.442 73.3152 114.767C72.8295 116.182 72.9878 117.876 73.2089 119.346C73.3369 120.2 72.7471 121.003 71.8927 121.133L71.1273 121.25C70.5201 122.579 69.9325 123.395 68.9762 124.253C68.5599 124.626 68.0113 124.821 67.4649 124.795C67.0919 124.776 66.578 124.715 65.9882 124.552L65.5437 128.291L67.5755 128.241C67.9029 128.256 68.1848 128.443 68.278 128.75C68.3279 128.915 69.4229 132.79 63.5076 135.485C61.788 136.27 59.6955 136.539 57.6356 136.539H57.6377ZM59.8929 111.889C59.6457 111.889 59.4137 111.932 59.225 112.043C58.8651 112.258 58.6677 112.759 58.6395 113.528C58.5875 114.973 59.4288 115.473 59.4635 115.493C59.7042 115.632 59.856 115.905 59.8322 116.182C59.6934 117.77 56.1004 129.39 55.6905 130.711C55.6363 130.882 55.5214 131.027 55.3674 131.118L52.555 132.753C51.9631 133.096 52.0195 133.677 52.052 133.846C52.117 134.2 52.3794 134.607 52.9215 134.694C55.903 135.18 60.0598 135.49 62.9178 134.184C66.4566 132.571 66.9488 130.617 66.9618 129.692L64.7544 129.746C64.5462 129.735 64.3467 129.666 64.208 129.512C64.0692 129.358 64.002 129.152 64.0258 128.946L64.6742 123.505C64.7002 123.282 64.8303 123.084 65.0254 122.972C65.2184 122.859 65.4548 122.844 65.663 122.93C66.4284 123.251 67.1093 123.347 67.5429 123.369C67.7207 123.382 67.8877 123.312 68.0222 123.193C68.9004 122.404 69.3947 121.679 69.978 120.322C70.0756 120.096 70.2838 119.934 70.5266 119.897L71.6781 119.721C71.7539 119.708 71.8082 119.637 71.7973 119.561C71.5523 117.919 71.3788 116.011 71.9665 114.305C72.5432 112.626 72.4739 111.455 72.3416 110.816L68.7182 112.08C66.5325 112.843 64.1884 112.958 61.9355 112.416L61.5734 112.329C61.5213 112.316 61.4693 112.299 61.4216 112.273C61.1635 112.145 60.4892 111.893 59.8907 111.893L59.8929 111.889Z" fill="black"/>
<path d="M65.3836 124.303C65.2817 124.303 65.1776 124.281 65.0801 124.236L64.2886 123.865C63.9308 123.698 63.7769 123.271 63.9438 122.913C64.1108 122.555 64.538 122.399 64.8958 122.568L65.6872 122.939C66.045 123.106 66.199 123.533 66.032 123.891C65.9106 124.151 65.6525 124.303 65.3836 124.303Z" fill="black"/>
<path d="M123.641 168.488L91.0239 178.406L101.914 141.394C102.317 140.002 103.418 138.896 104.832 138.467L131.302 130.418C132.982 129.906 134.552 131.398 134.073 133.052L123.636 168.49L123.641 168.488Z" fill="black"/>
<path d="M115.866 153.895C115.48 155.229 114.199 156.603 113.004 156.968C111.809 157.332 111.152 156.545 111.536 155.211C111.922 153.878 113.203 152.503 114.398 152.139C115.593 151.774 116.25 152.562 115.866 153.895Z" fill="white"/>
<path d="M122.501 170.984L71.3361 186.542C70.2801 186.863 69.1612 186.267 68.8403 185.209L68.6885 184.935L123.681 168.213L123.833 168.486C124.154 169.544 123.557 170.663 122.501 170.984Z" fill="black"/>
<path d="M194.147 41.7642L218.087 59.1439L244.642 44.8592L194.147 41.7642Z" fill="white"/>
<path d="M202.96 59.0945L202.734 47.9975L231.235 46.7775L206.943 51.0526L211.947 54.6856L202.96 59.0945Z" fill="#CADDFF"/>
<path d="M204.603 56.5205C204.585 56.5141 204.566 56.5072 204.549 56.4978C204.31 56.3785 204.214 56.0873 204.334 55.8492L206.435 51.6699C206.555 51.4312 206.851 51.3333 207.084 51.4555C207.323 51.5749 207.419 51.866 207.298 52.1042L205.197 56.2834C205.086 56.5049 204.829 56.6036 204.602 56.522L204.603 56.5205Z" fill="white"/>
<path d="M81.6117 146.972C81.474 146.972 81.3347 146.92 81.2298 146.813C81.0184 146.602 81.0184 146.259 81.2298 146.048L82.4885 144.789C82.6999 144.578 83.0424 144.578 83.2538 144.789C83.4652 145.001 83.4652 145.343 83.2538 145.555L81.9952 146.813C81.8903 146.918 81.751 146.972 81.6133 146.972H81.6117Z" fill="black"/>
<path d="M86.3661 142.216C86.2284 142.216 86.0891 142.164 85.9842 142.057C85.7728 141.846 85.7728 141.503 85.9842 141.292L87.2429 140.033C87.4543 139.822 87.7968 139.822 88.0082 140.033C88.2196 140.245 88.2196 140.587 88.0082 140.799L86.7496 142.057C86.6447 142.162 86.5054 142.216 86.3677 142.216H86.3661Z" fill="black"/>
<path d="M87.6247 146.972C87.4871 146.972 87.3478 146.92 87.2429 146.813L85.9842 145.555C85.7728 145.343 85.7728 145.001 85.9842 144.789C86.1957 144.578 86.5382 144.578 86.7496 144.789L88.0082 146.048C88.2196 146.259 88.2196 146.602 88.0082 146.813C87.9033 146.918 87.764 146.972 87.6264 146.972H87.6247Z" fill="black"/>
<path d="M82.8689 142.216C82.7312 142.216 82.5919 142.164 82.487 142.057L81.2284 140.799C81.017 140.587 81.017 140.245 81.2284 140.033C81.4398 139.822 81.7823 139.822 81.9937 140.033L83.2524 141.292C83.4638 141.503 83.4638 141.846 83.2524 142.057C83.1475 142.162 83.0082 142.216 82.8705 142.216H82.8689Z" fill="black"/>
<path d="M151.628 8.45154C151.479 8.45154 151.329 8.38926 151.223 8.26962C151.025 8.0451 151.046 7.70422 151.269 7.50592L152.601 6.32595C152.826 6.12764 153.168 6.14895 153.365 6.37183C153.563 6.59636 153.542 6.93724 153.319 7.13554L151.987 8.31551C151.883 8.40729 151.756 8.45154 151.628 8.45154Z" fill="black"/>
<path d="M156.662 3.99548C156.513 3.99548 156.364 3.9332 156.258 3.81357C156.059 3.58905 156.081 3.24816 156.303 3.04986L157.636 1.86989C157.86 1.67159 158.203 1.69289 158.4 1.91578C158.598 2.1403 158.577 2.48118 158.354 2.67948L157.021 3.85946C156.918 3.95123 156.79 3.99548 156.662 3.99548Z" fill="black"/>
<path d="M157.629 8.81696C157.48 8.81696 157.331 8.75469 157.225 8.63505L156.045 7.30266C155.846 7.07814 155.868 6.73726 156.091 6.53896C156.315 6.34066 156.656 6.36196 156.854 6.58485L158.034 7.91723C158.233 8.14175 158.211 8.48264 157.988 8.68094C157.885 8.77271 157.757 8.81696 157.629 8.81696Z" fill="black"/>
<path d="M153.173 3.78242C153.024 3.78242 152.875 3.72014 152.769 3.6005L151.589 2.26812C151.39 2.04523 151.412 1.70271 151.635 1.50441C151.859 1.30611 152.202 1.32742 152.398 1.5503L153.578 2.88269C153.777 3.10721 153.755 3.44809 153.532 3.64639C153.429 3.73817 153.301 3.78242 153.173 3.78242Z" fill="black"/>
<path d="M137.501 13.9985C137.449 13.9985 137.399 13.997 137.347 13.9941C136.68 13.9528 136.069 13.6562 135.628 13.1559C135.185 12.6556 134.964 12.0136 135.005 11.3466C135.046 10.6796 135.343 10.0701 135.843 9.62737C136.344 9.18464 136.981 8.96476 137.653 9.0046C139.028 9.08872 140.079 10.2752 139.995 11.6521C139.914 12.9758 138.81 14 137.501 14V13.9985ZM137.498 9.97417C137.126 9.97417 136.77 10.1085 136.49 10.3564C136.184 10.6264 136.003 10.9998 135.978 11.4056C135.926 12.2453 136.568 12.9699 137.408 13.0216C138.245 13.0732 138.972 12.4313 139.024 11.5916C139.076 10.7519 138.434 10.0273 137.595 9.97712C137.563 9.97564 137.532 9.97417 137.499 9.97417H137.498Z" fill="black"/>
<path d="M257.623 285.109C257.474 285.109 257.325 285.047 257.218 284.927C257.02 284.703 257.041 284.362 257.264 284.164L258.596 282.984C258.821 282.785 259.163 282.807 259.36 283.03C259.558 283.254 259.537 283.595 259.314 283.793L257.982 284.973C257.878 285.065 257.751 285.109 257.623 285.109Z" fill="black"/>
<path d="M262.659 280.652C262.51 280.652 262.361 280.589 262.254 280.47C262.056 280.245 262.077 279.904 262.3 279.706L263.632 278.526C263.857 278.328 264.198 278.349 264.396 278.572C264.594 278.797 264.573 279.137 264.35 279.336L263.018 280.516C262.915 280.607 262.787 280.652 262.659 280.652Z" fill="black"/>
<path d="M263.626 285.475C263.477 285.475 263.328 285.413 263.221 285.293L262.041 283.961C261.843 283.736 261.864 283.395 262.087 283.197C262.31 282.999 262.654 283.02 262.851 283.243L264.031 284.575C264.229 284.8 264.208 285.141 263.985 285.339C263.882 285.431 263.754 285.475 263.626 285.475Z" fill="black"/>
<path d="M259.17 280.439C259.021 280.439 258.872 280.376 258.765 280.257L257.585 278.924C257.387 278.7 257.408 278.359 257.631 278.161C257.854 277.962 258.197 277.984 258.395 278.207L259.575 279.539C259.773 279.763 259.752 280.104 259.529 280.303C259.426 280.394 259.298 280.439 259.17 280.439Z" fill="black"/>
<path d="M118.417 69.6438C117.274 69.2329 116.134 68.7811 115.029 68.3032C114.765 68.1883 114.644 67.8816 114.759 67.6179C114.874 67.3542 115.164 67.2222 115.444 67.348C116.695 67.8897 117.99 68.3939 119.29 68.8479L119.294 68.8495C119.563 68.9461 119.703 69.2413 119.61 69.511C119.516 69.7822 119.218 69.9249 118.947 69.8308C118.771 69.7693 118.594 69.7073 118.419 69.6443L118.417 69.6438ZM122.918 71.0607C122.666 70.97 122.52 70.6981 122.592 70.4339C122.668 70.1563 122.953 69.9923 123.231 70.0686C124.541 70.4256 125.892 70.7455 127.251 71.0193C127.535 71.0778 127.715 71.3504 127.658 71.6335C127.601 71.9146 127.327 72.0978 127.044 72.0413C125.665 71.7615 124.29 71.4365 122.958 71.0751C122.945 71.0703 122.931 71.067 122.917 71.0622L122.918 71.0607ZM111.304 66.5183C111.282 66.5103 111.259 66.5003 111.238 66.4893C109.998 65.8377 108.773 65.1305 107.593 64.3894C107.349 64.2365 107.275 63.915 107.428 63.6716C107.581 63.4282 107.903 63.3529 108.146 63.5073C109.303 64.2348 110.505 64.927 111.72 65.5666C111.975 65.7003 112.073 66.0154 111.938 66.2702C111.816 66.5028 111.543 66.6042 111.301 66.5172L111.304 66.5183ZM131.077 72.7168C130.85 72.6352 130.704 72.4032 130.737 72.1555C130.777 71.8696 131.041 71.6712 131.325 71.7113C132.669 71.8979 134.051 72.0479 135.436 72.1586C135.725 72.1818 135.936 72.4323 135.914 72.7191C135.891 73.006 135.64 73.2191 135.353 73.1965C133.949 73.0838 132.545 72.9313 131.182 72.7427C131.145 72.7379 131.11 72.7285 131.076 72.7163L131.077 72.7168ZM104.256 62.0852C104.208 62.0681 104.163 62.0436 104.121 62.0132C103.004 61.1843 101.901 60.2998 100.842 59.3795C100.625 59.1908 100.601 58.8619 100.789 58.6448C100.978 58.4277 101.308 58.404 101.524 58.5922C102.564 59.4941 103.646 60.3626 104.742 61.1755C104.973 61.3476 105.021 61.673 104.851 61.9035C104.711 62.0928 104.467 62.1595 104.256 62.0837L104.256 62.0852ZM139.381 73.3874C139.175 73.3133 139.03 73.1138 139.036 72.8829C139.044 72.5957 139.283 72.3683 139.57 72.376C140.925 72.4122 142.319 72.4139 143.712 72.3801C144 72.3728 144.238 72.6009 144.245 72.8885C144.252 73.176 144.024 73.4142 143.737 73.4214C142.326 73.4538 140.915 73.4527 139.543 73.4172C139.487 73.4153 139.431 73.4056 139.38 73.3869L139.381 73.3874ZM97.9824 56.6149C97.9037 56.5866 97.8314 56.5405 97.7716 56.4738C96.8384 55.4376 96.0093 54.2612 95.3093 52.9771C95.1721 52.7249 95.2643 52.4078 95.5179 52.271C95.7701 52.1337 96.0867 52.2274 96.224 52.4796C96.8842 53.6925 97.6655 54.8014 98.5448 55.7779C98.7379 55.9915 98.7202 56.3203 98.5066 56.5134C98.3583 56.6462 98.157 56.6794 97.9818 56.6164L97.9824 56.6149ZM147.713 73.1966C147.525 73.1288 147.384 72.9544 147.37 72.743C147.349 72.4556 147.566 72.2068 147.853 72.1875C149.209 72.0935 150.599 71.9663 151.983 71.8101C152.269 71.7789 152.527 71.984 152.559 72.2686C152.592 72.5553 152.385 72.8129 152.1 72.8446C150.703 73.0025 149.297 73.1308 147.927 73.2265C147.853 73.2318 147.781 73.2211 147.715 73.1971L147.713 73.1966ZM155.998 72.2647C155.824 72.2023 155.69 72.0499 155.66 71.8532C155.616 71.5692 155.811 71.3024 156.096 71.2592C157.443 71.0512 158.82 70.8134 160.187 70.5525C160.469 70.4998 160.742 70.6833 160.798 70.9665C160.852 71.2491 160.667 71.5212 160.384 71.5755C159.005 71.8406 157.616 72.0805 156.256 72.2887C156.167 72.3021 156.08 72.2926 156.002 72.2643L155.998 72.2647ZM93.9839 49.3813C93.8355 49.3279 93.7126 49.2083 93.6625 49.0445C93.2547 47.7312 92.95 46.3361 92.7522 44.8955C92.714 44.6102 92.9137 44.3485 93.1975 44.3097C93.4828 44.2715 93.745 44.4697 93.7833 44.755C93.9715 46.1384 94.2659 47.478 94.6551 48.7359C94.7405 49.0113 94.587 49.3031 94.3121 49.3869C94.2005 49.4222 94.0854 49.4161 93.983 49.3792L93.9839 49.3813ZM164.19 70.696C164.029 70.6379 163.9 70.5011 163.859 70.3221C163.795 70.0412 163.97 69.7619 164.251 69.6986C165.584 69.3935 166.941 69.0585 168.285 68.7052C168.563 68.6324 168.849 68.7973 168.921 69.0764C168.994 69.354 168.829 69.64 168.55 69.7123C167.195 70.0698 165.827 70.406 164.482 70.7138C164.382 70.7364 164.281 70.7286 164.19 70.696ZM92.831 41.1609C92.6292 41.0883 92.4845 40.8938 92.4868 40.6684C92.4958 39.2821 92.5953 37.8629 92.7835 36.4489C92.8221 36.1644 93.0838 35.9635 93.3688 36.0006C93.6513 36.0401 93.8542 36.3008 93.8171 36.5858C93.6344 37.9566 93.5369 39.3329 93.5289 40.6743C93.5277 40.9621 93.2923 41.1926 93.0044 41.1914C92.9441 41.1915 92.886 41.1806 92.831 41.1609ZM172.257 68.5711C172.107 68.5172 171.983 68.3956 171.934 68.2303C171.852 67.9544 172.009 67.6637 172.284 67.5819C173.6 67.19 174.935 66.7697 176.25 66.334C176.522 66.244 176.817 66.3921 176.908 66.6647C176.998 66.9367 176.85 67.2321 176.578 67.3235C175.253 67.7625 173.908 68.1856 172.582 68.5807C172.472 68.613 172.358 68.6074 172.257 68.5711ZM180.179 65.9464C180.038 65.8957 179.92 65.7861 179.865 65.6342C179.766 65.3639 179.906 65.0653 180.176 64.9664C181.478 64.4909 182.784 63.9916 184.06 63.4816C184.327 63.3746 184.63 63.5039 184.737 63.7718C184.844 64.0383 184.715 64.3421 184.447 64.4486C183.161 64.9618 181.845 65.4659 180.533 65.9447C180.413 65.9888 180.289 65.9858 180.179 65.9464ZM93.9198 32.9201C93.6704 32.8304 93.525 32.5636 93.5925 32.3013C93.8751 31.2027 94.2131 30.104 94.5968 29.0368C94.6881 28.783 94.7828 28.5287 94.8806 28.2756C94.9825 28.0105 95.2771 27.8767 95.5427 27.9722L95.5546 27.9765C95.8226 28.0796 95.9573 28.3811 95.8537 28.6506C95.7586 28.8963 95.6671 29.1416 95.578 29.3895C95.2049 30.4271 94.8772 31.4926 94.6023 32.5604C94.5304 32.8396 94.247 33.0076 93.9678 32.9357C93.951 32.9313 93.9356 32.9274 93.9207 32.9221L93.9198 32.9201ZM187.927 62.8421C187.798 62.7957 187.686 62.6967 187.628 62.5616C187.511 62.2985 187.631 61.9915 187.895 61.8749C189.624 61.1155 190.901 60.5053 191.667 60.127C191.926 59.9989 192.238 60.106 192.365 60.3629C192.492 60.6213 192.387 60.9337 192.13 61.0609C191.353 61.4438 190.062 62.0608 188.314 62.8287C188.187 62.8851 188.049 62.8858 187.929 62.8426L187.927 62.8421ZM96.9107 25.1603C96.8884 25.1523 96.8652 25.1423 96.8425 25.1308C96.5877 24.9956 96.4913 24.681 96.6245 24.4272C97.2875 23.1704 98.0274 21.9564 98.8229 20.816C98.988 20.5803 99.3137 20.5231 99.5484 20.6862C99.784 20.8514 99.8418 21.1756 99.6781 21.4117C98.9068 22.5173 98.1898 23.6959 97.5476 24.9133C97.4254 25.1459 97.1512 25.2468 96.9107 25.1603ZM101.675 18.3516C101.613 18.3292 101.552 18.2938 101.5 18.2452C101.288 18.0517 101.275 17.7216 101.468 17.5095C102.431 16.4579 103.466 15.4772 104.543 14.5938C104.766 14.4125 105.094 14.4451 105.276 14.6664C105.459 14.8897 105.427 15.2167 105.204 15.3996C104.165 16.2514 103.166 17.198 102.238 18.2136C102.091 18.3738 101.868 18.421 101.676 18.3521L101.675 18.3516ZM108.104 13.1C107.994 13.0605 107.896 12.9834 107.833 12.8751C107.685 12.6277 107.768 12.3088 108.015 12.1614C109.234 11.4395 110.517 10.8115 111.826 10.2947C112.094 10.1882 112.397 10.3205 112.502 10.5879C112.608 10.8559 112.476 11.1571 112.208 11.2636C110.95 11.7616 109.718 12.3644 108.546 13.0579C108.408 13.1405 108.245 13.1507 108.104 13.1ZM115.819 10.0523C115.657 9.99413 115.527 9.85688 115.487 9.67483C115.423 9.39395 115.601 9.1157 115.883 9.05295C117.244 8.75098 118.654 8.54896 120.078 8.45105C120.365 8.43181 120.614 8.64868 120.633 8.93552C120.653 9.22235 120.436 9.47123 120.149 9.49047C118.776 9.58361 117.417 9.77884 116.108 10.069C116.007 10.0916 115.908 10.0828 115.819 10.0508L115.819 10.0523Z" fill="#673DE6"/>
<path d="M134.071 129.938C134.021 129.92 133.973 129.894 133.93 129.858C133.709 129.681 133.674 129.348 133.852 129.115C133.861 129.103 134.805 127.863 136.339 125.679C136.508 125.439 136.83 125.381 137.058 125.548C137.286 125.715 137.334 126.047 137.166 126.286C135.618 128.489 134.662 129.744 134.653 129.756C134.51 129.943 134.274 130.009 134.071 129.936L134.071 129.938ZM138.98 122.975C138.939 122.96 138.9 122.941 138.864 122.914C138.632 122.752 138.577 122.422 138.74 122.178C139.522 121.014 140.306 119.821 141.073 118.63C141.233 118.384 141.552 118.312 141.787 118.468C142.021 118.626 142.083 118.954 141.925 119.2C141.154 120.397 140.366 121.597 139.58 122.767C139.442 122.971 139.193 123.051 138.98 122.975ZM143.591 115.815C143.558 115.803 143.524 115.788 143.492 115.766C143.254 115.613 143.186 115.285 143.341 115.036C144.081 113.839 144.822 112.617 145.542 111.401C145.692 111.148 146.008 111.064 146.25 111.211C146.491 111.359 146.565 111.684 146.415 111.937C145.692 113.158 144.947 114.387 144.204 115.59C144.07 115.806 143.813 115.893 143.593 115.814L143.591 115.815ZM147.936 108.486C147.908 108.476 147.88 108.463 147.852 108.448C147.608 108.305 147.528 107.981 147.672 107.726C148.375 106.487 149.069 105.237 149.733 104.008C149.874 103.75 150.185 103.652 150.434 103.79C150.68 103.928 150.767 104.249 150.627 104.507C149.959 105.742 149.262 106.999 148.556 108.244C148.426 108.472 148.162 108.569 147.934 108.487L147.936 108.486ZM151.992 100.99C151.97 100.982 151.948 100.974 151.928 100.962C151.678 100.829 151.585 100.511 151.718 100.249C152.369 98.9835 153.01 97.7046 153.621 96.4477C153.749 96.1833 154.059 96.0682 154.312 96.197C154.565 96.3222 154.665 96.6394 154.537 96.9038C153.921 98.1677 153.278 99.4542 152.623 100.726C152.499 100.966 152.228 101.075 151.99 100.989L151.992 100.99ZM155.721 93.3214C155.706 93.3162 155.692 93.3109 155.679 93.3047C155.423 93.185 155.315 92.8718 155.438 92.6038C156.035 91.299 156.614 89.991 157.156 88.7161C157.272 88.4455 157.569 88.314 157.836 88.4287C158.095 88.5407 158.212 88.8505 158.096 89.1226C157.549 90.4061 156.967 91.7232 156.365 93.0366C156.249 93.29 155.969 93.4105 155.723 93.3219L155.721 93.3214ZM159.064 85.4779C159.064 85.4779 159.054 85.4743 159.048 85.4722C158.786 85.3677 158.661 85.062 158.768 84.7882C159.286 83.4754 159.781 82.1563 160.244 80.8699L160.264 80.8137C160.363 80.5373 160.66 80.3901 160.925 80.4854C161.19 80.5807 161.325 80.8831 161.226 81.1595L161.205 81.2157C160.739 82.5127 160.238 83.8419 159.716 85.1653C159.61 85.434 159.32 85.5717 159.061 85.4784L159.064 85.4779ZM161.941 77.4496C161.683 77.3568 161.546 77.0677 161.633 76.7937C162.071 75.4313 162.483 74.0651 162.857 72.73C162.936 72.4462 163.222 72.278 163.495 72.3521C163.763 72.4261 163.923 72.717 163.844 73.0008C163.467 74.3486 163.051 75.729 162.61 77.1035C162.519 77.3831 162.229 77.5411 161.96 77.4564C161.954 77.4543 161.948 77.4522 161.942 77.4501L161.941 77.4496ZM164.235 69.2376C163.994 69.1511 163.855 68.8899 163.917 68.6243C164.245 67.2312 164.539 65.8378 164.791 64.481C164.844 64.1914 165.115 63.9971 165.392 64.0453C165.668 64.0895 165.853 64.3669 165.799 64.6545C165.544 66.0275 165.245 67.4397 164.913 68.8484C164.846 69.1349 164.567 69.3158 164.291 69.2544C164.271 69.2506 164.252 69.2438 164.232 69.2365L164.235 69.2376ZM165.783 60.8656C165.563 60.7865 165.422 60.5573 165.455 60.3066C165.64 58.8881 165.783 57.4747 165.879 56.1097C165.9 55.8172 166.146 55.5901 166.429 55.6043C166.712 55.6201 166.926 55.8668 166.904 56.1593C166.807 57.5477 166.661 58.9824 166.472 60.4237C166.433 60.715 166.175 60.9257 165.894 60.8932C165.854 60.8892 165.818 60.8797 165.783 60.8671L165.783 60.8656ZM166.367 52.3917C166.171 52.3215 166.032 52.131 166.034 51.9033C166.035 50.4803 165.983 49.0705 165.878 47.7124C165.856 47.4215 166.067 47.1595 166.35 47.129C166.633 47.0969 166.881 47.3095 166.903 47.6004C167.01 48.987 167.063 50.4263 167.062 51.8768C167.062 52.17 166.831 52.413 166.547 52.4206C166.484 52.422 166.423 52.4122 166.368 52.3923L166.367 52.3917ZM165.703 43.9655C165.537 43.9058 165.409 43.7585 165.378 43.5671C165.147 42.1807 164.851 40.8155 164.498 39.5051C164.423 39.2243 164.583 38.9287 164.856 38.8432C165.129 38.7577 165.412 38.9163 165.488 39.1956C165.85 40.5381 166.152 41.94 166.39 43.36C166.438 43.6481 166.25 43.9271 165.97 43.9841C165.877 44.0039 165.785 43.9948 165.703 43.9655ZM163.513 35.8684C163.382 35.8213 163.271 35.7179 163.216 35.5745C162.718 34.291 162.148 33.0296 161.52 31.8295C161.386 31.574 161.481 31.2513 161.732 31.1066C161.983 30.9619 162.293 31.0511 162.427 31.3067C163.073 32.5425 163.66 33.8392 164.171 35.1599C164.275 35.4289 164.147 35.741 163.883 35.8556C163.76 35.9092 163.63 35.9103 163.515 35.8689L163.513 35.8684ZM159.662 28.5066C159.567 28.4726 159.481 28.4092 159.419 28.318C158.661 27.202 157.826 26.1146 156.941 25.0845C156.756 24.8686 156.779 24.5324 156.993 24.335C157.208 24.1376 157.533 24.1532 157.718 24.3692C158.629 25.429 159.486 26.5466 160.266 27.6949C160.428 27.9315 160.368 28.2632 160.135 28.4365C159.991 28.5427 159.814 28.5632 159.663 28.5087L159.662 28.5066ZM154.301 22.2539C154.24 22.2319 154.181 22.1972 154.131 22.1499C153.163 21.2409 152.122 20.3592 151.039 19.5273C150.814 19.3556 150.773 19.0233 150.945 18.7868C151.118 18.5488 151.44 18.4984 151.665 18.67C152.775 19.5221 153.84 20.4264 154.833 21.356C155.041 21.5508 155.05 21.8853 154.856 22.1053C154.71 22.2704 154.49 22.3235 154.3 22.2554L154.301 22.2539Z" fill="#673DE6"/>
<path d="M317.898 279.36C317.898 279.36 300.526 245.39 308.968 212.363C309.25 211.258 313.545 212.487 313.886 211.386C314.322 209.978 310.826 206.243 311.365 204.847C313.371 199.655 316.112 194.555 319.758 189.684C319.758 189.684 326.64 199.706 330.211 215.35C330.479 216.53 326.09 219.814 326.317 221.057C326.531 222.23 331.366 221.357 331.535 222.582C333.728 238.43 331.84 258.503 317.896 279.36H317.898Z" fill="#99B9FF"/>
<path d="M302.778 239.259C302.055 238.271 297.939 241.839 297.204 240.9C296.48 239.974 298.433 233.281 297.702 232.404C283.349 215.204 268.07 207.318 268.07 207.318C266.717 216.255 266.869 224.811 268.121 232.912C268.321 234.205 274.172 236.365 274.426 237.635C274.705 239.028 269.929 240.769 270.27 242.134C275.298 262.288 286.275 278.054 297.153 290.377C305.643 287.387 313.342 283.633 320.288 279.231C316.948 262.416 310.607 249.959 302.781 239.261L302.778 239.259Z" fill="#673DE6"/>
<path d="M307.069 279.06C306.895 279.06 306.724 278.977 306.62 278.821C302.773 273.108 299.025 267.213 295.479 261.302C295.325 261.046 295.408 260.714 295.664 260.559C295.92 260.405 296.252 260.489 296.406 260.745C299.945 266.64 303.683 272.518 307.518 278.216C307.685 278.464 307.619 278.802 307.372 278.967C307.278 279.029 307.174 279.059 307.07 279.059L307.069 279.06Z" fill="#CADDFF"/>
<path d="M290.99 253.073C290.801 253.073 290.618 252.975 290.519 252.8C284.787 242.689 279.434 232.201 274.608 221.627L272.402 216.792C272.277 216.52 272.397 216.199 272.669 216.076C272.941 215.952 273.262 216.071 273.385 216.343L275.591 221.178C280.404 231.724 285.744 242.185 291.46 252.267C291.608 252.527 291.516 252.857 291.257 253.004C291.172 253.052 291.081 253.075 290.99 253.075V253.073Z" fill="#CADDFF"/>
<path d="M316.915 281.258C316.915 281.258 310.04 244.954 345.58 232.353C345.58 232.353 348.558 264.044 316.915 281.258Z" fill="#673DE6"/>
<path d="M323.295 271.807C323.236 271.807 323.175 271.797 323.116 271.777C322.834 271.679 322.685 271.369 322.785 271.087C326.862 259.443 339.544 241.411 339.672 241.231C339.844 240.987 340.183 240.929 340.426 241.101C340.67 241.273 340.727 241.611 340.555 241.855C340.429 242.036 327.833 259.943 323.806 271.446C323.727 271.669 323.519 271.809 323.295 271.809V271.807Z" fill="#CADDFF"/>
</svg>
