<svg xmlns="http://www.w3.org/2000/svg" viewBox="0 0 1029.12 266"><defs><style>.cls-1{fill:#ee1c2a;}.cls-1,.cls-2,.cls-3,.cls-4,.cls-5{fill-rule:evenodd;}.cls-2{fill:#0c0c21;}.cls-3{fill:#fff;}.cls-4{fill:#f9abb0;}.cls-5{fill:#f78e95;}</style></defs><g id="Layer_2" data-name="Layer 2"><g id="Layer_1-2" data-name="Layer 1"><g id="Layer_1-3" data-name="Layer_1"><g id="_2478635831856" data-name=" 2478635831856"><path class="cls-1" d="M635.59,166.28l.89-.11,7.78,0v41.44l-.34-.12h-8.33V166.28Zm145.65,41.25-44.37,0v-29l8.67-.08v4l29.3.11c.58.38.22-.06.31.71l-.07,7.08c-1.48.39-25.82.15-29.47.15v9.07h35.78c.08.75.34,7.11-.15,8Zm-200.64,0-44.37,0v-29l8.67-.08v4l29.3.11c.48.34.3.88.29,1.67l0,6.12c-1.48.39-25.82.15-29.47.15v9.07h35.92a33.07,33.07,0,0,0-.07,4.1c0,.85.19,3.14-.22,3.86Zm-99.6,0-44.37,0v-29l8.68-.08v4l29.29.11c.62.44.31,7,.24,7.79-1.48.39-25.82.15-29.47.15v9.07h35.92c-.27,2.14.24,7-.29,8Zm355.55-41.39c8.22.59,37-.9,41.16.78a8.9,8.9,0,0,1,5.2,5.12c.75,2.15.46,7.42.46,10,0,5.26-.28,12.84-8.09,13,.64,1.5,7,10.4,8,12.48h-9.45c-.58-.12-5.43-7.83-6.34-9.26a32,32,0,0,1-2-3.22H845.08v12.47h-8.61V178.55l8.61-.08v8.66c2.75.26,18.41.06,22.52.06s6.94.7,7.15-4.17c.13-3.2.77-8.45-2.47-8.81l-35.79-.15c-.56-1.79-.18-6.1,0-7.75,0-.1.06-.11.09-.17Zm-99.6,0h44.34a3.54,3.54,0,0,1,.24,2c0,1.7.19,4.74-.18,6l-44.46-.06c-.36-1.15-.17-4.46-.18-6.15C736.7,166.94,736.6,166.79,737,166.14Zm-200.64,0h44.34c.53,1,.24,7.35,0,8l-44.44-.06c-.56-1.79-.18-6.1,0-7.75C536.23,166.21,536.28,166.2,536.31,166.14Zm-99.6,0h44.34a1.38,1.38,0,0,1,.22.57l0,1.44c0,1.7.19,4.74-.18,6l-44.46-.06c-.37-1.19-.36-7,.06-7.92Zm501.52,29.18,8.61-.1c0,4.88,1.61,4.45,6,4.45h20.64c2,0,2.86,0,3.27-1.84a19.23,19.23,0,0,0,0-5.14c-.54-2.72-3.51-1.93-8.34-1.93H947.76c-3.56,0-6.1-1.1-7.61-3-2-2.51-1.92-4.53-1.92-8.32,0-3.27-.35-6.52,1.15-9.08,3.12-5.34,9.39-4.16,16.54-4.16,6.87,0,13.78-.08,20.64,0,3.25,0,6.13,1.16,7.35,3,1.6,2.44,1.22,6,1.22,9.19l-8.26.07c0-5.21-1.26-4.45-5.83-4.45H950.39c-1.9,0-2.76.19-3.21,1.72a11.93,11.93,0,0,0-.19,4.72c.51,3.26,2.61,2.48,7.73,2.48h20.64c9.66,0,9.77,4.1,9.77,11.14,0,2.76.31,7.27-.72,9.53-2.34,5.11-10.8,3.91-17,3.91-6.82,0-13.85.17-20.65,0-9.21-.22-8.56-7.06-8.56-12.19Zm-594.75-.09c0,5,1.78,4.44,6.2,4.44h20.65c2.16,0,2.79-.2,3.09-2.25a17.58,17.58,0,0,0-.08-4.92c-.46-1.87-1.54-1.76-3.49-1.74H344.16c-3.44,0-5.92-1.18-7.36-3-2-2.58-1.93-4.69-1.93-8.56,0-3.28-.34-6.44,1.24-9,3.24-5.24,9.49-4,16.69-4,6.85,0,13.81-.13,20.64,0,3.19.06,6,1.2,7.2,3.17,1.5,2.37,1.13,6,1.11,9.11l-8.24-.07c0-5.24-1.37-4.38-6.07-4.38H346.79c-2,0-2.66.34-3.07,2.11a12.27,12.27,0,0,0-.06,4.52c.34,1.86.94,2.2,2.91,2.28,6.51.24,18.88,0,25.91,0,9.7,0,9.29,5.19,9.29,11.65,0,3,.42,7-.88,9.34-2.62,4.77-10.76,3.59-17.05,3.59-6.76,0-13.95.24-20.65,0a8.82,8.82,0,0,1-7-3.29c-1.65-2.19-1.3-5.74-1.3-9Zm321-13.4c7.91,0,13.22-.82,16.46,5.21,2,3.69,1.16,15.51,1.16,20.59-.73-.3-7.29-.13-8.61-.13V197c0-3.77.51-7.17-3.66-7.28-7.09-.17-14.45,0-21.57,0-.23-1.89-.09-5.75-.09-7.85H654c1,0,4.74-5,5.42-5.86l6.12-7.08c1-1.12,2.12-2.7,3.1-2.7l8.78.08c-.47.57-.85,1.08-1.44,1.78L664.5,181.83ZM291.12,217.59h738V156.15h-738v61.44Z"/><path class="cls-1" d="M102.48,22.47,95.17,31A104.75,104.75,0,0,0,87.29,42.8l-2.81,5.11C83,50.84,79,59.6,78.72,62.31L85.14,57c1.76-1.63,1.58-.88,2.63-3.37a100.23,100.23,0,0,1,5-9.84l3.48-5.64a77.8,77.8,0,0,1,6.37-8.5l6-6c5.56-5,6.17-3.86,13.16-4.85,1.43-.2,7.12-.71,8.5-.38V71.67l-5.52-.24c-2.28,0-3.64-.24-5.77-.23-3.68,0-7.52-.66-11-1C105.53,70,89.66,68,87.36,66.87c0,6.82-1.31,5.27,6.62,6.59,3.89.64,7.45,1.16,11.48,1.72a102.83,102.83,0,0,0,12.15,1c1.33,0,1.52.24,2.86.25l9.85.23v31.2c0,6.43-1.14,5.28,5.28,5.28V76.71l25.07-1.57c4-.58,7.82-1.11,11.48-1.72,6.31-1,6.94-.53,6.9-3.17,0-1.13,0-2.25,0-3.38-3.19.27-6.88,1.43-10.12,1.89-3.49.49-7,1.12-10.54,1.45-6.6.63-13.27,1.25-19.91,1.22-1.37,0-1.82.22-2.87.24V18.39h2.63a74.2,74.2,0,0,1,13.52,1.37c2.21.53,8.62,6.42,9.91,8.09l2.79,3.2a71.28,71.28,0,0,1,7.34,10.42A115.21,115.21,0,0,1,178,53.27c1.18,2.6,1,1.43,2.78,3.22l4.68,4.21a8.33,8.33,0,0,0,1.74,1.37c-1-4.4-4.75-12.74-7.1-16.66a130.92,130.92,0,0,0-9.46-14.53l-5.46-6.54a20.5,20.5,0,0,1-2-2.11c1.38.32,2.72.83,4.05,1.23s2.53.76,4,1.31,2.47.87,3.88,1.41a84.23,84.23,0,0,1,11,5c6.72,4,13.38,7.46,19.36,12.79l2.88,2.4c2.67,2.59,6,4.87,8.1,8A6.2,6.2,0,0,0,215,55l-4.8,2.16c-2.19,1-4.21,1.69-6.5,2.62-2.48,1-11.3,4.19-14.06,4.42a5,5,0,0,0,1.3,1.34c2.13,1.64,2.18,3.22,5.15,2.24,6.19-2,12.44-4.05,18.27-6.93,1.55-.77,4.52-2.52,6-2.65.19.72,4.81,6.25,5.42,7.07.94,1.25,1.7,2.34,2.6,3.64a112.39,112.39,0,0,1,13.47,27.12c0,.06,0,.13.06.18A124.29,124.29,0,0,1,247,118.91c.21,1.67.3,3.81.58,5.67l.34,5.89H218.15c-2.78-.05-1.91.74-1.91,5.29h31.68c0,1.4-.18,1.77-.24,2.88l-.68,8.69a121.9,121.9,0,0,1-7.86,29.82,103.22,103.22,0,0,1-13.47,24c-.95,1.26-1.79,2.35-2.71,3.53s-2.06,2.38-2.88,3.6a153.34,153.34,0,0,0-15.67-6.89c-2.82-1.1-5.47-1.88-8.42-2.86-3.22-1.07-3.08.47-5.19,2.07a5.48,5.48,0,0,0-1.44,1.44,22.2,22.2,0,0,1,3.63.94,126.08,126.08,0,0,1,23.49,9.14,25.57,25.57,0,0,1-3.9,4l-7.06,6.13a122.25,122.25,0,0,1-15.69,10.71c-.58.34-1.11.54-1.75.9s-.92.58-1.68,1a105.63,105.63,0,0,1-18.69,7.7c-1.49.42-2.82.92-4.27,1.25l4.63-5.2c.36-.43.58-.58.93-1A106.67,106.67,0,0,0,185.14,210a34.08,34.08,0,0,0,2.06-6.11l-6.3,5.46c-1.59,1.61-1.59.93-2.74,3.26-4,8.08-8.59,17.36-14.78,23.86a64.21,64.21,0,0,1-6,6c-5,4-3.51,3.45-10.65,4.46l-8.28.61c-1.39,0-1.66.24-2.87.24v-53c1.92,0,4.12-.1,6,0a247.31,247.31,0,0,1,27.22,2.78c2.27.38,8.45,1.78,10.22,1.78v-5a29.52,29.52,0,0,0-4.94-1.06c-5.52-1-21.18-3.31-26.74-3.26-3.7,0-8-.48-11.76-.48V150.63h-5.28v38.88c-2.15,0-3.34.25-5.52.24-.94,0-2,0-2.89,0-1.23,0-1.47.26-2.86.25-7.38,0-21.37,2-29.07,3.57a25.12,25.12,0,0,1-2.62.5v5.28c2-.16,7.39-1.38,9.94-1.81a191,191,0,0,1,33-2.75v53c-2.6-.6-5.62-.24-8.26-.61-2.83-.4-8.13-.42-10.09-1.92a75.09,75.09,0,0,1-8-7.12l-2.76-3.24c-5.62-6.29-10-14.79-13.54-22.46-1.09-2.34-.87-1.92-2.54-3.47-.6-.55-.93-.72-1.56-1.32a41.72,41.72,0,0,0-5.1-4.26c.16,2,3.54,9.77,4.32,11.52a101.49,101.49,0,0,0,15.43,24.17c.36.43.59.58.93,1,.78,1,2.53,2.24,2.84,3.39a16.13,16.13,0,0,0-1.83-.56,119.33,119.33,0,0,1-42.26-23.27c-2.36-2-6.55-5.7-8-7.85a102,102,0,0,1,12.75-5.49c2.27-.82,4.39-1.53,6.78-2.34,1.22-.41,2.29-.71,3.48-1.08a23,23,0,0,1,3.63-.93c-.21-.77-.62-.79-1.26-1.38-2.6-2.41-2.57-2.91-5.17-2.17-7,2-13.46,5-20.11,7.74A32.34,32.34,0,0,1,46.08,208l-6.76-8.84a92,92,0,0,1-8.2-13.64l-4-8.48a112.62,112.62,0,0,1-6-18.95,92.33,92.33,0,0,1-2.64-22.33H49.92c0-5.89,1.3-5.28-3.84-5.28H18.48c0-24.89,9.55-50.38,24.55-68.8l2.81-3.44c1.24.25.27,0,.91.32l2.93,1.37a185.48,185.48,0,0,0,19.83,7.77,13.15,13.15,0,0,0,2,.55c.64,0,.35,0,.91-.41,1.08-.8,2.75-2.82,3.86-3.12v-.48c-2-.17-5.13-1.41-7.15-2A92.69,92.69,0,0,1,57.61,58l-.83-.39a73,73,0,0,0-7.34-3.24c2-3,7.75-7.48,10.86-10.25A98.49,98.49,0,0,1,79.52,31.43a147,147,0,0,1,18.61-7.79,26,26,0,0,1,4.35-1.17Zm0,0h0M0,132.87a145.24,145.24,0,0,0,3.38,29.74,119.07,119.07,0,0,0,7.08,22L13,190.4a143.13,143.13,0,0,0,18.71,28.8,144.3,144.3,0,0,0,20.3,19.31,95.2,95.2,0,0,0,9.73,6.82l13.42,7.46c24.86,12.45,58.15,16.87,87.52,9.92a139.89,139.89,0,0,0,35.84-13.84c.94-.52,1.65-1,2.56-1.52s1.59-1,2.54-1.54a118.67,118.67,0,0,0,12.07-8.57l4.63-3.77a77.83,77.83,0,0,0,7.47-7.16c.35-.43.68-.7,1.07-1.1a118.59,118.59,0,0,0,14.85-18.27,130.57,130.57,0,0,0,18.86-43.3,135.14,135.14,0,0,0-3.68-73.94c-1.36-4.1-3-7.93-4.7-11.86-3.76-8.8-9.81-18.09-15.53-25.74l-4.64-5.69c-.49-.52-.51-.68-1-1.19l-1.92-2.16A143.22,143.22,0,0,0,209,23.72c-1.67-1.14-3.17-2.14-4.89-3.27a107.67,107.67,0,0,0-10.58-6,144,144,0,0,0-30.41-11.1c-15.76-4-29.21-3.9-45.52-2.5a121.59,121.59,0,0,0-14.13,2.42c-2.19.46-4.4,1.08-6.5,1.66A118.32,118.32,0,0,0,84.38,9.17L73,14.31c-1.93,1-3.55,1.9-5.45,3A108.17,108.17,0,0,0,55,25.35l-9.19,7.37A109,109,0,0,0,31.23,47.47L27.6,52c-1.21,1.62-2.39,3.12-3.55,4.85-.59.89-1.08,1.5-1.68,2.4L13.28,75.11A128.57,128.57,0,0,0,1,117.08c-.28,2.56-.45,5.22-.73,7.67L0,132.87"/><path class="cls-1" d="M54,89.43v87.12c0,.71,2,2,2.57,2.48.37.31.49.5.86.81l11,9.38c.36.33.48.5.86.81l6.34,5.42a9.32,9.32,0,0,0,.94.75c.38.31.5.48.86.81l3.62,3.1c.69.55,1.35,1.23,2,1.64l.24-55.2h99.6l.24,55.2,18.18-16.13c2.07-2.07,7.4-6.41,9.12-8.16,1.27-1.3,1.74-1.13,1.74-1.87V99c0-3.42-.24-6-.24-9.36-.93-.24-1.2-.91-1.86-1.49s-1.07-.84-1.8-1.57l-7.08-6.35a23.22,23.22,0,0,1-1.8-1.57L183.12,64.23l-.24,53H83.28l-.24-53L54.88,88.39c-.55.46-.88.34-.88,1Z"/><path class="cls-2" d="M531.12,68.55V87a19.54,19.54,0,0,0,11.52,18.24c4,1.79,7.24,1.92,13,1.92h59.52c2.73,0,4.84-.26,6.2,1.24,2.3,2.57,1.72,8.67,1.72,12.2,0,2.78-.71,6.49-3.49,7.07a14.08,14.08,0,0,1-3.23.37H558.48c-6.48,0-6.72-5.52-6.72-10.56H531.12c0,6.13-.7,14.63,1.68,19.45a13.5,13.5,0,0,0,4.56,5.52c3.76,2.89,8.71,4.55,15.36,4.55h69.36c6.93,0,11.25-1.62,15.29-4.62,3.84-2.85,5.59-7.77,5.59-14.34V107.43c0-5-.88-9-2.93-12-2.17-3.18-4.82-4.73-8.8-6.08-5.9-2-20.61-1.17-28.83-1.17h-30c-4.32,0-14.75.82-17.67-.81-4-2.22-3.39-14.19-1.7-17.6.81-1.62,3.08-2.47,5.45-2.47h60c5,0,4.56,7.19,4.56,10.56h19.2c.55,0,.72-.16.72-.72,0-6.82.81-16-2.73-21.26s-9.78-7.54-17.19-7.54H551.52C539.93,48.39,531.12,56.79,531.12,68.55Z"/><path class="cls-2" d="M917.28,68.31v58.56c0,5.18,2.72,11.19,6.38,14,2.83,2.19,3.48,3,7.64,4.59a26.69,26.69,0,0,0,9.5,1.54h87.36c.55,0,.72-.16.72-.72V88.23H956.4v19H1009v20.88H944.88c-5.67,0-7-3.25-7-8.4V74.79a11.16,11.16,0,0,1,1.53-5.42c.81-1.18,3.06-2,4.95-2h52.8c5,0,4.56,6.63,4.56,10.56h19.68c.55,0,.72-.16.72-.72,0-7.19,1.14-19.13-5-24a22.76,22.76,0,0,0-14.68-4.77H939.12c-10.91,0-21.84,8.32-21.84,19.92Z"/><path class="cls-2" d="M800.16,146.31c0,.56.17.72.72.72H820.8V67.59l13.92,19.68,1.68,2.4,5.23,7.49c.59.88,1.08,1.5,1.68,2.4l3.55,5.09c3.77,5.45,8.63,11.92,12.19,17.33,4.18,6.32,11.14,15.92,15.75,22.41.31.44.51.8.86,1.3.5.69.62.59.82,1.34h32.64V48.39H888.24v79.2c-1-.65-31.52-44.59-34.94-49.53l-7-10c-1.22-1.64-2.31-3.2-3.5-4.91l-6.91-9.89c-.42-.62-3-4.85-3.79-4.85H800.16Z"/><path class="cls-2" d="M411.36,66.15v1.2h86.88c5.41,0,5,7.52,5,12V117c0,2.94-.07,9.08-2.8,10.41a11.35,11.35,0,0,1-3.92.63H438.48a6.7,6.7,0,0,1-5.15-2.29,11.29,11.29,0,0,1-1.57-6.11v-42h-20.4v52.8c0,11.05,10.55,16.56,21.36,16.56H501.6c8.86,0,16-2.28,19.52-9.51a20.49,20.49,0,0,0,1.6-8.25V65.67c0-4.3-1.83-10.59-5.42-13.06A24.19,24.19,0,0,0,503,48.39H431.52c-10.62,0-20.16,8.29-20.16,17.76Z"/><polygon class="cls-2" points="291.6 147.03 312 147.03 312 108.15 382.32 108.15 382.32 147.03 402.96 147.03 402.96 48.39 382.32 48.39 382.32 87.27 312 87.27 312 48.39 291.6 48.39 291.6 147.03"/><path class="cls-2" d="M651.12,68.55c0,.56.17.72.72.72H762.72V48.39H651.12V68.55Z"/><path class="cls-2" d="M771.12,147h20.16c.55,0,.72-.16.72-.72V49.11c0-.55-.17-.72-.72-.72H771.12Z"/><path class="cls-2" d="M696.48,146.31c0,.56.17.72.72.72h20.16V79.59H696.48Z"/><path class="cls-3" d="M938.23,195.32c0,5.13-.65,12,8.56,12.19,6.8.17,13.83,0,20.65,0,6.17,0,14.63,1.2,17-3.91,1-2.26.72-6.77.72-9.53,0-7-.11-11.16-9.77-11.14H954.72c-5.12,0-7.22.78-7.73-2.48a11.87,11.87,0,0,1,.19-4.71c.45-1.54,1.31-1.7,3.21-1.73H971c4.57,0,5.83-.76,5.83,4.45l8.26-.07c0-3.15.38-6.75-1.22-9.19-1.22-1.86-4.1-3-7.35-3-6.86-.08-13.77,0-20.64,0-7.15,0-13.42-1.18-16.54,4.16-1.5,2.56-1.15,5.81-1.15,9.08,0,3.79-.06,5.81,1.92,8.32,1.51,1.91,4.05,3,7.61,3H968.4c4.83,0,7.8-.79,8.34,1.93a19.23,19.23,0,0,1,0,5.14c-.41,1.85-1.22,1.83-3.27,1.84H952.8c-4.35,0-5.95.43-6-4.45l-8.61.1Z"/><path class="cls-3" d="M343.48,195.23h-8.61c0,3.24-.35,6.79,1.3,9a8.82,8.82,0,0,0,7,3.29c6.7.24,13.89,0,20.65,0,6.29,0,14.43,1.18,17.05-3.59,1.3-2.38.88-6.38.88-9.34,0-6.46.41-11.68-9.29-11.65-7,0-19.4.24-25.91,0-2-.08-2.57-.42-2.91-2.28a12.06,12.06,0,0,1,.07-4.52c.4-1.77,1-2.06,3.06-2.11h20.65c4.7,0,6.07-.86,6.07,4.38l8.24.07c0-3.14.39-6.74-1.11-9.11-1.24-2-4-3.11-7.2-3.17-6.83-.13-13.79,0-20.64,0-7.2,0-13.45-1.23-16.69,4-1.58,2.55-1.24,5.71-1.24,9,0,3.87-.11,6,1.93,8.56,1.44,1.83,3.92,3,7.36,3h25.69c1.95,0,3-.13,3.49,1.74a17.58,17.58,0,0,1,.08,4.92c-.3,2.05-.93,2.22-3.09,2.25H349.68c-4.42,0-6.19.56-6.2-4.44Z"/><path class="cls-3" d="M872.28,174.21c3.24.36,2.6,5.61,2.47,8.81-.21,4.87-2.9,4.17-7.15,4.17s-19.77.2-22.52-.06v-8.66l-8.61.08V207.5h8.61V195H865.5a32,32,0,0,0,2,3.22c.91,1.43,5.76,9.14,6.34,9.26h9.45c-1-2.08-7.37-11-8-12.48,7.81-.12,8.09-7.7,8.09-13,0-2.61.29-7.88-.46-10a8.9,8.9,0,0,0-5.2-5.12c-4.2-1.68-32.94-.19-41.16-.78v7.74l35.14,0,.59.36Z"/><path class="cls-3" d="M580.6,207.53v-7.74H544.92c-.45-1.09-.45-8.43,0-9.44l29.28-.08v-7.71l-29.3-.11v-4l-8.67.08v29Z"/><path class="cls-3" d="M781.24,207.53v-7.74H745.56c-.45-1.09-.45-8.43,0-9.44l29.28-.08v-7.71l-29.3-.11v-4l-8.67.08v29Z"/><path class="cls-3" d="M481,207.53v-7.74H445.32c-.45-1.09-.45-8.43,0-9.44l29.28-.08v-7.71l-29.29-.11v-4l-8.68.08v29l44.37,0Z"/><path class="cls-3" d="M676,168.05c.59-.7,1-1.21,1.44-1.78l-8.78-.08c-1,0-2.15,1.58-3.1,2.7L659.42,176c-.68.87-4.42,5.86-5.42,5.86h-5.81c0,2.1-.14,6,.09,7.85,7.12,0,14.48-.18,21.57,0,4.17.11,3.66,3.51,3.66,7.28V207.5c1.32,0,7.88-.17,8.61.13,0-5.08.82-16.9-1.16-20.59-3.24-6-8.55-5.21-16.46-5.21L676,168.05Z"/><polygon class="cls-3" points="635.59 207.5 643.92 207.51 644.26 207.63 644.26 166.19 636.48 166.17 635.59 166.28 635.59 207.5"/><polygon class="cls-3" points="580.65 166.14 536.31 166.14 536.31 173.88 580.74 173.88 580.65 166.14"/><polygon class="cls-3" points="781.29 166.14 736.95 166.14 736.95 173.88 781.38 173.88 781.29 166.14"/><polygon class="cls-3" points="481.05 166.14 436.71 166.14 436.71 173.88 481.08 173.88 481.05 166.14"/><path class="cls-4" d="M481,207.53c.53-.92,0-5.82.29-8H445.37V190.5c3.65,0,28,.24,29.47-.15.07-.76.38-7.35-.24-7.79v7.71l-29.28.08c-.45,1-.45,8.35,0,9.44H481v7.74Z"/><path class="cls-4" d="M781.24,207.53c.49-.85.23-7.21.15-8H745.61V190.5c3.65,0,28,.24,29.47-.15l.07-7.08c-.09-.77.27-.33-.31-.71v7.71l-29.28.08c-.45,1-.45,8.35,0,9.44h35.68v7.74Z"/><path class="cls-4" d="M580.6,207.53c.41-.72.22-3,.22-3.86a33.07,33.07,0,0,1,.07-4.1H545V190.5c3.65,0,28,.24,29.47-.15l0-6.12c0-.79.19-1.33-.29-1.67v7.71l-29.28.08c-.45,1-.45,8.35,0,9.44H580.6v7.74Z"/><path class="cls-5" d="M481.05,166.14l0,7.74H436.71v-7.74c-.42.89-.43,6.73-.06,7.92l44.46.06c.37-1.23.17-4.27.18-6l0-1.44a1.38,1.38,0,0,0-.22-.57Z"/><path class="cls-5" d="M580.65,166.14l.09,7.74H536.31v-7.74c0,.06-.08.07-.09.17-.15,1.65-.53,6,0,7.75l44.44.06C580.89,173.49,581.18,167.13,580.65,166.14Z"/><path class="cls-5" d="M781.29,166.14l.09,7.74H737v-7.74c-.35.65-.25.8-.24,1.77,0,1.69-.18,5,.18,6.15l44.46.06c.37-1.23.17-4.27.18-6a3.54,3.54,0,0,0-.24-2Z"/><path class="cls-5" d="M872.28,174.21l-.59-.36-35.14,0v-7.74c0,.06-.08.07-.09.17-.15,1.65-.53,6,0,7.75Z"/></g></g></g></g></svg>