<svg width="399" height="301" viewBox="0 0 399 301" fill="none" xmlns="http://www.w3.org/2000/svg">
<path d="M229.83 14.695C233.261 21.995 225.991 24.064 217.663 27.977C209.335 31.89 203.103 36.167 199.673 28.866C196.243 21.565 193.459 7.07398 205.239 1.53798C217.426 -4.18802 226.399 7.39398 229.83 14.695Z" fill="#2F2E41"/>
<path d="M212.843 29.0529C219.035 29.0529 224.054 24.0335 224.054 17.8419C224.054 11.6502 219.035 6.63086 212.843 6.63086C206.651 6.63086 201.632 11.6502 201.632 17.8419C201.632 24.0335 206.651 29.0529 212.843 29.0529Z" fill="#FFB8B8"/>
<path d="M268.246 67.384C267.858 66.877 267.47 66.384 267.077 65.896C266.57 65.266 266.061 64.656 265.548 64.066C259.737 57.361 253.557 53.139 246.748 52.687H246.739L246.639 52.678L233.081 65.896L228.471 70.387L228.571 70.633L231.058 76.827H274.644C272.68 73.568 270.545 70.4159 268.246 67.384V67.384Z" fill="#2F2E41"/>
<path d="M200.655 22.3551L204.668 20.4691L204.109 14.6801L206.793 19.4711L208.711 18.5711L208.385 15.1941L209.95 17.9891L224.202 11.2891C222.863 8.44043 220.448 6.24021 217.487 5.17239C214.526 4.10456 211.263 4.2566 208.414 5.59505L206.349 6.56606C204.938 7.22887 203.672 8.16304 202.623 9.31524C201.573 10.4674 200.761 11.8151 200.232 13.2812C199.703 14.7474 199.468 16.3033 199.541 17.8602C199.614 19.4171 199.992 20.9445 200.655 22.3551V22.3551Z" fill="#2F2E41"/>
<path d="M294.192 225.399H60.1079C58.1113 225.396 56.1971 224.602 54.7853 223.19C53.3735 221.779 52.5793 219.864 52.5769 217.868V77.2109C52.5785 75.7479 53.1604 74.3453 54.1949 73.3108C55.2293 72.2763 56.6319 71.6945 58.0949 71.6929H296.11C297.598 71.6945 299.025 72.2863 300.077 73.3386C301.129 74.3909 301.721 75.8177 301.723 77.3059V217.866C301.721 219.863 300.927 221.778 299.515 223.19C298.103 224.602 296.189 225.396 294.192 225.399V225.399Z" fill="#F6D4E7"/>
<path d="M66.966 217.851H286.444C288.38 217.851 290.237 217.082 291.606 215.713C292.975 214.344 293.744 212.487 293.744 210.551V91.1669C293.744 89.2309 292.975 87.3741 291.606 86.0051C290.237 84.6361 288.38 83.8669 286.444 83.8669H66.966C66.0074 83.8669 65.0581 84.0557 64.1724 84.4226C63.2867 84.7895 62.482 85.3272 61.8041 86.0051C61.1263 86.6829 60.5886 87.4877 60.2217 88.3734C59.8549 89.259 59.666 90.2083 59.666 91.1669V210.551C59.666 211.51 59.8549 212.459 60.2217 213.345C60.5886 214.23 61.1263 215.035 61.8041 215.713C62.482 216.391 63.2867 216.928 64.1724 217.295C65.0581 217.662 66.0074 217.851 66.966 217.851V217.851Z" fill="white"/>
<path d="M301.618 77.0201H52.4709V73.1861C52.4739 71.1826 53.2713 69.2622 54.6884 67.846C56.1055 66.4299 58.0265 65.6337 60.0299 65.6321H294.059C296.062 65.6337 297.983 66.4299 299.4 67.846C300.818 69.2622 301.615 71.1826 301.618 73.1861V77.0201Z" fill="#FC5185"/>
<path d="M66.2079 73.287C67.2876 73.287 68.1629 72.4117 68.1629 71.332C68.1629 70.2522 67.2876 69.377 66.2079 69.377C65.1282 69.377 64.2529 70.2522 64.2529 71.332C64.2529 72.4117 65.1282 73.287 66.2079 73.287Z" fill="white"/>
<path d="M73.6291 73.287C74.7088 73.287 75.5841 72.4117 75.5841 71.332C75.5841 70.2522 74.7088 69.377 73.6291 69.377C72.5494 69.377 71.6741 70.2522 71.6741 71.332C71.6741 72.4117 72.5494 73.287 73.6291 73.287Z" fill="white"/>
<path d="M80.8051 73.287C81.8848 73.287 82.7601 72.4117 82.7601 71.332C82.7601 70.2522 81.8848 69.377 80.8051 69.377C79.7254 69.377 78.8501 70.2522 78.8501 71.332C78.8501 72.4117 79.7254 73.287 80.8051 73.287Z" fill="white"/>
<path d="M183.469 191.873H163.842C162.692 191.872 161.589 191.414 160.776 190.6C159.963 189.786 159.506 188.683 159.506 187.533V167.909C159.507 166.759 159.965 165.657 160.778 164.844C161.59 164.032 162.693 163.574 163.842 163.573H183.469C184.619 163.574 185.721 164.032 186.534 164.844C187.347 165.657 187.804 166.759 187.805 167.909V187.533C187.805 188.683 187.348 189.786 186.535 190.6C185.722 191.414 184.619 191.872 183.469 191.873V191.873ZM163.842 164.486C162.935 164.487 162.065 164.848 161.423 165.49C160.781 166.131 160.42 167.001 160.419 167.909V187.533C160.42 188.441 160.781 189.311 161.423 189.952C162.065 190.594 162.935 190.955 163.842 190.956H183.469C184.377 190.955 185.247 190.594 185.889 189.953C186.531 189.311 186.892 188.441 186.893 187.533V167.909C186.892 167.001 186.531 166.131 185.889 165.49C185.248 164.848 184.378 164.487 183.47 164.486H163.842Z" fill="#D8DBFE"/>
<path d="M179.586 186.399H167.718C167.355 186.398 167.007 186.254 166.751 185.997C166.494 185.741 166.35 185.393 166.349 185.03V170.423C166.35 170.06 166.494 169.712 166.751 169.456C167.007 169.199 167.355 169.054 167.718 169.054H176.318C176.63 169.054 176.933 169.159 177.176 169.354L180.444 171.98C180.604 172.108 180.733 172.27 180.822 172.455C180.911 172.64 180.957 172.842 180.956 173.047V185.027C180.956 185.207 180.921 185.385 180.852 185.552C180.783 185.718 180.683 185.869 180.555 185.997C180.428 186.124 180.277 186.225 180.111 186.294C179.944 186.363 179.766 186.399 179.586 186.399V186.399ZM167.718 169.967C167.597 169.967 167.481 170.015 167.396 170.101C167.311 170.186 167.262 170.302 167.262 170.423V185.029C167.262 185.15 167.311 185.266 167.396 185.351C167.481 185.437 167.597 185.485 167.718 185.485H179.586C179.707 185.485 179.823 185.437 179.908 185.351C179.994 185.266 180.042 185.15 180.042 185.029V173.049C180.042 172.981 180.027 172.913 179.998 172.852C179.968 172.79 179.925 172.736 179.872 172.693L176.603 170.066C176.522 170.001 176.421 169.966 176.317 169.966L167.718 169.967Z" fill="#D8DBFE"/>
<path d="M177.303 175.457H170.003C169.882 175.457 169.766 175.409 169.68 175.323C169.595 175.238 169.546 175.121 169.546 175C169.546 174.879 169.595 174.763 169.68 174.678C169.766 174.592 169.882 174.544 170.003 174.544H177.303C177.424 174.544 177.54 174.592 177.626 174.678C177.711 174.763 177.759 174.879 177.759 175C177.759 175.121 177.711 175.238 177.626 175.323C177.54 175.409 177.424 175.457 177.303 175.457Z" fill="#D8DBFE"/>
<path d="M177.303 178.187H170.003C169.882 178.187 169.766 178.139 169.68 178.053C169.595 177.968 169.546 177.851 169.546 177.73C169.546 177.609 169.595 177.493 169.68 177.408C169.766 177.322 169.882 177.274 170.003 177.274H177.303C177.424 177.274 177.54 177.322 177.626 177.408C177.711 177.493 177.759 177.609 177.759 177.73C177.759 177.851 177.711 177.968 177.626 178.053C177.54 178.139 177.424 178.187 177.303 178.187Z" fill="#D8DBFE"/>
<path d="M177.303 180.918H170.003C169.882 180.918 169.766 180.87 169.68 180.784C169.595 180.699 169.546 180.582 169.546 180.461C169.546 180.34 169.595 180.224 169.68 180.139C169.766 180.053 169.882 180.005 170.003 180.005H177.303C177.424 180.005 177.54 180.053 177.626 180.139C177.711 180.224 177.759 180.34 177.759 180.461C177.759 180.582 177.711 180.699 177.626 180.784C177.54 180.87 177.424 180.918 177.303 180.918V180.918Z" fill="#D8DBFE"/>
<path d="M229.873 191.873H210.245C209.095 191.872 207.992 191.414 207.179 190.6C206.366 189.786 205.909 188.683 205.909 187.533V167.909C205.91 166.759 206.367 165.657 207.18 164.844C207.993 164.032 209.095 163.574 210.245 163.573H229.872C231.022 163.574 232.124 164.032 232.936 164.844C233.749 165.657 234.207 166.759 234.208 167.909V187.533C234.208 188.683 233.751 189.786 232.938 190.6C232.125 191.413 231.023 191.871 229.873 191.873V191.873ZM210.245 164.486C209.337 164.487 208.467 164.848 207.826 165.49C207.184 166.131 206.823 167.001 206.822 167.909V187.533C206.823 188.441 207.184 189.311 207.826 189.952C208.467 190.594 209.337 190.955 210.245 190.956H229.872C230.78 190.955 231.65 190.594 232.292 189.953C232.934 189.311 233.295 188.441 233.296 187.533V167.909C233.295 167.001 232.934 166.131 232.292 165.49C231.65 164.848 230.78 164.487 229.873 164.486H210.245Z" fill="#D8DBFE"/>
<path d="M226.452 182.749H213.671C213.308 182.748 212.96 182.604 212.704 182.347C212.447 182.091 212.303 181.743 212.302 181.38V174.08C212.303 173.717 212.447 173.369 212.704 173.112C212.96 172.856 213.308 172.711 213.671 172.711H226.452C226.815 172.711 227.163 172.856 227.419 173.112C227.676 173.369 227.82 173.717 227.821 174.08V181.38C227.82 181.743 227.676 182.091 227.419 182.347C227.163 182.604 226.815 182.748 226.452 182.749V182.749ZM213.671 173.62C213.55 173.62 213.434 173.668 213.349 173.754C213.263 173.84 213.215 173.956 213.215 174.077V181.377C213.215 181.498 213.263 181.614 213.349 181.699C213.434 181.785 213.55 181.833 213.671 181.833H226.452C226.573 181.833 226.689 181.785 226.774 181.699C226.86 181.614 226.908 181.498 226.908 181.377V174.077C226.908 173.956 226.86 173.84 226.774 173.755C226.689 173.669 226.573 173.621 226.452 173.621L213.671 173.62Z" fill="#D8DBFE"/>
<path d="M220.061 178.938C219.804 178.938 219.553 178.867 219.335 178.731L212.515 174.469C212.419 174.402 212.352 174.301 212.329 174.186C212.305 174.071 212.327 173.951 212.389 173.852C212.451 173.752 212.549 173.681 212.663 173.651C212.776 173.622 212.897 173.638 212.999 173.695L219.818 177.957C219.891 178.002 219.975 178.026 220.06 178.026C220.146 178.026 220.229 178.002 220.302 177.957L227.121 173.695C227.172 173.66 227.229 173.635 227.29 173.622C227.351 173.61 227.413 173.61 227.474 173.622C227.535 173.635 227.592 173.659 227.643 173.695C227.694 173.73 227.737 173.775 227.77 173.828C227.803 173.88 227.824 173.939 227.834 174C227.843 174.061 227.84 174.124 227.825 174.184C227.81 174.244 227.782 174.3 227.744 174.349C227.707 174.398 227.659 174.439 227.605 174.469L220.786 178.731C220.568 178.866 220.317 178.938 220.061 178.938V178.938Z" fill="#D8DBFE"/>
<path d="M137.065 191.873H117.438C116.288 191.872 115.185 191.414 114.372 190.6C113.559 189.786 113.102 188.683 113.102 187.533V167.909C113.103 166.759 113.561 165.657 114.374 164.844C115.186 164.032 116.288 163.574 117.438 163.573H137.065C138.215 163.574 139.317 164.032 140.13 164.844C140.942 165.657 141.4 166.759 141.401 167.909V187.533C141.401 188.683 140.944 189.786 140.131 190.6C139.318 191.414 138.215 191.872 137.065 191.873V191.873ZM117.438 164.486C116.531 164.487 115.661 164.848 115.019 165.49C114.377 166.131 114.016 167.001 114.015 167.909V187.533C114.016 188.441 114.377 189.311 115.019 189.952C115.661 190.594 116.531 190.955 117.438 190.956H137.065C137.973 190.955 138.843 190.594 139.485 189.953C140.127 189.311 140.488 188.441 140.489 187.533V167.909C140.488 167.001 140.127 166.131 139.485 165.49C138.844 164.848 137.974 164.487 137.066 164.486H117.438Z" fill="#D8DBFE"/>
<path d="M133.634 182.749H120.854C120.491 182.748 120.143 182.604 119.887 182.347C119.63 182.091 119.486 181.743 119.485 181.38V174.08C119.486 173.717 119.63 173.369 119.887 173.112C120.143 172.856 120.491 172.711 120.854 172.711H133.634C133.997 172.711 134.345 172.856 134.602 173.112C134.858 173.369 135.003 173.717 135.003 174.08V181.38C135.003 181.743 134.858 182.091 134.602 182.347C134.345 182.604 133.997 182.748 133.634 182.749V182.749ZM120.854 173.62C120.733 173.62 120.617 173.668 120.532 173.754C120.446 173.84 120.398 173.956 120.398 174.077V181.377C120.398 181.498 120.446 181.614 120.532 181.699C120.617 181.785 120.733 181.833 120.854 181.833H133.634C133.755 181.833 133.871 181.785 133.956 181.699C134.042 181.614 134.09 181.498 134.09 181.377V174.077C134.09 173.956 134.042 173.84 133.956 173.755C133.871 173.669 133.755 173.621 133.634 173.621L120.854 173.62Z" fill="#D8DBFE"/>
<path d="M131.606 182.745H122.42C122.26 182.745 122.102 182.703 121.964 182.623C121.825 182.543 121.71 182.428 121.63 182.289C121.549 182.15 121.507 181.993 121.507 181.832C121.507 181.672 121.549 181.515 121.629 181.376L124.396 176.586C124.476 176.447 124.591 176.332 124.73 176.252C124.869 176.172 125.026 176.13 125.187 176.13C125.347 176.13 125.504 176.172 125.643 176.252C125.782 176.332 125.897 176.447 125.977 176.586L127.764 179.686L128.796 177.886C128.876 177.747 128.991 177.632 129.13 177.552C129.269 177.472 129.426 177.43 129.587 177.43C129.747 177.43 129.904 177.472 130.043 177.552C130.182 177.632 130.297 177.747 130.377 177.886L132.392 181.377C132.472 181.516 132.514 181.673 132.514 181.833C132.514 181.994 132.472 182.151 132.392 182.29C132.312 182.429 132.196 182.544 132.057 182.624C131.919 182.704 131.761 182.746 131.601 182.746L131.606 182.745ZM131.606 181.832L129.596 178.341L128.166 180.819C128.126 180.889 128.067 180.947 127.997 180.987C127.927 181.027 127.847 181.048 127.766 181.047V181.047C127.685 181.048 127.606 181.027 127.535 180.987C127.465 180.947 127.407 180.889 127.366 180.819L125.184 177.039L122.417 181.832H131.606Z" fill="#D8DBFE"/>
<path d="M132.242 176.368C132.746 176.368 133.155 175.959 133.155 175.455C133.155 174.951 132.746 174.542 132.242 174.542C131.738 174.542 131.329 174.951 131.329 175.455C131.329 175.959 131.738 176.368 132.242 176.368Z" fill="#D8DBFE"/>
<path d="M349.699 294.919H344.099L341.437 273.335H349.696L349.699 294.919Z" fill="#FFB8B8"/>
<path d="M351.127 300.343H333.083V300.115C333.083 299.193 333.265 298.28 333.618 297.427C333.971 296.575 334.488 295.801 335.14 295.149C335.792 294.497 336.566 293.98 337.418 293.627C338.271 293.274 339.184 293.092 340.106 293.092H351.127V300.343Z" fill="#2F2E41"/>
<path d="M372.522 294.919H366.922L364.26 273.335H372.519L372.522 294.919Z" fill="#FFB8B8"/>
<path d="M373.951 300.343H355.907V300.115C355.907 299.193 356.089 298.28 356.442 297.427C356.795 296.575 357.312 295.801 357.964 295.149C358.616 294.497 359.39 293.98 360.242 293.627C361.094 293.274 362.008 293.092 362.93 293.092H373.951V300.343Z" fill="#2F2E41"/>
<path d="M370.844 285.562L365.661 283.985C365.275 283.868 364.931 283.639 364.674 283.328C364.417 283.017 364.258 282.636 364.216 282.235L359.384 236.446C359.379 236.391 359.354 236.341 359.314 236.304C359.273 236.267 359.221 236.246 359.166 236.246C359.11 236.241 359.055 236.257 359.011 236.292C358.968 236.327 358.94 236.378 358.933 236.433L350.84 280.799C350.791 281.068 350.688 281.325 350.539 281.554C350.389 281.783 350.195 281.98 349.968 282.133C349.741 282.286 349.486 282.392 349.218 282.445C348.949 282.498 348.673 282.497 348.405 282.442L341.781 281.078C341.295 280.976 340.862 280.703 340.562 280.308C340.261 279.913 340.114 279.422 340.146 278.927L345.069 206.209L378.453 202.609L373.491 283.721C373.472 284.031 373.384 284.332 373.232 284.603C373.08 284.874 372.868 285.106 372.614 285.284C372.359 285.461 372.067 285.578 371.76 285.626C371.453 285.674 371.14 285.652 370.843 285.561L370.844 285.562Z" fill="#2F2E41"/>
<path d="M370.813 143.4C377.005 143.4 382.024 138.381 382.024 132.189C382.024 125.997 377.005 120.978 370.813 120.978C364.621 120.978 359.602 125.997 359.602 132.189C359.602 138.381 364.621 143.4 370.813 143.4Z" fill="#FFB8B8"/>
<path d="M345.018 206.987L352.256 161.41C352.641 158.986 353.537 156.672 354.885 154.622C356.234 152.572 358.003 150.833 360.076 149.52C362.149 148.207 364.478 147.35 366.908 147.007C369.338 146.664 371.813 146.843 374.168 147.531V147.531C378.286 148.722 381.812 151.405 384.057 155.057C386.302 158.708 387.106 163.066 386.31 167.278L378.737 207.978L345.018 206.987Z" fill="#FC5185"/>
<path d="M373.905 215.066C374.465 214.697 374.938 214.209 375.289 213.637C375.64 213.065 375.861 212.423 375.938 211.756C376.014 211.09 375.943 210.414 375.73 209.778C375.517 209.142 375.167 208.56 374.705 208.073L382.189 193.58L373.761 194.48L367.943 208.106C367.178 208.937 366.745 210.02 366.724 211.149C366.704 212.278 367.099 213.376 367.834 214.234C368.568 215.091 369.592 215.65 370.711 215.804C371.83 215.957 372.966 215.695 373.905 215.067V215.066Z" fill="#FFB8B8"/>
<path d="M375.512 205.588C375.098 205.53 374.711 205.347 374.404 205.063L371.541 202.417C371.231 202.13 371.017 201.755 370.928 201.342C370.838 200.93 370.878 200.5 371.041 200.11L376.764 186.545L375.952 159.745C376.203 158.018 377.126 156.461 378.52 155.411C379.914 154.362 381.666 153.905 383.395 154.141C385.123 154.377 386.689 155.286 387.751 156.671C388.813 158.055 389.285 159.803 389.064 161.534L390.452 178.382C390.874 183.496 389.424 188.589 386.372 192.713L377.447 204.778C377.275 205.01 377.057 205.203 376.806 205.345C376.554 205.487 376.276 205.574 375.989 205.601C375.83 205.616 375.67 205.611 375.512 205.588V205.588Z" fill="#FC5185"/>
<path d="M306.49 126.084C306.612 126.744 306.877 127.369 307.267 127.915C307.657 128.461 308.162 128.915 308.746 129.245C309.33 129.575 309.98 129.773 310.649 129.825C311.318 129.877 311.99 129.781 312.618 129.545L323.046 142.087L325.504 133.975L315.225 123.308C314.758 122.279 313.93 121.458 312.898 120.998C311.866 120.539 310.701 120.475 309.625 120.817C308.548 121.159 307.634 121.884 307.057 122.855C306.479 123.826 306.277 124.975 306.49 126.084V126.084Z" fill="#FFB8B8"/>
<path d="M314.421 131.237C314.636 130.878 314.956 130.594 315.337 130.422L318.89 128.817C319.275 128.644 319.704 128.594 320.119 128.673C320.534 128.751 320.914 128.956 321.209 129.258L331.469 139.817L356.469 149.517C357.226 149.956 357.888 150.541 358.417 151.237C358.946 151.933 359.332 152.728 359.552 153.574C359.772 154.421 359.822 155.303 359.7 156.169C359.577 157.035 359.284 157.868 358.837 158.62C358.39 159.372 357.799 160.028 357.097 160.55C356.395 161.072 355.597 161.449 354.748 161.661C353.899 161.872 353.017 161.913 352.152 161.782C351.288 161.65 350.457 161.348 349.71 160.894L333.654 155.603C328.781 153.998 324.656 150.677 322.048 146.259L314.418 133.337C314.272 133.088 314.179 132.812 314.146 132.525C314.113 132.238 314.141 131.948 314.228 131.673C314.275 131.521 314.34 131.374 314.421 131.237V131.237Z" fill="#FC5185"/>
<path opacity="0.1" d="M379.906 170.882L379.45 185.488L371.041 200.1L378.062 183.817L379.906 170.882Z" fill="black"/>
<path d="M369.527 134.301C368.823 134.392 368.11 134.225 367.519 133.831C366.929 133.436 366.502 132.841 366.318 132.155C366.14 131.366 365.751 130.64 365.192 130.055C364.633 129.47 363.925 129.048 363.145 128.835C361.089 128.365 358.575 129.335 357.068 127.775C356.745 127.419 356.512 126.992 356.387 126.528C356.262 126.064 356.249 125.578 356.349 125.108C356.726 123.644 357.63 122.372 358.888 121.535C361.368 119.619 364.37 118.497 367.499 118.317C369.119 118.27 370.74 118.351 372.347 118.558C374.03 118.664 375.694 118.968 377.306 119.464C379.141 120.157 380.772 121.302 382.048 122.792C383.324 124.283 384.204 126.071 384.606 127.991C384.974 129.917 384.918 131.901 384.44 133.803C383.963 135.706 383.076 137.481 381.841 139.005C380.363 140.845 378.457 142.296 376.29 143.231C375.774 143.474 375.182 143.504 374.644 143.314C373.294 142.777 373.515 141.105 374.13 139.99C374.789 138.797 375.802 137.641 375.272 136.19C375.007 135.517 374.497 134.968 373.845 134.654C372.484 134.111 370.991 133.987 369.559 134.298L369.527 134.301Z" fill="#2F2E41"/>
<path d="M302.949 140.682H164.189C162.192 140.68 160.278 139.885 158.866 138.474C157.455 137.062 156.66 135.148 156.658 133.151V103.481C156.66 101.484 157.455 99.5702 158.866 98.1584C160.278 96.7465 162.192 95.9523 164.189 95.95H302.949C304.946 95.9523 306.86 96.7465 308.272 98.1584C309.683 99.5702 310.478 101.484 310.48 103.481V133.15C310.478 135.147 309.684 137.061 308.272 138.473C306.86 139.885 304.946 140.68 302.949 140.682V140.682Z" fill="white"/>
<path d="M302.948 140.91H164.189C162.132 140.908 160.159 140.09 158.704 138.635C157.249 137.18 156.431 135.207 156.429 133.15V103.482C156.431 101.424 157.249 99.4519 158.704 97.9971C160.159 96.5423 162.132 95.724 164.189 95.7219H302.949C305.006 95.724 306.979 96.5423 308.434 97.9971C309.889 99.4519 310.707 101.424 310.709 103.482V133.151C310.707 135.208 309.888 137.181 308.433 138.635C306.978 140.09 305.005 140.908 302.948 140.91V140.91ZM164.188 96.6349C162.373 96.6368 160.632 97.3587 159.348 98.6424C158.065 99.9261 157.343 101.667 157.341 103.482V133.151C157.343 134.966 158.065 136.707 159.348 137.99C160.632 139.274 162.373 139.996 164.188 139.998H302.948C304.763 139.996 306.504 139.274 307.787 137.99C309.071 136.707 309.793 134.966 309.795 133.151V103.482C309.793 101.667 309.071 99.9261 307.787 98.6424C306.504 97.3587 304.763 96.6368 302.948 96.6349H164.188Z" fill="#3F3D56"/>
<path d="M286.081 133.374H181.098C179.101 133.372 177.187 132.577 175.775 131.166C174.364 129.754 173.569 127.84 173.567 125.843V110.323C173.569 108.326 174.364 106.412 175.775 105C177.187 103.589 179.101 102.794 181.098 102.792H286.081C288.077 102.794 289.992 103.589 291.404 105C292.815 106.412 293.609 108.326 293.612 110.323V125.842C293.609 127.839 292.815 129.753 291.404 131.165C289.992 132.576 288.077 133.371 286.081 133.373V133.374Z" fill="#F2F2F2"/>
<path d="M203.827 125.012C208.801 125.012 212.834 120.979 212.834 116.005C212.834 111.031 208.801 106.998 203.827 106.998C198.853 106.998 194.82 111.031 194.82 116.005C194.82 120.979 198.853 125.012 203.827 125.012Z" fill="#FF6584"/>
<path d="M279.571 132.453L266.857 121.794L254.363 111.316C254.034 111.039 253.617 110.887 253.187 110.887C252.757 110.887 252.34 111.039 252.011 111.316L239.558 121.844L236.516 124.415L231.93 120.568L217.992 108.878C217.663 108.601 217.246 108.449 216.816 108.449C216.386 108.449 215.969 108.601 215.64 108.878L201.747 120.622L187.635 132.551C187.563 132.612 187.511 132.693 187.487 132.784C187.463 132.875 187.468 132.971 187.501 133.059C187.534 133.148 187.593 133.223 187.671 133.277C187.749 133.33 187.841 133.357 187.935 133.356L216.868 133.3L226.026 133.282L225.936 133.358L253.236 133.305L279.284 133.255C279.378 133.255 279.469 133.226 279.546 133.172C279.622 133.119 279.68 133.042 279.712 132.954C279.744 132.866 279.748 132.771 279.724 132.68C279.699 132.59 279.648 132.509 279.576 132.449L279.571 132.453Z" fill="#3F3D56"/>
<path d="M398.288 301H310.654C310.533 301 310.417 300.952 310.331 300.866C310.246 300.781 310.198 300.665 310.198 300.543C310.198 300.422 310.246 300.306 310.331 300.221C310.417 300.135 310.533 300.087 310.654 300.087H398.292C398.413 300.087 398.529 300.135 398.615 300.221C398.7 300.306 398.749 300.422 398.749 300.543C398.749 300.665 398.7 300.781 398.615 300.866C398.529 300.952 398.413 301 398.292 301H398.288Z" fill="#D8DBFE"/>
<path d="M274.92 60.21C274.556 59.6176 274.074 59.1056 273.505 58.7054C272.936 58.3052 272.292 58.025 271.611 57.882C271.362 57.8281 271.108 57.7947 270.853 57.782L236.076 26.689C235.393 25.9867 234.482 25.5513 233.506 25.4609C233.314 25.4389 233.12 25.4329 232.926 25.443C232.124 25.4794 231.349 25.7489 230.698 26.2185C230.046 26.688 229.545 27.3373 229.257 28.0869C228.968 28.8366 228.904 29.654 229.073 30.4393C229.241 31.2247 229.635 31.9439 230.206 32.509L243.521 44.116L265.385 63.173C265.403 63.532 265.457 63.8884 265.545 64.2369C265.807 65.2461 266.369 66.1518 267.157 66.834C267.946 67.5163 268.923 67.9428 269.959 68.057C270.904 68.1676 271.862 68.0095 272.721 67.6009C273.402 67.2822 274.007 66.8196 274.492 66.245C274.542 66.186 274.592 66.131 274.633 66.067C275.271 65.2351 275.641 64.2285 275.692 63.1813C275.743 62.1341 275.474 61.0962 274.92 60.206V60.21Z" fill="#FFB8B8"/>
<path d="M215.579 90.177L215.255 77.004L214.981 66.072L214.794 58.422L214.424 43.51C214.352 42.7113 214.048 41.951 213.551 41.322C213.053 40.6929 212.383 40.2224 211.623 39.9679C210.862 39.7133 210.044 39.6858 209.268 39.8886C208.492 40.0914 207.792 40.5159 207.253 41.11C207.127 41.2457 207.012 41.3923 206.911 41.548C206.349 42.353 206.096 43.3337 206.199 44.31L207.012 66.069L207.418 77.001L207.938 90.945C207.788 91.1501 207.653 91.3652 207.532 91.589C207.084 92.4431 206.884 93.4057 206.955 94.3676C207.026 95.3296 207.365 96.2524 207.934 97.0314C208.503 97.8104 209.278 98.4143 210.173 98.7748C211.068 99.1352 212.046 99.2378 212.996 99.0707C213.946 98.9037 214.83 98.4737 215.548 97.8297C216.266 97.1856 216.789 96.3533 217.058 95.4269C217.327 94.5006 217.331 93.5175 217.07 92.589C216.808 91.6605 216.292 90.8239 215.579 90.174V90.177Z" fill="#FFB8B8"/>
<path d="M246.839 52.8621L243.612 44.1211L238.39 29.9621C238.013 28.9319 237.409 27.9998 236.623 27.235C235.837 26.4702 234.888 25.8922 233.848 25.5441C233.766 25.5171 233.679 25.4891 233.597 25.4661C232.59 25.1606 231.528 25.0767 230.485 25.2202C229.442 25.3636 228.442 25.731 227.554 26.2971L209.967 37.4531C208.356 38.4724 207.205 40.0779 206.756 41.9304C206.307 43.783 206.596 45.7375 207.561 47.3811C209.761 51.184 212.157 54.8693 214.741 58.4221C216.791 61.2111 220.606 61.5081 221.268 66.0721H234.236L247.364 54.2881L246.839 52.8621Z" fill="#673DE6"/>
<path d="M46.1771 159.233C52.0186 159.233 56.7541 154.498 56.7541 148.656C56.7541 142.815 52.0186 138.079 46.1771 138.079C40.3356 138.079 35.6001 142.815 35.6001 148.656C35.6001 154.498 40.3356 159.233 46.1771 159.233Z" fill="#A0616A"/>
<path d="M72.1409 141.337C72.2449 141.42 72.3449 141.508 72.4409 141.601C72.9267 142.059 73.3104 142.614 73.5667 143.23C73.8231 143.846 73.9463 144.51 73.9283 145.177C73.9104 145.844 73.7517 146.5 73.4626 147.102C73.1736 147.703 72.7606 148.237 72.2509 148.668C72.1322 148.768 72.0084 148.861 71.8799 148.948L72.5959 173.115C72.6162 173.906 72.381 174.683 71.9251 175.33C71.4691 175.976 70.8168 176.459 70.0649 176.706L70.0209 176.715L50.3989 178.805C49.8638 178.865 49.3221 178.818 48.8053 178.667C48.2885 178.515 47.807 178.263 47.3886 177.924C46.9703 177.585 46.6236 177.166 46.3686 176.692C46.1136 176.217 45.9554 175.697 45.9033 175.161C45.8512 174.625 45.9062 174.084 46.0651 173.57C46.2239 173.055 46.4835 172.578 46.8287 172.164C47.1739 171.751 47.5978 171.411 48.0758 171.163C48.5537 170.915 49.0762 170.764 49.6129 170.72L63.5999 169.488L66.0189 148.559C65.8608 148.419 65.7128 148.268 65.5759 148.107C64.8178 147.209 64.4203 146.062 64.4606 144.888C64.5009 143.713 64.9761 142.596 65.794 141.752C66.6118 140.909 67.7139 140.399 68.8864 140.322C70.0589 140.245 71.2181 140.607 72.1389 141.337H72.1409Z" fill="#A0616A"/>
<path d="M63.596 295.386H68.876L71.387 275.023H63.595L63.596 295.386Z" fill="#A0616A"/>
<path d="M62.249 293.663H72.649C74.4063 293.663 76.0917 294.361 77.3343 295.604C78.5769 296.846 79.275 298.532 79.275 300.289V300.504H62.249V293.663Z" fill="#2F2E41"/>
<path d="M11.1221 288.087L15.6581 290.787L28.2341 274.575L21.5341 270.589L11.1221 288.087Z" fill="#A0616A"/>
<path d="M10.847 285.917L19.78 291.236C21.2893 292.136 22.3796 293.598 22.8109 295.301C23.2422 297.005 22.9793 298.81 22.08 300.319L21.97 300.504L7.34399 291.795L10.847 285.917Z" fill="#2F2E41"/>
<path d="M70.1209 288.193H64.2089C63.7302 288.194 63.2681 288.017 62.9122 287.697C62.5562 287.377 62.3317 286.936 62.2819 286.46L56.3219 230.437C56.3073 230.296 56.2466 230.163 56.1492 230.06C56.0517 229.957 55.923 229.889 55.7829 229.866C55.6428 229.843 55.4991 229.867 55.3741 229.934C55.249 230.001 55.1495 230.108 55.0909 230.237L44.3399 254.044L25.3049 285.084C25.0585 285.482 24.6771 285.778 24.2305 285.917C23.7839 286.057 23.3019 286.031 22.8729 285.844L15.2729 282.498C15.0214 282.387 14.7963 282.224 14.6126 282.02C14.4289 281.816 14.2907 281.575 14.2072 281.313C14.1236 281.051 14.0968 280.775 14.1283 280.502C14.1598 280.229 14.249 279.966 14.3899 279.73L31.8899 250.43L37.2569 225.743C35.5689 215.037 42.8049 199.12 42.8789 198.96L42.9149 198.882L62.8469 191.092L62.9469 191.214C70.8079 217.014 75.5969 244.77 72.0609 286.414C72.018 286.899 71.7951 287.351 71.4361 287.68C71.0771 288.009 70.608 288.192 70.1209 288.193V288.193Z" fill="#2F2E41"/>
<path d="M42.104 201.846L42.011 201.646C41.967 201.553 37.535 192.205 34.118 182.214C33.4614 180.282 33.2132 178.235 33.3891 176.202C33.565 174.169 34.1612 172.194 35.14 170.404C36.1316 168.595 37.4879 167.012 39.1232 165.754C40.7585 164.497 42.6371 163.593 44.64 163.099V163.099C48.1171 162.265 51.778 162.709 54.9556 164.348C58.1333 165.988 60.6162 168.714 61.952 172.031C64.662 178.808 63.798 186.041 62.986 191.731L62.97 191.845L62.87 191.895L42.104 201.846Z" fill="#3F3D56"/>
<path d="M59.0011 142.714H42.2061V135.393C45.8921 133.929 49.4991 132.683 51.6801 135.393C53.6217 135.393 55.4839 136.164 56.8568 137.537C58.2298 138.91 59.0011 140.772 59.0011 142.714V142.714Z" fill="#2F2E41"/>
<path d="M41.2751 134.074C31.2351 134.074 28.425 146.659 28.425 153.758C28.425 157.717 30.2161 159.134 33.0251 159.613L34.019 154.313L36.3461 159.841C37.1361 159.841 37.967 159.83 38.828 159.814L39.6171 158.189L41.3771 159.789C48.4251 159.799 54.121 160.827 54.121 153.763C54.125 146.659 51.6611 134.074 41.2751 134.074Z" fill="#2F2E41"/>
<path d="M88.094 301H0.456024C0.334953 301 0.218835 300.952 0.133224 300.866C0.0476141 300.781 -0.000488281 300.665 -0.000488281 300.543C-0.000488281 300.422 0.0476141 300.306 0.133224 300.221C0.218835 300.135 0.334953 300.087 0.456024 300.087H88.094C88.2151 300.087 88.3312 300.135 88.4168 300.221C88.5024 300.306 88.5505 300.422 88.5505 300.543C88.5505 300.665 88.5024 300.781 88.4168 300.866C88.3312 300.952 88.2151 301 88.094 301V301Z" fill="#D8DBFE"/>
<path d="M89.524 151.338H69.897C68.7475 151.337 67.6454 150.879 66.8325 150.067C66.0196 149.254 65.5624 148.152 65.561 147.002V127.374C65.5624 126.225 66.0196 125.122 66.8325 124.31C67.6454 123.497 68.7475 123.039 69.897 123.038H89.524C90.6736 123.039 91.7757 123.497 92.5886 124.31C93.4015 125.122 93.8587 126.225 93.86 127.374V147.005C93.8579 148.154 93.4003 149.255 92.5875 150.068C91.7747 150.88 90.6731 151.337 89.524 151.338V151.338Z" fill="white"/>
<path d="M89.524 151.338H69.897C68.7475 151.337 67.6454 150.879 66.8325 150.067C66.0196 149.254 65.5624 148.152 65.561 147.002V127.374C65.5624 126.225 66.0196 125.122 66.8325 124.31C67.6454 123.497 68.7475 123.039 69.897 123.038H89.524C90.6736 123.039 91.7757 123.497 92.5886 124.31C93.4015 125.122 93.8587 126.225 93.86 127.374V147.005C93.8579 148.154 93.4003 149.255 92.5875 150.068C91.7747 150.88 90.6731 151.337 89.524 151.338V151.338ZM69.897 123.951C68.9895 123.952 68.1195 124.313 67.4778 124.955C66.8361 125.597 66.4751 126.467 66.474 127.374V147.005C66.4751 147.913 66.8361 148.783 67.4778 149.424C68.1195 150.066 68.9895 150.427 69.897 150.428H89.524C90.4316 150.427 91.3016 150.066 91.9433 149.424C92.585 148.783 92.946 147.913 92.947 147.005V127.374C92.946 126.467 92.585 125.597 91.9433 124.955C91.3016 124.313 90.4316 123.952 89.524 123.951H69.897Z" fill="#3F3D56"/>
<path d="M86.088 143.347H73.307C72.9441 143.346 72.5962 143.202 72.3395 142.945C72.0829 142.689 71.9385 142.341 71.938 141.978V132.39C71.9385 132.027 72.0829 131.679 72.3395 131.423C72.5962 131.166 72.9441 131.022 73.307 131.021H76.907C77.1409 131.02 77.3711 131.08 77.5753 131.194C77.7796 131.308 77.951 131.472 78.073 131.672L79.073 133.303H86.086C86.4489 133.304 86.7968 133.448 87.0534 133.705C87.3101 133.961 87.4545 134.309 87.455 134.672V141.972C87.4555 142.152 87.4206 142.33 87.3522 142.497C87.2838 142.663 87.1832 142.815 87.0563 142.943C86.9293 143.07 86.7785 143.172 86.6123 143.241C86.4462 143.311 86.268 143.346 86.088 143.347Z" fill="#FC5185"/>
<path d="M85.9031 148.104C85.9698 148.221 86.0288 148.341 86.0801 148.465C86.3503 149.075 86.4885 149.736 86.4857 150.403C86.4828 151.071 86.3389 151.73 86.0634 152.338C85.7879 152.946 85.387 153.489 84.887 153.932C84.387 154.374 83.7992 154.706 83.1621 154.905C83.0139 154.951 82.8633 154.989 82.7111 155.019L73.9931 177.57C73.7049 178.307 73.1868 178.931 72.5156 179.351C71.8443 179.77 71.0558 179.961 70.2671 179.897L70.2231 179.889L51.3231 174.201C50.8092 174.046 50.3311 173.791 49.9163 173.451C49.5015 173.11 49.1583 172.691 48.9065 172.217C48.6546 171.743 48.4992 171.224 48.4491 170.69C48.399 170.156 48.4553 169.617 48.6147 169.105C48.7741 168.592 49.0335 168.116 49.3778 167.705C49.7221 167.293 50.1445 166.954 50.6207 166.707C51.0969 166.459 51.6174 166.309 52.1522 166.263C52.6869 166.218 53.2252 166.28 53.7361 166.444L67.1051 170.737L77.4561 152.387C77.3647 152.196 77.2869 151.999 77.2231 151.798C76.8723 150.676 76.951 149.464 77.4437 148.397C77.9365 147.33 78.8082 146.485 79.8895 146.024C80.9709 145.564 82.1847 145.522 83.2953 145.906C84.4058 146.291 85.3338 147.075 85.8991 148.105L85.9031 148.104Z" fill="#A0616A"/>
</svg>
