<svg width="389" height="295" viewBox="0 0 389 295" fill="none" xmlns="http://www.w3.org/2000/svg">
<g clip-path="url(#clip0_139_554)">
<path d="M29.0261 268.129C41.7461 277.816 57.2431 287.629 72.4791 292.255C76.8712 293.629 81.4035 294.505 85.9911 294.869C90.28 295.214 94.5966 294.879 98.7811 293.877C109.781 291.142 119.981 286.352 129.845 280.756C133.069 278.925 136.256 277.01 139.425 275.056C144.597 271.856 149.718 268.556 154.852 265.323C155.621 264.834 156.385 264.354 157.152 263.879C158.391 263.101 159.634 262.334 160.879 261.579C161.098 261.444 161.317 261.313 161.541 261.179C163.894 259.753 166.288 258.36 168.721 257C169.021 256.837 169.321 256.669 169.616 256.506C174.325 253.893 179.164 251.523 184.116 249.406C187.368 248.036 190.662 246.806 193.989 245.748C195.261 245.348 196.538 244.97 197.819 244.625C201.661 243.571 205.577 242.805 209.533 242.333C214.985 241.673 220.499 241.717 225.939 242.463C226.307 242.514 226.671 242.563 227.039 242.626C241.763 244.984 255.2 252.933 269.989 254.806C270.469 254.867 270.944 254.923 271.424 254.964C271.629 254.983 271.834 255.006 272.039 255.02C276.338 255.388 280.664 255.282 284.939 254.703C296.881 253.128 308.511 248.241 318.98 242.081C343.556 227.442 363.194 205.791 375.372 179.907C377.444 175.513 379.284 171.014 380.884 166.427C385.357 153.708 387.82 140.37 388.184 126.892C389.316 80.1311 362.744 33.2161 321.024 12.0671C279.304 -9.08195 224.421 -2.09095 190.771 30.3991C170.358 50.1081 158.547 76.8161 143.185 100.676C127.823 124.536 105.985 147.321 77.8281 150.797C63.4821 152.568 48.4691 149.143 34.7201 153.597C27.1881 156.154 20.4995 160.724 15.3791 166.811C11.8614 170.896 8.91756 175.442 6.62907 180.323C4.95175 183.852 3.59041 187.522 2.56107 191.291C2.37007 191.985 2.19307 192.679 2.02107 193.374C-4.82693 221.349 6.11806 250.675 29.0261 268.129Z" fill="#FEE1F1"/>
<path d="M301.971 217.397H257.966C251.373 217.397 246.029 222.741 246.029 229.334V229.335C246.029 235.928 251.373 241.272 257.966 241.272H301.971C308.564 241.272 313.908 235.928 313.908 229.335V229.334C313.908 222.741 308.564 217.397 301.971 217.397Z" fill="#3F3D56"/>
<path d="M271.388 234.91V254.773C275.908 255.211 280.464 255.123 284.964 254.511V234.911L271.388 234.91Z" fill="#3F3D56"/>
<path d="M225.693 242.213C226.063 242.264 226.428 242.313 226.793 242.377C241.586 244.746 255.087 252.732 269.945 254.614C270.427 254.675 270.905 254.731 271.387 254.773C271.593 254.792 271.799 254.815 272.005 254.829C275.633 251.276 279.261 247.493 282.669 243.575C284.518 241.454 286.306 239.292 287.987 237.101C292.185 231.832 295.712 226.061 298.487 219.921C298.239 217.182 299.943 210.849 300.757 205.999C301.107 204.376 301.228 202.713 301.117 201.056C300.125 194.493 294.764 195.246 293.117 188.814C291.631 187.581 290.048 186.468 288.384 185.486C288.108 185.322 287.827 185.158 287.537 184.994L269.669 172.63L262.834 179.33L252.434 189.535L241.161 200.588L250.73 210.255C250.73 210.255 242.73 219.473 233.386 231.761C230.875 235.065 228.268 238.59 225.693 242.213Z" fill="#2F2E41"/>
<path d="M72.467 234.91V292.242C76.88 293.622 81.4338 294.503 86.043 294.868V234.91H72.467Z" fill="#3F3D56"/>
<path d="M99.2701 230.229H55.2651C48.6725 230.229 43.3281 235.573 43.3281 242.166V242.167C43.3281 248.76 48.6725 254.104 55.2651 254.104H99.2701C105.863 254.104 111.207 248.76 111.207 242.167V242.166C111.207 235.573 105.863 230.229 99.2701 230.229Z" fill="#3F3D56"/>
<path d="M161.531 261.013C163.895 259.58 166.3 258.18 168.745 256.813C169.045 256.649 169.345 256.481 169.645 256.313L168.035 255.625L163.691 253.757L163.649 253.738L163.602 253.897L161.531 261.013Z" fill="#FFB6B6"/>
<path d="M154.346 265.18C155.118 264.688 155.886 264.206 156.659 263.729C157.905 262.947 159.153 262.176 160.404 261.416C160.624 261.28 160.844 261.149 161.069 261.016C163.433 259.583 165.838 258.183 168.283 256.816C168.583 256.652 168.883 256.484 169.183 256.316C173.914 253.692 178.776 251.312 183.751 249.186C187.019 247.81 190.328 246.569 193.671 245.511L196.297 241.111L208.117 221.311L210.717 216.962C210.717 216.962 219.579 219.584 232.117 222.097C236.681 223.015 241.728 223.913 247.022 224.672C252.682 225.477 258.622 226.119 264.516 226.428C267.329 226.578 270.134 226.653 272.896 226.628C279.633 226.689 286.351 225.914 292.896 224.32C294.896 222.438 300.938 219.877 305.264 217.532C306.757 216.807 308.142 215.877 309.379 214.77C313.939 209.948 310.044 206.189 314.098 200.927C314.153 198.997 314.054 197.065 313.803 195.15C313.761 194.832 313.719 194.509 313.667 194.181L312.403 172.49L302.909 171.235L288.462 169.325L272.812 167.256L271.089 180.748C271.089 180.748 258.904 180.13 243.465 180.336C218.665 180.673 185.487 183.145 180.993 193.753C180.572 194.753 180.15 195.753 179.729 196.763C178.729 199.169 177.737 201.588 176.752 204.019C173.19 212.819 169.791 221.705 166.687 230.103C164.758 235.327 162.942 240.364 161.271 245.079C159.927 248.871 158.682 252.457 157.545 255.757C156.506 258.772 155.565 261.548 154.727 264.038C154.603 264.426 154.472 264.81 154.346 265.18Z" fill="#2F2E41"/>
<path d="M241.822 134.571L271.808 109.104L252.299 89.3601L238.688 111.654L188.236 121.654C186.719 120.512 184.903 119.837 183.008 119.709C181.114 119.582 179.223 120.009 177.567 120.937C175.911 121.866 174.561 123.256 173.681 124.939C172.802 126.622 172.431 128.524 172.614 130.414C172.797 132.304 173.526 134.1 174.712 135.582C175.897 137.065 177.489 138.171 179.293 138.765C181.096 139.358 183.033 139.415 184.868 138.926C186.703 138.438 188.356 137.427 189.626 136.015L241.822 134.571Z" fill="#FFB8B8"/>
<path d="M298.077 75.7541C301.542 87.0281 268.538 113.916 268.538 113.916C268.171 111.209 249.459 134.548 248.186 132.435C244.568 126.428 240.586 111.579 236.409 109.681C234.02 108.596 247.724 93.5101 247.724 93.5101C247.724 93.5101 254.714 84.2621 263.944 72.5401C266.492 69.1775 269.849 66.5144 273.703 64.7986C277.557 63.0828 281.782 62.3701 285.986 62.7271C285.986 62.7271 294.611 64.4801 298.077 75.7541Z" fill="#673DE6"/>
<path d="M283.424 51.1821C294.625 51.1821 303.705 42.102 303.705 30.9011C303.705 19.7002 294.625 10.6201 283.424 10.6201C272.223 10.6201 263.143 19.7002 263.143 30.9011C263.143 42.102 272.223 51.1821 283.424 51.1821Z" fill="#FFB8B8"/>
<path d="M273.223 64.084C268.854 66.684 266.24 71.454 264.739 76.311C261.961 85.3025 260.289 94.599 259.76 103.995L258.175 132.125L238.548 192.025C255.558 206.418 319.497 195.296 319.497 195.296C319.497 195.296 321.46 194.642 319.497 192.679C317.534 190.716 315.624 192.455 317.586 190.492C319.548 188.529 318.196 190.716 317.541 188.753C316.886 186.79 317.541 188.099 318.195 187.445C318.849 186.791 313.13 180.903 313.13 180.903L318.364 146.522L324.906 77.173C317.055 67.359 301.266 61.573 301.266 61.573L297.186 54.23L276.786 55.862L273.223 64.084Z" fill="#673DE6"/>
<path d="M266.695 20.1271C265.119 21.3028 263.951 22.9431 263.356 24.8171C263.128 21.7552 263.113 18.6811 263.313 15.6171C263.552 13.4631 265.068 12.9791 266.824 12.4171C268.41 11.9101 270.203 11.3371 270.685 9.24613C277.06 3.04613 288.158 3.35714 295.754 5.52014C299.933 6.71014 302.338 8.24013 302.554 9.13613L302.599 9.32012L302.769 9.40513C305.99 11.0161 306.618 16.1051 306.576 20.0861C306.497 27.5861 303.906 36.1141 302.446 36.8071C302.369 36.8441 302.346 36.8291 302.316 36.8011C300.116 35.0441 297.436 36.9351 296.258 37.9621C295.563 33.2978 293.325 29.0009 289.901 25.7577C286.478 22.5145 282.066 20.512 277.371 20.0701C275.838 19.922 274.317 19.6671 272.819 19.3071C272.059 19.1106 271.278 19.0081 270.493 19.0021C269.142 18.9806 267.816 19.3732 266.695 20.1271V20.1271Z" fill="#2F2E41"/>
<path d="M292.246 164.87L298.446 161.693C298.779 161.457 299.016 161.108 299.114 160.711C299.211 160.314 299.162 159.895 298.976 159.531C298.789 159.168 298.478 158.883 298.099 158.73C297.72 158.577 297.299 158.566 296.912 158.698L290.712 161.875C290.379 162.111 290.142 162.46 290.044 162.857C289.947 163.254 289.996 163.673 290.183 164.037C290.369 164.4 290.68 164.685 291.059 164.838C291.438 164.991 291.859 165.002 292.246 164.87V164.87Z" fill="#FC5185"/>
<path d="M313.072 156.38L323.278 118.385L296.005 113.222L297.472 139.301L261.638 176.201C259.741 176.123 257.862 176.598 256.23 177.57C254.599 178.541 253.285 179.966 252.449 181.671C251.614 183.376 251.292 185.287 251.524 187.172C251.756 189.056 252.531 190.833 253.755 192.284C254.979 193.736 256.599 194.8 258.418 195.347C260.236 195.893 262.174 195.899 263.996 195.363C265.818 194.827 267.444 193.773 268.677 192.328C269.909 190.884 270.695 189.112 270.938 187.229L313.072 156.38Z" fill="#FFB8B8"/>
<path d="M325.998 76.0651C335.255 83.3731 323.374 124.252 323.374 124.252C321.534 122.233 319.397 152.071 317.148 151.052C310.757 148.164 299.048 138.207 294.528 139.019C291.946 139.483 294.651 119.283 294.651 119.283C294.651 119.283 295.151 107.701 296.084 92.8111C296.27 88.5963 297.519 84.4971 299.716 80.8951C301.913 77.2932 304.985 74.3058 308.647 72.2111C308.647 72.2111 316.741 68.7571 325.998 76.0651Z" fill="#673DE6"/>
<path d="M6.66113 180.35L375.347 179.929C377.419 175.514 379.259 170.993 380.858 166.386L15.4091 166.775C11.8905 170.882 8.94743 175.449 6.66113 180.35V180.35Z" fill="#3F3D56"/>
<path d="M124.053 278.006C125.968 278.933 127.901 279.827 129.853 280.688C133.092 278.848 136.294 276.924 139.478 274.958L127.672 269.771L124.053 278.006Z" fill="#FFB6B6"/>
<path d="M38.5811 213.496C40.5005 216.071 42.4808 218.594 44.5221 221.066C46.4041 223.346 48.3374 225.582 50.3221 227.774C51.1411 228.682 51.9701 229.586 52.8221 230.48C54.3808 232.151 55.9741 233.794 57.6021 235.409C60.5331 236.331 66.4681 237.956 72.8301 239.472C77.4601 240.572 82.3141 241.616 86.4061 242.281C88.6965 242.692 91.0135 242.94 93.3391 243.021C96.1011 243.044 98.9051 242.969 101.719 242.821C104.893 242.653 108.072 242.39 111.213 242.053C119.382 241.196 127.293 239.862 134.119 238.491C136.619 237.991 138.969 237.491 141.132 236.998C145.232 236.076 148.655 235.214 151.132 234.559C153.927 233.829 155.518 233.359 155.518 233.359L162.518 245.081L166.151 251.162L168.819 255.633L169.531 256.817C169.831 256.653 170.131 256.485 170.431 256.317C175.162 253.693 180.024 251.313 184.999 249.187C188.267 247.811 191.576 246.57 194.919 245.512C196.197 245.112 197.48 244.73 198.767 244.384C198.367 243.303 197.96 242.213 197.545 241.116C196.777 239.07 195.994 237.006 195.195 234.923C193.468 230.41 191.679 225.832 189.84 221.277C188.333 217.537 186.797 213.81 185.24 210.135C184.32 208.25 182.854 206.686 181.032 205.646C180.059 205.032 179.044 204.488 177.994 204.017C172.166 201.363 163.58 199.635 154.119 198.526C153.337 198.437 152.551 198.348 151.76 198.264C143.928 197.44 135.619 197.014 127.848 196.817C123.958 196.717 120.203 196.681 116.711 196.677C115.583 196.677 114.486 196.68 113.42 196.686C110.541 196.7 107.891 196.742 105.56 196.786C105.106 196.795 104.666 196.809 104.235 196.819C103.945 196.819 103.659 196.833 103.378 196.838C98.2781 196.969 95.1531 197.128 95.1531 197.128L93.9411 187.616L93.6931 185.697L93.4591 183.871L93.4311 183.642H93.2391L89.8681 183.576L61.5371 183.024L46.0611 182.724L48.5141 193.238L52.5631 210.587C52.1381 213.319 38.4411 211.171 38.5811 213.496Z" fill="#2F2E41"/>
<path d="M120.507 276.274C121.663 276.864 122.829 277.444 123.999 278.006C125.914 278.933 127.847 279.827 129.799 280.688C133.038 278.848 136.24 276.924 139.424 274.958C144.624 271.747 149.765 268.423 154.924 265.179C155.696 264.687 156.464 264.205 157.237 263.728C159.362 260.573 161.53 257.287 163.716 253.902C163.749 253.855 163.777 253.808 163.805 253.761C164.367 252.9 164.926 252.033 165.481 251.161C168.981 245.684 172.494 239.973 175.906 234.14L167.264 230.105L151.198 222.605L148.427 221.313L140.459 237L133.353 250.993L131.773 254.104L120.507 276.274Z" fill="#2F2E41"/>
<path d="M118.37 201.537L77.4081 162.037L66.0581 129.888L82.8041 122.606C91.4041 130.846 100.704 156.506 100.704 156.506L128.891 192.367C129.111 192.442 129.33 192.522 129.546 192.618C130.816 193.178 131.919 194.056 132.75 195.167C133.581 196.278 134.111 197.584 134.29 198.96C134.468 200.336 134.289 201.735 133.769 203.021C133.249 204.307 132.406 205.438 131.321 206.303C130.237 207.168 128.947 207.739 127.578 207.961C126.208 208.182 124.804 208.046 123.503 207.567C122.201 207.087 121.045 206.28 120.146 205.223C119.247 204.166 118.636 202.895 118.372 201.533L118.37 201.537Z" fill="#A0616A"/>
<path d="M87.892 126.517L66.6501 133.26L66.57 133.247C58.664 131.923 52.103 119.01 47.992 108.411C46.6393 104.915 46.6644 101.036 48.0624 97.5573C49.4604 94.0791 52.127 91.2614 55.523 89.674V89.674C58.036 88.5201 60.8216 88.092 63.5651 88.4382C66.3086 88.7843 68.9005 89.891 71.048 91.633L81.956 100.546L87.892 126.517Z" fill="#FC5185"/>
<path d="M38.6659 214.772L38.5419 214.607C31.9149 205.817 40.9789 184.05 42.3489 180.894L36.1869 179.069L37.2609 167.336L37.7779 162.104L32.9869 157.554L32.9709 157.438L29.6709 133.988L25.3589 118.468C23.7339 112.601 23.6995 106.407 25.2593 100.521C26.8192 94.6364 29.917 89.2724 34.2349 84.9801L43.048 76.2292L53.6069 59.7011L71.3069 59.2441L77.673 70.5541C83.5958 71.7601 88.9077 75.0063 92.6828 79.7269C96.4579 84.4474 98.4567 90.343 98.3309 96.3861L97.7309 126.494L104.084 163.794L104.262 170.57L110.497 177.15L109.344 183.802L114.008 185.66L116.29 195.112C117.162 196.203 122.917 203.478 122.969 205.506C122.977 205.806 122.76 206.106 122.286 206.45C118.561 209.115 97.7379 214.891 88.3669 211.419C78.3849 207.719 39.2669 214.664 38.8669 214.735L38.6659 214.772Z" fill="#FC5185"/>
<path d="M64.0131 54.7669C76.9669 54.7669 87.4681 44.2658 87.4681 31.3119C87.4681 18.3581 76.9669 7.85693 64.0131 7.85693C51.0593 7.85693 40.5581 18.3581 40.5581 31.3119C40.5581 44.2658 51.0593 54.7669 64.0131 54.7669Z" fill="#A0616A"/>
<path d="M66.8749 55.0801C63.2426 55.1369 59.6121 54.8833 56.0229 54.3221C52.4659 53.5991 44.5069 47.7671 42.2889 44.2571C40.6409 41.6501 39.589 37.5781 38.989 34.6211C38.1888 30.7089 38.2193 26.6722 39.0784 22.7725C39.9374 18.8728 41.606 15.197 43.976 11.9831C44.8869 10.6388 46.1442 9.56562 47.6149 8.8771C47.7449 8.8261 47.88 8.77709 48.015 8.74209C50.1577 8.17833 52.0831 6.98703 53.5439 5.3211C53.8272 4.98416 54.1344 4.66801 54.463 4.3751C56.1143 2.98175 58.072 1.99896 60.176 1.50709C63.576 0.598091 68.486 1.5001 74.783 4.1911C77.946 5.5431 81.406 5.0541 84.067 4.4761C84.2163 4.44728 84.3705 4.45805 84.5144 4.50735C84.6583 4.55665 84.7867 4.64274 84.887 4.75709C86.0193 5.81994 87.512 6.4148 89.0649 6.4221C90.0159 6.4641 91.0139 7.7811 92.2209 9.4981C92.4949 9.8881 92.8139 10.3431 93.0439 10.6201L93.075 10.0881L93.613 10.6811C94.4586 11.6134 95.0546 12.7446 95.3454 13.9693C95.6362 15.1939 95.6125 16.4723 95.2763 17.6853C94.9401 18.8983 94.3025 20.0065 93.4228 20.9067C92.5431 21.807 91.4499 22.47 90.2449 22.8341C89.288 23.0886 88.3076 23.2447 87.319 23.3001C86.719 23.3541 86.101 23.4101 85.507 23.5131C83.6015 23.9033 81.8298 24.781 80.3649 26.0605C78.9 27.34 77.7919 28.9775 77.1489 30.8131C76.9969 31.2373 76.7493 31.6209 76.4255 31.9342C76.1016 32.2476 75.7101 32.4823 75.2811 32.6203C74.8521 32.7583 74.3972 32.7959 73.9514 32.7301C73.5055 32.6644 73.0808 32.4971 72.71 32.2411C72.0916 31.7596 71.3659 31.4349 70.5949 31.2945C69.8239 31.1542 69.0303 31.2024 68.282 31.4351C67.6353 31.7946 67.1318 32.3655 66.856 33.0521C66.5198 33.8179 65.9627 34.4659 65.256 34.9131C62.845 36.1561 62.679 41.6621 63.545 46.2521C64.38 50.6761 66.0289 53.8771 67.5569 54.0351C68.7329 54.1571 68.867 54.2401 68.957 54.4481L69.033 54.6341L68.9009 54.8081C68.253 55.0432 67.562 55.136 66.8749 55.0801V55.0801Z" fill="#2F2E41"/>
<path d="M81.532 119.357L90.576 101.327C103.703 102.227 129.756 117.401 129.756 117.401L179.05 127.852C180.51 127.291 182.093 127.124 183.638 127.368C185.184 127.613 186.637 128.26 187.853 129.245C189.069 130.23 190.003 131.518 190.563 132.979C191.123 134.44 191.288 136.023 191.041 137.568C190.795 139.113 190.145 140.566 189.159 141.78C188.172 142.995 186.883 143.928 185.421 144.486C183.96 145.043 182.377 145.206 180.832 144.958C179.287 144.709 177.835 144.058 176.622 143.07L113.922 138.575L81.532 119.357Z" fill="#A0616A"/>
<path d="M85.7152 122.479L62.0961 104.927L57.9362 89.9342C57.1301 86.9879 57.1642 83.8749 58.0345 80.9469C58.9048 78.019 60.5766 75.3928 62.8612 73.3652V73.3652C65.9765 70.6374 70.0114 69.1944 74.15 69.3278C78.2886 69.4613 82.2221 71.1613 85.1552 74.0842C94.0432 82.9562 104.181 95.3332 102.003 103.915L101.981 104.002L85.7152 122.479Z" fill="#FC5185"/>
<path d="M177.507 169.006H114.309V177.432H177.507V169.006Z" fill="white"/>
<path d="M337.826 169.006H274.628V177.432H337.826V169.006Z" fill="white"/>
<path d="M267.926 128.602V168.723C267.925 169.234 267.722 169.724 267.361 170.086C266.999 170.447 266.509 170.651 265.998 170.651H206.543C206.032 170.651 205.542 170.447 205.18 170.086C204.819 169.724 204.616 169.234 204.615 168.723V128.602C204.616 128.091 204.82 127.602 205.181 127.241C205.543 126.88 206.032 126.677 206.543 126.676H265.997C266.508 126.677 266.997 126.88 267.359 127.241C267.72 127.602 267.924 128.091 267.925 128.602H267.926Z" fill="#3F3D56"/>
<path d="M266.534 129.102V168.229C266.534 168.502 266.425 168.765 266.232 168.958C266.038 169.151 265.776 169.26 265.503 169.26H207.041C206.768 169.26 206.506 169.151 206.312 168.958C206.119 168.765 206.01 168.502 206.01 168.229V129.102C206.01 128.828 206.119 128.566 206.312 128.372C206.505 128.179 206.767 128.07 207.041 128.069H265.503C265.777 128.07 266.039 128.179 266.232 128.372C266.425 128.566 266.534 128.828 266.534 129.102V129.102Z" fill="#F4F5FF"/>
<path d="M269.167 176.429C269.058 176.566 268.92 176.676 268.762 176.751C268.604 176.826 268.432 176.865 268.257 176.864H204.595C204.421 176.864 204.249 176.825 204.092 176.75C203.935 176.675 203.796 176.566 203.686 176.431C203.577 176.295 203.499 176.137 203.458 175.968C203.417 175.799 203.414 175.623 203.45 175.452L204.438 170.758C204.479 170.567 204.567 170.389 204.695 170.24C204.822 170.091 204.984 169.977 205.167 169.907C205.3 169.855 205.441 169.829 205.583 169.829H267.272C267.414 169.829 267.556 169.855 267.688 169.907C267.871 169.977 268.033 170.091 268.161 170.24C268.288 170.389 268.376 170.567 268.417 170.758L269.405 175.452C269.441 175.622 269.438 175.798 269.396 175.967C269.355 176.136 269.277 176.294 269.167 176.429V176.429Z" fill="#2F2E41"/>
<path d="M207.687 170.687H206.702C206.433 170.687 206.214 170.905 206.214 171.175V171.375C206.214 171.645 206.433 171.863 206.702 171.863H207.687C207.957 171.863 208.175 171.645 208.175 171.375V171.175C208.175 170.905 207.957 170.687 207.687 170.687Z" fill="#3F3D56"/>
<path d="M211.59 170.687H210.605C210.336 170.687 210.117 170.905 210.117 171.175V171.375C210.117 171.645 210.336 171.863 210.605 171.863H211.59C211.86 171.863 212.078 171.645 212.078 171.375V171.175C212.078 170.905 211.86 170.687 211.59 170.687Z" fill="#3F3D56"/>
<path d="M215.493 170.687H214.508C214.239 170.687 214.02 170.905 214.02 171.175V171.375C214.02 171.645 214.239 171.863 214.508 171.863H215.493C215.763 171.863 215.981 171.645 215.981 171.375V171.175C215.981 170.905 215.763 170.687 215.493 170.687Z" fill="#3F3D56"/>
<path d="M219.396 170.687H218.411C218.142 170.687 217.923 170.905 217.923 171.175V171.375C217.923 171.645 218.142 171.863 218.411 171.863H219.396C219.666 171.863 219.884 171.645 219.884 171.375V171.175C219.884 170.905 219.666 170.687 219.396 170.687Z" fill="#3F3D56"/>
<path d="M223.299 170.687H222.314C222.045 170.687 221.826 170.905 221.826 171.175V171.375C221.826 171.645 222.045 171.863 222.314 171.863H223.299C223.569 171.863 223.787 171.645 223.787 171.375V171.175C223.787 170.905 223.569 170.687 223.299 170.687Z" fill="#3F3D56"/>
<path d="M227.202 170.687H226.217C225.947 170.687 225.729 170.905 225.729 171.175V171.375C225.729 171.645 225.947 171.863 226.217 171.863H227.202C227.472 171.863 227.69 171.645 227.69 171.375V171.175C227.69 170.905 227.472 170.687 227.202 170.687Z" fill="#3F3D56"/>
<path d="M231.105 170.687H230.12C229.851 170.687 229.632 170.905 229.632 171.175V171.375C229.632 171.645 229.851 171.863 230.12 171.863H231.105C231.375 171.863 231.593 171.645 231.593 171.375V171.175C231.593 170.905 231.375 170.687 231.105 170.687Z" fill="#3F3D56"/>
<path d="M235.008 170.687H234.023C233.754 170.687 233.535 170.905 233.535 171.175V171.375C233.535 171.645 233.754 171.863 234.023 171.863H235.008C235.278 171.863 235.496 171.645 235.496 171.375V171.175C235.496 170.905 235.278 170.687 235.008 170.687Z" fill="#3F3D56"/>
<path d="M238.911 170.687H237.926C237.656 170.687 237.438 170.905 237.438 171.175V171.375C237.438 171.645 237.656 171.863 237.926 171.863H238.911C239.181 171.863 239.399 171.645 239.399 171.375V171.175C239.399 170.905 239.181 170.687 238.911 170.687Z" fill="#3F3D56"/>
<path d="M242.814 170.687H241.829C241.56 170.687 241.341 170.905 241.341 171.175V171.375C241.341 171.645 241.56 171.863 241.829 171.863H242.814C243.084 171.863 243.302 171.645 243.302 171.375V171.175C243.302 170.905 243.084 170.687 242.814 170.687Z" fill="#3F3D56"/>
<path d="M246.717 170.687H245.732C245.463 170.687 245.244 170.905 245.244 171.175V171.375C245.244 171.645 245.463 171.863 245.732 171.863H246.717C246.987 171.863 247.205 171.645 247.205 171.375V171.175C247.205 170.905 246.987 170.687 246.717 170.687Z" fill="#3F3D56"/>
<path d="M250.62 170.687H249.635C249.365 170.687 249.147 170.905 249.147 171.175V171.375C249.147 171.645 249.365 171.863 249.635 171.863H250.62C250.889 171.863 251.108 171.645 251.108 171.375V171.175C251.108 170.905 250.889 170.687 250.62 170.687Z" fill="#3F3D56"/>
<path d="M254.523 170.687H253.538C253.269 170.687 253.05 170.905 253.05 171.175V171.375C253.05 171.645 253.269 171.863 253.538 171.863H254.523C254.793 171.863 255.011 171.645 255.011 171.375V171.175C255.011 170.905 254.793 170.687 254.523 170.687Z" fill="#3F3D56"/>
<path d="M258.426 170.687H257.441C257.172 170.687 256.953 170.905 256.953 171.175V171.375C256.953 171.645 257.172 171.863 257.441 171.863H258.426C258.696 171.863 258.914 171.645 258.914 171.375V171.175C258.914 170.905 258.696 170.687 258.426 170.687Z" fill="#3F3D56"/>
<path d="M262.329 170.687H261.344C261.074 170.687 260.856 170.905 260.856 171.175V171.375C260.856 171.645 261.074 171.863 261.344 171.863H262.329C262.598 171.863 262.817 171.645 262.817 171.375V171.175C262.817 170.905 262.598 170.687 262.329 170.687Z" fill="#3F3D56"/>
<path d="M266.232 170.687H265.247C264.978 170.687 264.759 170.905 264.759 171.175V171.375C264.759 171.645 264.978 171.863 265.247 171.863H266.232C266.502 171.863 266.72 171.645 266.72 171.375V171.175C266.72 170.905 266.502 170.687 266.232 170.687Z" fill="#3F3D56"/>
<path d="M207.64 172.638H206.655C206.385 172.638 206.167 172.857 206.167 173.126V173.326C206.167 173.596 206.385 173.814 206.655 173.814H207.64C207.91 173.814 208.128 173.596 208.128 173.326V173.126C208.128 172.857 207.91 172.638 207.64 172.638Z" fill="#3F3D56"/>
<path d="M211.544 172.638H210.559C210.29 172.638 210.071 172.857 210.071 173.126V173.326C210.071 173.596 210.29 173.814 210.559 173.814H211.544C211.814 173.814 212.032 173.596 212.032 173.326V173.126C212.032 172.857 211.814 172.638 211.544 172.638Z" fill="#3F3D56"/>
<path d="M215.447 172.638H214.462C214.193 172.638 213.974 172.857 213.974 173.126V173.326C213.974 173.596 214.193 173.814 214.462 173.814H215.447C215.717 173.814 215.935 173.596 215.935 173.326V173.126C215.935 172.857 215.717 172.638 215.447 172.638Z" fill="#3F3D56"/>
<path d="M219.35 172.638H218.365C218.095 172.638 217.877 172.857 217.877 173.126V173.326C217.877 173.596 218.095 173.814 218.365 173.814H219.35C219.619 173.814 219.838 173.596 219.838 173.326V173.126C219.838 172.857 219.619 172.638 219.35 172.638Z" fill="#3F3D56"/>
<path d="M223.253 172.638H222.268C221.999 172.638 221.78 172.857 221.78 173.126V173.326C221.78 173.596 221.999 173.814 222.268 173.814H223.253C223.523 173.814 223.741 173.596 223.741 173.326V173.126C223.741 172.857 223.523 172.638 223.253 172.638Z" fill="#3F3D56"/>
<path d="M227.156 172.638H226.171C225.902 172.638 225.683 172.857 225.683 173.126V173.326C225.683 173.596 225.902 173.814 226.171 173.814H227.156C227.426 173.814 227.644 173.596 227.644 173.326V173.126C227.644 172.857 227.426 172.638 227.156 172.638Z" fill="#3F3D56"/>
<path d="M231.059 172.638H230.074C229.805 172.638 229.586 172.857 229.586 173.126V173.326C229.586 173.596 229.805 173.814 230.074 173.814H231.059C231.329 173.814 231.547 173.596 231.547 173.326V173.126C231.547 172.857 231.329 172.638 231.059 172.638Z" fill="#3F3D56"/>
<path d="M234.962 172.638H233.977C233.707 172.638 233.489 172.857 233.489 173.126V173.326C233.489 173.596 233.707 173.814 233.977 173.814H234.962C235.232 173.814 235.45 173.596 235.45 173.326V173.126C235.45 172.857 235.232 172.638 234.962 172.638Z" fill="#3F3D56"/>
<path d="M238.865 172.638H237.88C237.611 172.638 237.392 172.857 237.392 173.126V173.326C237.392 173.596 237.611 173.814 237.88 173.814H238.865C239.135 173.814 239.353 173.596 239.353 173.326V173.126C239.353 172.857 239.135 172.638 238.865 172.638Z" fill="#3F3D56"/>
<path d="M242.768 172.638H241.783C241.514 172.638 241.295 172.857 241.295 173.126V173.326C241.295 173.596 241.514 173.814 241.783 173.814H242.768C243.038 173.814 243.256 173.596 243.256 173.326V173.126C243.256 172.857 243.038 172.638 242.768 172.638Z" fill="#3F3D56"/>
<path d="M246.671 172.638H245.686C245.416 172.638 245.198 172.857 245.198 173.126V173.326C245.198 173.596 245.416 173.814 245.686 173.814H246.671C246.941 173.814 247.159 173.596 247.159 173.326V173.126C247.159 172.857 246.941 172.638 246.671 172.638Z" fill="#3F3D56"/>
<path d="M250.574 172.638H249.589C249.32 172.638 249.101 172.857 249.101 173.126V173.326C249.101 173.596 249.32 173.814 249.589 173.814H250.574C250.844 173.814 251.062 173.596 251.062 173.326V173.126C251.062 172.857 250.844 172.638 250.574 172.638Z" fill="#3F3D56"/>
<path d="M254.477 172.638H253.492C253.223 172.638 253.004 172.857 253.004 173.126V173.326C253.004 173.596 253.223 173.814 253.492 173.814H254.477C254.747 173.814 254.965 173.596 254.965 173.326V173.126C254.965 172.857 254.747 172.638 254.477 172.638Z" fill="#3F3D56"/>
<path d="M258.38 172.638H257.395C257.125 172.638 256.907 172.857 256.907 173.126V173.326C256.907 173.596 257.125 173.814 257.395 173.814H258.38C258.649 173.814 258.868 173.596 258.868 173.326V173.126C258.868 172.857 258.649 172.638 258.38 172.638Z" fill="#3F3D56"/>
<path d="M262.283 172.638H261.298C261.029 172.638 260.81 172.857 260.81 173.126V173.326C260.81 173.596 261.029 173.814 261.298 173.814H262.283C262.553 173.814 262.771 173.596 262.771 173.326V173.126C262.771 172.857 262.553 172.638 262.283 172.638Z" fill="#3F3D56"/>
<path d="M266.186 172.638H265.201C264.932 172.638 264.713 172.857 264.713 173.126V173.326C264.713 173.596 264.932 173.814 265.201 173.814H266.186C266.456 173.814 266.674 173.596 266.674 173.326V173.126C266.674 172.857 266.456 172.638 266.186 172.638Z" fill="#3F3D56"/>
<path d="M240.061 174.98H225.351C225.082 174.98 224.863 175.198 224.863 175.468V175.668C224.863 175.937 225.082 176.156 225.351 176.156H240.061C240.331 176.156 240.549 175.937 240.549 175.668V175.468C240.549 175.198 240.331 174.98 240.061 174.98Z" fill="#3F3D56"/>
</g>
<defs>
<clipPath id="clip0_139_554">
<rect width="388.227" height="295" fill="white"/>
</clipPath>
</defs>
</svg>
