<svg width="726" height="429" viewBox="0 0 726 429" fill="none" xmlns="http://www.w3.org/2000/svg">
<g clip-path="url(#clip0_428_1464)">
<path d="M527.389 299.441C527.204 299.441 527.019 299.293 527.019 299.108C527.019 298.923 527.167 298.738 527.352 298.738C528.796 298.701 530.203 298.627 531.646 298.553C531.831 298.553 532.016 298.701 532.016 298.886C532.016 299.071 531.868 299.256 531.683 299.256C530.24 299.367 528.796 299.441 527.352 299.478L527.389 299.441ZM520.208 299.367C518.764 299.293 517.32 299.219 515.877 299.071C515.691 299.071 515.543 298.886 515.543 298.664C515.543 298.479 515.728 298.331 515.951 298.331C517.357 298.442 518.801 298.553 520.245 298.627C520.43 298.627 520.615 298.812 520.578 298.997C520.578 299.182 520.393 299.33 520.208 299.33V299.367ZM538.865 298.479C538.865 298.479 538.532 298.331 538.495 298.183C538.495 297.998 538.606 297.812 538.791 297.775C540.197 297.59 541.641 297.331 543.048 297.072C543.233 297.072 543.418 297.183 543.455 297.368C543.455 297.553 543.344 297.738 543.159 297.775C541.752 298.035 540.309 298.257 538.902 298.479C538.902 298.479 538.902 298.479 538.865 298.479ZM508.769 298.183C508.769 298.183 508.732 298.183 508.695 298.183C507.288 297.96 505.845 297.701 504.438 297.405C504.253 297.368 504.105 297.183 504.142 296.998C504.179 296.813 504.364 296.665 504.549 296.702C505.956 296.998 507.362 297.257 508.769 297.479C508.954 297.479 509.102 297.701 509.065 297.886C509.065 298.072 508.88 298.183 508.695 298.183H508.769ZM550.155 296.221C550.155 296.221 549.859 296.11 549.822 295.962C549.785 295.776 549.896 295.591 550.081 295.517C551.451 295.147 552.858 294.777 554.227 294.37C554.412 294.296 554.635 294.407 554.672 294.592C554.746 294.777 554.635 294.999 554.449 295.036C553.08 295.443 551.673 295.85 550.266 296.221H550.192H550.155ZM497.553 295.702C497.553 295.702 497.479 295.702 497.442 295.702C496.072 295.332 494.665 294.888 493.295 294.444C493.11 294.37 492.999 294.185 493.073 294C493.147 293.814 493.332 293.703 493.518 293.777C494.887 294.222 496.257 294.629 497.627 295.036C497.812 295.073 497.923 295.295 497.886 295.48C497.849 295.628 497.701 295.739 497.553 295.739V295.702ZM491.297 293.74C491.297 293.74 491.222 293.74 491.185 293.74C489.816 293.259 488.446 292.741 487.113 292.223C486.928 292.149 486.854 291.927 486.928 291.741C487.002 291.556 487.224 291.482 487.41 291.556C488.742 292.075 490.075 292.593 491.445 293.074C491.63 293.148 491.741 293.333 491.667 293.518C491.63 293.666 491.482 293.777 491.334 293.777L491.297 293.74ZM561.113 292.704C561.113 292.704 560.817 292.63 560.78 292.482C560.706 292.297 560.78 292.075 561.002 292.001C562.334 291.482 563.667 290.964 565 290.372C565.185 290.298 565.407 290.372 565.481 290.557C565.555 290.742 565.481 290.964 565.296 291.038C563.963 291.593 562.63 292.149 561.298 292.667C561.261 292.667 561.224 292.667 561.187 292.667L561.113 292.704ZM480.672 289.335C480.672 289.335 480.561 289.335 480.524 289.335C479.229 288.706 477.933 288.04 476.674 287.373C476.489 287.262 476.415 287.077 476.526 286.892C476.637 286.707 476.822 286.633 477.007 286.744C478.266 287.41 479.562 288.077 480.857 288.669C481.042 288.743 481.117 288.965 481.042 289.15C480.968 289.261 480.857 289.372 480.709 289.372L480.672 289.335ZM571.626 288.003C571.626 288.003 571.367 287.929 571.293 287.818C571.219 287.632 571.293 287.41 571.441 287.336C572.699 286.67 573.995 286.004 575.217 285.263C575.402 285.152 575.624 285.226 575.698 285.411C575.809 285.596 575.735 285.819 575.55 285.893C574.291 286.596 573.033 287.299 571.737 287.966C571.7 287.966 571.626 288.003 571.589 288.003H571.626ZM470.603 283.783C470.603 283.783 470.455 283.783 470.418 283.746C469.197 282.968 467.975 282.191 466.79 281.376C466.642 281.265 466.568 281.043 466.716 280.858C466.828 280.71 467.05 280.636 467.235 280.784C468.419 281.598 469.641 282.376 470.825 283.153C471.011 283.264 471.048 283.486 470.937 283.634C470.862 283.746 470.751 283.82 470.64 283.82L470.603 283.783ZM581.51 282.154C581.51 282.154 581.288 282.08 581.214 282.006C581.103 281.858 581.14 281.598 581.325 281.524C582.509 280.747 583.694 279.896 584.841 279.044C584.989 278.933 585.212 278.97 585.36 279.118C585.471 279.266 585.434 279.488 585.286 279.637C584.138 280.488 582.916 281.339 581.732 282.117C581.658 282.154 581.584 282.191 581.547 282.191L581.51 282.154ZM461.201 277.119C461.201 277.119 461.053 277.119 460.979 277.045C459.868 276.157 458.721 275.194 457.647 274.269C457.499 274.121 457.499 273.899 457.647 273.751C457.795 273.603 458.017 273.603 458.165 273.751C459.239 274.676 460.349 275.602 461.46 276.527C461.608 276.638 461.645 276.86 461.534 277.045C461.46 277.119 461.349 277.193 461.238 277.193L461.201 277.119ZM590.69 275.194C590.69 275.194 590.468 275.157 590.431 275.083C590.32 274.935 590.32 274.713 590.468 274.565C591.542 273.64 592.652 272.677 593.689 271.715C593.837 271.567 594.059 271.604 594.207 271.715C594.355 271.863 594.318 272.085 594.207 272.233C593.133 273.195 592.06 274.158 590.949 275.12C590.875 275.194 590.801 275.194 590.727 275.194H590.69ZM452.613 269.42C452.613 269.42 452.427 269.42 452.353 269.308C451.354 268.272 450.317 267.235 449.355 266.162C449.207 266.014 449.244 265.792 449.355 265.644C449.503 265.496 449.725 265.533 449.873 265.644C450.836 266.717 451.835 267.754 452.835 268.753C452.983 268.901 452.983 269.123 452.835 269.271C452.761 269.345 452.687 269.382 452.576 269.382L452.613 269.42ZM599.019 267.272C599.019 267.272 598.834 267.272 598.76 267.161C598.612 267.013 598.612 266.791 598.76 266.643C599.723 265.607 600.722 264.533 601.648 263.46C601.759 263.312 602.018 263.274 602.166 263.423C602.314 263.571 602.351 263.793 602.203 263.941C601.277 265.014 600.278 266.125 599.315 267.161C599.241 267.235 599.167 267.272 599.056 267.272H599.019ZM444.987 260.794C444.987 260.794 444.765 260.757 444.691 260.646C443.802 259.536 442.914 258.351 442.062 257.204C441.951 257.055 441.988 256.833 442.136 256.685C442.284 256.574 442.507 256.611 442.655 256.759C443.506 257.907 444.357 259.054 445.246 260.202C445.357 260.35 445.357 260.572 445.172 260.72C445.098 260.757 445.024 260.794 444.95 260.794H444.987ZM606.423 258.425C606.423 258.425 606.275 258.425 606.201 258.351C606.053 258.24 606.016 258.018 606.127 257.833C606.978 256.685 607.83 255.501 608.644 254.316C608.755 254.168 608.977 254.094 609.162 254.205C609.31 254.316 609.384 254.538 609.273 254.686C608.459 255.871 607.608 257.055 606.756 258.203C606.682 258.314 606.571 258.351 606.46 258.351L606.423 258.425ZM438.361 251.355C438.361 251.355 438.138 251.281 438.064 251.17C437.324 249.948 436.547 248.689 435.843 247.431C435.732 247.246 435.843 247.024 435.991 246.949C436.176 246.838 436.399 246.949 436.473 247.098C437.176 248.356 437.916 249.578 438.657 250.799C438.768 250.984 438.694 251.207 438.546 251.281C438.472 251.281 438.435 251.318 438.361 251.318V251.355ZM612.753 248.8C612.753 248.8 612.642 248.8 612.568 248.763C612.383 248.652 612.346 248.43 612.42 248.282C613.123 247.061 613.827 245.765 614.493 244.506C614.567 244.321 614.789 244.247 614.974 244.358C615.159 244.432 615.233 244.654 615.122 244.839C614.456 246.098 613.753 247.394 613.012 248.615C612.938 248.726 612.827 248.8 612.716 248.8H612.753ZM432.845 241.249C432.845 241.249 432.586 241.175 432.512 241.027C431.882 239.731 431.29 238.398 430.735 237.066C430.661 236.881 430.735 236.658 430.92 236.584C431.105 236.51 431.327 236.584 431.401 236.77C431.956 238.065 432.549 239.398 433.178 240.693C433.252 240.879 433.178 241.101 432.993 241.175C432.956 241.175 432.882 241.175 432.845 241.175V241.249ZM617.936 238.546C617.936 238.546 617.825 238.546 617.787 238.546C617.602 238.472 617.528 238.25 617.602 238.065C618.158 236.769 618.713 235.437 619.231 234.104C619.305 233.919 619.527 233.845 619.712 233.882C619.898 233.919 619.972 234.178 619.935 234.363C619.416 235.696 618.861 237.066 618.269 238.361C618.195 238.509 618.084 238.583 617.936 238.583V238.546ZM428.477 230.624C428.477 230.624 428.181 230.513 428.144 230.365C427.662 228.996 427.218 227.626 426.811 226.256C426.737 226.071 426.848 225.849 427.07 225.812C427.255 225.738 427.477 225.849 427.514 226.071C427.921 227.441 428.366 228.811 428.81 230.18C428.884 230.365 428.81 230.587 428.588 230.624C428.551 230.624 428.514 230.624 428.477 230.624ZM621.971 227.774C621.971 227.774 621.897 227.774 621.859 227.774C621.674 227.7 621.563 227.515 621.637 227.33C622.045 225.96 622.452 224.591 622.822 223.184C622.859 222.999 623.081 222.888 623.266 222.925C623.451 222.962 623.562 223.184 623.525 223.369C623.155 224.739 622.748 226.145 622.341 227.515C622.304 227.663 622.156 227.774 622.008 227.774H621.971ZM425.367 219.556C425.367 219.556 425.071 219.445 425.034 219.26C424.738 217.853 424.442 216.447 424.183 215.003C424.183 214.818 424.294 214.633 424.479 214.596C424.664 214.596 424.849 214.707 424.886 214.892C425.145 216.298 425.404 217.705 425.737 219.112C425.774 219.297 425.663 219.482 425.478 219.556C425.478 219.556 425.441 219.556 425.404 219.556H425.367ZM624.784 216.632C624.784 216.632 624.747 216.632 624.71 216.632C624.525 216.595 624.377 216.41 624.414 216.224C624.673 214.818 624.932 213.411 625.117 211.967C625.117 211.782 625.339 211.634 625.524 211.671C625.709 211.671 625.857 211.893 625.82 212.078C625.598 213.485 625.376 214.929 625.08 216.335C625.08 216.521 624.895 216.632 624.71 216.632H624.784ZM423.516 208.229C423.516 208.229 423.183 208.08 423.146 207.895C422.998 206.452 422.887 205.008 422.776 203.601C422.776 203.416 422.924 203.231 423.109 203.231C423.294 203.231 423.479 203.379 423.479 203.564C423.553 204.971 423.701 206.415 423.849 207.858C423.849 208.043 423.738 208.229 423.516 208.266C423.516 208.266 423.516 208.266 423.479 208.266L423.516 208.229ZM626.302 205.23C626.117 205.23 625.968 205.045 625.968 204.86C626.08 203.453 626.154 201.972 626.191 200.566C626.191 200.381 626.376 200.196 626.561 200.233C626.746 200.233 626.931 200.418 626.894 200.603C626.857 202.046 626.783 203.49 626.672 204.934C626.672 205.119 626.487 205.267 626.302 205.267V205.23ZM422.961 196.716C422.776 196.716 422.591 196.568 422.591 196.346C422.591 194.902 422.665 193.458 422.702 192.015C422.702 191.829 422.887 191.681 423.072 191.681C423.257 191.681 423.405 191.866 423.405 192.052C423.331 193.495 423.294 194.939 423.294 196.346C423.294 196.531 423.146 196.716 422.924 196.716H422.961ZM626.524 193.717C626.339 193.717 626.154 193.569 626.154 193.384C626.117 191.978 626.006 190.534 625.894 189.09C625.894 188.905 626.043 188.72 626.228 188.72C626.413 188.72 626.598 188.868 626.598 189.053C626.709 190.497 626.783 191.941 626.857 193.384C626.857 193.569 626.709 193.754 626.524 193.754V193.717ZM423.738 185.24C423.738 185.24 423.738 185.24 423.701 185.24C423.516 185.24 423.368 185.018 423.405 184.833C423.59 183.389 423.775 181.983 424.035 180.539C424.035 180.354 424.257 180.206 424.442 180.243C424.627 180.243 424.775 180.465 424.738 180.65C424.516 182.057 424.294 183.5 424.109 184.907C424.109 185.092 423.923 185.24 423.738 185.24ZM625.45 182.279C625.45 182.279 625.117 182.168 625.08 181.983C624.858 180.576 624.599 179.132 624.34 177.763C624.303 177.577 624.414 177.392 624.636 177.355C624.858 177.318 625.006 177.429 625.043 177.652C625.302 179.058 625.561 180.502 625.783 181.909C625.783 182.094 625.672 182.279 625.487 182.316C625.487 182.316 625.487 182.316 625.45 182.316V182.279ZM425.811 173.913H425.737C425.552 173.876 425.441 173.654 425.478 173.468C425.811 172.062 426.182 170.655 426.589 169.285C426.626 169.1 426.848 168.989 427.033 169.026C427.218 169.063 427.329 169.285 427.292 169.471C426.885 170.84 426.515 172.247 426.182 173.617C426.145 173.765 425.996 173.876 425.848 173.876L425.811 173.913ZM623.081 171.025C623.081 171.025 622.785 170.914 622.748 170.766C622.378 169.396 621.971 167.99 621.526 166.657C621.452 166.472 621.563 166.25 621.748 166.213C621.934 166.139 622.156 166.25 622.193 166.435C622.637 167.805 623.044 169.211 623.414 170.581C623.451 170.766 623.34 170.988 623.155 171.025C623.155 171.025 623.081 171.025 623.044 171.025H623.081ZM429.106 162.918C429.106 162.918 429.032 162.918 428.995 162.918C428.81 162.844 428.699 162.659 428.773 162.474C429.254 161.104 429.772 159.772 430.328 158.439C430.402 158.254 430.624 158.18 430.809 158.254C430.994 158.328 431.068 158.55 430.994 158.735C430.439 160.068 429.92 161.401 429.439 162.733C429.402 162.881 429.254 162.955 429.106 162.955V162.918ZM619.453 160.142C619.453 160.142 619.157 160.068 619.12 159.92C618.602 158.587 618.047 157.255 617.454 155.959C617.38 155.774 617.454 155.552 617.639 155.478C617.825 155.404 618.047 155.478 618.121 155.663C618.713 156.958 619.268 158.328 619.786 159.661C619.861 159.846 619.786 160.068 619.601 160.142C619.564 160.142 619.527 160.142 619.453 160.142ZM433.622 152.368C433.622 152.368 433.511 152.368 433.474 152.331C433.289 152.257 433.215 152.035 433.326 151.85C433.955 150.554 434.622 149.259 435.325 148C435.436 147.815 435.658 147.778 435.806 147.852C435.991 147.963 436.028 148.148 435.954 148.333C435.251 149.592 434.585 150.85 433.955 152.146C433.881 152.257 433.77 152.331 433.622 152.331V152.368ZM614.604 149.703C614.604 149.703 614.345 149.629 614.271 149.518C613.604 148.259 612.901 147.001 612.161 145.779C612.05 145.594 612.124 145.372 612.272 145.298C612.457 145.187 612.679 145.261 612.753 145.409C613.493 146.63 614.197 147.926 614.863 149.185C614.974 149.37 614.863 149.592 614.715 149.666C614.678 149.666 614.604 149.703 614.53 149.703H614.604ZM439.286 142.336C439.286 142.336 439.138 142.336 439.101 142.262C438.916 142.151 438.879 141.929 438.99 141.781C439.767 140.559 440.582 139.375 441.433 138.19C441.544 138.042 441.766 138.005 441.951 138.116C442.099 138.227 442.136 138.449 442.025 138.634C441.211 139.819 440.397 141.004 439.619 142.188C439.545 142.299 439.434 142.336 439.323 142.336H439.286ZM608.644 139.856C608.644 139.856 608.422 139.819 608.348 139.708C607.533 138.523 606.682 137.339 605.831 136.228C605.72 136.08 605.757 135.858 605.905 135.71C606.053 135.599 606.275 135.636 606.423 135.784C607.274 136.932 608.126 138.116 608.94 139.301C609.051 139.449 609.014 139.671 608.829 139.819C608.755 139.856 608.681 139.893 608.644 139.893V139.856ZM446.097 133.045C446.097 133.045 445.949 133.045 445.875 132.971C445.727 132.86 445.69 132.6 445.838 132.452C446.764 131.342 447.689 130.231 448.652 129.158C448.8 129.01 449.022 129.01 449.17 129.158C449.318 129.306 449.318 129.528 449.17 129.676C448.207 130.75 447.282 131.86 446.356 132.934C446.282 133.008 446.171 133.082 446.06 133.082L446.097 133.045ZM601.611 130.787C601.611 130.787 601.425 130.75 601.351 130.676C600.426 129.602 599.426 128.528 598.464 127.492C598.316 127.344 598.316 127.122 598.464 126.974C598.612 126.826 598.834 126.826 598.982 126.974C599.982 128.01 600.944 129.084 601.907 130.194C602.055 130.342 602.018 130.564 601.907 130.713C601.833 130.787 601.759 130.787 601.685 130.787H601.611ZM453.908 124.605C453.908 124.605 453.723 124.605 453.649 124.493C453.501 124.345 453.501 124.123 453.649 123.975C454.686 122.976 455.759 121.976 456.833 121.014C456.981 120.866 457.203 120.903 457.351 121.014C457.499 121.125 457.462 121.384 457.351 121.532C456.277 122.494 455.204 123.457 454.204 124.456C454.13 124.53 454.056 124.568 453.945 124.568L453.908 124.605ZM593.615 122.569C593.615 122.569 593.43 122.569 593.356 122.457C592.319 121.495 591.208 120.533 590.135 119.607C589.987 119.496 589.95 119.237 590.098 119.089C590.209 118.941 590.468 118.904 590.616 119.052C591.727 119.977 592.8 120.94 593.874 121.902C594.022 122.05 594.022 122.272 593.874 122.42C593.8 122.494 593.689 122.532 593.615 122.532V122.569ZM462.644 117.09C462.644 117.09 462.422 117.053 462.348 116.942C462.237 116.794 462.274 116.572 462.422 116.424C463.57 115.535 464.717 114.684 465.902 113.869C466.05 113.758 466.272 113.795 466.42 113.943C466.531 114.091 466.494 114.313 466.346 114.462C465.162 115.276 464.014 116.127 462.867 117.016C462.793 117.053 462.719 117.09 462.644 117.09ZM584.73 115.276C584.73 115.276 584.582 115.276 584.508 115.202C583.361 114.351 582.176 113.536 580.954 112.759C580.806 112.648 580.732 112.426 580.843 112.277C580.954 112.129 581.177 112.055 581.325 112.166C582.509 112.981 583.731 113.795 584.878 114.647C585.026 114.758 585.063 114.98 584.952 115.165C584.878 115.276 584.767 115.313 584.656 115.313L584.73 115.276ZM472.158 110.575C472.158 110.575 471.899 110.501 471.862 110.39C471.751 110.204 471.825 109.982 471.973 109.908C473.195 109.168 474.453 108.428 475.712 107.761C475.897 107.65 476.119 107.761 476.193 107.909C476.304 108.094 476.193 108.317 476.045 108.391C474.786 109.094 473.528 109.797 472.306 110.538C472.232 110.538 472.195 110.575 472.121 110.575H472.158ZM575.069 109.057C575.069 109.057 574.958 109.057 574.883 109.02C573.625 108.317 572.366 107.65 571.108 106.984C570.923 106.91 570.848 106.688 570.96 106.503C571.034 106.318 571.256 106.244 571.441 106.355C572.736 107.021 573.995 107.687 575.254 108.391C575.439 108.502 575.476 108.724 575.402 108.872C575.328 108.983 575.217 109.057 575.106 109.057H575.069ZM482.338 105.17C482.338 105.17 482.079 105.096 482.005 104.948C481.931 104.763 482.005 104.541 482.19 104.467C483.486 103.874 484.818 103.282 486.151 102.727C486.336 102.653 486.558 102.727 486.632 102.912C486.706 103.097 486.632 103.319 486.447 103.393C485.114 103.948 483.819 104.504 482.486 105.096C482.449 105.096 482.375 105.096 482.338 105.096V105.17ZM564.741 103.948C564.741 103.948 564.629 103.948 564.592 103.948C563.297 103.393 561.927 102.838 560.594 102.357C560.409 102.283 560.298 102.098 560.372 101.875C560.446 101.69 560.669 101.579 560.854 101.653C562.186 102.172 563.556 102.69 564.889 103.245C565.074 103.319 565.148 103.541 565.074 103.726C565 103.874 564.889 103.948 564.741 103.948ZM493.036 100.95C493.036 100.95 492.74 100.839 492.703 100.691C492.629 100.506 492.74 100.284 492.925 100.247C494.295 99.8024 495.665 99.3582 497.071 98.988C497.256 98.951 497.479 99.062 497.516 99.2471C497.553 99.4322 497.442 99.6543 497.256 99.6913C495.887 100.099 494.517 100.506 493.147 100.95C493.11 100.95 493.073 100.95 493.036 100.95ZM553.931 100.062C553.931 100.062 553.857 100.062 553.82 100.062C552.45 99.6543 551.044 99.2841 549.674 98.9139C549.489 98.8769 549.378 98.6548 549.415 98.4697C549.452 98.2846 549.674 98.1736 549.859 98.2106C551.266 98.5808 552.673 98.951 554.042 99.3582C554.227 99.4322 554.338 99.6173 554.301 99.8024C554.264 99.9505 554.116 100.062 553.968 100.062H553.931ZM504.142 97.9515C504.142 97.9515 503.809 97.8404 503.772 97.6553C503.735 97.4702 503.846 97.2851 504.068 97.2481C505.474 96.952 506.918 96.6929 508.325 96.4337C508.51 96.4337 508.695 96.5448 508.732 96.7299C508.732 96.915 508.621 97.1001 508.436 97.1371C507.029 97.3592 505.623 97.6183 504.216 97.9145C504.216 97.9145 504.179 97.9145 504.142 97.9145V97.9515ZM542.752 97.3962C542.752 97.3962 542.715 97.3962 542.678 97.3962C541.271 97.1371 539.827 96.915 538.421 96.7299C538.236 96.7299 538.087 96.5078 538.124 96.3227C538.124 96.1376 538.347 95.9895 538.532 96.0265C539.938 96.2116 541.382 96.4337 542.826 96.6929C543.011 96.6929 543.159 96.915 543.122 97.1001C543.122 97.2851 542.937 97.3962 542.752 97.3962ZM515.543 96.2486C515.543 96.2486 515.21 96.1006 515.173 95.9155C515.173 95.7304 515.284 95.5453 515.506 95.5083C516.95 95.3602 518.394 95.2862 519.837 95.2121C520.023 95.2121 520.208 95.3602 520.208 95.5453C520.208 95.7304 520.06 95.9155 519.875 95.9155C518.468 95.9895 517.024 96.1006 515.58 96.2116L515.543 96.2486ZM531.35 96.0265C529.943 95.9525 528.463 95.8785 527.056 95.8414C526.871 95.8414 526.686 95.6563 526.686 95.4713C526.686 95.2862 526.871 95.1011 527.056 95.1011C528.5 95.1011 529.943 95.1751 531.387 95.2862C531.572 95.2862 531.72 95.4713 531.72 95.6563C531.72 95.8414 531.535 95.9895 531.35 95.9895V96.0265Z" fill="#2F2E41"/>
<path d="M266.633 405.943C266.448 405.943 266.3 405.794 266.263 405.609C266.263 405.424 266.411 405.239 266.596 405.239C268.04 405.165 269.446 405.091 270.89 404.943C271.075 404.943 271.26 405.054 271.297 405.276C271.297 405.461 271.186 405.646 270.964 405.683C269.52 405.831 268.077 405.943 266.633 405.98V405.943ZM259.452 405.868C258.008 405.794 256.564 405.646 255.12 405.461C254.935 405.461 254.787 405.239 254.824 405.054C254.824 404.869 255.046 404.721 255.231 404.758C256.638 404.943 258.082 405.054 259.489 405.165C259.674 405.165 259.822 405.35 259.822 405.535C259.822 405.72 259.637 405.868 259.452 405.868ZM278.035 404.573C278.035 404.573 277.702 404.462 277.664 404.277C277.627 404.092 277.739 403.907 277.961 403.87C279.367 403.573 280.774 403.24 282.144 402.87C282.329 402.833 282.551 402.944 282.588 403.129C282.625 403.314 282.514 403.536 282.329 403.573C280.922 403.944 279.515 404.277 278.109 404.573C278.109 404.573 278.072 404.573 278.035 404.573ZM248.05 404.24C248.05 404.24 248.013 404.24 247.976 404.24C246.569 403.907 245.163 403.536 243.793 403.129C243.608 403.055 243.497 402.87 243.534 402.685C243.608 402.5 243.793 402.389 243.978 402.426C245.348 402.833 246.754 403.203 248.124 403.499C248.309 403.536 248.42 403.721 248.383 403.944C248.346 404.129 248.198 404.24 248.05 404.24ZM289.066 401.352C289.066 401.352 288.77 401.278 288.733 401.13C288.659 400.945 288.733 400.723 288.955 400.649C290.288 400.131 291.62 399.575 292.916 398.983C293.101 398.909 293.323 398.983 293.397 399.168C293.471 399.353 293.397 399.575 293.212 399.649C291.916 400.242 290.547 400.797 289.214 401.315C289.177 401.315 289.14 401.315 289.103 401.315L289.066 401.352ZM237.093 400.76C237.093 400.76 237.019 400.76 236.945 400.76C235.612 400.205 234.279 399.612 232.984 398.983C232.799 398.909 232.724 398.687 232.799 398.502C232.873 398.317 233.095 398.243 233.28 398.317C234.575 398.946 235.871 399.538 237.204 400.057C237.389 400.131 237.463 400.353 237.389 400.538C237.315 400.686 237.204 400.76 237.056 400.76H237.093ZM299.394 396.392C299.394 396.392 299.135 396.318 299.098 396.207C298.987 396.022 299.061 395.8 299.209 395.725C300.431 395.022 301.652 394.245 302.837 393.43C302.985 393.319 303.207 393.356 303.318 393.541C303.429 393.69 303.392 393.912 303.207 394.023C302.022 394.837 300.764 395.614 299.542 396.318C299.468 396.318 299.431 396.355 299.357 396.355L299.394 396.392ZM226.839 395.54C226.839 395.54 226.691 395.54 226.653 395.503C225.432 394.763 224.21 393.949 223.026 393.097C222.878 392.986 222.841 392.764 222.952 392.579C223.063 392.431 223.285 392.394 223.47 392.505C224.617 393.319 225.839 394.134 227.061 394.874C227.246 394.985 227.283 395.207 227.172 395.355C227.098 395.466 226.987 395.54 226.876 395.54H226.839ZM308.797 389.766C308.797 389.766 308.575 389.729 308.538 389.617C308.427 389.469 308.427 389.247 308.575 389.099C309.685 388.174 310.759 387.248 311.795 386.249C311.943 386.101 312.165 386.138 312.313 386.249C312.462 386.36 312.425 386.619 312.313 386.767C311.277 387.767 310.166 388.729 309.056 389.655C308.982 389.729 308.908 389.729 308.834 389.729L308.797 389.766ZM217.584 388.692C217.584 388.692 217.399 388.692 217.362 388.618C216.288 387.656 215.215 386.693 214.178 385.657C214.03 385.508 214.03 385.286 214.178 385.138C214.326 384.99 214.549 384.99 214.697 385.138C215.696 386.138 216.77 387.137 217.843 388.063C217.991 388.211 217.991 388.433 217.843 388.581C217.769 388.655 217.658 388.692 217.584 388.692ZM317.015 381.696C317.015 381.696 316.83 381.696 316.793 381.622C316.645 381.474 316.645 381.251 316.793 381.103C317.718 380.03 318.644 378.919 319.495 377.772C319.606 377.624 319.828 377.587 320.013 377.698C320.198 377.809 320.198 378.031 320.087 378.216C319.199 379.363 318.273 380.474 317.348 381.585C317.274 381.659 317.163 381.696 317.089 381.696H317.015ZM209.551 380.437C209.551 380.437 209.329 380.4 209.292 380.289C208.367 379.178 207.478 378.031 206.627 376.883C206.516 376.735 206.553 376.513 206.701 376.365C206.849 376.254 207.071 376.291 207.219 376.439C208.07 377.587 208.959 378.734 209.847 379.808C209.958 379.956 209.958 380.178 209.81 380.326C209.736 380.4 209.662 380.4 209.588 380.4L209.551 380.437ZM323.826 372.404C323.826 372.404 323.715 372.404 323.641 372.367C323.456 372.256 323.419 372.034 323.53 371.886C324.27 370.664 325.011 369.406 325.677 368.147C325.788 367.962 325.973 367.888 326.158 367.999C326.343 368.11 326.417 368.295 326.306 368.48C325.64 369.739 324.9 370.997 324.159 372.256C324.085 372.367 323.974 372.441 323.863 372.441L323.826 372.404ZM202.962 370.997C202.962 370.997 202.703 370.923 202.666 370.812C201.925 369.554 201.259 368.295 200.593 366.999C200.519 366.814 200.593 366.592 200.741 366.518C200.889 366.444 201.148 366.518 201.222 366.666C201.851 367.925 202.555 369.221 203.258 370.442C203.369 370.627 203.295 370.849 203.147 370.923C203.073 370.923 203.036 370.96 202.962 370.96V370.997ZM329.046 362.15C329.046 362.15 328.972 362.15 328.898 362.15C328.713 362.076 328.638 361.854 328.713 361.669C329.268 360.336 329.749 359.004 330.23 357.634C330.304 357.449 330.489 357.338 330.674 357.412C330.86 357.486 330.971 357.671 330.897 357.856C330.452 359.226 329.934 360.595 329.379 361.928C329.305 362.076 329.194 362.15 329.046 362.15ZM198.001 360.632C198.001 360.632 197.705 360.558 197.668 360.41C197.15 359.078 196.669 357.671 196.262 356.301C196.188 356.116 196.299 355.894 196.484 355.857C196.669 355.783 196.891 355.894 196.928 356.079C197.372 357.449 197.816 358.818 198.335 360.151C198.409 360.336 198.335 360.558 198.113 360.632C198.075 360.632 198.038 360.632 198.001 360.632ZM332.525 351.156C332.525 351.156 332.488 351.156 332.451 351.156C332.266 351.119 332.118 350.934 332.192 350.711C332.525 349.305 332.785 347.898 333.007 346.491C333.007 346.306 333.229 346.158 333.414 346.195C333.599 346.195 333.747 346.417 333.71 346.602C333.488 348.009 333.192 349.453 332.896 350.86C332.859 351.045 332.71 351.156 332.562 351.156H332.525ZM194.781 349.564C194.781 349.564 194.448 349.453 194.411 349.268C194.115 347.861 193.892 346.417 193.67 345.011C193.67 344.826 193.781 344.64 193.966 344.603C194.152 344.603 194.337 344.715 194.374 344.9C194.559 346.306 194.818 347.75 195.114 349.12C195.151 349.305 195.04 349.49 194.818 349.527C194.818 349.527 194.781 349.527 194.744 349.527L194.781 349.564ZM334.154 339.754C333.969 339.754 333.821 339.569 333.821 339.384C333.895 337.977 333.932 336.534 333.932 335.09C333.932 334.905 334.08 334.72 334.302 334.72C334.524 334.72 334.672 334.868 334.672 335.09C334.672 336.534 334.635 337.977 334.524 339.421C334.524 339.606 334.339 339.754 334.154 339.754ZM193.448 338.236C193.263 338.236 193.115 338.088 193.078 337.903C193.078 337.015 193.041 336.089 193.041 335.201C193.041 334.646 193.041 334.127 193.041 333.572C193.041 333.387 193.226 333.202 193.411 333.239C193.596 333.239 193.781 333.424 193.781 333.609C193.781 334.127 193.781 334.683 193.781 335.201C193.781 336.089 193.781 337.015 193.818 337.903C193.818 338.088 193.67 338.273 193.485 338.273L193.448 338.236ZM334.302 334.423C334.117 334.423 333.932 334.275 333.932 334.053C333.932 332.61 333.858 331.166 333.747 329.759C333.747 329.574 333.895 329.389 334.08 329.389C334.265 329.389 334.45 329.537 334.45 329.722C334.561 331.166 334.635 332.61 334.635 334.053C334.635 334.238 334.487 334.423 334.265 334.423H334.302ZM193.929 326.761C193.929 326.761 193.929 326.761 193.892 326.761C193.707 326.761 193.559 326.539 193.596 326.354C193.781 324.91 194.003 323.466 194.263 322.059C194.263 321.874 194.485 321.726 194.67 321.763C194.855 321.763 195.003 321.985 194.966 322.17C194.707 323.577 194.485 324.984 194.3 326.428C194.3 326.613 194.115 326.761 193.929 326.761ZM333.155 323.022C333.155 323.022 332.822 322.911 332.785 322.726C332.525 321.319 332.229 319.912 331.896 318.543C331.859 318.358 331.97 318.172 332.155 318.098C332.34 318.061 332.525 318.172 332.599 318.358C332.933 319.764 333.229 321.171 333.488 322.615C333.488 322.8 333.377 322.985 333.192 323.022C333.192 323.022 333.155 323.022 333.118 323.022H333.155ZM196.299 315.507C196.299 315.507 196.225 315.507 196.188 315.507C196.002 315.433 195.891 315.248 195.928 315.063C196.336 313.693 196.78 312.287 197.298 310.954C197.372 310.769 197.557 310.658 197.742 310.732C197.927 310.806 198.038 310.991 197.964 311.176C197.483 312.509 197.039 313.878 196.632 315.248C196.595 315.396 196.447 315.507 196.299 315.507ZM330.23 311.879C330.23 311.879 329.934 311.805 329.897 311.657C329.416 310.325 328.898 308.992 328.342 307.659C328.268 307.474 328.342 307.252 328.527 307.178C328.713 307.104 328.935 307.178 329.009 307.363C329.564 308.696 330.119 310.029 330.6 311.398C330.674 311.583 330.6 311.805 330.378 311.842C330.341 311.842 330.304 311.842 330.267 311.842L330.23 311.879ZM200.445 304.772C200.445 304.772 200.334 304.772 200.297 304.772C200.111 304.698 200.037 304.476 200.148 304.291C200.778 302.995 201.444 301.699 202.147 300.441C202.259 300.256 202.481 300.219 202.629 300.293C202.814 300.404 202.851 300.626 202.777 300.774C202.073 302.033 201.407 303.291 200.778 304.587C200.704 304.698 200.593 304.772 200.445 304.772ZM325.492 301.403C325.492 301.403 325.233 301.329 325.159 301.218C324.455 299.96 323.715 298.738 322.975 297.516C322.864 297.331 322.901 297.109 323.086 297.035C323.271 296.924 323.493 296.961 323.567 297.146C324.344 298.368 325.085 299.626 325.788 300.885C325.899 301.07 325.788 301.292 325.64 301.366C325.603 301.366 325.529 301.403 325.455 301.403H325.492ZM206.294 294.851C206.294 294.851 206.145 294.851 206.071 294.777C205.923 294.666 205.886 294.444 205.997 294.259C206.812 293.074 207.7 291.927 208.626 290.779C208.737 290.631 208.959 290.594 209.144 290.742C209.329 290.89 209.329 291.075 209.181 291.26C208.292 292.371 207.404 293.518 206.59 294.703C206.516 294.814 206.405 294.851 206.294 294.851ZM319.125 291.816C319.125 291.816 318.903 291.779 318.829 291.668C317.94 290.557 317.015 289.446 316.052 288.373C315.904 288.225 315.941 288.003 316.052 287.855C316.2 287.707 316.422 287.744 316.571 287.855C317.533 288.928 318.458 290.039 319.347 291.186C319.458 291.334 319.458 291.556 319.273 291.705C319.199 291.742 319.125 291.779 319.051 291.779L319.125 291.816ZM213.697 286.041C213.697 286.041 213.512 286.041 213.438 285.93C213.29 285.782 213.29 285.56 213.438 285.411C214.438 284.375 215.511 283.375 216.585 282.413C216.733 282.265 216.955 282.302 217.103 282.413C217.251 282.561 217.214 282.783 217.103 282.931C216.029 283.894 214.993 284.893 213.993 285.893C213.919 285.967 213.845 286.004 213.734 286.004L213.697 286.041ZM311.314 283.412C311.314 283.412 311.129 283.412 311.055 283.301C310.018 282.339 308.908 281.413 307.797 280.525C307.649 280.414 307.612 280.192 307.76 280.007C307.871 279.859 308.093 279.822 308.278 279.97C309.389 280.858 310.5 281.821 311.573 282.783C311.721 282.931 311.721 283.153 311.573 283.301C311.499 283.375 311.388 283.412 311.314 283.412ZM222.433 278.526C222.433 278.526 222.211 278.489 222.137 278.378C222.026 278.23 222.063 278.008 222.211 277.86C223.359 277.008 224.58 276.194 225.802 275.417C225.987 275.305 226.209 275.343 226.283 275.528C226.357 275.713 226.357 275.935 226.172 276.009C224.988 276.786 223.766 277.601 222.619 278.415C222.544 278.452 222.47 278.489 222.396 278.489L222.433 278.526ZM302.245 276.379C302.245 276.379 302.096 276.379 302.059 276.305C300.875 275.528 299.616 274.787 298.395 274.084C298.21 273.973 298.173 273.751 298.247 273.603C298.321 273.455 298.58 273.381 298.728 273.455C299.986 274.158 301.245 274.935 302.43 275.713C302.615 275.824 302.652 276.046 302.541 276.194C302.467 276.305 302.356 276.342 302.245 276.342V276.379ZM232.243 272.529C232.243 272.529 231.984 272.455 231.91 272.344C231.836 272.159 231.91 271.937 232.058 271.863C233.354 271.233 234.649 270.604 235.982 270.049C236.167 269.975 236.389 270.049 236.463 270.234C236.537 270.419 236.463 270.641 236.278 270.715C234.983 271.271 233.65 271.9 232.391 272.529C232.354 272.529 232.28 272.566 232.243 272.566V272.529ZM292.102 270.937C292.102 270.937 291.991 270.937 291.953 270.937C290.658 270.382 289.288 269.827 287.956 269.346C287.77 269.272 287.659 269.086 287.733 268.901C287.807 268.716 287.993 268.605 288.178 268.679C289.547 269.16 290.88 269.716 292.213 270.308C292.398 270.382 292.472 270.604 292.398 270.789C292.324 270.937 292.213 271.011 292.065 271.011L292.102 270.937ZM242.867 268.235C242.867 268.235 242.571 268.124 242.534 267.976C242.46 267.791 242.571 267.569 242.756 267.532C244.126 267.087 245.533 266.717 246.939 266.384C247.125 266.347 247.31 266.458 247.384 266.643C247.458 266.828 247.31 267.013 247.125 267.087C245.755 267.421 244.348 267.828 242.978 268.235C242.978 268.235 242.904 268.235 242.867 268.235ZM281.218 267.199H281.144C279.775 266.865 278.368 266.532 276.961 266.273C276.776 266.273 276.628 266.051 276.665 265.866C276.702 265.681 276.887 265.533 277.072 265.57C278.479 265.829 279.923 266.162 281.292 266.495C281.477 266.532 281.588 266.754 281.551 266.939C281.514 267.087 281.366 267.199 281.218 267.199ZM254.084 265.718C254.084 265.718 253.751 265.57 253.714 265.422C253.714 265.237 253.825 265.051 254.01 265.014C255.417 264.829 256.897 264.644 258.304 264.533C258.489 264.533 258.674 264.681 258.674 264.866C258.674 265.051 258.526 265.237 258.341 265.237C256.934 265.348 255.491 265.496 254.084 265.681C254.084 265.681 254.084 265.681 254.047 265.681L254.084 265.718ZM269.854 265.311C268.447 265.2 267.003 265.126 265.56 265.088C265.374 265.088 265.189 264.903 265.226 264.718C265.226 264.533 265.411 264.348 265.597 264.385C267.04 264.385 268.484 264.496 269.928 264.607C270.113 264.607 270.261 264.792 270.261 265.014C270.261 265.2 270.076 265.348 269.891 265.348L269.854 265.311Z" fill="#2F2E41"/>
<path d="M268.337 376.254H257.195C254.196 376.254 251.753 373.811 251.753 370.812V204.009C251.753 201.01 254.196 198.567 257.195 198.567H263.155C263.71 198.567 264.154 199.011 264.154 199.566C264.154 200.122 263.71 200.566 263.155 200.566H257.195C255.307 200.566 253.752 202.121 253.752 204.009V370.812C253.752 372.7 255.307 374.255 257.195 374.255H268.337C268.892 374.255 269.337 374.699 269.337 375.254C269.337 375.81 268.892 376.254 268.337 376.254Z" fill="#2F2E41"/>
<path d="M371.173 177.244H264.968V427.783H371.173V177.244Z" fill="white"/>
<path d="M371.174 428.153H264.969C264.784 428.153 264.599 428.005 264.599 427.783V177.244C264.599 177.059 264.747 176.874 264.969 176.874H371.174C371.359 176.874 371.544 177.022 371.544 177.244V427.783C371.544 427.968 371.396 428.153 371.174 428.153ZM265.339 427.45H370.841V177.578H265.339V427.413V427.45Z" fill="#2F2E41"/>
<path d="M359.217 191.348H276.926V413.642H359.217V191.348Z" fill="#2F2E41"/>
<path d="M354.219 197.308H281.923V214.744H354.219V197.308Z" fill="white"/>
<path d="M316.572 199.825H284.699V205.711H316.572V199.825Z" fill="#DEE8E9"/>
<path d="M328.603 203.934C329.421 203.934 330.084 203.271 330.084 202.454C330.084 201.636 329.421 200.973 328.603 200.973C327.785 200.973 327.122 201.636 327.122 202.454C327.122 203.271 327.785 203.934 328.603 203.934Z" fill="#DEE8E9"/>
<path d="M335.414 203.934C336.232 203.934 336.895 203.271 336.895 202.454C336.895 201.636 336.232 200.973 335.414 200.973C334.597 200.973 333.934 201.636 333.934 202.454C333.934 203.271 334.597 203.934 335.414 203.934Z" fill="#DEE8E9"/>
<path d="M341.966 203.934C342.784 203.934 343.447 203.271 343.447 202.454C343.447 201.636 342.784 200.973 341.966 200.973C341.148 200.973 340.485 201.636 340.485 202.454C340.485 203.271 341.148 203.934 341.966 203.934Z" fill="#DEE8E9"/>
<path d="M343.446 208.525H327.158C326.973 208.525 326.788 208.376 326.788 208.154C326.788 207.932 326.936 207.784 327.158 207.784H343.446C343.631 207.784 343.816 207.932 343.816 208.154C343.816 208.376 343.668 208.525 343.446 208.525Z" fill="#2F2E41"/>
<path d="M354.219 218.89H281.923V236.325H354.219V218.89Z" fill="white"/>
<path d="M316.572 221.407H284.699V227.293H316.572V221.407Z" fill="#DEE8E9"/>
<path d="M328.603 225.516C329.421 225.516 330.084 224.853 330.084 224.035C330.084 223.218 329.421 222.555 328.603 222.555C327.785 222.555 327.122 223.218 327.122 224.035C327.122 224.853 327.785 225.516 328.603 225.516Z" fill="#DEE8E9"/>
<path d="M335.414 225.516C336.232 225.516 336.895 224.853 336.895 224.035C336.895 223.218 336.232 222.555 335.414 222.555C334.597 222.555 333.934 223.218 333.934 224.035C333.934 224.853 334.597 225.516 335.414 225.516Z" fill="#DEE8E9"/>
<path d="M341.966 225.516C342.784 225.516 343.447 224.853 343.447 224.035C343.447 223.218 342.784 222.555 341.966 222.555C341.148 222.555 340.485 223.218 340.485 224.035C340.485 224.853 341.148 225.516 341.966 225.516Z" fill="#DEE8E9"/>
<path d="M343.446 230.106H327.158C326.973 230.106 326.788 229.958 326.788 229.736C326.788 229.514 326.936 229.366 327.158 229.366H343.446C343.631 229.366 343.816 229.514 343.816 229.736C343.816 229.958 343.668 230.106 343.446 230.106Z" fill="#2F2E41"/>
<path d="M354.219 240.471H281.923V257.907H354.219V240.471Z" fill="white"/>
<path d="M316.572 242.989H284.699V248.875H316.572V242.989Z" fill="#DEE8E9"/>
<path d="M328.603 247.098C329.421 247.098 330.084 246.435 330.084 245.617C330.084 244.799 329.421 244.136 328.603 244.136C327.785 244.136 327.122 244.799 327.122 245.617C327.122 246.435 327.785 247.098 328.603 247.098Z" fill="#DEE8E9"/>
<path d="M335.414 247.098C336.232 247.098 336.895 246.435 336.895 245.617C336.895 244.799 336.232 244.136 335.414 244.136C334.597 244.136 333.934 244.799 333.934 245.617C333.934 246.435 334.597 247.098 335.414 247.098Z" fill="#DEE8E9"/>
<path d="M341.966 247.098C342.784 247.098 343.447 246.435 343.447 245.617C343.447 244.799 342.784 244.136 341.966 244.136C341.148 244.136 340.485 244.799 340.485 245.617C340.485 246.435 341.148 247.098 341.966 247.098Z" fill="#DEE8E9"/>
<path d="M343.446 251.688H327.158C326.973 251.688 326.788 251.54 326.788 251.318C326.788 251.096 326.936 250.948 327.158 250.948H343.446C343.631 250.948 343.816 251.096 343.816 251.318C343.816 251.54 343.668 251.688 343.446 251.688Z" fill="#2F2E41"/>
<path d="M354.219 262.053H281.923V279.489H354.219V262.053Z" fill="white"/>
<path d="M316.572 264.57H284.699V270.456H316.572V264.57Z" fill="#DEE8E9"/>
<path d="M330.084 267.199C330.084 268.013 329.417 268.679 328.603 268.679C327.788 268.679 327.122 268.013 327.122 267.199C327.122 266.384 327.788 265.718 328.603 265.718C329.417 265.718 330.084 266.384 330.084 267.199Z" fill="#DEE8E9"/>
<path d="M336.895 267.199C336.895 268.013 336.229 268.679 335.414 268.679C334.6 268.679 333.934 268.013 333.934 267.199C333.934 266.384 334.6 265.718 335.414 265.718C336.229 265.718 336.895 266.384 336.895 267.199Z" fill="#DEE8E9"/>
<path d="M343.447 267.199C343.447 268.013 342.78 268.679 341.966 268.679C341.152 268.679 340.485 268.013 340.485 267.199C340.485 266.384 341.152 265.718 341.966 265.718C342.78 265.718 343.447 266.384 343.447 267.199Z" fill="#DEE8E9"/>
<path d="M343.446 273.269H327.158C326.973 273.269 326.788 273.121 326.788 272.899C326.788 272.677 326.936 272.529 327.158 272.529H343.446C343.631 272.529 343.816 272.677 343.816 272.899C343.816 273.121 343.668 273.269 343.446 273.269Z" fill="#2F2E41"/>
<path d="M354.219 283.635H281.923V301.07H354.219V283.635Z" fill="white"/>
<path d="M316.572 286.152H284.699V292.038H316.572V286.152Z" fill="#DEE8E9"/>
<path d="M330.084 288.78C330.084 289.594 329.417 290.261 328.603 290.261C327.788 290.261 327.122 289.594 327.122 288.78C327.122 287.966 327.788 287.299 328.603 287.299C329.417 287.299 330.084 287.966 330.084 288.78Z" fill="#DEE8E9"/>
<path d="M336.895 288.78C336.895 289.594 336.229 290.261 335.414 290.261C334.6 290.261 333.934 289.594 333.934 288.78C333.934 287.966 334.6 287.299 335.414 287.299C336.229 287.299 336.895 287.966 336.895 288.78Z" fill="#DEE8E9"/>
<path d="M343.447 288.78C343.447 289.594 342.78 290.261 341.966 290.261C341.152 290.261 340.485 289.594 340.485 288.78C340.485 287.966 341.152 287.299 341.966 287.299C342.78 287.299 343.447 287.966 343.447 288.78Z" fill="#DEE8E9"/>
<path d="M343.446 294.851H327.158C326.973 294.851 326.788 294.703 326.788 294.481C326.788 294.259 326.936 294.111 327.158 294.111H343.446C343.631 294.111 343.816 294.259 343.816 294.481C343.816 294.703 343.668 294.851 343.446 294.851Z" fill="#2F2E41"/>
<path d="M354.219 305.216H281.923V322.652H354.219V305.216Z" fill="white"/>
<path d="M316.572 307.734H284.699V313.62H316.572V307.734Z" fill="#DEE8E9"/>
<path d="M330.084 310.362C330.084 311.176 329.417 311.843 328.603 311.843C327.788 311.843 327.122 311.176 327.122 310.362C327.122 309.547 327.788 308.881 328.603 308.881C329.417 308.881 330.084 309.547 330.084 310.362Z" fill="#DEE8E9"/>
<path d="M336.895 310.362C336.895 311.176 336.229 311.843 335.414 311.843C334.6 311.843 333.934 311.176 333.934 310.362C333.934 309.547 334.6 308.881 335.414 308.881C336.229 308.881 336.895 309.547 336.895 310.362Z" fill="#DEE8E9"/>
<path d="M343.447 310.362C343.447 311.176 342.78 311.843 341.966 311.843C341.152 311.843 340.485 311.176 340.485 310.362C340.485 309.547 341.152 308.881 341.966 308.881C342.78 308.881 343.447 309.547 343.447 310.362Z" fill="#DEE8E9"/>
<path d="M343.446 316.433H327.158C326.973 316.433 326.788 316.285 326.788 316.063C326.788 315.84 326.936 315.692 327.158 315.692H343.446C343.631 315.692 343.816 315.84 343.816 316.063C343.816 316.285 343.668 316.433 343.446 316.433Z" fill="#2F2E41"/>
<path d="M354.219 326.798H281.923V344.233H354.219V326.798Z" fill="white"/>
<path d="M316.572 329.315H284.699V335.201H316.572V329.315Z" fill="#DEE8E9"/>
<path d="M330.084 331.943C330.084 332.758 329.417 333.424 328.603 333.424C327.788 333.424 327.122 332.758 327.122 331.943C327.122 331.129 327.788 330.463 328.603 330.463C329.417 330.463 330.084 331.129 330.084 331.943Z" fill="#DEE8E9"/>
<path d="M336.895 331.943C336.895 332.758 336.229 333.424 335.414 333.424C334.6 333.424 333.934 332.758 333.934 331.943C333.934 331.129 334.6 330.463 335.414 330.463C336.229 330.463 336.895 331.129 336.895 331.943Z" fill="#DEE8E9"/>
<path d="M343.447 331.943C343.447 332.758 342.78 333.424 341.966 333.424C341.152 333.424 340.485 332.758 340.485 331.943C340.485 331.129 341.152 330.463 341.966 330.463C342.78 330.463 343.447 331.129 343.447 331.943Z" fill="#DEE8E9"/>
<path d="M343.446 338.014H327.158C326.973 338.014 326.788 337.866 326.788 337.644C326.788 337.422 326.936 337.274 327.158 337.274H343.446C343.631 337.274 343.816 337.422 343.816 337.644C343.816 337.866 343.668 338.014 343.446 338.014Z" fill="#2F2E41"/>
<path d="M354.219 348.379H281.923V365.815H354.219V348.379Z" fill="white"/>
<path d="M316.572 350.896H284.699V356.782H316.572V350.896Z" fill="#DEE8E9"/>
<path d="M330.084 353.525C330.084 354.339 329.417 355.005 328.603 355.005C327.788 355.005 327.122 354.339 327.122 353.525C327.122 352.71 327.788 352.044 328.603 352.044C329.417 352.044 330.084 352.71 330.084 353.525Z" fill="#DEE8E9"/>
<path d="M336.895 353.525C336.895 354.339 336.229 355.005 335.414 355.005C334.6 355.005 333.934 354.339 333.934 353.525C333.934 352.71 334.6 352.044 335.414 352.044C336.229 352.044 336.895 352.71 336.895 353.525Z" fill="#DEE8E9"/>
<path d="M343.447 353.525C343.447 354.339 342.78 355.005 341.966 355.005C341.152 355.005 340.485 354.339 340.485 353.525C340.485 352.71 341.152 352.044 341.966 352.044C342.78 352.044 343.447 352.71 343.447 353.525Z" fill="#DEE8E9"/>
<path d="M343.446 359.596H327.158C326.973 359.596 326.788 359.448 326.788 359.225C326.788 359.003 326.936 358.855 327.158 358.855H343.446C343.631 358.855 343.816 359.003 343.816 359.225C343.816 359.448 343.668 359.596 343.446 359.596Z" fill="#2F2E41"/>
<path d="M354.219 369.961H281.923V387.396H354.219V369.961Z" fill="white"/>
<path d="M316.572 372.478H284.699V378.364H316.572V372.478Z" fill="#DEE8E9"/>
<path d="M330.084 375.106C330.084 375.921 329.417 376.587 328.603 376.587C327.788 376.587 327.122 375.921 327.122 375.106C327.122 374.292 327.788 373.626 328.603 373.626C329.417 373.626 330.084 374.292 330.084 375.106Z" fill="#DEE8E9"/>
<path d="M336.895 375.106C336.895 375.921 336.229 376.587 335.414 376.587C334.6 376.587 333.934 375.921 333.934 375.106C333.934 374.292 334.6 373.626 335.414 373.626C336.229 373.626 336.895 374.292 336.895 375.106Z" fill="#DEE8E9"/>
<path d="M343.447 375.106C343.447 375.921 342.78 376.587 341.966 376.587C341.152 376.587 340.485 375.921 340.485 375.106C340.485 374.292 341.152 373.626 341.966 373.626C342.78 373.626 343.447 374.292 343.447 375.106Z" fill="#DEE8E9"/>
<path d="M343.446 381.177H327.158C326.973 381.177 326.788 381.029 326.788 380.807C326.788 380.585 326.936 380.437 327.158 380.437H343.446C343.631 380.437 343.816 380.585 343.816 380.807C343.816 381.029 343.668 381.177 343.446 381.177Z" fill="#2F2E41"/>
<path d="M401.27 376.254H390.127C387.129 376.254 384.686 373.811 384.686 370.812V204.009C384.686 201.01 387.129 198.567 390.127 198.567H396.087C396.642 198.567 397.087 199.011 397.087 199.566C397.087 200.122 396.642 200.566 396.087 200.566H390.127C388.239 200.566 386.685 202.121 386.685 204.009V370.812C386.685 372.7 388.239 374.255 390.127 374.255H401.27C401.825 374.255 402.269 374.699 402.269 375.254C402.269 375.81 401.825 376.254 401.27 376.254Z" fill="#2F2E41"/>
<path d="M504.105 177.244H397.9V427.783H504.105V177.244Z" fill="white"/>
<path d="M504.106 428.153H397.901C397.716 428.153 397.531 428.005 397.531 427.783V177.244C397.531 177.059 397.679 176.874 397.901 176.874H504.106C504.292 176.874 504.477 177.022 504.477 177.244V427.783C504.477 427.968 504.329 428.153 504.106 428.153ZM398.272 427.45H503.773V177.578H398.272V427.413V427.45Z" fill="#2F2E41"/>
<path d="M492.15 191.348H409.858V413.642H492.15V191.348Z" fill="#2F2E41"/>
<path d="M487.153 197.308H414.856V214.744H487.153V197.308Z" fill="white"/>
<path d="M449.505 199.825H417.633V205.711H449.505V199.825Z" fill="#DEE8E9"/>
<path d="M463.017 202.454C463.017 203.268 462.351 203.934 461.536 203.934C460.722 203.934 460.056 203.268 460.056 202.454C460.056 201.639 460.722 200.973 461.536 200.973C462.351 200.973 463.017 201.639 463.017 202.454Z" fill="#DEE8E9"/>
<path d="M469.792 202.454C469.792 203.268 469.125 203.934 468.311 203.934C467.496 203.934 466.83 203.268 466.83 202.454C466.83 201.639 467.496 200.973 468.311 200.973C469.125 200.973 469.792 201.639 469.792 202.454Z" fill="#DEE8E9"/>
<path d="M474.9 203.934C475.717 203.934 476.38 203.271 476.38 202.454C476.38 201.636 475.717 200.973 474.9 200.973C474.082 200.973 473.419 201.636 473.419 202.454C473.419 203.271 474.082 203.934 474.9 203.934Z" fill="#DEE8E9"/>
<path d="M476.38 208.525H460.092C459.907 208.525 459.722 208.377 459.722 208.155C459.722 207.933 459.87 207.784 460.092 207.784H476.38C476.565 207.784 476.75 207.933 476.75 208.155C476.75 208.377 476.602 208.525 476.38 208.525Z" fill="#2F2E41"/>
<path d="M487.153 218.89H414.856V236.325H487.153V218.89Z" fill="white"/>
<path d="M449.505 221.407H417.633V227.293H449.505V221.407Z" fill="#DEE8E9"/>
<path d="M463.017 224.035C463.017 224.85 462.351 225.516 461.536 225.516C460.722 225.516 460.056 224.85 460.056 224.035C460.056 223.221 460.722 222.555 461.536 222.555C462.351 222.555 463.017 223.221 463.017 224.035Z" fill="#DEE8E9"/>
<path d="M469.792 224.035C469.792 224.85 469.125 225.516 468.311 225.516C467.496 225.516 466.83 224.85 466.83 224.035C466.83 223.221 467.496 222.555 468.311 222.555C469.125 222.555 469.792 223.221 469.792 224.035Z" fill="#DEE8E9"/>
<path d="M474.9 225.516C475.717 225.516 476.38 224.853 476.38 224.035C476.38 223.218 475.717 222.555 474.9 222.555C474.082 222.555 473.419 223.218 473.419 224.035C473.419 224.853 474.082 225.516 474.9 225.516Z" fill="#DEE8E9"/>
<path d="M476.38 230.107H460.092C459.907 230.107 459.722 229.958 459.722 229.736C459.722 229.514 459.87 229.366 460.092 229.366H476.38C476.565 229.366 476.75 229.514 476.75 229.736C476.75 229.958 476.602 230.107 476.38 230.107Z" fill="#2F2E41"/>
<path d="M487.153 240.471H414.856V257.907H487.153V240.471Z" fill="white"/>
<path d="M449.505 242.989H417.633V248.874H449.505V242.989Z" fill="#DEE8E9"/>
<path d="M463.017 245.617C463.017 246.431 462.351 247.097 461.536 247.097C460.722 247.097 460.056 246.431 460.056 245.617C460.056 244.802 460.722 244.136 461.536 244.136C462.351 244.136 463.017 244.802 463.017 245.617Z" fill="#DEE8E9"/>
<path d="M469.792 245.617C469.792 246.431 469.125 247.097 468.311 247.097C467.496 247.097 466.83 246.431 466.83 245.617C466.83 244.802 467.496 244.136 468.311 244.136C469.125 244.136 469.792 244.802 469.792 245.617Z" fill="#DEE8E9"/>
<path d="M474.9 247.097C475.717 247.097 476.38 246.434 476.38 245.617C476.38 244.799 475.717 244.136 474.9 244.136C474.082 244.136 473.419 244.799 473.419 245.617C473.419 246.434 474.082 247.097 474.9 247.097Z" fill="#DEE8E9"/>
<path d="M476.38 251.688H460.092C459.907 251.688 459.722 251.54 459.722 251.318C459.722 251.096 459.87 250.948 460.092 250.948H476.38C476.565 250.948 476.75 251.096 476.75 251.318C476.75 251.54 476.602 251.688 476.38 251.688Z" fill="#2F2E41"/>
<path d="M487.153 262.053H414.856V279.489H487.153V262.053Z" fill="white"/>
<path d="M449.505 264.57H417.633V270.456H449.505V264.57Z" fill="#DEE8E9"/>
<path d="M463.017 267.198C463.017 268.013 462.351 268.679 461.536 268.679C460.722 268.679 460.056 268.013 460.056 267.198C460.056 266.384 460.722 265.718 461.536 265.718C462.351 265.718 463.017 266.384 463.017 267.198Z" fill="#DEE8E9"/>
<path d="M469.792 267.198C469.792 268.013 469.125 268.679 468.311 268.679C467.496 268.679 466.83 268.013 466.83 267.198C466.83 266.384 467.496 265.718 468.311 265.718C469.125 265.718 469.792 266.384 469.792 267.198Z" fill="#DEE8E9"/>
<path d="M476.38 267.198C476.38 268.013 475.714 268.679 474.9 268.679C474.085 268.679 473.419 268.013 473.419 267.198C473.419 266.384 474.085 265.718 474.9 265.718C475.714 265.718 476.38 266.384 476.38 267.198Z" fill="#DEE8E9"/>
<path d="M476.38 273.269H460.092C459.907 273.269 459.722 273.121 459.722 272.899C459.722 272.677 459.87 272.529 460.092 272.529H476.38C476.565 272.529 476.75 272.677 476.75 272.899C476.75 273.121 476.602 273.269 476.38 273.269Z" fill="#2F2E41"/>
<path d="M487.153 283.635H414.856V301.07H487.153V283.635Z" fill="white"/>
<path d="M449.505 286.152H417.633V292.037H449.505V286.152Z" fill="#DEE8E9"/>
<path d="M463.017 288.78C463.017 289.594 462.351 290.261 461.536 290.261C460.722 290.261 460.056 289.594 460.056 288.78C460.056 287.966 460.722 287.299 461.536 287.299C462.351 287.299 463.017 287.966 463.017 288.78Z" fill="#DEE8E9"/>
<path d="M469.792 288.78C469.792 289.594 469.125 290.261 468.311 290.261C467.496 290.261 466.83 289.594 466.83 288.78C466.83 287.966 467.496 287.299 468.311 287.299C469.125 287.299 469.792 287.966 469.792 288.78Z" fill="#DEE8E9"/>
<path d="M476.38 288.78C476.38 289.594 475.714 290.261 474.9 290.261C474.085 290.261 473.419 289.594 473.419 288.78C473.419 287.966 474.085 287.299 474.9 287.299C475.714 287.299 476.38 287.966 476.38 288.78Z" fill="#DEE8E9"/>
<path d="M476.38 294.851H460.092C459.907 294.851 459.722 294.703 459.722 294.481C459.722 294.259 459.87 294.111 460.092 294.111H476.38C476.565 294.111 476.75 294.259 476.75 294.481C476.75 294.703 476.602 294.851 476.38 294.851Z" fill="#2F2E41"/>
<path d="M487.153 305.216H414.856V322.652H487.153V305.216Z" fill="white"/>
<path d="M449.505 307.733H417.633V313.619H449.505V307.733Z" fill="#DEE8E9"/>
<path d="M463.017 310.362C463.017 311.176 462.351 311.843 461.536 311.843C460.722 311.843 460.056 311.176 460.056 310.362C460.056 309.547 460.722 308.881 461.536 308.881C462.351 308.881 463.017 309.547 463.017 310.362Z" fill="#DEE8E9"/>
<path d="M469.792 310.362C469.792 311.176 469.125 311.843 468.311 311.843C467.496 311.843 466.83 311.176 466.83 310.362C466.83 309.547 467.496 308.881 468.311 308.881C469.125 308.881 469.792 309.547 469.792 310.362Z" fill="#DEE8E9"/>
<path d="M476.38 310.362C476.38 311.176 475.714 311.843 474.9 311.843C474.085 311.843 473.419 311.176 473.419 310.362C473.419 309.547 474.085 308.881 474.9 308.881C475.714 308.881 476.38 309.547 476.38 310.362Z" fill="#DEE8E9"/>
<path d="M476.38 316.433H460.092C459.907 316.433 459.722 316.285 459.722 316.063C459.722 315.84 459.87 315.692 460.092 315.692H476.38C476.565 315.692 476.75 315.84 476.75 316.063C476.75 316.285 476.602 316.433 476.38 316.433Z" fill="#2F2E41"/>
<path d="M487.153 326.798H414.856V344.233H487.153V326.798Z" fill="white"/>
<path d="M449.505 329.315H417.633V335.201H449.505V329.315Z" fill="#DEE8E9"/>
<path d="M463.017 331.943C463.017 332.758 462.351 333.424 461.536 333.424C460.722 333.424 460.056 332.758 460.056 331.943C460.056 331.129 460.722 330.463 461.536 330.463C462.351 330.463 463.017 331.129 463.017 331.943Z" fill="#DEE8E9"/>
<path d="M469.792 331.943C469.792 332.758 469.125 333.424 468.311 333.424C467.496 333.424 466.83 332.758 466.83 331.943C466.83 331.129 467.496 330.463 468.311 330.463C469.125 330.463 469.792 331.129 469.792 331.943Z" fill="#DEE8E9"/>
<path d="M476.38 331.943C476.38 332.758 475.714 333.424 474.9 333.424C474.085 333.424 473.419 332.758 473.419 331.943C473.419 331.129 474.085 330.463 474.9 330.463C475.714 330.463 476.38 331.129 476.38 331.943Z" fill="#DEE8E9"/>
<path d="M476.38 338.014H460.092C459.907 338.014 459.722 337.866 459.722 337.644C459.722 337.422 459.87 337.274 460.092 337.274H476.38C476.565 337.274 476.75 337.422 476.75 337.644C476.75 337.866 476.602 338.014 476.38 338.014Z" fill="#2F2E41"/>
<path d="M487.153 348.379H414.856V365.815H487.153V348.379Z" fill="white"/>
<path d="M449.505 350.896H417.633V356.782H449.505V350.896Z" fill="#DEE8E9"/>
<path d="M463.017 353.525C463.017 354.339 462.351 355.005 461.536 355.005C460.722 355.005 460.056 354.339 460.056 353.525C460.056 352.71 460.722 352.044 461.536 352.044C462.351 352.044 463.017 352.71 463.017 353.525Z" fill="#DEE8E9"/>
<path d="M469.792 353.525C469.792 354.339 469.125 355.005 468.311 355.005C467.496 355.005 466.83 354.339 466.83 353.525C466.83 352.71 467.496 352.044 468.311 352.044C469.125 352.044 469.792 352.71 469.792 353.525Z" fill="#DEE8E9"/>
<path d="M476.38 353.525C476.38 354.339 475.714 355.005 474.9 355.005C474.085 355.005 473.419 354.339 473.419 353.525C473.419 352.71 474.085 352.044 474.9 352.044C475.714 352.044 476.38 352.71 476.38 353.525Z" fill="#DEE8E9"/>
<path d="M476.38 359.596H460.092C459.907 359.596 459.722 359.448 459.722 359.226C459.722 359.004 459.87 358.855 460.092 358.855H476.38C476.565 358.855 476.75 359.004 476.75 359.226C476.75 359.448 476.602 359.596 476.38 359.596Z" fill="#2F2E41"/>
<path d="M487.153 369.961H414.856V387.396H487.153V369.961Z" fill="white"/>
<path d="M449.505 372.478H417.633V378.364H449.505V372.478Z" fill="#DEE8E9"/>
<path d="M463.017 375.106C463.017 375.921 462.351 376.587 461.536 376.587C460.722 376.587 460.056 375.921 460.056 375.106C460.056 374.292 460.722 373.626 461.536 373.626C462.351 373.626 463.017 374.292 463.017 375.106Z" fill="#DEE8E9"/>
<path d="M469.792 375.106C469.792 375.921 469.125 376.587 468.311 376.587C467.496 376.587 466.83 375.921 466.83 375.106C466.83 374.292 467.496 373.626 468.311 373.626C469.125 373.626 469.792 374.292 469.792 375.106Z" fill="#DEE8E9"/>
<path d="M476.38 375.106C476.38 375.921 475.714 376.587 474.9 376.587C474.085 376.587 473.419 375.921 473.419 375.106C473.419 374.292 474.085 373.626 474.9 373.626C475.714 373.626 476.38 374.292 476.38 375.106Z" fill="#DEE8E9"/>
<path d="M476.38 381.178H460.092C459.907 381.178 459.722 381.03 459.722 380.807C459.722 380.585 459.87 380.437 460.092 380.437H476.38C476.565 380.437 476.75 380.585 476.75 380.807C476.75 381.03 476.602 381.178 476.38 381.178Z" fill="#2F2E41"/>
<path d="M571.405 200.455L563.557 198.678L559.633 199.863C558.893 200.085 558.486 200.936 558.782 201.64C559.004 202.195 559.596 202.528 560.226 202.417L564.038 201.788L570.813 203.268L571.405 200.418V200.455Z" fill="white"/>
<path d="M570.85 203.638C570.85 203.638 570.813 203.638 570.776 203.638L564.075 202.195L560.299 202.787C559.522 202.898 558.782 202.491 558.485 201.787C558.3 201.343 558.3 200.862 558.485 200.418C558.671 199.974 559.078 199.64 559.522 199.529L563.446 198.345C563.446 198.345 563.557 198.345 563.631 198.345L571.479 200.122C571.664 200.159 571.775 200.344 571.738 200.529L571.146 203.379C571.146 203.379 571.072 203.564 570.998 203.601C570.924 203.638 570.887 203.675 570.813 203.675L570.85 203.638ZM564.075 201.454C564.075 201.454 564.112 201.454 564.149 201.454L570.553 202.861L570.998 200.714L563.594 199.011L559.781 200.159C559.522 200.233 559.3 200.418 559.189 200.677C559.078 200.936 559.078 201.195 559.189 201.454C559.374 201.861 559.781 202.121 560.225 202.047L564.038 201.454C564.038 201.454 564.075 201.454 564.112 201.454H564.075Z" fill="#2F2E41"/>
<path d="M567.408 179.725V205.156L565.668 204.749L564.15 204.379C563.114 204.12 562.077 204.786 561.855 205.822C561.855 205.97 561.818 206.119 561.818 206.23C561.818 207.007 562.299 207.747 563.077 208.006L565.705 208.969L567.445 209.598V213.152C567.445 214.485 566.371 215.595 565.076 215.669C565.038 215.669 565.001 215.669 564.964 215.669H513.398C513.398 215.669 513.324 215.669 513.287 215.669C511.954 215.595 510.918 214.522 510.918 213.152V184.685C510.918 183.315 512.029 182.168 513.435 182.168H542.754L544.123 178.725C544.493 177.763 545.419 177.133 546.455 177.133H565.001C566.371 177.133 567.519 178.244 567.519 179.651L567.408 179.725Z" fill="#673DE6"/>
<path d="M565.668 184.981V204.749L564.15 204.379C563.114 204.119 562.077 204.786 561.855 205.822C561.855 205.97 561.818 206.118 561.818 206.229C561.818 207.007 562.299 207.747 563.077 208.006L565.705 208.969V213.966H512.621V184.907H565.705L565.668 184.981Z" fill="white"/>
<path d="M567.408 188.054V205.193L565.668 204.786L564.15 204.416C563.114 204.157 562.077 204.823 561.855 205.859C561.855 206.007 561.818 206.155 561.818 206.267C561.818 207.044 562.299 207.784 563.077 208.043L565.705 209.006L567.445 209.635V213.448C567.445 214.67 566.371 215.669 565.075 215.706C565.038 215.706 565.001 215.706 564.964 215.706H513.398C513.398 215.706 513.324 215.706 513.287 215.706C511.954 215.632 510.918 214.67 510.918 213.448V188.017H567.482L567.408 188.054Z" fill="#673DE6"/>
<path d="M564.89 216.076H513.324C513.324 216.076 513.213 216.076 513.176 216.076C511.658 216.002 510.437 214.744 510.437 213.226V184.759C510.437 183.167 511.732 181.872 513.324 181.872H542.383L543.679 178.651C544.123 177.541 545.16 176.837 546.344 176.837H564.89C566.482 176.837 567.778 178.133 567.778 179.725V205.156C567.778 205.156 567.741 205.378 567.63 205.452C567.556 205.526 567.444 205.563 567.333 205.526L564.076 204.749C563.669 204.638 563.261 204.749 562.891 204.934C562.521 205.119 562.299 205.489 562.188 205.896C562.188 206.007 562.151 206.119 562.151 206.23C562.151 206.859 562.558 207.451 563.15 207.673L567.519 209.302C567.519 209.302 567.741 209.487 567.741 209.635V213.189C567.741 214.707 566.556 215.965 565.001 216.039C564.964 216.039 564.89 216.039 564.853 216.039L564.89 216.076ZM513.324 182.575C512.139 182.575 511.177 183.537 511.177 184.722V213.189C511.177 214.337 512.065 215.262 513.213 215.336C513.25 215.336 513.287 215.336 513.324 215.336H564.89C564.89 215.336 564.964 215.336 565.001 215.336C566.149 215.262 567.037 214.337 567.037 213.189V209.894L562.891 208.377C562.003 208.043 561.411 207.192 561.411 206.267C561.411 206.081 561.411 205.933 561.485 205.785C561.633 205.193 561.966 204.675 562.484 204.342C563.002 204.008 563.632 203.934 564.224 204.045L567.037 204.712V179.725C567.037 178.54 566.075 177.578 564.89 177.578H546.344C545.456 177.578 544.678 178.096 544.345 178.91L542.975 182.353C542.975 182.353 542.79 182.575 542.642 182.575H513.324Z" fill="#673DE6"/>
<path d="M598.539 221.333L586.471 228.663L577.402 217.928L572.108 211.412L567.37 209.672L565.63 209.043L563.002 208.081C562.224 207.785 561.743 207.081 561.743 206.304C561.743 206.156 561.743 206.008 561.78 205.897C562.002 204.86 563.039 204.194 564.075 204.453L565.593 204.823L567.333 205.23L570.59 206.008L569.036 202.935C568.703 202.75 568.073 202.491 567.37 202.195V197.531L571.775 198.419C572.626 198.567 573.441 198.974 574.033 199.641L583.732 210.191C583.732 210.191 597.429 220.704 598.539 221.407V221.333Z" fill="white"/>
<path d="M586.471 228.996C586.471 228.996 586.249 228.959 586.212 228.885L577.143 218.15L571.923 211.709L562.891 208.377C562.002 208.044 561.41 207.192 561.41 206.267C561.41 206.082 561.41 205.934 561.484 205.786C561.632 205.193 561.965 204.675 562.484 204.342C563.002 204.009 563.631 203.935 564.224 204.046L569.961 205.415L568.814 203.157C568.518 203.009 567.999 202.787 567.259 202.491C567.111 202.454 567.037 202.306 567.037 202.158V197.494C567.037 197.494 567.074 197.271 567.185 197.197C567.259 197.123 567.37 197.086 567.481 197.123L571.886 198.012C572.812 198.16 573.7 198.641 574.329 199.344L583.991 209.858C584.658 210.376 597.688 220.371 598.761 221.037C598.873 221.111 598.947 221.222 598.947 221.333C598.947 221.444 598.873 221.555 598.761 221.629L586.694 228.959C586.694 228.959 586.582 228.996 586.508 228.996H586.471ZM563.668 204.675C563.372 204.675 563.113 204.749 562.854 204.897C562.484 205.119 562.262 205.452 562.151 205.86C562.151 205.971 562.113 206.082 562.113 206.193C562.113 206.822 562.521 207.414 563.113 207.637L572.219 211.005C572.219 211.005 572.331 211.079 572.368 211.116L577.661 217.631L586.545 228.108L597.873 221.222C595.245 219.334 583.991 210.709 583.473 210.302C583.473 210.302 583.473 210.302 583.436 210.265L573.737 199.715C573.219 199.122 572.479 198.752 571.701 198.604L567.74 197.79V201.788C568.444 202.084 568.962 202.306 569.221 202.454C569.295 202.454 569.332 202.528 569.369 202.602L570.924 205.675C570.924 205.675 570.961 205.934 570.887 206.045C570.813 206.156 570.665 206.193 570.517 206.156L564.001 204.601C564.001 204.601 563.742 204.564 563.631 204.564L563.668 204.675Z" fill="#2F2E41"/>
<path d="M617.123 415.419C618.677 419.75 614.791 428.302 614.791 428.302H606.091L604.277 425.969C595.467 429.745 586.176 429.301 580.068 428.302C577.55 427.894 576.995 424.526 579.216 423.304C583.695 420.861 589.581 417.862 593.135 416.826C593.801 416.641 594.431 416.456 595.023 416.271C595.43 416.16 595.8 416.012 596.17 415.863C603.907 412.643 605.832 400.39 605.832 400.39L620.047 403.722C620.047 403.722 617.789 410.681 617.197 413.679C617.16 413.864 617.123 414.05 617.086 414.272C617.049 414.679 617.049 415.049 617.086 415.419H617.123Z" fill="#2F2E41"/>
<path d="M619.417 404.462C619.417 404.462 617.233 411.236 616.641 414.161C616.604 414.346 616.567 414.531 616.567 414.716C614.827 414.827 612.606 415.16 610.163 415.938C606.239 417.233 599.687 416.678 596.207 416.271C603.722 413.161 605.61 401.204 605.61 401.204L619.417 404.462Z" fill="white"/>
<path d="M596.169 416.604C596.169 416.604 595.91 416.53 595.836 416.382C595.762 416.197 595.836 415.975 596.021 415.901C603.277 412.902 605.202 401.241 605.202 401.13C605.202 401.019 605.276 400.945 605.35 400.871C605.424 400.797 605.535 400.797 605.646 400.834L619.454 404.092C619.454 404.092 619.639 404.166 619.676 404.277C619.713 404.351 619.75 404.462 619.676 404.573C619.676 404.647 617.492 411.347 616.899 414.235C616.899 414.42 616.825 414.605 616.825 414.753C616.825 414.938 616.64 415.086 616.418 415.049C616.196 415.012 616.085 414.827 616.122 414.642C616.122 414.457 616.196 414.235 616.233 414.05C616.751 411.495 618.417 406.165 618.898 404.684L605.831 401.612C605.646 402.537 605.128 404.943 603.98 407.682C602.092 412.199 599.427 415.271 596.28 416.567C596.243 416.567 596.206 416.567 596.132 416.567L596.169 416.604Z" fill="#2F2E41"/>
<path d="M677.684 399.575C677.684 399.575 678.905 406.572 679.72 409.459C679.757 409.644 681.422 415.937 681.459 416.123C679.386 419.158 661.988 418.529 659.434 417.085C663.617 414.642 665.542 411.347 664.912 407.46C664.912 407.46 664.912 407.46 664.912 407.423C664.505 404.906 663.913 403.166 663.913 403.166H664.024L677.684 399.612V399.575Z" fill="white"/>
<path d="M670.169 418.603C665.838 418.603 660.692 418.158 659.286 417.381C659.175 417.307 659.101 417.196 659.101 417.085C659.101 416.974 659.175 416.826 659.286 416.789C663.358 414.42 665.209 411.199 664.579 407.497C664.172 405.017 663.58 403.277 663.58 403.277C663.58 403.166 663.58 403.092 663.58 402.981C663.58 402.87 663.691 402.833 663.802 402.796H663.913L677.573 399.242C677.684 399.242 677.758 399.242 677.869 399.279C677.943 399.316 678.017 399.427 678.017 399.538C678.017 399.612 679.238 406.535 680.053 409.348C680.053 409.422 680.238 410.088 680.571 411.347C681.052 413.124 681.719 415.789 681.793 415.974C681.83 416.085 681.793 416.196 681.756 416.308C680.423 418.269 674.204 418.603 670.613 418.64C670.465 418.64 670.28 418.64 670.132 418.64L670.169 418.603ZM660.248 416.974C662.062 417.529 666.393 417.899 670.65 417.862C676.129 417.825 680.09 417.122 681.089 415.974C680.978 415.53 680.645 414.272 679.905 411.495C679.646 410.496 679.424 409.57 679.387 409.533C678.646 407.016 677.647 401.537 677.388 400.02L664.394 403.388C664.579 404.018 664.986 405.461 665.283 407.312C665.912 411.162 664.172 414.494 660.248 417.011V416.974Z" fill="#2F2E41"/>
<path d="M679.424 428.301H670.725L668.911 425.969C660.101 429.745 650.809 429.301 644.701 428.301C642.184 427.894 641.629 424.526 643.85 423.304C648.329 420.861 654.215 417.862 657.769 416.826C658.435 416.641 659.064 416.456 659.657 416.271C660.064 416.16 660.138 416.234 660.804 416.271C664.247 416.678 670.799 417.233 674.76 415.937C677.203 415.16 679.424 414.827 681.164 414.716H681.349C681.349 414.716 681.72 415.345 681.757 415.419C683.311 419.75 679.424 428.301 679.424 428.301Z" fill="#2F2E41"/>
<path d="M626.302 287.077L611.717 351.045L602.944 402.093C602.833 402.685 603.129 403.277 603.684 403.536C608.534 406.017 614.049 407.164 620.083 407.312C620.676 407.312 621.231 406.942 621.416 406.35L640.703 347.232L663.913 289.446L626.302 287.04V287.077Z" fill="#2F2E41"/>
<path d="M625.525 289.224L644.553 348.305L663.358 407.127C663.469 407.46 663.765 407.719 664.135 407.756C669.022 408.312 673.982 408.386 679.054 408.052C679.572 408.052 679.942 407.571 679.905 407.09C679.646 400.982 677.758 364.963 671.206 340.568C667.8 306.29 664.802 287.077 664.802 287.077L625.525 289.224Z" fill="#2F2E41"/>
<path d="M642.961 343.604C642.961 343.604 642.664 343.493 642.627 343.345L634.187 317.173C634.113 316.988 634.224 316.766 634.409 316.729C634.594 316.655 634.817 316.766 634.854 316.951L643.294 343.123C643.368 343.308 643.257 343.53 643.072 343.567C643.072 343.567 642.998 343.567 642.961 343.567V343.604Z" fill="white"/>
<path d="M690.085 297.22L692.455 311.843C692.529 312.287 692.677 312.731 692.936 313.101L697.341 320.357C698.192 321.726 698.451 323.392 698.155 324.984L697.674 327.464C697.156 328.538 696.49 329.204 695.638 329.574C695.12 330.796 694.453 331.684 693.528 332.055C693.528 332.055 692.492 334.016 690.493 333.942C689.641 335.349 688.16 335.497 687.198 335.46C686.68 335.46 686.198 335.09 686.05 334.572L685.31 332.314L682.756 330.574C682.756 330.574 682.497 330.352 682.423 330.241L680.164 326.317C679.72 325.539 679.535 324.688 679.609 323.799L680.127 318.247L680.609 316.322C681.053 314.656 680.942 312.916 680.35 311.287L676.389 300.774L690.159 297.257L690.085 297.22Z" fill="white"/>
<path d="M687.493 335.756C687.493 335.756 687.271 335.756 687.123 335.756C686.457 335.719 685.864 335.275 685.642 334.609L684.939 332.499L682.496 330.833C682.496 330.833 682.162 330.537 682.051 330.352L679.793 326.428C679.312 325.613 679.09 324.651 679.201 323.688L679.719 318.136C679.719 318.136 679.719 318.099 679.719 318.062L680.201 316.137C680.608 314.545 680.534 312.879 679.941 311.324L675.98 300.811C675.98 300.811 675.98 300.626 675.98 300.515C675.98 300.404 676.129 300.367 676.203 300.33L689.973 296.813C689.973 296.813 690.158 296.813 690.269 296.85C690.344 296.924 690.418 296.998 690.418 297.109L692.787 311.732C692.861 312.139 693.009 312.509 693.194 312.842L697.599 320.098C698.487 321.541 698.784 323.281 698.45 324.947L697.969 327.427V327.501C697.451 328.575 696.748 329.315 695.859 329.722C695.267 330.981 694.601 331.795 693.749 332.203C693.49 332.647 692.454 334.128 690.64 334.165C689.973 335.164 688.863 335.682 687.493 335.682V335.756ZM680.423 318.247L679.904 323.799C679.83 324.614 680.015 325.391 680.423 326.095L682.681 330.019C682.681 330.019 682.792 330.204 682.903 330.241L685.457 331.98C685.457 331.98 685.568 332.092 685.605 332.166L686.346 334.424C686.457 334.794 686.79 335.053 687.16 335.053C688.122 335.127 689.381 334.942 690.121 333.72C690.195 333.609 690.306 333.535 690.455 333.535C692.194 333.609 693.157 331.832 693.157 331.832C693.194 331.758 693.268 331.684 693.342 331.684C694.082 331.351 694.712 330.611 695.267 329.389C695.304 329.315 695.378 329.241 695.452 329.204C696.229 328.908 696.822 328.279 697.303 327.316L697.784 324.91C698.08 323.429 697.784 321.875 697.007 320.542L692.602 313.286C692.342 312.842 692.157 312.398 692.083 311.917L689.788 297.702L676.795 301.033L680.608 311.176C681.237 312.842 681.348 314.656 680.904 316.396L680.423 318.284V318.247Z" fill="#2F2E41"/>
<path d="M685.531 333.461C685.531 333.461 685.234 333.35 685.197 333.202L682.976 326.502C682.902 326.317 683.013 326.095 683.198 326.058C683.384 325.984 683.606 326.095 683.643 326.28L685.864 332.98C685.938 333.165 685.827 333.387 685.642 333.424C685.605 333.424 685.568 333.424 685.531 333.424V333.461Z" fill="#2F2E41"/>
<path d="M690.454 334.238C690.454 334.238 690.121 334.127 690.084 333.942L689.307 329.056C689.307 328.871 689.418 328.686 689.603 328.649C689.788 328.649 689.973 328.76 690.01 328.945L690.787 333.831C690.787 334.016 690.676 334.201 690.491 334.238C690.491 334.238 690.454 334.238 690.417 334.238H690.454Z" fill="#2F2E41"/>
<path d="M693.49 332.351C693.305 332.351 693.157 332.203 693.12 332.017L692.935 328.168C692.935 327.982 693.083 327.797 693.268 327.797C693.453 327.797 693.638 327.945 693.638 328.131L693.823 331.98C693.823 332.165 693.675 332.351 693.49 332.351Z" fill="#2F2E41"/>
<path d="M695.6 329.87C695.6 329.87 695.563 329.87 695.526 329.87C695.341 329.87 695.193 329.648 695.23 329.463L695.749 326.28C695.749 326.095 695.971 325.946 696.156 325.983C696.341 325.983 696.489 326.206 696.452 326.391L695.934 329.574C695.934 329.574 695.749 329.87 695.563 329.87H695.6Z" fill="#2F2E41"/>
<path d="M661.507 240.286L649.069 237.991L633.78 239.398C632.448 239.509 631.115 239.398 629.819 239.102L612.014 230.402L588.914 210.857C588.507 210.524 587.952 210.487 587.508 210.746C583.177 213.226 579.512 216.187 576.698 219.741C576.328 220.222 576.365 220.926 576.772 221.37L598.724 243.618C600.316 245.247 602.204 246.616 604.24 247.653L629.116 260.424L618.344 306.734C633.817 310.621 669.577 306.03 669.614 306.03C669.614 306.03 663.913 274.01 663.099 265.422L666.134 276.564L676.907 314.397C677.129 315.211 677.906 315.766 678.794 315.729C682.866 315.544 690.122 314.137 695.267 312.62C696.267 312.324 696.822 311.213 696.489 310.213L677.166 254.908C675.13 248.948 670.761 244.062 665.024 241.434C663.913 240.916 662.729 240.545 661.507 240.323V240.286Z" fill="#673DE6"/>
<path d="M678.721 316.063C677.721 316.063 676.87 315.396 676.574 314.471L665.802 276.638L664.099 270.419C665.765 282.265 669.763 304.809 669.948 305.92C669.948 305.957 669.948 306.105 669.874 306.216C669.8 306.29 669.726 306.327 669.651 306.327C669.392 306.327 651.92 308.622 636.15 308.622C629.376 308.622 622.935 308.215 618.27 307.03C618.085 306.993 617.974 306.808 618.011 306.586C622.638 286.744 628.08 263.349 628.709 260.535L604.055 247.875C601.982 246.802 600.094 245.432 598.466 243.766L576.514 221.518C575.959 220.963 575.885 220.037 576.403 219.408C579.179 215.928 582.881 212.893 587.323 210.339C587.915 210.006 588.619 210.08 589.137 210.487L612.199 229.995L629.931 238.658C631.19 238.954 632.448 239.065 633.707 238.917L648.995 237.51C648.995 237.51 649.069 237.51 649.106 237.51L661.544 239.805C662.803 240.027 663.988 240.434 665.135 240.953C670.947 243.618 675.426 248.578 677.462 254.649L696.786 309.955C696.971 310.547 696.934 311.139 696.675 311.694C696.379 312.25 695.934 312.62 695.342 312.805C690.048 314.397 682.756 315.766 678.758 315.951C678.758 315.951 678.684 315.951 678.647 315.951L678.721 316.063ZM663.136 265.015C663.136 265.015 663.432 265.126 663.469 265.274L666.505 276.416L677.277 314.249C677.462 314.915 678.092 315.359 678.795 315.322C682.719 315.137 689.937 313.804 695.194 312.213C695.601 312.102 695.897 311.842 696.082 311.472C696.268 311.102 696.305 310.695 696.156 310.288L676.833 254.983C674.834 249.134 670.503 244.284 664.876 241.73C663.766 241.212 662.618 240.879 661.433 240.657L649.032 238.361L633.818 239.768C632.448 239.879 631.079 239.768 629.746 239.472C629.746 239.472 629.709 239.472 629.672 239.472L611.866 230.773C611.866 230.773 611.829 230.773 611.792 230.736L588.693 211.19C588.434 210.968 588.026 210.931 587.693 211.116C583.288 213.633 579.697 216.595 576.958 220C576.699 220.334 576.699 220.815 577.032 221.148L598.984 243.396C600.576 244.988 602.39 246.357 604.389 247.394L629.302 260.165C629.302 260.165 629.524 260.424 629.487 260.572C629.487 260.646 619.788 302.292 618.789 306.549C633.374 310.029 665.357 306.253 669.207 305.809C668.541 302.107 663.543 273.566 662.766 265.533C662.766 265.348 662.877 265.163 663.062 265.163C663.062 265.163 663.099 265.163 663.136 265.163V265.015Z" fill="#2F2E41"/>
<path d="M653.918 226.183V240.212C653.918 240.212 652.475 243.248 646.959 243.248C641.443 243.248 641.406 239.213 641.406 239.213V226.664L653.881 226.183H653.918Z" fill="white"/>
<path d="M646.959 243.618C641.147 243.618 641.036 239.25 641.036 239.213V226.664C641.036 226.479 641.221 226.33 641.406 226.293L653.881 225.812C653.881 225.812 654.067 225.812 654.141 225.923C654.215 225.997 654.252 226.071 654.252 226.182V240.212C654.252 240.212 654.252 240.323 654.252 240.36C654.178 240.508 652.66 243.618 646.996 243.618H646.959ZM641.814 227.034V239.25C641.814 239.25 641.888 242.952 646.959 242.952C651.771 242.952 653.289 240.62 653.548 240.175V226.627L641.814 227.071V227.034Z" fill="#2F2E41"/>
<path d="M652.955 211.782L641.739 210.746C641.739 210.746 640.554 212.634 639.481 214.485C639.185 215.003 638.703 215.447 638.148 215.743L634.15 217.816C633.78 218.001 633.706 218.483 634.002 218.779L636.149 220.815C634.779 224.146 633.854 227.811 634.853 230.588C636.297 234.623 653.585 233.882 653.585 233.882L659.063 221.925L652.992 211.782H652.955Z" fill="white"/>
<path d="M646.145 234.179C639.148 233.845 635.224 232.661 634.521 230.699C633.67 228.293 634.077 224.998 635.743 220.889L633.744 219.001C633.521 218.779 633.41 218.483 633.447 218.187C633.484 217.891 633.67 217.594 633.966 217.483L637.964 215.41C638.445 215.151 638.852 214.781 639.148 214.3C640.222 212.486 641.406 210.561 641.406 210.561C641.48 210.45 641.628 210.376 641.74 210.413L652.956 211.449C652.956 211.449 653.178 211.523 653.215 211.635L659.286 221.778C659.286 221.778 659.36 222 659.286 222.111L655.621 230.107C655.621 230.107 655.325 230.366 655.14 230.292C654.955 230.218 654.881 229.996 654.955 229.81L658.546 221.963L652.66 212.153L641.814 211.153C641.48 211.672 640.518 213.226 639.666 214.67C639.333 215.262 638.815 215.744 638.186 216.077L634.188 218.15C634.188 218.15 634.077 218.298 634.077 218.335C634.077 218.372 634.077 218.483 634.151 218.557L636.298 220.593C636.298 220.593 636.446 220.852 636.372 221C634.706 225.035 634.262 228.219 635.076 230.514C635.632 232.143 639.555 233.216 646.034 233.512C646.219 233.512 646.367 233.697 646.367 233.882C646.367 234.068 646.182 234.216 645.997 234.216L646.145 234.179Z" fill="#2F2E41"/>
<path d="M639.185 210.524C639.703 212.412 640.962 214.744 644.034 216.003C643.516 220.149 643.035 225.96 650.438 225.997C649.254 229.514 647.736 235.844 653.844 236.363C654.918 240.101 663.21 240.138 664.357 235.474C671.835 232.698 672.279 222.444 667.8 219.482C672.02 210.672 664.357 202.306 657.657 204.009C649.994 199.307 643.516 200.196 639.999 205.415C639 206.896 638.667 208.747 639.148 210.487L639.185 210.524Z" fill="#2F2E41"/>
<path d="M641.48 216.891C641.48 217.224 641.22 217.483 640.887 217.483C640.554 217.483 640.295 217.224 640.295 216.891C640.295 216.558 640.554 216.299 640.887 216.299C641.22 216.299 641.48 216.558 641.48 216.891Z" fill="#2F2E41"/>
<path d="M642.109 217.372C641.924 217.372 641.776 217.187 641.776 217.002C641.813 216.299 641.406 215.928 641.369 215.928C641.221 215.817 641.184 215.595 641.295 215.41C641.406 215.262 641.628 215.225 641.813 215.336C641.813 215.336 642.554 215.928 642.48 217.039C642.48 217.224 642.295 217.372 642.109 217.372Z" fill="#2F2E41"/>
<path d="M637.001 226.034C637.001 226.034 637.001 226.034 636.964 226.034C635.927 225.923 634.706 225.035 634.669 224.998C634.521 224.887 634.484 224.665 634.595 224.48C634.706 224.332 634.928 224.295 635.113 224.406C635.113 224.406 636.224 225.22 637.075 225.294C637.26 225.294 637.408 225.479 637.408 225.701C637.408 225.886 637.223 226.034 637.038 226.034H637.001Z" fill="#2F2E41"/>
<path d="M628.117 265.089C628.117 265.089 628.08 265.089 628.043 265.089C627.857 265.052 627.746 264.867 627.783 264.644L630.005 255.057C630.042 254.872 630.227 254.761 630.449 254.798C630.634 254.835 630.745 255.02 630.708 255.242L628.487 264.83C628.487 264.83 628.302 265.126 628.154 265.126L628.117 265.089Z" fill="#2F2E41"/>
<path d="M319.126 155.478H457.093C481.747 155.478 482.709 118.756 458.092 117.534C455.131 117.386 451.984 117.386 448.616 117.534C450.874 74.1118 383.908 59.1194 369.286 93.1761C341.004 75.4814 316.054 99.136 324.309 118.163C324.309 118.163 321.866 117.978 318.09 118.163C293.917 119.422 294.916 155.404 319.089 155.404L319.126 155.478Z" fill="#673DE6"/>
<path d="M385.796 117.349H380.873V146.519H373.284V117.349H367.731L377.097 108.502L385.796 117.349Z" fill="white"/>
<path d="M408.525 137.672H403.601V108.502H396.013V137.672H390.46L399.826 146.519L408.525 137.672Z" fill="white"/>
<path d="M552.636 135.044C548.712 135.044 545.528 131.86 545.528 127.936C545.528 124.012 548.712 120.829 552.636 120.829C556.56 120.829 559.743 124.012 559.743 127.936C559.743 131.86 556.56 135.044 552.636 135.044ZM552.636 121.532C549.119 121.532 546.232 124.419 546.232 127.936C546.232 131.453 549.119 134.34 552.636 134.34C556.153 134.34 559.04 131.453 559.04 127.936C559.04 124.419 556.153 121.532 552.636 121.532Z" fill="#2F2E41"/>
<path d="M539.124 360.965C535.2 360.965 532.017 357.782 532.017 353.858C532.017 349.934 535.2 346.75 539.124 346.75C543.048 346.75 546.232 349.934 546.232 353.858C546.232 357.782 543.048 360.965 539.124 360.965ZM539.124 347.454C535.607 347.454 532.72 350.341 532.72 353.858C532.72 357.375 535.607 360.262 539.124 360.262C542.641 360.262 545.528 357.375 545.528 353.858C545.528 350.341 542.641 347.454 539.124 347.454Z" fill="#2F2E41"/>
<path d="M645.626 159.92C642.923 159.92 640.739 157.736 640.739 155.034C640.739 152.331 642.923 150.147 645.626 150.147C648.328 150.147 650.512 152.331 650.512 155.034C650.512 157.736 648.328 159.92 645.626 159.92ZM645.626 150.888C643.331 150.888 641.48 152.738 641.48 155.034C641.48 157.329 643.331 159.18 645.626 159.18C647.921 159.18 649.772 157.329 649.772 155.034C649.772 152.738 647.921 150.888 645.626 150.888Z" fill="#2F2E41"/>
<path d="M269.928 164.436C267.226 164.436 265.042 162.252 265.042 159.55C265.042 156.847 267.226 154.663 269.928 154.663C272.631 154.663 274.815 156.847 274.815 159.55C274.815 162.252 272.631 164.436 269.928 164.436ZM269.928 155.404C267.633 155.404 265.782 157.255 265.782 159.55C265.782 161.845 267.633 163.696 269.928 163.696C272.224 163.696 274.074 161.845 274.074 159.55C274.074 157.255 272.224 155.404 269.928 155.404Z" fill="#2F2E41"/>
<path d="M195.114 136.629C178.828 135.838 148.861 130.695 120.543 106.069C118.763 104.519 115.96 104.519 114.18 106.069C85.8615 130.662 55.8946 135.838 39.6089 136.629C32.521 136.959 26.9166 142.299 26.7847 148.893C24.9386 235.991 59.7847 292.497 117.378 309.804C174.971 292.497 209.817 235.991 207.971 148.893C207.839 142.299 202.235 136.959 195.147 136.629H195.114Z" fill="white"/>
<path d="M117.377 310.134C117.377 310.134 117.311 310.134 117.278 310.134C102.872 305.815 89.8169 298.991 78.4762 289.892C67.0697 280.76 57.3444 269.255 49.5312 255.706C41.6192 241.991 35.6192 226.068 31.7621 208.431C27.806 190.365 26.0258 170.321 26.4874 148.893C26.5533 145.629 27.9379 142.53 30.4104 140.189C32.85 137.849 36.1467 136.464 39.6412 136.299C55.1686 135.541 85.4982 130.596 114.015 105.838C115.927 104.189 118.894 104.189 120.806 105.838C149.322 130.629 179.652 135.574 195.179 136.299C198.674 136.464 201.97 137.849 204.41 140.189C206.85 142.53 208.234 145.629 208.333 148.893C208.795 170.321 207.014 190.365 203.058 208.431C199.201 226.068 193.201 241.958 185.289 255.706C177.476 269.255 167.751 280.727 156.344 289.892C144.971 298.991 131.916 305.815 117.542 310.134C117.542 310.134 117.476 310.134 117.443 310.134H117.377ZM117.377 105.244C116.322 105.244 115.234 105.607 114.41 106.332C101.883 117.211 87.7729 125.387 72.5092 130.596C59.0587 135.178 47.2236 136.596 39.6412 136.959C32.7511 137.288 27.2456 142.53 27.1137 148.926C25.3335 233.156 58.2345 291.673 117.377 309.508C176.52 291.673 209.421 233.156 207.641 148.926C207.509 142.563 202.003 137.321 195.113 136.959C187.564 136.596 175.696 135.211 162.245 130.596C146.982 125.387 132.872 117.211 120.344 106.332C119.52 105.607 118.432 105.244 117.377 105.244Z" fill="#2F2E41"/>
<path d="M188.606 149.359C178.452 148.502 148.683 143.92 120.694 119.92C118.914 118.403 116.178 118.403 114.397 119.92C86.4085 143.92 56.6393 148.502 46.4855 149.359C44.4086 149.524 42.7603 151.139 42.6613 153.051C39.1009 229.172 68.3096 278.161 117.562 292.996C166.815 278.194 196.024 229.205 192.463 153.051C192.364 151.106 190.749 149.524 188.639 149.359H188.606Z" fill="#FC5185"/>
<path d="M120.411 299.584C120.411 301.266 119.059 302.617 117.378 302.617C115.696 302.617 114.345 301.266 114.345 299.584C114.345 297.903 115.696 296.552 117.378 296.552C119.059 296.552 120.411 297.903 120.411 299.584Z" fill="#673DE6"/>
<path d="M120.411 113.519C120.411 115.2 119.059 116.552 117.378 116.552C115.696 116.552 114.345 115.2 114.345 113.519C114.345 111.838 115.696 110.486 117.378 110.486C119.059 110.486 120.411 111.838 120.411 113.519Z" fill="#673DE6"/>
<path d="M88.4321 131.354C88.4321 133.036 87.0805 134.387 85.3992 134.387C83.7178 134.387 82.3662 133.036 82.3662 131.354C82.3662 129.673 83.7178 128.321 85.3992 128.321C87.0805 128.321 88.4321 129.673 88.4321 131.354Z" fill="#673DE6"/>
<path d="M54.3774 142.761C54.3774 144.442 53.0258 145.794 51.3445 145.794C49.6632 145.794 48.3115 144.442 48.3115 142.761C48.3115 141.079 49.6632 139.728 51.3445 139.728C53.0258 139.728 54.3774 141.079 54.3774 142.761Z" fill="#673DE6"/>
<path d="M37.5308 162.244C37.5308 163.926 36.1791 165.277 34.4978 165.277C32.8165 165.277 31.4648 163.926 31.4648 162.244C31.4648 160.563 32.8165 159.211 34.4978 159.211C36.1791 159.211 37.5308 160.563 37.5308 162.244Z" fill="#673DE6"/>
<path d="M40.564 197.519C40.564 199.2 39.2123 200.552 37.531 200.552C35.8497 200.552 34.498 199.2 34.498 197.519C34.498 195.837 35.8497 194.486 37.531 194.486C39.2123 194.486 40.564 195.837 40.564 197.519Z" fill="#673DE6"/>
<path d="M49.3335 232.233C49.3335 233.914 47.9818 235.266 46.3005 235.266C44.6192 235.266 43.2676 233.914 43.2676 232.233C43.2676 230.552 44.6192 229.2 46.3005 229.2C47.9818 229.2 49.3335 230.552 49.3335 232.233Z" fill="#673DE6"/>
<path d="M65.356 262.464C65.356 264.145 64.0043 265.497 62.323 265.497C60.6417 265.497 59.29 264.145 59.29 262.464C59.29 260.783 60.6417 259.431 62.323 259.431C64.0043 259.431 65.356 260.783 65.356 262.464Z" fill="#673DE6"/>
<path d="M88.6636 285.046C88.6636 286.727 87.3119 288.079 85.6306 288.079C83.9493 288.079 82.5977 286.727 82.5977 285.046C82.5977 283.365 83.9493 282.013 85.6306 282.013C87.3119 282.013 88.6636 283.365 88.6636 285.046Z" fill="#673DE6"/>
<path d="M196.695 162.244C196.695 163.926 198.047 165.277 199.728 165.277C201.41 165.277 202.761 163.926 202.761 162.244C202.761 160.563 201.41 159.211 199.728 159.211C198.047 159.211 196.695 160.563 196.695 162.244Z" fill="#673DE6"/>
<path d="M193.696 197.519C193.696 199.2 195.048 200.552 196.729 200.552C198.411 200.552 199.762 199.2 199.762 197.519C199.762 195.837 198.411 194.486 196.729 194.486C195.048 194.486 193.696 195.837 193.696 197.519Z" fill="#673DE6"/>
<path d="M184.927 232.233C184.927 233.914 186.278 235.266 187.96 235.266C189.641 235.266 190.993 233.914 190.993 232.233C190.993 230.552 189.641 229.2 187.96 229.2C186.278 229.2 184.927 230.552 184.927 232.233Z" fill="#673DE6"/>
<path d="M168.871 262.464C168.871 264.145 170.223 265.497 171.904 265.497C173.585 265.497 174.937 264.145 174.937 262.464C174.937 260.783 173.585 259.431 171.904 259.431C170.223 259.431 168.871 260.783 168.871 262.464Z" fill="#673DE6"/>
<path d="M145.597 285.046C145.597 286.727 146.948 288.079 148.63 288.079C150.311 288.079 151.663 286.727 151.663 285.046C151.663 283.365 150.311 282.013 148.63 282.013C146.948 282.013 145.597 283.365 145.597 285.046Z" fill="#673DE6"/>
<path d="M145.465 131.354C145.465 133.036 146.817 134.387 148.498 134.387C150.179 134.387 151.531 133.036 151.531 131.354C151.531 129.673 150.179 128.321 148.498 128.321C146.817 128.321 145.465 129.673 145.465 131.354Z" fill="#673DE6"/>
<path d="M179.521 142.761C179.521 144.442 180.872 145.794 182.553 145.794C184.235 145.794 185.586 144.442 185.586 142.761C185.586 141.079 184.235 139.728 182.553 139.728C180.872 139.728 179.521 141.079 179.521 142.761Z" fill="#673DE6"/>
<path d="M125.249 167.472H109.975C104.608 167.472 100.255 171.825 100.255 177.192V197.38C100.255 201.225 102.471 204.536 105.702 206.112C105.248 205.364 105.008 204.483 105.008 203.522V177.459C105.008 174.628 107.305 172.305 110.162 172.305H125.116C127.946 172.305 130.27 174.602 130.27 177.459V203.522C130.27 204.456 130.029 205.337 129.575 206.112C132.806 204.536 135.023 201.198 135.023 197.38V177.192C135.023 171.825 130.67 167.472 125.303 167.472H125.249Z" fill="white"/>
<path d="M129.554 206.408C129.554 206.408 129.421 206.381 129.367 206.328C129.287 206.247 129.287 206.114 129.341 206.007C129.768 205.259 130.008 204.405 130.008 203.55V177.488C130.008 174.791 127.818 172.601 125.121 172.601H110.167C107.47 172.601 105.281 174.791 105.281 177.488V203.55C105.281 204.405 105.521 205.259 105.948 206.007C106.002 206.114 106.002 206.221 105.922 206.328C105.842 206.408 105.708 206.434 105.628 206.381C102.183 204.699 100.047 201.254 100.047 197.409V177.221C100.047 171.72 104.533 167.234 110.034 167.234H125.308C130.809 167.234 135.295 171.72 135.295 177.221V197.409C135.295 201.254 133.159 204.672 129.714 206.381C129.688 206.381 129.634 206.408 129.608 206.408H129.554ZM110.141 172.12H125.095C128.086 172.12 130.489 174.55 130.489 177.514V203.577C130.489 204.245 130.355 204.912 130.115 205.553C132.972 203.844 134.708 200.8 134.708 197.435V177.247C134.708 172.014 130.462 167.768 125.228 167.768H109.954C104.72 167.768 100.474 172.014 100.474 177.247V197.435C100.474 200.8 102.21 203.844 105.067 205.553C104.827 204.939 104.693 204.271 104.693 203.577V177.514C104.693 174.524 107.123 172.12 110.087 172.12H110.141Z" fill="#2F2E41"/>
<path d="M135.85 190.895H99.4532C95.8104 190.895 92.8574 193.848 92.8574 197.491V237.412C92.8574 241.055 95.8104 244.008 99.4532 244.008H135.85C139.493 244.008 142.446 241.055 142.446 237.412V197.491C142.446 193.848 139.493 190.895 135.85 190.895Z" fill="white"/>
<path d="M135.853 244.248H99.4565C95.6646 244.248 92.5938 241.177 92.5938 237.385V197.49C92.5938 193.698 95.6646 190.627 99.4565 190.627H135.853C139.645 190.627 142.716 193.698 142.716 197.49V237.385C142.716 241.177 139.645 244.248 135.853 244.248ZM99.4565 191.135C95.9584 191.135 93.1011 193.992 93.1011 197.49V237.385C93.1011 240.883 95.9584 243.741 99.4565 243.741H135.853C139.352 243.741 142.209 240.883 142.209 237.385V197.49C142.209 193.992 139.352 191.135 135.853 191.135H99.4565Z" fill="#2F2E41"/>
<path d="M121.934 212.736C121.934 210.386 120.011 208.463 117.661 208.463C115.311 208.463 113.389 210.386 113.389 212.736C113.389 214.365 114.297 215.753 115.605 216.474V222.403H119.717V216.474C121.053 215.753 121.934 214.338 121.934 212.736Z" fill="#2F2E41"/>
<path d="M123.839 226.463H111.502C109.686 226.463 108.244 224.994 108.244 223.205V207.744C108.244 205.928 109.713 204.486 111.502 204.486H123.839C125.655 204.486 127.097 205.955 127.097 207.744V223.205C127.097 225.021 125.628 226.463 123.839 226.463ZM111.502 204.967C109.98 204.967 108.752 206.195 108.752 207.717V223.179C108.752 224.701 109.98 225.929 111.502 225.929H123.839C125.361 225.929 126.589 224.701 126.589 223.179V207.717C126.589 206.195 125.361 204.967 123.839 204.967H111.502Z" fill="#2F2E41"/>
<path d="M118.182 114.835C118.182 114.835 117.879 114.659 117.869 114.529C117.713 113.31 117.564 112.061 117.457 110.823C117.455 110.663 117.625 110.518 117.838 110.542C118.05 110.567 118.271 110.722 118.273 110.881C118.388 112.089 118.537 113.338 118.693 114.558C118.736 114.728 118.565 114.874 118.353 114.849C118.353 114.849 118.271 114.827 118.231 114.816L118.182 114.835ZM117.386 105.012C117.386 105.012 117.042 104.825 117.041 104.665C117.015 103.449 117.038 102.214 117.093 101.019C117.133 100.871 117.295 100.755 117.507 100.78C117.72 100.804 117.892 100.978 117.894 101.137C117.838 102.332 117.815 103.567 117.849 104.753C117.85 104.913 117.688 105.029 117.435 104.993C117.435 104.993 117.394 104.982 117.353 104.971L117.386 105.012ZM117.946 95.3588C117.946 95.3588 117.61 95.1419 117.608 94.9824C117.754 93.78 117.94 92.5885 118.167 91.4079C118.207 91.2593 118.41 91.1544 118.614 91.2088C118.819 91.2633 118.991 91.4366 118.952 91.5852C118.724 92.7658 118.538 93.9573 118.401 95.13C118.361 95.2786 118.199 95.3945 117.946 95.3588ZM119.788 85.9842C119.584 85.9297 119.411 85.7564 119.459 85.5781L119.474 85.5187C119.775 84.3896 120.084 83.2307 120.459 82.1531C120.499 82.0046 120.743 81.9105 120.939 81.9947C121.144 82.0491 121.308 82.2522 121.228 82.3898C120.886 83.5081 120.544 84.6263 120.243 85.7554L120.227 85.8148C120.188 85.9634 119.985 86.0684 119.739 86.003L119.788 85.9842ZM122.865 76.9067C122.66 76.8522 122.536 76.6601 122.584 76.4818C123.056 75.3666 123.529 74.2513 124.034 73.1767C124.074 73.0281 124.351 72.9746 124.547 73.0588C124.743 73.143 124.867 73.3351 124.787 73.4728C124.281 74.5475 123.768 75.6518 123.337 76.7779C123.297 76.9265 123.061 76.9909 122.857 76.9364L122.865 76.9067ZM127.135 68.2749C127.135 68.2749 127.095 68.264 127.054 68.2531C126.857 68.169 126.733 67.9768 126.814 67.8391C127.401 66.7863 128.078 65.7255 128.739 64.7242C128.819 64.5865 129.047 64.5518 129.284 64.6469C129.481 64.7311 129.564 64.9124 129.475 65.0797C128.807 66.1108 128.179 67.1528 127.551 68.1947C127.511 68.3433 127.283 68.3779 127.079 68.3235L127.135 68.2749ZM132.593 60.1186C132.593 60.1186 132.511 60.0968 132.47 60.0859C132.282 59.972 132.199 59.7907 132.32 59.6639C133.063 58.6844 133.854 57.686 134.678 56.7282C134.8 56.6015 135.028 56.5668 135.216 56.6807C135.405 56.7946 135.488 56.9759 135.367 57.1026C134.542 58.0604 133.759 59.0291 133.016 60.0086C132.943 60.1166 132.756 60.1621 132.593 60.1186ZM139.213 52.5268C139.213 52.5268 139.131 52.505 139.049 52.4832C138.861 52.3693 138.827 52.1692 138.948 52.0424C139.846 51.1362 140.785 50.2408 141.716 49.3751C141.838 49.2484 142.099 49.2543 142.287 49.3682C142.476 49.4821 142.51 49.6822 142.389 49.8089C141.457 50.6746 140.518 51.57 139.62 52.4762C139.507 52.5733 139.368 52.6 139.205 52.5565L139.213 52.5268ZM146.882 45.5966C146.882 45.5966 146.76 45.5639 146.686 45.5124C146.505 45.3687 146.463 45.1984 146.625 45.0825C147.63 44.2683 148.725 43.4463 149.763 42.6727C149.925 42.5568 150.178 42.5925 150.318 42.7252C150.498 42.8688 150.492 43.058 150.337 43.1442C149.299 43.9177 148.205 44.7398 147.2 45.554C147.094 45.6213 146.956 45.648 146.792 45.6045L146.882 45.5966ZM155.536 39.4062C155.536 39.4062 155.373 39.3626 155.348 39.2923C155.208 39.1596 155.174 38.9595 155.328 38.8733C156.481 38.1622 157.641 37.4213 158.827 36.7508C158.981 36.6646 159.234 36.7003 159.415 36.8439C159.554 36.9766 159.548 37.1658 159.385 37.2817C158.2 37.9522 157.047 38.6634 155.928 39.4151C155.822 39.4825 155.692 39.4795 155.569 39.4468L155.536 39.4062ZM367.542 90.7663C367.542 90.7663 367.305 90.6712 367.247 90.5603C366.552 89.3886 365.768 88.2248 365.025 87.0719C364.934 86.9204 364.982 86.7421 365.177 86.6668C365.364 86.6213 365.609 86.6867 365.741 86.8491C366.525 88.0129 367.261 89.1955 367.996 90.3781C368.087 90.5296 367.998 90.697 367.803 90.7723C367.714 90.7802 367.624 90.7881 367.542 90.7663ZM165.077 33.9934C165.077 33.9934 164.914 33.9498 164.848 33.8686C164.708 33.7359 164.723 33.517 164.918 33.4417C166.177 32.8227 167.437 32.2036 168.729 31.6252C168.924 31.5499 169.169 31.6153 169.301 31.7777C169.433 31.9402 169.385 32.1184 169.19 32.1937C167.898 32.7721 166.638 33.3912 165.42 34.0211C165.322 34.0587 165.184 34.0855 165.061 34.0528L165.077 33.9934ZM361.213 81.5046C361.213 81.5046 361.016 81.4204 360.95 81.3392C360.109 80.224 359.228 79.0978 358.305 77.9608C358.173 77.7984 358.221 77.6201 358.416 77.5448C358.611 77.4696 358.857 77.5349 358.988 77.6974C359.878 78.7938 360.793 79.9605 361.633 81.0758C361.765 81.2382 361.677 81.4056 361.522 81.4918C361.425 81.5294 361.335 81.5373 361.213 81.5046ZM175.449 29.4066C175.449 29.4066 175.244 29.3521 175.186 29.2412C175.055 29.0787 175.102 28.9005 175.297 28.8252C176.615 28.3171 178.022 27.801 179.372 27.3335C179.567 27.2583 179.804 27.3534 179.944 27.4861C180.076 27.6485 179.987 27.8159 179.833 27.9021C178.483 28.3696 177.125 28.8668 175.758 29.3937C175.661 29.4313 175.571 29.4393 175.449 29.4066ZM353.858 72.6382C353.858 72.6382 353.654 72.5837 353.629 72.5134C352.65 71.4249 351.622 70.3552 350.586 69.3152C350.446 69.1825 350.461 68.9636 350.656 68.8883C350.81 68.8021 351.104 68.8487 351.236 69.0111C352.264 70.0808 353.292 71.1505 354.271 72.239C354.403 72.4014 354.356 72.5797 354.16 72.655C354.063 72.6926 353.932 72.6897 353.851 72.6679L353.858 72.6382ZM186.504 25.7023C186.504 25.7023 186.267 25.6072 186.209 25.4962C186.118 25.3447 186.165 25.1664 186.361 25.0911C187.785 24.6752 189.242 24.2998 190.699 23.9244C190.886 23.8788 191.123 23.9739 191.255 24.1363C191.346 24.2879 191.258 24.4553 191.062 24.5305C189.613 24.8762 188.189 25.2922 186.773 25.6785C186.683 25.6864 186.594 25.6943 186.512 25.6725L186.504 25.7023ZM345.464 64.2263C345.464 64.2263 345.3 64.1827 345.234 64.1015C344.15 63.0803 343.016 62.078 341.834 61.0945C341.694 60.9618 341.66 60.7617 341.814 60.6755C341.968 60.5894 342.229 60.5953 342.369 60.728C343.503 61.7304 344.677 62.7436 345.762 63.7647C345.902 63.8975 345.895 64.0866 345.733 64.2025C345.627 64.2699 345.497 64.2669 345.374 64.2342L345.464 64.2263ZM198.187 22.929C198.187 22.929 197.957 22.8042 197.892 22.7229C197.801 22.5714 197.889 22.404 198.117 22.3694C199.599 22.0643 201.114 21.7998 202.621 21.5651C202.849 21.5304 203.079 21.6552 203.129 21.7959C203.212 21.9771 203.083 22.1336 202.903 22.1495C201.396 22.3842 199.881 22.6487 198.399 22.9537C198.309 22.9616 198.22 22.9696 198.179 22.9587L198.187 22.929ZM336.143 56.3314C336.143 56.3314 336.021 56.2988 335.947 56.2473C334.749 55.3232 333.477 54.3476 332.23 53.4423C332.049 53.2987 332.007 53.1283 332.169 53.0125C332.332 52.8966 332.552 52.8916 332.732 53.0352C333.979 53.9405 335.251 54.9161 336.45 55.8402C336.63 55.9838 336.623 56.173 336.469 56.2591C336.364 56.3265 336.225 56.3532 336.103 56.3206L336.143 56.3314ZM210.325 21.0728C210.325 21.0728 210.055 20.9371 209.997 20.8262C209.914 20.6449 210.084 20.4994 210.264 20.4835C211.796 20.3191 213.369 20.1656 214.934 20.0417C215.154 20.0368 215.383 20.1616 215.434 20.3022C215.476 20.4726 215.346 20.6291 215.167 20.6449C213.602 20.7687 212.07 20.9332 210.538 21.0976C210.497 21.0867 210.407 21.0946 210.325 21.0728ZM325.996 49.0754C325.996 49.0754 325.874 49.0428 325.833 49.0319C324.529 48.1751 323.184 47.3075 321.832 46.4696C321.643 46.3557 321.609 46.1556 321.731 46.0288C321.852 45.9021 322.113 45.908 322.301 46.0219C323.654 46.8598 324.999 47.7274 326.343 48.5951C326.532 48.709 326.566 48.9091 326.444 49.0358C326.331 49.1329 326.193 49.1596 326.029 49.1161L325.996 49.0754ZM222.822 20.1715C222.822 20.1715 222.552 20.0358 222.502 19.8951C222.46 19.7248 222.589 19.5683 222.809 19.5633C224.399 19.5098 225.982 19.4861 227.605 19.4732C227.825 19.4682 228.054 19.593 228.089 19.7931C228.123 19.9932 228.001 20.12 227.74 20.114C226.166 20.1081 224.576 20.1616 222.986 20.215C222.945 20.2042 222.904 20.1933 222.822 20.1715ZM315.055 42.4989C315.055 42.4989 314.973 42.4771 314.932 42.4662C313.523 41.6768 312.106 40.9172 310.681 40.1872C310.492 40.0733 310.409 39.892 310.49 39.7544C310.57 39.6167 310.839 39.5929 311.036 39.6771C312.461 40.4071 313.919 41.1776 315.328 41.967C315.517 42.0809 315.6 42.2622 315.478 42.389C315.406 42.4969 315.218 42.5425 315.055 42.4989ZM235.588 20.2328C235.588 20.2328 235.285 20.0565 235.276 19.9268C235.233 19.7564 235.404 19.6108 235.616 19.6356C237.215 19.7119 238.855 19.799 240.488 19.9159C240.7 19.9406 240.921 20.0952 240.923 20.2546C240.924 20.4141 240.754 20.5597 240.541 20.5349C238.95 20.4289 237.31 20.3418 235.711 20.2655C235.711 20.2655 235.629 20.2437 235.588 20.2328ZM303.524 36.6563C303.524 36.6563 303.483 36.6454 303.442 36.6345C301.961 35.953 300.471 35.3013 298.981 34.6496C298.785 34.5654 298.661 34.3733 298.741 34.2356C298.822 34.098 299.058 34.0336 299.254 34.1178C300.752 34.7398 302.275 35.4321 303.715 36.1026C303.912 36.1868 303.995 36.368 303.907 36.5354C303.834 36.6434 303.647 36.689 303.483 36.6454L303.524 36.6563ZM248.533 21.2648C248.533 21.2648 248.188 21.0777 248.187 20.9182C248.186 20.7587 248.348 20.6428 248.601 20.6785C250.218 20.8548 251.867 21.0717 253.468 21.3074C253.672 21.3619 253.853 21.5055 253.854 21.665C253.855 21.8244 253.652 21.9294 253.44 21.9047C251.839 21.6689 250.19 21.452 248.614 21.2866C248.614 21.2866 248.573 21.2757 248.533 21.2648ZM291.502 31.6694C291.502 31.6694 291.502 31.6694 291.462 31.6585C289.948 31.0959 288.394 30.5225 286.824 30.0084C286.619 29.9539 286.495 29.7618 286.543 29.5835C286.583 29.4349 286.819 29.3706 287.064 29.4359C288.626 29.9797 290.188 30.5234 291.702 31.086C291.906 31.1405 292.022 31.3623 291.942 31.5C291.902 31.6486 291.674 31.6833 291.47 31.6288L291.502 31.6694ZM261.485 23.2536C261.485 23.2536 261.149 23.0367 261.147 22.8773C261.187 22.7287 261.349 22.6128 261.602 22.6485C263.228 22.9545 264.845 23.2903 266.455 23.6557C266.66 23.7102 266.832 23.8835 266.793 24.0321C266.753 24.1807 266.55 24.2857 266.346 24.2312C264.736 23.8657 263.118 23.53 261.533 23.2348L261.485 23.2536ZM279.039 27.5194C277.535 27.0866 275.99 26.6429 274.436 26.2289L274.273 26.1853C274.069 26.1308 273.896 25.9575 273.944 25.7792C273.983 25.6307 274.186 25.5257 274.431 25.5911L274.595 25.6346C276.148 26.0486 277.701 26.4626 279.197 26.9252C279.402 26.9796 279.566 27.1827 279.486 27.3204C279.446 27.4689 279.251 27.5442 279.006 27.4788L279.039 27.5194Z" fill="#07284B"/>
</g>
<defs>
<clipPath id="clip0_428_1464">
<rect width="726" height="429" fill="white"/>
</clipPath>
</defs>
</svg>
