<svg width="730" height="460" viewBox="0 0 730 460" fill="none" xmlns="http://www.w3.org/2000/svg">
<g clip-path="url(#clip0_428_1677)">
<path d="M183.371 140.094H56.7373V443.967H183.371V140.094Z" fill="white"/>
<path d="M183.413 444.378H56.7786C56.5729 444.378 56.3672 444.213 56.3672 443.966V140.095C56.3672 139.889 56.5317 139.683 56.7786 139.683H183.413C183.618 139.683 183.824 139.848 183.824 140.095V443.966C183.824 444.172 183.66 444.378 183.413 444.378ZM57.1489 443.596H183.001V140.506H57.1489V443.555V443.596Z" fill="#2F2E41"/>
<path d="M173.539 154.535H66.6113V177.286H173.539V154.535Z" fill="#DEE8E9"/>
<path d="M173.538 154.535H126.431V177.286H173.538V154.535Z" fill="#2F2E41"/>
<path d="M135.606 165.849C135.606 167.042 134.66 167.988 133.467 167.988C132.273 167.988 131.327 167.042 131.327 165.849C131.327 164.656 132.273 163.71 133.467 163.71C134.66 163.71 135.606 164.656 135.606 165.849Z" fill="white"/>
<path d="M149.059 165.849C149.059 167.042 148.113 167.988 146.92 167.988C145.727 167.988 144.781 167.042 144.781 165.849C144.781 164.656 145.727 163.71 146.92 163.71C148.113 163.71 149.059 164.656 149.059 165.849Z" fill="white"/>
<path d="M156.053 165.849C156.053 167.042 155.107 167.988 153.914 167.988C152.721 167.988 151.774 167.042 151.774 165.849C151.774 164.656 152.721 163.71 153.914 163.71C155.107 163.71 156.053 164.656 156.053 165.849Z" fill="white"/>
<path d="M173.539 185.679H66.6113V208.431H173.539V185.679Z" fill="#DEE8E9"/>
<path d="M173.538 185.679H126.431V208.431H173.538V185.679Z" fill="#2F2E41"/>
<path d="M135.606 197.034C135.606 198.227 134.66 199.174 133.467 199.174C132.273 199.174 131.327 198.227 131.327 197.034C131.327 195.841 132.273 194.895 133.467 194.895C134.66 194.895 135.606 195.841 135.606 197.034Z" fill="white"/>
<path d="M149.059 197.034C149.059 198.227 148.113 199.174 146.92 199.174C145.727 199.174 144.781 198.227 144.781 197.034C144.781 195.841 145.727 194.895 146.92 194.895C148.113 194.895 149.059 195.841 149.059 197.034Z" fill="white"/>
<path d="M156.053 197.034C156.053 198.227 155.107 199.174 153.914 199.174C152.721 199.174 151.774 198.227 151.774 197.034C151.774 195.841 152.721 194.895 153.914 194.895C155.107 194.895 156.053 195.841 156.053 197.034Z" fill="white"/>
<path d="M173.539 216.865H66.6113V239.616H173.539V216.865Z" fill="#DEE8E9"/>
<path d="M173.538 216.865H126.431V239.616H173.538V216.865Z" fill="#2F2E41"/>
<path d="M135.606 228.179C135.606 229.372 134.66 230.318 133.467 230.318C132.273 230.318 131.327 229.372 131.327 228.179C131.327 226.986 132.273 226.04 133.467 226.04C134.66 226.04 135.606 226.986 135.606 228.179Z" fill="white"/>
<path d="M142.353 228.179C142.353 229.372 141.407 230.318 140.214 230.318C139.021 230.318 138.075 229.372 138.075 228.179C138.075 226.986 139.021 226.04 140.214 226.04C141.407 226.04 142.353 226.986 142.353 228.179Z" fill="white"/>
<path d="M149.059 228.179C149.059 229.372 148.113 230.318 146.92 230.318C145.727 230.318 144.781 229.372 144.781 228.179C144.781 226.986 145.727 226.04 146.92 226.04C148.113 226.04 149.059 226.986 149.059 228.179Z" fill="white"/>
<path d="M173.539 248.009H66.6113V270.76H173.539V248.009Z" fill="#DEE8E9"/>
<path d="M173.538 248.009H126.431V270.761H173.538V248.009Z" fill="#2F2E41"/>
<path d="M149.059 259.323C149.059 260.516 148.113 261.462 146.92 261.462C145.727 261.462 144.781 260.516 144.781 259.323C144.781 258.13 145.727 257.184 146.92 257.184C148.113 257.184 149.059 258.13 149.059 259.323Z" fill="white"/>
<path d="M156.053 259.323C156.053 260.516 155.107 261.462 153.914 261.462C152.721 261.462 151.774 260.516 151.774 259.323C151.774 258.13 152.721 257.184 153.914 257.184C155.107 257.184 156.053 258.13 156.053 259.323Z" fill="white"/>
<path d="M173.539 279.153H66.6113V301.904H173.539V279.153Z" fill="#DEE8E9"/>
<path d="M173.538 279.153H126.431V301.904H173.538V279.153Z" fill="#2F2E41"/>
<path d="M135.606 290.467C135.606 291.66 134.66 292.606 133.467 292.606C132.273 292.606 131.327 291.66 131.327 290.467C131.327 289.274 132.273 288.328 133.467 288.328C134.66 288.328 135.606 289.274 135.606 290.467Z" fill="white"/>
<path d="M142.353 290.467C142.353 291.66 141.407 292.606 140.214 292.606C139.021 292.606 138.075 291.66 138.075 290.467C138.075 289.274 139.021 288.328 140.214 288.328C141.407 288.328 142.353 289.274 142.353 290.467Z" fill="white"/>
<path d="M149.059 290.467C149.059 291.66 148.113 292.606 146.92 292.606C145.727 292.606 144.781 291.66 144.781 290.467C144.781 289.274 145.727 288.328 146.92 288.328C148.113 288.328 149.059 289.274 149.059 290.467Z" fill="white"/>
<path d="M156.053 290.467C156.053 291.66 155.107 292.606 153.914 292.606C152.721 292.606 151.774 291.66 151.774 290.467C151.774 289.274 152.721 288.328 153.914 288.328C155.107 288.328 156.053 289.274 156.053 290.467Z" fill="white"/>
<path d="M173.539 310.297H66.6113V333.049H173.539V310.297Z" fill="#DEE8E9"/>
<path d="M173.538 310.297H126.431V333.049H173.538V310.297Z" fill="#2F2E41"/>
<path d="M135.606 321.611C135.606 322.804 134.66 323.751 133.467 323.751C132.273 323.751 131.327 322.804 131.327 321.611C131.327 320.418 132.273 319.472 133.467 319.472C134.66 319.472 135.606 320.418 135.606 321.611Z" fill="white"/>
<path d="M149.059 321.611C149.059 322.804 148.113 323.751 146.92 323.751C145.727 323.751 144.781 322.804 144.781 321.611C144.781 320.418 145.727 319.472 146.92 319.472C148.113 319.472 149.059 320.418 149.059 321.611Z" fill="white"/>
<path d="M156.053 321.611C156.053 322.804 155.107 323.751 153.914 323.751C152.721 323.751 151.774 322.804 151.774 321.611C151.774 320.418 152.721 319.472 153.914 319.472C155.107 319.472 156.053 320.418 156.053 321.611Z" fill="white"/>
<path d="M126.678 327.618V384.929C126.678 387.315 124.745 389.207 122.4 389.207H34.1508C31.7646 389.207 29.8721 387.274 29.8721 384.929V336.176C29.8721 333.79 31.8057 331.897 34.1508 331.897H84.3025L86.6887 326.014C87.347 324.368 88.9104 323.34 90.6795 323.34H122.4C124.786 323.34 126.678 325.273 126.678 327.618Z" fill="#DEE8E9"/>
<path d="M123.675 336.587H32.793V386.328H123.675V336.587Z" fill="white"/>
<path d="M126.678 341.854V385.381C126.678 387.521 124.745 389.249 122.4 389.249H34.1508C31.7646 389.249 29.8721 387.521 29.8721 385.381V341.854H126.72H126.678Z" fill="#673DE6"/>
<mask id="path-36-inside-1_428_1677" fill="white">
<path d="M122.4 389.66H34.1511C31.5592 389.66 29.4609 387.562 29.4609 384.97V336.217C29.4609 333.625 31.5592 331.527 34.1511 331.527H84.0559L86.3187 325.891C87.0181 324.122 88.7461 322.928 90.6797 322.928H122.4C124.992 322.928 127.09 325.027 127.09 327.619V384.929C127.09 387.521 124.992 389.619 122.4 389.619V389.66ZM34.1511 332.35C32.0117 332.35 30.2426 334.119 30.2426 336.258V385.011C30.2426 387.151 32.0117 388.92 34.1511 388.92H122.4C124.539 388.92 126.308 387.151 126.308 385.011V327.701C126.308 325.562 124.58 323.792 122.4 323.792H90.6797C89.0752 323.792 87.6764 324.739 87.0592 326.22L84.673 332.103C84.673 332.103 84.4673 332.35 84.3028 332.35H34.1511Z"/>
</mask>
<path d="M122.4 389.66H34.1511C31.5592 389.66 29.4609 387.562 29.4609 384.97V336.217C29.4609 333.625 31.5592 331.527 34.1511 331.527H84.0559L86.3187 325.891C87.0181 324.122 88.7461 322.928 90.6797 322.928H122.4C124.992 322.928 127.09 325.027 127.09 327.619V384.929C127.09 387.521 124.992 389.619 122.4 389.619V389.66ZM34.1511 332.35C32.0117 332.35 30.2426 334.119 30.2426 336.258V385.011C30.2426 387.151 32.0117 388.92 34.1511 388.92H122.4C124.539 388.92 126.308 387.151 126.308 385.011V327.701C126.308 325.562 124.58 323.792 122.4 323.792H90.6797C89.0752 323.792 87.6764 324.739 87.0592 326.22L84.673 332.103C84.673 332.103 84.4673 332.35 84.3028 332.35H34.1511Z" fill="#DEE8E9"/>
<path d="M122.4 389.66V390.66H123.4V389.66H122.4ZM84.0559 331.527V332.527H84.732L84.9839 331.9L84.0559 331.527ZM86.3187 325.891L87.2467 326.263L87.2487 326.258L86.3187 325.891ZM122.4 389.619V388.619H121.4V389.619H122.4ZM87.0592 326.22L86.1361 325.835L86.1326 325.844L87.0592 326.22ZM84.673 332.103L85.4412 332.743L85.5411 332.623L85.5997 332.479L84.673 332.103ZM122.4 388.66H34.1511V390.66H122.4V388.66ZM34.1511 388.66C32.1114 388.66 30.4609 387.01 30.4609 384.97H28.4609C28.4609 388.114 31.0069 390.66 34.1511 390.66V388.66ZM30.4609 384.97V336.217H28.4609V384.97H30.4609ZM30.4609 336.217C30.4609 334.178 32.1115 332.527 34.1511 332.527V330.527C31.0069 330.527 28.4609 333.073 28.4609 336.217H30.4609ZM34.1511 332.527H84.0559V330.527H34.1511V332.527ZM84.9839 331.9L87.2467 326.263L85.3907 325.518L83.1279 331.155L84.9839 331.9ZM87.2487 326.258C87.7982 324.868 89.1591 323.928 90.6797 323.928V321.928C88.333 321.928 86.238 323.375 85.3887 325.523L87.2487 326.258ZM90.6797 323.928H122.4V321.928H90.6797V323.928ZM122.4 323.928C124.44 323.928 126.09 325.579 126.09 327.619H128.09C128.09 324.474 125.544 321.928 122.4 321.928V323.928ZM126.09 327.619V384.929H128.09V327.619H126.09ZM126.09 384.929C126.09 386.969 124.44 388.619 122.4 388.619V390.619C125.544 390.619 128.09 388.073 128.09 384.929H126.09ZM121.4 389.619V389.66H123.4V389.619H121.4ZM34.1511 331.35C31.4594 331.35 29.2426 333.567 29.2426 336.258H31.2426C31.2426 334.671 32.564 333.35 34.1511 333.35V331.35ZM29.2426 336.258V385.011H31.2426V336.258H29.2426ZM29.2426 385.011C29.2426 387.703 31.4594 389.92 34.1511 389.92V387.92C32.564 387.92 31.2426 386.598 31.2426 385.011H29.2426ZM34.1511 389.92H122.4V387.92H34.1511V389.92ZM122.4 389.92C125.092 389.92 127.308 387.703 127.308 385.011H125.308C125.308 386.598 123.987 387.92 122.4 387.92V389.92ZM127.308 385.011V327.701H125.308V385.011H127.308ZM127.308 327.701C127.308 325.016 125.14 322.792 122.4 322.792V324.792C124.021 324.792 125.308 326.107 125.308 327.701H127.308ZM122.4 322.792H90.6797V324.792H122.4V322.792ZM90.6797 322.792C88.6655 322.792 86.9062 323.987 86.1362 325.835L87.9823 326.604C88.4465 325.49 89.4849 324.792 90.6797 324.792V322.792ZM86.1326 325.844L83.7464 331.727L85.5997 332.479L87.9859 326.596L86.1326 325.844ZM84.673 332.103C83.9048 331.463 83.905 331.463 83.9051 331.463C83.9051 331.463 83.9052 331.462 83.9053 331.462C83.9055 331.462 83.9056 331.462 83.9058 331.462C83.9061 331.461 83.9064 331.461 83.9067 331.461C83.9073 331.46 83.9078 331.459 83.9083 331.459C83.9093 331.458 83.9101 331.457 83.9108 331.456C83.9123 331.454 83.9131 331.453 83.9135 331.453C83.9143 331.452 83.9134 331.453 83.9113 331.455C83.906 331.461 83.9009 331.465 83.8988 331.467C83.8935 331.472 83.911 331.455 83.9512 331.433C83.9803 331.418 84.1078 331.35 84.3028 331.35V333.35C84.58 333.35 84.7949 333.251 84.9089 333.189C85.0339 333.121 85.1337 333.043 85.2004 332.986C85.2703 332.926 85.3269 332.869 85.3653 332.828C85.3851 332.807 85.4016 332.789 85.4142 332.775C85.4206 332.768 85.426 332.761 85.4305 332.756C85.4328 332.753 85.4348 332.751 85.4366 332.749C85.4375 332.748 85.4383 332.747 85.4391 332.746C85.4395 332.745 85.4399 332.745 85.4402 332.745C85.4404 332.744 85.4406 332.744 85.4407 332.744C85.4408 332.744 85.441 332.744 85.441 332.744C85.4411 332.743 85.4412 332.743 84.673 332.103ZM84.3028 331.35H34.1511V333.35H84.3028V331.35Z" fill="#673DE6" mask="url(#path-36-inside-1_428_1677)"/>
<path d="M228.586 325.726H198.265V430.267H228.586V325.726Z" fill="#DEE8E9"/>
<path d="M220.399 334.941H206.411V388.837H220.399V334.941Z" fill="white"/>
<path d="M213.405 419.488C217.745 419.488 221.263 415.969 221.263 411.63C221.263 407.29 217.745 403.771 213.405 403.771C209.066 403.771 205.547 407.29 205.547 411.63C205.547 415.969 209.066 419.488 213.405 419.488Z" fill="white"/>
<path d="M213.405 419.899C208.838 419.899 205.135 416.196 205.135 411.63C205.135 407.063 208.838 403.36 213.405 403.36C217.971 403.36 221.674 407.063 221.674 411.63C221.674 416.196 217.971 419.899 213.405 419.899ZM213.405 404.183C209.291 404.183 205.958 407.515 205.958 411.63C205.958 415.744 209.291 419.076 213.405 419.076C217.519 419.076 220.851 415.744 220.851 411.63C220.851 407.515 217.519 404.183 213.405 404.183Z" fill="#2F2E41"/>
<path d="M213.405 418.212C217.04 418.212 219.988 415.265 219.988 411.63C219.988 407.994 217.04 405.047 213.405 405.047C209.769 405.047 206.822 407.994 206.822 411.63C206.822 415.265 209.769 418.212 213.405 418.212Z" fill="#2F2E41"/>
<path d="M219.453 336.464H207.439V337.616H219.453V336.464Z" fill="#DEE8E9"/>
<path d="M219.453 348.888H207.439V350.04H219.453V348.888Z" fill="#DEE8E9"/>
<path d="M219.453 362.26H207.439V363.411H219.453V362.26Z" fill="#DEE8E9"/>
<path d="M195.344 325.726H165.022V430.266H195.344V325.726Z" fill="#DEE8E9"/>
<path d="M187.157 334.941H173.168V388.837H187.157V334.941Z" fill="white"/>
<path d="M172.305 411.63C172.305 415.991 175.843 419.488 180.163 419.488C184.483 419.488 188.021 415.949 188.021 411.63C188.021 407.31 184.483 403.771 180.163 403.771C175.843 403.771 172.305 407.31 172.305 411.63Z" fill="white"/>
<path d="M180.163 419.899C175.596 419.899 171.893 416.196 171.893 411.63C171.893 407.063 175.596 403.36 180.163 403.36C184.729 403.36 188.432 407.063 188.432 411.63C188.432 416.196 184.729 419.899 180.163 419.899ZM180.163 404.183C176.048 404.183 172.716 407.515 172.716 411.63C172.716 415.744 176.048 419.076 180.163 419.076C184.277 419.076 187.609 415.744 187.609 411.63C187.609 407.515 184.277 404.183 180.163 404.183Z" fill="#2F2E41"/>
<path d="M180.162 418.212C183.798 418.212 186.745 415.265 186.745 411.63C186.745 407.994 183.798 405.047 180.162 405.047C176.527 405.047 173.58 407.994 173.58 411.63C173.58 415.265 176.527 418.212 180.162 418.212Z" fill="#2F2E41"/>
<path d="M186.21 336.464H174.197V337.616H186.21V336.464Z" fill="#DEE8E9"/>
<path d="M186.21 348.888H174.197V350.04H186.21V348.888Z" fill="#DEE8E9"/>
<path d="M186.21 362.26H174.197V363.411H186.21V362.26Z" fill="#DEE8E9"/>
<path d="M295.688 325.726H265.366V430.267H295.688V325.726Z" fill="#DEE8E9"/>
<path d="M287.542 334.941H273.554V388.837H287.542V334.941Z" fill="white"/>
<path d="M272.648 411.63C272.648 415.991 276.187 419.488 280.507 419.488C284.826 419.488 288.365 415.949 288.365 411.63C288.365 407.31 284.826 403.771 280.507 403.771C276.187 403.771 272.648 407.31 272.648 411.63Z" fill="white"/>
<path d="M280.548 419.899C275.981 419.899 272.278 416.196 272.278 411.63C272.278 407.063 275.981 403.36 280.548 403.36C285.115 403.36 288.817 407.063 288.817 411.63C288.817 416.196 285.115 419.899 280.548 419.899ZM280.548 404.183C276.434 404.183 273.101 407.515 273.101 411.63C273.101 415.744 276.434 419.076 280.548 419.076C284.662 419.076 287.994 415.744 287.994 411.63C287.994 407.515 284.662 404.183 280.548 404.183Z" fill="#2F2E41"/>
<path d="M273.965 411.63C273.965 415.25 276.927 418.212 280.548 418.212C284.168 418.212 287.13 415.25 287.13 411.63C287.13 408.009 284.168 405.047 280.548 405.047C276.927 405.047 273.965 408.009 273.965 411.63Z" fill="#2F2E41"/>
<path d="M286.554 336.464H274.541V337.616H286.554V336.464Z" fill="#DEE8E9"/>
<path d="M286.554 348.888H274.541V350.04H286.554V348.888Z" fill="#DEE8E9"/>
<path d="M286.554 362.26H274.541V363.411H286.554V362.26Z" fill="#DEE8E9"/>
<path d="M262.446 325.726H232.125V430.267H262.446V325.726Z" fill="#DEE8E9"/>
<path d="M254.3 334.941H240.312V388.837H254.3V334.941Z" fill="white"/>
<path d="M239.407 411.63C239.407 415.991 242.945 419.488 247.265 419.488C251.585 419.488 255.123 415.949 255.123 411.63C255.123 407.31 251.585 403.771 247.265 403.771C242.945 403.771 239.407 407.31 239.407 411.63Z" fill="white"/>
<path d="M247.306 419.899C242.739 419.899 239.037 416.196 239.037 411.63C239.037 407.063 242.739 403.36 247.306 403.36C251.873 403.36 255.576 407.063 255.576 411.63C255.576 416.196 251.873 419.899 247.306 419.899ZM247.306 404.183C243.192 404.183 239.859 407.515 239.859 411.63C239.859 415.744 243.192 419.076 247.306 419.076C251.42 419.076 254.753 415.744 254.753 411.63C254.753 407.515 251.42 404.183 247.306 404.183Z" fill="#2F2E41"/>
<path d="M240.723 411.63C240.723 415.25 243.685 418.212 247.305 418.212C250.926 418.212 253.888 415.25 253.888 411.63C253.888 408.009 250.926 405.047 247.305 405.047C243.685 405.047 240.723 408.009 240.723 411.63Z" fill="#2F2E41"/>
<path d="M253.312 336.464H241.299V337.616H253.312V336.464Z" fill="#DEE8E9"/>
<path d="M253.312 348.888H241.299V350.04H253.312V348.888Z" fill="#DEE8E9"/>
<path d="M253.312 362.26H241.299V363.411H253.312V362.26Z" fill="#DEE8E9"/>
<path d="M124.704 367.814V425.124C124.704 427.51 122.77 429.403 120.425 429.403H32.1762C29.79 429.403 27.8975 427.469 27.8975 425.124V376.371C27.8975 373.985 29.8311 372.093 32.1762 372.093H82.3279L84.7141 366.209C85.3724 364.564 86.9358 363.535 88.7049 363.535H120.425C122.811 363.535 124.704 365.469 124.704 367.814Z" fill="#DEE8E9"/>
<path d="M121.742 376.783H30.8599V426.523H121.742V376.783Z" fill="white"/>
<path d="M124.704 382.008V425.536C124.704 427.675 122.77 429.403 120.425 429.403H32.1762C29.79 429.403 27.8975 427.675 27.8975 425.536V382.008H124.745H124.704Z" fill="#673DE6"/>
<path d="M121.906 423.89C121.7 423.89 121.495 423.725 121.495 423.478V383.324C121.495 383.119 121.659 382.913 121.906 382.913C122.153 382.913 122.317 383.077 122.317 383.324V423.478C122.317 423.684 122.153 423.89 121.906 423.89Z" fill="#2F2E41"/>
<path d="M120.425 429.814H32.176C29.5841 429.814 27.4858 427.716 27.4858 425.124V376.371C27.4858 373.779 29.5841 371.681 32.176 371.681H82.0808L84.3436 366.044C85.043 364.275 86.771 363.082 88.7046 363.082H120.425C123.017 363.082 125.115 365.18 125.115 367.772V425.083C125.115 427.675 123.017 429.773 120.425 429.773V429.814ZM32.176 372.504C30.0366 372.504 28.2675 374.273 28.2675 376.412V425.165C28.2675 427.304 30.0366 429.074 32.176 429.074H120.425C122.564 429.074 124.333 427.304 124.333 425.165V367.855C124.333 365.715 122.564 363.946 120.425 363.946H88.7046C87.1001 363.946 85.7013 364.892 85.0841 366.374L82.6979 372.257C82.6979 372.257 82.4922 372.504 82.3277 372.504H32.176Z" fill="#673DE6"/>
<path d="M163.006 427.634H150.211L151.569 382.542H161.648L163.006 427.634Z" fill="#2F2E41"/>
<path d="M181.314 429.526H131.903C130.998 429.526 130.298 428.786 130.298 427.922C130.298 427.017 131.039 426.317 131.903 426.317H181.314C182.219 426.317 182.918 427.058 182.918 427.922C182.918 428.827 182.178 429.526 181.314 429.526Z" fill="#2F2E41"/>
<path d="M205.958 344.569H107.218C104.9 344.569 103.021 346.447 103.021 348.765V405.582C103.021 407.899 104.9 409.778 107.218 409.778H205.958C208.276 409.778 210.154 407.899 210.154 405.582V348.765C210.154 346.447 208.276 344.569 205.958 344.569Z" fill="#2F2E41"/>
<path d="M205.217 345.927H108C105.886 345.927 104.173 347.64 104.173 349.753V404.965C104.173 407.078 105.886 408.791 108 408.791H205.217C207.33 408.791 209.043 407.078 209.043 404.965V349.753C209.043 347.64 207.33 345.927 205.217 345.927Z" fill="white"/>
<path d="M547.943 430.39C547.737 430.39 547.531 430.225 547.531 429.979V201.93C547.531 122.157 482.61 57.2353 402.836 57.2353C323.063 57.2353 258.182 122.157 258.182 201.93V430.02C258.182 430.225 258.018 430.431 257.771 430.431C257.524 430.431 257.359 430.267 257.359 430.02V201.93C257.359 182.306 261.186 163.257 268.797 145.32C276.12 127.999 286.611 112.447 299.982 99.0764C313.353 85.7053 328.905 75.2142 346.225 67.891C364.163 60.3209 383.212 56.4536 402.836 56.4536C422.461 56.4536 441.509 60.2798 459.447 67.891C476.768 75.2142 492.319 85.7053 505.69 99.0764C519.061 112.447 529.552 127.999 536.876 145.32C544.446 163.257 548.313 182.306 548.313 201.93V430.02C548.313 430.225 548.148 430.431 547.902 430.431L547.943 430.39Z" fill="#2F2E41"/>
<path d="M430.7 38.0887C422.183 38.0887 415.271 31.0124 415.271 22.2903C415.271 13.5683 422.183 6.49194 430.7 6.49194C439.216 6.49194 446.128 13.5683 446.128 22.2903C446.128 31.0124 439.216 38.0887 430.7 38.0887ZM430.7 7.27363C422.636 7.27363 416.053 14.0209 416.053 22.2903C416.053 30.5598 422.636 37.307 430.7 37.307C438.763 37.307 445.346 30.5598 445.346 22.2903C445.346 14.0209 438.763 7.27363 430.7 7.27363Z" fill="#2F2E41"/>
<path d="M528.47 168.403C528.47 168.403 528.141 168.279 528.1 168.115C516.539 127.467 494.199 106.608 477.454 96.2404C459.352 85.0499 443.841 83.4043 443.677 83.3631C443.471 83.3631 443.307 83.1574 443.307 82.9106C443.307 82.6637 443.512 82.5403 443.759 82.5403C443.924 82.5403 459.64 84.1859 477.907 95.4999C488.604 102.124 498.107 110.763 506.089 121.131C516.086 134.091 523.739 149.807 528.881 167.827C528.923 168.033 528.799 168.279 528.593 168.32C528.593 168.32 528.511 168.32 528.47 168.32V168.403Z" fill="#2F2E41"/>
<path d="M297.54 430.02H6.70947V455.363H297.54V430.02Z" fill="#DEE8E9"/>
<path d="M278.202 417.39C278.202 417.39 277.996 417.349 277.914 417.266C277.75 417.102 277.791 416.855 277.914 416.69C277.996 416.608 287.13 408.256 298.65 405.582C298.855 405.541 299.061 405.664 299.143 405.87C299.226 406.076 299.061 406.282 298.855 406.364C287.5 408.997 278.572 417.184 278.49 417.266C278.408 417.349 278.326 417.39 278.202 417.39Z" fill="white"/>
<path d="M272.525 431.049C272.525 431.049 272.196 430.925 272.155 430.761C272.072 430.555 272.196 430.308 272.402 430.267C280.342 427.634 278.82 421.175 278.737 420.887C278.696 420.681 278.82 420.475 279.025 420.393C279.231 420.352 279.437 420.475 279.519 420.681C279.519 420.763 279.972 422.573 279.354 424.754C278.778 426.77 277.133 429.485 272.648 431.007C272.607 431.007 272.566 431.007 272.525 431.007V431.049Z" fill="white"/>
<path d="M315.518 328.524C315.148 331.075 313.214 332.885 311.198 332.556C309.182 332.268 307.866 329.964 308.236 327.413C308.606 324.862 310.581 323.052 312.556 323.34C314.572 323.628 315.889 325.932 315.518 328.483V328.524Z" fill="white"/>
<path d="M311.61 333.008C311.61 333.008 311.281 333.008 311.117 333.008C310.006 332.844 309.059 332.144 308.442 331.075C307.825 330.005 307.619 328.73 307.825 327.413C308.237 324.657 310.376 322.682 312.598 323.011C314.49 323.299 315.889 325.15 315.971 327.495C315.971 327.701 315.807 327.907 315.601 327.907C315.395 327.907 315.19 327.742 315.19 327.537C315.148 325.603 313.996 324.039 312.515 323.793C310.705 323.505 308.977 325.191 308.648 327.495C308.483 328.647 308.648 329.758 309.183 330.663C309.677 331.527 310.417 332.062 311.281 332.186C311.569 332.227 311.898 332.186 312.186 332.186C312.392 332.144 312.598 332.268 312.639 332.515C312.68 332.72 312.556 332.926 312.31 332.967C312.063 333.008 311.857 333.049 311.61 333.049V333.008Z" fill="#2F2E41"/>
<path d="M328.149 330.869C328.149 331.363 327.779 331.733 327.285 331.733C326.791 331.733 326.421 331.363 326.421 330.869C326.421 330.375 326.791 330.005 327.285 330.005C327.779 330.005 328.149 330.375 328.149 330.869Z" fill="#2F2E41"/>
<path d="M325.35 330.005C325.35 330.005 325.103 329.964 325.021 329.841C324.898 329.676 324.939 329.429 325.103 329.265C325.144 329.224 326.461 328.236 328.107 328.853C328.312 328.936 328.436 329.141 328.353 329.347C328.271 329.553 328.065 329.676 327.86 329.594C326.626 329.141 325.638 329.841 325.597 329.882C325.515 329.923 325.432 329.964 325.35 329.964V330.005Z" fill="#2F2E41"/>
<path d="M225.486 155.918C221.659 155.918 218.533 152.792 218.533 148.965C218.533 145.139 221.659 142.012 225.486 142.012C229.312 142.012 232.439 145.139 232.439 148.965C232.439 152.792 229.312 155.918 225.486 155.918ZM225.486 142.835C222.112 142.835 219.356 145.592 219.356 148.965C219.356 152.339 222.112 155.095 225.486 155.095C228.859 155.095 231.616 152.339 231.616 148.965C231.616 145.592 228.859 142.835 225.486 142.835Z" fill="#2F2E41"/>
<path d="M305.875 53.1875C302.502 53.1875 299.745 50.431 299.745 47.0574C299.745 43.6837 302.502 40.9272 305.875 40.9272C309.249 40.9272 312.005 43.6837 312.005 47.0574C312.005 50.431 309.249 53.1875 305.875 53.1875ZM305.875 41.7089C302.913 41.7089 300.527 44.0952 300.527 47.0574C300.527 50.0195 302.913 52.4058 305.875 52.4058C308.837 52.4058 311.224 50.0195 311.224 47.0574C311.224 44.0952 308.837 41.7089 305.875 41.7089Z" fill="#2F2E41"/>
<path d="M325.887 252.37C320.744 252.37 316.548 248.174 316.548 243.031C316.548 237.888 320.744 233.692 325.887 233.692C331.03 233.692 335.226 237.888 335.226 243.031C335.226 248.174 331.03 252.37 325.887 252.37ZM325.887 234.474C321.156 234.474 317.33 238.3 317.33 243.031C317.33 247.762 321.156 251.588 325.887 251.588C330.618 251.588 334.444 247.762 334.444 243.031C334.444 238.3 330.618 234.474 325.887 234.474Z" fill="#2F2E41"/>
<path d="M54.5601 330.733C53.4807 329.789 52.4013 328.845 51.3534 327.865C51.1735 327.708 51.1509 327.371 51.3442 327.222C51.5015 327.042 51.8387 327.02 51.9871 327.213C53.3589 328.476 54.7307 329.739 56.1294 330.899C56.3093 331.056 56.3634 331.357 56.1746 331.573C56.0173 331.753 55.716 331.807 55.5001 331.619C55.1763 331.335 54.8525 331.052 54.5287 330.769L54.5601 330.733ZM44.7507 321.329C43.4733 319.958 42.1959 318.587 40.986 317.212C40.8061 317.055 40.851 316.713 41.0443 316.564C41.2016 316.384 41.5433 316.429 41.6917 316.623C42.9017 317.998 44.1791 319.369 45.4205 320.709C45.6004 320.866 45.587 321.172 45.3982 321.388C45.2409 321.568 44.9351 321.554 44.7552 321.397L44.7507 321.329ZM35.0531 310.055C35.0531 310.055 35.0171 310.024 34.9811 309.992C33.8341 308.545 32.7141 306.994 31.666 305.506C31.5175 305.313 31.5669 305.038 31.7917 304.854C31.985 304.706 32.2593 304.755 32.4437 304.98C33.5278 306.499 34.6433 307.983 35.7589 309.466C35.9073 309.659 35.8939 309.965 35.7006 310.114C35.5433 310.294 35.269 310.244 35.0891 310.087L35.0531 310.055ZM26.5828 297.886C26.5828 297.886 26.5108 297.823 26.4748 297.792C25.4896 296.232 24.5314 294.568 23.6137 293.004C23.4967 292.775 23.5461 292.5 23.7754 292.383C24.0047 292.266 24.279 292.316 24.3959 292.545C25.3182 294.177 26.2719 295.773 27.2571 297.333C27.374 297.562 27.3246 297.837 27.0954 297.954C26.9335 298.066 26.6952 298.048 26.5513 297.922L26.5828 297.886ZM19.3756 284.853C19.3756 284.853 19.2677 284.759 19.2317 284.727C18.4084 283.055 17.6165 281.347 16.8921 279.634C16.7751 279.404 16.8919 279.126 17.1212 279.009C17.3505 278.892 17.6293 279.009 17.7463 279.238C18.5022 280.915 19.2941 282.623 20.0814 284.264C20.1984 284.493 20.0816 284.772 19.8523 284.889C19.6545 284.97 19.4836 284.948 19.3397 284.822L19.3756 284.853ZM13.5802 271.15C13.5802 271.15 13.4723 271.056 13.4318 270.957C12.8063 269.203 12.1807 267.45 11.5867 265.661C11.5012 265.395 11.654 265.148 11.8878 265.098C12.1216 265.049 12.4004 265.166 12.4499 265.4C13.008 267.157 13.6335 268.911 14.259 270.664C14.3445 270.929 14.2232 271.141 13.9939 271.258C13.8276 271.303 13.6567 271.28 13.5128 271.155L13.5802 271.15ZM9.17401 256.947C9.17401 256.947 9.03007 256.821 9.02104 256.687C8.56187 254.888 8.13417 253.054 7.74244 251.251C7.69291 251.017 7.84572 250.77 8.11098 250.684C8.34478 250.635 8.59213 250.787 8.67764 251.053C9.06937 252.856 9.49708 254.69 9.92026 256.457C9.96979 256.691 9.85297 256.97 9.55173 257.024C9.38538 257.069 9.24597 257.01 9.13803 256.916L9.17401 256.947ZM6.23351 242.375C6.23351 242.375 6.08958 242.249 6.08054 242.115C5.78773 240.271 5.56235 238.423 5.36844 236.539C5.35038 236.27 5.53916 236.054 5.80894 236.036C6.07872 236.017 6.2946 236.206 6.31267 236.476C6.50206 238.293 6.76342 240.172 7.02026 241.984C7.06979 242.218 6.88552 242.501 6.61574 242.519C6.48085 242.528 6.34145 242.47 6.26949 242.407L6.23351 242.375ZM4.80373 227.601C4.80373 227.601 4.65529 227.407 4.64625 227.272C4.55577 225.415 4.49676 223.522 4.5097 221.692C4.49163 221.423 4.71639 221.238 4.95019 221.189C5.21997 221.171 5.40439 221.395 5.45392 221.629C5.47696 223.491 5.5 225.352 5.62195 227.173C5.64001 227.443 5.45123 227.659 5.18145 227.677C5.04656 227.686 4.94314 227.659 4.8352 227.565L4.80373 227.601ZM4.89372 212.758C4.89372 212.758 4.7093 212.533 4.73173 212.362C4.84358 210.492 4.99141 208.653 5.13925 206.814C5.15716 206.575 5.38192 206.391 5.6517 206.373C5.92148 206.355 6.07444 206.616 6.09251 206.885C5.94468 208.724 5.76538 210.599 5.685 212.434C5.66708 212.672 5.4783 212.888 5.17254 212.875C5.06912 212.848 4.96568 212.821 4.89372 212.758ZM6.48104 198.018C6.48104 198.018 6.32809 197.758 6.35052 197.587C6.63324 195.739 6.95194 193.922 7.33809 192.101C7.38747 191.827 7.64821 191.674 7.89104 191.759C8.13387 191.844 8.31828 192.069 8.23292 192.312C7.87824 194.097 7.52808 195.95 7.27683 197.762C7.22745 198.036 6.96671 198.189 6.75986 198.135C6.65644 198.108 6.62045 198.077 6.54849 198.014L6.48104 198.018ZM9.53873 183.485C9.53873 183.485 9.34981 183.193 9.37224 183.022C9.86181 181.228 10.3514 179.434 10.9084 177.635C10.9937 177.392 11.2545 177.239 11.4973 177.324C11.7402 177.41 11.8931 177.671 11.8078 177.913C11.2822 179.676 10.7566 181.439 10.2671 183.233C10.1817 183.476 9.92098 183.629 9.71413 183.575C9.67815 183.544 9.57471 183.517 9.53873 183.485ZM14.0804 169.361C14.0804 169.361 13.8555 169.037 13.9453 168.862C14.5743 167.126 15.2707 165.385 16.0031 163.677C16.0885 163.434 16.3852 163.312 16.5966 163.434C16.8394 163.519 16.9609 163.816 16.8396 164.027C16.1072 165.736 15.4107 167.476 14.7458 169.181C14.6604 169.423 14.3997 169.576 14.1209 169.46C14.0849 169.428 14.0489 169.397 14.0129 169.365L14.0804 169.361ZM20.0475 155.784C20.0475 155.784 19.8541 155.425 19.9439 155.249C20.7798 153.567 21.6516 151.917 22.5594 150.298C22.6807 150.087 22.946 150.001 23.1888 150.086C23.4002 150.208 23.4857 150.473 23.4003 150.716C22.4925 152.335 21.6207 153.985 20.8164 155.631C20.695 155.842 20.3983 155.964 20.1869 155.843L20.115 155.78L20.0475 155.784ZM27.3458 142.864C27.3458 142.864 27.1164 142.473 27.2377 142.261C28.2175 140.705 29.2647 139.145 30.3478 137.616C30.5051 137.436 30.7704 137.35 31.0177 137.503C31.2651 137.656 31.2832 137.926 31.1304 138.173C30.0786 139.666 29.0674 141.258 28.0517 142.783C27.8944 142.963 27.6291 143.048 27.4178 142.927C27.4178 142.927 27.4178 142.927 27.3818 142.895L27.3458 142.864ZM35.9528 130.771C35.7729 130.613 35.7548 130.343 35.8761 130.132C37.0313 128.666 38.2224 127.231 39.4135 125.797C39.5708 125.617 39.8721 125.563 40.088 125.751C40.2679 125.909 40.3219 126.21 40.1331 126.426C38.906 127.829 37.7509 129.295 36.6272 130.725C36.4699 130.905 36.1687 130.959 35.9888 130.802L35.9528 130.771ZM45.7381 119.581C45.5582 119.423 45.5716 119.118 45.7289 118.938C47.0279 117.597 48.363 116.288 49.698 114.98C49.8553 114.8 50.1611 114.813 50.377 115.002C50.5569 115.159 50.5435 115.465 50.3547 115.681C49.0511 116.954 47.7161 118.263 46.417 119.603C46.2597 119.783 45.954 119.769 45.7741 119.612L45.7381 119.581ZM56.5758 109.438C56.5758 109.438 56.5758 109.438 56.5399 109.407C56.36 109.249 56.4048 108.908 56.5981 108.759C58.0096 107.581 59.4886 106.398 60.9361 105.251C61.1294 105.102 61.4352 105.116 61.5836 105.309C61.732 105.502 61.7186 105.808 61.5253 105.956C60.0778 107.103 58.6303 108.25 57.1874 109.465C57.03 109.645 56.7558 109.595 56.5758 109.438ZM68.4077 100.482L68.3357 100.419C68.1873 100.226 68.2681 99.9157 68.4614 99.7673C70.0169 98.7146 71.5408 97.698 73.1682 96.7083C73.3975 96.5913 73.6718 96.6407 73.8202 96.834C73.9372 97.0633 73.8878 97.3376 73.6945 97.486C72.1346 98.4712 70.5432 99.4924 69.0552 100.54C68.8933 100.653 68.655 100.635 68.5111 100.509L68.4077 100.482ZM81.0987 92.7222C81.0987 92.7222 81.0267 92.6592 80.9907 92.6278C80.8737 92.3985 80.9231 92.1242 81.1839 91.9712C82.8203 91.1164 84.4882 90.2256 86.1606 89.4023C86.3899 89.2853 86.6687 89.4022 86.7857 89.6314C86.9027 89.8607 86.7858 90.1395 86.5565 90.2565C84.8841 91.0798 83.2477 91.9346 81.6113 92.7894C81.4494 92.9019 81.2426 92.848 81.0987 92.7222ZM94.559 86.3333C94.559 86.3333 94.451 86.2389 94.4465 86.1714C94.3295 85.9421 94.4463 85.6633 94.7116 85.5778C96.4245 84.8534 98.1734 84.1604 99.9268 83.5349C100.192 83.4494 100.403 83.5707 100.52 83.8C100.606 84.0653 100.485 84.2766 100.255 84.3936C98.5379 85.0506 96.789 85.7436 95.0716 86.4006C94.9052 86.4456 94.7343 86.4231 94.5904 86.2973L94.559 86.3333ZM108.555 81.3651C108.555 81.3651 108.411 81.2392 108.406 81.1718C108.321 80.9065 108.474 80.6592 108.707 80.6096C110.501 80.083 112.295 79.5564 114.094 79.0972C114.327 79.0477 114.606 79.1645 114.692 79.4298C114.777 79.6951 114.624 79.9424 114.359 80.0279C112.561 80.4871 110.767 81.0137 109.004 81.5043C108.838 81.5494 108.667 81.5269 108.559 81.4325L108.555 81.3651ZM122.987 77.8581C122.987 77.8581 122.843 77.7322 122.834 77.5973C122.785 77.3636 122.937 77.1162 123.203 77.0307C125.042 76.6704 126.885 76.3776 128.728 76.0848C128.962 76.0353 129.246 76.2195 129.264 76.4893C129.282 76.7591 129.129 77.0064 128.859 77.0245C127.047 77.2813 125.172 77.6101 123.401 77.9659C123.266 77.9749 123.095 77.9525 122.987 77.8581ZM137.721 75.8213C137.721 75.8213 137.541 75.664 137.564 75.4931C137.546 75.2234 137.734 75.0075 138.004 74.9894C139.857 74.8315 141.745 74.705 143.602 74.6146C143.872 74.5965 144.088 74.7853 144.106 75.055C144.124 75.3248 143.935 75.5407 143.665 75.5588C141.808 75.6493 139.987 75.7712 138.135 75.9291C138 75.9382 137.897 75.9112 137.789 75.8168L137.721 75.8213ZM152.555 75.2684C152.555 75.2684 152.406 75.0751 152.397 74.9402C152.415 74.7019 152.604 74.486 152.874 74.4679C154.74 74.5123 156.606 74.5567 158.44 74.6371C158.678 74.655 158.894 74.8438 158.881 75.1496C158.863 75.3879 158.674 75.6038 158.369 75.5904C156.534 75.51 154.632 75.4341 152.802 75.4212C152.667 75.4302 152.595 75.3673 152.523 75.3043L152.555 75.2684ZM167.353 76.2082C167.353 76.2082 167.168 75.9834 167.191 75.8126C167.208 75.5742 167.433 75.3898 167.703 75.3718C169.547 75.587 171.426 75.8338 173.207 76.121C173.481 76.1704 173.665 76.3952 173.58 76.638C173.531 76.9123 173.306 77.0967 173.063 77.0113C171.215 76.7286 169.403 76.4774 167.559 76.2621C167.456 76.2351 167.352 76.2082 167.281 76.1453L167.353 76.2082ZM181.98 78.6499C181.98 78.6499 181.791 78.3577 181.813 78.1868C181.863 77.9125 182.16 77.791 182.366 77.8449C184.188 78.231 186.013 78.6846 187.771 79.1427C188.014 79.2281 188.167 79.4889 188.113 79.6957C188.028 79.9385 187.767 80.0915 187.56 80.0376C185.802 79.5795 183.977 79.1259 182.155 78.7397C182.119 78.7083 182.016 78.6813 181.944 78.6184L181.98 78.6499ZM196.266 82.571C196.266 82.571 196.077 82.2788 196.131 82.0719C196.217 81.8291 196.477 81.6761 196.72 81.7615C198.487 82.3545 200.255 82.9475 201.959 83.6124C202.202 83.6978 202.355 83.9585 202.238 84.2373C202.153 84.4802 201.892 84.6331 201.613 84.5163C199.877 83.8873 198.141 83.2584 196.374 82.6654C196.338 82.6339 196.266 82.571 196.23 82.5395L196.266 82.571ZM210.108 87.9445C210.108 87.9445 209.914 87.5849 210.004 87.4095C210.089 87.1667 210.386 87.0452 210.598 87.1665C212.275 87.9349 213.988 88.7347 215.634 89.5391C215.846 89.6604 215.931 89.9257 215.846 90.1685C215.76 90.4114 215.428 90.5014 215.216 90.38C213.57 89.5757 211.857 88.7758 210.18 88.0075C210.18 88.0075 210.108 87.9445 210.072 87.9131L210.108 87.9445ZM270.671 138.493L270.599 138.43C269.583 136.906 268.467 135.423 267.383 133.903C267.235 133.71 267.248 133.404 267.509 133.251C267.702 133.103 268.008 133.116 268.161 133.377C269.276 134.86 270.36 136.38 271.413 137.935C271.561 138.128 271.481 138.439 271.287 138.587C271.125 138.7 270.887 138.682 270.743 138.556L270.671 138.493ZM223.298 94.7167C223.298 94.7167 223.068 94.3255 223.19 94.1142C223.311 93.9028 223.576 93.8173 223.823 93.9701C225.411 94.9139 227.034 95.8891 228.591 96.8688C228.77 97.0262 228.856 97.2914 228.735 97.5028C228.613 97.7142 228.312 97.7682 228.101 97.6469C226.545 96.6671 224.921 95.6919 223.37 94.7796C223.37 94.7796 223.334 94.7481 223.298 94.7167ZM261.616 126.702C261.616 126.702 261.616 126.702 261.58 126.67C260.402 125.259 259.156 123.852 257.915 122.512C257.735 122.355 257.748 122.049 257.937 121.833C258.094 121.653 258.4 121.667 258.616 121.855C259.893 123.226 261.139 124.633 262.318 126.045C262.498 126.202 262.453 126.544 262.259 126.692C262.102 126.872 261.828 126.823 261.648 126.666L261.616 126.702ZM235.764 102.824C235.764 102.824 235.566 102.397 235.687 102.186C235.845 102.006 236.11 101.921 236.357 102.073C237.886 103.157 239.353 104.312 240.85 105.431C241.03 105.588 241.084 105.889 240.927 106.069C240.77 106.249 240.468 106.303 240.288 106.146C238.822 104.991 237.325 103.872 235.831 102.82L235.764 102.824ZM251.442 115.9C250.138 114.632 248.73 113.338 247.363 112.142C247.183 111.985 247.129 111.683 247.318 111.468C247.475 111.288 247.776 111.234 247.992 111.422C249.396 112.649 250.767 113.913 252.108 115.212C252.288 115.369 252.31 115.706 252.117 115.855C251.959 116.034 251.654 116.021 251.474 115.864L251.442 115.9Z" fill="#2F2E41"/>
<path d="M622.299 274L650.205 260.199C651.908 259.357 653.923 259.544 655.45 260.685C658.208 262.747 658.243 266.942 655.521 269.056L636.52 283.79L622.299 274Z" fill="white"/>
<path d="M636.493 284.717C636.338 284.717 636.185 284.672 636.051 284.578L621.72 274.695C621.485 274.533 621.353 274.254 621.373 273.964C621.394 273.674 621.563 273.418 621.819 273.292L649.939 259.36C651.922 258.376 654.258 258.594 656.036 259.927C657.563 261.07 658.449 262.84 658.468 264.778C658.484 266.718 657.628 268.505 656.12 269.68L636.974 284.553C636.832 284.664 636.664 284.717 636.494 284.717H636.493ZM623.747 274.14L636.465 282.909L655.157 268.387C656.265 267.526 656.892 266.216 656.879 264.794C656.866 263.373 656.217 262.077 655.096 261.236C653.792 260.261 652.078 260.1 650.624 260.82L623.745 274.138L623.747 274.14Z" fill="#2F2E41"/>
<path d="M693.135 285.478C684.552 288.159 657.08 293.381 654.181 293.468L626.775 298.608C626.775 298.608 576.12 386.343 552.229 397.769C546.946 400.295 496.233 351.018 498.073 350.034L533.404 305.387L549.197 329.415C549.197 329.415 586.206 298.764 591.649 292.544C597.285 286.098 599.805 282.605 607.989 276.856C611.538 274.364 615.81 273.261 620.066 273.673C633.501 274.963 645.433 275.508 645.433 275.508L661.718 277.072L691.605 275.835C694.114 275.731 696.258 277.711 696.475 280.332C696.668 282.66 695.271 284.81 693.133 285.478H693.135Z" fill="white"/>
<path d="M551.675 398.79C550.316 398.79 547.671 397.629 541.368 392.732C536.607 389.033 530.394 383.667 523.399 377.218C512 366.707 498.455 353.15 497.241 350.508C496.962 349.899 497.135 349.475 497.363 349.24L532.708 304.347C532.865 304.147 533.1 304.037 533.345 304.05C533.59 304.062 533.816 304.194 533.955 304.405L549.298 327.865C554.289 323.699 586.116 297.071 591.065 291.385C596.86 284.723 600.488 280.95 608.686 275.162C612.353 272.574 616.828 271.387 621.289 271.821C634.582 273.105 645.454 273.964 645.563 273.973L661.833 275.543L691.712 274.301C694.649 274.192 697.145 276.497 697.399 279.58C697.624 282.299 695.982 284.841 693.498 285.62C685.072 288.266 657.663 293.539 654.348 293.694L627.303 298.793C625.681 301.598 613.597 322.37 599.102 344.117C578.221 375.448 562.536 393.785 552.487 398.615C552.272 398.718 552.014 398.79 551.677 398.79H551.675ZM498.773 350.029C500.071 352.162 509.379 361.87 520.961 372.751C534.888 385.833 545.867 394.804 550.329 396.751C551.504 397.262 551.83 397.119 551.833 397.117C575.27 385.852 625.639 298.502 626.145 297.62C626.261 297.416 626.456 297.277 626.677 297.236L654.123 292.064C657.216 291.963 684.636 286.684 693.047 284.042C694.824 283.484 695.998 281.667 695.838 279.723C695.656 277.519 693.866 275.867 691.771 275.949L661.84 277.193C661.737 277.189 645.43 275.615 645.43 275.615C645.335 275.607 634.451 274.747 621.143 273.463C617.04 273.064 612.926 274.155 609.555 276.532C601.497 282.222 597.926 285.936 592.215 292.5C586.785 298.74 551.125 328.445 549.61 329.705C549.44 329.847 549.221 329.909 549.008 329.874C548.794 329.841 548.603 329.715 548.479 329.527L533.248 306.237L498.769 350.029H498.773Z" fill="#2F2E41"/>
<path d="M500.13 369.991C510.47 363.491 542.191 341.789 551.838 314.667C552.347 313.24 552.102 311.64 551.203 310.436C536.275 290.417 527.008 278.068 521.259 270.453C515.384 262.67 506.692 257.685 497.176 256.637L484.002 255.187L460.187 324.327L494.506 368.955C495.86 370.714 498.272 371.161 500.132 369.993L500.13 369.991Z" fill="#673DE6"/>
<path d="M637.137 291.207L683.655 283.881C686.969 283.276 689.315 280.748 689.052 278.067C688.776 275.261 685.753 273.287 682.245 273.626L659.682 275.801L637.137 291.209V291.207Z" fill="white"/>
<path d="M656.456 288.427C656.081 288.427 655.75 288.132 655.694 287.722C655.632 287.271 655.924 286.852 656.346 286.786L682.916 282.628C685.7 282.123 687.726 280.049 687.514 277.908C687.293 275.66 684.692 274.064 681.722 274.347L658.989 276.585C658.565 276.632 658.189 276.294 658.151 275.839C658.112 275.385 658.423 274.982 658.848 274.942L681.582 272.702C685.453 272.329 688.732 274.541 689.048 277.733C689.35 280.789 686.817 283.594 683.156 284.258L656.567 288.419C656.529 288.425 656.491 288.427 656.455 288.427H656.456Z" fill="#2F2E41"/>
<path d="M488.599 256.041L485.467 444.602H339.529L332.525 356.169L324.997 261.739L404.668 246.06L488.599 256.041Z" fill="#673DE6"/>
<path d="M343.37 416.776L350.976 405.075C352.496 402.737 355.365 401.768 357.931 402.724L384.198 412.505C387.507 413.737 388.923 417.794 387.075 420.878C386.301 422.17 385.111 423.421 383.297 424.396C384.694 435.328 377.713 436.478 377.713 436.478C377.713 436.478 379.807 443.814 374.501 447.699C374.279 449.525 373.853 451.091 373.345 452.404C372.091 455.644 368.558 457.263 365.379 456.061L354.676 452.015C345.284 457.43 333.781 457.165 324.632 451.328L323.681 450.721C323.681 450.721 264.853 425.004 236.605 394.639C233.693 391.508 232.484 387.068 233.414 382.84C242.385 342.081 284.589 294.082 284.589 294.082L331.219 323.713L295.033 370.362C295.033 370.362 331.778 410.98 343.366 416.776H343.37Z" fill="white"/>
<path d="M367.569 457.376C366.743 457.376 365.902 457.229 365.078 456.917L354.752 453.013C345.153 458.377 333.473 458.039 324.171 452.102L323.276 451.531C321.028 450.539 263.607 424.976 235.97 395.27C232.835 391.899 231.558 387.179 232.557 382.641C237.224 361.441 250.952 338.318 261.647 322.656C273.217 305.712 283.833 293.596 283.939 293.474C284.225 293.149 284.695 293.081 285.056 293.312L331.686 322.943C331.902 323.079 332.049 323.304 332.093 323.561C332.137 323.817 332.07 324.08 331.912 324.284L296.204 370.317C300.626 375.168 331.865 409.23 343.077 415.597L350.243 404.572C351.991 401.883 355.277 400.773 358.231 401.873L384.498 411.655C386.342 412.342 387.77 413.831 388.416 415.738C389.053 417.623 388.839 419.674 387.828 421.361C386.971 422.792 385.767 423.981 384.245 424.901C385.144 433.631 380.726 436.341 378.761 437.107C379.159 439.246 379.672 444.76 375.329 448.205C375.107 449.799 374.717 451.324 374.166 452.744C373.052 455.627 370.405 457.376 367.569 457.378V457.376ZM354.677 451.108C354.779 451.108 354.883 451.127 354.98 451.163L365.684 455.21C368.437 456.249 371.443 454.872 372.526 452.07C373.064 450.676 373.436 449.17 373.627 447.589C373.658 447.337 373.789 447.108 373.992 446.96C378.709 443.506 376.944 437.011 376.867 436.737C376.797 436.487 376.834 436.217 376.969 435.997C377.104 435.777 377.324 435.627 377.575 435.586C377.82 435.541 383.685 434.382 382.425 424.52C382.377 424.142 382.562 423.772 382.892 423.596C384.384 422.794 385.541 421.721 386.327 420.407C387.058 419.186 387.214 417.702 386.751 416.337C386.282 414.949 385.242 413.865 383.901 413.366L357.633 403.584C355.441 402.769 353.006 403.59 351.711 405.585L344.104 417.287C343.859 417.663 343.382 417.796 342.985 417.599C331.383 411.794 295.899 372.65 294.393 370.986C294.095 370.657 294.076 370.152 294.35 369.799L329.913 323.952L284.761 295.26C280.036 300.768 242.578 345.342 234.278 383.045C233.41 386.984 234.519 391.087 237.244 394.015C265.041 423.896 323.442 449.632 324.03 449.888C324.15 449.953 325.101 450.56 325.101 450.56C333.974 456.221 345.142 456.478 354.248 451.227C354.38 451.15 354.53 451.112 354.677 451.112V451.108Z" fill="#2F2E41"/>
<path d="M383.299 425.308C383.195 425.308 383.089 425.289 382.988 425.248L362.745 417.386C362.288 417.208 362.06 416.684 362.23 416.216C362.402 415.745 362.911 415.508 363.366 415.685L383.61 423.548C384.067 423.725 384.296 424.249 384.125 424.717C383.992 425.081 383.656 425.306 383.299 425.306V425.308Z" fill="#2F2E41"/>
<path d="M377.714 437.392C377.599 437.392 377.481 437.368 377.369 437.319L358.802 429.168C358.353 428.971 358.146 428.437 358.337 427.977C358.528 427.515 359.047 427.299 359.493 427.498L378.06 435.649C378.509 435.845 378.716 436.378 378.525 436.84C378.382 437.186 378.056 437.394 377.714 437.394V437.392Z" fill="#2F2E41"/>
<path d="M374.503 448.61C374.397 448.61 374.289 448.591 374.183 448.548L356.563 441.488C356.108 441.306 355.884 440.78 356.06 440.311C356.237 439.843 356.749 439.612 357.202 439.794L374.823 446.854C375.277 447.036 375.502 447.562 375.325 448.03C375.19 448.39 374.856 448.61 374.503 448.61Z" fill="#2F2E41"/>
<path d="M277.241 371.354C276.865 371.354 276.516 371.104 276.398 370.715C276.255 370.236 276.514 369.727 276.979 369.579C277.465 369.423 288.982 365.815 295.47 369.571C295.893 369.817 296.045 370.37 295.806 370.809C295.567 371.247 295.03 371.404 294.604 371.155C288.779 367.783 277.612 371.279 277.5 371.316C277.413 371.344 277.326 371.356 277.239 371.356L277.241 371.354Z" fill="#2F2E41"/>
<path d="M627.799 447.029C627.799 450.308 626.51 453.279 624.422 455.426C622.335 457.577 619.454 458.906 616.272 458.906H218.301C211.932 458.906 206.77 453.586 206.77 447.029C206.77 443.75 208.061 440.777 210.147 438.628C212.233 436.478 215.119 435.148 218.301 435.148H616.272C622.639 435.148 627.799 440.467 627.799 447.029Z" fill="white"/>
<path d="M616.272 459.815H218.301C211.457 459.815 205.887 454.079 205.887 447.029C205.887 443.613 207.178 440.401 209.524 437.986C211.87 435.572 214.986 434.241 218.301 434.241H616.272C623.116 434.241 628.682 439.98 628.682 447.031C628.682 450.449 627.391 453.659 625.045 456.072C622.703 458.487 619.587 459.817 616.27 459.817L616.272 459.815ZM218.301 436.057C215.457 436.057 212.784 437.199 210.772 439.272C208.76 441.344 207.652 444.099 207.652 447.029C207.652 453.078 212.429 457.999 218.301 457.999H616.272C619.116 457.999 621.79 456.857 623.799 454.784C625.811 452.714 626.919 449.961 626.919 447.029C626.919 440.978 622.143 436.057 616.274 436.057H218.301Z" fill="#2F2E41"/>
<path d="M377.664 184.546V252.769L409.428 268.376L438.506 250.504L432.642 184.546H377.664Z" fill="white"/>
<path d="M409.429 269.287C409.298 269.287 409.169 269.257 409.049 269.199L377.283 253.59C376.975 253.44 376.78 253.12 376.78 252.771V184.546C376.78 184.043 377.175 183.637 377.663 183.637H432.642C433.099 183.637 433.479 183.994 433.521 184.462L439.385 250.421C439.416 250.769 439.25 251.105 438.96 251.285L409.882 269.158C409.742 269.244 409.587 269.287 409.429 269.287ZM378.545 252.196L409.381 267.347L437.577 250.016L431.837 185.455H378.545V252.196Z" fill="#2F2E41"/>
<path d="M372.105 196.872C372.105 196.872 351.763 166.096 372.105 143.062C385.94 127.397 410.224 130.225 424.345 133.638C435.736 136.391 443.971 146.614 444.482 158.656C444.818 166.623 443.282 176.181 439.73 187.243L372.105 196.872Z" fill="#2F2E41"/>
<path d="M405.215 238.785C425.332 238.785 441.64 217.568 441.64 191.394C441.64 165.221 425.332 144.003 405.215 144.003C385.098 144.003 368.79 165.221 368.79 191.394C368.79 217.568 385.098 238.785 405.215 238.785Z" fill="white"/>
<path d="M405.214 239.694C384.644 239.694 367.907 218.026 367.907 191.394C367.907 178.604 368.322 166.381 373.34 157.43C378.823 147.649 388.949 143.096 405.214 143.096C421.48 143.096 431.606 147.651 437.089 157.43C442.106 166.383 442.521 178.604 442.521 191.394C442.521 218.026 425.785 239.694 405.214 239.694ZM405.214 144.912C372.221 144.912 369.672 164.178 369.672 191.394C369.672 217.025 385.615 237.876 405.214 237.876C424.814 237.876 440.757 217.025 440.757 191.394C440.757 164.178 438.208 144.912 405.214 144.912Z" fill="#2F2E41"/>
<path d="M395.706 182.625C395.706 184.026 394.603 185.164 393.242 185.164C391.88 185.164 390.777 184.028 390.777 182.625C390.777 181.222 391.88 180.086 393.242 180.086C394.603 180.086 395.706 181.222 395.706 182.625Z" fill="#2F2E41"/>
<path d="M414.89 182.625C414.89 184.026 413.788 185.164 412.426 185.164C411.064 185.164 409.962 184.028 409.962 182.625C409.962 181.222 411.064 180.086 412.426 180.086C413.788 180.086 414.89 181.222 414.89 182.625Z" fill="#2F2E41"/>
<path d="M402.341 213.263C396.414 213.263 393.726 211.486 393.562 211.372C393.157 211.094 393.047 210.53 393.317 210.113C393.587 209.696 394.131 209.582 394.535 209.858C394.61 209.907 400.178 213.451 413.304 209.741C413.775 209.608 414.259 209.892 414.388 210.378C414.517 210.861 414.24 211.362 413.771 211.494C409.09 212.818 405.308 213.263 402.341 213.263Z" fill="#2F2E41"/>
<path d="M387.274 180.993C387.145 180.993 387.015 180.965 386.89 180.901C386.454 180.683 386.269 180.146 386.479 179.695C386.564 179.513 388.619 175.235 394.494 176.168C394.976 176.245 395.306 176.709 395.231 177.205C395.157 177.701 394.708 178.046 394.224 177.965C389.684 177.244 388.129 180.354 388.065 180.486C387.911 180.807 387.596 180.993 387.272 180.993H387.274Z" fill="#2F2E41"/>
<path d="M418.441 180.493C418.19 180.493 417.941 180.384 417.767 180.172C414.634 176.358 411.491 177.229 411.358 177.267C410.893 177.404 410.403 177.131 410.266 176.652C410.129 176.172 410.389 175.672 410.851 175.526C411.028 175.471 415.199 174.233 419.112 178.998C419.427 179.381 419.38 179.954 419.008 180.279C418.842 180.424 418.64 180.495 418.439 180.495L418.441 180.493Z" fill="#2F2E41"/>
<path d="M377.665 239.489L363.81 252.271C362.11 253.838 361.605 256.366 362.564 258.499L378.097 293.032C379.11 295.284 381.979 295.831 383.708 294.103L409.431 268.376L377.665 252.767V239.487V239.489Z" fill="white"/>
<path d="M437.442 238.527L454.598 252.27C456.298 253.838 456.803 256.366 455.844 258.499L440.311 293.032C439.298 295.284 436.429 295.831 434.7 294.103L408.977 268.376L438.507 250.502L437.442 238.527Z" fill="white"/>
<path d="M381.29 296.032C381.018 296.032 380.746 296.007 380.472 295.955C379.058 295.686 377.9 294.76 377.296 293.414L361.763 258.881C360.634 256.371 361.219 253.44 363.221 251.595L377.076 238.813C377.335 238.574 377.707 238.514 378.024 238.661C378.342 238.807 378.547 239.132 378.547 239.491V252.198L409.811 267.559C410.071 267.687 410.256 267.937 410.301 268.232C410.349 268.525 410.254 268.825 410.046 269.032L384.323 294.76C383.49 295.592 382.417 296.037 381.292 296.037L381.29 296.032ZM376.781 241.523L364.396 252.948C362.976 254.257 362.56 256.334 363.362 258.118L378.894 292.651C379.255 293.453 379.947 294.007 380.792 294.167C381.637 294.328 382.475 294.067 383.092 293.451L407.906 268.634L377.285 253.588C376.978 253.438 376.783 253.117 376.783 252.769V241.523H376.781Z" fill="#2F2E41"/>
<path d="M437.116 296.032C435.991 296.032 434.917 295.587 434.085 294.755L408.362 269.028C408.164 268.831 408.067 268.549 408.1 268.267C408.133 267.986 408.291 267.736 408.53 267.593L437.577 250.01L436.564 238.608C436.53 238.246 436.711 237.902 437.018 237.727C437.326 237.553 437.705 237.586 437.984 237.806L455.139 251.55C457.188 253.436 457.774 256.364 456.644 258.877L441.112 293.41C440.508 294.755 439.35 295.682 437.936 295.951C437.662 296.002 437.388 296.028 437.118 296.028L437.116 296.032ZM410.423 268.555L435.314 293.451C435.93 294.067 436.769 294.328 437.614 294.167C438.459 294.007 439.15 293.453 439.512 292.651L455.044 258.118C455.841 256.345 455.434 254.281 454.031 252.97L438.507 240.533L439.387 250.423C439.418 250.773 439.25 251.111 438.955 251.289L410.423 268.56V268.555Z" fill="#2F2E41"/>
<path d="M336.38 356.169C333.414 360.412 329.32 365.881 323.812 372.554C321.425 375.448 317.352 376.115 314.199 374.15C293.14 361.009 269.362 336.971 260.394 327.552C258.096 325.139 257.573 321.458 259.14 318.488C266.869 303.815 281.162 288.852 292.326 278.462C301.768 269.672 313.439 263.831 325.971 261.557L335.608 259.808L329.037 261.078L336.38 356.171V356.169Z" fill="#673DE6"/>
<path d="M404.26 201.31C402.528 201.31 400.741 200.769 399.163 199.286C397.98 198.174 397.65 196.412 398.345 194.902C401.004 189.112 400.651 182.225 400.649 182.157C400.62 181.656 400.992 181.226 401.478 181.196C401.97 181.169 402.381 181.549 402.41 182.05C402.426 182.349 402.796 189.461 399.939 195.678C399.58 196.463 399.744 197.372 400.353 197.941C404.355 201.701 409.736 197.563 409.962 197.383C410.35 197.079 410.903 197.156 411.197 197.554C411.492 197.952 411.42 198.521 411.033 198.827C409.609 199.949 407.004 201.308 404.26 201.308V201.31Z" fill="#2F2E41"/>
<path d="M386.056 141.432C386.535 141.267 407.996 180.206 440.506 166.841L435.38 144.236L386.056 141.43V141.432Z" fill="#2F2E41"/>
<path d="M364.544 188.838C364.115 188.838 363.739 188.515 363.672 188.064C363.216 184.937 362.985 181.724 362.985 178.516C362.985 149.63 381.603 126.129 404.486 126.129C427.369 126.129 445.986 149.63 445.986 178.516C445.986 179.676 445.957 180.843 445.897 181.988C445.87 182.488 445.459 182.879 444.969 182.847C444.483 182.82 444.11 182.392 444.137 181.891C444.195 180.779 444.224 179.643 444.224 178.516C444.224 150.633 426.398 127.947 404.486 127.947C382.574 127.947 364.75 150.633 364.75 178.516C364.75 181.633 364.974 184.755 365.416 187.794C365.489 188.291 365.157 188.755 364.675 188.827C364.632 188.834 364.586 188.838 364.542 188.838H364.544Z" fill="#DEE8E9"/>
<path d="M363.523 185.115H358.648V197.404H363.523V185.115Z" fill="#2F2E41"/>
<path d="M364.898 179.49H363.968C362.143 179.49 360.663 181.014 360.663 182.894V199.624C360.663 201.505 362.143 203.029 363.968 203.029H364.898C366.723 203.029 368.203 201.505 368.203 199.624V182.894C368.203 181.014 366.723 179.49 364.898 179.49Z" fill="white"/>
<path d="M364.899 203.938H363.967C361.658 203.938 359.779 202.003 359.779 199.624V182.895C359.779 180.516 361.658 178.581 363.967 178.581H364.899C367.207 178.581 369.086 180.516 369.086 182.895V199.624C369.086 202.003 367.207 203.938 364.899 203.938ZM363.967 180.399C362.632 180.399 361.544 181.517 361.544 182.895V199.624C361.544 200.999 362.63 202.12 363.967 202.12H364.899C366.236 202.12 367.321 200.999 367.321 199.624V182.895C367.321 181.517 366.236 180.399 364.899 180.399H363.967Z" fill="#2F2E41"/>
<path d="M445.086 198.923C444.978 199.429 444.858 199.804 444.721 200.221C444.588 200.629 444.424 201.014 444.274 201.412L443.757 202.558C443.581 202.937 443.375 203.296 443.184 203.668L442.89 204.22L442.568 204.751L441.92 205.812C441.449 206.485 440.986 207.17 440.494 207.828C439.979 208.466 439.475 209.116 438.947 209.743L437.295 211.554C436.726 212.14 436.13 212.69 435.547 213.261C434.972 213.845 434.345 214.354 433.728 214.882L432.801 215.671L432.336 216.067C432.178 216.193 432.014 216.311 431.854 216.435L429.913 217.894C429.276 218.398 428.593 218.822 427.922 219.271L425.904 220.608C424.524 221.427 423.135 222.242 421.738 223.04L417.457 225.236C416.317 225.822 414.931 225.343 414.364 224.169C413.795 222.995 414.26 221.566 415.4 220.98C415.657 220.864 419.871 219.081 419.871 219.081C421.244 218.422 422.614 217.75 423.982 217.07L425.975 215.949C426.637 215.571 427.318 215.218 427.947 214.79L429.871 213.552C430.031 213.447 430.195 213.349 430.351 213.24L430.812 212.902L431.733 212.226C432.348 211.775 432.975 211.336 433.546 210.833C434.127 210.342 434.725 209.867 435.294 209.358L436.955 207.784C437.484 207.238 437.992 206.669 438.516 206.113C439.014 205.538 439.483 204.939 439.967 204.346L440.629 203.418L440.961 202.954L441.262 202.473C441.459 202.15 441.673 201.833 441.858 201.502L442.396 200.503C442.549 200.163 442.724 199.825 442.863 199.483L443.068 198.97L443.153 198.719C443.413 197.894 443.948 197.609 444.451 197.774C444.924 197.928 445.196 198.433 445.092 198.92L445.086 198.923Z" fill="#2F2E41"/>
<path d="M451.194 185.115H446.319V197.404H451.194V185.115Z" fill="#2F2E41"/>
<path d="M445.875 179.49H444.945C443.119 179.49 441.64 181.014 441.64 182.894V199.624C441.64 201.505 443.119 203.029 444.945 203.029H445.875C447.7 203.029 449.18 201.505 449.18 199.624V182.894C449.18 181.014 447.7 179.49 445.875 179.49Z" fill="white"/>
<path d="M445.874 203.938H444.942C442.634 203.938 440.757 202.003 440.757 199.624V182.895C440.757 180.516 442.636 178.581 444.942 178.581H445.874C448.183 178.581 450.061 180.516 450.061 182.895V199.624C450.061 202.003 448.183 203.938 445.874 203.938ZM444.942 180.399C443.607 180.399 442.519 181.517 442.519 182.895V199.624C442.519 200.999 443.605 202.12 444.942 202.12H445.874C447.209 202.12 448.297 200.999 448.297 199.624V182.895C448.297 181.517 447.211 180.399 445.874 180.399H444.942Z" fill="#2F2E41"/>
<path d="M332.886 360.408C332.428 360.408 332.04 360.042 332.006 359.563L331.259 348.454C331.226 347.953 331.591 347.519 332.077 347.485C332.561 347.453 332.984 347.827 333.017 348.328L333.765 359.437C333.798 359.937 333.43 360.371 332.945 360.406C332.924 360.406 332.903 360.406 332.882 360.406L332.886 360.408Z" fill="#2F2E41"/>
<path d="M487.221 360.628C486.733 360.628 486.339 360.222 486.339 359.719V338.935C486.339 338.432 486.733 338.026 487.221 338.026C487.709 338.026 488.103 338.432 488.103 338.935V359.719C488.103 360.222 487.709 360.628 487.221 360.628Z" fill="#2F2E41"/>
<path d="M525.17 309.853H340.129C335.806 309.853 332.301 313.464 332.301 317.919V427.671C332.301 432.125 335.806 435.736 340.129 435.736H525.17C529.494 435.736 532.998 432.125 532.998 427.671V317.919C532.998 313.464 529.494 309.853 525.17 309.853Z" fill="#2F2E41"/>
<path d="M459.289 381.852H406.014C405.526 381.852 405.132 381.445 405.132 380.943V368.403C405.132 367.9 405.526 367.494 406.014 367.494H459.289C459.777 367.494 460.172 367.9 460.172 368.403V380.943C460.172 381.445 459.777 381.852 459.289 381.852ZM406.896 380.034H458.407V369.312H406.896V380.034Z" fill="white"/>
<path d="M652.06 253.454C683.097 253.454 708.258 227.595 708.258 195.696C708.258 163.797 683.097 137.938 652.06 137.938C621.024 137.938 595.863 163.797 595.863 195.696C595.863 227.595 621.024 253.454 652.06 253.454Z" fill="#FC5185"/>
<path d="M683.599 227.782C700.769 210.092 700.769 181.412 683.599 163.723C666.43 146.033 638.592 146.033 621.422 163.723C604.253 181.412 604.253 210.092 621.422 227.782C638.592 245.471 666.43 245.471 683.599 227.782Z" fill="white"/>
<path d="M633.215 206.562H633.426L633.574 206.41L633.575 206.408L633.679 206.301L633.708 206.154L634.282 203.169L634.396 202.575H633.791V203.075L633.791 202.575H633.79H633.789L633.784 202.575L633.766 202.575L633.693 202.575L633.417 202.574C633.179 202.574 632.839 202.574 632.431 202.573C631.614 202.571 630.526 202.567 629.438 202.56C628.35 202.552 627.263 202.541 626.45 202.524C626.411 202.524 626.372 202.523 626.334 202.522L629.764 199.523L629.765 199.521C631.636 197.873 632.985 196.562 633.796 195.596L633.797 195.595C634.604 194.626 635.209 193.668 635.598 192.712L635.598 192.712C635.988 191.754 636.18 190.72 636.18 189.624C636.18 187.985 635.636 186.632 634.515 185.63C633.401 184.631 631.928 184.162 630.148 184.162C628.993 184.162 627.867 184.372 626.775 184.792L626.774 184.792C625.675 185.218 624.547 185.916 623.399 186.874L623.046 187.168L623.308 187.544L624.918 189.854L625.225 190.295L625.643 189.957C626.572 189.207 627.326 188.714 627.913 188.45C628.5 188.19 629.081 188.062 629.655 188.062C630.4 188.062 630.907 188.269 631.251 188.625L631.252 188.626C631.603 188.986 631.805 189.5 631.805 190.219C631.805 190.825 631.687 191.388 631.455 191.91L631.454 191.913C631.219 192.448 630.828 193.048 630.263 193.718C629.7 194.385 628.607 195.48 626.964 197.009C626.964 197.009 626.964 197.009 626.963 197.01L620.368 203.098L620.248 203.209L620.216 203.37L619.711 205.966L619.596 206.562H620.202H633.215Z" fill="#FC5185" stroke="#FC5185"/>
<path d="M650.54 201.862H650.945L651.029 201.466L651.633 198.622L651.761 198.019H651.144H648.94L651.633 184.882L651.757 184.282H651.144H647.586H647.349L647.199 184.465L635.951 198.202L635.87 198.302L635.846 198.429L635.327 201.272L635.22 201.862H635.819H643.914L643.075 205.831L642.947 206.435H643.564H646.772H647.179L647.262 206.037L648.132 201.862H650.54ZM645.57 193.953L645.57 193.957L644.702 198.019H640.602L645.844 191.62C645.844 191.62 645.844 191.62 645.844 191.62C645.993 191.437 646.137 191.257 646.276 191.079C645.979 192.213 645.744 193.171 645.57 193.953Z" fill="#FC5185" stroke="#FC5185"/>
<path d="M668.896 185.202L669.293 184.465H668.456H665.191H664.892L664.75 184.728L653.391 205.825L652.994 206.562H653.831H657.096H657.395L657.536 206.299L668.896 185.202Z" fill="#FC5185" stroke="#FC5185"/>
<path d="M670.549 205.81L670.481 205.926V206.061V206.063V206.563H670.981H674.679H674.97L675.114 206.31L685.73 187.636L685.771 187.564L685.787 187.483L686.249 185.06L686.362 184.467H685.758H672.703H672.295L672.214 184.867L671.61 187.822L671.488 188.422H672.1H680.673L670.549 205.81Z" fill="#FC5185" stroke="#FC5185"/>
</g>
<defs>
<clipPath id="clip0_428_1677">
<rect width="729.88" height="460" fill="white"/>
</clipPath>
</defs>
</svg>
