<svg xmlns="http://www.w3.org/2000/svg" xmlns:xlink="http://www.w3.org/1999/xlink" width="32" height="32" viewBox="0 0 32 32">
  <defs>
    <clipPath id="clip-path">
      <rect id="Rectangle_513" data-name="Rectangle 513" width="32" height="32" transform="translate(30.151 425)" fill="#fff" stroke="#707070" stroke-width="1"/>
    </clipPath>
    <linearGradient id="linear-gradient" x1="0.5" y1="-0.087" x2="0.5" y2="-1.087" gradientUnits="objectBoundingBox">
      <stop offset="0" stop-color="#35b8f1"/>
      <stop offset="1" stop-color="#28a8ea"/>
    </linearGradient>
  </defs>
  <g id="Mask_Group_42" data-name="Mask Group 42" transform="translate(-30.151 -425)" clip-path="url(#clip-path)">
    <g id="outlook" transform="translate(27.824 422.381)">
      <path id="Path_2218" data-name="Path 2218" d="M34.306,19.222a.692.692,0,0,0-.335-.6l0,0-.013-.008-10.9-6.386a1.49,1.49,0,0,0-.146-.086,1.471,1.471,0,0,0-1.341,0,1.486,1.486,0,0,0-.146.086l-10.9,6.386-.013.008,0,0a.7.7,0,0,0,.017,1.2l10.9,6.385a1.5,1.5,0,0,0,.145.086h0a1.471,1.471,0,0,0,1.341,0,1.5,1.5,0,0,0,.147-.086l10.9-6.386a.692.692,0,0,0,.352-.607Z" fill="#123b6d"/>
      <path id="Path_2219" data-name="Path 2219" d="M11.378,15h7.24v6.637h-7.24Z" fill="#0364b8"/>
      <path id="Path_2220" data-name="Path 2220" d="M33.164,8.727V6.012a1.37,1.37,0,0,0-1.382-1.357H12.436a1.37,1.37,0,0,0-1.382,1.357V8.727Z" fill="#0358a7"/>
      <path id="Path_2221" data-name="Path 2221" d="M11.055,8.145h7.564v6.982H11.055Z" fill="#0078d4"/>
      <path id="Path_2222" data-name="Path 2222" d="M18.618,8.145h7.564l6.982,6.982v6.982H26.182l-7.564-6.982Z" fill="#28a8ea"/>
      <path id="Path_2223" data-name="Path 2223" d="M26.182,8.145h6.982v6.982H26.182Z" fill="#50d9ff"/>
      <path id="Path_2224" data-name="Path 2224" d="M18.618,15.127h7.564v6.982H18.618Z" fill="#0078d4"/>
      <path id="Path_2225" data-name="Path 2225" d="M18.618,22.109h7.564v6.982H18.618Z" fill="#0364b8"/>
      <path id="Path_2226" data-name="Path 2226" d="M11.378,21.635h7.24v6.033h-7.24Z" fill="#14447d"/>
      <path id="Path_2227" data-name="Path 2227" d="M26.182,22.109h6.982v6.4H26.182Z" fill="#0078d4"/>
      <path id="Path_2228" data-name="Path 2228" d="M33.987,19.751h0l-.013.008,0,0-11.036,5.9a1.58,1.58,0,0,1-.826.229c-.013,0-.026,0-.039,0l-.619-.34a1.518,1.518,0,0,1-.148-.081L10.248,19.4l0,0-.006,0L9.891,19.2V31.148a1.483,1.483,0,0,0,1.527,1.434H32.841a1.561,1.561,0,0,0,.9-.285l-.023-.013a1.4,1.4,0,0,0,.605-1.136V19.2a.63.63,0,0,1-.34.551Z" fill="url(#linear-gradient)"/>
      <path id="Path_2229" data-name="Path 2229" d="M33.988,19.752l-.014.008,0,0-11.036,5.9a1.553,1.553,0,0,1-.148.079,1.617,1.617,0,0,1-1.358,0,1.553,1.553,0,0,1-.148-.079l-11.034-5.9,0,0-.013-.008a.631.631,0,0,1-.34-.552V31.148a1.482,1.482,0,0,0,1.527,1.434H32.8a1.482,1.482,0,0,0,1.527-1.434V19.2a.631.631,0,0,1-.339.552Z" fill="#1490df"/>
      <path id="Path_2230" data-name="Path 2230" d="M11.421,32.582h21.42a1.562,1.562,0,0,0,.9-.285l-12.294-6.75a1.544,1.544,0,0,1-.148-.081L10.248,19.4l0,0-.006,0L9.891,19.2V31.107a1.5,1.5,0,0,0,1.53,1.474Z" fill="#28a8ea"/>
      <path id="Path_2231" data-name="Path 2231" d="M33.164,19.532v.657L22.935,25.664c-.047.029-.1.052-.145.076a1.558,1.558,0,0,1-.681.151h-.035l-.623-.343c-.052-.023-.1-.052-.151-.081L11.055,19.84v-.663l10.531,5.777c.052.035.087.052.116.07l.512.279a.968.968,0,0,0,.326-.087c.029-.017,8.407-4.5,10.624-5.684Z" fill="#0a2767" opacity="0.5"/>
      <path id="Path_2232" data-name="Path 2232" d="M19.2,11.828V27.153a1.01,1.01,0,0,1-.023.233,1.346,1.346,0,0,1-1.332,1.123H9.891V19.2l.3.163a.588.588,0,0,1-.017-.14.694.694,0,0,1,.337-.6c.006-.006.012-.006.017-.012l.855-.5V15.127h-.326V10.473h6.79A1.353,1.353,0,0,1,19.2,11.824Z" opacity="0.2"/>
      <path id="Path_2233" data-name="Path 2233" d="M19.782,11.828V25.99a1.956,1.956,0,0,1-1.937,1.937H9.891V19.2l.3.163a.588.588,0,0,1-.017-.14.694.694,0,0,1,.337-.6c.006-.006.012-.006.017-.012l.855-.5V15.127h-.326V9.891h6.79a1.944,1.944,0,0,1,1.937,1.937Z" opacity="0.1"/>
      <path id="Path_2234" data-name="Path 2234" d="M19.2,11.828V25.99a1.353,1.353,0,0,1-1.351,1.356H9.891V19.2l.3.163a.588.588,0,0,1-.017-.14.694.694,0,0,1,.337-.6c.006-.006.012-.006.017-.012l.855-.5V15.127h-.326V10.473h6.79A1.353,1.353,0,0,1,19.2,11.824Z" opacity="0.2"/>
      <path id="Path_2235" data-name="Path 2235" d="M18.618,11.828V25.99a1.353,1.353,0,0,1-1.351,1.356H9.891V19.2l.3.163a.588.588,0,0,1-.017-.14.694.694,0,0,1,.337-.6c.006-.006.012-.006.017-.012l.855-.5V15.127h-.326V10.473h6.208a1.353,1.353,0,0,1,1.356,1.351Z" opacity="0.1"/>
      <rect id="Rectangle_514" data-name="Rectangle 514" width="16.291" height="16.291" rx="1.357" transform="translate(2.327 10.473)" fill="#0f78d4"/>
      <path id="Path_2236" data-name="Path 2236" d="M6.825,16.432a3.69,3.69,0,0,1,1.449-1.6,4.381,4.381,0,0,1,2.3-.577,4.074,4.074,0,0,1,2.13.547,3.653,3.653,0,0,1,1.41,1.53,4.939,4.939,0,0,1,.494,2.249,5.207,5.207,0,0,1-.509,2.353,3.741,3.741,0,0,1-1.452,1.583,4.235,4.235,0,0,1-2.211.563,4.173,4.173,0,0,1-2.177-.553,3.71,3.71,0,0,1-1.428-1.533,4.817,4.817,0,0,1-.5-2.223,5.343,5.343,0,0,1,.491-2.338ZM8.369,20.19a2.4,2.4,0,0,0,.815,1.053,2.128,2.128,0,0,0,1.274.384,2.235,2.235,0,0,0,1.359-.4,2.3,2.3,0,0,0,.791-1.056,4.082,4.082,0,0,0,.253-1.47,4.467,4.467,0,0,0-.238-1.488,2.355,2.355,0,0,0-.765-1.095,2.106,2.106,0,0,0-1.348-.417,2.2,2.2,0,0,0-1.3.387,2.419,2.419,0,0,0-.833,1.062,4.214,4.214,0,0,0-.006,3.034Z" fill="#fff"/>
      <path id="Path_2237" data-name="Path 2237" d="M23.515,25.353l-.579.31a1.583,1.583,0,0,1-.827.229h-.032l11.648,6.4a1.418,1.418,0,0,0,.588-1Z" opacity="0.05"/>
      <path id="Path_2238" data-name="Path 2238" d="M33.727,32.287a1.477,1.477,0,0,0,.406-.44L22.9,25.681q-.056.032-.115.06a1.6,1.6,0,0,1-.679.15h-.032Z" opacity="0.05"/>
    </g>
  </g>
</svg>
