<svg xmlns="http://www.w3.org/2000/svg" xmlns:xlink="http://www.w3.org/1999/xlink" width="32" height="32" viewBox="0 0 32 32">
  <defs>
    <clipPath id="clip-path">
      <rect id="Rectangle_520" data-name="Rectangle 520" width="32" height="32" transform="translate(270.151 423)" fill="#fff" stroke="#707070" stroke-width="1"/>
    </clipPath>
  </defs>
  <g id="Mask_Group_45" data-name="Mask Group 45" transform="translate(-270.151 -423)" clip-path="url(#clip-path)">
    <g id="powerpoint" transform="translate(267.824 420.382)">
      <path id="Path_2259" data-name="Path 2259" d="M34.327,18.473v.291A13.861,13.861,0,0,1,20.509,32.582h-.291a13.76,13.76,0,0,1-9.769-4.073c-.186-.186-.372-.384-.547-.582s-.332-.384-.489-.582A13.708,13.708,0,0,1,6.4,18.764v-.291a13.673,13.673,0,0,1,2.577-8,6.885,6.885,0,0,1,.436-.582,13.791,13.791,0,0,1,10.8-5.236h.291A13.861,13.861,0,0,1,34.327,18.473Z" fill="#d35230"/>
      <path id="Path_2260" data-name="Path 2260" d="M34.327,18.618v-.133A13.872,13.872,0,0,0,20.5,4.655h-.133V18.618Z" fill="#ff8f6b"/>
      <path id="Path_2261" data-name="Path 2261" d="M6.4,18.486v.133H20.364V4.655h-.132A13.872,13.872,0,0,0,6.4,18.486Z" fill="#ed6c47"/>
      <path id="Path_2262" data-name="Path 2262" d="M19.2,11.828V27.153a1.009,1.009,0,0,1-.023.233,1.346,1.346,0,0,1-1.332,1.123H10.449c-.186-.186-.372-.384-.547-.582s-.332-.384-.489-.582A13.708,13.708,0,0,1,6.4,18.764v-.291a13.673,13.673,0,0,1,2.577-8h8.867A1.353,1.353,0,0,1,19.2,11.828Z" opacity="0.2"/>
      <path id="Path_2263" data-name="Path 2263" d="M19.782,11.828V25.99a1.956,1.956,0,0,1-1.937,1.937H9.9c-.169-.186-.332-.384-.489-.582A13.708,13.708,0,0,1,6.4,18.764v-.291a13.673,13.673,0,0,1,2.577-8,6.885,6.885,0,0,1,.436-.582h8.431a1.944,1.944,0,0,1,1.937,1.937Z" opacity="0.1"/>
      <path id="Path_2264" data-name="Path 2264" d="M19.2,11.828V25.99a1.353,1.353,0,0,1-1.356,1.356H9.414A13.708,13.708,0,0,1,6.4,18.764v-.291a13.673,13.673,0,0,1,2.577-8h8.867A1.353,1.353,0,0,1,19.2,11.828Z" opacity="0.2"/>
      <path id="Path_2265" data-name="Path 2265" d="M18.618,11.828V25.99a1.353,1.353,0,0,1-1.356,1.356H9.414A13.708,13.708,0,0,1,6.4,18.764v-.291a13.673,13.673,0,0,1,2.577-8h8.285a1.353,1.353,0,0,1,1.356,1.356Z" opacity="0.1"/>
      <rect id="Rectangle_522" data-name="Rectangle 522" width="16.291" height="16.291" rx="1.358" transform="translate(2.327 10.473)" fill="#c43e1c"/>
      <path id="Path_2266" data-name="Path 2266" d="M10.742,14.055a3.586,3.586,0,0,1,2.416.726,2.629,2.629,0,0,1,.838,2.1,2.985,2.985,0,0,1-.414,1.571,2.8,2.8,0,0,1-1.179,1.07,3.914,3.914,0,0,1-1.771.382H8.955v3.2H7.236V14.055ZM8.955,18.523h1.48a1.888,1.888,0,0,0,1.308-.4,1.5,1.5,0,0,0,.442-1.171q0-1.5-1.695-1.5H8.955Z" fill="#fff"/>
    </g>
  </g>
</svg>
