<svg xmlns="http://www.w3.org/2000/svg" xmlns:xlink="http://www.w3.org/1999/xlink" width="455" height="455" viewBox="0 0 455 455">
  <defs>
    <clipPath id="clip-path">
      <rect id="Rectangle_35" data-name="Rectangle 35" width="455" height="455" transform="translate(176 157)" fill="#fff" stroke="#707070" stroke-width="1"/>
    </clipPath>
  </defs>
  <g id="Mask_Group_10" data-name="Mask Group 10" transform="translate(-176 -157)" clip-path="url(#clip-path)">
    <g id="undraw_secure_login_pdn4" transform="translate(176 226.216)">
      <ellipse id="Ellipse_13" data-name="Ellipse 13" cx="90.656" cy="6.886" rx="90.656" ry="6.886" transform="translate(0 302.797)" fill="#e6e6e6"/>
      <path id="Path_149" data-name="Path 149" d="M350.3,277.752c15.772-6.711,35.427-2.459,54.617.493.178-3.574,2.343-7.923.076-10.416-2.755-3.025-2.5-6.212-.844-9.412,4.239-8.185-1.836-16.894-7.966-24.135a13.581,13.581,0,0,0-11.335-4.753l-11.359.811a13.6,13.6,0,0,0-12.08,9.722h0c-2.713,3.689-4.164,7.367-3.251,11.027-4.063,2.776-4.746,6.127-2.917,9.906a5.694,5.694,0,0,1-.07,6.946,32.068,32.068,0,0,0-4.768,9.471Z" transform="translate(-281.006 -207.512)" fill="#2f2e41"/>
      <path id="Path_150" data-name="Path 150" d="M762.819,684.872H441.269a10.782,10.782,0,0,1-10.782-10.785h0q174.843-20.32,343.115,0h0A10.782,10.782,0,0,1,762.819,684.872Z" transform="translate(-318.601 -411.206)" fill="#2f2e41"/>
      <path id="Path_151" data-name="Path 151" d="M773.6,482.143l-343.115-.634L470.252,414.6l.19-.318V266.818a13.629,13.629,0,0,1,13.625-13.629H718.112a13.629,13.629,0,0,1,13.63,13.632V415.3Z" transform="translate(-318.601 -218.625)" fill="#3f3d56"/>
      <path id="Path_152" data-name="Path 152" d="M526.87,271.1a4.444,4.444,0,0,0-4.44,4.44V409.995a4.444,4.444,0,0,0,4.44,4.44H763.436a4.445,4.445,0,0,0,4.44-4.44V275.539a4.444,4.444,0,0,0-4.44-4.44Z" transform="translate(-361.711 -227.021)" fill="#fff"/>
      <path id="Path_153" data-name="Path 153" d="M520.16,574.4a1.908,1.908,0,0,0-1.728,1.107l-12.254,26.636a1.9,1.9,0,0,0,1.728,2.7H765.586a1.9,1.9,0,0,0,1.7-2.754l-13.319-26.637a1.893,1.893,0,0,0-1.7-1.052Z" transform="translate(-354.009 -369.227)" fill="#2f2e41"/>
      <circle id="Ellipse_14" data-name="Ellipse 14" cx="2.854" cy="2.854" r="2.854" transform="translate(279.637 36.151)" fill="#fff"/>
      <path id="Path_154" data-name="Path 154" d="M699.618,641.267a1.905,1.905,0,0,0-1.836,1.4l-3.073,11.416a1.9,1.9,0,0,0,1.836,2.4H755a1.9,1.9,0,0,0,1.8-2.526l-3.958-11.416a1.9,1.9,0,0,0-1.8-1.28Z" transform="translate(-442.454 -400.579)" fill="#2f2e41"/>
      <path id="Path_155" data-name="Path 155" d="M547.011,364.2v2.536H285.521l.2-.316V364.2Z" transform="translate(-133.87 -170.758)" fill="#2f2e41"/>
      <circle id="Ellipse_15" data-name="Ellipse 15" cx="44.396" cy="44.396" r="44.396" transform="translate(361.452 0)" fill="#07ca8d"/>
      <path id="Path_156" data-name="Path 156" d="M983.862,284.043H947.077a2.54,2.54,0,0,1-2.538-2.536v-22.2a2.54,2.54,0,0,1,2.536-2.536h36.785a2.54,2.54,0,0,1,2.536,2.536v22.2A2.54,2.54,0,0,1,983.862,284.043Zm-36.785-24.738v22.2h36.786v-22.2Z" transform="translate(-559.623 -220.303)" fill="#fff"/>
      <path id="Path_157" data-name="Path 157" d="M985.283,241.392H962.451V231.244c0-7.346,4.8-12.685,11.416-12.685s11.416,5.334,11.416,12.685Zm-20.295-2.536h17.759v-7.61c0-5.975-3.651-10.148-8.879-10.148s-8.879,4.173-8.879,10.148Z" transform="translate(-568.021 -202.388)" fill="#fff"/>
      <circle id="Ellipse_16" data-name="Ellipse 16" cx="2.536" cy="2.536" r="2.536" transform="translate(403.31 46.932)" fill="#fff"/>
      <path id="Path_158" data-name="Path 158" d="M761.216,409.088H578.389A3.39,3.39,0,0,1,575,405.7V360.35a3.39,3.39,0,0,1,3.386-3.386H761.216a3.39,3.39,0,0,1,3.386,3.386V405.7a3.39,3.39,0,0,1-3.385,3.386ZM578.39,358.315a2.034,2.034,0,0,0-2.031,2.031V405.7a2.033,2.033,0,0,0,2.031,2.031H761.216a2.034,2.034,0,0,0,2.031-2.031V360.35a2.034,2.034,0,0,0-2.031-2.031Z" transform="translate(-386.361 -267.281)" fill="#e6e6e6"/>
      <circle id="Ellipse_17" data-name="Ellipse 17" cx="13.792" cy="13.792" r="13.792" transform="translate(206.645 100.214)" fill="#e6e6e6"/>
      <path id="Path_159" data-name="Path 159" d="M692.8,385.439a2.3,2.3,0,1,0,0,4.6h108.36a2.3,2.3,0,1,0,0-4.6Z" transform="translate(-440.514 -280.634)" fill="#e6e6e6"/>
      <path id="Path_160" data-name="Path 160" d="M692.8,411.411a2.3,2.3,0,1,0,0,4.6H739.43a2.3,2.3,0,1,0,0-4.6Z" transform="translate(-440.514 -292.809)" fill="#e6e6e6"/>
      <path id="Path_161" data-name="Path 161" d="M474.3,395.767l-33.8,17.968-.432-14.974A100.091,100.091,0,0,0,471.3,388.5l3.535-8.733a5.92,5.92,0,0,1,10.062-1.536h0a5.92,5.92,0,0,1-.521,8.072Z" transform="translate(-323.096 -276.235)" fill="#a0616a"/>
      <path id="Path_162" data-name="Path 162" d="M348.826,588.477h0a6.64,6.64,0,0,1,.843-5.372l7.425-11.394a12.974,12.974,0,0,1,16.832-4.441h0c-3.12,5.312-2.686,9.971,1.08,14.02a67.5,67.5,0,0,0-16.032,10.927,6.64,6.64,0,0,1-10.147-3.74Z" transform="translate(-280.204 -365.205)" fill="#2f2e41"/>
      <path id="Path_163" data-name="Path 163" d="M452.422,536.371h0a12.74,12.74,0,0,1-10.828,6.185l-49.322.374-2.139-12.406,21.821-6.417-18.4-14.118,20.107-23.529L450.187,520.5a12.74,12.74,0,0,1,2.235,15.873Z" transform="translate(-299.681 -327.995)" fill="#2f2e41"/>
      <path id="Path_164" data-name="Path 164" d="M360.238,591.006h-11.55c-10.371-71.089-20.928-142.379,10.263-168.984l36.792,5.989-4.706,31.229L370.5,482.772Z" transform="translate(-275.347 -297.783)" fill="#2f2e41"/>
      <path id="Path_165" data-name="Path 165" d="M377.763,752.455h0a6.641,6.641,0,0,1-5.372-.843l-12.542-1.685a12.974,12.974,0,0,1-4.441-16.833h0c5.312,3.12,9.971,2.684,14.019-1.08,2.861,5.776,7.574,5.424,12.076,10.291a6.64,6.64,0,0,1-3.74,10.148Z" transform="translate(-282.719 -443.129)" fill="#2f2e41"/>
      <path id="Path_166" data-name="Path 166" d="M412.331,306.558l-21.389-5.133c3.553-7.272,3.845-15.364,2.139-23.957l14.546-.432C408.08,287.726,409.458,297.711,412.331,306.558Z" transform="translate(-300.059 -229.806)" fill="#a0616a"/>
      <path id="Path_167" data-name="Path 167" d="M406.926,389.531c-15.571,10.61-26.575.363-34.969-15.448,1.167-9.675-.723-21.253-4.221-33.833A23.03,23.03,0,0,1,381.8,312.479h0l18.4,7.7c15.62,12.732,18.7,26.524,12.835,41.07Z" transform="translate(-288.777 -246.423)" fill="#07ca8d"/>
      <path id="Path_168" data-name="Path 168" d="M324.028,337.269l-17.113,8.985,30.374,17.968,4.226,10.425a5.529,5.529,0,0,1-3.322,7.3h0a5.529,5.529,0,0,1-7.322-4.9l-.432-7.266-38.606-12.74a9.026,9.026,0,0,1-5.665-5.515h0a9.027,9.027,0,0,1,3.387-10.5l31.044-21.3Z" transform="translate(-250.689 -249.823)" fill="#a0616a"/>
      <path id="Path_169" data-name="Path 169" d="M369.741,334.991c-7.137-3.133-13.626.27-21.821,2.995l-1.283-22.674c8.133-4.335,15.889-5.509,23.1-2.139Z" transform="translate(-279.289 -245.835)" fill="#07ca8d"/>
      <circle id="Ellipse_18" data-name="Ellipse 18" cx="13.657" cy="13.657" r="13.657" transform="translate(85.332 31.151)" fill="#ffb8b8"/>
      <path id="Path_170" data-name="Path 170" d="M410.124,258.411c-13.522,1.324-23.825-.887-30.41-7.184v-5.071h29.262Z" transform="translate(-294.796 -215.326)" fill="#2f2e41"/>
    </g>
  </g>
</svg>
