<svg width="421" height="328" viewBox="0 0 421 328" fill="none" xmlns="http://www.w3.org/2000/svg">
<g clip-path="url(#clip0_411_2525)">
<path d="M112.995 289.985C176.117 350.827 299.792 322.35 363.018 289.985C426.244 257.621 379.664 179.953 396.388 113.93C410.584 57.8731 355.172 8.34307 301.728 10.5292C300.783 10.5657 299.833 10.6179 298.888 10.691C290.352 11.3379 281.909 13.3258 273.841 16.8424C214.395 42.7318 209.639 58.9792 154.222 56.9704C11.227 51.7947 49.8729 229.144 112.995 289.985Z" fill="#EAF4FE"/>
<path d="M105.34 291.183C174.874 352.167 311.111 323.623 380.76 291.183C450.408 258.742 399.097 180.892 417.52 114.714C433.158 58.525 372.117 8.87862 313.244 11.0699C312.203 11.1065 311.157 11.1588 310.116 11.232C300.713 11.8805 291.412 13.8731 282.524 17.398C217.039 43.3482 211.8 59.6337 150.754 57.6203C-6.76575 52.4323 35.8058 230.198 105.34 291.183Z" fill="#E5FBFF"/>
<path d="M157.363 33.0479C157.01 35.8132 158.781 38.4011 161.486 39.0272C172.384 41.5525 204.083 45.7108 230.6 17.5831C261.566 -15.2612 161.257 2.5462 157.363 33.0479Z" fill="#EAF4FE"/>
<path d="M373.481 325.746H77.834V328.005H373.481V325.746Z" fill="#D8DBFE"/>
<path d="M137.104 228.862H109.336V213.575H137.104V228.862ZM110.93 227.26H135.51V215.171H110.93V227.26Z" fill="#BBD6F6"/>
<path d="M118.085 242.548H90.3164V227.26H118.085V242.548ZM91.9104 240.946H116.491V228.857H91.9104V240.946Z" fill="#BBD6F6"/>
<path d="M205.574 97.4793H177.806V82.1919H205.574V97.4793ZM179.4 95.8775H203.98V83.7885H179.4V95.8775Z" fill="#BBD6F6"/>
<path d="M350.422 250.922H322.659V235.634H350.422V250.922ZM324.248 249.32H348.828V237.231H324.248V249.32Z" fill="#BBD6F6"/>
<path d="M254.37 266.251H226.607V250.963H254.37V266.251ZM228.196 264.649H252.776V252.56H228.196V264.649Z" fill="#BBD6F6"/>
<path d="M228.166 266.251H200.397V250.963H228.166V266.251ZM201.991 264.649H226.572V252.56H201.991V264.649Z" fill="#BBD6F6"/>
<path d="M241.281 279.936H213.513V264.649H241.281V279.936ZM215.107 278.335H239.687V266.245H215.107V278.335Z" fill="#BBD6F6"/>
<path d="M294.631 178.324H266.868V163.037H294.631V178.324ZM268.457 176.723H293.037V164.634H268.457V176.723Z" fill="#BBD6F6"/>
<path d="M313.651 192.01H285.888V176.723H313.651V192.01ZM287.477 190.408H312.057V178.319H287.477V190.408Z" fill="#BBD6F6"/>
<path d="M341.03 115.438H313.267V100.15H341.03V115.438ZM314.855 113.836H339.436V101.747H314.855V113.836Z" fill="#BBD6F6"/>
<path d="M314.829 115.438H287.066V100.15H314.829V115.438ZM288.655 113.836H313.235V101.747H288.655V113.836Z" fill="#BBD6F6"/>
<path d="M327.945 129.123H300.182V113.836H327.945V129.123ZM301.77 127.522H326.351V115.433H301.77V127.522Z" fill="#BBD6F6"/>
<path d="M243.961 302.267H126.881V312.379H243.961V302.267Z" fill="url(#paint0_linear_411_2525)"/>
<path d="M252.631 322.146C252.642 323.779 251.396 325.146 249.796 325.313H249.781C249.682 325.328 249.573 325.328 249.459 325.323L187.515 325.333H138.817L138.802 325.328H121.366C119.611 325.339 118.199 323.909 118.188 322.151V310.63C118.188 308.867 119.611 307.448 121.361 307.453H130.447L197.137 307.443L249.454 307.432C249.677 307.432 249.885 307.463 250.092 307.505C251.536 307.803 252.621 309.091 252.631 310.615V322.151V322.146Z" fill="#000A3D"/>
<path d="M243.961 281.819H126.881V291.795H243.961V281.819Z" fill="url(#paint1_linear_411_2525)"/>
<path d="M252.631 301.568C252.642 303.201 251.396 304.568 249.796 304.735H249.781C249.682 304.751 249.573 304.751 249.459 304.745L187.515 304.756H138.817L138.802 304.751H121.366C119.611 304.761 118.199 303.331 118.188 301.573V290.053C118.188 288.289 119.611 286.87 121.361 286.875H130.447L197.137 286.865L249.454 286.854C249.677 286.854 249.885 286.886 250.092 286.928C251.536 287.225 252.621 288.514 252.631 290.037V301.573V301.568Z" fill="#000A3D"/>
<path d="M243.961 261.372H126.881V271.212H243.961V261.372Z" fill="url(#paint2_linear_411_2525)"/>
<path d="M252.631 280.985C252.642 282.618 251.396 283.985 249.796 284.152H249.781C249.682 284.167 249.573 284.167 249.459 284.167L187.515 284.178H138.817L138.802 284.173H121.366C119.611 284.183 118.199 282.753 118.188 280.995V269.475C118.188 267.711 119.611 266.292 121.361 266.297H130.447L197.137 266.287L249.454 266.276C249.677 266.276 249.885 266.308 250.092 266.349C251.536 266.647 252.621 267.936 252.631 269.459V280.995V280.985Z" fill="#000A3D"/>
<path d="M243.961 237.168H126.881V250.634H243.961V237.168Z" fill="url(#paint3_linear_411_2525)"/>
<path d="M252.631 260.407C252.642 262.04 251.396 263.407 249.796 263.574H249.781C249.682 263.589 249.573 263.589 249.459 263.584L187.515 263.595H138.817L138.802 263.589H121.366C119.611 263.6 118.199 262.17 118.188 260.412V248.892C118.188 247.128 119.611 245.709 121.361 245.714H130.447L197.137 245.704L249.454 245.693C249.677 245.693 249.885 245.725 250.092 245.766C251.536 246.064 252.621 247.353 252.631 248.876V260.412V260.407Z" fill="#000A3D"/>
<path d="M243.961 219.105H126.881V230.057H243.961V219.105Z" fill="url(#paint4_linear_411_2525)"/>
<path d="M252.631 239.823C252.642 241.462 251.396 242.824 249.796 242.99H249.781C249.682 243.006 249.573 243.006 249.459 243.006L187.515 243.017H138.817L138.802 243.011H121.366C119.611 243.022 118.199 241.592 118.188 239.834V228.314C118.188 226.55 119.611 225.131 121.361 225.136H130.447L197.137 225.126L249.454 225.115C249.677 225.115 249.885 225.147 250.092 225.188C251.536 225.486 252.621 226.774 252.631 228.298V239.834V239.823Z" fill="#000A3D"/>
<path d="M252.631 219.246C252.642 220.879 251.396 222.246 249.796 222.413H249.781C249.682 222.428 249.573 222.428 249.459 222.423L187.515 222.434H138.817L138.802 222.428H121.366C119.611 222.439 118.199 221.009 118.188 219.251V207.731C118.188 205.967 119.611 204.548 121.361 204.553H130.447L197.137 204.543L249.454 204.532C249.677 204.532 249.885 204.564 250.092 204.605C251.536 204.903 252.621 206.191 252.631 207.715V219.251V219.246Z" fill="#000A3D"/>
<path d="M269.277 302.267H164.913V312.379H269.277V302.267Z" fill="#000A3D"/>
<path d="M277.954 322.146C277.964 323.779 276.718 325.146 275.119 325.313H275.103C275.005 325.328 274.895 325.328 274.781 325.323L225.554 325.333H176.855L176.84 325.328H159.404C157.649 325.339 156.237 323.909 156.227 322.151V310.63C156.227 308.867 157.649 307.448 159.399 307.453H168.485L235.17 307.443L274.771 307.432C274.994 307.432 275.202 307.463 275.41 307.505C276.853 307.803 277.938 309.091 277.949 310.615V322.151L277.954 322.146Z" fill="url(#paint5_linear_411_2525)"/>
<path d="M269.277 281.819H164.913V291.795H269.277V281.819Z" fill="#000A3D"/>
<path d="M277.954 301.568C277.964 303.201 276.718 304.568 275.119 304.735H275.103C275.005 304.751 274.895 304.751 274.781 304.745L225.554 304.756H176.855L176.84 304.751H159.404C157.649 304.761 156.237 303.331 156.227 301.573V290.053C156.227 288.289 157.649 286.87 159.399 286.875H168.485L235.17 286.865L274.771 286.854C274.994 286.854 275.202 286.886 275.41 286.928C276.853 287.225 277.938 288.514 277.949 290.037V301.573L277.954 301.568Z" fill="url(#paint6_linear_411_2525)"/>
<path d="M269.277 261.372H164.913V271.212H269.277V261.372Z" fill="#000A3D"/>
<path d="M277.954 280.985C277.964 282.618 276.718 283.985 275.119 284.152H275.103C275.005 284.167 274.895 284.167 274.781 284.167L225.554 284.178H176.855L176.84 284.173H159.404C157.649 284.183 156.237 282.753 156.227 280.995V269.475C156.227 267.711 157.649 266.292 159.399 266.297H168.485L235.17 266.287L274.771 266.276C274.994 266.276 275.202 266.308 275.41 266.349C276.853 266.647 277.938 267.936 277.949 269.459V280.995L277.954 280.985Z" fill="url(#paint7_linear_411_2525)"/>
<path d="M269.277 237.168H164.913V250.634H269.277V237.168Z" fill="#000A3D"/>
<path d="M277.954 260.407C277.964 262.04 276.718 263.407 275.119 263.574H275.103C275.005 263.589 274.895 263.589 274.781 263.584L225.554 263.595H176.855L176.84 263.589H159.404C157.649 263.6 156.237 262.17 156.227 260.412V248.892C156.227 247.128 157.649 245.709 159.399 245.714H168.485L235.17 245.704L274.771 245.693C274.994 245.693 275.202 245.725 275.41 245.766C276.853 246.064 277.938 247.353 277.949 248.876V260.412L277.954 260.407Z" fill="url(#paint8_linear_411_2525)"/>
<path d="M269.277 219.105H164.913V230.057H269.277V219.105Z" fill="#000A3D"/>
<path d="M277.954 239.823C277.964 241.462 276.718 242.824 275.119 242.99H275.103C275.005 243.006 274.895 243.006 274.781 243.006L225.554 243.017H176.855L176.84 243.011H159.404C157.649 243.022 156.237 241.592 156.227 239.834V228.314C156.227 226.55 157.649 225.131 159.399 225.136H168.485L235.17 225.126L274.771 225.115C274.994 225.115 275.202 225.147 275.41 225.188C276.853 225.486 277.938 226.774 277.949 228.298V239.834L277.954 239.823Z" fill="url(#paint9_linear_411_2525)"/>
<path d="M277.954 219.246C277.964 220.879 276.718 222.246 275.119 222.413H275.103C275.005 222.428 274.895 222.428 274.781 222.423L225.554 222.434H176.855L176.84 222.428H159.404C157.649 222.439 156.237 221.009 156.227 219.251V207.731C156.227 205.967 157.649 204.548 159.399 204.553H168.485L235.17 204.543L274.771 204.532C274.994 204.532 275.202 204.564 275.41 204.605C276.853 204.903 277.938 206.191 277.949 207.715V219.251L277.954 219.246Z" fill="url(#paint10_linear_411_2525)"/>
<path d="M127.026 209.724C127.758 209.724 128.355 210.324 128.355 211.059C128.355 211.795 127.758 212.395 127.026 212.395C126.293 212.395 125.696 211.795 125.696 211.059C125.696 210.324 126.293 209.724 127.026 209.724Z" fill="url(#paint11_linear_411_2525)"/>
<path d="M127.026 214.561C127.758 214.561 128.355 215.161 128.355 215.896C128.355 216.632 127.758 217.232 127.026 217.232C126.293 217.232 125.696 216.632 125.696 215.896C125.696 215.161 126.293 214.561 127.026 214.561Z" fill="url(#paint12_linear_411_2525)"/>
<path d="M133.101 209.724C133.833 209.724 134.43 210.324 134.43 211.059C134.43 211.795 133.833 212.395 133.101 212.395C132.369 212.395 131.771 211.795 131.771 211.059C131.771 210.324 132.369 209.724 133.101 209.724Z" fill="url(#paint13_linear_411_2525)"/>
<path d="M133.101 214.561C133.833 214.561 134.43 215.161 134.43 215.896C134.43 216.632 133.833 217.232 133.101 217.232C132.369 217.232 131.771 216.632 131.771 215.896C131.771 215.161 132.369 214.561 133.101 214.561Z" fill="url(#paint14_linear_411_2525)"/>
<path d="M139.181 209.724C139.913 209.724 140.51 210.324 140.51 211.059C140.51 211.795 139.913 212.395 139.181 212.395C138.449 212.395 137.852 211.795 137.852 211.059C137.852 210.324 138.449 209.724 139.181 209.724Z" fill="url(#paint15_linear_411_2525)"/>
<path d="M139.181 214.561C139.913 214.561 140.51 215.161 140.51 215.896C140.51 216.632 139.913 217.232 139.181 217.232C138.449 217.232 137.852 216.632 137.852 215.896C137.852 215.161 138.449 214.561 139.181 214.561Z" fill="url(#paint16_linear_411_2525)"/>
<path d="M145.255 209.724C145.987 209.724 146.584 210.324 146.584 211.059C146.584 211.795 145.987 212.395 145.255 212.395C144.523 212.395 143.926 211.795 143.926 211.059C143.926 210.324 144.523 209.724 145.255 209.724Z" fill="url(#paint17_linear_411_2525)"/>
<path d="M145.255 214.561C145.987 214.561 146.584 215.161 146.584 215.896C146.584 216.632 145.987 217.232 145.255 217.232C144.523 217.232 143.926 216.632 143.926 215.896C143.926 215.161 144.523 214.561 145.255 214.561Z" fill="url(#paint18_linear_411_2525)"/>
<path d="M127.026 230.307C127.758 230.307 128.355 230.907 128.355 231.642C128.355 232.378 127.758 232.978 127.026 232.978C126.293 232.978 125.696 232.378 125.696 231.642C125.696 230.907 126.293 230.307 127.026 230.307Z" fill="url(#paint19_linear_411_2525)"/>
<path d="M127.026 235.144C127.758 235.144 128.355 235.744 128.355 236.479C128.355 237.215 127.758 237.815 127.026 237.815C126.293 237.815 125.696 237.215 125.696 236.479C125.696 235.744 126.293 235.144 127.026 235.144Z" fill="url(#paint20_linear_411_2525)"/>
<path d="M133.101 230.307C133.833 230.307 134.43 230.907 134.43 231.642C134.43 232.378 133.833 232.978 133.101 232.978C132.369 232.978 131.771 232.378 131.771 231.642C131.771 230.907 132.369 230.307 133.101 230.307Z" fill="url(#paint21_linear_411_2525)"/>
<path d="M133.101 235.144C133.833 235.144 134.43 235.744 134.43 236.479C134.43 237.215 133.833 237.815 133.101 237.815C132.369 237.815 131.771 237.215 131.771 236.479C131.771 235.744 132.369 235.144 133.101 235.144Z" fill="url(#paint22_linear_411_2525)"/>
<path d="M139.181 230.307C139.913 230.307 140.51 230.907 140.51 231.642C140.51 232.378 139.913 232.978 139.181 232.978C138.449 232.978 137.852 232.378 137.852 231.642C137.852 230.907 138.449 230.307 139.181 230.307Z" fill="url(#paint23_linear_411_2525)"/>
<path d="M139.181 235.144C139.913 235.144 140.51 235.744 140.51 236.479C140.51 237.215 139.913 237.815 139.181 237.815C138.449 237.815 137.852 237.215 137.852 236.479C137.852 235.744 138.449 235.144 139.181 235.144Z" fill="url(#paint24_linear_411_2525)"/>
<path d="M145.255 230.307C145.987 230.307 146.584 230.907 146.584 231.642C146.584 232.378 145.987 232.978 145.255 232.978C144.523 232.978 143.926 232.378 143.926 231.642C143.926 230.907 144.523 230.307 145.255 230.307Z" fill="url(#paint25_linear_411_2525)"/>
<path d="M145.255 235.144C145.987 235.144 146.584 235.744 146.584 236.479C146.584 237.215 145.987 237.815 145.255 237.815C144.523 237.815 143.926 237.215 143.926 236.479C143.926 235.744 144.523 235.144 145.255 235.144Z" fill="url(#paint26_linear_411_2525)"/>
<path d="M127.026 250.885C127.758 250.885 128.355 251.485 128.355 252.22C128.355 252.956 127.758 253.556 127.026 253.556C126.293 253.556 125.696 252.956 125.696 252.22C125.696 251.485 126.293 250.885 127.026 250.885Z" fill="url(#paint27_linear_411_2525)"/>
<path d="M127.026 255.721C127.758 255.721 128.355 256.321 128.355 257.057C128.355 257.793 127.758 258.393 127.026 258.393C126.293 258.393 125.696 257.793 125.696 257.057C125.696 256.321 126.293 255.721 127.026 255.721Z" fill="url(#paint28_linear_411_2525)"/>
<path d="M133.101 250.885C133.833 250.885 134.43 251.485 134.43 252.22C134.43 252.956 133.833 253.556 133.101 253.556C132.369 253.556 131.771 252.956 131.771 252.22C131.771 251.485 132.369 250.885 133.101 250.885Z" fill="url(#paint29_linear_411_2525)"/>
<path d="M133.101 255.721C133.833 255.721 134.43 256.321 134.43 257.057C134.43 257.793 133.833 258.393 133.101 258.393C132.369 258.393 131.771 257.793 131.771 257.057C131.771 256.321 132.369 255.721 133.101 255.721Z" fill="url(#paint30_linear_411_2525)"/>
<path d="M139.181 250.885C139.913 250.885 140.51 251.485 140.51 252.22C140.51 252.956 139.913 253.556 139.181 253.556C138.449 253.556 137.852 252.956 137.852 252.22C137.852 251.485 138.449 250.885 139.181 250.885Z" fill="url(#paint31_linear_411_2525)"/>
<path d="M139.181 255.721C139.913 255.721 140.51 256.321 140.51 257.057C140.51 257.793 139.913 258.393 139.181 258.393C138.449 258.393 137.852 257.793 137.852 257.057C137.852 256.321 138.449 255.721 139.181 255.721Z" fill="url(#paint32_linear_411_2525)"/>
<path d="M145.255 250.885C145.987 250.885 146.584 251.485 146.584 252.22C146.584 252.956 145.987 253.556 145.255 253.556C144.523 253.556 143.926 252.956 143.926 252.22C143.926 251.485 144.523 250.885 145.255 250.885Z" fill="url(#paint33_linear_411_2525)"/>
<path d="M145.255 255.721C145.987 255.721 146.584 256.321 146.584 257.057C146.584 257.793 145.987 258.393 145.255 258.393C144.523 258.393 143.926 257.793 143.926 257.057C143.926 256.321 144.523 255.721 145.255 255.721Z" fill="url(#paint34_linear_411_2525)"/>
<path d="M127.026 271.468C127.758 271.468 128.355 272.068 128.355 272.803C128.355 273.539 127.758 274.139 127.026 274.139C126.293 274.139 125.696 273.539 125.696 272.803C125.696 272.068 126.293 271.468 127.026 271.468Z" fill="url(#paint35_linear_411_2525)"/>
<path d="M127.026 276.305C127.758 276.305 128.355 276.905 128.355 277.64C128.355 278.376 127.758 278.976 127.026 278.976C126.293 278.976 125.696 278.376 125.696 277.64C125.696 276.905 126.293 276.305 127.026 276.305Z" fill="url(#paint36_linear_411_2525)"/>
<path d="M133.101 271.468C133.833 271.468 134.43 272.068 134.43 272.803C134.43 273.539 133.833 274.139 133.101 274.139C132.369 274.139 131.771 273.539 131.771 272.803C131.771 272.068 132.369 271.468 133.101 271.468Z" fill="url(#paint37_linear_411_2525)"/>
<path d="M133.101 276.305C133.833 276.305 134.43 276.905 134.43 277.64C134.43 278.376 133.833 278.976 133.101 278.976C132.369 278.976 131.771 278.376 131.771 277.64C131.771 276.905 132.369 276.305 133.101 276.305Z" fill="url(#paint38_linear_411_2525)"/>
<path d="M139.181 271.468C139.913 271.468 140.51 272.068 140.51 272.803C140.51 273.539 139.913 274.139 139.181 274.139C138.449 274.139 137.852 273.539 137.852 272.803C137.852 272.068 138.449 271.468 139.181 271.468Z" fill="url(#paint39_linear_411_2525)"/>
<path d="M139.181 276.305C139.913 276.305 140.51 276.905 140.51 277.64C140.51 278.376 139.913 278.976 139.181 278.976C138.449 278.976 137.852 278.376 137.852 277.64C137.852 276.905 138.449 276.305 139.181 276.305Z" fill="url(#paint40_linear_411_2525)"/>
<path d="M145.255 271.468C145.987 271.468 146.584 272.068 146.584 272.803C146.584 273.539 145.987 274.139 145.255 274.139C144.523 274.139 143.926 273.539 143.926 272.803C143.926 272.068 144.523 271.468 145.255 271.468Z" fill="url(#paint41_linear_411_2525)"/>
<path d="M145.255 276.305C145.987 276.305 146.584 276.905 146.584 277.64C146.584 278.376 145.987 278.976 145.255 278.976C144.523 278.976 143.926 278.376 143.926 277.64C143.926 276.905 144.523 276.305 145.255 276.305Z" fill="url(#paint42_linear_411_2525)"/>
<path d="M127.026 292.046C127.758 292.046 128.355 292.646 128.355 293.382C128.355 294.117 127.758 294.717 127.026 294.717C126.293 294.717 125.696 294.117 125.696 293.382C125.696 292.646 126.293 292.046 127.026 292.046Z" fill="url(#paint43_linear_411_2525)"/>
<path d="M127.026 296.882C127.758 296.882 128.355 297.482 128.355 298.218C128.355 298.954 127.758 299.554 127.026 299.554C126.293 299.554 125.696 298.954 125.696 298.218C125.696 297.482 126.293 296.882 127.026 296.882Z" fill="url(#paint44_linear_411_2525)"/>
<path d="M133.101 292.046C133.833 292.046 134.43 292.646 134.43 293.382C134.43 294.117 133.833 294.717 133.101 294.717C132.369 294.717 131.771 294.117 131.771 293.382C131.771 292.646 132.369 292.046 133.101 292.046Z" fill="url(#paint45_linear_411_2525)"/>
<path d="M133.101 296.882C133.833 296.882 134.43 297.482 134.43 298.218C134.43 298.954 133.833 299.554 133.101 299.554C132.369 299.554 131.771 298.954 131.771 298.218C131.771 297.482 132.369 296.882 133.101 296.882Z" fill="url(#paint46_linear_411_2525)"/>
<path d="M139.181 292.046C139.913 292.046 140.51 292.646 140.51 293.382C140.51 294.117 139.913 294.717 139.181 294.717C138.449 294.717 137.852 294.117 137.852 293.382C137.852 292.646 138.449 292.046 139.181 292.046Z" fill="url(#paint47_linear_411_2525)"/>
<path d="M139.181 296.882C139.913 296.882 140.51 297.482 140.51 298.218C140.51 298.954 139.913 299.554 139.181 299.554C138.449 299.554 137.852 298.954 137.852 298.218C137.852 297.482 138.449 296.882 139.181 296.882Z" fill="url(#paint48_linear_411_2525)"/>
<path d="M145.255 292.046C145.987 292.046 146.584 292.646 146.584 293.382C146.584 294.117 145.987 294.717 145.255 294.717C144.523 294.717 143.926 294.117 143.926 293.382C143.926 292.646 144.523 292.046 145.255 292.046Z" fill="url(#paint49_linear_411_2525)"/>
<path d="M145.255 296.882C145.987 296.882 146.584 297.482 146.584 298.218C146.584 298.954 145.987 299.554 145.255 299.554C144.523 299.554 143.926 298.954 143.926 298.218C143.926 297.482 144.523 296.882 145.255 296.882Z" fill="url(#paint50_linear_411_2525)"/>
<path d="M127.026 312.629C127.758 312.629 128.355 313.229 128.355 313.965C128.355 314.7 127.758 315.3 127.026 315.3C126.293 315.3 125.696 314.7 125.696 313.965C125.696 313.229 126.293 312.629 127.026 312.629Z" fill="url(#paint51_linear_411_2525)"/>
<path d="M127.026 317.466C127.758 317.466 128.355 318.066 128.355 318.802C128.355 319.537 127.758 320.137 127.026 320.137C126.293 320.137 125.696 319.537 125.696 318.802C125.696 318.066 126.293 317.466 127.026 317.466Z" fill="url(#paint52_linear_411_2525)"/>
<path d="M133.101 312.629C133.833 312.629 134.43 313.229 134.43 313.965C134.43 314.7 133.833 315.3 133.101 315.3C132.369 315.3 131.771 314.7 131.771 313.965C131.771 313.229 132.369 312.629 133.101 312.629Z" fill="url(#paint53_linear_411_2525)"/>
<path d="M133.101 317.466C133.833 317.466 134.43 318.066 134.43 318.802C134.43 319.537 133.833 320.137 133.101 320.137C132.369 320.137 131.771 319.537 131.771 318.802C131.771 318.066 132.369 317.466 133.101 317.466Z" fill="url(#paint54_linear_411_2525)"/>
<path d="M139.181 312.629C139.913 312.629 140.51 313.229 140.51 313.965C140.51 314.7 139.913 315.3 139.181 315.3C138.449 315.3 137.852 314.7 137.852 313.965C137.852 313.229 138.449 312.629 139.181 312.629Z" fill="url(#paint55_linear_411_2525)"/>
<path d="M139.181 317.466C139.913 317.466 140.51 318.066 140.51 318.802C140.51 319.537 139.913 320.137 139.181 320.137C138.449 320.137 137.852 319.537 137.852 318.802C137.852 318.066 138.449 317.466 139.181 317.466Z" fill="url(#paint56_linear_411_2525)"/>
<path d="M145.255 312.629C145.987 312.629 146.584 313.229 146.584 313.965C146.584 314.7 145.987 315.3 145.255 315.3C144.523 315.3 143.926 314.7 143.926 313.965C143.926 313.229 144.523 312.629 145.255 312.629Z" fill="url(#paint57_linear_411_2525)"/>
<path d="M145.255 317.466C145.987 317.466 146.584 318.066 146.584 318.802C146.584 319.537 145.987 320.137 145.255 320.137C144.523 320.137 143.926 319.537 143.926 318.802C143.926 318.066 144.523 317.466 145.255 317.466Z" fill="url(#paint58_linear_411_2525)"/>
<path d="M133.391 258.336H139.18C139.881 258.336 140.453 257.762 140.453 257.057C140.453 256.353 139.881 255.779 139.18 255.779H133.391C133.199 255.779 133.043 255.622 133.043 255.429V238.102C133.043 237.909 133.199 237.752 133.391 237.752H139.18C139.881 237.752 140.453 237.178 140.453 236.474C140.453 235.77 139.881 235.196 139.18 235.196H133.391C131.797 235.196 130.499 236.5 130.499 238.102V255.429C130.499 257.031 131.797 258.336 133.391 258.336Z" fill="white"/>
<path d="M127.317 299.497H133.106C133.807 299.497 134.378 298.923 134.378 298.218C134.378 297.514 133.807 296.94 133.106 296.94H127.317C127.125 296.94 126.969 296.784 126.969 296.591V279.263C126.969 279.07 127.125 278.914 127.317 278.914H133.106C133.807 278.914 134.378 278.345 134.378 277.635C134.378 276.926 133.807 276.357 133.106 276.357H127.317C125.723 276.357 124.425 277.661 124.425 279.263V296.591C124.425 298.192 125.723 299.497 127.317 299.497Z" fill="white"/>
<path d="M170.896 214.915H236.334C237.196 214.915 237.897 215.619 237.897 216.486C237.897 217.352 237.196 218.056 236.334 218.056H170.896C170.034 218.056 169.333 217.352 169.333 216.486C169.333 215.619 170.034 214.915 170.896 214.915Z" fill="#000A3D"/>
<path d="M170.896 214.915H229.355C230.217 214.915 230.918 215.619 230.918 216.486C230.918 217.352 230.217 218.056 229.355 218.056H170.896C170.034 218.056 169.333 217.352 169.333 216.486C169.333 215.619 170.034 214.915 170.896 214.915Z" fill="white"/>
<path d="M170.896 208.899H236.334C237.196 208.899 237.897 209.604 237.897 210.47C237.897 211.336 237.196 212.04 236.334 212.04H170.896C170.034 212.04 169.333 211.336 169.333 210.47C169.333 209.604 170.034 208.899 170.896 208.899Z" fill="#000A3D"/>
<path d="M170.896 208.899H220.492C221.354 208.899 222.055 209.604 222.055 210.47C222.055 211.336 221.354 212.04 220.492 212.04H170.896C170.034 212.04 169.333 211.336 169.333 210.47C169.333 209.604 170.034 208.899 170.896 208.899Z" fill="white"/>
<path d="M263.204 211.19C264.658 211.19 265.836 212.374 265.836 213.835C265.836 215.296 264.658 216.481 263.204 216.481C261.75 216.481 260.571 215.296 260.571 213.835C260.571 212.374 261.75 211.19 263.204 211.19Z" fill="white"/>
<path d="M260.125 213.841C260.125 215.547 261.506 216.935 263.204 216.935C264.902 216.935 266.283 215.547 266.283 213.841C266.283 212.134 264.902 210.747 263.204 210.747C261.506 210.747 260.125 212.134 260.125 213.841ZM261.013 213.841C261.013 212.625 261.994 211.639 263.204 211.639C264.414 211.639 265.395 212.625 265.395 213.841C265.395 215.056 264.414 216.042 263.204 216.042C261.994 216.042 261.013 215.056 261.013 213.841Z" fill="url(#paint59_linear_411_2525)"/>
<path d="M253.717 211.19C255.171 211.19 256.35 212.374 256.35 213.835C256.35 215.296 255.171 216.481 253.717 216.481C252.264 216.481 251.085 215.296 251.085 213.835C251.085 212.374 252.264 211.19 253.717 211.19Z" fill="#000A3D"/>
<path d="M250.639 213.841C250.639 215.547 252.02 216.935 253.718 216.935C255.416 216.935 256.797 215.547 256.797 213.841C256.797 212.134 255.416 210.747 253.718 210.747C252.02 210.747 250.639 212.134 250.639 213.841ZM251.527 213.841C251.527 212.625 252.508 211.639 253.718 211.639C254.927 211.639 255.909 212.625 255.909 213.841C255.909 215.056 254.927 216.042 253.718 216.042C252.508 216.042 251.527 215.056 251.527 213.841Z" fill="url(#paint60_linear_411_2525)"/>
<path d="M251.085 212.943H245.529V214.727H251.085V212.943Z" fill="url(#paint61_linear_411_2525)"/>
<path d="M170.896 235.399H236.334C237.196 235.399 237.897 236.103 237.897 236.969C237.897 237.836 237.196 238.54 236.334 238.54H170.896C170.034 238.54 169.333 237.836 169.333 236.969C169.333 236.103 170.034 235.399 170.896 235.399Z" fill="#000A3D"/>
<path d="M170.896 235.399H229.355C230.217 235.399 230.918 236.103 230.918 236.969C230.918 237.836 230.217 238.54 229.355 238.54H170.896C170.034 238.54 169.333 237.836 169.333 236.969C169.333 236.103 170.034 235.399 170.896 235.399Z" fill="white"/>
<path d="M170.896 229.383H236.334C237.196 229.383 237.897 230.088 237.897 230.954C237.897 231.82 237.196 232.524 236.334 232.524H170.896C170.034 232.524 169.333 231.82 169.333 230.954C169.333 230.088 170.034 229.383 170.896 229.383Z" fill="#000A3D"/>
<path d="M170.896 229.383H220.492C221.354 229.383 222.055 230.088 222.055 230.954C222.055 231.82 221.354 232.524 220.492 232.524H170.896C170.034 232.524 169.333 231.82 169.333 230.954C169.333 230.088 170.034 229.383 170.896 229.383Z" fill="white"/>
<path d="M263.204 231.674C264.658 231.674 265.836 232.858 265.836 234.319C265.836 235.78 264.658 236.964 263.204 236.964C261.75 236.964 260.571 235.78 260.571 234.319C260.571 232.858 261.75 231.674 263.204 231.674Z" fill="white"/>
<path d="M260.125 234.324C260.125 236.031 261.506 237.418 263.204 237.418C264.902 237.418 266.283 236.031 266.283 234.324C266.283 232.618 264.902 231.23 263.204 231.23C261.506 231.23 260.125 232.618 260.125 234.324ZM261.013 234.324C261.013 233.109 261.994 232.123 263.204 232.123C264.414 232.123 265.395 233.109 265.395 234.324C265.395 235.54 264.414 236.526 263.204 236.526C261.994 236.526 261.013 235.54 261.013 234.324Z" fill="url(#paint62_linear_411_2525)"/>
<path d="M253.717 231.674C255.171 231.674 256.35 232.858 256.35 234.319C256.35 235.78 255.171 236.964 253.717 236.964C252.264 236.964 251.085 235.78 251.085 234.319C251.085 232.858 252.264 231.674 253.717 231.674Z" fill="#000A3D"/>
<path d="M250.639 234.324C250.639 236.031 252.02 237.418 253.718 237.418C255.416 237.418 256.797 236.031 256.797 234.324C256.797 232.618 255.416 231.23 253.718 231.23C252.02 231.23 250.639 232.618 250.639 234.324ZM251.527 234.324C251.527 233.109 252.508 232.123 253.718 232.123C254.927 232.123 255.909 233.109 255.909 234.324C255.909 235.54 254.927 236.526 253.718 236.526C252.508 236.526 251.527 235.54 251.527 234.324Z" fill="url(#paint63_linear_411_2525)"/>
<path d="M251.085 233.427H245.529V235.211H251.085V233.427Z" fill="url(#paint64_linear_411_2525)"/>
<path d="M170.896 255.883H236.334C237.196 255.883 237.897 256.588 237.897 257.454C237.897 258.32 237.196 259.024 236.334 259.024H170.896C170.034 259.024 169.333 258.32 169.333 257.454C169.333 256.588 170.034 255.883 170.896 255.883Z" fill="#000A3D"/>
<path d="M170.896 255.883H229.355C230.217 255.883 230.918 256.588 230.918 257.454C230.918 258.32 230.217 259.024 229.355 259.024H170.896C170.034 259.024 169.333 258.32 169.333 257.454C169.333 256.588 170.034 255.883 170.896 255.883Z" fill="white"/>
<path d="M170.896 249.873H236.334C237.196 249.873 237.897 250.577 237.897 251.443C237.897 252.309 237.196 253.014 236.334 253.014H170.896C170.034 253.014 169.333 252.309 169.333 251.443C169.333 250.577 170.034 249.873 170.896 249.873Z" fill="#000A3D"/>
<path d="M170.896 249.873H220.492C221.354 249.873 222.055 250.577 222.055 251.443C222.055 252.309 221.354 253.014 220.492 253.014H170.896C170.034 253.014 169.333 252.309 169.333 251.443C169.333 250.577 170.034 249.873 170.896 249.873Z" fill="white"/>
<path d="M263.204 252.163C264.658 252.163 265.836 253.347 265.836 254.808C265.836 256.269 264.658 257.454 263.204 257.454C261.75 257.454 260.571 256.269 260.571 254.808C260.571 253.347 261.75 252.163 263.204 252.163Z" fill="white"/>
<path d="M260.125 254.808C260.125 256.514 261.506 257.902 263.204 257.902C264.902 257.902 266.283 256.514 266.283 254.808C266.283 253.102 264.902 251.714 263.204 251.714C261.506 251.714 260.125 253.102 260.125 254.808ZM261.013 254.808C261.013 253.598 261.994 252.607 263.204 252.607C264.414 252.607 265.395 253.593 265.395 254.808C265.395 256.024 264.414 257.01 263.204 257.01C261.994 257.01 261.013 256.024 261.013 254.808Z" fill="url(#paint65_linear_411_2525)"/>
<path d="M256.318 255.237C256.553 253.795 255.581 252.435 254.146 252.199C252.711 251.962 251.357 252.94 251.122 254.381C250.887 255.823 251.859 257.183 253.294 257.42C254.729 257.656 256.083 256.679 256.318 255.237Z" fill="#000A3D"/>
<path d="M250.639 254.808C250.639 256.514 252.02 257.902 253.718 257.902C255.416 257.902 256.797 256.514 256.797 254.808C256.797 253.102 255.416 251.714 253.718 251.714C252.02 251.714 250.639 253.102 250.639 254.808ZM251.527 254.808C251.527 253.598 252.508 252.607 253.718 252.607C254.927 252.607 255.909 253.593 255.909 254.808C255.909 256.024 254.927 257.01 253.718 257.01C252.508 257.01 251.527 256.024 251.527 254.808Z" fill="url(#paint66_linear_411_2525)"/>
<path d="M251.085 253.916H245.529V255.7H251.085V253.916Z" fill="url(#paint67_linear_411_2525)"/>
<path d="M170.896 276.367H236.334C237.196 276.367 237.897 277.072 237.897 277.938C237.897 278.804 237.196 279.508 236.334 279.508H170.896C170.034 279.508 169.333 278.804 169.333 277.938C169.333 277.072 170.034 276.367 170.896 276.367Z" fill="#000A3D"/>
<path d="M170.896 276.367H229.355C230.217 276.367 230.918 277.072 230.918 277.938C230.918 278.804 230.217 279.508 229.355 279.508H170.896C170.034 279.508 169.333 278.804 169.333 277.938C169.333 277.072 170.034 276.367 170.896 276.367Z" fill="white"/>
<path d="M170.896 270.356H236.334C237.196 270.356 237.897 271.061 237.897 271.927C237.897 272.793 237.196 273.497 236.334 273.497H170.896C170.034 273.497 169.333 272.793 169.333 271.927C169.333 271.061 170.034 270.356 170.896 270.356Z" fill="#000A3D"/>
<path d="M170.896 270.356H220.492C221.354 270.356 222.055 271.061 222.055 271.927C222.055 272.793 221.354 273.497 220.492 273.497H170.896C170.034 273.497 169.333 272.793 169.333 271.927C169.333 271.061 170.034 270.356 170.896 270.356Z" fill="white"/>
<path d="M263.204 272.647C264.658 272.647 265.836 273.831 265.836 275.292C265.836 276.753 264.658 277.938 263.204 277.938C261.75 277.938 260.571 276.753 260.571 275.292C260.571 273.831 261.75 272.647 263.204 272.647Z" fill="white"/>
<path d="M260.125 275.292C260.125 276.998 261.506 278.386 263.204 278.386C264.902 278.386 266.283 276.998 266.283 275.292C266.283 273.586 264.902 272.198 263.204 272.198C261.506 272.198 260.125 273.586 260.125 275.292ZM261.013 275.292C261.013 274.082 261.994 273.09 263.204 273.09C264.414 273.09 265.395 274.077 265.395 275.292C265.395 276.508 264.414 277.494 263.204 277.494C261.994 277.494 261.013 276.508 261.013 275.292Z" fill="url(#paint68_linear_411_2525)"/>
<path d="M253.717 272.647C255.171 272.647 256.35 273.831 256.35 275.292C256.35 276.753 255.171 277.938 253.717 277.938C252.264 277.938 251.085 276.753 251.085 275.292C251.085 273.831 252.264 272.647 253.717 272.647Z" fill="#000A3D"/>
<path d="M250.639 275.292C250.639 276.998 252.02 278.386 253.718 278.386C255.416 278.386 256.797 276.998 256.797 275.292C256.797 273.586 255.416 272.198 253.718 272.198C252.02 272.198 250.639 273.586 250.639 275.292ZM251.527 275.292C251.527 274.082 252.508 273.09 253.718 273.09C254.927 273.09 255.909 274.077 255.909 275.292C255.909 276.508 254.927 277.494 253.718 277.494C252.508 277.494 251.527 276.508 251.527 275.292Z" fill="url(#paint69_linear_411_2525)"/>
<path d="M251.085 274.4H245.529V276.184H251.085V274.4Z" fill="url(#paint70_linear_411_2525)"/>
<path d="M170.896 296.852H236.334C237.196 296.852 237.897 297.556 237.897 298.422C237.897 299.288 237.196 299.992 236.334 299.992H170.896C170.034 299.992 169.333 299.288 169.333 298.422C169.333 297.556 170.034 296.852 170.896 296.852Z" fill="#000A3D"/>
<path d="M170.896 296.852H229.355C230.217 296.852 230.918 297.556 230.918 298.422C230.918 299.288 230.217 299.992 229.355 299.992H170.896C170.034 299.992 169.333 299.288 169.333 298.422C169.333 297.556 170.034 296.852 170.896 296.852Z" fill="white"/>
<path d="M170.896 290.841H236.334C237.196 290.841 237.897 291.545 237.897 292.411C237.897 293.277 237.196 293.982 236.334 293.982H170.896C170.034 293.982 169.333 293.277 169.333 292.411C169.333 291.545 170.034 290.841 170.896 290.841Z" fill="#000A3D"/>
<path d="M170.896 290.841H220.492C221.354 290.841 222.055 291.545 222.055 292.411C222.055 293.277 221.354 293.982 220.492 293.982H170.896C170.034 293.982 169.333 293.277 169.333 292.411C169.333 291.545 170.034 290.841 170.896 290.841Z" fill="white"/>
<path d="M263.204 293.131C264.658 293.131 265.836 294.316 265.836 295.777C265.836 297.238 264.658 298.422 263.204 298.422C261.75 298.422 260.571 297.238 260.571 295.777C260.571 294.316 261.75 293.131 263.204 293.131Z" fill="white"/>
<path d="M260.125 295.777C260.125 297.483 261.506 298.871 263.204 298.871C264.902 298.871 266.283 297.483 266.283 295.777C266.283 294.07 264.902 292.683 263.204 292.683C261.506 292.683 260.125 294.07 260.125 295.777ZM261.013 295.777C261.013 294.566 261.994 293.575 263.204 293.575C264.414 293.575 265.395 294.561 265.395 295.777C265.395 296.992 264.414 297.978 263.204 297.978C261.994 297.978 261.013 296.992 261.013 295.777Z" fill="url(#paint71_linear_411_2525)"/>
<path d="M253.717 293.131C255.171 293.131 256.35 294.316 256.35 295.777C256.35 297.238 255.171 298.422 253.717 298.422C252.264 298.422 251.085 297.238 251.085 295.777C251.085 294.316 252.264 293.131 253.717 293.131Z" fill="#000A3D"/>
<path d="M250.639 295.777C250.639 297.483 252.02 298.871 253.718 298.871C255.416 298.871 256.797 297.483 256.797 295.777C256.797 294.07 255.416 292.683 253.718 292.683C252.02 292.683 250.639 294.07 250.639 295.777ZM251.527 295.777C251.527 294.566 252.508 293.575 253.718 293.575C254.927 293.575 255.909 294.561 255.909 295.777C255.909 296.992 254.927 297.978 253.718 297.978C252.508 297.978 251.527 296.992 251.527 295.777Z" fill="url(#paint72_linear_411_2525)"/>
<path d="M251.085 294.884H245.529V296.669H251.085V294.884Z" fill="url(#paint73_linear_411_2525)"/>
<path d="M170.896 317.335H236.334C237.196 317.335 237.897 318.04 237.897 318.906C237.897 319.772 237.196 320.476 236.334 320.476H170.896C170.034 320.476 169.333 319.772 169.333 318.906C169.333 318.04 170.034 317.335 170.896 317.335Z" fill="#000A3D"/>
<path d="M170.896 317.335H229.355C230.217 317.335 230.918 318.04 230.918 318.906C230.918 319.772 230.217 320.476 229.355 320.476H170.896C170.034 320.476 169.333 319.772 169.333 318.906C169.333 318.04 170.034 317.335 170.896 317.335Z" fill="white"/>
<path d="M170.896 311.325H236.334C237.196 311.325 237.897 312.029 237.897 312.895C237.897 313.761 237.196 314.466 236.334 314.466H170.896C170.034 314.466 169.333 313.761 169.333 312.895C169.333 312.029 170.034 311.325 170.896 311.325Z" fill="#000A3D"/>
<path d="M170.896 311.325H220.492C221.354 311.325 222.055 312.029 222.055 312.895C222.055 313.761 221.354 314.466 220.492 314.466H170.896C170.034 314.466 169.333 313.761 169.333 312.895C169.333 312.029 170.034 311.325 170.896 311.325Z" fill="white"/>
<path d="M263.204 313.615C264.658 313.615 265.836 314.8 265.836 316.261C265.836 317.721 264.658 318.906 263.204 318.906C261.75 318.906 260.571 317.721 260.571 316.261C260.571 314.8 261.75 313.615 263.204 313.615Z" fill="white"/>
<path d="M260.125 316.261C260.125 317.967 261.506 319.355 263.204 319.355C264.902 319.355 266.283 317.967 266.283 316.261C266.283 314.554 264.902 313.167 263.204 313.167C261.506 313.167 260.125 314.554 260.125 316.261ZM261.013 316.261C261.013 315.045 261.994 314.059 263.204 314.059C264.414 314.059 265.395 315.045 265.395 316.261C265.395 317.476 264.414 318.462 263.204 318.462C261.994 318.462 261.013 317.476 261.013 316.261Z" fill="url(#paint74_linear_411_2525)"/>
<path d="M253.717 313.615C255.171 313.615 256.35 314.8 256.35 316.261C256.35 317.721 255.171 318.906 253.717 318.906C252.264 318.906 251.085 317.721 251.085 316.261C251.085 314.8 252.264 313.615 253.717 313.615Z" fill="#000A3D"/>
<path d="M250.639 316.261C250.639 317.967 252.02 319.355 253.718 319.355C255.416 319.355 256.797 317.967 256.797 316.261C256.797 314.554 255.416 313.167 253.718 313.167C252.02 313.167 250.639 314.554 250.639 316.261ZM251.527 316.261C251.527 315.045 252.508 314.059 253.718 314.059C254.927 314.059 255.909 315.045 255.909 316.261C255.909 317.476 254.927 318.462 253.718 318.462C252.508 318.462 251.527 317.476 251.527 316.261Z" fill="url(#paint75_linear_411_2525)"/>
<path d="M251.085 315.368H245.529V317.153H251.085V315.368Z" fill="url(#paint76_linear_411_2525)"/>
<g opacity="0.8">
<path opacity="0.7" d="M23.3449 72.3751C24.7872 72.3751 25.9584 71.2011 25.9584 69.7554C25.9584 68.3098 24.79 67.1357 23.3449 67.1357C21.8999 67.1357 20.7314 68.3098 20.7314 69.7554C20.7314 71.2011 21.9027 72.3751 23.3449 72.3751Z" fill="#BAD9FE"/>
<path d="M43.6542 72.511C45.1727 72.511 46.4032 71.2775 46.4032 69.7555C46.4032 68.2335 45.1727 67 43.6542 67C42.1358 67 40.9053 68.2335 40.9053 69.7555C40.9053 71.2775 42.1358 72.511 43.6542 72.511Z" fill="#BAD9FE"/>
<path d="M63.9608 72.3101C65.3663 72.3101 66.5066 71.1672 66.5066 69.7583C66.5066 68.3495 65.3663 67.2065 63.9608 67.2065C62.5553 67.2065 61.415 68.3495 61.415 69.7583C61.415 71.1672 62.5553 72.3101 63.9608 72.3101Z" fill="#BAD9FE"/>
<path opacity="0.7" d="M23.3447 92.8689C24.8631 92.8689 26.0936 91.6354 26.0936 90.1134C26.0936 88.5914 24.8631 87.3579 23.3447 87.3579C21.8262 87.3579 20.5957 88.5914 20.5957 90.1134C20.5957 91.6354 21.8262 92.8689 23.3447 92.8689Z" fill="#BAD9FE"/>
<path d="M43.654 93.0047C45.2458 93.0047 46.5384 91.7119 46.5384 90.1134C46.5384 88.515 45.2486 87.2222 43.654 87.2222C42.0593 87.2222 40.7695 88.515 40.7695 90.1134C40.7695 91.7119 42.0593 93.0047 43.654 93.0047Z" fill="#BAD9FE"/>
<path d="M63.9605 92.8005C65.4423 92.8005 66.6418 91.5981 66.6418 90.1129C66.6418 88.6276 65.4423 87.4253 63.9605 87.4253C62.4788 87.4253 61.2793 88.6276 61.2793 90.1129C61.2793 91.5981 62.4788 92.8005 63.9605 92.8005Z" fill="#BAD9FE"/>
<path opacity="0.7" d="M23.3446 113.023C24.7501 113.023 25.8903 111.88 25.8903 110.471C25.8903 109.062 24.7501 107.919 23.3446 107.919C21.9391 107.919 20.7988 109.062 20.7988 110.471C20.7988 111.88 21.9391 113.023 23.3446 113.023Z" fill="#BAD9FE"/>
<path d="M43.6539 113.159C45.1347 113.159 46.3351 111.956 46.3351 110.471C46.3351 108.987 45.1347 107.784 43.6539 107.784C42.1731 107.784 40.9727 108.987 40.9727 110.471C40.9727 111.956 42.1731 113.159 43.6539 113.159Z" fill="#BAD9FE"/>
<path d="M63.9606 112.977C65.3407 112.977 66.4612 111.854 66.4612 110.471C66.4612 109.087 65.3407 107.964 63.9606 107.964C62.5804 107.964 61.46 109.087 61.46 110.471C61.46 111.854 62.5804 112.977 63.9606 112.977Z" fill="#BAD9FE"/>
</g>
<g opacity="0.8">
<path d="M3.10444 72.511C4.62286 72.511 5.8534 71.2775 5.8534 69.7555C5.8534 68.2335 4.62286 67 3.10444 67C1.58601 67 0.355469 68.2335 0.355469 69.7555C0.355469 71.2775 1.58601 72.511 3.10444 72.511Z" fill="#BAD9FE"/>
<path opacity="0.7" d="M23.4129 72.3101C24.8185 72.3101 25.9587 71.1672 25.9587 69.7583C25.9587 68.3495 24.8185 67.2065 23.4129 67.2065C22.0074 67.2065 20.8672 68.3495 20.8672 69.7583C20.8672 71.1672 22.0074 72.3101 23.4129 72.3101Z" fill="#BAD9FE"/>
<path d="M3.10319 93.0047C4.69499 93.0047 5.98763 91.7119 5.98763 90.1134C5.98763 88.515 4.69781 87.2222 3.10319 87.2222C1.50856 87.2222 0.21875 88.515 0.21875 90.1134C0.21875 91.7119 1.50856 93.0047 3.10319 93.0047Z" fill="#BAD9FE"/>
<path opacity="0.7" d="M23.4127 92.8005C24.8944 92.8005 26.0939 91.5981 26.0939 90.1129C26.0939 88.6276 24.8944 87.4253 23.4127 87.4253C21.9309 87.4253 20.7314 88.6276 20.7314 90.1129C20.7314 91.5981 21.9309 92.8005 23.4127 92.8005Z" fill="#BAD9FE"/>
<path d="M5.78702 110.519C5.79994 109.034 4.61004 107.821 3.12929 107.808C1.64854 107.795 0.437687 108.987 0.424765 110.472C0.411843 111.956 1.60175 113.17 3.08249 113.183C4.56324 113.196 5.7741 112.003 5.78702 110.519Z" fill="#BAD9FE"/>
<path opacity="0.7" d="M25.1815 112.244C26.1581 111.265 26.1581 109.678 25.1815 108.699C24.205 107.72 22.6217 107.72 21.6451 108.699C20.6686 109.678 20.6686 111.265 21.6451 112.244C22.6217 113.222 24.205 113.222 25.1815 112.244Z" fill="#BAD9FE"/>
</g>
<path d="M234.982 27.2197V166.616C234.982 169.084 232.983 171.093 230.527 171.093H57.3238C54.8678 171.093 52.874 169.084 52.874 166.616V27.2249C52.874 24.0683 55.4234 21.5117 58.5543 21.5117H229.291C232.432 21.5117 234.977 24.0683 234.977 27.2197H234.982Z" fill="url(#paint77_linear_411_2525)"/>
<path d="M234.977 41.187H52.874V27.2249C52.874 24.0683 55.4182 21.5117 58.5595 21.5117H229.291C232.432 21.5117 234.977 24.0683 234.977 27.2249V41.187Z" fill="#000A3D"/>
<path d="M84.1943 31.3466C84.1943 29.677 85.5391 28.3257 87.2006 28.3257C88.8622 28.3257 90.207 29.677 90.207 31.3466C90.207 33.0162 88.8622 34.3676 87.2006 34.3676C85.5391 34.3676 84.1943 33.0162 84.1943 31.3466Z" fill="url(#paint78_linear_411_2525)"/>
<path d="M75.6313 34.3676C77.2917 34.3676 78.6376 33.0151 78.6376 31.3466C78.6376 29.6782 77.2917 28.3257 75.6313 28.3257C73.971 28.3257 72.625 29.6782 72.625 31.3466C72.625 33.0151 73.971 34.3676 75.6313 34.3676Z" fill="url(#paint79_linear_411_2525)"/>
<path d="M61.0518 31.3466C61.0518 29.677 62.3966 28.3257 64.0581 28.3257C65.7196 28.3257 67.0644 29.677 67.0644 31.3466C67.0644 33.0162 65.7196 34.3676 64.0581 34.3676C62.3966 34.3676 61.0518 33.0162 61.0518 31.3466Z" fill="white"/>
<path d="M220.646 29.1395L222.137 27.6421L224.265 29.7813L226.389 27.6421L227.879 29.1395L225.75 31.2735L227.879 33.4127L226.389 34.9101L224.265 32.7709L222.137 34.9101L220.646 33.4127L222.775 31.2735L220.646 29.1395Z" fill="white"/>
<path d="M79.027 120.812H105.186C105.643 120.812 106.016 121.187 106.016 121.646V121.761C106.016 122.22 105.643 122.596 105.186 122.596H79.027C78.5701 122.596 78.1963 122.22 78.1963 121.761V121.646C78.1963 121.187 78.5701 120.812 79.027 120.812Z" fill="#000A3D"/>
<path d="M109.687 120.812H131.972C132.429 120.812 132.803 121.187 132.803 121.646V121.761C132.803 122.22 132.429 122.596 131.972 122.596H109.687C109.23 122.596 108.856 122.22 108.856 121.761V121.646C108.856 121.187 109.23 120.812 109.687 120.812Z" fill="#000A3D"/>
<path d="M79.027 128.565H96.0576C96.5146 128.565 96.8884 128.941 96.8884 129.4V129.515C96.8884 129.974 96.5146 130.349 96.0576 130.349H79.027C78.5701 130.349 78.1963 129.974 78.1963 129.515V129.4C78.1963 128.941 78.5701 128.565 79.027 128.565Z" fill="#000A3D"/>
<path d="M114.06 128.565H99.6306C99.1718 128.565 98.7998 128.939 98.7998 129.4V129.52C98.7998 129.981 99.1718 130.355 99.6306 130.355H114.06C114.519 130.355 114.891 129.981 114.891 129.52V129.4C114.891 128.939 114.519 128.565 114.06 128.565Z" fill="#000A3D"/>
<path d="M131.974 128.565H117.845C117.387 128.565 117.015 128.939 117.015 129.4V129.52C117.015 129.981 117.387 130.355 117.845 130.355H131.974C132.432 130.355 132.804 129.981 132.804 129.52V129.4C132.804 128.939 132.432 128.565 131.974 128.565Z" fill="#000A3D"/>
<path d="M105.186 136.318H79.0222C78.5634 136.318 78.1914 136.692 78.1914 137.153V137.273C78.1914 137.734 78.5634 138.107 79.0222 138.107H105.186C105.645 138.107 106.017 137.734 106.017 137.273V137.153C106.017 136.692 105.645 136.318 105.186 136.318Z" fill="#000A3D"/>
<path d="M131.972 136.318H109.687C109.228 136.318 108.856 136.692 108.856 137.153V137.273C108.856 137.734 109.228 138.107 109.687 138.107H131.972C132.431 138.107 132.803 137.734 132.803 137.273V137.153C132.803 136.692 132.431 136.318 131.972 136.318Z" fill="#000A3D"/>
<path d="M79.027 144.071H96.0576C96.5146 144.071 96.8884 144.447 96.8884 144.906V145.021C96.8884 145.48 96.5146 145.856 96.0576 145.856H79.027C78.5701 145.856 78.1963 145.48 78.1963 145.021V144.906C78.1963 144.447 78.5701 144.071 79.027 144.071Z" fill="#000A3D"/>
<path d="M114.06 144.071H99.6306C99.1718 144.071 98.7998 144.445 98.7998 144.906V145.026C98.7998 145.487 99.1718 145.861 99.6306 145.861H114.06C114.519 145.861 114.891 145.487 114.891 145.026V144.906C114.891 144.445 114.519 144.071 114.06 144.071Z" fill="#000A3D"/>
<path d="M131.974 144.071H117.845C117.387 144.071 117.015 144.445 117.015 144.906V145.026C117.015 145.487 117.387 145.861 117.845 145.861H131.974C132.432 145.861 132.804 145.487 132.804 145.026V144.906C132.804 144.445 132.432 144.071 131.974 144.071Z" fill="#000A3D"/>
<path d="M67.7091 166.622C69.4297 166.622 70.8245 165.22 70.8245 163.491C70.8245 161.762 69.4297 160.361 67.7091 160.361C65.9885 160.361 64.5938 161.762 64.5938 163.491C64.5938 165.22 65.9885 166.622 67.7091 166.622Z" fill="#000A3D"/>
<path d="M86.4005 166.622C88.1211 166.622 89.5159 165.22 89.5159 163.491C89.5159 161.762 88.1211 160.361 86.4005 160.361C84.6799 160.361 83.2852 161.762 83.2852 163.491C83.2852 165.22 84.6799 166.622 86.4005 166.622Z" fill="#000A3D"/>
<path d="M105.093 166.622C106.813 166.622 108.208 165.22 108.208 163.491C108.208 161.762 106.813 160.361 105.093 160.361C103.372 160.361 101.978 161.762 101.978 163.491C101.978 165.22 103.372 166.622 105.093 166.622Z" fill="#000A3D"/>
<path d="M217.096 166.622C218.816 166.622 220.211 165.22 220.211 163.491C220.211 161.762 218.816 160.361 217.096 160.361C215.375 160.361 213.98 161.762 213.98 163.491C213.98 165.22 215.375 166.622 217.096 166.622Z" fill="#000A3D"/>
<path d="M127.025 314.841H81.6445C73.529 314.841 66.9297 308.21 66.9297 300.055V163.491H68.4874V300.06C68.4874 307.349 74.391 313.281 81.6445 313.281H127.025V314.847V314.841Z" fill="#0083FF"/>
<path d="M126.968 294.764H96.3856C90.4509 294.764 85.6221 289.912 85.6221 283.948V163.486H87.1797V283.948C87.1797 289.046 91.3076 293.199 96.3856 293.199H126.968V294.764Z" fill="#0083FF"/>
<path d="M127.024 274.28H112.735C108.093 274.28 104.313 270.482 104.313 265.817V163.486H105.871V265.817C105.871 269.621 108.95 272.715 112.735 272.715H127.024V274.28Z" fill="#0083FF"/>
<path d="M271.635 184.779H226.556C220.912 184.779 216.316 180.161 216.316 174.49V163.491H217.874V174.49C217.874 179.3 221.768 183.213 226.556 183.213H271.635V184.779Z" fill="black"/>
<path d="M300.851 308.491C301.734 307.625 309.912 309.451 309.933 309.958C310 311.518 309.678 317.429 308.79 318.107C307.934 318.765 299.673 317.716 299.693 316.213C299.709 314.914 300 309.326 300.851 308.491Z" fill="#FFD2D4"/>
<path d="M309.594 316.391C309.594 316.391 312.746 322.36 309.485 326.335C309.485 326.335 289.448 324.822 283.55 323.137C283.55 323.137 284.292 315.738 289.526 315.744C294.76 315.754 299.895 316.568 299.895 316.568C299.895 316.568 305.347 320.006 309.594 316.385V316.391Z" fill="#000A3D"/>
<path d="M351.984 310.344C352.487 309.211 360.759 307.891 360.966 308.356C361.6 309.785 363.459 315.399 362.882 316.359C362.327 317.288 354.263 319.365 353.734 317.956C353.277 316.74 351.501 311.439 351.984 310.344Z" fill="#FFD2D4"/>
<path d="M363.065 315.405C363.065 315.405 367.12 320.794 364.529 325.24C364.529 325.24 344.508 326.935 338.417 326.215C338.417 326.215 337.986 318.791 343.152 317.966C348.319 317.137 353.521 317.126 353.521 317.126C353.521 317.126 359.446 319.652 363.065 315.399V315.405Z" fill="#000A3D"/>
<path d="M277.543 171.808C278.753 173.311 284.682 176.008 286.308 175.763C297.206 174.172 303.099 164.728 307.383 160.267C308.12 159.51 308.78 158.728 309.366 157.935C312.295 154.027 313.541 149.868 314.05 146.394C314.559 142.861 314.315 140.393 314.315 140.393C314.315 140.393 320.395 110.1 314.128 113.007C307.819 115.949 299.963 128.988 294.221 138.953C294.049 139.235 293.899 139.522 293.727 139.788C293.369 140.414 293.026 141.019 292.689 141.588C291.801 143.143 290.97 144.604 290.217 145.861C288.592 148.632 284.464 154.987 284.464 154.987C284.464 154.987 272.522 165.641 277.543 171.808Z" fill="#FFD2D4"/>
<path d="M336.392 203.739C335.779 205.127 335.104 206.588 334.424 208.085C329.715 218.348 323.972 230.302 323.074 236.636C312.243 249.022 313.401 274.332 312.606 288.321C311.983 299.789 311.267 312.321 310.96 313.349C310.94 313.386 299.034 314.471 299.034 314.471C296.318 299.366 290.207 251.005 290.207 240.497C290.207 229.989 299.823 187.351 307.269 173.525C314.351 160.382 337.836 186.506 340.536 190.002C341.569 191.342 339.456 196.836 336.387 203.745L336.392 203.739Z" fill="url(#paint80_linear_411_2525)"/>
<path d="M336.106 203.509C335.815 203.28 335.494 203.28 335.203 203.379C332.882 199.831 327.638 196.184 324.455 200.932C322.663 203.598 324.315 206.969 324.309 209.838C324.315 215.64 320.363 220.607 317.809 225.527C308.717 243.074 313.998 263.365 310.664 282.08C308.935 291.884 302.902 303.973 303.063 314.095C308.016 314.528 309.942 313.944 310.965 313.344C314.107 299.695 316.505 258.544 323.079 236.636C324.917 230.51 329.72 218.348 334.429 208.085C335.104 206.588 335.779 205.127 336.397 203.739C336.309 203.655 336.2 203.593 336.111 203.515L336.106 203.509Z" fill="#000A3D"/>
<path d="M314.315 140.398C314.315 140.398 314.559 142.866 314.05 146.399C313.458 150.505 311.864 156.03 307.705 160.731C303.463 165.526 288.961 142.151 293.125 136.282C299.465 127.339 307.923 115.902 314.128 113.017C320.395 110.111 314.315 140.404 314.315 140.404V140.398Z" fill="#FC5185"/>
<path d="M314.413 119.168C314.413 119.168 310.254 121.229 309.309 127.637C308.364 134.044 305.96 145.945 307.585 152.535C308.873 157.773 309.205 158.759 309.246 158.759C309.246 158.759 309.252 158.759 309.257 158.759L312.969 153.223C312.969 153.223 316.947 147.072 316.334 145.611C315.721 144.15 314.413 119.174 314.413 119.174V119.168Z" fill="#A0616A"/>
<path d="M362.992 310.344C360.028 313.746 351.902 315.483 351.902 315.483C344.669 299.559 337.452 268.483 336.361 250.488C334.669 222.538 329.892 195.261 330.105 187.935C330.146 186.756 330.162 186.13 330.162 186.13C337.363 178.199 346.133 173.905 351.273 173.566C353.304 173.425 354.757 173.9 355.344 174.996C357.239 178.591 358.693 181.899 359.799 184.998C359.913 185.306 360.012 185.619 360.111 185.926C366.954 205.424 364.861 215.859 363.709 241.06C363.148 252.951 358.693 303.697 362.997 310.338L362.992 310.344Z" fill="url(#paint81_linear_411_2525)"/>
<path d="M360.895 284.642C360.962 271.52 363.143 252.956 363.704 241.065C364.856 215.865 366.949 205.43 360.105 185.932C358.055 185.749 355.822 186.146 353.433 187.273C352.758 187.581 352.867 188.311 353.319 188.713C353.195 188.895 353.163 189.141 353.283 189.433C357.135 199.821 359.363 210.866 358.278 221.985C357.738 227.677 356.149 233.161 355.007 238.764C353.838 244.504 353.122 250.295 352.577 256.102C351.668 266.016 350.36 276.32 351.699 286.26C353.08 296.517 353.221 304.364 355.536 314.46C355.676 315.092 362.198 311.904 362.992 310.339C362.39 308.992 360.78 306.41 360.895 284.637V284.642Z" fill="#000A3D"/>
<path d="M303.879 178.173C304.159 179.066 307.352 180.678 312.036 182.368C317.269 184.231 324.372 186.167 331.491 187.268C341.123 188.765 350.811 188.728 355.988 187.742C358.101 187.346 359.462 186.777 359.784 186.088C360.786 183.923 362.053 170.926 362.463 156.917C362.541 154.204 362.598 151.449 362.598 148.752C362.676 134.67 361.689 121.475 358.517 119.028C357.8 118.459 356.969 117.869 356.045 117.243C354.664 116.294 353.06 115.307 351.247 114.358C348.413 112.86 345.089 111.473 341.367 110.523C335.645 109.026 328.978 108.53 321.646 110.22C321.646 110.22 321.646 110.241 321.626 110.241C319.85 110.638 318.038 111.17 316.184 111.874C315.753 112.026 315.317 112.198 314.86 112.365C308.666 114.869 309.554 128.424 310.556 139.793C311.008 145.068 311.48 149.874 311.293 152.868C311.215 153.875 311.106 154.882 310.914 155.868C309.517 164.237 304.907 172.079 303.868 178.168L303.879 178.173Z" fill="#FC5185"/>
<path d="M327.087 103.255V109.344C327.087 109.344 325.654 111.984 327.087 112.271C330.234 112.902 334.777 109.349 334.777 109.349V100.057L327.087 103.26V103.255Z" fill="#FFD2D4"/>
<path d="M322.716 89.3135C322.716 89.3135 321.355 95.6007 321.958 100.996C322.389 104.825 330.348 108.024 334.554 101.434C338.765 94.8389 335.26 87.2422 335.26 87.2422L322.716 89.3188V89.3135Z" fill="#FFD2D4"/>
<path d="M355.593 169.33C356.346 175.137 354.118 181.972 355.988 187.742C358.101 187.346 359.461 186.777 359.783 186.088C360.785 183.923 362.052 170.926 362.462 156.917C362.54 154.204 362.597 151.449 362.597 148.752C361.538 146.326 360.219 143.967 358.61 141.484C354.155 134.576 350.152 127.459 346.579 120.055C346.299 119.487 350.733 116.888 351.112 116.732C350.66 116.56 347.467 116.502 345.141 119.487C338.324 128.2 336.361 140.993 342.685 150.176C347.01 156.421 354.529 161.222 355.588 169.324L355.593 169.33Z" fill="#A0616A"/>
<path d="M317.658 88.3587C318.775 93.065 324.04 92.178 327.43 91.1032C327.716 91.0145 327.804 90.6075 328.053 90.524C328.5 90.3779 328.765 90.5971 329.279 90.5605C330.437 90.4771 331.221 90.3831 332.342 90.0857C332.835 89.9553 333.355 89.9396 333.874 89.9449C333.734 90.6388 333.879 91.4945 333.905 92.1049C333.983 93.9571 333.417 96.3416 334.414 98.032C335.078 99.159 336.449 99.6182 337.607 98.9347C339.009 98.1103 338.5 96.7381 338.723 95.4494C338.858 94.6824 338.973 94.1293 338.583 93.3989C338.464 93.1797 338.277 93.0128 338.121 92.8302C338.152 92.7832 338.126 92.5641 338.163 92.298C338.308 91.1658 337.887 90.0649 337.14 89.2405C338.261 88.2387 338.334 86.6265 337.477 85.4004C336.413 83.8821 334.705 83.736 333.074 84.0491C331.454 82.5151 329.253 83.089 327.705 84.4352C326.703 83.7725 325.639 83.6212 324.668 83.9447C321.672 80.7881 316.604 83.9134 317.664 88.3587H317.658Z" fill="#000A3D"/>
<path d="M380.64 182.003C372.613 193.32 336.983 182.687 336.983 182.687L337.487 176.426C337.487 176.426 358.443 178.142 362.612 171.145C363.37 169.877 361.153 155.341 357.264 151.585C355.525 149.915 353.697 148.261 352.108 146.879C348.256 143.498 345.478 138.985 344.611 133.913C343.764 129.056 344.46 124.955 345.629 121.746C347.254 117.285 352.861 115.86 356.527 118.86C363.573 124.631 374.928 139.433 375.209 139.793C385.277 153.02 388.693 170.65 380.64 182.003Z" fill="#FFD2D4"/>
<path d="M357.238 154.695C355.634 153.155 345.545 143.216 343.998 133.334C343.297 128.842 344.678 117.995 350.25 116.695C359.17 114.619 371.086 127.626 379.305 137.445C375.531 145.997 367.254 151.982 357.238 154.689V154.695Z" fill="#FC5185"/>
<path d="M309.693 180.563L333.448 182.003L310.794 188.389L309.693 180.563Z" fill="url(#paint82_linear_411_2525)"/>
<path d="M333.448 182.003L333.573 184.262L310.789 191.259L310.794 188.389L333.448 182.003Z" fill="url(#paint83_linear_411_2525)"/>
<path d="M261.815 185.415L310.794 188.389L310.789 191.259L261.831 187.972L261.815 185.415Z" fill="url(#paint84_linear_411_2525)"/>
<path d="M261.816 185.415L310.794 188.389L307.019 161.655C306.9 160.726 306.142 160.022 305.218 159.964L260.175 157.23C258.96 157.157 257.978 158.216 258.139 159.427L261.816 185.42V185.415Z" fill="url(#paint85_linear_411_2525)"/>
<path d="M319.169 174.97C320.659 174.469 322.294 174.343 323.935 174.453C324.138 174.396 324.33 174.396 324.527 174.359C324.418 174.182 324.288 174.009 324.205 173.822C323.67 172.642 323.587 170.655 325.041 170.065C326.573 169.439 327.549 171.406 328.333 172.356C329.252 173.467 330.311 174.557 331.583 175.23C332.881 175.773 334.304 175.872 335.685 176.112C336.672 176.284 338.302 176.337 338.91 177.317C339.393 178.1 339.398 179.728 339.185 180.61C338.915 181.721 337.949 182.243 336.983 182.686C336.365 182.968 335.395 183.291 334.387 183.448C332.804 183.912 331.142 184.205 329.522 183.74C329.169 183.641 328.847 183.495 328.525 183.344C327.097 183.938 325.571 184.137 323.992 183.891C323.239 183.771 323.011 183.051 323.213 182.483C322.897 182.389 322.601 182.243 322.372 182.008C322.092 181.721 321.999 181.377 321.983 181.027C321.671 180.855 321.386 180.646 321.183 180.432C320.321 179.53 320.192 178.413 320.514 177.537C319.039 178.246 317.762 179.394 316.609 180.657C316.022 181.293 315.124 181.043 314.786 180.307C313.701 177.917 317.31 175.601 319.158 174.975L319.169 174.97Z" fill="#FFD2D4"/>
<path d="M276.151 189.464C276.068 189.417 276.026 189.329 276.011 189.24C275.71 189.558 275.346 189.866 274.915 189.871C274.36 189.876 274.048 189.412 273.809 189.057C273.794 189.042 273.794 189.021 273.788 189.005C273.233 189.772 272.475 190.409 271.577 190.226C270.725 190.054 270.543 189.37 270.616 188.588C270.393 188.854 270.144 189.094 269.884 189.292C268.845 190.08 267.791 189.167 267.454 188.295C267.397 188.155 267.444 188.024 267.527 187.946C267.527 187.915 267.527 187.883 267.532 187.852C267.771 187.022 268.103 186.224 268.555 185.462C268.866 184.935 269.271 184.137 269.879 183.803C270.959 183.208 271.447 184.408 271.628 185.233C271.93 184.408 272.449 183.699 273.56 184.121C274.318 184.408 274.697 184.941 274.832 185.551C275.061 185.175 275.341 184.847 275.71 184.622C276.649 184.048 277.314 185.055 277.475 185.739C277.553 186.068 277.553 186.391 277.501 186.709C277.568 186.673 277.641 186.641 277.724 186.621C278.41 186.49 278.846 187.299 278.934 187.763C279.188 189.146 277.548 190.242 276.146 189.469L276.151 189.464Z" fill="#FFD2D4"/>
<path d="M340.027 177.333L335.94 176.968V182.274C335.94 182.274 337.088 181.821 338.687 182.363C340.286 182.906 340.032 177.339 340.032 177.339L340.027 177.333Z" fill="#FFD2D4"/>
<path d="M305.81 10.3308L298.255 6.06808L295.166 10.623C292.684 9.86644 290.14 9.57948 287.621 9.72035L285.69 4.56543L277.356 6.91854L278.379 12.3291C276.157 13.5291 274.137 15.1048 272.408 17.0458L267.413 14.7761L263.171 22.3676L267.704 25.4721C266.956 27.9608 266.666 30.5226 266.806 33.0531L261.676 34.9941L264.017 43.3682L269.402 42.3403C270.596 44.5734 272.164 46.6031 274.101 48.3457L271.837 53.365L279.392 57.6277L282.481 53.0728C284.958 53.8241 287.507 54.1163 290.025 53.9754L291.957 59.1304L300.291 56.7772L299.268 51.3667C301.49 50.1666 303.515 48.5805 305.239 46.65L310.234 48.9196L314.476 41.3281L309.943 38.2237C310.696 35.7297 310.981 33.1731 310.841 30.6426L315.971 28.7017L313.629 20.3276L308.245 21.3554C307.051 19.1223 305.478 17.0875 303.551 15.3553L305.81 10.336V10.3308ZM302.456 39.5333C298.229 47.0987 288.696 49.7858 281.167 45.5439C273.639 41.2968 270.96 31.7227 275.191 24.1573C279.418 16.5918 288.945 13.8996 296.474 18.1467C304.003 22.3937 306.682 31.9731 302.456 39.5385V39.5333Z" fill="#673DE6"/>
<path d="M383.154 58.2326L379.379 56.1039L377.837 58.3787C376.596 58.003 375.324 57.857 374.062 57.93L373.096 55.3525L368.932 56.5265L369.446 59.2344C368.335 59.8344 367.323 60.6222 366.461 61.5927L363.963 60.4553L361.845 64.2484L364.108 65.798C363.735 67.0398 363.589 68.3233 363.657 69.5912L361.092 70.5616L362.26 74.7461L364.955 74.2296C365.552 75.3461 366.336 76.3635 367.302 77.2296L366.17 79.7393L369.945 81.868L371.487 79.5932C372.722 79.9688 374 80.1149 375.261 80.0419L376.227 82.6194L380.391 81.4454L379.883 78.7375C380.994 78.1375 382.006 77.3444 382.868 76.3792L385.366 77.5166L387.484 73.7182L385.22 72.1686C385.594 70.9217 385.739 69.6434 385.667 68.3807L388.232 67.4103L387.063 63.2258L384.369 63.7371C383.772 62.6206 382.982 61.6031 382.022 60.737L383.154 58.2274V58.2326ZM381.477 72.8365C379.363 76.6192 374.597 77.9653 370.832 75.8418C367.068 73.7182 365.728 68.9286 367.842 65.1458C369.955 61.3631 374.721 60.017 378.486 62.1405C382.25 64.2641 383.59 69.0538 381.477 72.8365Z" fill="#FC5185"/>
<path d="M75.557 116.023H71.2725V70.7989C74.8705 69.6837 78.4212 69.1143 81.9008 69.1143C84.4337 69.1143 86.7298 69.5176 88.8128 70.3006C90.8722 71.0836 92.6476 72.1988 94.1152 73.5987C95.5828 75.0224 96.719 76.6833 97.5002 78.6527C98.2813 80.5983 98.6837 82.7338 98.6837 85.0116C98.6837 87.7878 98.2103 90.1842 97.2635 92.1773C96.3166 94.1704 95.062 95.8076 93.4997 97.0889C91.9374 98.3702 90.1858 99.3193 88.1974 99.9125C86.209 100.506 84.1733 100.814 82.1139 100.814C81.0013 100.814 79.8888 100.719 78.8236 100.577C77.7347 100.411 76.6695 100.173 75.5806 99.8888V116.023H75.557ZM93.7838 84.9405C93.7838 81.3339 92.7659 78.4154 90.7775 76.185C88.7655 73.9547 85.9486 72.8632 82.3033 72.8632C81.1434 72.8632 80.0071 72.9344 78.8709 73.0767C77.7584 73.2191 76.6458 73.4801 75.5806 73.8597V95.9025C76.5748 96.2347 77.5927 96.5195 78.6579 96.7567C79.7231 96.994 80.7409 97.0889 81.7351 97.0889C85.4279 97.0889 88.3631 96.0449 90.5408 93.9332C92.6949 91.8452 93.7838 88.8555 93.7838 84.9405Z" fill="#231815"/>
<path d="M111.75 56.9658H107.395V100.577H111.75V56.9658Z" fill="#231815"/>
<path d="M147.28 96.021C145.836 97.6107 144.155 98.7971 142.238 99.6038C140.321 100.411 138.024 100.814 135.326 100.814C132.84 100.814 130.663 100.387 128.793 99.5326C126.923 98.6785 125.384 97.5395 124.129 96.0684C122.899 94.6211 121.952 92.9601 121.336 91.0857C120.721 89.2112 120.413 87.2418 120.413 85.1775C120.413 82.4252 120.792 80.0524 121.526 78.0356C122.283 76.0187 123.277 74.3578 124.579 73.0291C125.857 71.7003 127.349 70.7038 129.053 70.0632C130.757 69.4225 132.556 69.0903 134.45 69.0903C139.019 69.0903 142.451 70.4903 144.771 73.2901C147.091 76.0899 148.203 80.1711 148.132 85.5335H124.816C124.934 89.0688 125.952 91.8687 127.87 93.9567C129.787 96.0447 132.367 97.065 135.634 97.065C137.456 97.065 139.113 96.7565 140.605 96.1633C142.096 95.5702 143.445 94.5973 144.652 93.2686L147.28 96.021ZM143.8 81.8794C143.8 80.5981 143.611 79.388 143.208 78.2729C142.806 77.1577 142.262 76.2086 141.528 75.4018C140.794 74.6188 139.847 73.9782 138.711 73.5036C137.551 73.0291 136.202 72.7918 134.663 72.7918C133.077 72.7918 131.728 73.0291 130.592 73.5036C129.455 73.9782 128.556 74.5951 127.893 75.3544C127.23 76.0899 126.615 77.039 126.047 78.1779C125.479 79.3169 125.124 80.5507 124.958 81.8794H143.8Z" fill="#231815"/>
<path d="M176.633 76.7783C175.544 75.4021 174.384 74.4055 173.106 73.7649C171.852 73.1243 170.36 72.7921 168.609 72.7921C166.384 72.7921 164.845 73.1954 163.945 73.9784C163.046 74.7615 162.62 75.758 162.62 76.9681C162.62 77.7986 162.833 78.5104 163.235 79.0798C163.638 79.6493 164.182 80.1713 164.869 80.5747C165.531 81.0018 166.313 81.3577 167.212 81.6661C168.112 81.9746 169.035 82.2831 169.982 82.5678C171.141 82.9474 172.325 83.3508 173.485 83.7779C174.668 84.205 175.734 84.7744 176.704 85.4863C177.675 86.1981 178.48 87.0523 179.071 88.0725C179.687 89.0928 179.995 90.3741 179.995 91.8927C179.995 93.3163 179.687 94.5739 179.071 95.6891C178.456 96.8043 177.627 97.7533 176.586 98.5126C175.544 99.2956 174.313 99.8651 172.917 100.268C171.497 100.672 170.005 100.862 168.396 100.862C165.934 100.862 163.732 100.458 161.815 99.6515C159.898 98.8448 158.099 97.4924 156.418 95.6416L159.803 92.652C162.052 95.5467 164.987 97.0178 168.585 97.0178C170.928 97.0178 172.656 96.5907 173.793 95.7128C174.929 94.8349 175.473 93.7671 175.473 92.5333C175.473 91.5842 175.26 90.7775 174.858 90.1368C174.455 89.4962 173.887 88.9505 173.177 88.4759C172.467 88.0251 171.639 87.6455 170.692 87.3133C169.745 87.0048 168.774 86.6964 167.733 86.4116C166.549 86.0794 165.389 85.6998 164.253 85.2964C163.093 84.8931 162.075 84.3473 161.152 83.7067C160.229 83.0661 159.495 82.2356 158.903 81.239C158.312 80.2425 158.028 78.9849 158.028 77.4427C158.028 74.6903 159.022 72.5785 161.034 71.0837C163.022 69.5889 165.602 68.8296 168.774 68.8296C171.023 68.8296 173.035 69.2092 174.787 69.9448C176.539 70.7041 178.219 72.0091 179.829 73.8598L176.704 76.8495L176.633 76.7783Z" fill="#231815"/>
<path d="M188.185 57.0371H192.54V100.577H188.185V57.0371ZM192.54 84.5135L207.453 69.4228H213.3L198.008 84.3711L213.229 100.577H207.193L192.54 84.5135Z" fill="#231815"/>
<path d="M122.52 111.918H96.3398V116.023H122.52V111.918Z" fill="#5DBBE8"/>
</g>
<defs>
<linearGradient id="paint0_linear_411_2525" x1="126.881" y1="307.318" x2="243.956" y2="307.318" gradientUnits="userSpaceOnUse">
<stop stop-color="#A3CDFF"/>
<stop offset="1" stop-color="#5F9BE1"/>
</linearGradient>
<linearGradient id="paint1_linear_411_2525" x1="52.8757" y1="286.807" x2="53.3949" y2="286.807" gradientUnits="userSpaceOnUse">
<stop stop-color="#A3CDFF"/>
<stop offset="1" stop-color="#5F9BE1"/>
</linearGradient>
<linearGradient id="paint2_linear_411_2525" x1="52.8757" y1="266.292" x2="53.3949" y2="266.292" gradientUnits="userSpaceOnUse">
<stop stop-color="#A3CDFF"/>
<stop offset="1" stop-color="#5F9BE1"/>
</linearGradient>
<linearGradient id="paint3_linear_411_2525" x1="52.8757" y1="243.899" x2="53.3949" y2="243.899" gradientUnits="userSpaceOnUse">
<stop stop-color="#A3CDFF"/>
<stop offset="1" stop-color="#5F9BE1"/>
</linearGradient>
<linearGradient id="paint4_linear_411_2525" x1="52.8757" y1="224.578" x2="53.3949" y2="224.578" gradientUnits="userSpaceOnUse">
<stop stop-color="#A3CDFF"/>
<stop offset="1" stop-color="#5F9BE1"/>
</linearGradient>
<linearGradient id="paint5_linear_411_2525" x1="156.232" y1="316.38" x2="277.959" y2="316.38" gradientUnits="userSpaceOnUse">
<stop stop-color="#A3CDFF"/>
<stop offset="1" stop-color="#5F9BE1"/>
</linearGradient>
<linearGradient id="paint6_linear_411_2525" x1="156.232" y1="295.803" x2="277.959" y2="295.803" gradientUnits="userSpaceOnUse">
<stop stop-color="#A3CDFF"/>
<stop offset="1" stop-color="#5F9BE1"/>
</linearGradient>
<linearGradient id="paint7_linear_411_2525" x1="156.232" y1="275.219" x2="277.959" y2="275.219" gradientUnits="userSpaceOnUse">
<stop stop-color="#A3CDFF"/>
<stop offset="1" stop-color="#5F9BE1"/>
</linearGradient>
<linearGradient id="paint8_linear_411_2525" x1="156.232" y1="254.641" x2="277.959" y2="254.641" gradientUnits="userSpaceOnUse">
<stop stop-color="#A3CDFF"/>
<stop offset="1" stop-color="#5F9BE1"/>
</linearGradient>
<linearGradient id="paint9_linear_411_2525" x1="156.232" y1="234.058" x2="277.959" y2="234.058" gradientUnits="userSpaceOnUse">
<stop stop-color="#A3CDFF"/>
<stop offset="1" stop-color="#5F9BE1"/>
</linearGradient>
<linearGradient id="paint10_linear_411_2525" x1="156.232" y1="213.48" x2="277.959" y2="213.48" gradientUnits="userSpaceOnUse">
<stop stop-color="#A3CDFF"/>
<stop offset="1" stop-color="#5F9BE1"/>
</linearGradient>
<linearGradient id="paint11_linear_411_2525" x1="125.696" y1="211.059" x2="128.355" y2="211.059" gradientUnits="userSpaceOnUse">
<stop stop-color="#A3CDFF"/>
<stop offset="1" stop-color="#5F9BE1"/>
</linearGradient>
<linearGradient id="paint12_linear_411_2525" x1="125.696" y1="215.896" x2="128.355" y2="215.896" gradientUnits="userSpaceOnUse">
<stop stop-color="#A3CDFF"/>
<stop offset="1" stop-color="#5F9BE1"/>
</linearGradient>
<linearGradient id="paint13_linear_411_2525" x1="131.771" y1="211.059" x2="134.43" y2="211.059" gradientUnits="userSpaceOnUse">
<stop stop-color="#A3CDFF"/>
<stop offset="1" stop-color="#5F9BE1"/>
</linearGradient>
<linearGradient id="paint14_linear_411_2525" x1="131.771" y1="215.896" x2="134.43" y2="215.896" gradientUnits="userSpaceOnUse">
<stop stop-color="#A3CDFF"/>
<stop offset="1" stop-color="#5F9BE1"/>
</linearGradient>
<linearGradient id="paint15_linear_411_2525" x1="137.852" y1="211.059" x2="140.51" y2="211.059" gradientUnits="userSpaceOnUse">
<stop stop-color="#A3CDFF"/>
<stop offset="1" stop-color="#5F9BE1"/>
</linearGradient>
<linearGradient id="paint16_linear_411_2525" x1="137.852" y1="215.896" x2="140.51" y2="215.896" gradientUnits="userSpaceOnUse">
<stop stop-color="#A3CDFF"/>
<stop offset="1" stop-color="#5F9BE1"/>
</linearGradient>
<linearGradient id="paint17_linear_411_2525" x1="143.926" y1="211.059" x2="146.584" y2="211.059" gradientUnits="userSpaceOnUse">
<stop stop-color="#A3CDFF"/>
<stop offset="1" stop-color="#5F9BE1"/>
</linearGradient>
<linearGradient id="paint18_linear_411_2525" x1="143.926" y1="215.896" x2="146.584" y2="215.896" gradientUnits="userSpaceOnUse">
<stop stop-color="#A3CDFF"/>
<stop offset="1" stop-color="#5F9BE1"/>
</linearGradient>
<linearGradient id="paint19_linear_411_2525" x1="125.696" y1="231.642" x2="128.355" y2="231.642" gradientUnits="userSpaceOnUse">
<stop stop-color="#A3CDFF"/>
<stop offset="1" stop-color="#5F9BE1"/>
</linearGradient>
<linearGradient id="paint20_linear_411_2525" x1="125.696" y1="236.479" x2="128.355" y2="236.479" gradientUnits="userSpaceOnUse">
<stop stop-color="#A3CDFF"/>
<stop offset="1" stop-color="#5F9BE1"/>
</linearGradient>
<linearGradient id="paint21_linear_411_2525" x1="131.771" y1="231.642" x2="134.43" y2="231.642" gradientUnits="userSpaceOnUse">
<stop stop-color="#A3CDFF"/>
<stop offset="1" stop-color="#5F9BE1"/>
</linearGradient>
<linearGradient id="paint22_linear_411_2525" x1="131.771" y1="236.479" x2="134.43" y2="236.479" gradientUnits="userSpaceOnUse">
<stop stop-color="#A3CDFF"/>
<stop offset="1" stop-color="#5F9BE1"/>
</linearGradient>
<linearGradient id="paint23_linear_411_2525" x1="137.852" y1="231.642" x2="140.51" y2="231.642" gradientUnits="userSpaceOnUse">
<stop stop-color="#A3CDFF"/>
<stop offset="1" stop-color="#5F9BE1"/>
</linearGradient>
<linearGradient id="paint24_linear_411_2525" x1="137.852" y1="236.479" x2="140.51" y2="236.479" gradientUnits="userSpaceOnUse">
<stop stop-color="#A3CDFF"/>
<stop offset="1" stop-color="#5F9BE1"/>
</linearGradient>
<linearGradient id="paint25_linear_411_2525" x1="143.926" y1="231.642" x2="146.584" y2="231.642" gradientUnits="userSpaceOnUse">
<stop stop-color="#A3CDFF"/>
<stop offset="1" stop-color="#5F9BE1"/>
</linearGradient>
<linearGradient id="paint26_linear_411_2525" x1="143.926" y1="236.479" x2="146.584" y2="236.479" gradientUnits="userSpaceOnUse">
<stop stop-color="#A3CDFF"/>
<stop offset="1" stop-color="#5F9BE1"/>
</linearGradient>
<linearGradient id="paint27_linear_411_2525" x1="125.696" y1="252.22" x2="128.355" y2="252.22" gradientUnits="userSpaceOnUse">
<stop stop-color="#A3CDFF"/>
<stop offset="1" stop-color="#5F9BE1"/>
</linearGradient>
<linearGradient id="paint28_linear_411_2525" x1="125.696" y1="257.057" x2="128.355" y2="257.057" gradientUnits="userSpaceOnUse">
<stop stop-color="#A3CDFF"/>
<stop offset="1" stop-color="#5F9BE1"/>
</linearGradient>
<linearGradient id="paint29_linear_411_2525" x1="131.771" y1="252.22" x2="134.43" y2="252.22" gradientUnits="userSpaceOnUse">
<stop stop-color="#A3CDFF"/>
<stop offset="1" stop-color="#5F9BE1"/>
</linearGradient>
<linearGradient id="paint30_linear_411_2525" x1="131.771" y1="257.057" x2="134.43" y2="257.057" gradientUnits="userSpaceOnUse">
<stop stop-color="#A3CDFF"/>
<stop offset="1" stop-color="#5F9BE1"/>
</linearGradient>
<linearGradient id="paint31_linear_411_2525" x1="137.852" y1="252.22" x2="140.51" y2="252.22" gradientUnits="userSpaceOnUse">
<stop stop-color="#A3CDFF"/>
<stop offset="1" stop-color="#5F9BE1"/>
</linearGradient>
<linearGradient id="paint32_linear_411_2525" x1="137.852" y1="257.057" x2="140.51" y2="257.057" gradientUnits="userSpaceOnUse">
<stop stop-color="#A3CDFF"/>
<stop offset="1" stop-color="#5F9BE1"/>
</linearGradient>
<linearGradient id="paint33_linear_411_2525" x1="143.926" y1="252.22" x2="146.584" y2="252.22" gradientUnits="userSpaceOnUse">
<stop stop-color="#A3CDFF"/>
<stop offset="1" stop-color="#5F9BE1"/>
</linearGradient>
<linearGradient id="paint34_linear_411_2525" x1="143.926" y1="257.057" x2="146.584" y2="257.057" gradientUnits="userSpaceOnUse">
<stop stop-color="#A3CDFF"/>
<stop offset="1" stop-color="#5F9BE1"/>
</linearGradient>
<linearGradient id="paint35_linear_411_2525" x1="125.696" y1="272.803" x2="128.355" y2="272.803" gradientUnits="userSpaceOnUse">
<stop stop-color="#A3CDFF"/>
<stop offset="1" stop-color="#5F9BE1"/>
</linearGradient>
<linearGradient id="paint36_linear_411_2525" x1="125.696" y1="277.64" x2="128.355" y2="277.64" gradientUnits="userSpaceOnUse">
<stop stop-color="#A3CDFF"/>
<stop offset="1" stop-color="#5F9BE1"/>
</linearGradient>
<linearGradient id="paint37_linear_411_2525" x1="131.771" y1="272.803" x2="134.43" y2="272.803" gradientUnits="userSpaceOnUse">
<stop stop-color="#A3CDFF"/>
<stop offset="1" stop-color="#5F9BE1"/>
</linearGradient>
<linearGradient id="paint38_linear_411_2525" x1="131.771" y1="277.64" x2="134.43" y2="277.64" gradientUnits="userSpaceOnUse">
<stop stop-color="#A3CDFF"/>
<stop offset="1" stop-color="#5F9BE1"/>
</linearGradient>
<linearGradient id="paint39_linear_411_2525" x1="137.852" y1="272.803" x2="140.51" y2="272.803" gradientUnits="userSpaceOnUse">
<stop stop-color="#A3CDFF"/>
<stop offset="1" stop-color="#5F9BE1"/>
</linearGradient>
<linearGradient id="paint40_linear_411_2525" x1="137.852" y1="277.64" x2="140.51" y2="277.64" gradientUnits="userSpaceOnUse">
<stop stop-color="#A3CDFF"/>
<stop offset="1" stop-color="#5F9BE1"/>
</linearGradient>
<linearGradient id="paint41_linear_411_2525" x1="143.926" y1="272.803" x2="146.584" y2="272.803" gradientUnits="userSpaceOnUse">
<stop stop-color="#A3CDFF"/>
<stop offset="1" stop-color="#5F9BE1"/>
</linearGradient>
<linearGradient id="paint42_linear_411_2525" x1="143.926" y1="277.64" x2="146.584" y2="277.64" gradientUnits="userSpaceOnUse">
<stop stop-color="#A3CDFF"/>
<stop offset="1" stop-color="#5F9BE1"/>
</linearGradient>
<linearGradient id="paint43_linear_411_2525" x1="125.696" y1="293.382" x2="128.355" y2="293.382" gradientUnits="userSpaceOnUse">
<stop stop-color="#A3CDFF"/>
<stop offset="1" stop-color="#5F9BE1"/>
</linearGradient>
<linearGradient id="paint44_linear_411_2525" x1="125.696" y1="298.218" x2="128.355" y2="298.218" gradientUnits="userSpaceOnUse">
<stop stop-color="#A3CDFF"/>
<stop offset="1" stop-color="#5F9BE1"/>
</linearGradient>
<linearGradient id="paint45_linear_411_2525" x1="131.771" y1="293.382" x2="134.43" y2="293.382" gradientUnits="userSpaceOnUse">
<stop stop-color="#A3CDFF"/>
<stop offset="1" stop-color="#5F9BE1"/>
</linearGradient>
<linearGradient id="paint46_linear_411_2525" x1="131.771" y1="298.218" x2="134.43" y2="298.218" gradientUnits="userSpaceOnUse">
<stop stop-color="#A3CDFF"/>
<stop offset="1" stop-color="#5F9BE1"/>
</linearGradient>
<linearGradient id="paint47_linear_411_2525" x1="137.852" y1="293.382" x2="140.51" y2="293.382" gradientUnits="userSpaceOnUse">
<stop stop-color="#A3CDFF"/>
<stop offset="1" stop-color="#5F9BE1"/>
</linearGradient>
<linearGradient id="paint48_linear_411_2525" x1="137.852" y1="298.218" x2="140.51" y2="298.218" gradientUnits="userSpaceOnUse">
<stop stop-color="#A3CDFF"/>
<stop offset="1" stop-color="#5F9BE1"/>
</linearGradient>
<linearGradient id="paint49_linear_411_2525" x1="143.926" y1="293.382" x2="146.584" y2="293.382" gradientUnits="userSpaceOnUse">
<stop stop-color="#A3CDFF"/>
<stop offset="1" stop-color="#5F9BE1"/>
</linearGradient>
<linearGradient id="paint50_linear_411_2525" x1="143.926" y1="298.218" x2="146.584" y2="298.218" gradientUnits="userSpaceOnUse">
<stop stop-color="#A3CDFF"/>
<stop offset="1" stop-color="#5F9BE1"/>
</linearGradient>
<linearGradient id="paint51_linear_411_2525" x1="125.696" y1="313.965" x2="128.355" y2="313.965" gradientUnits="userSpaceOnUse">
<stop stop-color="#A3CDFF"/>
<stop offset="1" stop-color="#5F9BE1"/>
</linearGradient>
<linearGradient id="paint52_linear_411_2525" x1="125.696" y1="318.802" x2="128.355" y2="318.802" gradientUnits="userSpaceOnUse">
<stop stop-color="#A3CDFF"/>
<stop offset="1" stop-color="#5F9BE1"/>
</linearGradient>
<linearGradient id="paint53_linear_411_2525" x1="131.771" y1="313.965" x2="134.43" y2="313.965" gradientUnits="userSpaceOnUse">
<stop stop-color="#A3CDFF"/>
<stop offset="1" stop-color="#5F9BE1"/>
</linearGradient>
<linearGradient id="paint54_linear_411_2525" x1="131.771" y1="318.802" x2="134.43" y2="318.802" gradientUnits="userSpaceOnUse">
<stop stop-color="#A3CDFF"/>
<stop offset="1" stop-color="#5F9BE1"/>
</linearGradient>
<linearGradient id="paint55_linear_411_2525" x1="137.852" y1="313.965" x2="140.51" y2="313.965" gradientUnits="userSpaceOnUse">
<stop stop-color="#A3CDFF"/>
<stop offset="1" stop-color="#5F9BE1"/>
</linearGradient>
<linearGradient id="paint56_linear_411_2525" x1="137.852" y1="318.802" x2="140.51" y2="318.802" gradientUnits="userSpaceOnUse">
<stop stop-color="#A3CDFF"/>
<stop offset="1" stop-color="#5F9BE1"/>
</linearGradient>
<linearGradient id="paint57_linear_411_2525" x1="143.926" y1="313.965" x2="146.584" y2="313.965" gradientUnits="userSpaceOnUse">
<stop stop-color="#A3CDFF"/>
<stop offset="1" stop-color="#5F9BE1"/>
</linearGradient>
<linearGradient id="paint58_linear_411_2525" x1="143.926" y1="318.802" x2="146.584" y2="318.802" gradientUnits="userSpaceOnUse">
<stop stop-color="#A3CDFF"/>
<stop offset="1" stop-color="#5F9BE1"/>
</linearGradient>
<linearGradient id="paint59_linear_411_2525" x1="260.125" y1="213.841" x2="266.283" y2="213.841" gradientUnits="userSpaceOnUse">
<stop stop-color="#A3CDFF"/>
<stop offset="1" stop-color="#5F9BE1"/>
</linearGradient>
<linearGradient id="paint60_linear_411_2525" x1="250.639" y1="213.841" x2="256.797" y2="213.841" gradientUnits="userSpaceOnUse">
<stop stop-color="#A3CDFF"/>
<stop offset="1" stop-color="#5F9BE1"/>
</linearGradient>
<linearGradient id="paint61_linear_411_2525" x1="245.529" y1="213.84" x2="251.085" y2="213.84" gradientUnits="userSpaceOnUse">
<stop stop-color="#A3CDFF"/>
<stop offset="1" stop-color="#5F9BE1"/>
</linearGradient>
<linearGradient id="paint62_linear_411_2525" x1="260.125" y1="234.324" x2="266.283" y2="234.324" gradientUnits="userSpaceOnUse">
<stop stop-color="#A3CDFF"/>
<stop offset="1" stop-color="#5F9BE1"/>
</linearGradient>
<linearGradient id="paint63_linear_411_2525" x1="250.639" y1="234.324" x2="256.797" y2="234.324" gradientUnits="userSpaceOnUse">
<stop stop-color="#A3CDFF"/>
<stop offset="1" stop-color="#5F9BE1"/>
</linearGradient>
<linearGradient id="paint64_linear_411_2525" x1="245.529" y1="234.324" x2="251.085" y2="234.324" gradientUnits="userSpaceOnUse">
<stop stop-color="#A3CDFF"/>
<stop offset="1" stop-color="#5F9BE1"/>
</linearGradient>
<linearGradient id="paint65_linear_411_2525" x1="260.125" y1="254.808" x2="266.283" y2="254.808" gradientUnits="userSpaceOnUse">
<stop stop-color="#A3CDFF"/>
<stop offset="1" stop-color="#5F9BE1"/>
</linearGradient>
<linearGradient id="paint66_linear_411_2525" x1="250.639" y1="254.808" x2="256.797" y2="254.808" gradientUnits="userSpaceOnUse">
<stop stop-color="#A3CDFF"/>
<stop offset="1" stop-color="#5F9BE1"/>
</linearGradient>
<linearGradient id="paint67_linear_411_2525" x1="245.529" y1="254.808" x2="251.085" y2="254.808" gradientUnits="userSpaceOnUse">
<stop stop-color="#A3CDFF"/>
<stop offset="1" stop-color="#5F9BE1"/>
</linearGradient>
<linearGradient id="paint68_linear_411_2525" x1="260.125" y1="275.292" x2="266.283" y2="275.292" gradientUnits="userSpaceOnUse">
<stop stop-color="#A3CDFF"/>
<stop offset="1" stop-color="#5F9BE1"/>
</linearGradient>
<linearGradient id="paint69_linear_411_2525" x1="250.639" y1="275.292" x2="256.797" y2="275.292" gradientUnits="userSpaceOnUse">
<stop stop-color="#A3CDFF"/>
<stop offset="1" stop-color="#5F9BE1"/>
</linearGradient>
<linearGradient id="paint70_linear_411_2525" x1="245.529" y1="275.292" x2="251.085" y2="275.292" gradientUnits="userSpaceOnUse">
<stop stop-color="#A3CDFF"/>
<stop offset="1" stop-color="#5F9BE1"/>
</linearGradient>
<linearGradient id="paint71_linear_411_2525" x1="260.125" y1="295.777" x2="266.283" y2="295.777" gradientUnits="userSpaceOnUse">
<stop stop-color="#A3CDFF"/>
<stop offset="1" stop-color="#5F9BE1"/>
</linearGradient>
<linearGradient id="paint72_linear_411_2525" x1="250.639" y1="295.777" x2="256.797" y2="295.777" gradientUnits="userSpaceOnUse">
<stop stop-color="#A3CDFF"/>
<stop offset="1" stop-color="#5F9BE1"/>
</linearGradient>
<linearGradient id="paint73_linear_411_2525" x1="245.529" y1="295.776" x2="251.085" y2="295.776" gradientUnits="userSpaceOnUse">
<stop stop-color="#A3CDFF"/>
<stop offset="1" stop-color="#5F9BE1"/>
</linearGradient>
<linearGradient id="paint74_linear_411_2525" x1="260.125" y1="316.261" x2="266.283" y2="316.261" gradientUnits="userSpaceOnUse">
<stop stop-color="#A3CDFF"/>
<stop offset="1" stop-color="#5F9BE1"/>
</linearGradient>
<linearGradient id="paint75_linear_411_2525" x1="250.639" y1="316.261" x2="256.797" y2="316.261" gradientUnits="userSpaceOnUse">
<stop stop-color="#A3CDFF"/>
<stop offset="1" stop-color="#5F9BE1"/>
</linearGradient>
<linearGradient id="paint76_linear_411_2525" x1="245.529" y1="316.26" x2="251.085" y2="316.26" gradientUnits="userSpaceOnUse">
<stop stop-color="#A3CDFF"/>
<stop offset="1" stop-color="#5F9BE1"/>
</linearGradient>
<linearGradient id="paint77_linear_411_2525" x1="52.874" y1="96.2998" x2="234.982" y2="96.2998" gradientUnits="userSpaceOnUse">
<stop stop-color="#D1E7FF"/>
<stop offset="1" stop-color="#A5CDFE"/>
</linearGradient>
<linearGradient id="paint78_linear_411_2525" x1="84.1943" y1="31.3466" x2="90.2122" y2="31.3466" gradientUnits="userSpaceOnUse">
<stop stop-color="#A3CDFF"/>
<stop offset="1" stop-color="#5F9BE1"/>
</linearGradient>
<linearGradient id="paint79_linear_411_2525" x1="72.625" y1="31.3466" x2="78.6376" y2="31.3466" gradientUnits="userSpaceOnUse">
<stop stop-color="#FFA401"/>
<stop offset="1" stop-color="#FF5001"/>
</linearGradient>
<linearGradient id="paint80_linear_411_2525" x1="285.638" y1="259.953" x2="453.643" y2="139.414" gradientUnits="userSpaceOnUse">
<stop stop-color="#0045AD"/>
<stop offset="1" stop-color="#010630"/>
</linearGradient>
<linearGradient id="paint81_linear_411_2525" x1="300.711" y1="280.959" x2="468.717" y2="160.425" gradientUnits="userSpaceOnUse">
<stop stop-color="#0045AD"/>
<stop offset="1" stop-color="#010630"/>
</linearGradient>
<linearGradient id="paint82_linear_411_2525" x1="309.693" y1="184.476" x2="333.448" y2="184.476" gradientUnits="userSpaceOnUse">
<stop stop-color="#0045AD"/>
<stop offset="1" stop-color="#010630"/>
</linearGradient>
<linearGradient id="paint83_linear_411_2525" x1="310.789" y1="186.631" x2="333.573" y2="186.631" gradientUnits="userSpaceOnUse">
<stop stop-color="#D1E7FF"/>
<stop offset="1" stop-color="#A5CDFE"/>
</linearGradient>
<linearGradient id="paint84_linear_411_2525" x1="261.815" y1="188.337" x2="310.794" y2="188.337" gradientUnits="userSpaceOnUse">
<stop stop-color="#0045AD"/>
<stop offset="1" stop-color="#010630"/>
</linearGradient>
<linearGradient id="paint85_linear_411_2525" x1="258.124" y1="172.804" x2="310.794" y2="172.804" gradientUnits="userSpaceOnUse">
<stop stop-color="#A3CDFF"/>
<stop offset="1" stop-color="#5F9BE1"/>
</linearGradient>
<clipPath id="clip0_411_2525">
<rect width="421" height="328" fill="white"/>
</clipPath>
</defs>
</svg>
