<svg xmlns="http://www.w3.org/2000/svg" width="544" height="488.948" viewBox="0 0 544 488.948">
  <g id="Group_4824" data-name="Group 4824" transform="translate(-683 -428.81)">
    <g id="Group_4822" data-name="Group 4822" transform="translate(8 -64.19)">
      <path id="Path_2551" data-name="Path 2551" d="M671.687,495.67H871.7a17.764,17.764,0,0,0,17.881-17.6V192.484a17.764,17.764,0,0,0-17.881-17.6H671.687a17.764,17.764,0,0,0-17.88,17.6V478.064a17.764,17.764,0,0,0,17.88,17.605Z" transform="translate(21.194 318.121)" fill="#e6e6e6"/>
      <path id="Path_2552" data-name="Path 2552" d="M676.369,486.822H874.807a5.421,5.421,0,0,0,5.449-5.379V196.5a5.421,5.421,0,0,0-5.449-5.379H676.369a5.421,5.421,0,0,0-5.449,5.379V481.443A5.421,5.421,0,0,0,676.369,486.822Z" transform="translate(17.297 314.421)" fill="#fff"/>
      <ellipse id="Ellipse_233" data-name="Ellipse 233" cx="1.673" cy="1.673" rx="1.673" ry="1.673" transform="translate(791.972 497.35)" fill="#fff"/>
      <g id="Group_4786" data-name="Group 4786" transform="translate(703.352 608.565)">
        <path id="Path_2553" data-name="Path 2553" d="M884.263,439.452H706.312a.557.557,0,0,1-.557-.557V353.6a.557.557,0,0,1,1.114,0v84.735H884.263a.557.557,0,1,1,0,1.114Z" transform="translate(-705.755 -349.79)" fill="#3f3d56"/>
        <path id="Path_2554" data-name="Path 2554" d="M750.447,449.443H734.263a1.655,1.655,0,0,1-1.653-1.653V425.479a1.655,1.655,0,0,1,1.653-1.653h16.185a1.655,1.655,0,0,1,1.653,1.653V447.79a1.655,1.655,0,0,1-1.654,1.653Z" transform="translate(-711.87 -365.907)" fill="#07ca8d"/>
        <path id="Path_2555" data-name="Path 2555" d="M788.666,443.2H772.482a1.655,1.655,0,0,1-1.653-1.653V398.077a1.655,1.655,0,0,1,1.653-1.653h16.185a1.655,1.655,0,0,1,1.653,1.653v43.474A1.655,1.655,0,0,1,788.666,443.2Z" transform="translate(-720.573 -359.668)" fill="#07ca8d"/>
        <path id="Path_2556" data-name="Path 2556" d="M826.885,449.443H810.7a1.655,1.655,0,0,1-1.653-1.653V425.479a1.655,1.655,0,0,1,1.653-1.653h16.185a1.655,1.655,0,0,1,1.653,1.653V447.79A1.655,1.655,0,0,1,826.885,449.443Z" transform="translate(-729.276 -365.907)" fill="#07ca8d"/>
        <path id="Path_2557" data-name="Path 2557" d="M865.105,440.74H848.92a1.619,1.619,0,0,1-1.653-1.578V387.185a1.619,1.619,0,0,1,1.653-1.578h16.185a1.619,1.619,0,0,1,1.653,1.578v51.978a1.619,1.619,0,0,1-1.653,1.578Z" transform="translate(-737.979 -357.204)" fill="#07ca8d"/>
        <path id="Path_2558" data-name="Path 2558" d="M903.324,436.307H887.139a1.655,1.655,0,0,1-1.653-1.653V367.79a1.655,1.655,0,0,1,1.653-1.653h16.185a1.655,1.655,0,0,1,1.653,1.653v66.864A1.655,1.655,0,0,1,903.324,436.307Z" transform="translate(-746.682 -352.771)" fill="#07ca8d"/>
        <ellipse id="Ellipse_234" data-name="Ellipse 234" cx="3.341" cy="3.341" rx="3.341" ry="3.341" transform="translate(27.143 44.552)" fill="#3f3d56"/>
        <ellipse id="Ellipse_235" data-name="Ellipse 235" cx="3.341" cy="3.341" rx="3.341" ry="3.341" transform="translate(56.659 22.833)" fill="#3f3d56"/>
        <ellipse id="Ellipse_236" data-name="Ellipse 236" cx="3.341" cy="3.341" rx="3.341" ry="3.341" transform="translate(86.175 44.552)" fill="#3f3d56"/>
        <ellipse id="Ellipse_237" data-name="Ellipse 237" cx="3.341" cy="3.341" rx="3.341" ry="3.341" transform="translate(115.691 12.251)" fill="#3f3d56"/>
        <ellipse id="Ellipse_238" data-name="Ellipse 238" cx="3.341" cy="3.341" rx="3.341" ry="3.341" transform="translate(145.207 0)" fill="#3f3d56"/>
        <path id="Path_2559" data-name="Path 2559" d="M593.8,223.531l-29.586-22.16-29.182,21.857-.668-.891,29.85-22.359,29.446,22.056,29.26-32.021.118-.048,29.516-11.892.416,1.033-29.4,11.845Z" transform="translate(-504.212 -174.889)" fill="#3f3d56"/>
      </g>
    </g>
    <g id="Group_4823" data-name="Group 4823">
      <path id="Path_2560" data-name="Path 2560" d="M415.365,398.142a7.7,7.7,0,0,1,5.92,2.768l34.606-1.082,1.355-5.834,17.909,8.739-2.317,15.978-52.74-6.753a7.72,7.72,0,1,1-4.733-13.816Z" transform="translate(649.258 268.226)" fill="#9f616a"/>
      <path id="Path_2561" data-name="Path 2561" d="M205.6,526.317H196.13l-4.5-36.52H205.6Z" transform="translate(923.126 381.467)" fill="#9f616a"/>
      <path id="Path_2562" data-name="Path 2562" d="M429.463,707.962H410.816a11.883,11.883,0,0,0-11.883,11.882v.387h30.529Z" transform="translate(701.676 196.73)" fill="#2f2e41"/>
      <path id="Path_2563" data-name="Path 2563" d="M168.929,516.991l-9.1,2.629-14.466-33.834,13.425-3.879Z" transform="translate(995.521 383.264)" fill="#9f616a"/>
      <path id="Path_2564" data-name="Path 2564" d="M376,697.5l-17.913,5.176h0a11.883,11.883,0,0,0-8.116,14.714l.107.371,29.329-8.475Z" transform="translate(789.916 199.112)" fill="#2f2e41"/>
      <path id="Path_2565" data-name="Path 2565" d="M426.879,506.627s3.368,9.4-1.945,22.216l-4.1,52.8-1.213,75.091H402.361l-10.446-76.551-6.274-69.412Z" transform="translate(713.472 242.577)" fill="#2f2e41"/>
      <path id="Path_2566" data-name="Path 2566" d="M397.069,506.627s3.368,9.4-1.945,22.216l-4.1,52.8,20.411,71.517H394.175L362.1,580.183l-6.274-69.411Z" transform="translate(752.99 242.577)" fill="#2f2e41"/>
      <ellipse id="Ellipse_239" data-name="Ellipse 239" cx="18.968" cy="18.968" rx="18.968" ry="18.968" transform="translate(1080.455 590.166)" fill="#9f616a"/>
      <path id="Path_2567" data-name="Path 2567" d="M369.7,376.458l3.844-17.86,19.573-11.113,3.969,5.557s28.007,7.36,24.619,39.519-1.843,47.605-1.843,47.605l7.723,35.525s-2.377.408-56.94,9.94L368.331,408.4Z" transform="translate(727.183 278.816)" fill="#cbcbcb"/>
      <path id="Path_2568" data-name="Path 2568" d="M185.251,435.17l17.774,35.9v10.292Z" transform="translate(930.623 393.906)" opacity="0.1"/>
      <path id="Path_2569" data-name="Path 2569" d="M454.876,323.091c-1.809,4.843-8.652,5.515-11.066.943a6.217,6.217,0,0,1-.457-1.111c-.661-2.2-.245-4.615-1.467-6.715a3.545,3.545,0,0,0-1.239-1.28c-4.059-2.394-8.055,5.2-11.83,3.077-2.315-1.3-1.82-5.088-3.879-6.765-2.718-2.214-6.645,1.083-10.131.707-3.878-.419-5.713-5.332-4.87-9.14,1.028-4.645,4.662-8.415,8.926-10.524s9.109-2.746,13.865-2.864c5.4-.134,11.057.439,15.626,3.327,5.556,3.512,8.686,10.051,9.379,16.587C458.156,313.308,456.353,319.136,454.876,323.091Z" transform="translate(664.999 292.043)" fill="#2f2e41"/>
      <path id="Path_2570" data-name="Path 2570" d="M585.655,468.485l-.084,0a56.288,56.288,0,0,1-1.259-112.342,1.284,1.284,0,0,1,.972.337,1.27,1.27,0,0,1,.415.93l1.231,109.777a1.289,1.289,0,0,1-1.274,1.3Z" transform="translate(441.272 276.846)" fill="#3f3d56"/>
      <path id="Path_2571" data-name="Path 2571" d="M496.231,379.647a1.658,1.658,0,0,0-1.163.5l-37.791,38.649a1.64,1.64,0,0,0-.47,1.172l.589,52.529a1.634,1.634,0,0,0,.534,1.2,1.659,1.659,0,0,0,1.247.433,56.656,56.656,0,0,0,38.315-93.915,1.659,1.659,0,0,0-1.2-.56Z" transform="translate(574.839 271.492)" fill="#e6e6e6"/>
      <path id="Path_2572" data-name="Path 2572" d="M482.568,355.561a1.664,1.664,0,0,0-1.131.462,1.635,1.635,0,0,0-.508,1.209l.531,47.395a1.65,1.65,0,0,0,2.83,1.135l32.978-33.725a1.654,1.654,0,0,0-.028-2.339l-.061-.057a56.774,56.774,0,0,0-34.509-14.078Z" transform="translate(550.075 276.977)" fill="#07ca8d"/>
      <path id="Path_2573" data-name="Path 2573" d="M390.365,426.142a7.7,7.7,0,0,1,5.92,2.768l34.606-1.082,1.355-5.834,17.909,8.739-2.317,15.978-52.74-6.753a7.72,7.72,0,1,1-4.733-13.816Z" transform="translate(693.565 261.85)" fill="#9f616a"/>
      <path id="Path_2574" data-name="Path 2574" d="M401.863,424.042l.961-47.6a12.6,12.6,0,1,0-25.207-.255v34.786Z" transform="translate(744.775 275.121)" fill="#cbcbcb"/>
      <path id="Path_2575" data-name="Path 2575" d="M210.973,724.425h206.2c.3,0,.541-.346.541-.772s-.242-.772-.541-.772h-206.2c-.3,0-.541.346-.541.772S210.674,724.425,210.973,724.425Z" transform="translate(809.284 193.333)" fill="#cbcbcb"/>
    </g>
  </g>
</svg>
