<svg xmlns="http://www.w3.org/2000/svg" xmlns:xlink="http://www.w3.org/1999/xlink" width="455" height="455" viewBox="0 0 455 455">
  <defs>
    <clipPath id="clip-path">
      <rect id="Rectangle_35" data-name="Rectangle 35" width="455" height="455" transform="translate(176 246)" fill="#fff" stroke="#707070" stroke-width="1"/>
    </clipPath>
  </defs>
  <g id="Mask_Group_8" data-name="Mask Group 8" transform="translate(-176 -246)" clip-path="url(#clip-path)">
    <g id="undraw_dev_productivity_umsq" transform="translate(141.531 269.745)">
      <circle id="Ellipse_28" data-name="Ellipse 28" cx="45.329" cy="45.329" r="45.329" transform="translate(220.559 27.658)" fill="#ffb8b8"/>
      <path id="Path_764" data-name="Path 764" d="M331.869,148.449s8.54,64.381-4.6,71.608,78.177,7.883,78.177,7.883S385.082,172.1,394.28,155.019Z" transform="translate(-99.815 -52.797)" fill="#ffb8b8"/>
      <path id="Path_765" data-name="Path 765" d="M476.733,224.788l-7.594,34.581-16.058,73.163-.481,4.007-5.542,46.386-3.686,30.815-2.472,20.7c-15.028,7.724-25.921,13.056-25.921,13.056s-.937-4.7-2.447-10.707c-10.547,3.162-30.063,8.408-46.6,9.456,6.022,6.713,8.79,13.019,5.036,17.673-11.33,14.03-58.1-15.361-74.464-26.321a44.279,44.279,0,0,0-.431,7.927l-12.52-9.629,1.239-22.154,2.09-37.485,2.626-47.009a49.352,49.352,0,0,1-2.077-6.183c-3.834-13.635-8.488-40.863-12.057-63.7-2.873-18.376-5.03-33.9-5.486-37.207-.062-.432-.092-.653-.092-.653l69.3-30.624c4.925,11.422,27.924,14.856,27.924,14.856,19.054-1.313,33.99-11.361,33.99-11.361Z" transform="translate(-104.42 -49.319)" fill="#01c98a"/>
      <path id="Path_766" data-name="Path 766" d="M415.134,417.514s-2.934,1-7.705,2.429c-10.547,3.162-30.063,8.408-46.6,9.456-14.239.912-26.272-1.282-28.473-10.572-.943-3.994.395-7.28,3.31-9.98,8.7-8.069,31.438-10.96,49.468-11.952,5.092-.277,9.8-.407,13.722-.456,6.657-.086,11.022.049,11.022.049l.1.407Z" transform="translate(-99.317 -32.473)" fill="#a0616a"/>
      <path id="Path_767" data-name="Path 767" d="M328.749,90.153l-8.476-3.393s17.721-19.51,42.378-17.814l-6.935-7.635s16.951-6.786,32.361,11.028c8.1,9.364,17.473,20.371,23.316,32.771h9.077l-3.788,8.341,13.259,8.341-13.609-1.5a46.611,46.611,0,0,1,.369,13.836,17.9,17.9,0,0,1-6.555,11.711h0s-10.511-21.757-10.511-25.15v8.483s-8.475-7.634-8.475-12.724l-4.623,5.938-2.312-9.331-28.508,9.331,4.623-7.634L342.618,117.3l6.935-9.331s-20.033,11.028-20.8,20.359-6.634,18.173-6.634,18.173S306.4,102.877,328.749,90.153Z" transform="translate(-100.571 -60.043)" fill="#2f2e41"/>
      <path id="Path_768" data-name="Path 768" d="M516.05,381.2c-4.617,5.005-16.058,12.544-29.927,20.706-5.159,3.033-10.652,6.158-16.255,9.265-13.37,7.416-27.369,14.763-38.921,20.7-15.028,7.724-25.921,13.056-25.921,13.056s-.937-4.7-2.447-10.707c-2.022-8.044-5.067-18.443-8.242-23.048-.111-.16-.222-.308-.333-.456-.925-1.214-1.855-1.923-2.774-1.923L437.1,380.357l19.824-12.291-14.283-34.094L424.733,291.2l10.812-34.4,10.868-34.581h20.367s6.744,14.72,15.368,35.247c1.288,3.07,2.62,6.269,3.976,9.573C503.863,310.189,525.981,370.445,516.05,381.2Z" transform="translate(-94.466 -46.75)" fill="#01c98a"/>
      <path id="Path_769" data-name="Path 769" d="M369.374,447.514c-11.33,14.03-58.1-15.361-74.464-26.321-3.563-2.386-5.683-3.9-5.683-3.9l14.967-19.96,4.74-6.318s4.241,2.25,10.51,5.912c.228.136.456.271.69.407,5.406,3.175,12.193,7.323,19.041,11.952,9.45,6.392,19,13.685,25.162,20.552C370.36,436.554,373.128,442.86,369.374,447.514Z" transform="translate(-102.827 -32.915)" fill="#a0616a"/>
      <path id="Path_770" data-name="Path 770" d="M325.349,410.964a29.452,29.452,0,0,0-4.993.407c-14.172,2.435-18.351,15.263-19.541,23.856a44.278,44.278,0,0,0-.432,7.927l-12.52-9.629-4.562-3.507c-10.978-3.828-20.761-10.627-29.243-18.647a147.006,147.006,0,0,1-19.695-23.356,205.967,205.967,0,0,1-15.238-26.136,19.222,19.222,0,0,1-.265-16.3l15.5-34.551,22.66-50.5q.25-1.8.549-3.526c4.494-25.767,16.533-37.207,16.533-37.207h9.2L289.454,257l7.644,46.226-5.357,17.469L279.364,361.04l11.829,12.846Z" transform="translate(-108.733 -46.949)" fill="#01c98a"/>
      <path id="Path_771" data-name="Path 771" d="M328.348,298.637l7.862,9.173c2.921-.557,5.972-1.211,9.113-1.946l-2.258-7.227,5.522,6.442c33.285-8.187,74.542-24.1,74.542-24.1s-44.541,3.266-77.8-4c-14.715-3.215-29.854,4.08-35.892,17.878-3.51,8.02-2.958,14.968,9.489,14.968a82.214,82.214,0,0,0,12.546-1.18Z" transform="translate(-101.323 -42.324)" fill="#016042"/>
      <path id="Path_772" data-name="Path 772" d="M514.544,437.069v3.742a8.222,8.222,0,0,1-.561,3,8.444,8.444,0,0,1-.6,1.233,8.283,8.283,0,0,1-7.12,4.044H231a8.283,8.283,0,0,1-7.12-4.044,8.431,8.431,0,0,1-.6-1.233,8.224,8.224,0,0,1-.561-3v-3.742A8.276,8.276,0,0,1,231,428.79h15.867v-1.744a.345.345,0,0,1,.345-.345h8.279a.345.345,0,0,1,.345.345v1.744h5.172v-1.744a.345.345,0,0,1,.345-.345h8.279a.345.345,0,0,1,.345.345v1.744h5.178v-1.744a.345.345,0,0,1,.345-.345h8.279a.345.345,0,0,1,.345.345v1.744H289.3v-1.744a.345.345,0,0,1,.345-.345h8.279a.345.345,0,0,1,.345.345v1.744h5.172v-1.744a.345.345,0,0,1,.345-.345h8.279a.345.345,0,0,1,.345.345v1.744h5.178v-1.744a.345.345,0,0,1,.345-.345h8.279a.345.345,0,0,1,.345.345v1.744h5.172v-1.744a.345.345,0,0,1,.345-.345h64.848a.345.345,0,0,1,.345.345v1.744h5.178v-1.744a.345.345,0,0,1,.345-.345h8.279a.349.349,0,0,1,.345.345v1.744h5.172v-1.744a.345.345,0,0,1,.345-.345h8.279a.345.345,0,0,1,.345.345v1.744h5.172v-1.744a.345.345,0,0,1,.345-.345h8.279a.345.345,0,0,1,.345.345v1.744h5.178v-1.744a.345.345,0,0,1,.345-.345h8.279a.343.343,0,0,1,.339.345v1.744h5.178v-1.744a.345.345,0,0,1,.345-.345h8.279a.345.345,0,0,1,.345.345v1.744h5.172v-1.744a.345.345,0,0,1,.345-.345h8.279a.345.345,0,0,1,.345.345v1.744h24.145a8.276,8.276,0,0,1,8.278,8.279Z" transform="translate(-108.278 -29.99)" fill="#3f3d56"/>
      <rect id="Rectangle_41" data-name="Rectangle 41" width="451.84" height="1.233" transform="translate(34.469 413.822)" fill="#3f3d56"/>
      <path id="Path_773" data-name="Path 773" d="M491.579,290.8h-102.6v-2.115H342.456V290.8H239.434a6.94,6.94,0,0,0-6.94,6.94v140.49a6.94,6.94,0,0,0,6.94,6.94H491.579a6.94,6.94,0,0,0,6.94-6.94V297.744a6.94,6.94,0,0,0-6.94-6.94Z" transform="translate(-107.477 -41.302)" fill="#3f3d56"/>
      <circle id="Ellipse_29" data-name="Ellipse 29" cx="15.411" cy="15.411" r="15.411" transform="translate(242.82 283.14)" fill="rgba(1,201,138,0)" stroke="#01c98a" stroke-miterlimit="10" stroke-width="1.139"/>
      <circle id="Ellipse_30" data-name="Ellipse 30" cx="15.411" cy="15.411" r="15.411" transform="translate(237.889 288.688)" fill="#01c98a"/>
      <rect id="Rectangle_42" data-name="Rectangle 42" width="17.26" height="17.26" transform="translate(46.764 407.594)" fill="#01c98a"/>
      <path id="Path_774" data-name="Path 774" d="M166.438,424.226v20.958H187.4V424.226Zm20.046,20.046h-19.14V425.138h19.14Z" transform="translate(-112.891 -30.193)" fill="#3f3d56"/>
      <rect id="Rectangle_43" data-name="Rectangle 43" width="17.26" height="17.26" transform="translate(446.207 407.594)" fill="#01c98a"/>
      <path id="Path_775" data-name="Path 775" d="M535.622,424.226v20.958H556.58V424.226Zm20.046,20.046h-19.14V425.138h19.14Z" transform="translate(-82.632 -30.193)" fill="#3f3d56"/>
      <path id="Path_778" data-name="Path 778" d="M204.1,405.071c.575,19.695-10.932,26.912-25.374,27.334q-.5.015-1,.018-1,.008-1.99-.033c-13.061-.542-23.4-7.475-23.934-25.791-.554-18.955,22.973-43.583,24.739-45.4l0,0,.1-.1S203.522,385.378,204.1,405.071Z" transform="translate(-114.092 -35.368)" fill="#f2f2f2"/>
      <path id="Path_779" data-name="Path 779" d="M176.592,429.421l9.174-13.642-9.155,15.11.019,1.535q-1,.008-1.99-.033l.455-19.733-.012-.152.017-.029.044-1.865L165.1,396.024l10.035,13.191.036.394.344-14.909-8.677-15.123,8.7,12.5-.091-30.888v-.1l0,.1.576,24.344,7.908-9.888-7.883,11.986.173,13.336,7.277-13.015-7.251,14.976.1,7.415,10.583-18.13-10.551,20.717Z" transform="translate(-113.001 -35.368)" fill="#3f3d56"/>
      <path id="Path_780" data-name="Path 780" d="M573.28,405.071c.575,19.695-10.932,26.912-25.374,27.334q-.5.015-1,.018-1,.008-1.99-.033c-13.061-.542-23.4-7.475-23.935-25.791-.553-18.955,22.974-43.583,24.739-45.4l0,0,.1-.1S572.705,385.378,573.28,405.071Z" transform="translate(-83.832 -35.368)" fill="#f2f2f2"/>
      <path id="Path_781" data-name="Path 781" d="M545.776,429.421l9.174-13.642-9.155,15.11.019,1.535q-1,.008-1.99-.033l.455-19.733-.012-.152.017-.029.044-1.865L534.28,396.024l10.035,13.191.036.394.344-14.909-8.677-15.123,8.7,12.5-.091-30.888v-.1l0,.1.576,24.344,7.908-9.888-7.883,11.986.173,13.336,7.277-13.015-7.251,14.976.1,7.415,10.583-18.13-10.551,20.717Z" transform="translate(-82.742 -35.368)" fill="#3f3d56"/>
    </g>
  </g>
</svg>
