<svg width="30" height="30" viewBox="0 0 30 30" fill="none" xmlns="http://www.w3.org/2000/svg">
<g clip-path="url(#clip0_132_283)">
<path d="M12.006 15.993C12.5786 16.7584 13.3092 17.3917 14.148 17.85C14.9869 18.3083 15.9146 18.5808 16.868 18.6491C17.8215 18.7174 18.7785 18.5798 19.6741 18.2458C20.5698 17.9117 21.3831 17.389 22.059 16.713L26.059 12.713C26.6837 12.0953 27.1801 11.3602 27.5197 10.5499C27.8593 9.73968 28.0354 8.87031 28.0378 7.99178C28.0403 7.11325 27.8691 6.24291 27.534 5.43078C27.1989 4.61865 26.7066 3.88077 26.0854 3.25956C25.4642 2.63834 24.7263 2.14605 23.9142 1.81099C23.1021 1.47592 22.2317 1.3047 21.3532 1.30716C20.4747 1.30961 19.6053 1.48571 18.7951 1.82531C17.9848 2.16491 17.2497 2.66132 16.632 3.28601L14.34 5.56701" stroke="#673DE6" stroke-width="2.667" stroke-linecap="round" stroke-linejoin="round"/>
<path d="M17.34 13.3269C16.7673 12.5615 16.0368 11.9282 15.1979 11.4699C14.359 11.0117 13.4314 10.7391 12.4779 10.6708C11.5245 10.6026 10.5675 10.7401 9.67183 11.0741C8.77619 11.4082 7.96285 11.9309 7.28698 12.6069L3.28698 16.6069C2.6623 17.2246 2.16589 17.9598 1.82629 18.77C1.48668 19.5802 1.31059 20.4496 1.30813 21.3281C1.30567 22.2067 1.4769 23.077 1.81196 23.8891C2.14702 24.7013 2.63932 25.4392 3.26053 26.0604C3.88175 26.6816 4.61963 27.1739 5.43176 27.5089C6.24388 27.844 7.11423 28.0152 7.99276 28.0128C8.87128 28.0103 9.74066 27.8342 10.5509 27.4946C11.3611 27.155 12.0963 26.6586 12.714 26.0339L14.993 23.7529" stroke="#673DE6" stroke-width="2.667" stroke-linecap="round" stroke-linejoin="round"/>
</g>
<defs>
<clipPath id="clip0_132_283">
<rect width="29.346" height="29.32" fill="white"/>
</clipPath>
</defs>
</svg>
