<svg xmlns="http://www.w3.org/2000/svg" width="396.32" height="361" viewBox="0 0 396.32 361">
  <g id="Group_4762" data-name="Group 4762" transform="translate(-229.34 -2757)">
    <g id="Group_4761" data-name="Group 4761" transform="translate(428.456 2757)">
      <path id="Path_2486" data-name="Path 2486" d="M288.493,367.039a38.716,38.716,0,0,0,9.6-1.242l.618-.171.573-.287c20.724-10.39,38.207-24.115,51.965-40.792a154.424,154.424,0,0,0,26.238-46.59,179.321,179.321,0,0,0,10.14-63.17c-.009-.451-.016-.8-.016-1.04,0-10.448-5.8-19.616-14.775-23.356-6.87-2.862-69.241-28.481-73.748-30.332-8.487-4.253-17.541-.7-18.99-.082-3.25,1.329-60.909,24.912-73.37,30.845-12.841,6.115-16.268,17.1-16.268,22.627,0,25.022,4.334,48.407,12.88,69.505a160.939,160.939,0,0,0,28.922,46.611c23.61,26.57,47.226,35.989,47.454,36.072A25.8,25.8,0,0,0,288.493,367.039Zm5.554-13.757c-2.047.459-6.761,1.148-9.834.027-3.9-1.423-23.67-11.674-42.141-32.46-25.521-28.72-38.47-64.823-38.489-107.307.046-.861.657-7,8.786-10.871,12.219-5.818,72.15-30.324,72.754-30.571l.166-.07c1.256-.526,5.253-1.635,8.008-.191l.552.257c.668.274,66.877,27.468,73.938,30.41,4.939,2.058,6.7,7.157,6.7,11.242,0,.3.008.733.019,1.294.564,29.069-6.163,100.6-80.459,138.24Z" transform="translate(-190.459 -157.999)" fill="#3f3d56"/>
      <path id="Path_2487" data-name="Path 2487" d="M302.506,172.213s66.811,27.44,73.969,30.423,10.737,10.141,10.737,17.3S392.581,320.5,302.506,365.66c0,0-8.175,2.262-14.378,0s-84.943-40.439-84.943-146.024c0,0,0-10.737,12.527-16.7s73.093-30.721,73.093-30.721S296.243,168.932,302.506,172.213Z" transform="translate(-196.623 -164.186)" fill="#07ca8d"/>
      <path id="Path_2488" data-name="Path 2488" d="M251.946,215.286V361.669s67.407-32.447,66.811-117.75Z" transform="translate(-153.221 -185.785)" opacity="0.1"/>
      <path id="Path_2489" data-name="Path 2489" d="M172.708,204.594l-21.473-27.609,12.487-9.712,10.167,13.072,34.347-36.258,11.486,10.882Z" transform="translate(-100.404 -69.886)" fill="#fff"/>
    </g>
    <g id="Group_4760" data-name="Group 4760" transform="translate(229.34 2799.46)">
      <path id="Path_2490" data-name="Path 2490" d="M627.038,741.211h189.64a.617.617,0,0,0,0-1.211H627.038a.617.617,0,0,0,0,1.211Z" transform="translate(-626.54 -422.671)" fill="#cacaca"/>
      <path id="Path_2491" data-name="Path 2491" d="M561.024,544.709h-9.365L547.2,508.583h13.823Z" transform="translate(-437.689 -235.715)" fill="#ffb8b8"/>
      <path id="Path_2492" data-name="Path 2492" d="M763.925,721.187H745.479a11.755,11.755,0,0,0-11.754,11.754v.383h30.2Z" transform="translate(-638.2 -415.251)" fill="#2f2e41"/>
      <path id="Path_2493" data-name="Path 2493" d="M613.024,544.709h-9.365L599.2,508.583h13.823Z" transform="translate(-521.179 -235.715)" fill="#ffb8b8"/>
      <path id="Path_2494" data-name="Path 2494" d="M815.925,721.187H797.479a11.755,11.755,0,0,0-11.754,11.754v.383h30.2Z" transform="translate(-721.691 -415.251)" fill="#2f2e41"/>
      <path id="Path_2495" data-name="Path 2495" d="M520.064,352.7l-2.247,114.608,18.174-1.127,12.608-73,3.982-49.773Z" transform="translate(-411.448 -170.568)" fill="#2f2e41"/>
      <path id="Path_2496" data-name="Path 2496" d="M710.83,467.25l-2.547,135.67,21.2-.606,4.578-80.646,7.963-29.2L774.538,477.2l-5.309-36.5-47.781-.664Z" transform="translate(-633.405 -304.364)" fill="#2f2e41"/>
      <ellipse id="Ellipse_221" data-name="Ellipse 221" cx="16.253" cy="16.253" rx="16.253" ry="16.253" transform="translate(97.715 8.936)" fill="#ffb8b8"/>
      <path id="Path_2497" data-name="Path 2497" d="M542.286,137.738l-2.49,3.772-6.637,18.581,5.309,72.335,31.191.664,3.981-82.954L565.3,139.71Z" transform="translate(-441.799 -89.45)" fill="#07ca8d"/>
      <path id="Path_2498" data-name="Path 2498" d="M683.139,319.067l5.309-.664s1.327.664,1.991,5.309,8.627,45.79,8.627,45.79l-10.618,50.436L676.5,404.011l7.3-27.872-7.3-27.872Z" transform="translate(-538.688 -256.389)" fill="#2f2e41"/>
      <path id="Path_2499" data-name="Path 2499" d="M624.9,160.4h-3.982l-9.955,53.753,9.291,41.809,9.291-15.263-2.654-16.591,1.327-14.6,4.645-8.628Z" transform="translate(-548.139 -98.389)" fill="#2f2e41"/>
      <path id="Path_2500" data-name="Path 2500" d="M732.532,241.189l2.955-.739s2.216-12.559,7.388-11.082,18.469,2.955,18.469-2.955-12.559-11.082-19.947-10.343-16.823,3.19-19.208,14.037c-3.823,17.388,7.889,21.78,7.889,21.78l-.2-.633a9.86,9.86,0,0,1,2.649-10.066Z" transform="translate(-628.169 -216)" fill="#2f2e41"/>
      <path id="Path_2501" data-name="Path 2501" d="M774.388,309.11l-21.236-8.627-4.977-3.65-14.932,66.031-6.968-68.022L698.734,309.11l9.291,45.127,1.327,17.254-3.982,13.936S691.434,395.382,696.08,406s9.955,11.282,9.955,11.282,22.563-21.236,23.89-26.545,3.318-14.6,3.318-14.6,11.282,42.472,24.554,41.809,13.273-14.6,13.273-14.6l-3.318-14.6-5.309-15.263,2.654-25.218Z" transform="translate(-625.291 -247.096)" fill="#2f2e41"/>
    </g>
  </g>
</svg>
