<svg width="575" height="314" viewBox="0 0 575 314" fill="none" xmlns="http://www.w3.org/2000/svg">
<g clip-path="url(#clip0_390_846)">
<path d="M281.115 141.771C290.951 141.3 309.035 138.183 326.127 123.329C327.207 122.39 328.884 122.39 329.964 123.329C347.057 138.183 365.141 141.298 374.977 141.771C379.259 141.977 382.641 145.203 382.725 149.176C383.845 201.762 362.807 235.866 328.045 246.315C293.282 235.866 272.244 201.762 273.364 149.176C273.448 145.205 276.83 141.977 281.113 141.771H281.115Z" fill="white"/>
<path d="M327.895 246.817C319.164 244.194 311.244 240.06 304.351 234.533C297.436 228.987 291.53 222.015 286.794 213.809C281.995 205.493 278.376 195.861 276.035 185.181C273.638 174.252 272.563 162.133 272.841 149.164C272.932 144.943 276.554 141.466 281.09 141.246C290.427 140.798 308.647 137.824 325.783 122.933C327.053 121.831 329.041 121.829 330.31 122.933C347.446 137.824 365.666 140.798 375.004 141.246C379.54 141.463 383.162 144.94 383.252 149.164C383.528 162.135 382.453 174.252 380.058 185.181C377.718 195.861 374.098 205.493 369.299 213.809C364.566 222.015 358.658 228.987 351.742 234.533C344.852 240.06 336.929 244.194 328.047 246.84C327.995 246.84 327.945 246.833 327.895 246.817ZM326.474 123.728C309.098 138.826 290.613 141.844 281.142 142.296C277.156 142.489 273.971 145.513 273.894 149.187C272.814 199.822 292.551 235.013 328.049 245.765C363.547 235.013 383.282 199.822 382.204 149.187C382.125 145.515 378.942 142.489 374.956 142.296C365.483 141.841 346.998 138.826 329.622 123.728C329.181 123.345 328.615 123.153 328.049 123.153C327.483 123.153 326.917 123.345 326.476 123.728H326.474Z" fill="#FC5185"/>
<path d="M285.142 149.486C291.27 148.963 309.247 146.208 326.141 131.709C327.216 130.786 328.875 130.786 329.95 131.709C346.844 146.208 364.822 148.963 370.949 149.486C372.212 149.594 373.197 150.552 373.251 151.724C375.404 197.681 357.777 227.257 328.047 236.194C298.316 227.257 280.689 197.678 282.842 151.724C282.896 150.55 283.881 149.594 285.144 149.486H285.142Z" fill="#FC5185"/>
<path d="M326.218 240.142C326.218 241.152 327.035 241.971 328.047 241.971C329.059 241.971 329.874 241.154 329.874 240.142C329.874 239.13 329.056 238.315 328.047 238.315C327.037 238.315 326.218 239.132 326.218 240.142Z" fill="#FC5185"/>
<path d="M326.218 127.825C326.218 128.835 327.035 129.654 328.047 129.654C329.059 129.654 329.874 128.837 329.874 127.825C329.874 126.813 329.056 125.996 328.047 125.996C327.037 125.996 326.218 126.813 326.218 127.825Z" fill="#FC5185"/>
<path d="M345.513 138.591C345.513 139.6 346.33 140.418 347.342 140.418C348.354 140.418 349.171 139.6 349.171 138.591C349.171 137.581 348.352 136.762 347.342 136.762C346.333 136.762 345.513 137.579 345.513 138.591Z" fill="#FC5185"/>
<path d="M367.898 147.301C368.908 147.301 369.727 146.482 369.727 145.472C369.727 144.462 368.908 143.643 367.898 143.643C366.888 143.643 366.069 144.462 366.069 145.472C366.069 146.482 366.888 147.301 367.898 147.301Z" fill="#FC5185"/>
<path d="M378.373 159.031C379.37 158.869 380.047 157.929 379.885 156.932C379.723 155.935 378.784 155.258 377.787 155.42C376.79 155.582 376.113 156.521 376.275 157.518C376.436 158.515 377.376 159.193 378.373 159.031Z" fill="#FC5185"/>
<path d="M374.419 178.533C374.419 179.542 375.237 180.362 376.246 180.362C377.256 180.362 378.075 179.542 378.075 178.533C378.075 177.523 377.258 176.704 376.246 176.704C375.234 176.704 374.419 177.521 374.419 178.533Z" fill="#FC5185"/>
<path d="M369.125 199.474C369.125 200.483 369.942 201.303 370.952 201.303C371.961 201.303 372.781 200.485 372.781 199.474C372.781 198.462 371.964 197.645 370.952 197.645C369.94 197.645 369.125 198.462 369.125 199.474Z" fill="#FC5185"/>
<path d="M362.959 218.424C363.345 217.491 362.902 216.421 361.969 216.034C361.036 215.648 359.966 216.091 359.579 217.024C359.193 217.958 359.636 219.027 360.569 219.414C361.502 219.801 362.572 219.357 362.959 218.424Z" fill="#FC5185"/>
<path d="M345.384 231.373C345.384 232.382 346.201 233.199 347.213 233.199C348.225 233.199 349.042 232.382 349.042 231.373C349.042 230.363 348.225 229.544 347.213 229.544C346.201 229.544 345.384 230.361 345.384 231.373Z" fill="#FC5185"/>
<path d="M280.099 157.65C280.331 156.667 279.722 155.682 278.739 155.45C277.755 155.218 276.77 155.827 276.538 156.81C276.306 157.793 276.915 158.778 277.898 159.01C278.881 159.242 279.866 158.634 280.099 157.65Z" fill="#FC5185"/>
<path d="M281.98 178.533C281.98 179.542 281.162 180.362 280.153 180.362C279.143 180.362 278.324 179.542 278.324 178.533C278.324 177.523 279.141 176.704 280.153 176.704C281.165 176.704 281.98 177.521 281.98 178.533Z" fill="#FC5185"/>
<path d="M287.274 199.474C287.274 200.483 286.457 201.303 285.448 201.303C284.438 201.303 283.619 200.485 283.619 199.474C283.619 198.462 284.436 197.645 285.448 197.645C286.46 197.645 287.274 198.462 287.274 199.474Z" fill="#FC5185"/>
<path d="M296.958 217.725C296.958 218.735 296.141 219.554 295.129 219.554C294.117 219.554 293.302 218.737 293.302 217.725C293.302 216.713 294.119 215.896 295.129 215.896C296.139 215.896 296.958 216.716 296.958 217.725Z" fill="#FC5185"/>
<path d="M311.015 231.373C311.015 232.382 310.198 233.199 309.186 233.199C308.174 233.199 307.357 232.382 307.357 231.373C307.357 230.363 308.176 229.544 309.186 229.544C310.196 229.544 311.015 230.361 311.015 231.373Z" fill="#FC5185"/>
<path d="M311.092 138.591C311.092 139.6 310.275 140.418 309.263 140.418C308.251 140.418 307.434 139.6 307.434 138.591C307.434 137.581 308.251 136.762 309.263 136.762C310.275 136.762 311.092 137.579 311.092 138.591Z" fill="#FC5185"/>
<path d="M288.705 147.301C289.715 147.301 290.534 146.482 290.534 145.472C290.534 144.462 289.715 143.643 288.705 143.643C287.695 143.643 286.876 144.462 286.876 145.472C286.876 146.482 287.695 147.301 288.705 147.301Z" fill="#FC5185"/>
<path d="M324.215 159.065H331.922C334.632 159.065 336.83 161.263 336.83 163.973V174.153C336.83 176.086 335.712 177.758 334.086 178.558C334.308 178.175 334.437 177.729 334.437 177.254V164.118C334.437 162.685 333.276 161.524 331.843 161.524H324.298C322.865 161.524 321.704 162.685 321.704 164.118V177.254C321.704 177.729 321.831 178.173 322.055 178.558C320.43 177.758 319.312 176.086 319.312 174.153V163.973C319.312 161.263 321.509 159.065 324.219 159.065H324.215Z" fill="white"/>
<path d="M321.82 179.028C319.945 178.107 318.782 176.237 318.782 174.15V163.971C318.782 160.976 321.22 158.538 324.214 158.538H331.922C334.919 158.538 337.355 160.976 337.355 163.971V174.15C337.355 176.237 336.191 178.105 334.317 179.028C334.109 179.13 333.86 179.085 333.701 178.915C333.543 178.745 333.516 178.492 333.631 178.293C333.815 177.978 333.91 177.62 333.91 177.254V164.118C333.91 162.977 332.982 162.049 331.841 162.049H324.296C323.155 162.049 322.227 162.977 322.227 164.118V177.254C322.227 177.62 322.324 177.978 322.505 178.293C322.623 178.492 322.594 178.745 322.435 178.915C322.333 179.024 322.193 179.083 322.05 179.083C321.971 179.083 321.892 179.065 321.82 179.028ZM334.962 164.118C334.962 164.118 334.962 177.254 334.962 177.313C335.811 176.502 336.305 175.373 336.305 174.152V163.973C336.305 161.558 334.34 159.591 331.922 159.591H324.214C321.799 159.591 319.832 161.555 319.832 163.973V174.152C319.832 175.373 320.326 176.502 321.174 177.256V164.12C321.174 162.4 322.573 160.999 324.296 160.999H331.841C333.561 160.999 334.962 162.4 334.962 164.12V164.118Z" fill="#2F2E41"/>
<path d="M318.872 170.866H337.221C339.059 170.866 340.551 172.357 340.551 174.196V194.312C340.551 196.15 339.059 197.642 337.221 197.642H318.872C317.034 197.642 315.542 196.15 315.542 194.312V174.196C315.542 172.357 317.034 170.866 318.872 170.866Z" fill="white"/>
<path d="M315.015 194.315V174.198C315.015 172.072 316.745 170.341 318.872 170.341H337.221C339.347 170.341 341.079 172.07 341.079 174.198V194.315C341.079 196.44 339.349 198.172 337.221 198.172H318.872C316.747 198.172 315.015 196.443 315.015 194.315ZM318.872 171.393C317.326 171.393 316.068 172.652 316.068 174.198V194.315C316.068 195.861 317.326 197.119 318.872 197.119H337.221C338.767 197.119 340.026 195.861 340.026 194.315V174.198C340.026 172.652 338.767 171.393 337.221 171.393H318.872Z" fill="#2F2E41"/>
<path d="M325.89 181.885C325.89 180.694 326.854 179.73 328.045 179.73C329.235 179.73 330.2 180.697 330.2 181.885C330.2 182.7 329.747 183.411 329.079 183.777V186.772H327.01V183.777C326.342 183.411 325.89 182.702 325.89 181.885Z" fill="#2F2E41"/>
<path d="M322.893 187.15V179.348C322.893 178.22 323.809 177.303 324.937 177.303H331.159C332.287 177.303 333.203 178.22 333.203 179.348V187.15C333.203 188.278 332.287 189.194 331.159 189.194H324.937C323.809 189.194 322.893 188.278 322.893 187.15ZM324.937 178.356C324.389 178.356 323.945 178.802 323.945 179.348V187.15C323.945 187.698 324.389 188.142 324.937 188.142H331.159C331.707 188.142 332.151 187.698 332.151 187.15V179.348C332.151 178.8 331.705 178.356 331.159 178.356H324.937Z" fill="#2F2E41"/>
<path d="M474.678 289.394C474.429 289.245 474.348 288.921 474.497 288.672C475.57 286.881 476.625 285.048 477.63 283.221C477.77 282.968 478.089 282.875 478.343 283.015C478.599 283.155 478.689 283.475 478.549 283.728C477.537 285.566 476.478 287.411 475.396 289.213C475.298 289.378 475.124 289.469 474.945 289.469C474.852 289.469 474.76 289.444 474.676 289.394H474.678ZM175.929 280.731C174.951 278.87 173.998 276.967 173.092 275.074C172.968 274.812 173.079 274.499 173.339 274.372C173.599 274.246 173.914 274.359 174.041 274.619C174.939 276.498 175.888 278.39 176.859 280.242C176.992 280.5 176.895 280.817 176.637 280.953C176.56 280.994 176.476 281.014 176.393 281.014C176.202 281.014 176.021 280.912 175.926 280.733L175.929 280.731ZM482.651 274.59C482.388 274.465 482.277 274.153 482.399 273.89C483.291 272.002 484.16 270.074 484.98 268.157C485.093 267.889 485.403 267.767 485.67 267.88C485.937 267.996 486.062 268.304 485.946 268.571C485.12 270.499 484.246 272.442 483.35 274.338C483.26 274.529 483.072 274.64 482.875 274.64C482.8 274.64 482.723 274.624 482.651 274.59ZM168.837 265.427C168.049 263.478 167.286 261.49 166.573 259.516C166.473 259.242 166.616 258.941 166.888 258.844C167.162 258.744 167.463 258.887 167.562 259.159C168.273 261.119 169.029 263.095 169.812 265.03C169.921 265.3 169.792 265.605 169.326 265.753C169.117 265.753 168.92 265.628 168.839 265.424L168.837 265.427ZM489.125 259.073C488.851 258.975 488.708 258.674 488.805 258.4C489.505 256.438 490.179 254.432 490.809 252.44C490.897 252.164 491.191 252.01 491.467 252.098C491.744 252.187 491.898 252.481 491.812 252.757C491.18 254.76 490.501 256.78 489.797 258.753C489.72 258.968 489.518 259.102 489.301 259.102C489.242 259.102 489.183 259.093 489.125 259.07V259.073ZM163.291 249.495C162.7 247.481 162.139 245.427 161.622 243.39C161.552 243.109 161.722 242.822 162.003 242.752C162.283 242.679 162.571 242.851 162.641 243.132C163.155 245.156 163.712 247.198 164.3 249.199C164.382 249.477 164.223 249.769 163.796 249.873C163.567 249.873 163.359 249.724 163.291 249.495ZM494.032 242.992C493.751 242.922 493.579 242.636 493.65 242.356C494.152 240.33 494.625 238.27 495.053 236.228C495.112 235.943 495.39 235.762 495.676 235.821C495.959 235.879 496.142 236.158 496.083 236.443C495.653 238.496 495.178 240.572 494.671 242.609C494.612 242.849 494.397 243.008 494.161 243.008C494.118 243.008 494.077 243.003 494.034 242.992H494.032ZM159.347 233.093C158.958 231.031 158.603 228.932 158.288 226.854C158.245 226.567 158.442 226.3 158.73 226.257C159.019 226.214 159.284 226.411 159.327 226.698C159.639 228.763 159.993 230.85 160.38 232.898C160.434 233.183 160.246 233.457 159.861 233.521C159.615 233.521 159.393 233.344 159.345 233.093H159.347ZM497.328 226.508C497.041 226.465 496.841 226.2 496.884 225.913C497.185 223.848 497.453 221.75 497.677 219.676C497.708 219.389 497.969 219.178 498.256 219.21C498.546 219.242 498.754 219.5 498.722 219.79C498.496 221.877 498.227 223.989 497.923 226.064C497.885 226.327 497.661 226.515 497.405 226.515C497.38 226.515 497.355 226.515 497.328 226.508ZM157.039 216.383C156.853 214.291 156.706 212.168 156.597 210.069C156.581 209.78 156.805 209.533 157.095 209.517C157.385 209.499 157.632 209.725 157.647 210.015C157.756 212.1 157.903 214.212 158.087 216.29C158.112 216.58 157.899 216.833 157.561 216.863C157.292 216.863 157.063 216.657 157.039 216.383ZM498.99 209.782C498.7 209.768 498.476 209.522 498.489 209.232C498.587 207.149 498.648 205.035 498.67 202.946C498.675 202.658 498.908 202.425 499.202 202.425C499.492 202.427 499.725 202.667 499.723 202.957C499.7 205.06 499.639 207.188 499.54 209.282C499.526 209.562 499.295 209.782 499.014 209.782C499.005 209.782 498.999 209.782 498.99 209.782ZM156.894 200.055C156.604 200.055 156.371 199.815 156.373 199.525C156.391 197.423 156.448 195.295 156.543 193.201C156.556 192.911 156.803 192.689 157.091 192.698C157.38 192.712 157.604 192.956 157.593 193.246C157.5 195.329 157.444 197.443 157.426 199.532C157.423 199.822 157.188 200.053 156.9 200.053H156.896L156.894 200.055ZM498.469 192.472C498.365 190.387 498.222 188.278 498.043 186.199C498.018 185.91 498.233 185.656 498.521 185.631C498.811 185.606 499.064 185.821 499.089 186.109C499.27 188.198 499.413 190.322 499.517 192.42C499.531 192.71 499.309 192.956 498.992 192.972C498.713 192.972 498.48 192.753 498.467 192.472H498.469ZM157.804 183.27C157.514 183.239 157.306 182.981 157.337 182.691C157.559 180.602 157.824 178.49 158.123 176.414C158.164 176.126 158.431 175.927 158.718 175.968C159.006 176.009 159.205 176.276 159.164 176.563C158.868 178.625 158.605 180.726 158.385 182.802C158.356 183.071 158.13 183.27 157.863 183.27C157.844 183.27 157.824 183.27 157.806 183.268L157.804 183.27ZM496.823 175.796C496.518 173.734 496.169 171.647 495.786 169.596C495.732 169.311 495.922 169.037 496.208 168.982C496.493 168.93 496.767 169.118 496.821 169.403C497.206 171.468 497.557 173.566 497.864 175.642C497.908 175.929 497.708 176.197 497.344 176.244C497.088 176.244 496.864 176.056 496.825 175.796H496.823ZM160.348 166.655C160.065 166.596 159.882 166.318 159.941 166.035C160.368 163.977 160.839 161.902 161.339 159.867C161.41 159.586 161.695 159.412 161.976 159.482C162.256 159.552 162.431 159.837 162.36 160.118C161.862 162.139 161.394 164.204 160.97 166.248C160.918 166.497 160.701 166.667 160.457 166.667C160.42 166.667 160.386 166.662 160.35 166.655H160.348ZM493.548 159.362C493.041 157.34 492.486 155.299 491.904 153.293C491.823 153.015 491.984 152.723 492.262 152.641C492.54 152.56 492.832 152.72 492.914 152.999C493.5 155.016 494.057 157.069 494.569 159.104C494.639 159.385 494.469 159.672 494.059 159.758C493.824 159.758 493.609 159.6 493.55 159.36L493.548 159.362ZM164.52 150.371C164.241 150.285 164.088 149.99 164.176 149.712C164.803 147.706 165.477 145.687 166.177 143.711C166.274 143.437 166.575 143.295 166.847 143.392C167.121 143.489 167.263 143.79 167.166 144.062C166.469 146.027 165.801 148.035 165.176 150.027C165.106 150.251 164.898 150.396 164.676 150.396C164.624 150.396 164.57 150.389 164.52 150.371ZM488.667 143.329C487.959 141.359 487.205 139.376 486.424 137.436C486.315 137.167 486.447 136.861 486.716 136.753C486.985 136.644 487.291 136.775 487.4 137.045C488.185 138.996 488.944 140.99 489.657 142.973C489.754 143.247 489.614 143.548 489.161 143.677C488.946 143.677 488.744 143.544 488.667 143.329ZM170.274 134.595C170.007 134.482 169.882 134.172 169.996 133.905C170.815 131.979 171.682 130.041 172.572 128.146C172.694 127.884 173.008 127.771 173.271 127.895C173.534 128.02 173.647 128.332 173.525 128.595C172.64 130.478 171.777 132.404 170.964 134.317C170.878 134.516 170.686 134.636 170.48 134.636C170.412 134.636 170.342 134.623 170.274 134.593V134.595ZM482.212 127.829C481.315 125.944 480.369 124.047 479.4 122.193C479.267 121.935 479.366 121.618 479.622 121.485C479.88 121.351 480.197 121.451 480.33 121.706C481.306 123.572 482.257 125.48 483.16 127.377C483.284 127.639 483.174 127.952 482.911 128.078C482.839 128.112 482.762 128.131 482.685 128.131C482.488 128.131 482.3 128.02 482.209 127.829H482.212ZM177.549 119.472C177.294 119.332 177.201 119.013 177.341 118.759C178.348 116.919 179.403 115.074 180.474 113.277C180.623 113.028 180.945 112.946 181.194 113.093C181.443 113.243 181.524 113.564 181.375 113.813C180.309 115.601 179.261 117.435 178.26 119.262C178.165 119.436 177.984 119.536 177.798 119.536C177.712 119.536 177.626 119.515 177.547 119.47L177.549 119.472ZM474.262 113.05C473.184 111.262 472.057 109.469 470.911 107.722C470.753 107.479 470.821 107.153 471.063 106.993C471.305 106.834 471.631 106.902 471.792 107.144C472.944 108.903 474.078 110.707 475.163 112.507C475.312 112.756 475.233 113.077 474.984 113.229C474.9 113.281 474.805 113.306 474.712 113.306C474.533 113.306 474.359 113.215 474.262 113.053V113.05ZM186.28 105.128C186.04 104.965 185.979 104.636 186.142 104.396C187.324 102.665 188.555 100.931 189.8 99.2445C189.972 99.0113 190.303 98.9615 190.536 99.1335C190.769 99.3056 190.819 99.6361 190.647 99.8692C189.409 101.546 188.186 103.269 187.011 104.992C186.909 105.141 186.744 105.22 186.577 105.22C186.475 105.22 186.371 105.191 186.28 105.13V105.128ZM464.901 99.129C463.654 97.4562 462.357 95.7834 461.049 94.1558C460.868 93.9294 460.902 93.599 461.128 93.4156C461.354 93.2345 461.685 93.2685 461.868 93.4948C463.186 95.1314 464.49 96.8156 465.746 98.4975C465.92 98.7306 465.873 99.0588 465.639 99.2331C465.544 99.3033 465.433 99.3373 465.325 99.3373C465.164 99.3373 465.006 99.2648 464.904 99.1267L464.901 99.129ZM196.376 91.6998C196.154 91.5142 196.125 91.1814 196.31 90.9596C197.657 89.3524 199.052 87.7452 200.455 86.1856C200.65 85.9705 200.982 85.9524 201.197 86.1471C201.413 86.3418 201.431 86.6745 201.236 86.8896C199.839 88.4401 198.454 90.036 197.116 91.6341C197.012 91.7586 196.863 91.822 196.713 91.822C196.593 91.822 196.473 91.7813 196.376 91.6998ZM454.228 86.1969C452.823 84.6553 451.372 83.1161 449.909 81.6266C449.706 81.4184 449.71 81.0856 449.916 80.8841C450.125 80.6804 450.457 80.6849 450.659 80.8909C452.128 82.3895 453.59 83.9378 455.003 85.4884C455.197 85.7034 455.184 86.0362 454.969 86.2308C454.867 86.3236 454.74 86.3667 454.616 86.3667C454.473 86.3667 454.33 86.3101 454.226 86.1946L454.228 86.1969ZM207.739 79.3154C207.536 79.1072 207.538 78.7744 207.746 78.573C209.245 77.1016 210.791 75.637 212.339 74.2223C212.554 74.0253 212.887 74.0412 213.082 74.2562C213.276 74.4713 213.263 74.804 213.048 74.9987C211.506 76.4044 209.971 77.8599 208.482 79.3222C208.38 79.4218 208.246 79.4739 208.113 79.4739C207.979 79.4739 207.841 79.4218 207.737 79.3177L207.739 79.3154ZM442.351 74.3717C440.803 72.975 439.207 71.5851 437.611 70.2451C437.389 70.0595 437.36 69.7267 437.546 69.5049C437.731 69.283 438.064 69.2536 438.286 69.4392C439.893 70.7861 441.498 72.1827 443.055 73.5907C443.27 73.7854 443.288 74.1181 443.094 74.3332C442.99 74.4486 442.847 74.5075 442.702 74.5075C442.578 74.5075 442.451 74.4622 442.351 74.3717ZM220.262 68.0946C220.081 67.8683 220.115 67.5378 220.341 67.3544C221.978 66.0347 223.66 64.7263 225.339 63.4723C225.572 63.298 225.901 63.3455 226.075 63.5787C226.249 63.8118 226.202 64.1401 225.968 64.3144C224.298 65.5616 222.627 66.8609 221 68.1738C220.902 68.2531 220.785 68.2916 220.669 68.2916C220.515 68.2916 220.364 68.2236 220.26 68.0969L220.262 68.0946ZM429.381 63.7666C427.703 62.5261 425.981 61.3015 424.263 60.1266C424.023 59.9637 423.961 59.6354 424.124 59.3955C424.287 59.1555 424.616 59.0944 424.856 59.2574C426.585 60.4413 428.317 61.6727 430.005 62.92C430.239 63.092 430.288 63.4225 430.116 63.6556C430.012 63.796 429.854 63.8684 429.693 63.8684C429.584 63.8684 429.476 63.8345 429.381 63.7643V63.7666ZM233.825 58.146C233.667 57.9037 233.733 57.5778 233.977 57.4171C235.734 56.2626 237.538 55.1285 239.335 54.0397C239.584 53.8903 239.908 53.9696 240.057 54.2186C240.207 54.4676 240.127 54.789 239.878 54.9407C238.092 56.0204 236.3 57.15 234.552 58.2954C234.464 58.3542 234.364 58.3814 234.265 58.3814C234.093 58.3814 233.925 58.2976 233.825 58.1437V58.146ZM415.446 54.4811C413.657 53.4127 411.824 52.3624 409.999 51.3619C409.744 51.2215 409.651 50.9023 409.791 50.6488C409.931 50.3953 410.251 50.3002 410.504 50.4406C412.34 51.4479 414.185 52.505 415.984 53.5802C416.233 53.7296 416.315 54.051 416.166 54.3C416.068 54.4653 415.892 54.5558 415.713 54.5558C415.62 54.5558 415.527 54.5309 415.443 54.4811H415.446ZM248.308 49.5713C248.172 49.3133 248.272 48.9964 248.53 48.8628C250.393 47.8872 252.301 46.9342 254.198 46.0287C254.461 45.9042 254.773 46.0152 254.9 46.2755C255.024 46.5381 254.913 46.8504 254.651 46.9772C252.765 47.8759 250.871 48.8243 249.017 49.7954C248.94 49.8362 248.856 49.8543 248.774 49.8543C248.584 49.8543 248.403 49.7524 248.308 49.5736V49.5713ZM400.675 46.6128C398.792 45.7254 396.868 44.863 394.955 44.0458C394.688 43.9326 394.564 43.6225 394.677 43.3554C394.79 43.0883 395.1 42.9638 395.367 43.077C397.294 43.8987 399.229 44.7679 401.124 45.6598C401.386 45.7843 401.499 46.0966 401.375 46.3592C401.284 46.5494 401.097 46.6603 400.9 46.6603C400.825 46.6603 400.748 46.6444 400.675 46.6105V46.6128ZM263.57 42.4613C263.461 42.1919 263.59 41.8863 263.859 41.7776C265.813 40.9899 267.807 40.2293 269.786 39.514C270.059 39.4167 270.36 39.557 270.458 39.8309C270.555 40.1048 270.415 40.4059 270.141 40.5032C268.174 41.2117 266.193 41.97 264.056 42.7895C263.848 42.7895 263.651 42.665 263.57 42.459V42.4613ZM385.213 40.2406C383.248 39.5412 381.242 38.8711 379.252 38.2441C378.976 38.1581 378.822 37.8616 378.908 37.5854C378.994 37.307 379.291 37.1553 379.567 37.2413C381.57 37.8706 383.59 38.5474 385.566 39.2492C385.84 39.3465 385.982 39.6476 385.885 39.9215C385.808 40.1365 385.606 40.2723 385.389 40.2723C385.33 40.2723 385.271 40.2633 385.213 40.2406ZM279.451 36.8972C279.37 36.6188 279.53 36.3268 279.809 36.2453C281.824 35.6568 283.877 35.0977 285.914 34.5838C286.195 34.5136 286.482 34.6834 286.552 34.9641C286.622 35.2448 286.453 35.5323 286.172 35.6025C284.148 36.1118 282.109 36.6686 279.958 37.2753C279.73 37.2753 279.521 37.1259 279.454 36.8972H279.451ZM369.163 35.4146C367.14 34.9143 365.078 34.4435 363.034 34.0179C362.748 33.9591 362.567 33.6806 362.626 33.3954C362.685 33.1102 362.963 32.9291 363.249 32.988C365.304 33.4158 367.38 33.8889 369.417 34.3937C369.698 34.4638 369.872 34.7491 369.802 35.0298C369.743 35.2697 369.528 35.4282 369.293 35.4282C369.249 35.4282 369.209 35.4236 369.166 35.4123L369.163 35.4146ZM295.786 32.9359C295.731 32.6507 295.919 32.3768 296.204 32.3224C298.267 31.9354 300.365 31.5822 302.443 31.2721C302.733 31.2291 302.998 31.4283 303.041 31.7158C303.084 32.0033 302.884 32.2704 302.599 32.3134C300.535 32.6212 298.45 32.9721 296.302 33.366C296.053 33.366 295.833 33.1894 295.786 32.9359ZM352.716 32.198C350.654 31.8992 348.555 31.6343 346.48 31.4125C346.19 31.3808 345.982 31.1227 346.013 30.833C346.045 30.5432 346.301 30.335 346.593 30.3667C348.682 30.5908 350.792 30.8579 352.868 31.1589C353.155 31.1997 353.354 31.4668 353.314 31.7543C353.275 32.0169 353.051 32.2047 352.793 32.2047C352.768 32.2047 352.743 32.2047 352.716 32.198ZM312.432 30.6044C312.407 30.3146 312.62 30.0611 312.91 30.0339C314.999 29.8528 317.123 29.7057 319.221 29.5993C319.515 29.5857 319.757 29.8076 319.773 30.0973C319.787 30.387 319.565 30.6338 319.275 30.6496C317.191 30.756 315.079 30.9009 312.958 31.0842C312.688 31.0842 312.46 30.8783 312.435 30.6044H312.432ZM336.033 30.6111C333.95 30.5161 331.836 30.455 329.747 30.4346C329.457 30.4323 329.224 30.1946 329.226 29.9049C329.228 29.6151 329.464 29.3843 329.756 29.3843C331.857 29.4046 333.984 29.4657 336.081 29.5608C336.37 29.5744 336.594 29.8189 336.581 30.1109C336.567 30.3916 336.336 30.6134 336.056 30.6134C336.047 30.6134 336.04 30.6134 336.031 30.6134L336.033 30.6111Z" fill="#2F2E41"/>
<path d="M325.532 60.5409H334.869L333.875 27.6616H326.525L325.532 60.5409Z" fill="#2F2E41"/>
<path d="M312.201 61.9105H348.202C348.854 61.9105 349.381 61.3831 349.381 60.7312C349.381 60.0793 348.854 59.5518 348.202 59.5518H312.201C311.549 59.5518 311.021 60.0793 311.021 60.7312C311.021 61.3831 311.549 61.9105 312.201 61.9105Z" fill="#2F2E41"/>
<path d="M294.216 0H366.182C367.861 0 369.226 1.36497 369.226 3.04458V44.4758C369.226 46.1554 367.861 47.5204 366.182 47.5204H294.216C292.537 47.5204 291.172 46.1554 291.172 44.4758V3.04458C291.172 1.36497 292.537 0 294.216 0Z" fill="#2F2E41"/>
<path d="M294.764 1.49365H365.636C366.893 1.49365 367.912 2.51265 367.912 3.76887V44.0208C367.912 45.277 366.893 46.296 365.636 46.296H294.764C293.508 46.296 292.489 45.2771 292.489 44.0208V3.76887C292.489 2.51253 293.508 1.49365 294.764 1.49365Z" fill="white" stroke="#2F2E41"/>
<path d="M309.605 14.666H290.778C288.617 14.666 286.864 16.4183 286.864 18.5798V60.4027C286.864 62.5642 288.617 64.3165 290.778 64.3165H309.605C311.766 64.3165 313.519 62.5642 313.519 60.4027V18.5798C313.519 16.4183 311.766 14.666 309.605 14.666Z" fill="#2F2E41"/>
<path d="M287.765 18.2719V60.9097C287.765 61.9193 288.478 62.7387 289.359 62.7387H311.024C311.905 62.7387 312.618 61.9193 312.618 60.9097V18.2719C312.618 17.2623 311.905 16.4429 311.024 16.4429H289.359C288.478 16.4429 287.765 17.2623 287.765 18.2719Z" fill="#673DE6"/>
<path d="M296.935 18.1431H293.236V19.2523H296.935V18.1431Z" fill="white"/>
<path d="M296.935 18.1431H295.319V19.2523H296.935V18.1431Z" fill="#2F2E41"/>
<path d="M291.824 17.9639H291.172V19.4307H291.824V17.9639Z" fill="#2F2E41"/>
<path d="M290.851 17.9639H290.199V19.4307H290.851V17.9639Z" fill="#2F2E41"/>
<path d="M289.875 17.9639H289.223V19.4307H289.875V17.9639Z" fill="#2F2E41"/>
<path d="M451.921 92.2681H520.84C524.407 92.2681 527.305 95.1656 527.305 98.7331V134.833C527.305 138.403 524.407 141.3 520.838 141.3H451.921C448.354 141.3 445.457 138.403 445.457 134.836V98.7331C445.457 95.1656 448.354 92.2681 451.921 92.2681Z" fill="white"/>
<path d="M444.929 134.835V98.733C444.929 94.8781 448.067 91.7407 451.922 91.7407H520.838C524.693 91.7407 527.83 94.8781 527.83 98.733V134.835C527.83 138.69 524.693 141.828 520.838 141.828H451.922C448.067 141.828 444.929 138.69 444.929 134.835ZM451.922 92.7933C448.646 92.7933 445.982 95.4576 445.982 98.733V134.835C445.982 138.111 448.646 140.775 451.922 140.775H520.838C524.113 140.775 526.78 138.111 526.78 134.835V98.733C526.78 95.4576 524.116 92.7933 520.838 92.7933H451.922Z" fill="#2F2E41"/>
<path d="M452.999 122.141H463.867C464.913 122.141 465.762 122.99 465.762 124.036V134.156C465.762 135.202 464.913 136.051 463.867 136.051H452.999C451.953 136.051 451.104 135.202 451.104 134.156V124.036C451.104 122.99 451.953 122.141 452.999 122.141Z" fill="#673DE6"/>
<path d="M464.823 111.771C465.895 111.518 466.559 110.444 466.306 109.372C466.053 108.3 464.979 107.636 463.907 107.889C462.835 108.142 462.171 109.217 462.424 110.288C462.677 111.36 463.751 112.024 464.823 111.771Z" fill="#2F2E41"/>
<path d="M460.96 113.537C461.073 113.537 461.187 113.501 461.282 113.426C461.51 113.247 461.551 112.917 461.375 112.688C459.842 110.719 459.84 108.844 461.368 106.957C461.551 106.73 461.515 106.4 461.291 106.216C461.064 106.033 460.734 106.069 460.551 106.293C458.694 108.584 458.692 110.954 460.544 113.333C460.648 113.467 460.802 113.537 460.96 113.537Z" fill="#2F2E41"/>
<path d="M458.185 114.361C458.296 114.361 458.407 114.327 458.502 114.255C458.733 114.08 458.778 113.75 458.604 113.519C456.777 111.106 456.779 108.684 458.613 106.11C458.783 105.875 458.726 105.544 458.491 105.377C458.255 105.209 457.927 105.263 457.757 105.499C455.652 108.453 455.654 111.364 457.766 114.153C457.87 114.289 458.026 114.361 458.185 114.361Z" fill="#2F2E41"/>
<path d="M455.41 115.183C455.512 115.183 455.614 115.153 455.704 115.092C455.944 114.929 456.008 114.603 455.845 114.361C453.83 111.389 453.832 108.414 455.851 105.266C456.008 105.021 455.938 104.695 455.693 104.539C455.449 104.383 455.123 104.453 454.966 104.697C452.728 108.19 452.73 111.64 454.973 114.952C455.075 115.101 455.24 115.183 455.41 115.183Z" fill="#2F2E41"/>
<path d="M452.637 116.004C452.73 116.004 452.823 115.979 452.906 115.93C453.155 115.78 453.237 115.457 453.087 115.208C450.858 111.491 450.856 107.968 453.081 104.439C453.237 104.195 453.162 103.869 452.915 103.715C452.671 103.561 452.345 103.634 452.191 103.88C449.767 107.724 449.764 111.719 452.184 115.751C452.282 115.916 452.456 116.007 452.635 116.007L452.637 116.004Z" fill="#2F2E41"/>
<path d="M516.492 108.595H507.109C505.551 108.595 504.289 109.858 504.289 111.416V117.525C504.289 119.083 505.551 120.346 507.109 120.346H516.492C518.05 120.346 519.312 119.083 519.312 117.525V111.416C519.312 109.858 518.05 108.595 516.492 108.595Z" fill="#673DE6"/>
<path d="M506.57 119.105H517.03C517.32 119.105 517.555 118.87 517.555 118.58C517.555 118.291 517.32 118.055 517.03 118.055H506.57C506.28 118.055 506.045 118.291 506.045 118.58C506.045 118.87 506.28 119.105 506.57 119.105Z" fill="#2F2E41"/>
<path d="M506.57 110.886H517.028C517.318 110.886 517.553 110.651 517.553 110.361C517.553 110.071 517.318 109.836 517.028 109.836H506.57C506.28 109.836 506.045 110.071 506.045 110.361C506.045 110.651 506.28 110.886 506.57 110.886Z" fill="#2F2E41"/>
<path d="M512.098 119.106C512.388 119.106 512.623 118.87 512.623 118.58V110.361C512.623 110.071 512.388 109.836 512.098 109.836C511.808 109.836 511.573 110.071 511.573 110.361V118.58C511.573 118.87 511.808 119.106 512.098 119.106Z" fill="#2F2E41"/>
<path d="M507.691 114.63H516.349C516.639 114.63 516.874 114.395 516.874 114.105C516.874 113.815 516.639 113.58 516.349 113.58H507.691C507.401 113.58 507.166 113.815 507.166 114.105C507.166 114.395 507.401 114.63 507.691 114.63Z" fill="#2F2E41"/>
<path d="M453.984 129.095C453.984 131.551 455.976 133.543 458.434 133.543C460.892 133.543 462.885 131.551 462.885 129.095C462.885 126.639 460.892 124.645 458.434 124.645C455.976 124.645 453.984 126.637 453.984 129.095Z" fill="white"/>
<path d="M519.312 126.035H471.441V131.438H519.312V126.035Z" fill="#673DE6"/>
<path d="M519.312 97.9087H484.706V103.314H519.312V97.9087Z" fill="#673DE6"/>
<path d="M430.987 133.557C430.987 143.159 438.772 150.943 448.374 150.943C457.977 150.943 465.759 143.159 465.759 133.557C465.759 123.954 457.974 116.17 448.374 116.17C438.774 116.17 430.987 123.954 430.987 133.557Z" fill="white"/>
<path d="M430.46 133.557C430.46 123.68 438.496 115.644 448.372 115.644C458.248 115.644 466.284 123.68 466.284 133.557C466.284 143.433 458.248 151.469 448.372 151.469C438.496 151.469 430.46 143.433 430.46 133.557ZM431.513 133.557C431.513 142.853 439.075 150.416 448.372 150.416C457.669 150.416 465.232 142.853 465.232 133.557C465.232 124.26 457.669 116.697 448.372 116.697C439.075 116.697 431.513 124.26 431.513 133.557Z" fill="#2F2E41"/>
<path d="M432.905 133.557C432.905 142.1 439.829 149.026 448.374 149.026C456.92 149.026 463.844 142.1 463.844 133.557C463.844 125.014 456.92 118.087 448.374 118.087C439.829 118.087 432.905 125.011 432.905 133.557Z" fill="white"/>
<path d="M432.377 133.556C432.377 124.737 439.553 117.562 448.372 117.562C457.191 117.562 464.367 124.737 464.367 133.556C464.367 142.376 457.191 149.551 448.372 149.551C439.553 149.551 432.377 142.376 432.377 133.556ZM433.43 133.556C433.43 141.796 440.133 148.499 448.375 148.499C456.616 148.499 463.317 141.796 463.317 133.556C463.317 125.317 456.614 118.612 448.375 118.612C440.135 118.612 433.43 125.315 433.43 133.556Z" fill="#2F2E41"/>
<path d="M444.262 134.125C444.753 133.579 445.645 133.059 446.928 132.563L447.695 132.271V128.581C446.65 128.663 445.597 128.912 444.533 129.333L443.791 127.476C445.024 126.969 446.326 126.691 447.693 126.643V124.971H449.042V126.673C450.287 126.804 451.274 127.169 451.999 127.768C452.723 128.371 453.087 129.136 453.087 130.068C453.087 130.94 452.832 131.673 452.325 132.264C451.813 132.857 451.007 133.364 449.898 133.79L449.045 134.104V137.896C449.66 137.889 450.36 137.79 451.136 137.597C451.913 137.405 452.592 137.167 453.171 136.882V139.021C452.096 139.508 450.722 139.763 449.045 139.791V141.93H447.695V139.727C446.344 139.58 445.312 139.188 444.594 138.552C443.877 137.916 443.519 137.11 443.519 136.128C443.519 135.338 443.766 134.668 444.262 134.12V134.125ZM450.281 129.118C450 128.869 449.586 128.701 449.042 128.622V131.775C449.669 131.526 450.104 131.27 450.348 131.012C450.588 130.756 450.706 130.437 450.706 130.05C450.706 129.663 450.566 129.369 450.278 129.118H450.281ZM447.695 137.814V134.58C447.055 134.817 446.595 135.062 446.321 135.315C446.048 135.569 445.912 135.89 445.912 136.284C445.912 137.119 446.505 137.633 447.695 137.814Z" fill="#2F2E41"/>
<path d="M458.898 139.917C458.898 146.006 463.835 150.946 469.924 150.946C476.013 150.946 480.953 146.009 480.953 139.917C480.953 133.826 476.016 128.889 469.924 128.889C463.833 128.889 458.898 133.826 458.898 139.917Z" fill="white"/>
<path d="M458.373 139.917C458.373 133.547 463.556 128.364 469.926 128.364C476.296 128.364 481.48 133.547 481.48 139.917C481.48 146.287 476.296 151.471 469.926 151.471C463.556 151.471 458.373 146.287 458.373 139.917ZM459.425 139.917C459.425 145.708 464.136 150.418 469.926 150.418C475.717 150.418 480.427 145.708 480.427 139.917C480.427 134.127 475.717 129.416 469.926 129.416C464.136 129.416 459.425 134.127 459.425 139.917Z" fill="#2F2E41"/>
<path d="M460.113 139.917C460.113 145.337 464.505 149.728 469.924 149.728C475.343 149.728 479.734 145.337 479.734 139.917C479.734 134.498 475.341 130.107 469.924 130.107C464.507 130.107 460.113 134.501 460.113 139.917Z" fill="white"/>
<path d="M467.321 140.277C467.633 139.929 468.194 139.598 469.012 139.288L469.503 139.1V136.76C468.837 136.812 468.167 136.97 467.497 137.235L467.029 136.06C467.81 135.739 468.631 135.56 469.503 135.53V134.471H470.356V135.551C471.146 135.635 471.773 135.865 472.233 136.246C472.692 136.628 472.923 137.115 472.923 137.706C472.923 138.258 472.76 138.722 472.436 139.098C472.113 139.474 471.601 139.795 470.897 140.065L470.356 140.266V142.67C470.748 142.665 471.187 142.602 471.683 142.48C472.174 142.358 472.604 142.206 472.975 142.027V143.383C472.292 143.691 471.422 143.854 470.356 143.872V145.228H469.503V143.833C468.645 143.738 467.988 143.489 467.536 143.086C467.078 142.684 466.852 142.172 466.852 141.549C466.852 141.049 467.011 140.624 467.321 140.275V140.277ZM471.139 137.101C470.961 136.943 470.7 136.837 470.354 136.785V138.786C470.755 138.625 471.028 138.466 471.182 138.301C471.336 138.138 471.413 137.937 471.413 137.69C471.413 137.443 471.318 137.258 471.139 137.099V137.101ZM469.501 142.618V140.565C469.091 140.716 468.801 140.873 468.629 141.031C468.455 141.192 468.369 141.396 468.369 141.645C468.369 142.176 468.744 142.5 469.498 142.616L469.501 142.618Z" fill="#2F2E41"/>
<path d="M217.645 93.5425H141.782V144.266H217.645V93.5425Z" fill="#673DE6"/>
<path d="M216.056 142.588C216.23 142.588 216.4 142.502 216.5 142.344C216.656 142.1 216.583 141.774 216.339 141.617L179.996 118.46C179.822 118.35 179.598 118.352 179.426 118.465L144.007 141.622C143.762 141.78 143.694 142.106 143.855 142.351C144.016 142.595 144.34 142.661 144.584 142.502L179.718 119.531L215.773 142.507C215.861 142.564 215.959 142.588 216.054 142.588H216.056Z" fill="white"/>
<path d="M215.61 96.082H143.513L179.715 125.154L215.61 96.082Z" fill="#673DE6"/>
<path d="M179.7 124.099C181.051 124.099 182.402 123.653 183.503 122.761L215.94 96.4898C216.167 96.3064 216.201 95.9759 216.017 95.7496C215.836 95.5232 215.504 95.4893 215.277 95.6726L182.839 121.944C181.026 123.411 178.391 123.418 176.574 121.958L143.841 95.6726C143.615 95.4915 143.285 95.5277 143.104 95.7541C142.922 95.9805 142.959 96.311 143.185 96.492L175.917 122.777C177.015 123.658 178.357 124.099 179.7 124.099Z" fill="white"/>
<path d="M505.459 255.224H435.979C423.563 255.224 423.072 236.731 435.474 236.115C436.961 236.04 438.553 236.042 440.255 236.128C439.126 214.266 472.833 206.71 480.192 223.86C494.44 214.948 506.998 226.854 502.833 236.45C502.833 236.45 504.065 236.364 505.966 236.463C518.131 237.097 517.637 255.224 505.457 255.224H505.459Z" fill="#673DE6"/>
<path d="M497.294 247.388H470.631V311.363H497.294V247.388Z" fill="white"/>
<path d="M470.105 311.365V247.39C470.105 247.1 470.341 246.865 470.631 246.865H497.294C497.584 246.865 497.819 247.1 497.819 247.39V311.365C497.819 311.655 497.584 311.89 497.294 311.89H470.631C470.341 311.89 470.105 311.655 470.105 311.365ZM496.769 247.915H471.158V310.84H496.769V247.915Z" fill="#2F2E41"/>
<path d="M495.218 250.432H472.708V255.227H495.218V250.432Z" fill="#673DE6"/>
<path d="M482.63 250.432H472.708V255.227H482.63V250.432Z" fill="#2F2E41"/>
<path d="M480.69 252.814C480.69 253.063 480.891 253.264 481.143 253.264C481.394 253.264 481.593 253.063 481.593 252.814C481.593 252.565 481.392 252.361 481.143 252.361C480.894 252.361 480.69 252.562 480.69 252.814Z" fill="white"/>
<path d="M479.275 252.814C479.275 253.063 479.477 253.264 479.728 253.264C479.979 253.264 480.181 253.063 480.181 252.814C480.181 252.565 479.979 252.361 479.728 252.361C479.477 252.361 479.275 252.562 479.275 252.814Z" fill="white"/>
<path d="M477.86 252.814C477.86 253.063 478.062 253.264 478.311 253.264C478.56 253.264 478.764 253.063 478.764 252.814C478.764 252.565 478.562 252.361 478.311 252.361C478.06 252.361 477.86 252.562 477.86 252.814Z" fill="white"/>
<path d="M476.392 252.814C476.392 253.063 476.593 253.264 476.842 253.264C477.091 253.264 477.295 253.063 477.295 252.814C477.295 252.565 477.093 252.361 476.842 252.361C476.591 252.361 476.392 252.562 476.392 252.814Z" fill="white"/>
<path d="M495.218 256.99H472.708V261.784H495.218V256.99Z" fill="#673DE6"/>
<path d="M482.63 256.99H472.708V261.784H482.63V256.99Z" fill="#2F2E41"/>
<path d="M480.69 259.371C480.69 259.62 480.891 259.822 481.143 259.822C481.394 259.822 481.593 259.62 481.593 259.371C481.593 259.122 481.392 258.919 481.143 258.919C480.894 258.919 480.69 259.12 480.69 259.371Z" fill="white"/>
<path d="M479.275 259.371C479.275 259.62 479.477 259.822 479.728 259.822C479.979 259.822 480.181 259.62 480.181 259.371C480.181 259.122 479.979 258.919 479.728 258.919C479.477 258.919 479.275 259.12 479.275 259.371Z" fill="white"/>
<path d="M477.86 259.371C477.86 259.62 478.062 259.822 478.311 259.822C478.56 259.822 478.764 259.62 478.764 259.371C478.764 259.122 478.562 258.919 478.311 258.919C478.06 258.919 477.86 259.12 477.86 259.371Z" fill="white"/>
<path d="M476.392 259.371C476.392 259.62 476.593 259.822 476.842 259.822C477.091 259.822 477.295 259.62 477.295 259.371C477.295 259.122 477.093 258.919 476.842 258.919C476.591 258.919 476.392 259.12 476.392 259.371Z" fill="white"/>
<path d="M495.218 263.548H472.708V268.342H495.218V263.548Z" fill="#673DE6"/>
<path d="M482.63 263.548H472.708V268.342H482.63V263.548Z" fill="#2F2E41"/>
<path d="M480.69 265.929C480.69 266.178 480.891 266.382 481.143 266.382C481.394 266.382 481.593 266.18 481.593 265.929C481.593 265.678 481.392 265.476 481.143 265.476C480.894 265.476 480.69 265.678 480.69 265.929Z" fill="white"/>
<path d="M479.726 266.382C479.976 266.382 480.178 266.179 480.178 265.929C480.178 265.679 479.976 265.476 479.726 265.476C479.476 265.476 479.273 265.679 479.273 265.929C479.273 266.179 479.476 266.382 479.726 266.382Z" fill="white"/>
<path d="M477.86 265.929C477.86 266.178 478.062 266.382 478.311 266.382C478.56 266.382 478.764 266.18 478.764 265.929C478.764 265.678 478.562 265.476 478.311 265.476C478.06 265.476 477.86 265.678 477.86 265.929Z" fill="white"/>
<path d="M476.392 265.929C476.392 266.178 476.593 266.382 476.842 266.382C477.091 266.382 477.295 266.18 477.295 265.929C477.295 265.678 477.093 265.476 476.842 265.476C476.591 265.476 476.392 265.678 476.392 265.929Z" fill="white"/>
<path d="M495.218 270.106H472.708V274.9H495.218V270.106Z" fill="#673DE6"/>
<path d="M482.63 270.106H472.708V274.9H482.63V270.106Z" fill="#2F2E41"/>
<path d="M480.69 272.489C480.69 272.738 480.891 272.942 481.143 272.942C481.394 272.942 481.593 272.74 481.593 272.489C481.593 272.238 481.392 272.039 481.143 272.039C480.894 272.039 480.69 272.24 480.69 272.489Z" fill="white"/>
<path d="M479.275 272.489C479.275 272.738 479.477 272.942 479.728 272.942C479.979 272.942 480.181 272.74 480.181 272.489C480.181 272.238 479.979 272.039 479.728 272.039C479.477 272.039 479.275 272.24 479.275 272.489Z" fill="white"/>
<path d="M477.86 272.489C477.86 272.738 478.062 272.942 478.311 272.942C478.56 272.942 478.764 272.74 478.764 272.489C478.764 272.238 478.562 272.039 478.311 272.039C478.06 272.039 477.86 272.24 477.86 272.489Z" fill="white"/>
<path d="M476.392 272.489C476.392 272.738 476.593 272.942 476.842 272.942C477.091 272.942 477.295 272.74 477.295 272.489C477.295 272.238 477.093 272.039 476.842 272.039C476.591 272.039 476.392 272.24 476.392 272.489Z" fill="white"/>
<path d="M495.218 276.663H472.708V281.458H495.218V276.663Z" fill="#673DE6"/>
<path d="M482.63 276.663H472.708V281.458H482.63V276.663Z" fill="#2F2E41"/>
<path d="M480.69 279.047C480.69 279.296 480.891 279.497 481.143 279.497C481.394 279.497 481.593 279.296 481.593 279.047C481.593 278.798 481.392 278.594 481.143 278.594C480.894 278.594 480.69 278.796 480.69 279.047Z" fill="white"/>
<path d="M479.275 279.047C479.275 279.296 479.477 279.497 479.728 279.497C479.979 279.497 480.181 279.296 480.181 279.047C480.181 278.798 479.979 278.594 479.728 278.594C479.477 278.594 479.275 278.796 479.275 279.047Z" fill="white"/>
<path d="M477.86 279.047C477.86 279.296 478.062 279.497 478.311 279.497C478.56 279.497 478.764 279.296 478.764 279.047C478.764 278.798 478.562 278.594 478.311 278.594C478.06 278.594 477.86 278.796 477.86 279.047Z" fill="white"/>
<path d="M476.392 279.047C476.392 279.296 476.593 279.497 476.842 279.497C477.091 279.497 477.295 279.296 477.295 279.047C477.295 278.798 477.093 278.594 476.842 278.594C476.591 278.594 476.392 278.796 476.392 279.047Z" fill="white"/>
<path d="M495.218 283.221H472.708V288.015H495.218V283.221Z" fill="#673DE6"/>
<path d="M482.63 283.221H472.708V288.015H482.63V283.221Z" fill="#2F2E41"/>
<path d="M480.69 285.605C480.69 285.854 480.891 286.055 481.143 286.055C481.394 286.055 481.593 285.854 481.593 285.605C481.593 285.356 481.392 285.152 481.143 285.152C480.894 285.152 480.69 285.353 480.69 285.605Z" fill="white"/>
<path d="M479.275 285.605C479.275 285.854 479.477 286.055 479.728 286.055C479.979 286.055 480.181 285.854 480.181 285.605C480.181 285.356 479.979 285.152 479.728 285.152C479.477 285.152 479.275 285.353 479.275 285.605Z" fill="white"/>
<path d="M477.86 285.605C477.86 285.854 478.062 286.055 478.311 286.055C478.56 286.055 478.764 285.854 478.764 285.605C478.764 285.356 478.562 285.152 478.311 285.152C478.06 285.152 477.86 285.353 477.86 285.605Z" fill="white"/>
<path d="M476.392 285.605C476.392 285.854 476.593 286.055 476.842 286.055C477.091 286.055 477.295 285.854 477.295 285.605C477.295 285.356 477.093 285.152 476.842 285.152C476.591 285.152 476.392 285.353 476.392 285.605Z" fill="white"/>
<path d="M527.969 247.388H501.306V311.363H527.969V247.388Z" fill="white"/>
<path d="M500.78 311.365V247.39C500.78 247.1 501.016 246.865 501.305 246.865H527.969C528.258 246.865 528.494 247.1 528.494 247.39V311.365C528.494 311.655 528.258 311.89 527.969 311.89H501.305C501.016 311.89 500.78 311.655 500.78 311.365ZM527.444 247.915H501.833V310.84H527.444V247.915Z" fill="#2F2E41"/>
<path d="M525.893 250.432H503.383V255.227H525.893V250.432Z" fill="#673DE6"/>
<path d="M513.305 250.432H503.383V255.227H513.305V250.432Z" fill="#2F2E41"/>
<path d="M511.365 252.814C511.365 253.063 511.566 253.264 511.815 253.264C512.064 253.264 512.268 253.063 512.268 252.814C512.268 252.565 512.066 252.361 511.815 252.361C511.564 252.361 511.365 252.562 511.365 252.814Z" fill="white"/>
<path d="M509.95 252.814C509.95 253.063 510.152 253.264 510.403 253.264C510.654 253.264 510.853 253.063 510.853 252.814C510.853 252.565 510.652 252.361 510.403 252.361C510.154 252.361 509.95 252.562 509.95 252.814Z" fill="white"/>
<path d="M508.535 252.814C508.535 253.063 508.737 253.264 508.988 253.264C509.239 253.264 509.441 253.063 509.441 252.814C509.441 252.565 509.239 252.361 508.988 252.361C508.737 252.361 508.535 252.562 508.535 252.814Z" fill="white"/>
<path d="M507.066 252.814C507.066 253.063 507.268 253.264 507.519 253.264C507.77 253.264 507.97 253.063 507.97 252.814C507.97 252.565 507.768 252.361 507.519 252.361C507.27 252.361 507.066 252.562 507.066 252.814Z" fill="white"/>
<path d="M525.893 256.99H503.383V261.784H525.893V256.99Z" fill="#673DE6"/>
<path d="M513.305 256.99H503.383V261.784H513.305V256.99Z" fill="#2F2E41"/>
<path d="M511.365 259.371C511.365 259.62 511.566 259.822 511.815 259.822C512.064 259.822 512.268 259.62 512.268 259.371C512.268 259.122 512.066 258.919 511.815 258.919C511.564 258.919 511.365 259.12 511.365 259.371Z" fill="white"/>
<path d="M509.95 259.371C509.95 259.62 510.152 259.822 510.403 259.822C510.654 259.822 510.853 259.62 510.853 259.371C510.853 259.122 510.652 258.919 510.403 258.919C510.154 258.919 509.95 259.12 509.95 259.371Z" fill="white"/>
<path d="M508.535 259.371C508.535 259.62 508.737 259.822 508.988 259.822C509.239 259.822 509.441 259.62 509.441 259.371C509.441 259.122 509.239 258.919 508.988 258.919C508.737 258.919 508.535 259.12 508.535 259.371Z" fill="white"/>
<path d="M507.066 259.371C507.066 259.62 507.268 259.822 507.519 259.822C507.77 259.822 507.97 259.62 507.97 259.371C507.97 259.122 507.768 258.919 507.519 258.919C507.27 258.919 507.066 259.12 507.066 259.371Z" fill="white"/>
<path d="M525.893 263.548H503.383V268.342H525.893V263.548Z" fill="#673DE6"/>
<path d="M513.305 263.548H503.383V268.342H513.305V263.548Z" fill="#2F2E41"/>
<path d="M511.365 265.929C511.365 266.178 511.566 266.382 511.815 266.382C512.064 266.382 512.268 266.18 512.268 265.929C512.268 265.678 512.066 265.476 511.815 265.476C511.564 265.476 511.365 265.678 511.365 265.929Z" fill="white"/>
<path d="M509.95 265.929C509.95 266.178 510.152 266.382 510.403 266.382C510.654 266.382 510.853 266.18 510.853 265.929C510.853 265.678 510.652 265.476 510.403 265.476C510.154 265.476 509.95 265.678 509.95 265.929Z" fill="white"/>
<path d="M508.986 266.382C509.236 266.382 509.439 266.179 509.439 265.929C509.439 265.679 509.236 265.476 508.986 265.476C508.736 265.476 508.533 265.679 508.533 265.929C508.533 266.179 508.736 266.382 508.986 266.382Z" fill="white"/>
<path d="M507.066 265.929C507.066 266.178 507.268 266.382 507.519 266.382C507.77 266.382 507.97 266.18 507.97 265.929C507.97 265.678 507.768 265.476 507.519 265.476C507.27 265.476 507.066 265.678 507.066 265.929Z" fill="white"/>
<path d="M525.893 270.106H503.383V274.9H525.893V270.106Z" fill="#673DE6"/>
<path d="M513.305 270.106H503.383V274.9H513.305V270.106Z" fill="#2F2E41"/>
<path d="M511.365 272.489C511.365 272.738 511.566 272.942 511.815 272.942C512.064 272.942 512.268 272.74 512.268 272.489C512.268 272.238 512.066 272.039 511.815 272.039C511.564 272.039 511.365 272.24 511.365 272.489Z" fill="white"/>
<path d="M509.95 272.489C509.95 272.738 510.152 272.942 510.403 272.942C510.654 272.942 510.853 272.74 510.853 272.489C510.853 272.238 510.652 272.039 510.403 272.039C510.154 272.039 509.95 272.24 509.95 272.489Z" fill="white"/>
<path d="M508.535 272.489C508.535 272.738 508.737 272.942 508.988 272.942C509.239 272.942 509.441 272.74 509.441 272.489C509.441 272.238 509.239 272.039 508.988 272.039C508.737 272.039 508.535 272.24 508.535 272.489Z" fill="white"/>
<path d="M507.066 272.489C507.066 272.738 507.268 272.942 507.519 272.942C507.77 272.942 507.97 272.74 507.97 272.489C507.97 272.238 507.768 272.039 507.519 272.039C507.27 272.039 507.066 272.24 507.066 272.489Z" fill="white"/>
<path d="M525.893 276.663H503.383V281.458H525.893V276.663Z" fill="#673DE6"/>
<path d="M513.305 276.663H503.383V281.458H513.305V276.663Z" fill="#2F2E41"/>
<path d="M511.365 279.047C511.365 279.296 511.566 279.497 511.815 279.497C512.064 279.497 512.268 279.296 512.268 279.047C512.268 278.798 512.066 278.594 511.815 278.594C511.564 278.594 511.365 278.796 511.365 279.047Z" fill="white"/>
<path d="M509.95 279.047C509.95 279.296 510.152 279.497 510.403 279.497C510.654 279.497 510.853 279.296 510.853 279.047C510.853 278.798 510.652 278.594 510.403 278.594C510.154 278.594 509.95 278.796 509.95 279.047Z" fill="white"/>
<path d="M508.535 279.047C508.535 279.296 508.737 279.497 508.988 279.497C509.239 279.497 509.441 279.296 509.441 279.047C509.441 278.798 509.239 278.594 508.988 278.594C508.737 278.594 508.535 278.796 508.535 279.047Z" fill="white"/>
<path d="M507.066 279.047C507.066 279.296 507.268 279.497 507.519 279.497C507.77 279.497 507.97 279.296 507.97 279.047C507.97 278.798 507.768 278.594 507.519 278.594C507.27 278.594 507.066 278.796 507.066 279.047Z" fill="white"/>
<path d="M525.893 283.221H503.383V288.015H525.893V283.221Z" fill="#673DE6"/>
<path d="M513.305 283.221H503.383V288.015H513.305V283.221Z" fill="#2F2E41"/>
<path d="M511.365 285.605C511.365 285.854 511.566 286.055 511.815 286.055C512.064 286.055 512.268 285.854 512.268 285.605C512.268 285.356 512.066 285.152 511.815 285.152C511.564 285.152 511.365 285.353 511.365 285.605Z" fill="white"/>
<path d="M509.95 285.605C509.95 285.854 510.152 286.055 510.403 286.055C510.654 286.055 510.853 285.854 510.853 285.605C510.853 285.356 510.652 285.152 510.403 285.152C510.154 285.152 509.95 285.353 509.95 285.605Z" fill="white"/>
<path d="M508.535 285.605C508.535 285.854 508.737 286.055 508.988 286.055C509.239 286.055 509.441 285.854 509.441 285.605C509.441 285.356 509.239 285.152 508.988 285.152C508.737 285.152 508.535 285.353 508.535 285.605Z" fill="white"/>
<path d="M507.066 285.605C507.066 285.854 507.268 286.055 507.519 286.055C507.77 286.055 507.97 285.854 507.97 285.605C507.97 285.356 507.768 285.152 507.519 285.152C507.27 285.152 507.066 285.353 507.066 285.605Z" fill="white"/>
<path d="M466.62 247.388H439.957V311.363H466.62V247.388Z" fill="white"/>
<path d="M439.431 311.365V247.39C439.431 247.1 439.667 246.865 439.956 246.865H466.62C466.909 246.865 467.145 247.1 467.145 247.39V311.365C467.145 311.655 466.909 311.89 466.62 311.89H439.956C439.667 311.89 439.431 311.655 439.431 311.365ZM466.094 247.915H440.484V310.84H466.094V247.915Z" fill="#2F2E41"/>
<path d="M464.544 250.432H442.034V255.227H464.544V250.432Z" fill="#673DE6"/>
<path d="M451.956 250.432H442.034V255.227H451.956V250.432Z" fill="#2F2E41"/>
<path d="M450.016 252.814C450.016 253.063 450.217 253.264 450.468 253.264C450.72 253.264 450.921 253.063 450.921 252.814C450.921 252.565 450.72 252.361 450.468 252.361C450.217 252.361 450.016 252.562 450.016 252.814Z" fill="white"/>
<path d="M448.601 252.814C448.601 253.063 448.803 253.264 449.052 253.264C449.301 253.264 449.504 253.063 449.504 252.814C449.504 252.565 449.303 252.361 449.052 252.361C448.8 252.361 448.601 252.562 448.601 252.814Z" fill="white"/>
<path d="M447.186 252.814C447.186 253.063 447.387 253.264 447.639 253.264C447.89 253.264 448.089 253.063 448.089 252.814C448.089 252.565 447.888 252.361 447.639 252.361C447.39 252.361 447.186 252.562 447.186 252.814Z" fill="white"/>
<path d="M445.717 252.814C445.717 253.063 445.919 253.264 446.17 253.264C446.421 253.264 446.62 253.063 446.62 252.814C446.62 252.565 446.419 252.361 446.17 252.361C445.921 252.361 445.717 252.562 445.717 252.814Z" fill="white"/>
<path d="M464.544 256.99H442.034V261.784H464.544V256.99Z" fill="#673DE6"/>
<path d="M451.956 256.99H442.034V261.784H451.956V256.99Z" fill="#2F2E41"/>
<path d="M450.016 259.371C450.016 259.62 450.217 259.822 450.468 259.822C450.72 259.822 450.921 259.62 450.921 259.371C450.921 259.122 450.72 258.919 450.468 258.919C450.217 258.919 450.016 259.12 450.016 259.371Z" fill="white"/>
<path d="M448.601 259.371C448.601 259.62 448.803 259.822 449.052 259.822C449.301 259.822 449.504 259.62 449.504 259.371C449.504 259.122 449.303 258.919 449.052 258.919C448.8 258.919 448.601 259.12 448.601 259.371Z" fill="white"/>
<path d="M447.186 259.371C447.186 259.62 447.387 259.822 447.639 259.822C447.89 259.822 448.089 259.62 448.089 259.371C448.089 259.122 447.888 258.919 447.639 258.919C447.39 258.919 447.186 259.12 447.186 259.371Z" fill="white"/>
<path d="M445.717 259.371C445.717 259.62 445.919 259.822 446.17 259.822C446.421 259.822 446.62 259.62 446.62 259.371C446.62 259.122 446.419 258.919 446.17 258.919C445.921 258.919 445.717 259.12 445.717 259.371Z" fill="white"/>
<path d="M464.544 263.548H442.034V268.342H464.544V263.548Z" fill="#673DE6"/>
<path d="M451.956 263.548H442.034V268.342H451.956V263.548Z" fill="#2F2E41"/>
<path d="M450.468 266.382C450.718 266.382 450.921 266.179 450.921 265.929C450.921 265.679 450.718 265.476 450.468 265.476C450.218 265.476 450.016 265.679 450.016 265.929C450.016 266.179 450.218 266.382 450.468 266.382Z" fill="white"/>
<path d="M448.601 265.929C448.601 266.178 448.803 266.382 449.052 266.382C449.301 266.382 449.504 266.18 449.504 265.929C449.504 265.678 449.303 265.476 449.052 265.476C448.8 265.476 448.601 265.678 448.601 265.929Z" fill="white"/>
<path d="M447.186 265.929C447.186 266.178 447.387 266.382 447.639 266.382C447.89 266.382 448.089 266.18 448.089 265.929C448.089 265.678 447.888 265.476 447.639 265.476C447.39 265.476 447.186 265.678 447.186 265.929Z" fill="white"/>
<path d="M445.717 265.929C445.717 266.178 445.919 266.382 446.17 266.382C446.421 266.382 446.62 266.18 446.62 265.929C446.62 265.678 446.419 265.476 446.17 265.476C445.921 265.476 445.717 265.678 445.717 265.929Z" fill="white"/>
<path d="M464.544 270.106H442.034V274.9H464.544V270.106Z" fill="#673DE6"/>
<path d="M451.956 270.106H442.034V274.9H451.956V270.106Z" fill="#2F2E41"/>
<path d="M450.016 272.489C450.016 272.738 450.217 272.942 450.468 272.942C450.72 272.942 450.921 272.74 450.921 272.489C450.921 272.238 450.72 272.039 450.468 272.039C450.217 272.039 450.016 272.24 450.016 272.489Z" fill="white"/>
<path d="M448.601 272.489C448.601 272.738 448.803 272.942 449.052 272.942C449.301 272.942 449.504 272.74 449.504 272.489C449.504 272.238 449.303 272.039 449.052 272.039C448.8 272.039 448.601 272.24 448.601 272.489Z" fill="white"/>
<path d="M447.186 272.489C447.186 272.738 447.387 272.942 447.639 272.942C447.89 272.942 448.089 272.74 448.089 272.489C448.089 272.238 447.888 272.039 447.639 272.039C447.39 272.039 447.186 272.24 447.186 272.489Z" fill="white"/>
<path d="M445.717 272.489C445.717 272.738 445.919 272.942 446.17 272.942C446.421 272.942 446.62 272.74 446.62 272.489C446.62 272.238 446.419 272.039 446.17 272.039C445.921 272.039 445.717 272.24 445.717 272.489Z" fill="white"/>
<path d="M464.544 276.663H442.034V281.458H464.544V276.663Z" fill="#673DE6"/>
<path d="M451.956 276.663H442.034V281.458H451.956V276.663Z" fill="#2F2E41"/>
<path d="M450.016 279.047C450.016 279.296 450.217 279.497 450.468 279.497C450.72 279.497 450.921 279.296 450.921 279.047C450.921 278.798 450.72 278.594 450.468 278.594C450.217 278.594 450.016 278.796 450.016 279.047Z" fill="white"/>
<path d="M448.601 279.047C448.601 279.296 448.803 279.497 449.052 279.497C449.301 279.497 449.504 279.296 449.504 279.047C449.504 278.798 449.303 278.594 449.052 278.594C448.8 278.594 448.601 278.796 448.601 279.047Z" fill="white"/>
<path d="M447.186 279.047C447.186 279.296 447.387 279.497 447.639 279.497C447.89 279.497 448.089 279.296 448.089 279.047C448.089 278.798 447.888 278.594 447.639 278.594C447.39 278.594 447.186 278.796 447.186 279.047Z" fill="white"/>
<path d="M445.717 279.047C445.717 279.296 445.919 279.497 446.17 279.497C446.421 279.497 446.62 279.296 446.62 279.047C446.62 278.798 446.419 278.594 446.17 278.594C445.921 278.594 445.717 278.796 445.717 279.047Z" fill="white"/>
<path d="M464.544 283.221H442.034V288.015H464.544V283.221Z" fill="#673DE6"/>
<path d="M451.956 283.221H442.034V288.015H451.956V283.221Z" fill="#2F2E41"/>
<path d="M450.016 285.605C450.016 285.854 450.217 286.055 450.468 286.055C450.72 286.055 450.921 285.854 450.921 285.605C450.921 285.356 450.72 285.152 450.468 285.152C450.217 285.152 450.016 285.353 450.016 285.605Z" fill="white"/>
<path d="M448.601 285.605C448.601 285.854 448.803 286.055 449.052 286.055C449.301 286.055 449.504 285.854 449.504 285.605C449.504 285.356 449.303 285.152 449.052 285.152C448.8 285.152 448.601 285.353 448.601 285.605Z" fill="white"/>
<path d="M447.186 285.605C447.186 285.854 447.387 286.055 447.639 286.055C447.89 286.055 448.089 285.854 448.089 285.605C448.089 285.356 447.888 285.152 447.639 285.152C447.39 285.152 447.186 285.353 447.186 285.605Z" fill="white"/>
<path d="M445.717 285.605C445.717 285.854 445.919 286.055 446.17 286.055C446.421 286.055 446.62 285.854 446.62 285.605C446.62 285.356 446.419 285.152 446.17 285.152C445.921 285.152 445.717 285.353 445.717 285.605Z" fill="white"/>
<path d="M173.848 255.727V291.87C173.848 293.367 175.061 294.58 176.558 294.58H232.207C233.703 294.58 234.916 293.367 234.916 291.87V261.142C234.916 259.645 233.703 258.432 232.207 258.432H200.575L199.081 254.717C198.669 253.692 197.673 253.02 196.566 253.02H176.555C175.059 253.02 173.846 254.233 173.846 255.729L173.848 255.727Z" fill="#673DE6"/>
<path d="M233.042 261.379H175.725V292.744H233.042V261.379Z" fill="white"/>
<path d="M173.848 264.689V292.128C173.848 293.482 175.061 294.578 176.558 294.578H232.207C233.703 294.578 234.916 293.482 234.916 292.128V264.689H173.848Z" fill="#673DE6"/>
<path d="M175.62 291.372C175.91 291.372 176.146 291.137 176.146 290.847V265.524C176.146 265.234 175.91 264.999 175.62 264.999C175.331 264.999 175.095 265.234 175.095 265.524V290.847C175.095 291.137 175.331 291.372 175.62 291.372Z" fill="white"/>
<path d="M173.323 291.87V255.727C173.323 253.943 174.774 252.492 176.557 252.492H196.568C197.897 252.492 199.074 253.289 199.57 254.521L200.932 257.905H232.209C233.993 257.905 235.444 259.356 235.444 261.139V291.868C235.444 293.652 233.993 295.103 232.209 295.103H176.56C174.776 295.103 173.325 293.652 173.325 291.868L173.323 291.87ZM200.577 258.957C200.362 258.957 200.169 258.826 200.09 258.627L198.596 254.912C198.261 254.081 197.467 253.543 196.57 253.543H176.56C175.355 253.543 174.375 254.523 174.375 255.727V291.87C174.375 293.075 175.355 294.055 176.56 294.055H232.209C233.413 294.055 234.393 293.075 234.393 291.87V261.142C234.393 259.937 233.413 258.957 232.209 258.957H200.577Z" fill="#2F2E41"/>
<path d="M147.23 236.235H125.434V311.365H147.23V236.235Z" fill="#673DE6"/>
<path d="M141.356 242.842H131.308V281.566H141.356V242.842Z" fill="white"/>
<path d="M141.985 297.944C141.985 301.065 139.455 303.596 136.333 303.596C133.211 303.596 130.681 301.065 130.681 297.944C130.681 294.822 133.211 292.291 136.333 292.291C139.455 292.291 141.985 294.822 141.985 297.944Z" fill="white"/>
<path d="M130.156 297.944C130.156 294.537 132.926 291.766 136.333 291.766C139.74 291.766 142.511 294.537 142.511 297.944C142.511 301.35 139.74 304.121 136.333 304.121C132.926 304.121 130.156 301.35 130.156 297.944ZM131.208 297.944C131.208 300.771 133.508 303.071 136.333 303.071C139.158 303.071 141.46 300.771 141.46 297.944C141.46 295.116 139.16 292.817 136.333 292.817C133.506 292.817 131.208 295.116 131.208 297.944Z" fill="#2F2E41"/>
<path d="M141.057 297.944C141.057 300.554 138.941 302.668 136.333 302.668C133.725 302.668 131.609 300.554 131.609 297.944C131.609 295.334 133.723 293.219 136.333 293.219C138.943 293.219 141.057 295.334 141.057 297.944Z" fill="#2F2E41"/>
<path d="M140.641 243.924H132.023V244.755H140.641V243.924Z" fill="#673DE6"/>
<path d="M140.641 252.857H132.023V253.687H140.641V252.857Z" fill="#673DE6"/>
<path d="M140.641 262.468H132.023V263.299H140.641V262.468Z" fill="#673DE6"/>
<path d="M171.114 236.235H149.317V311.365H171.114V236.235Z" fill="#673DE6"/>
<path d="M165.24 242.842H155.191V281.566H165.24V242.842Z" fill="white"/>
<path d="M160.217 303.596C163.338 303.596 165.869 301.065 165.869 297.944C165.869 294.822 163.338 292.291 160.217 292.291C157.095 292.291 154.564 294.822 154.564 297.944C154.564 301.065 157.095 303.596 160.217 303.596Z" fill="white"/>
<path d="M154.04 297.944C154.04 294.537 156.81 291.766 160.217 291.766C163.624 291.766 166.394 294.537 166.394 297.944C166.394 301.35 163.624 304.121 160.217 304.121C156.81 304.121 154.04 301.35 154.04 297.944ZM155.092 297.944C155.092 300.771 157.392 303.071 160.219 303.071C163.047 303.071 165.346 300.771 165.346 297.944C165.346 295.116 163.047 292.817 160.219 292.817C157.392 292.817 155.092 295.116 155.092 297.944Z" fill="#2F2E41"/>
<path d="M160.217 302.668C162.826 302.668 164.941 300.553 164.941 297.944C164.941 295.335 162.826 293.219 160.217 293.219C157.608 293.219 155.493 295.335 155.493 297.944C155.493 300.553 157.608 302.668 160.217 302.668Z" fill="#2F2E41"/>
<path d="M164.524 243.924H155.907V244.755H164.524V243.924Z" fill="#673DE6"/>
<path d="M164.524 252.857H155.907V253.687H164.524V252.857Z" fill="#673DE6"/>
<path d="M164.524 262.468H155.907V263.299H164.524V262.468Z" fill="#673DE6"/>
<path d="M160.864 269.589V308.449C160.864 310.059 162.168 311.363 163.778 311.363H223.612C225.222 311.363 226.525 310.059 226.525 308.449V275.409C226.525 273.8 225.222 272.496 223.612 272.496H189.601L187.994 268.503C187.55 267.398 186.48 266.676 185.291 266.676H163.778C162.168 266.676 160.864 267.98 160.864 269.589Z" fill="#673DE6"/>
<path d="M224.508 275.665H162.881V309.389H224.508V275.665Z" fill="white"/>
<path d="M160.864 279.226V308.73C160.864 310.185 162.168 311.365 163.778 311.365H223.612C225.222 311.365 226.525 310.185 226.525 308.73V279.226H160.864Z" fill="#673DE6"/>
<path d="M162.77 307.876C163.06 307.876 163.295 307.641 163.295 307.351V280.122C163.295 279.832 163.06 279.597 162.77 279.597C162.48 279.597 162.245 279.832 162.245 280.122V307.351C162.245 307.641 162.48 307.876 162.77 307.876Z" fill="white"/>
<path d="M160.339 308.449V269.589C160.339 267.693 161.88 266.151 163.777 266.151H185.291C186.703 266.151 187.955 266.998 188.483 268.306L189.956 271.969H223.612C225.509 271.969 227.05 273.512 227.05 275.407V308.447C227.05 310.344 225.507 311.885 223.612 311.885H163.777C161.88 311.885 160.339 310.344 160.339 308.447V308.449ZM189.603 273.021C189.388 273.021 189.196 272.89 189.116 272.691L187.509 268.698C187.145 267.788 186.273 267.201 185.293 267.201H163.78C162.462 267.201 161.391 268.272 161.391 269.589V308.449C161.391 309.767 162.462 310.837 163.78 310.837H223.614C224.932 310.837 226.002 309.767 226.002 308.449V275.409C226.002 274.092 224.932 273.021 223.614 273.021H189.603Z" fill="#2F2E41"/>
<path d="M236.827 217.091C236.827 212.213 240.795 208.245 245.673 208.245C250.551 208.245 254.519 212.213 254.519 217.091C254.519 221.97 250.551 225.938 245.673 225.938C240.795 225.938 236.827 221.97 236.827 217.091ZM237.877 217.091C237.877 221.39 241.374 224.887 245.673 224.887C249.972 224.887 253.469 221.39 253.469 217.091C253.469 212.793 249.972 209.295 245.673 209.295C241.374 209.295 237.877 212.793 237.877 217.091Z" fill="#2F2E41"/>
<path d="M187.016 44.1023C187.016 40.4194 190.013 37.4224 193.696 37.4224C197.379 37.4224 200.376 40.4194 200.376 44.1023C200.376 47.7853 197.379 50.7823 193.696 50.7823C190.013 50.7823 187.016 47.7853 187.016 44.1023ZM188.066 44.1023C188.066 47.2058 190.592 49.7297 193.696 49.7297C196.799 49.7297 199.323 47.2058 199.323 44.1023C199.323 40.9989 196.797 38.4727 193.696 38.4727C190.594 38.4727 188.066 40.9989 188.066 44.1023Z" fill="#2F2E41"/>
<path d="M558.98 233.202C558.98 228.785 562.573 225.193 566.99 225.193C571.406 225.193 575 228.785 575 233.202C575 237.618 571.408 241.213 566.99 241.213C562.571 241.213 558.98 237.62 558.98 233.202ZM560.031 233.202C560.031 237.038 563.153 240.16 566.99 240.16C570.827 240.16 573.948 237.038 573.948 233.202C573.948 229.365 570.827 226.243 566.99 226.243C563.153 226.243 560.031 229.365 560.031 233.202Z" fill="#2F2E41"/>
<path d="M71.8152 285.737L70.6562 302.232H56.1011L55.9268 285.737H71.8152Z" fill="white"/>
<path d="M55.5762 302.236L55.4019 285.741C55.4019 285.601 55.4562 285.465 55.5535 285.365C55.6531 285.266 55.7867 285.209 55.927 285.209H71.8132C71.9581 285.209 72.0984 285.27 72.198 285.377C72.2976 285.483 72.3474 285.626 72.3383 285.773L71.1794 302.268C71.159 302.544 70.9304 302.757 70.6542 302.757H56.1013C55.8138 302.757 55.5784 302.526 55.5762 302.236ZM71.2495 286.262H56.4567L56.6197 301.707H70.163L71.2473 286.262H71.2495Z" fill="#2F2E41"/>
<path d="M72.1841 298.196C72.1841 298.196 62.4551 301.684 55.3722 298.759C52.7282 300.733 51.3904 307.569 51.2139 310.32C62.2445 310.426 98.1254 310.32 98.1254 310.32L97.7338 308.02C97.4282 306.218 96.0496 304.787 94.2613 304.412L75.0748 300.382L72.1841 298.198V298.196Z" fill="#2F2E41"/>
<path d="M99.4292 309.086H50.2271V312.681H99.4292V309.086Z" fill="white"/>
<path d="M49.7017 312.681V309.086C49.7017 308.796 49.9371 308.561 50.2268 308.561H99.4291C99.7189 308.561 99.9543 308.796 99.9543 309.086V312.681C99.9543 312.97 99.7189 313.206 99.4291 313.206H50.2268C49.9371 313.206 49.7017 312.97 49.7017 312.681ZM98.904 309.611H50.752V312.156H98.904V309.611Z" fill="#2F2E41"/>
<path d="M37.3223 286.078L36.9352 301.833L24.3403 302.596L21.9839 287.009L37.3223 286.078Z" fill="white"/>
<path d="M23.8216 302.675L21.4651 287.088C21.4425 286.943 21.4832 286.794 21.576 286.678C21.6688 286.563 21.8047 286.493 21.9518 286.484L37.2902 285.553C37.4396 285.547 37.5822 285.596 37.6863 285.7C37.7927 285.802 37.8515 285.945 37.847 286.092L37.4599 301.847C37.4531 302.119 37.2381 302.343 36.9665 302.359C36.9665 302.359 24.3716 303.121 24.3399 303.124C24.0819 303.124 23.86 302.936 23.8216 302.675ZM36.7831 286.64L22.5901 287.5L24.7881 302.044L36.4209 301.34L36.7808 286.64H36.7831Z" fill="#2F2E41"/>
<path d="M39.5788 310.367C39.5788 310.367 40.989 305.213 37.1522 300.278C33.768 299.463 27.5091 298.866 23.4164 300.278C20.0459 303.995 20.4352 310.032 20.5643 310.367H39.5765H39.5788Z" fill="#2F2E41"/>
<path d="M41.4511 309.086H19.0435V312.681H41.4511V309.086Z" fill="white"/>
<path d="M18.5181 312.681V309.086C18.5181 308.796 18.7535 308.561 19.0432 308.561H41.4509C41.7407 308.561 41.9761 308.796 41.9761 309.086V312.681C41.9761 312.97 41.7407 313.206 41.4509 313.206H19.0432C18.7535 313.206 18.5181 312.97 18.5181 312.681ZM40.9258 309.611H19.5707V312.156H40.9258V309.611Z" fill="#2F2E41"/>
<path d="M82.742 157.955H16.207L17.4498 229.913L20.4853 292.451C28.1816 293.236 35.2034 292.77 41.4533 290.864L44.4934 230.221L48.4864 180.159L52.1354 292.451C59.3745 293.469 66.6181 293.469 73.864 292.451L82.7465 157.955H82.742Z" fill="#2F2E41"/>
<path d="M77.8254 170.961H23.2651L26.1196 80.7151L41.9786 76.9077H64.1757L80.3607 83.8865L77.8254 170.961Z" fill="#FC5185"/>
<path d="M53.5728 85.4912H54.1432C59.6891 85.4912 64.1847 80.9956 64.1847 75.4497V57.7188H43.5312V75.4497C43.5312 80.9956 48.0269 85.4912 53.5728 85.4912Z" fill="white"/>
<path d="M43.0039 75.4496V57.7186C43.0039 57.4288 43.2393 57.1934 43.5291 57.1934H64.1824C64.4722 57.1934 64.7076 57.4288 64.7076 57.7186V75.4496C64.7076 81.2762 59.9676 86.0162 54.141 86.0162H53.5705C47.7439 86.0162 43.0039 81.2762 43.0039 75.4496ZM44.0542 58.2437V75.4496C44.0542 80.6967 48.3234 84.9659 53.5705 84.9659H54.141C59.3881 84.9659 63.6573 80.6967 63.6573 75.4496V58.2437H44.0542Z" fill="#2F2E41"/>
<path d="M64.1847 75.1648L83.2875 83.5878L92.0568 179.869C92.1632 181.046 91.2374 182.062 90.0535 182.062H61.2963C60.1781 182.062 59.2749 181.15 59.2862 180.032C59.4288 166.124 60.4158 85.161 64.1847 75.1626V75.1648Z" fill="white"/>
<path d="M59.4943 181.836C59.0144 181.352 58.7541 180.709 58.7609 180.027C58.9239 164.241 59.9199 84.9865 63.6911 74.979C63.7431 74.8432 63.8473 74.7346 63.9808 74.6802C64.1144 74.6236 64.2638 74.6259 64.3973 74.6848L83.5001 83.1077C83.6744 83.1847 83.7944 83.3499 83.8102 83.5401L92.5795 179.821C92.6452 180.53 92.4052 181.236 91.9253 181.761C91.4454 182.286 90.7641 182.588 90.051 182.588H61.2939C60.6103 182.588 59.9697 182.32 59.4898 181.836H59.4943ZM64.4992 75.8777C60.857 88.0492 59.9085 170.534 59.8112 180.039C59.8067 180.437 59.9583 180.813 60.239 181.098C60.5197 181.381 60.8955 181.539 61.2961 181.539H90.0533C90.4766 181.539 90.866 181.367 91.1512 181.055C91.4364 180.743 91.5722 180.34 91.5337 179.919L82.7916 83.9453L64.4992 75.88V75.8777Z" fill="#2F2E41"/>
<path d="M43.5311 75.1646L40.1424 180.068C40.1062 181.182 39.1939 182.065 38.0802 182.065H13.9431C12.7117 182.065 11.7542 180.992 11.8945 179.769L23.2648 80.0291L43.5311 75.1646Z" fill="white"/>
<path d="M12.0123 181.723C11.5211 181.173 11.288 180.439 11.3717 179.706L22.7397 79.9658C22.7646 79.7463 22.9253 79.5652 23.1403 79.5154L43.4066 74.6509C43.5651 74.6124 43.7349 74.6508 43.8616 74.755C43.9884 74.8591 44.0608 75.0153 44.0563 75.1805L40.6676 180.084C40.6224 181.487 39.486 182.587 38.0803 182.587H13.9432C13.2075 182.587 12.5013 182.273 12.0123 181.723ZM23.7447 80.4525L12.4175 179.826C12.3677 180.26 12.5058 180.697 12.7978 181.023C13.0898 181.349 13.5063 181.537 13.9455 181.537H38.0803C38.9156 181.537 39.5902 180.883 39.6173 180.05L42.9833 75.837L23.7447 80.4548V80.4525Z" fill="#2F2E41"/>
<path d="M98.0191 147.54C98.0191 147.54 111.764 152.246 119.06 141.935C127.872 129.483 102.067 100.341 91.9549 89.7266C89.5215 87.1732 86.6195 85.1133 83.4029 83.6623L81.0781 82.6143L87.4593 129.394L98.0191 147.54Z" fill="white"/>
<path d="M105.208 149.138C105.41 149.138 105.611 149.138 105.817 149.131C111.68 148.979 116.407 146.598 119.49 142.241C128.422 129.619 103.477 101.058 92.3375 89.3665C89.8452 86.7498 86.9115 84.6695 83.6225 83.1846L81.2977 82.1365C81.0329 82.0165 80.7228 82.1365 80.6028 82.3991C80.4828 82.6639 80.6028 82.9741 80.8654 83.094L83.1901 84.1443C86.3547 85.5727 89.1774 87.5738 91.5769 90.0932C96.412 95.1682 105.516 105.208 112.165 115.432C120.112 127.654 122.288 136.468 118.632 141.636C115.714 145.76 111.404 147.929 105.822 148.081C102.168 148.18 99.1306 147.336 98.37 147.103L87.9777 129.247C87.946 128.512 87.7287 124.763 86.332 114.525C86.2936 114.237 86.0265 114.036 85.739 114.074C85.4515 114.113 85.25 114.378 85.2885 114.667C86.8255 125.929 86.9296 129.379 86.9296 129.413C86.9296 129.501 86.9568 129.587 86.9998 129.664L97.5597 147.809C97.623 147.918 97.7249 148.001 97.8426 148.042C97.9807 148.09 101.107 149.142 105.202 149.142L105.208 149.138Z" fill="#2F2E41"/>
<path d="M93.1453 142.152C94.1391 145.215 95.9092 147.309 98.1819 147.657C99.3613 147.838 100.55 147.533 101.688 146.829C104.722 144.948 107.352 140.233 108.246 134.429C108.975 129.7 108.386 125.311 106.883 122.384C105.853 120.376 104.393 119.056 102.632 118.785C101.691 118.64 100.74 118.807 99.8163 119.24C96.4978 120.793 93.5302 125.775 92.5704 132.013C91.9864 135.805 92.2467 139.377 93.1453 142.152Z" fill="#2F2E41"/>
<path d="M98.1006 148.178C95.7237 147.811 93.7363 145.674 92.6452 142.315C91.6854 139.354 91.4749 135.669 92.0499 131.936C93.0051 125.723 96.0361 120.43 99.5923 118.767C100.636 118.278 101.684 118.11 102.712 118.269C104.595 118.558 106.2 119.898 107.35 122.146C108.973 125.306 109.489 129.813 108.765 134.51C107.879 140.255 105.211 145.267 101.965 147.279C100.935 147.918 99.8934 148.239 98.8634 148.239C98.6099 148.239 98.3563 148.219 98.1028 148.18L98.1006 148.178ZM100.038 119.717C96.7854 121.239 93.9943 126.214 93.0889 132.095C92.5388 135.669 92.7357 139.185 93.6457 141.992C94.61 144.959 96.2919 146.836 98.2613 147.139C99.2844 147.297 100.344 147.044 101.41 146.383C104.407 144.527 106.883 139.803 107.726 134.349C108.407 129.931 107.918 125.546 106.415 122.624C105.423 120.688 104.088 119.541 102.551 119.305C102.356 119.276 102.159 119.26 101.962 119.26C101.331 119.26 100.686 119.414 100.036 119.717H100.038Z" fill="#2F2E41"/>
<path d="M30.6715 138.958C29.302 138.569 27.9166 137.743 26.5517 136.504C24.2473 134.411 22.2326 131.316 20.879 127.794C19.7562 124.881 19.1654 121.9 19.1699 119.174C19.1745 116.465 19.7653 114.196 20.8767 112.614C21.54 111.672 22.3662 111.005 23.335 110.633C24.949 110.011 26.8188 110.262 28.7451 111.36C28.9194 111.457 29.096 111.566 29.2884 111.691C32.2673 113.626 34.9543 117.282 36.661 121.718C37.8743 124.874 38.4606 128.07 38.3542 130.961C38.2818 132.996 37.8494 134.8 37.1047 136.178C36.3871 137.507 35.4092 138.415 34.2005 138.881C33.6232 139.103 33.0166 139.214 32.385 139.214C31.8304 139.214 31.2577 139.128 30.6715 138.958ZM23.7131 111.616C22.9412 111.912 22.2779 112.451 21.7369 113.221C20.7635 114.606 20.2248 116.72 20.2225 119.176C20.218 121.773 20.7839 124.623 21.8614 127.416C23.1585 130.789 25.0758 133.741 27.2602 135.726C28.4871 136.839 29.766 137.607 30.9612 137.949C31.9957 138.25 32.96 138.232 33.8224 137.901C34.7913 137.528 35.5835 136.781 36.1789 135.681C36.8466 134.445 37.236 132.801 37.3039 130.925C37.4058 128.174 36.8444 125.123 35.6809 122.099C34.076 117.927 31.4728 114.366 28.7157 112.576C28.5414 112.462 28.3829 112.365 28.2267 112.277C27.1538 111.663 26.117 111.356 25.1595 111.356C24.6525 111.356 24.168 111.442 23.7131 111.618V111.616Z" fill="#2F2E41"/>
<path d="M110.073 121.791C110.293 121.791 110.499 121.651 110.571 121.431C110.664 121.155 110.515 120.858 110.238 120.765L102.796 118.285C102.519 118.192 102.223 118.341 102.13 118.617C102.037 118.893 102.187 119.19 102.463 119.283L109.906 121.764C109.96 121.782 110.017 121.791 110.071 121.791H110.073Z" fill="#2F2E41"/>
<path d="M76.7656 126.13C76.7656 126.13 83.6244 135.506 93.1453 142.152C95.8141 144.013 98.6934 145.663 101.686 146.829C104.719 144.948 107.35 140.233 108.244 134.429C108.973 129.7 108.384 125.311 106.881 122.384L99.8139 119.24L80.3603 110.584L76.7656 126.128V126.13Z" fill="white"/>
<path d="M101.496 147.32C98.6961 146.227 95.7851 144.633 92.8447 142.585C83.3646 135.963 76.413 126.535 76.3428 126.44C76.2522 126.318 76.2205 126.16 76.2545 126.01L79.8492 110.466C79.8854 110.312 79.9872 110.185 80.1276 110.113C80.2679 110.043 80.4332 110.04 80.5758 110.104L107.096 121.902C107.205 121.952 107.296 122.035 107.35 122.142C108.973 125.302 109.489 129.809 108.765 134.506C107.88 140.251 105.211 145.262 101.965 147.275C101.881 147.327 101.784 147.354 101.686 147.354C101.623 147.354 101.557 147.343 101.496 147.318V147.32ZM80.7297 111.326L77.3343 126.013C78.3642 127.375 84.8518 135.721 93.4468 141.724C96.231 143.667 98.9814 145.186 101.63 146.245C104.527 144.298 106.906 139.671 107.726 134.352C108.394 130.015 107.934 125.711 106.497 122.791L80.7297 111.328V111.326Z" fill="#2F2E41"/>
<path d="M26.1037 79.3457L24.3924 79.7441C18.3734 81.143 13.2848 85.1542 10.548 90.6933C4.6807 102.561 -3.60193 124.163 2.8879 141.795C3.83863 144.377 5.8759 146.424 8.48813 147.291C20.2409 151.191 34.5267 137.654 34.5267 137.654L23.7948 111.22L20.5691 113.282L26.1037 79.3479V79.3457Z" fill="white"/>
<path d="M19.6974 119.174C19.6929 121.737 20.2361 124.657 21.3702 127.604C22.7465 131.185 24.7498 134.153 26.9071 136.115C28.186 137.276 29.5216 138.085 30.8164 138.454C31.9323 138.777 33.0189 138.773 34.0126 138.392C35.1263 137.965 36.0069 137.107 36.6429 135.93C37.356 134.61 37.7589 132.896 37.8291 130.943C37.9287 128.242 37.3945 125.089 36.1698 121.909C34.4517 117.443 31.758 113.927 29.0009 112.132C28.8289 112.021 28.6569 111.915 28.4848 111.817C26.7622 110.835 25.035 110.541 23.5229 111.125C22.6333 111.467 21.8909 112.084 21.3046 112.917C20.2497 114.416 19.6974 116.616 19.6929 119.174H19.6974Z" fill="#2F2E41"/>
<path d="M30.6715 138.958C29.302 138.569 27.9166 137.743 26.5517 136.504C24.2473 134.411 22.2326 131.316 20.879 127.794C19.7562 124.881 19.1654 121.9 19.1699 119.174C19.1745 116.465 19.7653 114.196 20.8767 112.614C21.54 111.672 22.3662 111.005 23.335 110.633C24.949 110.011 26.8188 110.262 28.7451 111.36C28.9194 111.457 29.096 111.566 29.2884 111.691C32.2673 113.626 34.9543 117.282 36.661 121.718C37.8743 124.874 38.4606 128.07 38.3542 130.961C38.2818 132.996 37.8494 134.8 37.1047 136.178C36.3871 137.507 35.4092 138.415 34.2005 138.881C33.6232 139.103 33.0166 139.214 32.385 139.214C31.8304 139.214 31.2577 139.128 30.6715 138.958ZM23.7131 111.616C22.9412 111.912 22.2779 112.451 21.7369 113.221C20.7635 114.606 20.2248 116.72 20.2225 119.176C20.218 121.773 20.7839 124.623 21.8614 127.416C23.1585 130.789 25.0758 133.741 27.2602 135.726C28.4871 136.839 29.766 137.607 30.9612 137.949C31.9957 138.25 32.96 138.232 33.8224 137.901C34.7913 137.528 35.5835 136.781 36.1789 135.681C36.8466 134.445 37.236 132.801 37.3039 130.925C37.4058 128.174 36.8444 125.123 35.6809 122.099C34.076 117.927 31.4728 114.366 28.7157 112.576C28.5414 112.462 28.3829 112.365 28.2267 112.277C27.1538 111.663 26.117 111.356 25.1595 111.356C24.6525 111.356 24.168 111.442 23.7131 111.618V111.616Z" fill="#2F2E41"/>
<path d="M12.979 148.509C16.9426 148.509 21.4201 147.121 26.176 144.389C31.2125 141.496 34.8525 138.069 34.8887 138.035C35.0449 137.885 35.0947 137.657 35.0132 137.455L24.2813 111.021C24.2225 110.876 24.1025 110.765 23.9531 110.717C23.8037 110.67 23.643 110.692 23.5094 110.776L21.2752 112.204L21.9566 108.023C22.0018 107.736 21.8094 107.467 21.5219 107.419C21.2367 107.372 20.9651 107.566 20.9175 107.854L20.0461 113.196C20.0121 113.4 20.1026 113.606 20.2769 113.719C20.449 113.832 20.6731 113.834 20.8496 113.723L23.5411 112.003L33.8972 137.512C31.9097 139.296 19.1089 150.261 8.64867 146.79C6.213 145.982 4.29118 144.094 3.37667 141.614C-3.09279 124.039 5.38451 102.312 11.0142 90.9262C13.6875 85.5161 18.6064 81.6272 24.5077 80.2554L26.219 79.857C26.5019 79.7914 26.6785 79.5084 26.6128 79.2255C26.5472 78.9425 26.2642 78.766 25.9813 78.8316L24.27 79.23C18.0608 80.6719 12.8862 84.7668 10.0725 90.4576C4.36814 101.995 -4.21555 124.03 2.38973 141.973C3.41515 144.758 5.57466 146.876 8.31591 147.786C9.76917 148.269 11.3265 148.509 12.9745 148.509H12.979Z" fill="#2F2E41"/>
<path d="M12.8659 118.936C13.0334 118.936 13.1987 118.855 13.3005 118.706C13.3254 118.669 15.6298 115.355 20.766 113.606C21.0422 113.513 21.187 113.214 21.0942 112.938C21.0014 112.664 20.7026 112.517 20.4265 112.61C14.9349 114.482 12.5309 117.968 12.4313 118.117C12.2683 118.357 12.3317 118.685 12.5716 118.848C12.6622 118.909 12.7641 118.939 12.8659 118.939V118.936Z" fill="#2F2E41"/>
<path d="M65.3483 57.4109C65.3483 57.4109 65.4546 57.2864 65.5927 57.3679C69.9253 59.9168 80.3788 50.7989 67.836 42.8875C74.1628 29.9508 51.5197 24.8441 48.3393 32.7917C43.4725 29.8535 33.4356 36.8866 34.7213 48.0644C30.2891 54.0381 34.6081 59.3056 34.6081 59.3056C34.6081 59.3056 33.886 72.0883 46.5397 67.7852L65.346 57.4109H65.3483Z" fill="#2F2E41"/>
<path d="M64.9634 55.9669C64.9634 58.5384 66.2514 60.6255 67.8382 60.6255C69.425 60.6255 70.713 58.5407 70.713 55.9669C70.713 53.3932 69.425 51.3105 67.8382 51.3105C66.2514 51.3105 64.9634 53.3954 64.9634 55.9669Z" fill="white"/>
<path d="M64.438 55.9669C64.438 53.0604 65.932 50.7832 67.838 50.7832C69.7439 50.7832 71.2379 53.0604 71.2379 55.9669C71.2379 58.8734 69.7439 61.1506 67.838 61.1506C65.932 61.1506 64.438 58.8734 64.438 55.9669ZM65.4906 55.9669C65.4906 58.2056 66.5658 60.098 67.8402 60.098C69.1147 60.098 70.1899 58.2056 70.1899 55.9669C70.1899 53.7281 69.1147 51.8358 67.8402 51.8358C66.5658 51.8358 65.4906 53.7281 65.4906 55.9669Z" fill="#2F2E41"/>
<path d="M39.1781 58.1238C39.5267 60.6727 41.084 62.5628 42.6573 62.3478C44.2305 62.1327 45.2242 59.894 44.8756 57.3452C44.527 54.7963 42.9696 52.9062 41.3964 53.1212C39.8232 53.3363 38.8295 55.575 39.1781 58.1238Z" fill="white"/>
<path d="M40.0519 61.6052C39.3343 60.7337 38.8386 59.5204 38.6575 58.1939C38.4764 56.8652 38.6281 55.5659 39.0853 54.5336C39.581 53.4154 40.3756 52.7295 41.324 52.5982C43.2119 52.3424 45.0002 54.3933 45.394 57.2726C45.7879 60.152 44.6154 62.6103 42.7275 62.8683C42.6211 62.8819 42.5124 62.891 42.4061 62.891C41.5662 62.891 40.74 62.4428 40.0519 61.6052ZM41.4666 53.6395C40.8939 53.7187 40.3892 54.185 40.0473 54.9592C39.6671 55.8171 39.5448 56.915 39.6988 58.0513C39.8549 59.1877 40.2669 60.2131 40.8645 60.9375C41.401 61.5894 42.0122 61.904 42.5871 61.8271C43.848 61.655 44.6584 59.6359 44.355 57.4153C44.0653 55.2988 42.8497 53.6282 41.6432 53.6282C41.5844 53.6282 41.5255 53.6327 41.4689 53.6395H41.4666Z" fill="#2F2E41"/>
<path d="M41.4193 56.7838C41.46 57.438 41.5257 58.0786 41.6185 58.7079C42.8838 67.5134 48.9051 74.0575 55.7005 73.6365C62.9849 73.1838 68.3972 64.9079 67.7928 55.1494C67.6457 52.7771 67.1568 50.5384 66.3985 48.5102C64.0284 42.1947 59.0235 37.9549 53.5093 38.2944C51.9769 38.3895 50.5281 38.8309 49.1994 39.5621C47.7529 40.3543 46.4536 41.4862 45.3467 42.8851C42.6326 46.3054 41.0797 51.3126 41.4193 56.7838Z" fill="white"/>
<path d="M41.0955 58.7849C41.0027 58.1443 40.9326 57.4811 40.8941 56.8155C40.5591 51.4145 42.0304 46.2195 44.9324 42.5592C46.1004 41.0833 47.4518 39.9198 48.9435 39.1026C50.3719 38.3172 51.8976 37.869 53.4753 37.7716C59.0846 37.4253 64.3521 41.5677 66.8874 48.3269C67.6864 50.4638 68.1663 52.7478 68.3134 55.1178C68.9337 65.148 63.2882 73.6909 55.7299 74.1618C55.5103 74.1753 55.293 74.1821 55.0757 74.1821C48.321 74.1821 42.3745 67.6991 41.0955 58.7849ZM53.541 38.8219C52.1194 38.9102 50.7431 39.3132 49.4506 40.0239C48.0811 40.7755 46.8384 41.8484 45.7564 43.2134C43.0128 46.6722 41.623 51.6069 41.9421 56.7522C41.9806 57.3883 42.0463 58.0198 42.1368 58.6333C43.3411 67.0245 48.8439 73.1295 55.0757 73.1295C55.2727 73.1295 55.4696 73.1227 55.6665 73.1114C62.6476 72.6768 67.8517 64.6341 67.2676 55.1812C67.1273 52.9153 66.6678 50.7332 65.9049 48.6959C63.6255 42.6203 59.0484 38.8038 54.1295 38.8038C53.9349 38.8038 53.7379 38.8106 53.541 38.8219Z" fill="#2F2E41"/>
<path d="M49.1995 39.5642C50.938 40.0645 52.5452 41.3751 53.8332 43.89C58.2563 52.5077 63.6234 50.4613 66.3963 48.5146C64.0263 42.1991 59.0214 37.9593 53.5072 38.2988C51.9747 38.3939 50.526 38.8353 49.1973 39.5665L49.1995 39.5642Z" fill="#2F2E41"/>
<path d="M41.4193 56.7839C41.46 57.4381 41.5257 58.0787 41.6185 58.708C45.6364 55.6974 45.5685 46.6791 45.3467 42.8853C42.6326 46.3056 41.0797 51.3127 41.4193 56.7839Z" fill="#2F2E41"/>
<path d="M92.0768 248.095L61.1782 255.495L65.341 272.886L73.472 270.939L76.2019 282.343L64.1096 285.241L67.8197 300.729L77.9698 298.3L79.8124 305.989L101.448 300.808L92.0768 248.095Z" fill="white"/>
<path d="M79.3008 306.112L77.5805 298.931L67.9397 301.24C67.8039 301.272 67.6612 301.249 67.5413 301.177C67.4213 301.104 67.3376 300.987 67.3059 300.851L63.5958 285.361C63.5279 285.078 63.7022 284.795 63.9851 284.727L75.5681 281.954L73.0826 271.571L65.4633 273.395C65.1826 273.463 64.8974 273.289 64.8295 273.006L60.6644 255.614C60.6327 255.479 60.6553 255.336 60.7278 255.216C60.8002 255.098 60.9179 255.012 61.0537 254.981L91.9523 247.581C92.0926 247.547 92.242 247.574 92.362 247.653C92.4842 247.733 92.5657 247.859 92.5906 248.002L101.964 300.715C102.014 300.989 101.84 301.254 101.57 301.319C101.57 301.319 79.9324 306.501 79.8102 306.515C79.5725 306.515 79.3574 306.352 79.2986 306.112H79.3008ZM91.6557 248.738L61.8098 255.884L65.7281 272.252L73.3475 270.428C73.6305 270.36 73.9134 270.534 73.9813 270.817L76.7135 282.221C76.7814 282.504 76.6071 282.787 76.3242 282.855L64.7434 285.628L68.2068 300.095L77.8476 297.786C78.1306 297.718 78.4135 297.892 78.4814 298.175L80.1995 305.356L100.844 300.412L91.6557 248.735V248.738Z" fill="#2F2E41"/>
<path d="M40.4026 124.715C42.8722 135.026 52.1146 141.944 62.2828 141.876L101.679 306.399L111.569 304.031L72.1704 139.508C81.2634 134.963 86.3724 124.611 83.9028 114.298C81.0257 102.285 68.956 94.8809 56.9452 97.7557C44.9344 100.63 37.5278 112.702 40.4026 124.715ZM54.4642 117.304C53.5678 113.563 55.8745 109.805 59.6163 108.909C63.3581 108.012 67.1157 110.319 68.0121 114.061C68.9085 117.802 66.6018 121.56 62.8601 122.456C59.1183 123.353 55.3606 121.046 54.4642 117.304Z" fill="white"/>
<path d="M101.168 306.521L61.8665 142.401C56.9272 142.342 52.0672 140.647 48.133 137.605C44.029 134.429 41.1022 129.895 39.8911 124.838C36.9507 112.562 44.5474 100.185 56.8231 97.2465C69.0988 94.3061 81.4763 101.903 84.4145 114.178C85.6255 119.235 85.0687 124.602 82.8481 129.293C80.7202 133.786 77.155 137.501 72.7772 139.789L112.078 303.909C112.11 304.045 112.087 304.188 112.015 304.305C111.943 304.425 111.825 304.509 111.689 304.541C111.689 304.541 101.799 306.908 101.677 306.924C101.439 306.924 101.224 306.761 101.165 306.521H101.168ZM71.6589 139.631C71.6023 139.393 71.7155 139.146 71.9351 139.038C81.0598 134.476 85.7704 124.353 83.3913 114.421C80.5867 102.708 68.7796 95.4628 57.0653 98.2674C45.3533 101.072 38.1074 112.881 40.912 124.593C43.2911 134.528 52.0785 141.414 62.2807 141.351C62.5229 141.351 62.7357 141.518 62.7923 141.754L102.066 305.765L110.933 303.642L71.6589 139.631ZM53.9528 117.427C52.9908 113.409 55.4762 109.359 59.4942 108.397C61.4409 107.931 63.451 108.25 65.1555 109.298C66.86 110.344 68.0575 111.992 68.5215 113.938C68.9878 115.885 68.6687 117.895 67.6206 119.6C66.5748 121.304 64.9269 122.502 62.9802 122.968C62.3961 123.108 61.8121 123.174 61.2349 123.174C57.8508 123.174 54.7722 120.861 53.9505 117.427H53.9528ZM59.7386 109.42C56.2866 110.246 54.1497 113.73 54.976 117.182C55.8022 120.634 59.2837 122.773 62.738 121.945C64.4108 121.544 65.8278 120.516 66.7265 119.05C67.6274 117.583 67.9013 115.856 67.5006 114.183C67.1 112.51 66.0723 111.093 64.6054 110.194C63.58 109.565 62.4233 109.241 61.2507 109.241C60.7482 109.241 60.2412 109.3 59.7386 109.42Z" fill="#2F2E41"/>
<path d="M63.1503 102.034L67.0551 95.0779C67.0551 95.0779 69.7556 94.3558 71.9762 96.8933C75.4124 96.3636 76.9811 99.3584 76.9811 99.3584C76.9811 99.3584 81.1055 99.7478 81.9521 102.602C83.8015 105.298 84.6594 112.702 84.6594 112.702C84.6594 112.702 83.2084 108.793 80.3675 106.28L76.7185 110.48C76.7185 110.48 73.7577 111.802 71.8019 108.893C68.3137 108.682 66.8333 105.246 66.8333 105.246C66.8333 105.246 65.0178 105.022 63.5827 103.999C62.9579 103.553 62.7791 102.702 63.1549 102.034H63.1503Z" fill="white"/>
<path d="M84.1612 112.886C84.1476 112.85 82.8596 109.434 80.4013 107.037L77.1099 110.826C77.0601 110.882 76.9968 110.93 76.9266 110.962C75.7948 111.466 73.2505 111.763 71.5075 109.4C68.4606 109.085 66.91 106.566 66.4731 105.724C65.8733 105.613 64.463 105.28 63.2701 104.429C62.428 103.829 62.179 102.688 62.6906 101.778L66.5954 94.8222C66.6633 94.6977 66.781 94.6071 66.9168 94.5709C67.0368 94.5392 69.8075 93.8352 72.1775 96.3365C75.1451 96.0219 76.8089 98.1339 77.2933 98.8673C78.2689 99.0121 81.5716 99.6935 82.4272 102.371C84.297 105.192 85.1413 112.336 85.1775 112.639C85.2092 112.904 85.0372 113.148 84.6546 113.225C84.4396 113.225 84.2404 113.092 84.1612 112.883V112.886ZM79.9644 105.936C80.0572 105.83 80.1862 105.767 80.3266 105.755C80.4669 105.748 80.605 105.794 80.7091 105.887C81.9292 106.966 82.8958 108.279 83.6111 109.45C83.181 107.175 82.4861 104.318 81.4425 102.751C80.7091 100.275 76.9651 99.8836 76.9266 99.8814C76.75 99.8655 76.5938 99.7591 76.5101 99.6007C76.4965 99.5735 75.084 96.9454 72.0507 97.4118C71.8719 97.4389 71.6931 97.3733 71.5754 97.2375C69.9229 95.3496 68.0124 95.4492 67.3899 95.5443L63.6051 102.29C63.3584 102.731 63.4761 103.281 63.879 103.569C65.1829 104.499 66.8715 104.721 66.8874 104.723C67.073 104.746 67.2315 104.866 67.3062 105.035C67.3197 105.067 68.7119 108.18 71.8244 108.368C71.9873 108.377 72.1367 108.463 72.2296 108.598C73.7394 110.842 75.9057 110.217 76.3969 110.036L79.9599 105.932L79.9644 105.936Z" fill="#2F2E41"/>
<path d="M71.5323 109.155C71.7247 109.155 71.9126 109.049 72.0031 108.863C72.0303 108.809 74.7987 103.27 77.5829 99.7048C77.7618 99.4762 77.721 99.1457 77.4924 98.9669C77.2638 98.7881 76.9333 98.8288 76.7545 99.0574C73.9045 102.706 71.1791 108.164 71.0637 108.395C70.9347 108.655 71.041 108.97 71.2991 109.099C71.3738 109.135 71.4553 109.153 71.5323 109.153V109.155Z" fill="#2F2E41"/>
<path d="M66.9009 105.927C67.0888 105.927 67.2698 105.828 67.3649 105.649C67.3989 105.586 70.7423 99.3537 72.3902 97.2123C72.5667 96.9814 72.5237 96.6509 72.2929 96.4744C72.062 96.2978 71.7315 96.3408 71.5549 96.5717C69.8572 98.7833 66.5749 104.895 66.4368 105.153C66.301 105.409 66.3961 105.728 66.6519 105.864C66.7311 105.907 66.8171 105.927 66.8986 105.927H66.9009Z" fill="#2F2E41"/>
<path d="M79.8533 107.39C79.9959 107.39 80.1362 107.333 80.2404 107.22L81.9811 105.339C82.178 105.126 82.1644 104.793 81.9517 104.596C81.7389 104.399 81.4061 104.413 81.2092 104.626L79.4685 106.507C79.2715 106.72 79.2851 107.052 79.4979 107.249C79.5997 107.342 79.7265 107.39 79.8533 107.39Z" fill="#2F2E41"/>
<path d="M19.6974 119.174C19.6929 121.737 20.2361 124.657 21.3702 127.604C22.7465 131.185 24.7498 134.153 26.9071 136.115C28.186 137.276 29.5216 138.085 30.8164 138.454C33.046 136.421 35.4704 133.777 37.8291 130.943C43.4678 124.17 48.7398 116.313 50.1206 113.108C53.8918 109.882 55.1074 103.96 55.8453 102.163C55.9359 101.939 56.1238 101.767 56.3546 101.694L60.9566 100.225L65.2485 100.087C66.8828 100.033 68.1255 98.5208 67.7633 96.9227C67.6977 96.6284 67.5823 96.3636 67.4057 96.1553C69.4203 92.9183 64.8161 91.5035 64.8161 91.5035C64.8161 91.5035 63.7069 89.1245 60.7461 88.6514C60.5175 87.9949 60.101 87.4856 59.6211 87.0895C58.4621 86.1319 56.8843 85.849 55.4356 86.2564L44.998 89.1969C42.8204 89.8126 41.1023 91.4922 40.4436 93.6563L37.1115 104.596L28.4826 111.82L19.6929 119.176L19.6974 119.174Z" fill="white"/>
<path d="M30.6715 138.958C29.302 138.569 27.9166 137.743 26.5517 136.504C24.2473 134.411 22.2326 131.316 20.879 127.794C19.7562 124.881 19.1654 121.899 19.1699 119.174C19.1699 119.018 19.2379 118.871 19.3578 118.771L36.6565 104.293L39.9433 93.5022C40.6586 91.1549 42.4944 89.3553 44.8576 88.6898L55.2952 85.7493C56.9432 85.2853 58.6862 85.6339 59.9583 86.6819C60.4857 87.1165 60.8774 87.6213 61.1286 88.1827C63.6299 88.7011 64.8342 90.4599 65.1851 91.0711C65.8234 91.3043 67.6999 92.1101 68.2749 93.6471C68.5692 94.4303 68.4854 95.2656 68.0282 96.1303C68.1391 96.3295 68.2228 96.5559 68.2794 96.8071C68.4809 97.699 68.2704 98.6316 67.7045 99.3651C67.1159 100.126 66.2286 100.581 65.2688 100.612L61.0494 100.748L56.5131 102.197C56.4316 102.222 56.3659 102.283 56.332 102.362C56.1939 102.697 56.0287 103.215 55.8385 103.815C55.01 106.409 53.6315 110.735 50.5552 113.427C49.1495 116.591 44.0925 124.24 38.2343 131.278C35.6605 134.37 33.2837 136.914 31.1717 138.841C31.0744 138.931 30.9476 138.979 30.8163 138.979C30.7688 138.979 30.719 138.972 30.6737 138.958H30.6715ZM55.5805 86.7589L45.1429 89.6993C43.126 90.2675 41.5595 91.8045 40.9483 93.8056L37.6163 104.748C37.5869 104.845 37.528 104.931 37.451 104.997L20.2225 119.419C20.2542 121.949 20.8179 124.709 21.8591 127.414C23.1562 130.787 25.0735 133.738 27.2579 135.723C28.3897 136.751 29.5668 137.485 30.6805 137.858C32.7019 135.991 34.9678 133.55 37.4239 130.603C43.1079 123.776 48.3278 115.935 49.6362 112.897C49.6679 112.822 49.7154 112.757 49.7765 112.705C52.6898 110.212 54.0321 106.007 54.8335 103.492C55.0395 102.844 55.2024 102.333 55.3564 101.959C55.508 101.588 55.8136 101.307 56.1916 101.19C56.1916 101.19 60.7936 99.7204 60.9385 99.6955L65.2303 99.5575C65.8755 99.5371 66.4731 99.2292 66.8692 98.7176C67.245 98.2332 67.383 97.6198 67.2517 97.0335C67.1997 96.8026 67.1182 96.6215 67.0073 96.4902C66.8579 96.3159 66.8398 96.0669 66.962 95.8723C67.3921 95.1819 67.4985 94.5752 67.2902 94.0138C66.7922 92.6738 64.6848 92.006 64.6644 91.9992C64.5218 91.9562 64.4064 91.8543 64.343 91.7185C64.3339 91.6981 63.3198 89.5862 60.6668 89.1629C60.4744 89.1312 60.316 88.9999 60.2526 88.8165C60.0806 88.3208 59.7569 87.8749 59.2906 87.4878C58.5798 86.9015 57.6811 86.5936 56.7508 86.5936C56.3637 86.5936 55.9698 86.648 55.585 86.7566L55.5805 86.7589Z" fill="#2F2E41"/>
<path d="M49.6973 91.338C49.858 91.3131 56.4814 89.183 56.4814 89.183C56.9862 89.02 57.5113 88.9566 58.041 88.9906L60.7121 89.1694C60.9996 89.1875 61.2531 88.9702 61.2712 88.6805C61.2916 88.3907 61.072 88.1395 60.7823 88.1214L58.1112 87.9425C57.4502 87.8995 56.7915 87.9788 56.1599 88.1825L49.5366 90.3125C49.2604 90.4008 49.1087 90.6974 49.197 90.9735C49.2694 91.1954 49.4754 91.338 49.6973 91.338Z" fill="#2F2E41"/>
<path d="M52.201 94.5821C52.3527 94.5595 59.7593 92.3479 59.7593 92.3479C59.9698 92.2845 60.1894 92.2483 60.4112 92.237L64.8434 92.0265C65.1331 92.0129 65.3572 91.7661 65.3437 91.4764C65.3301 91.1867 65.0788 90.9626 64.7936 90.9762L60.3614 91.1867C60.0558 91.2002 59.7525 91.2523 59.4582 91.3406L52.0494 93.5544C51.7709 93.6382 51.6125 93.9302 51.6962 94.2086C51.7641 94.4372 51.9747 94.5844 52.201 94.5844V94.5821Z" fill="#2F2E41"/>
<path d="M54.51 97.4184C54.6549 97.398 59.4832 96.0082 59.4832 96.0082C60.3344 95.7637 61.2443 95.7071 62.1181 95.8452L67.329 96.6714C67.6165 96.7167 67.8836 96.522 67.9311 96.2345C67.9764 95.947 67.7817 95.6777 67.4942 95.6324L62.2833 94.8062C61.2579 94.6432 60.1895 94.7088 59.1935 94.9963L54.3674 96.3862C54.089 96.4677 53.9283 96.7574 54.0075 97.0381C54.0732 97.269 54.2837 97.4184 54.5123 97.4184H54.51Z" fill="#2F2E41"/>
<path d="M59.9922 52.6729C59.9922 53.1913 60.411 53.6101 60.9293 53.6101C61.4477 53.6101 61.8665 53.1913 61.8665 52.6729C61.8665 52.1545 61.4477 51.7358 60.9293 51.7358C60.411 51.7358 59.9922 52.1545 59.9922 52.6729Z" fill="#2F2E41"/>
<path d="M50.7476 53.2662C50.7476 53.7846 51.1663 54.2034 51.6847 54.2034C52.2031 54.2034 52.6218 53.7846 52.6218 53.2662C52.6218 52.7479 52.2031 52.3291 51.6847 52.3291C51.1663 52.3291 50.7476 52.7479 50.7476 53.2662Z" fill="#2F2E41"/>
<path d="M57.3618 60.8494C57.7375 60.8494 58.1744 60.7724 58.6679 60.5551C59.0527 60.3853 59.347 60.0594 59.4783 59.661C59.6073 59.2671 59.5643 58.837 59.3583 58.4794C58.4144 56.8405 57.5927 53.1915 57.5859 53.1553C57.5225 52.8724 57.2418 52.6935 56.9589 52.7569C56.6759 52.8203 56.4971 53.101 56.5605 53.3839C56.5944 53.5401 57.4252 57.2276 58.4483 59.0045C58.5276 59.1403 58.5026 59.2694 58.48 59.335C58.4415 59.4527 58.3578 59.5433 58.2446 59.5931C57.1762 60.0639 56.5831 59.5795 56.5786 59.575C56.3613 59.3826 56.0285 59.4029 55.8361 59.6202C55.6437 59.8375 55.6641 60.1703 55.8814 60.3627C55.9131 60.3899 56.4473 60.8517 57.3618 60.8517V60.8494Z" fill="#2F2E41"/>
<path d="M49.2172 53.4903C49.4096 53.4903 49.5953 53.384 49.6881 53.2006C50.4758 51.6251 52.1554 51.7632 52.2279 51.77C52.5108 51.7972 52.7734 51.5866 52.8028 51.2992C52.8323 51.0117 52.624 50.7559 52.3343 50.7242C52.2347 50.7129 49.8669 50.4933 48.7487 52.7298C48.6196 52.9901 48.7238 53.3047 48.9841 53.436C49.0588 53.4745 49.1403 53.4926 49.2195 53.4926L49.2172 53.4903Z" fill="#2F2E41"/>
<path d="M63.1797 52.399C63.2951 52.399 63.4106 52.3605 63.5079 52.2836C63.7343 52.1025 63.7728 51.7742 63.5917 51.5479C63.5215 51.4596 61.8623 49.4133 59.4108 50.2938C59.1369 50.3912 58.9965 50.6922 59.0938 50.9661C59.1912 51.24 59.4945 51.3804 59.7661 51.283C61.5001 50.6605 62.7179 52.1387 62.77 52.2021C62.8741 52.3311 63.0258 52.399 63.1797 52.399Z" fill="#2F2E41"/>
<path d="M56.9796 65.5961C58.9829 65.5961 60.4497 64.6318 60.538 64.5707C60.7779 64.4077 60.8436 64.0817 60.6806 63.8418C60.5199 63.6018 60.1939 63.5362 59.9517 63.6992C59.8453 63.7716 57.2919 65.4308 54.485 63.8938C54.2292 63.7558 53.9101 63.8486 53.772 64.1021C53.6316 64.3579 53.7267 64.6771 53.9802 64.8151C55.0396 65.3946 56.0673 65.5961 56.9818 65.5961H56.9796Z" fill="#2F2E41"/>
</g>
<defs>
<clipPath id="clip0_390_846">
<rect width="575" height="314" fill="white"/>
</clipPath>
</defs>
</svg>
