<svg xmlns="http://www.w3.org/2000/svg" xmlns:xlink="http://www.w3.org/1999/xlink" width="32" height="32" viewBox="0 0 32 32">
  <defs>
    <clipPath id="clip-path">
      <rect id="Rectangle_518" data-name="Rectangle 518" width="32" height="32" transform="translate(193.151 423)" fill="#fff" stroke="#707070" stroke-width="1"/>
    </clipPath>
  </defs>
  <g id="Mask_Group_50" data-name="Mask Group 50" transform="translate(-193.151 -423)" clip-path="url(#clip-path)">
    <g id="sharepoint" transform="translate(190.823 420.671)">
      <circle id="Ellipse_162" data-name="Ellipse 162" cx="9.057" cy="9.057" r="9.057" transform="translate(8.367 2.933)" fill="#036c70"/>
      <circle id="Ellipse_163" data-name="Ellipse 163" cx="7.849" cy="7.849" r="7.849" transform="translate(18.631 12.593)" fill="#1a9ba1"/>
      <circle id="Ellipse_164" data-name="Ellipse 164" cx="6.641" cy="6.641" r="6.641" transform="translate(11.99 20.443)" fill="#37c6d0"/>
      <path id="Path_2299" data-name="Path 2299" d="M19.213,11.837V27.172a1.01,1.01,0,0,1-.023.233,1.347,1.347,0,0,1-1.333,1.124H12.145c-.041-.192-.076-.384-.1-.582a4.805,4.805,0,0,1-.052-.582c-.006-.093-.006-.186-.006-.279a6.644,6.644,0,0,1,4.1-6.136,9.062,9.062,0,0,1-7.72-8.961,8.6,8.6,0,0,1,.128-1.508h9.362a1.354,1.354,0,0,1,1.357,1.357Z" opacity="0.2"/>
      <path id="Path_2300" data-name="Path 2300" d="M19.8,11.837V26.008a1.957,1.957,0,0,1-1.939,1.939H12.046a4.805,4.805,0,0,1-.052-.582c-.006-.093-.006-.186-.006-.279a6.644,6.644,0,0,1,4.1-6.136,9.062,9.062,0,0,1-7.72-8.961,8.6,8.6,0,0,1,.128-1.508c.029-.2.07-.39.116-.582h9.246A1.946,1.946,0,0,1,19.8,11.837Z" opacity="0.1"/>
      <path id="Path_2301" data-name="Path 2301" d="M19.213,11.837V26.008a1.354,1.354,0,0,1-1.357,1.357H11.994c-.006-.093-.006-.186-.006-.279a6.644,6.644,0,0,1,4.1-6.136,9.062,9.062,0,0,1-7.72-8.961,8.6,8.6,0,0,1,.128-1.508h9.362a1.354,1.354,0,0,1,1.357,1.357Z" opacity="0.2"/>
      <path id="Path_2302" data-name="Path 2302" d="M18.631,11.837V26.008a1.354,1.354,0,0,1-1.357,1.357H11.994c-.006-.093-.006-.186-.006-.279a6.644,6.644,0,0,1,4.1-6.136,9.062,9.062,0,0,1-7.72-8.961,8.6,8.6,0,0,1,.128-1.508h8.78a1.354,1.354,0,0,1,1.357,1.357Z" opacity="0.1"/>
      <rect id="Rectangle_530" data-name="Rectangle 530" width="16.302" height="16.302" rx="1.358" transform="translate(2.329 10.48)" fill="#038387"/>
      <path id="Path_2303" data-name="Path 2303" d="M8.367,18.683a2.338,2.338,0,0,1-.727-.768,2.085,2.085,0,0,1-.253-1.051,2.023,2.023,0,0,1,.47-1.361,2.776,2.776,0,0,1,1.251-.815,5.285,5.285,0,0,1,1.709-.265,6.493,6.493,0,0,1,2.251.316v1.589a3.517,3.517,0,0,0-1.019-.416,4.94,4.94,0,0,0-1.191-.143,2.581,2.581,0,0,0-1.223.259.8.8,0,0,0-.486.735.745.745,0,0,0,.206.521,1.872,1.872,0,0,0,.554.4q.348.173,1.039.459a1.077,1.077,0,0,1,.148.059,8.57,8.57,0,0,1,1.31.646,2.345,2.345,0,0,1,.774.78A2.258,2.258,0,0,1,13.46,20.8a2.191,2.191,0,0,1-.44,1.417,2.463,2.463,0,0,1-1.179.792,5.34,5.34,0,0,1-1.679.245,8.857,8.857,0,0,1-1.521-.125A5.221,5.221,0,0,1,7.4,22.771V21.092a3.977,3.977,0,0,0,1.25.6,4.87,4.87,0,0,0,1.376.22,2.366,2.366,0,0,0,1.247-.265.837.837,0,0,0,.42-.747.8.8,0,0,0-.235-.572,2.385,2.385,0,0,0-.649-.452q-.414-.208-1.224-.548a6.956,6.956,0,0,1-1.224-.64Z" fill="#fff"/>
    </g>
  </g>
</svg>
