<svg width="50" height="50" viewBox="0 0 50 50" fill="none" xmlns="http://www.w3.org/2000/svg">
<path d="M24.9 8.78896C21.1274 8.85086 17.5282 10.384 14.8697 13.0615C12.2113 15.739 10.7039 19.349 10.669 23.122C10.6659 25.2461 11.1366 27.3442 12.0467 29.2635C12.9568 31.1828 14.2834 32.875 15.93 34.217C16.5949 34.7521 17.02 35.5294 17.112 36.378C17.07 36.628 17.099 36.34 17.09 42.578C17.09 42.9665 17.2443 43.3391 17.519 43.6139C17.7938 43.8886 18.1664 44.043 18.555 44.043H19.092V44.092C19.092 45.6589 19.7144 47.1616 20.8224 48.2695C21.9303 49.3775 23.4331 50 25 50C26.5669 50 28.0696 49.3775 29.1775 48.2695C30.2855 47.1616 30.908 45.6589 30.908 44.092V44.043H31.445C31.6373 44.043 31.8278 44.0051 32.0056 43.9314C32.1833 43.8578 32.3448 43.7499 32.4809 43.6139C32.6169 43.4778 32.7248 43.3163 32.7984 43.1386C32.8721 42.9608 32.91 42.7703 32.91 42.578C32.9 36.364 32.933 36.612 32.884 36.351C32.9174 35.9532 33.0312 35.5664 33.2184 35.2139C33.4056 34.8614 33.6623 34.5505 33.973 34.3C36.2952 32.437 37.9797 29.8972 38.7924 27.0332C39.6052 24.1691 39.5058 21.1231 38.5082 18.3181C37.5106 15.5131 35.6643 13.0884 33.2256 11.3807C30.7869 9.67303 27.877 8.76718 24.9 8.78896V8.78896ZM29.983 38.089V41.116H20.02V38.086L29.983 38.089ZM27.983 44.095C27.9687 44.8755 27.6486 45.6192 27.0915 46.1661C26.5345 46.713 25.7851 47.0194 25.0045 47.0194C24.2238 47.0194 23.4744 46.713 22.9174 46.1661C22.3604 45.6192 22.0403 44.8755 22.026 44.095V44.046H27.983V44.095ZM32.142 32.015C31.1457 32.8151 30.4387 33.9193 30.129 35.159H19.858C19.5234 33.8977 18.7977 32.7749 17.785 31.952C16.4748 30.8839 15.4193 29.5371 14.6953 28.0096C13.9714 26.4821 13.5972 24.8123 13.6 23.122C13.6433 20.1259 14.8472 17.2635 16.9584 15.1373C19.0696 13.011 21.9233 11.7866 24.919 11.722H25C27.3614 11.7211 29.6648 12.4535 31.592 13.8181C33.5192 15.1827 34.9751 17.112 35.7586 19.3397C36.5421 21.5674 36.6144 23.9833 35.9657 26.2539C35.3169 28.5244 33.9791 30.5375 32.137 32.015H32.142Z" fill="#673DE6"/>
<path d="M29.7663 20.132L26.4663 22.693V21.293C26.467 21.0182 26.3905 20.7488 26.2455 20.5154C26.1005 20.2821 25.8928 20.0942 25.6462 19.9731C25.3995 19.8521 25.1238 19.8028 24.8505 19.8309C24.5771 19.859 24.3172 19.9633 24.1003 20.132L18.4363 24.527C18.2843 24.6452 18.1571 24.7922 18.0619 24.9595C17.9667 25.1269 17.9054 25.3114 17.8815 25.5024C17.8576 25.6935 17.8715 25.8874 17.9225 26.073C17.9736 26.2587 18.0606 26.4325 18.1788 26.5845C18.297 26.7365 18.444 26.8637 18.6114 26.9589C18.7787 27.0541 18.9632 27.1155 19.1543 27.1394C19.3453 27.1633 19.5392 27.1493 19.7249 27.0983C19.9105 27.0473 20.0843 26.9602 20.2363 26.842L23.5363 24.281V25.681C23.5361 25.9553 23.6129 26.2242 23.7578 26.4571C23.9028 26.6899 24.1103 26.8775 24.3565 26.9983C24.6028 27.1192 24.8781 27.1685 25.151 27.1407C25.4239 27.1129 25.6835 27.009 25.9003 26.841L31.5643 22.446C31.8713 22.2073 32.0709 21.8564 32.1192 21.4706C32.1675 21.0847 32.0605 20.6955 31.8218 20.3885C31.5831 20.0815 31.2323 19.8819 30.8464 19.8336C30.4606 19.7853 30.0713 19.8923 29.7643 20.131L29.7663 20.132Z" fill="#673DE6"/>
<path d="M25.0002 5.957C25.3887 5.957 25.7613 5.80265 26.0361 5.52791C26.3108 5.25317 26.4652 4.88054 26.4652 4.492V1.465C26.4652 1.07646 26.3108 0.703829 26.0361 0.429089C25.7613 0.154348 25.3887 0 25.0002 0C24.6116 0 24.239 0.154348 23.9642 0.429089C23.6895 0.703829 23.5352 1.07646 23.5352 1.465V4.492C23.5352 4.88054 23.6895 5.25317 23.9642 5.52791C24.239 5.80265 24.6116 5.957 25.0002 5.957Z" fill="#673DE6"/>
<path d="M10.7402 11.005C11.0149 11.2798 11.3876 11.4342 11.7762 11.4342C12.1647 11.4342 12.5374 11.2798 12.8122 11.005C13.0869 10.7303 13.2413 10.3576 13.2413 9.96904C13.2413 9.58047 13.0869 9.20781 12.8122 8.93304L10.6712 6.79304C10.3948 6.52637 10.0247 6.3789 9.64068 6.38238C9.25663 6.38587 8.88931 6.54002 8.6178 6.81166C8.3463 7.0833 8.19232 7.4507 8.18902 7.83475C8.18572 8.2188 8.33337 8.58878 8.60017 8.86504L10.7402 11.005Z" fill="#673DE6"/>
<path d="M7.76415 23.193C7.76389 22.8048 7.60956 22.4326 7.33506 22.1581C7.06057 21.8836 6.68835 21.7293 6.30015 21.729H3.27115C2.88261 21.729 2.50998 21.8834 2.23524 22.1581C1.9605 22.4328 1.80615 22.8055 1.80615 23.194C1.80615 23.5825 1.9605 23.9552 2.23524 24.2299C2.50998 24.5047 2.88261 24.659 3.27115 24.659H6.30015C6.49254 24.6589 6.68302 24.6208 6.86071 24.5471C7.0384 24.4734 7.19983 24.3653 7.33577 24.2292C7.47172 24.0931 7.57952 23.9315 7.65302 23.7537C7.72652 23.5759 7.76428 23.3854 7.76415 23.193V23.193Z" fill="#673DE6"/>
<path d="M46.7294 21.729H43.7004C43.3118 21.729 42.9392 21.8834 42.6644 22.1581C42.3897 22.4328 42.2354 22.8055 42.2354 23.194C42.2354 23.5825 42.3897 23.9552 42.6644 24.2299C42.9392 24.5047 43.3118 24.659 43.7004 24.659H46.7274C47.1159 24.659 47.4885 24.5047 47.7633 24.2299C48.038 23.9552 48.1924 23.5825 48.1924 23.194C48.1924 22.8055 48.038 22.4328 47.7633 22.1581C47.4885 21.8834 47.1159 21.729 46.7274 21.729H46.7294Z" fill="#673DE6"/>
<path d="M45.635 30.1549L42.838 28.9999C42.4861 28.8806 42.1019 28.8995 41.7634 29.0529C41.4249 29.2062 41.1573 29.4824 41.0148 29.8256C40.8723 30.1688 40.8656 30.5534 40.996 30.9013C41.1263 31.2493 41.3841 31.5348 41.717 31.6999L44.517 32.8579C44.8754 33.0034 45.2768 33.0013 45.6336 32.852C45.9904 32.7027 46.2737 32.4184 46.4217 32.061C46.5697 31.7036 46.5703 31.3023 46.4235 30.9444C46.2767 30.5866 45.9943 30.3013 45.638 30.1509L45.635 30.1549Z" fill="#673DE6"/>
<path d="M16.4901 6.47597C16.6388 6.83534 16.9241 7.12093 17.2833 7.26993C17.6425 7.41893 18.0462 7.41912 18.4056 7.27047C18.765 7.12181 19.0506 6.83649 19.1996 6.47726C19.3486 6.11804 19.3488 5.71434 19.2001 5.35497L18.0421 2.55497C17.9694 2.37593 17.862 2.21303 17.7261 2.07568C17.5902 1.93832 17.4284 1.82921 17.2501 1.75462C17.0719 1.68004 16.8806 1.64147 16.6874 1.64112C16.4941 1.64077 16.3027 1.67865 16.1242 1.75258C15.9457 1.82651 15.7835 1.93504 15.6471 2.0719C15.5107 2.20877 15.4027 2.37127 15.3294 2.55004C15.256 2.72882 15.2188 2.92034 15.2197 3.11358C15.2207 3.30681 15.2599 3.49795 15.3351 3.67597L16.4901 6.47597Z" fill="#673DE6"/>
<path d="M8.2831 14.683L5.4831 13.525C5.30508 13.4499 5.11394 13.4107 4.92071 13.4097C4.72747 13.4087 4.53595 13.446 4.35717 13.5193C4.1784 13.5927 4.0159 13.7006 3.87903 13.8371C3.74217 13.9735 3.63364 14.1356 3.55971 14.3142C3.48578 14.4927 3.44789 14.6841 3.44824 14.8773C3.4486 15.0706 3.48717 15.2618 3.56175 15.4401C3.63633 15.6184 3.74545 15.7801 3.8828 15.916C4.02016 16.0519 4.18305 16.1593 4.3621 16.232L7.1621 17.39C7.52047 17.5356 7.92185 17.5334 8.27866 17.3842C8.63548 17.2349 8.91879 16.9505 9.06677 16.5932C9.21476 16.2358 9.21542 15.8344 9.06861 15.4766C8.92179 15.1188 8.63942 14.8335 8.2831 14.683Z" fill="#673DE6"/>
<path d="M39.2599 11.0049L41.3999 8.86489C41.6747 8.59013 41.829 8.21747 41.829 7.82889C41.829 7.44032 41.6747 7.06766 41.3999 6.79289C41.1252 6.51813 40.7525 6.36377 40.3639 6.36377C39.9753 6.36377 39.6027 6.51813 39.3279 6.79289L37.1879 8.93389C36.9132 9.20866 36.7588 9.58132 36.7588 9.96989C36.7588 10.3585 36.9132 10.7311 37.1879 11.0059C37.4627 11.2807 37.8353 11.435 38.2239 11.435C38.6125 11.435 38.9852 11.2807 39.2599 11.0059V11.0049Z" fill="#673DE6"/>
<path d="M31.6004 7.26881C31.9594 7.41746 32.3627 7.41742 32.7216 7.2687C33.0806 7.11999 33.3657 6.83478 33.5144 6.47581L34.6724 3.67581C34.8179 3.31744 34.8158 2.91606 34.6665 2.55925C34.5172 2.20243 34.2329 1.91912 33.8755 1.77114C33.5182 1.62315 33.1168 1.62249 32.7589 1.7693C32.4011 1.91612 32.1158 2.19849 31.9654 2.55481L30.8004 5.35481C30.727 5.53299 30.6895 5.72389 30.6899 5.91659C30.6904 6.10929 30.7289 6.3 30.8033 6.4778C30.8776 6.65559 30.9862 6.81698 31.123 6.95272C31.2598 7.08845 31.422 7.19587 31.6004 7.26881Z" fill="#673DE6"/>
<path d="M7.16194 29.0002L4.36194 30.1582C4.00562 30.3087 3.72325 30.5939 3.57643 30.9518C3.42962 31.3096 3.43028 31.711 3.57826 32.0683C3.72625 32.4257 4.00956 32.71 4.36637 32.8593C4.72319 33.0086 5.12457 33.0107 5.48294 32.8652L8.28294 31.7072C8.63927 31.5568 8.92164 31.2715 9.06845 30.9136C9.21527 30.5558 9.21461 30.1544 9.06662 29.7971C8.91863 29.4397 8.63533 29.1554 8.27851 29.0061C7.92169 28.8568 7.52032 28.8547 7.16194 29.0002V29.0002Z" fill="#673DE6"/>
<path d="M40.924 16.6C41.0726 16.9589 41.3578 17.2441 41.7167 17.3929C42.0757 17.5416 42.479 17.5416 42.838 17.393L45.638 16.235C45.817 16.1623 45.9799 16.0549 46.1172 15.919C46.2546 15.783 46.3637 15.6213 46.4383 15.443C46.5129 15.2648 46.5515 15.0735 46.5518 14.8803C46.5522 14.687 46.5143 14.4956 46.4403 14.3171C46.3664 14.1385 46.2579 13.9764 46.121 13.84C45.9842 13.7036 45.8217 13.5956 45.6429 13.5222C45.4641 13.4489 45.2726 13.4116 45.0793 13.4126C44.8861 13.4136 44.695 13.4528 44.517 13.528L41.717 14.686C41.358 14.8346 41.0728 15.1198 40.9241 15.4787C40.7753 15.8377 40.7753 16.241 40.924 16.6V16.6Z" fill="#673DE6"/>
</svg>
