<svg width="250" height="290" viewBox="0 0 250 290" fill="none" xmlns="http://www.w3.org/2000/svg">
<g clip-path="url(#clip0_161_247)">
<path d="M10 0H250V290H10C7.34784 290 4.8043 288.946 2.92893 287.071C1.05357 285.196 0 282.652 0 280L0 10C0 7.34784 1.05357 4.8043 2.92893 2.92893C4.8043 1.05357 7.34784 0 10 0V0Z" fill="#EAECFF"/>
<path d="M64.9069 226.104H59.8669V229.092H64.7629V231.468H59.8669V236.328H57.3829V223.728H64.9069V226.104ZM66.6089 236.328V223.188H68.9309V236.328H66.6089ZM73.0181 232.782C73.3301 233.91 74.1761 234.474 75.5561 234.474C76.4441 234.474 77.1161 234.174 77.5721 233.574L79.4441 234.654C78.5561 235.938 77.2481 236.58 75.5201 236.58C74.0321 236.58 72.8381 236.13 71.9381 235.23C71.0381 234.33 70.5881 233.196 70.5881 231.828C70.5881 230.472 71.0321 229.344 71.9201 228.444C72.8081 227.532 73.9481 227.076 75.3401 227.076C76.6601 227.076 77.7461 227.532 78.5981 228.444C79.4621 229.356 79.8941 230.484 79.8941 231.828C79.8941 232.128 79.8641 232.446 79.8041 232.782H73.0181ZM72.9821 230.982H77.5721C77.4401 230.37 77.1641 229.914 76.7441 229.614C76.3361 229.314 75.8681 229.164 75.3401 229.164C74.7161 229.164 74.2001 229.326 73.7921 229.65C73.3841 229.962 73.1141 230.406 72.9821 230.982ZM89.3034 236.328H86.6214L84.6774 233.592L82.7154 236.328H80.0334L83.3274 231.738L80.1774 227.328H82.8594L84.6774 229.866L86.4954 227.328H89.1594L86.0094 231.72L89.3034 236.328ZM99.7684 223.728C100.98 223.728 102 224.136 102.828 224.952C103.656 225.768 104.07 226.77 104.07 227.958C104.07 229.146 103.656 230.148 102.828 230.964C102 231.78 100.98 232.188 99.7684 232.188H97.5544V236.328H95.0704V223.728H99.7684ZM99.7684 229.866C100.296 229.866 100.734 229.686 101.082 229.326C101.43 228.954 101.604 228.498 101.604 227.958C101.604 227.406 101.43 226.95 101.082 226.59C100.734 226.23 100.296 226.05 99.7684 226.05H97.5544V229.866H99.7684ZM107.708 228.876C107.924 228.3 108.278 227.868 108.77 227.58C109.274 227.292 109.832 227.148 110.444 227.148V229.74C109.736 229.656 109.1 229.8 108.536 230.172C107.984 230.544 107.708 231.162 107.708 232.026V236.328H105.386V227.328H107.708V228.876ZM119.136 235.212C118.212 236.124 117.084 236.58 115.752 236.58C114.42 236.58 113.292 236.124 112.368 235.212C111.456 234.288 111 233.16 111 231.828C111 230.496 111.456 229.374 112.368 228.462C113.292 227.538 114.42 227.076 115.752 227.076C117.084 227.076 118.212 227.538 119.136 228.462C120.06 229.374 120.522 230.496 120.522 231.828C120.522 233.16 120.06 234.288 119.136 235.212ZM114.006 233.61C114.474 234.078 115.056 234.312 115.752 234.312C116.448 234.312 117.03 234.078 117.498 233.61C117.966 233.142 118.2 232.548 118.2 231.828C118.2 231.108 117.966 230.514 117.498 230.046C117.03 229.578 116.448 229.344 115.752 229.344C115.056 229.344 114.474 229.578 114.006 230.046C113.55 230.514 113.322 231.108 113.322 231.828C113.322 232.548 113.55 233.142 114.006 233.61ZM126.717 225.708C125.445 225.612 124.809 226.122 124.809 227.238V227.328H126.717V229.56H124.809V236.328H122.487V229.56H121.191V227.328H122.487V227.238C122.487 225.966 122.841 225 123.549 224.34C124.257 223.68 125.313 223.392 126.717 223.476V225.708ZM129.409 232.782C129.721 233.91 130.567 234.474 131.947 234.474C132.835 234.474 133.507 234.174 133.963 233.574L135.835 234.654C134.947 235.938 133.639 236.58 131.911 236.58C130.423 236.58 129.229 236.13 128.329 235.23C127.429 234.33 126.979 233.196 126.979 231.828C126.979 230.472 127.423 229.344 128.311 228.444C129.199 227.532 130.339 227.076 131.731 227.076C133.051 227.076 134.137 227.532 134.989 228.444C135.853 229.356 136.285 230.484 136.285 231.828C136.285 232.128 136.255 232.446 136.195 232.782H129.409ZM129.373 230.982H133.963C133.831 230.37 133.555 229.914 133.135 229.614C132.727 229.314 132.259 229.164 131.731 229.164C131.107 229.164 130.591 229.326 130.183 229.65C129.775 229.962 129.505 230.406 129.373 230.982ZM139.696 229.884C139.696 230.124 139.852 230.322 140.164 230.478C140.488 230.622 140.878 230.754 141.334 230.874C141.79 230.982 142.246 231.126 142.702 231.306C143.158 231.474 143.542 231.762 143.854 232.17C144.178 232.578 144.34 233.088 144.34 233.7C144.34 234.624 143.992 235.338 143.296 235.842C142.612 236.334 141.754 236.58 140.722 236.58C138.874 236.58 137.614 235.866 136.942 234.438L138.958 233.304C139.222 234.084 139.81 234.474 140.722 234.474C141.55 234.474 141.964 234.216 141.964 233.7C141.964 233.46 141.802 233.268 141.478 233.124C141.166 232.968 140.782 232.83 140.326 232.71C139.87 232.59 139.414 232.44 138.958 232.26C138.502 232.08 138.112 231.798 137.788 231.414C137.476 231.018 137.32 230.526 137.32 229.938C137.32 229.05 137.644 228.354 138.292 227.85C138.952 227.334 139.768 227.076 140.74 227.076C141.472 227.076 142.138 227.244 142.738 227.58C143.338 227.904 143.812 228.372 144.16 228.984L142.18 230.064C141.892 229.452 141.412 229.146 140.74 229.146C140.44 229.146 140.188 229.212 139.984 229.344C139.792 229.476 139.696 229.656 139.696 229.884ZM147.501 229.884C147.501 230.124 147.657 230.322 147.969 230.478C148.293 230.622 148.683 230.754 149.139 230.874C149.595 230.982 150.051 231.126 150.507 231.306C150.963 231.474 151.347 231.762 151.659 232.17C151.983 232.578 152.145 233.088 152.145 233.7C152.145 234.624 151.797 235.338 151.101 235.842C150.417 236.334 149.559 236.58 148.527 236.58C146.679 236.58 145.419 235.866 144.747 234.438L146.763 233.304C147.027 234.084 147.615 234.474 148.527 234.474C149.355 234.474 149.769 234.216 149.769 233.7C149.769 233.46 149.607 233.268 149.283 233.124C148.971 232.968 148.587 232.83 148.131 232.71C147.675 232.59 147.219 232.44 146.763 232.26C146.307 232.08 145.917 231.798 145.593 231.414C145.281 231.018 145.125 230.526 145.125 229.938C145.125 229.05 145.449 228.354 146.097 227.85C146.757 227.334 147.573 227.076 148.545 227.076C149.277 227.076 149.943 227.244 150.543 227.58C151.143 227.904 151.617 228.372 151.965 228.984L149.985 230.064C149.697 229.452 149.217 229.146 148.545 229.146C148.245 229.146 147.993 229.212 147.789 229.344C147.597 229.476 147.501 229.656 147.501 229.884ZM154.79 226.248C154.406 226.248 154.07 226.11 153.782 225.834C153.506 225.546 153.368 225.21 153.368 224.826C153.368 224.442 153.506 224.106 153.782 223.818C154.07 223.53 154.406 223.386 154.79 223.386C155.186 223.386 155.522 223.53 155.798 223.818C156.086 224.106 156.23 224.442 156.23 224.826C156.23 225.21 156.086 225.546 155.798 225.834C155.522 226.11 155.186 226.248 154.79 226.248ZM153.638 236.328V227.328H155.96V236.328H153.638ZM165.753 235.212C164.829 236.124 163.701 236.58 162.369 236.58C161.037 236.58 159.909 236.124 158.985 235.212C158.073 234.288 157.617 233.16 157.617 231.828C157.617 230.496 158.073 229.374 158.985 228.462C159.909 227.538 161.037 227.076 162.369 227.076C163.701 227.076 164.829 227.538 165.753 228.462C166.677 229.374 167.139 230.496 167.139 231.828C167.139 233.16 166.677 234.288 165.753 235.212ZM160.623 233.61C161.091 234.078 161.673 234.312 162.369 234.312C163.065 234.312 163.647 234.078 164.115 233.61C164.583 233.142 164.817 232.548 164.817 231.828C164.817 231.108 164.583 230.514 164.115 230.046C163.647 229.578 163.065 229.344 162.369 229.344C161.673 229.344 161.091 229.578 160.623 230.046C160.167 230.514 159.939 231.108 159.939 231.828C159.939 232.548 160.167 233.142 160.623 233.61ZM173.777 227.076C174.761 227.076 175.571 227.406 176.207 228.066C176.855 228.726 177.179 229.638 177.179 230.802V236.328H174.857V231.09C174.857 230.49 174.695 230.034 174.371 229.722C174.047 229.398 173.615 229.236 173.075 229.236C172.475 229.236 171.995 229.422 171.635 229.794C171.275 230.166 171.095 230.724 171.095 231.468V236.328H168.773V227.328H171.095V228.336C171.659 227.496 172.553 227.076 173.777 227.076ZM186.002 227.328H188.324V236.328H186.002V235.266C185.306 236.142 184.328 236.58 183.068 236.58C181.868 236.58 180.836 236.124 179.972 235.212C179.12 234.288 178.694 233.16 178.694 231.828C178.694 230.496 179.12 229.374 179.972 228.462C180.836 227.538 181.868 227.076 183.068 227.076C184.328 227.076 185.306 227.514 186.002 228.39V227.328ZM181.718 233.664C182.186 234.132 182.78 234.366 183.5 234.366C184.22 234.366 184.814 234.132 185.282 233.664C185.762 233.184 186.002 232.572 186.002 231.828C186.002 231.084 185.762 230.478 185.282 230.01C184.814 229.53 184.22 229.29 183.5 229.29C182.78 229.29 182.186 229.53 181.718 230.01C181.25 230.478 181.016 231.084 181.016 231.828C181.016 232.572 181.25 233.184 181.718 233.664ZM190.429 236.328V223.188H192.751V236.328H190.429Z" fill="#1A1A1A"/>
<path d="M170.135 172.537V50.7202L79.4703 50.7202L79.4703 172.537H170.135Z" fill="#2F2E41"/>
<path d="M185.713 47H63.8965V95.355H185.713V47Z" fill="#3F3D56"/>
<path d="M185.713 100.934H63.8965V149.289H185.713V100.934Z" fill="#3F3D56"/>
<path d="M185.713 154.869H63.8965V203.224H185.713V154.869Z" fill="#3F3D56"/>
<path d="M185.713 67.5029H63.8965V74.9419H185.713V67.5029Z" fill="#673DE6"/>
<path d="M185.713 121.437H63.8965V128.876H185.713V121.437Z" fill="#673DE6"/>
<path d="M185.713 175.371H63.8965V182.81H185.713V175.371Z" fill="#673DE6"/>
<path d="M161.998 56.7651C163.539 56.7651 164.788 55.5159 164.788 53.9751C164.788 52.4342 163.539 51.1851 161.998 51.1851C160.458 51.1851 159.208 52.4342 159.208 53.9751C159.208 55.5159 160.458 56.7651 161.998 56.7651Z" fill="#673DE6"/>
<path d="M171.766 56.7651C173.306 56.7651 174.556 55.5159 174.556 53.9751C174.556 52.4342 173.306 51.1851 171.766 51.1851C170.225 51.1851 168.976 52.4342 168.976 53.9751C168.976 55.5159 170.225 56.7651 171.766 56.7651Z" fill="#673DE6"/>
<path d="M181.527 56.7651C183.068 56.7651 184.317 55.5159 184.317 53.9751C184.317 52.4342 183.068 51.1851 181.527 51.1851C179.986 51.1851 178.737 52.4342 178.737 53.9751C178.737 55.5159 179.986 56.7651 181.527 56.7651Z" fill="#673DE6"/>
<path d="M161.998 109.769C163.539 109.769 164.788 108.52 164.788 106.979C164.788 105.438 163.539 104.189 161.998 104.189C160.458 104.189 159.208 105.438 159.208 106.979C159.208 108.52 160.458 109.769 161.998 109.769Z" fill="#673DE6"/>
<path d="M171.766 109.769C173.306 109.769 174.556 108.52 174.556 106.979C174.556 105.438 173.306 104.189 171.766 104.189C170.225 104.189 168.976 105.438 168.976 106.979C168.976 108.52 170.225 109.769 171.766 109.769Z" fill="#673DE6"/>
<path d="M181.527 109.769C183.068 109.769 184.317 108.52 184.317 106.979C184.317 105.438 183.068 104.189 181.527 104.189C179.986 104.189 178.737 105.438 178.737 106.979C178.737 108.52 179.986 109.769 181.527 109.769Z" fill="#673DE6"/>
<path d="M161.998 162.773C163.539 162.773 164.788 161.524 164.788 159.983C164.788 158.442 163.539 157.193 161.998 157.193C160.458 157.193 159.208 158.442 159.208 159.983C159.208 161.524 160.458 162.773 161.998 162.773Z" fill="#673DE6"/>
<path d="M171.766 162.773C173.306 162.773 174.556 161.524 174.556 159.983C174.556 158.442 173.306 157.193 171.766 157.193C170.225 157.193 168.976 158.442 168.976 159.983C168.976 161.524 170.225 162.773 171.766 162.773Z" fill="#673DE6"/>
<path d="M181.527 162.773C183.068 162.773 184.317 161.524 184.317 159.983C184.317 158.442 183.068 157.193 181.527 157.193C179.986 157.193 178.737 158.442 178.737 159.983C178.737 161.524 179.986 162.773 181.527 162.773Z" fill="#673DE6"/>
<path d="M214.304 202.758H35.6953V203.681H214.304V202.758Z" fill="#3F3D56"/>
</g>
<defs>
<clipPath id="clip0_161_247">
<rect width="250" height="290" fill="white"/>
</clipPath>
</defs>
</svg>
