<svg width="50" height="50" viewBox="0 0 50 50" fill="none" xmlns="http://www.w3.org/2000/svg">
<path d="M25 3.44824C20.0563 3.4495 15.224 4.91643 11.1139 7.66362C7.00384 10.4108 3.80051 14.3149 1.90888 18.8823C0.017253 23.4498 -0.477737 28.4755 0.486484 33.3243C1.4507 38.173 3.83085 42.627 7.32602 46.1232C7.46206 46.2593 7.62357 46.3672 7.80133 46.4409C7.97909 46.5145 8.16961 46.5524 8.36202 46.5524C8.55443 46.5524 8.74495 46.5145 8.92271 46.4409C9.10047 46.3672 9.26198 46.2593 9.39802 46.1232L13.835 41.6862C13.9711 41.5502 14.079 41.3887 14.1527 41.2109C14.2263 41.0332 14.2642 40.8427 14.2642 40.6502C14.2642 40.4578 14.2263 40.2673 14.1527 40.0896C14.079 39.9118 13.9711 39.7503 13.835 39.6142C11.6817 37.4612 10.1968 34.7316 9.55899 31.7541C8.92121 28.7765 9.15781 25.6782 10.2403 22.832C11.3228 19.9859 13.205 17.5133 15.6602 15.7122C18.1155 13.9111 21.0391 12.8582 24.0789 12.6802C27.1187 12.5023 30.1452 13.207 32.7938 14.7094C35.4424 16.2118 37.6002 18.4478 39.0073 21.1482C40.4145 23.8487 41.0109 26.8983 40.7249 29.9299C40.4388 32.9614 39.2824 35.8457 37.395 38.2352C35.137 34.7352 30.095 27.0352 28.255 25.1942C27.8278 24.7668 27.3206 24.4277 26.7624 24.1962C26.2041 23.9648 25.6058 23.8456 25.0014 23.8454C23.7809 23.845 22.6103 24.3295 21.747 25.1922C21.3196 25.6194 20.9804 26.1266 20.749 26.6849C20.5176 27.2431 20.3984 27.8415 20.3982 28.4458C20.3978 29.6663 20.8823 30.837 21.745 31.7002C23.945 33.9002 34.512 40.6702 36.281 41.8002L40.6 46.1232C40.7361 46.2593 40.8976 46.3672 41.0753 46.4409C41.2531 46.5145 41.4436 46.5524 41.636 46.5524C41.8284 46.5524 42.019 46.5145 42.1967 46.4409C42.3745 46.3672 42.536 46.2593 42.672 46.1232C46.1671 42.6271 48.5472 38.1733 49.5115 33.3248C50.4757 28.4762 49.9809 23.4506 48.0895 18.8833C46.1982 14.3159 42.9951 10.4118 38.8854 7.66445C34.7756 4.91712 29.9435 3.44989 25 3.44824V3.44824ZM10.766 40.6102L8.39502 42.9822C5.19133 39.3463 3.28563 34.7494 2.97702 29.9132H6.33202C6.63136 33.8614 8.18497 37.6106 10.766 40.6132V40.6102ZM6.33202 26.9842H2.97702C3.28556 22.148 5.19127 17.5512 8.39502 13.9152L10.766 16.2872C8.18453 19.2885 6.63081 23.0368 6.33202 26.9842V26.9842ZM23.532 9.78424C19.5836 10.0825 15.8341 11.6363 12.832 14.2182L10.461 11.8472C14.098 8.64151 18.6967 6.73468 23.535 6.42624L23.532 9.78424ZM23.814 29.6352C23.6587 29.4799 23.5354 29.2955 23.4514 29.0925C23.3673 28.8895 23.324 28.6719 23.324 28.4522C23.324 28.2325 23.3673 28.015 23.4514 27.812C23.5354 27.609 23.6587 27.4246 23.814 27.2692C23.9694 27.1139 24.1538 26.9907 24.3568 26.9066C24.5598 26.8225 24.7773 26.7792 24.997 26.7792C25.2167 26.7792 25.4343 26.8225 25.6373 26.9066C25.8402 26.9907 26.0247 27.1139 26.18 27.2692V27.2692C28.3525 29.9382 30.3628 32.7353 32.2 35.6452C29.2888 33.8101 26.4905 31.8018 23.82 29.6312L23.814 29.6352ZM26.465 9.78024V6.42624C31.3012 6.73485 35.898 8.64055 39.534 11.8442L37.163 14.2152C34.1609 11.6332 30.4115 10.0795 26.463 9.78124L26.465 9.78024ZM39.234 16.2862L41.605 13.9142C44.8087 17.5502 46.7144 22.1471 47.023 26.9832H43.668C43.3692 23.0358 41.8155 19.2875 39.234 16.2862V16.2862ZM41.605 42.9862L39.234 40.6102C41.8151 37.6076 43.3687 33.8584 43.668 29.9102H47.023C46.7151 34.7475 44.8093 39.3455 41.605 42.9822V42.9862Z" fill="#673DE6"/>
</svg>
