<svg width="50" height="50" viewBox="0 0 50 50" fill="none" xmlns="http://www.w3.org/2000/svg">
<g clip-path="url(#clip0_162_333)">
<path d="M24.9999 0C19.1744 0.00714499 13.5897 2.32445 9.47049 6.44363C5.3513 10.5628 3.034 16.1476 3.02686 21.973V33.887C3.02818 35.0522 3.49165 36.1693 4.31558 36.9933C5.13952 37.8172 6.25664 38.2807 7.42186 38.282H9.13886C9.48422 39.2595 10.1641 40.0834 11.0582 40.608C11.9524 41.1326 13.0033 41.3242 14.025 41.1489C15.0468 40.9735 15.9737 40.4426 16.6418 39.6498C17.3098 38.8571 17.6761 37.8537 17.6759 36.817V24.9C17.6761 23.8633 17.3098 22.8599 16.6418 22.0672C15.9737 21.2744 15.0468 20.7435 14.025 20.5681C13.0033 20.3928 11.9524 20.5844 11.0582 21.109C10.1641 21.6336 9.48422 22.4575 9.13886 23.435H7.42186C6.92272 23.4348 6.42723 23.52 5.95686 23.687V21.973C5.95686 16.9225 7.96317 12.0788 11.5344 8.50757C15.1057 4.93631 19.9493 2.93 24.9999 2.93C30.0504 2.93 34.894 4.93631 38.4653 8.50757C42.0365 12.0788 44.0429 16.9225 44.0429 21.973V23.69C43.5725 23.523 43.077 23.4378 42.5779 23.438H40.8609C40.5156 22.4608 39.836 21.637 38.9421 21.1124C38.0483 20.5877 36.9977 20.3959 35.9762 20.5709C34.9546 20.7458 34.0277 21.2763 33.3594 22.0684C32.6911 22.8606 32.3243 23.8636 32.3239 24.9V36.816C32.3238 37.5022 32.4845 38.1789 32.793 38.7918C33.1015 39.4048 33.5492 39.9369 34.1004 40.3457C34.6516 40.7545 35.2908 41.0284 35.9669 41.1457C36.643 41.263 37.3372 41.2203 37.9939 41.021C37.7194 41.9227 37.1627 42.7125 36.4057 43.274C35.6487 43.8355 34.7314 44.1391 33.7889 44.14H29.1429C28.7973 43.1625 28.1173 42.3387 27.223 41.8141C26.3287 41.2895 25.2778 41.098 24.256 41.2733C23.2342 41.4486 22.3072 41.9795 21.639 42.7722C20.9707 43.5649 20.6042 44.5682 20.6042 45.605C20.6042 46.6418 20.9707 47.6451 21.639 48.4378C22.3072 49.2305 23.2342 49.7614 24.256 49.9367C25.2778 50.112 26.3287 49.9205 27.223 49.3959C28.1173 48.8713 28.7973 48.0475 29.1429 47.07H33.7889C35.7306 47.0676 37.5921 46.2952 38.9651 44.9222C40.3381 43.5492 41.1105 41.6877 41.1129 39.746V38.281H42.5779C43.7431 38.2797 44.8602 37.8162 45.6841 36.9923C46.5081 36.1683 46.9715 35.0512 46.9729 33.886V21.973C46.9657 16.1476 44.6484 10.5628 40.5292 6.44363C36.41 2.32445 30.8253 0.00714499 24.9999 0V0ZM11.8159 24.9C11.8159 24.5115 11.9702 24.1388 12.2449 23.8641C12.5197 23.5893 12.8923 23.435 13.2809 23.435C13.6694 23.435 14.042 23.5893 14.3168 23.8641C14.5915 24.1388 14.7459 24.5115 14.7459 24.9V36.816C14.7459 37.2045 14.5915 37.5772 14.3168 37.8519C14.042 38.1267 13.6694 38.281 13.2809 38.281C12.8923 38.281 12.5197 38.1267 12.2449 37.8519C11.9702 37.5772 11.8159 37.2045 11.8159 36.816V24.9ZM7.42186 26.367H8.88686V35.351H7.42186C7.03348 35.3505 6.66115 35.196 6.38653 34.9213C6.1119 34.6467 5.95738 34.2744 5.95686 33.886V27.832C5.95738 27.4436 6.1119 27.0713 6.38653 26.7967C6.66115 26.522 7.03348 26.3675 7.42186 26.367V26.367ZM24.9999 47.07C24.7101 47.07 24.4269 46.9841 24.1859 46.8231C23.945 46.6621 23.7573 46.4333 23.6464 46.1656C23.5355 45.8979 23.5065 45.6034 23.563 45.3192C23.6195 45.035 23.7591 44.774 23.9639 44.5691C24.1688 44.3642 24.4299 44.2247 24.714 44.1681C24.9982 44.1116 25.2928 44.1406 25.5605 44.2515C25.8282 44.3624 26.057 44.5502 26.218 44.7911C26.3789 45.032 26.4649 45.3152 26.4649 45.605C26.4643 45.9934 26.3098 46.3657 26.0352 46.6403C25.7606 46.915 25.3882 47.0695 24.9999 47.07V47.07ZM38.1839 36.816C38.1839 37.2045 38.0295 37.5772 37.7548 37.8519C37.48 38.1267 37.1074 38.281 36.7189 38.281C36.3303 38.281 35.9577 38.1267 35.6829 37.8519C35.4082 37.5772 35.2539 37.2045 35.2539 36.816V24.9C35.2539 24.5115 35.4082 24.1388 35.6829 23.8641C35.9577 23.5893 36.3303 23.435 36.7189 23.435C37.1074 23.435 37.48 23.5893 37.7548 23.8641C38.0295 24.1388 38.1839 24.5115 38.1839 24.9V36.816ZM44.0429 33.886C44.0423 34.2744 43.8878 34.6467 43.6132 34.9213C43.3386 35.196 42.9662 35.3505 42.5779 35.351H41.1129V26.367H42.5779C42.9662 26.3675 43.3386 26.522 43.6132 26.7967C43.8878 27.0713 44.0423 27.4436 44.0429 27.832V33.886Z" fill="#673DE6"/>
</g>
<defs>
<clipPath id="clip0_162_333">
<rect width="50" height="50" fill="white"/>
</clipPath>
</defs>
</svg>
