<svg width="422" height="294" viewBox="0 0 422 294" fill="none" xmlns="http://www.w3.org/2000/svg">
<g clip-path="url(#clip0_118_188)">
<path d="M83.92 293.046C130.268 293.046 167.84 290.192 167.84 286.672C167.84 283.152 130.268 280.298 83.92 280.298C37.5723 280.298 0 283.152 0 286.672C0 290.192 37.5723 293.046 83.92 293.046Z" fill="#FFE7EE"/>
<path d="M64.146 65.0212C78.746 58.8092 96.941 62.7452 114.705 65.4772C114.87 62.1692 116.874 58.1432 114.775 55.8352C112.225 53.0352 112.46 50.0852 113.994 47.1222C117.918 39.5452 112.294 31.4832 106.62 24.7802C105.34 23.2734 103.723 22.0897 101.9 21.3252C100.077 20.5607 98.0988 20.237 96.127 20.3802L85.612 21.1312C83.0533 21.3139 80.6115 22.2737 78.6132 23.8821C76.6148 25.4905 75.1554 27.6707 74.43 30.1312V30.1312C71.919 33.5462 70.575 36.9512 71.421 40.3392C67.66 42.9092 67.028 46.0112 68.721 49.5092C69.4211 50.438 69.7943 51.5723 69.7826 52.7353C69.7708 53.8983 69.3747 55.0248 68.656 55.9392C66.7084 58.5964 65.2167 61.5592 64.242 64.7062L64.146 65.0212Z" fill="#2F2E41"/>
<path d="M411.211 253.332H113.553C112.242 253.332 110.944 253.074 109.733 252.572C108.522 252.07 107.421 251.335 106.494 250.407C105.567 249.48 104.832 248.38 104.331 247.168C103.83 245.957 103.572 244.659 103.572 243.348C211.473 230.808 317.347 230.808 421.192 243.348C421.192 244.659 420.935 245.957 420.433 247.168C419.932 248.38 419.197 249.48 418.27 250.407C417.343 251.335 416.242 252.07 415.031 252.572C413.82 253.074 412.522 253.332 411.211 253.332Z" fill="#2F2E41"/>
<path d="M421.192 243.938L103.572 243.351L140.383 181.412L140.559 181.118V44.6131C140.559 41.2676 141.888 38.0591 144.253 35.6933C146.618 33.3274 149.827 31.9979 153.172 31.9971H369.826C371.483 31.9969 373.124 32.3232 374.655 32.9573C376.186 33.5914 377.577 34.5208 378.748 35.6926C379.92 36.8643 380.849 38.2553 381.483 39.7863C382.117 41.3172 382.443 42.9581 382.443 44.6151V182.058L421.192 243.938Z" fill="#3F3D56"/>
<path d="M152.887 40.8042C151.797 40.8053 150.753 41.2386 149.982 42.0092C149.212 42.7797 148.778 43.8245 148.777 44.9142V169.378C148.778 170.468 149.212 171.513 149.982 172.283C150.753 173.054 151.797 173.487 152.887 173.488H371.875C372.965 173.487 374.009 173.053 374.78 172.283C375.55 171.513 375.984 170.468 375.985 169.378V44.9132C375.984 43.8235 375.551 42.7787 374.78 42.0082C374.01 41.2376 372.965 40.8043 371.875 40.8032L152.887 40.8042Z" fill="white"/>
<path d="M153.805 189.926C153.468 189.926 153.139 190.023 152.855 190.205C152.572 190.386 152.346 190.645 152.205 190.951L140.862 215.608C140.738 215.876 140.683 216.172 140.704 216.467C140.724 216.762 140.818 217.047 140.977 217.296C141.137 217.545 141.356 217.75 141.616 217.892C141.875 218.034 142.166 218.108 142.462 218.108H380.995C381.295 218.108 381.59 218.031 381.853 217.885C382.115 217.739 382.335 217.528 382.493 217.272C382.651 217.017 382.741 216.726 382.754 216.426C382.768 216.126 382.704 215.827 382.57 215.559L370.241 190.901C370.096 190.607 369.871 190.361 369.593 190.189C369.314 190.017 368.993 189.926 368.666 189.927L153.805 189.926Z" fill="#2F2E41"/>
<path d="M261.501 38.7488C262.96 38.7488 264.143 37.566 264.143 36.1068C264.143 34.6477 262.96 33.4648 261.501 33.4648C260.042 33.4648 258.859 34.6477 258.859 36.1068C258.859 37.566 260.042 38.7488 261.501 38.7488Z" fill="white"/>
<path d="M238.056 222.804C237.669 222.804 237.294 222.932 236.986 223.167C236.679 223.401 236.458 223.731 236.356 224.104L233.511 234.672C233.441 234.933 233.431 235.206 233.484 235.472C233.536 235.737 233.649 235.986 233.814 236.201C233.978 236.415 234.189 236.589 234.432 236.709C234.674 236.828 234.941 236.891 235.211 236.891H289.322C289.603 236.891 289.88 236.824 290.129 236.695C290.379 236.566 290.594 236.38 290.757 236.151C290.92 235.922 291.026 235.658 291.065 235.38C291.105 235.102 291.078 234.818 290.986 234.553L287.322 223.985C287.202 223.639 286.978 223.339 286.679 223.127C286.381 222.914 286.024 222.8 285.658 222.8L238.056 222.804Z" fill="#2F2E41"/>
<path d="M382.443 179.065V181.413H140.383L140.565 181.12V179.065H382.443Z" fill="#2F2E41"/>
<path d="M375.692 82.194C398.389 82.194 416.789 63.7942 416.789 41.097C416.789 18.3998 398.389 0 375.692 0C352.995 0 334.595 18.3998 334.595 41.097C334.595 63.7942 352.995 82.194 375.692 82.194Z" fill="#673DE6"/>
<path d="M392.717 59.0038H358.665C358.042 59.0033 357.445 58.7557 357.005 58.3156C356.565 57.8754 356.317 57.2784 356.316 56.6558V36.1068C356.317 35.4843 356.564 34.8876 357.005 34.4474C357.445 34.0072 358.041 33.7596 358.664 33.7588H392.716C393.338 33.7596 393.935 34.0072 394.375 34.4474C394.815 34.8876 395.063 35.4843 395.064 36.1068V56.6548C395.063 57.2773 394.816 57.8742 394.376 58.3145C393.936 58.7549 393.339 59.0027 392.717 59.0038V59.0038ZM358.665 36.1038V56.6518H392.718V36.1038H358.665Z" fill="white"/>
<path d="M386.258 36.1062H365.123V26.7122C365.123 19.9122 369.568 14.9702 375.691 14.9702C381.814 14.9702 386.259 19.9082 386.259 26.7122L386.258 36.1062ZM367.471 33.7582H383.91V26.7132C383.91 21.1822 380.53 17.3192 375.691 17.3192C370.852 17.3192 367.472 21.1822 367.472 26.7132L367.471 33.7582Z" fill="white"/>
<path d="M375.691 48.1408C376.988 48.1408 378.039 47.0896 378.039 45.7928C378.039 44.4961 376.988 43.4448 375.691 43.4448C374.394 43.4448 373.343 44.4961 373.343 45.7928C373.343 47.0896 374.394 48.1408 375.691 48.1408Z" fill="white"/>
<path d="M347.002 131.27H177.76C176.929 131.269 176.133 130.938 175.545 130.351C174.958 129.763 174.627 128.967 174.626 128.136V86.154C174.627 85.3232 174.958 84.5266 175.545 83.9391C176.133 83.3516 176.929 83.0211 177.76 83.02H347.002C347.833 83.0211 348.629 83.3516 349.217 83.9391C349.804 84.5266 350.135 85.3232 350.136 86.154V128.136C350.135 128.967 349.804 129.763 349.217 130.351C348.629 130.938 347.833 131.269 347.002 131.27ZM177.761 84.27C177.263 84.2708 176.785 84.4691 176.432 84.8215C176.08 85.1739 175.882 85.6517 175.881 86.15V128.131C175.882 128.629 176.08 129.107 176.432 129.46C176.785 129.812 177.263 130.01 177.761 130.011H347.002C347.5 130.01 347.978 129.812 348.33 129.46C348.683 129.107 348.881 128.629 348.882 128.131V86.154C348.881 85.6557 348.683 85.1779 348.33 84.8255C347.978 84.4731 347.5 84.2748 347.002 84.274L177.761 84.27Z" fill="#F4F5FF"/>
<path d="M204.058 118.302C211.109 118.302 216.825 112.586 216.825 105.535C216.825 98.484 211.109 92.7681 204.058 92.7681C197.007 92.7681 191.291 98.484 191.291 105.535C191.291 112.586 197.007 118.302 204.058 118.302Z" fill="#F4F5FF"/>
<path d="M233.543 97.0181C233.26 97.0119 232.978 97.0624 232.715 97.1666C232.451 97.2708 232.211 97.4265 232.009 97.6246C231.806 97.8228 231.645 98.0594 231.535 98.3206C231.425 98.5818 231.369 98.8622 231.369 99.1456C231.369 99.4289 231.425 99.7094 231.535 99.9706C231.645 100.232 231.806 100.468 232.009 100.667C232.211 100.865 232.451 101.02 232.715 101.125C232.978 101.229 233.26 101.279 233.543 101.273H333.852C334.135 101.279 334.417 101.229 334.68 101.125C334.944 101.02 335.184 100.865 335.386 100.667C335.589 100.468 335.75 100.232 335.86 99.9706C335.97 99.7094 336.026 99.4289 336.026 99.1456C336.026 98.8622 335.97 98.5818 335.86 98.3206C335.75 98.0594 335.589 97.8228 335.386 97.6246C335.184 97.4265 334.944 97.2708 334.68 97.1666C334.417 97.0624 334.135 97.0119 333.852 97.0181H233.543Z" fill="#F4F5FF"/>
<path d="M233.543 109.79C233.264 109.79 232.987 109.845 232.729 109.952C232.47 110.059 232.236 110.216 232.038 110.413C231.841 110.611 231.684 110.845 231.577 111.104C231.47 111.362 231.415 111.639 231.415 111.918C231.415 112.197 231.47 112.474 231.577 112.732C231.684 112.991 231.841 113.225 232.038 113.423C232.236 113.62 232.47 113.777 232.729 113.884C232.987 113.991 233.264 114.046 233.543 114.046H276.706C277.27 114.046 277.812 113.822 278.211 113.423C278.61 113.024 278.834 112.482 278.834 111.918C278.834 111.354 278.61 110.812 278.211 110.413C277.812 110.014 277.27 109.79 276.706 109.79H233.543Z" fill="#F4F5FF"/>
<path d="M139.966 110.65L108.68 127.283L108.28 113.422C118.374 111.87 128.142 108.66 137.189 103.922L140.461 95.8381C140.818 94.9573 141.397 94.1844 142.143 93.5952C142.888 93.006 143.774 92.6207 144.714 92.4773C145.653 92.3339 146.613 92.4372 147.501 92.7771C148.388 93.117 149.172 93.6819 149.775 94.4161C150.658 95.4904 151.099 96.8599 151.009 98.2473C150.92 99.6346 150.306 100.936 149.293 101.888L139.966 110.65Z" fill="#FFB8B8"/>
<path d="M63.523 206.682C63.2947 205.845 63.2462 204.969 63.3806 204.112C63.5151 203.255 63.8294 202.436 64.303 201.709L71.176 191.162C72.8015 188.667 75.2957 186.865 78.1747 186.105C81.0538 185.346 84.1124 185.683 86.757 187.051V187.051C83.869 191.968 84.271 196.281 87.757 200.029C82.3487 202.668 77.3501 206.075 72.916 210.144C72.1068 210.696 71.1774 211.046 70.2053 211.166C69.2333 211.285 68.2467 211.171 67.3277 210.833C66.4087 210.494 65.584 209.94 64.9222 209.218C64.2604 208.496 63.7807 207.627 63.523 206.682V206.682Z" fill="#2F2E41"/>
<path d="M141.392 192.893C140.352 194.626 138.884 196.063 137.129 197.066C135.374 198.068 133.39 198.603 131.369 198.618L85.7119 198.964L83.7319 187.48L103.932 181.54L86.9029 168.471L105.516 146.69L139.323 178.199C141.298 180.041 142.582 182.505 142.958 185.18C143.335 187.854 142.782 190.577 141.392 192.893V192.893Z" fill="#2F2E41"/>
<path d="M78.583 271.435H67.8909C58.2909 205.628 48.5179 139.635 77.3909 115.007L111.449 120.551L107.093 149.46L88.087 171.243L78.583 271.435Z" fill="#2F2E41"/>
<path d="M87.9821 286.342C87.1451 286.57 86.2692 286.619 85.4121 286.484C84.555 286.35 83.736 286.036 83.0091 285.562L71.3991 284.002C68.904 282.376 67.1018 279.882 66.3422 277.003C65.5826 274.124 65.9197 271.065 67.2881 268.42V268.42C72.2051 271.308 76.5181 270.905 80.2651 267.42C82.9131 272.767 87.2761 272.441 91.4441 276.946C91.996 277.755 92.3465 278.685 92.4664 279.657C92.5863 280.629 92.4721 281.616 92.1334 282.535C91.7947 283.454 91.2412 284.279 90.5191 284.941C89.797 285.603 88.9272 286.082 87.9821 286.34V286.342Z" fill="#2F2E41"/>
<path d="M103.929 71.0492L84.1289 66.2972C87.4179 59.5652 87.6879 52.0752 86.1089 44.1202L99.5739 43.7202C99.9939 53.6162 101.27 62.8592 103.929 71.0492Z" fill="#FFB8B8"/>
<path d="M109.37 132.475C94.9561 142.297 84.7701 132.811 76.9991 118.175C78.0791 109.219 76.3301 98.501 73.0921 86.856C71.6517 81.7194 72.1895 76.2295 74.5992 71.47C77.0089 66.7106 81.1155 63.0275 86.1081 61.1479V61.1479L103.137 68.276C117.596 80.062 120.443 92.829 115.018 106.294L109.37 132.475Z" fill="#FC5185"/>
<path d="M67.8901 80.9489L52.0491 89.2659L80.1661 105.899L84.0781 115.549C84.3393 116.193 84.4666 116.884 84.4522 117.579C84.4378 118.273 84.2819 118.958 83.9942 119.591C83.7064 120.224 83.2928 120.791 82.7786 121.259C82.2644 121.726 81.6603 122.084 81.0031 122.311V122.311C80.2562 122.569 79.4598 122.65 78.6763 122.548C77.8928 122.447 77.1435 122.165 76.4869 121.725C75.8304 121.286 75.2846 120.7 74.8922 120.015C74.4998 119.329 74.2715 118.562 74.2251 117.773L73.8251 111.047L38.0881 99.2539C36.884 98.8566 35.7861 98.1905 34.8775 97.306C33.969 96.4216 33.2736 95.3419 32.8441 94.1489V94.1489C32.2181 92.41 32.1862 90.5126 32.7534 88.7536C33.3207 86.9947 34.4551 85.4734 35.9791 84.4279L64.7161 64.7129L67.8901 80.9489Z" fill="#FFB8B8"/>
<path d="M83.731 82.5308C77.124 79.6308 71.117 82.7808 63.531 85.3028L62.343 64.3138C69.872 60.3008 77.051 59.2138 83.728 62.3338L83.731 82.5308Z" fill="#FC5185"/>
<path d="M91.6339 54.1199C98.6159 54.1199 104.276 48.4599 104.276 41.4779C104.276 34.496 98.6159 28.8359 91.6339 28.8359C84.652 28.8359 78.9919 34.496 78.9919 41.4779C78.9919 48.4599 84.652 54.1199 91.6339 54.1199Z" fill="#FFB8B8"/>
<path d="M106.758 39.8831C94.2409 41.1091 84.7029 39.0621 78.6079 33.2331V28.5391H105.696L106.758 39.8831Z" fill="#2F2E41"/>
</g>
<defs>
<clipPath id="clip0_118_188">
<rect width="421.191" height="293.045" fill="white"/>
</clipPath>
</defs>
</svg>
