<svg width="50" height="50" viewBox="0 0 50 50" fill="none" xmlns="http://www.w3.org/2000/svg">
<g clip-path="url(#clip0_162_302)">
<path d="M49.9919 22.1149C49.9709 21.9146 49.909 21.7207 49.8101 21.5453C49.7112 21.3699 49.5774 21.2166 49.4169 21.0949L45.4559 18.0949L46.8999 13.3399C46.9584 13.1472 46.9767 12.9445 46.9537 12.7444C46.9308 12.5443 46.867 12.351 46.7663 12.1766C46.6656 12.0021 46.5302 11.8502 46.3685 11.7302C46.2067 11.6102 46.022 11.5247 45.8259 11.4789L40.9869 10.3489L40.3689 5.41888C40.3439 5.21906 40.2782 5.02648 40.1758 4.85308C40.0734 4.67967 39.9365 4.52911 39.7736 4.41073C39.6107 4.29234 39.4252 4.20864 39.2287 4.16481C39.0321 4.12097 38.8287 4.11794 38.6309 4.15588L33.7509 5.09188L31.1789 0.839882C31.0747 0.667807 30.9364 0.518899 30.7724 0.40234C30.6084 0.285781 30.4223 0.204041 30.2256 0.16216C30.0288 0.120278 29.8256 0.119143 29.6284 0.158824C29.4311 0.198505 29.2442 0.278162 29.0789 0.392882L24.9999 3.23288L20.9229 0.392882C20.7577 0.278162 20.5707 0.198505 20.3734 0.158824C20.1762 0.119143 19.973 0.120278 19.7762 0.16216C19.5795 0.204041 19.3934 0.285781 19.2294 0.40234C19.0655 0.518899 18.9271 0.667807 18.8229 0.839882L16.2519 5.09188L11.3719 4.15588C11.1741 4.11794 10.9707 4.12097 10.7741 4.16481C10.5776 4.20864 10.3921 4.29234 10.2292 4.41073C10.0663 4.52911 9.92939 4.67967 9.827 4.85308C9.72461 5.02648 9.65889 5.21906 9.6339 5.41888L9.0159 10.3489L4.1769 11.4789C3.98049 11.5243 3.79551 11.6096 3.63342 11.7295C3.47133 11.8493 3.33559 12.0012 3.23462 12.1757C3.13364 12.3502 3.06958 12.5435 3.04641 12.7438C3.02323 12.9441 3.04144 13.1469 3.0999 13.3399L4.5409 18.0949L0.580903 21.0949C0.420274 21.2164 0.286297 21.3696 0.187265 21.545C0.088233 21.7204 0.0262534 21.9143 0.00516216 22.1146C-0.0159291 22.3149 0.00431696 22.5174 0.0646471 22.7096C0.124977 22.9018 0.224108 23.0796 0.355903 23.2319L3.6059 26.9899L1.2059 31.3419C1.10857 31.5183 1.04847 31.7128 1.02935 31.9133C1.01023 32.1139 1.03248 32.3162 1.09472 32.5079C1.15697 32.6995 1.25788 32.8763 1.39122 33.0273C1.52456 33.1783 1.68748 33.3004 1.8699 33.3859L6.3699 35.4969L5.9489 40.4479C5.93147 40.6488 5.95549 40.8512 6.01947 41.0424C6.08345 41.2337 6.18602 41.4098 6.32084 41.5598C6.45565 41.7098 6.61984 41.8305 6.80322 41.9145C6.98659 41.9984 7.18526 42.0438 7.3869 42.0479L12.3549 42.1479L13.9839 46.8419C14.0499 47.0322 14.1542 47.2069 14.2905 47.3553C14.4267 47.5036 14.5919 47.6225 14.7759 47.7044C14.96 47.7863 15.1588 47.8296 15.3602 47.8316C15.5616 47.8336 15.7613 47.7942 15.9469 47.7159L20.5259 45.7859L23.9259 49.4109C24.0636 49.5579 24.23 49.6752 24.4148 49.7553C24.5996 49.8354 24.799 49.8768 25.0004 49.8768C25.2019 49.8768 25.4012 49.8354 25.586 49.7553C25.7708 49.6752 25.9372 49.5579 26.0749 49.4109L29.4749 45.7859L34.0529 47.7159C34.2385 47.7942 34.4382 47.8336 34.6396 47.8316C34.841 47.8296 35.0398 47.7863 35.2239 47.7044C35.4079 47.6225 35.5731 47.5036 35.7093 47.3553C35.8456 47.2069 35.9499 47.0322 36.0159 46.8419L37.6449 42.1479L42.6119 42.0479C42.8135 42.0438 43.0122 41.9984 43.1956 41.9145C43.379 41.8305 43.5432 41.7098 43.678 41.5598C43.8128 41.4098 43.9154 41.2337 43.9793 41.0424C44.0433 40.8512 44.0673 40.6488 44.0499 40.4479L43.6269 35.4999L48.1269 33.3889C48.3093 33.3034 48.4722 33.1813 48.6056 33.0303C48.7389 32.8793 48.8398 32.7025 48.9021 32.5108C48.9643 32.3192 48.9866 32.1169 48.9675 31.9163C48.9483 31.7158 48.8882 31.5213 48.7909 31.3449L46.3909 26.9939L49.6409 23.2359C49.7731 23.0831 49.8725 22.9047 49.9329 22.7119C49.9933 22.519 50.0134 22.3158 49.9919 22.1149V22.1149ZM43.3169 27.5149L45.4519 31.3889L41.4519 33.2679C41.1794 33.3958 40.9526 33.604 40.8021 33.8647C40.6515 34.1254 40.5845 34.4259 40.6099 34.7259L40.9849 39.1329L36.5629 39.2209C36.262 39.2269 35.9702 39.3249 35.7267 39.5017C35.4832 39.6785 35.2997 39.9256 35.2009 40.2099L33.7509 44.3889L29.6749 42.6709C29.3977 42.554 29.0913 42.5249 28.797 42.5875C28.5027 42.6501 28.2346 42.8013 28.0289 43.0209L24.9999 46.2449L21.9759 43.0179C21.7702 42.7983 21.5021 42.6471 21.2078 42.5845C20.9136 42.5219 20.6072 42.551 20.3299 42.6679L16.2539 44.3859L14.7999 40.2079C14.7012 39.9236 14.5177 39.6763 14.2742 39.4995C14.0307 39.3227 13.7388 39.2247 13.4379 39.2189L9.0189 39.1299L9.3939 34.7229C9.41935 34.4229 9.35229 34.1224 9.20175 33.8617C9.0512 33.6011 8.82441 33.3928 8.5519 33.2649L4.5519 31.3859L6.6869 27.5119C6.83208 27.2483 6.89303 26.9465 6.86157 26.6473C6.8301 26.348 6.70772 26.0655 6.5109 25.8379L3.6139 22.4929L7.1399 19.8229C7.37967 19.6413 7.55804 19.3905 7.65101 19.1045C7.74398 18.8184 7.74708 18.5108 7.6599 18.2229L6.3769 13.9889L10.6839 12.9829C10.9769 12.9143 11.2419 12.7577 11.4432 12.534C11.6445 12.3104 11.7725 12.0305 11.8099 11.7319L12.3599 7.34388L16.7039 8.17688C16.9995 8.23368 17.3055 8.19846 17.5805 8.07598C17.8555 7.95349 18.0864 7.74963 18.2419 7.49188L20.5289 3.70688L24.1579 6.23488C24.4048 6.40691 24.6985 6.49913 24.9994 6.49913C25.3003 6.49913 25.594 6.40691 25.8409 6.23488L29.4699 3.70688L31.7579 7.49288C31.9135 7.75063 32.1443 7.95449 32.4193 8.07698C32.6943 8.19946 33.0003 8.23468 33.2959 8.17788L37.6399 7.34488L38.1899 11.7329C38.2273 12.0315 38.3553 12.3114 38.5566 12.535C38.7579 12.7587 39.0229 12.9153 39.3159 12.9839L43.6229 13.9899L42.3399 18.2219C42.2527 18.5098 42.2558 18.8174 42.3488 19.1035C42.4418 19.3895 42.6201 19.6403 42.8599 19.8219L46.3859 22.4929L43.4929 25.8379C43.2959 26.0656 43.1734 26.3483 43.1419 26.6477C43.1104 26.9472 43.1715 27.2492 43.3169 27.5129V27.5149Z" fill="#673DE6"/>
<path d="M24.9997 10.9097C22.2129 10.9097 19.4888 11.736 17.1717 13.2843C14.8546 14.8325 13.0487 17.033 11.9822 19.6077C10.9158 22.1823 10.6367 25.0153 11.1804 27.7485C11.7241 30.4817 13.066 32.9923 15.0365 34.9628C17.0071 36.9333 19.5177 38.2753 22.2509 38.8189C24.984 39.3626 27.8171 39.0836 30.3917 38.0171C32.9663 36.9507 35.1669 35.1447 36.7151 32.8277C38.2633 30.5106 39.0897 27.7864 39.0897 24.9997C39.0854 21.2641 37.5996 17.6827 34.9581 15.0412C32.3167 12.3997 28.7353 10.9139 24.9997 10.9097ZM24.9997 36.1437C22.7954 36.1437 20.6405 35.49 18.8077 34.2653C16.9749 33.0407 15.5465 31.3 14.7029 29.2634C13.8594 27.2269 13.6388 24.986 14.0689 22.824C14.499 20.6621 15.5606 18.6762 17.1193 17.1176C18.6781 15.559 20.664 14.4976 22.826 14.0677C24.988 13.6378 27.2289 13.8586 29.2654 14.7023C31.3018 15.546 33.0424 16.9746 34.2669 18.8076C35.4914 20.6405 36.1449 22.7954 36.1447 24.9997C36.1415 27.9545 34.9663 30.7875 32.8769 32.8769C30.7875 34.9663 27.9545 36.1415 24.9997 36.1447V36.1437Z" fill="#673DE6"/>
<path d="M30.7731 20.8C30.4968 20.5238 30.1222 20.3687 29.7316 20.3687C29.3409 20.3687 28.9663 20.5238 28.6901 20.8L23.4231 26.067L21.3101 23.959C21.034 23.6829 20.6595 23.5278 20.2691 23.5278C19.8786 23.5278 19.5042 23.6829 19.2281 23.959C18.952 24.2351 18.7969 24.6096 18.7969 25C18.7969 25.3905 18.952 25.7649 19.2281 26.041L22.3821 29.2C22.5188 29.3367 22.6811 29.4452 22.8597 29.5192C23.0383 29.5932 23.2297 29.6313 23.4231 29.6313C23.6164 29.6313 23.8079 29.5932 23.9865 29.5192C24.1651 29.4452 24.3274 29.3367 24.4641 29.2L30.7731 22.892C30.9112 22.7551 31.0208 22.5921 31.0956 22.4126C31.1704 22.2331 31.209 22.0405 31.209 21.846C31.209 21.6515 31.1704 21.459 31.0956 21.2794C31.0208 21.0999 30.9112 20.937 30.7731 20.8V20.8Z" fill="#673DE6"/>
</g>
<defs>
<clipPath id="clip0_162_302">
<rect width="50" height="50" fill="white"/>
</clipPath>
</defs>
</svg>
