<svg width="421" height="329" viewBox="0 0 421 329" fill="none" xmlns="http://www.w3.org/2000/svg">
<path d="M256.807 75.0049H372.65C380.373 75.0049 386.642 81.2742 386.642 88.9968V155.398C386.642 163.121 380.373 169.39 372.65 169.39H256.807C249.085 169.39 242.815 163.121 242.815 155.398V88.9968C242.815 81.2742 249.085 75.0049 256.807 75.0049Z" fill="white"/>
<path d="M373.658 75.0049H255.799C248.657 75.0049 242.815 80.8491 242.815 87.9889V88.7906H386.642V87.9889C386.642 80.8465 380.798 75.0049 373.658 75.0049Z" fill="#1A1A1A"/>
<path d="M326.396 243H401.604C412.31 243 421 250.646 421 260.065V298.935C421 308.354 412.31 316 401.604 316H326.396C315.69 316 307 308.354 307 298.935V260.065C307 250.646 315.69 243 326.396 243Z" fill="#1A1A1A"/>
<path d="M289.943 193.548L284.997 208.622C284.997 208.622 280.428 193.36 267.556 188.404C254.684 183.448 247.621 184.914 247.621 184.914C247.621 184.914 251.436 182.277 250.943 178.932C250.449 175.588 244.913 172.923 244.913 172.923L223.822 173.679C223.822 173.679 218.876 175.519 218.568 179.21C218.26 182.901 221.195 184.914 221.195 184.914C221.195 184.914 209.881 184.339 203.316 187.337C196.752 190.336 187.654 193.948 182.793 208.622C177.931 223.296 177.458 239.958 177.458 239.958L155.356 245.568C155.356 245.568 149.105 249.35 150.059 251.748L154.577 276.734C154.577 276.734 159.403 297.641 174.892 297.626C190.38 297.611 194.374 286.195 194.374 286.195C194.374 286.195 189.963 318.966 186.481 327.458H281.884C281.884 327.458 274.849 300.426 272.695 278.668C272.695 278.668 270.542 261.833 271.565 255.169C271.565 255.169 273.591 273.262 286.451 276.293C299.31 279.327 307.137 272.083 311.647 261.421C316.158 250.761 318.823 231.299 319.754 225.475C320.686 219.648 323.931 198.697 323.931 198.697C323.931 198.697 324.563 194.279 308.776 192.023C292.99 189.768 291.205 190.147 289.945 193.546L289.943 193.548Z" fill="#673DE6"/>
<path d="M113.726 160.463H199.849C207.572 160.463 213.841 166.733 213.841 174.455V225.849C213.841 233.572 207.572 239.841 199.849 239.841H113.726C106.004 239.841 99.7344 233.572 99.7344 225.849V174.455C99.7344 166.733 106.004 160.463 113.726 160.463Z" fill="white"/>
<path d="M183.03 78.3492C183.049 63.0979 170.7 50.7193 155.449 50.7006C140.198 50.682 127.819 63.0305 127.8 78.2817C127.782 93.5329 140.13 105.912 155.381 105.93C170.633 105.949 183.011 93.6004 183.03 78.3492Z" fill="#FC5185"/>
<path d="M216.738 153.122C216.738 153.122 212.492 136.735 220.365 134.465C220.365 134.465 223.539 131.034 226.505 129.735C226.505 129.735 219.125 120.684 220.948 115.743C222.77 110.805 227.966 109.573 234.253 109.505C240.54 109.436 247.456 111.35 247.86 116.202C248.262 121.053 241.955 129.583 241.955 129.583C241.955 129.583 251.167 131.945 251.594 139.619C252.022 147.296 250.961 152.387 250.961 152.387L248.827 153.952L218.263 155.808L216.74 153.12L216.738 153.122Z" fill="#1A1A1A"/>
<path d="M248.443 164.175C248.443 164.175 256.884 166.763 257.049 158.791C257.049 158.791 256.461 152.066 249.217 153.952L248.825 152.374C248.825 152.374 242.793 153.441 235.64 148.419C228.49 143.397 224.55 139.843 224.55 139.843C224.55 139.843 221.096 148.177 219.678 150.198L219.668 154.1C219.668 154.1 212.821 151.967 211.576 158.789C211.576 158.789 211.597 164.225 215.954 164.64C220.312 165.053 220.103 163.833 220.103 163.833C220.103 163.833 221.106 172.226 225.797 174.659L225.344 180.819C225.344 180.819 228.645 183.848 234.933 183.102C241.22 182.356 243.164 180.679 243.164 180.679L242.813 174.659C242.813 174.659 247.364 171.663 248.441 164.172L248.443 164.175Z" fill="white"/>
<path d="M295.726 197.672C295.726 197.672 299.333 189.511 298.954 187.666C298.574 185.82 294.97 181.75 293.186 180.251C291.401 178.749 291.384 175.746 293.186 174.735C294.99 173.727 297.826 174.743 300.555 177.113C303.281 179.482 306.676 183.145 307.906 183.099C307.906 183.099 317.293 176.018 321.284 174.995C325.275 173.972 327.156 173.755 328.167 175.405C328.167 175.405 331.489 175.578 332.255 177.93C332.255 177.93 335.093 177.355 336.106 179.075C337.122 180.796 335.727 184.128 332.42 186.442C329.114 188.755 324.048 191.693 320.36 192.652C316.672 193.612 315.211 201.879 315.211 201.879C315.211 201.879 302.823 201.469 295.729 197.669L295.726 197.672Z" fill="white"/>
<path d="M177.063 247.917L174.683 239.146C174.683 239.146 178.282 234.758 176.198 226.086C174.113 217.414 168.348 219.226 168.348 219.226C168.348 219.226 164.817 210.618 163.792 206.054C162.766 201.49 159.867 195.974 156.056 196.717C152.243 197.458 151.709 203.552 152.849 208.314C153.989 213.076 156.499 220.002 156.499 220.002C156.499 220.002 152.192 216.273 150.571 216.398C148.949 216.523 145.635 217.867 144.76 219.908C143.887 221.95 143.581 224.009 143.581 224.009C143.581 224.009 140.351 225.757 140.249 229.008C140.148 232.261 142.405 235.712 150.988 240.93C150.988 240.93 152.345 245.278 157.062 245.891L158.327 253.578C158.327 253.578 163.916 253.064 168.348 251.484C172.782 249.903 177.063 247.915 177.063 247.915V247.917Z" fill="white"/>
<path d="M378.097 170.993L352.645 155.24C351.566 154.573 350.184 155.39 350.245 156.655L351.709 186.551C351.767 187.734 353.06 188.432 354.081 187.829L360.961 183.771C361.709 183.331 362.674 183.578 363.117 184.329L373.12 201.296C373.561 202.045 374.528 202.294 375.276 201.854L380.721 198.644C381.469 198.204 381.719 197.239 381.278 196.488L371.275 179.52C370.835 178.772 371.082 177.807 371.832 177.365L378.071 173.686C379.092 173.086 379.107 171.615 378.099 170.993H378.097Z" fill="#FC5185"/>
<path d="M153.564 109.003V119.854C153.564 119.854 154.527 125.261 161.6 125.261C168.674 125.261 170.186 120.43 170.186 120.43L170.524 109.011C170.524 109.011 163.606 112.216 153.564 109.003Z" fill="#1A1A1A"/>
<path d="M167.98 194.166C168.955 187.988 164.738 182.189 158.56 181.214C152.382 180.239 146.584 184.457 145.608 190.634C144.633 196.812 148.851 202.611 155.029 203.586C161.206 204.561 167.005 200.344 167.98 194.166Z" fill="#FC5185"/>
<path d="M379.189 81.7704C379.189 83.9874 377.392 85.7845 375.175 85.7845C372.958 85.7845 371.161 83.9874 371.161 81.7704C371.161 79.5534 372.958 77.7563 375.175 77.7563C377.392 77.7563 379.189 79.5534 379.189 81.7704Z" fill="#673DE6"/>
<path d="M367.254 81.7704C367.254 83.9874 365.457 85.7845 363.24 85.7845C361.023 85.7845 359.226 83.9874 359.226 81.7704C359.226 79.5534 361.023 77.7563 363.24 77.7563C365.457 77.7563 367.254 79.5534 367.254 81.7704Z" fill="white"/>
<path d="M355.316 81.7704C355.316 83.9874 353.519 85.7845 351.302 85.7845C349.085 85.7845 347.288 83.9874 347.288 81.7704C347.288 79.5534 349.085 77.7563 351.302 77.7563C353.519 77.7563 355.316 79.5534 355.316 81.7704Z" fill="white"/>
<path d="M154.837 245.57L156.79 246.008L158.655 253.708C158.655 253.708 150.518 253.957 150.06 251.748C149.601 249.539 154.837 245.57 154.837 245.57Z" fill="#1A1A1A"/>
<path d="M175.154 240.564L177.063 247.917C177.063 247.917 184.328 244.153 182.638 241.335C180.945 238.515 175.154 240.566 175.154 240.566V240.564Z" fill="#1A1A1A"/>
<path d="M297.948 190.715C297.948 190.715 296.859 196.931 295.726 197.672C294.596 198.415 289.355 195.276 290.243 192.746C291.132 190.214 297.946 190.715 297.946 190.715H297.948Z" fill="#1A1A1A"/>
<path d="M317.95 193.922C317.95 193.922 315.234 199.509 315.491 201.765C315.491 201.765 323.458 201.805 323.931 198.7C324.308 196.241 317.95 193.922 317.95 193.922Z" fill="#1A1A1A"/>
<path d="M124.032 179.826C124.032 182.361 121.976 184.418 119.44 184.418C116.905 184.418 114.849 182.361 114.849 179.826C114.849 177.291 116.905 175.234 119.44 175.234C121.976 175.234 124.032 177.291 124.032 179.826Z" fill="#1A1A1A"/>
<path d="M208.72 201.301C208.72 203.837 206.663 205.893 204.128 205.893C201.593 205.893 199.536 203.837 199.536 201.301C199.536 198.766 201.593 196.709 204.128 196.709C206.663 196.709 208.72 198.766 208.72 201.301Z" fill="#1A1A1A"/>
<path d="M283.132 100.313H260.799V122.647H283.132V100.313Z" fill="#FC5185"/>
<path d="M250.958 152.389C250.958 152.389 252.019 147.296 251.592 139.622C251.164 131.947 241.952 129.585 241.952 129.585C241.952 129.585 248.26 121.056 247.857 116.204C247.516 112.101 242.52 110.108 237.185 109.627C240.008 112.847 245.681 121.132 236.887 128.743C236.887 128.743 245.36 132.092 244.062 141.658C242.764 151.226 228.479 143.707 228.479 143.707C228.479 143.707 233.481 150.266 236.844 154.68L248.822 153.952L250.955 152.387L250.958 152.389Z" fill="white"/>
<path d="M345.375 296.997C345.209 296.997 345.047 296.933 344.924 296.811L328.17 279.935C327.939 279.704 327.944 279.336 328.182 279.111L344.936 263.171C345.176 262.943 345.575 262.943 345.818 263.171C346.061 263.403 346.061 263.776 345.818 264.01L329.491 279.542L345.829 296C346.067 296.237 346.055 296.61 345.803 296.836C345.683 296.944 345.531 297 345.375 297V296.997Z" fill="white"/>
<path d="M295.627 198.438C295.551 198.438 295.472 198.42 295.4 198.387C295.131 198.262 295.011 197.939 295.136 197.669C296.811 194.039 299.135 187.747 298.244 186.312C297.058 184.397 295.749 183.272 294.484 182.18C293.998 181.763 293.53 181.358 293.092 180.931C290.465 178.362 291.089 176.382 291.478 175.649C292.219 174.257 294.023 173.541 295.838 173.918C299.104 174.593 303.037 178.444 306.201 181.541L306.486 181.821C308.308 183.603 314.809 183.606 317.163 183.453C317.464 183.471 317.718 183.659 317.736 183.96C317.754 184.257 317.53 184.514 317.23 184.532C316.868 184.553 308.265 185.074 305.727 182.593L305.442 182.315C302.543 179.477 298.572 175.588 295.619 174.979C294.26 174.705 292.952 175.186 292.433 176.158C291.85 177.253 292.366 178.711 293.848 180.159C294.27 180.572 294.721 180.961 295.189 181.363C296.454 182.453 297.887 183.687 299.165 185.744C300.624 188.091 296.884 196.47 296.118 198.125C296.027 198.323 295.833 198.44 295.627 198.44V198.438Z" fill="black"/>
<path d="M315.208 202.426C314.832 202.373 314.628 202.098 314.674 201.803C314.727 201.446 316.051 193.113 320.236 192.13C324.29 191.178 334.808 186.049 335.925 180.857C336.075 180.154 335.9 179.546 335.416 179.1C334.731 178.472 333.581 178.304 332.413 178.66C330.01 179.391 321.144 184.52 321.055 184.573C320.953 184.632 320.834 184.662 320.717 184.642C320.63 184.634 311.724 183.573 307.761 187.862C307.557 188.081 307.218 188.096 306.994 187.892C306.776 187.689 306.76 187.347 306.964 187.126C311.019 182.738 319.291 183.402 320.666 183.547C321.91 182.829 329.727 178.344 332.095 177.624C333.634 177.158 335.182 177.421 336.144 178.304C336.905 179.004 337.208 180.017 336.979 181.083C335.678 187.139 324.008 192.354 320.482 193.184C317.593 193.864 316.084 199.754 315.746 201.966C315.705 202.233 315.476 202.426 315.211 202.426H315.208Z" fill="black"/>
<path d="M312.956 184.54C312.775 184.54 312.597 184.448 312.495 184.283C312.338 184.028 312.416 183.695 312.671 183.537C314.119 182.646 326.884 174.842 329.476 175.122C331.751 175.372 332.637 177.148 332.787 178.054C332.836 178.35 332.637 178.627 332.342 178.675C332.052 178.726 331.769 178.525 331.721 178.233C331.703 178.143 331.364 176.42 329.359 176.199C327.719 176.021 318.592 181.167 313.241 184.459C313.152 184.512 313.053 184.54 312.956 184.54Z" fill="black"/>
<path d="M307.625 183.644C307.45 183.644 307.277 183.558 307.172 183.4C307.007 183.15 307.078 182.817 307.328 182.651C307.552 182.504 312.851 179.027 314.111 178.352C314.714 178.029 315.432 177.606 316.214 177.143C318.904 175.55 322.251 173.569 324.705 173.445C328.067 173.274 328.762 175.42 328.79 175.512C328.869 175.799 328.701 176.097 328.414 176.178C328.136 176.26 327.836 176.092 327.749 175.812C327.729 175.746 327.273 174.42 324.758 174.526C322.572 174.638 319.215 176.626 316.766 178.077C315.969 178.551 315.236 178.981 314.623 179.312C313.404 179.966 307.974 183.524 307.918 183.56C307.827 183.621 307.725 183.649 307.623 183.649L307.625 183.644Z" fill="black"/>
<path d="M377.809 328H99.7345C99.4342 328 99.1924 327.758 99.1924 327.458C99.1924 327.157 99.4342 326.916 99.7345 326.916H377.809C378.11 326.916 378.352 327.157 378.352 327.458C378.352 327.758 378.11 328 377.809 328Z" fill="#D8DBFE"/>
<path d="M226.693 153.968C227.125 153.899 227.413 154.085 227.538 155.64C227.675 157.376 227.227 157.681 226.838 157.666C226.448 157.651 226.059 157.116 226.077 155.874C226.095 154.634 226.125 154.054 226.693 153.965V153.968Z" fill="black"/>
<path d="M241.518 154.107C241.95 154.051 242.235 154.242 242.319 155.803C242.411 157.541 241.955 157.834 241.566 157.808C241.177 157.783 240.802 157.238 240.853 155.999C240.904 154.759 240.95 154.181 241.518 154.107Z" fill="black"/>
<path d="M217.209 165.322C217.079 165.322 216.947 165.32 216.817 165.31C213.417 165.096 210.823 162.156 211.037 158.755C211.251 155.355 214.241 152.758 217.591 152.977C218.245 153.018 218.884 153.161 219.495 153.402C219.772 153.512 219.907 153.827 219.798 154.105C219.688 154.382 219.378 154.52 219.095 154.408C218.594 154.209 218.065 154.09 217.525 154.056C214.712 153.881 212.294 156.019 212.119 158.824C211.943 161.629 214.081 164.055 216.886 164.23C217.802 164.281 218.731 164.095 219.551 163.668C219.813 163.533 220.142 163.632 220.282 163.897C220.419 164.162 220.315 164.49 220.052 164.627C219.174 165.083 218.199 165.32 217.212 165.32L217.209 165.322Z" fill="black"/>
<path d="M215.964 162.545C215.804 162.545 215.643 162.471 215.537 162.334C215.353 162.1 215.397 161.759 215.636 161.575L218.874 159.073L215.246 156.391C215.007 156.212 214.956 155.874 215.132 155.635C215.31 155.395 215.649 155.344 215.888 155.52L220.09 158.63C220.228 158.732 220.309 158.89 220.309 159.061C220.309 159.231 220.233 159.392 220.098 159.493L216.292 162.433C216.193 162.51 216.079 162.548 215.962 162.548L215.964 162.545Z" fill="black"/>
<path d="M251.416 165.322C250.428 165.322 249.454 165.086 248.575 164.63C248.311 164.49 248.209 164.164 248.346 163.9C248.486 163.635 248.81 163.536 249.077 163.67C249.896 164.098 250.818 164.289 251.742 164.233C254.547 164.057 256.685 161.632 256.509 158.827C256.334 156.022 253.923 153.878 251.103 154.059C250.523 154.095 249.958 154.227 249.431 154.454C249.156 154.571 248.838 154.443 248.72 154.169C248.603 153.894 248.733 153.576 249.006 153.458C249.647 153.186 250.329 153.026 251.034 152.98C254.404 152.764 257.375 155.36 257.589 158.758C257.802 162.159 255.209 165.098 251.811 165.312C251.681 165.32 251.548 165.325 251.419 165.325L251.416 165.322Z" fill="black"/>
<path d="M252.661 162.545C252.546 162.545 252.429 162.507 252.33 162.431L248.525 159.491C248.39 159.386 248.311 159.226 248.314 159.058C248.314 158.89 248.398 158.73 248.532 158.628L252.735 155.517C252.974 155.342 253.315 155.39 253.491 155.632C253.669 155.871 253.618 156.21 253.376 156.388L249.749 159.071L252.987 161.573C253.224 161.756 253.267 162.095 253.086 162.331C252.979 162.471 252.819 162.543 252.658 162.543L252.661 162.545Z" fill="black"/>
<path d="M292.163 277.642C291.585 277.642 290.997 277.619 290.396 277.573C281.105 276.845 271.242 269.622 271.425 251.524C271.428 251.226 271.67 250.987 271.968 250.987C272.273 250.989 272.51 251.236 272.51 251.534C272.334 268.886 281.678 275.804 290.483 276.492C310.207 278.034 314.783 251.817 316.285 243.201C318.472 230.632 323.349 199.283 323.397 198.967C323.443 198.672 323.707 198.483 324.015 198.514C324.311 198.56 324.514 198.837 324.468 199.133C324.42 199.448 319.538 230.807 317.352 243.386C315.855 251.985 311.39 277.642 292.168 277.642H292.163Z" fill="black"/>
<path d="M277.652 244.155C277.306 244.125 277.087 243.863 277.115 243.565C277.805 235.944 279.22 228.896 280.286 224.322C284.499 206.255 289.689 192.688 289.74 192.553C289.849 192.276 290.16 192.136 290.44 192.242C290.72 192.349 290.857 192.662 290.75 192.942C290.699 193.077 285.535 206.581 281.34 224.571C280.284 229.107 278.879 236.107 278.191 243.664C278.166 243.944 277.932 244.155 277.652 244.155Z" fill="black"/>
<path d="M234.309 177.451C231.595 177.451 227.711 176.934 224.611 174.471C222.226 172.577 220.645 169.53 219.782 165.16C219.212 162.268 219.087 153.163 219.138 150.19C219.143 149.895 219.385 149.658 219.68 149.658C219.988 149.663 220.228 149.91 220.223 150.208C220.169 153.402 220.317 162.271 220.846 164.948C221.658 169.054 223.109 171.892 225.285 173.623C228.141 175.891 231.768 176.367 234.309 176.367C234.609 176.367 234.851 176.609 234.851 176.909C234.851 177.209 234.609 177.451 234.309 177.451Z" fill="black"/>
<path d="M234.309 177.451C234.008 177.451 233.767 177.209 233.767 176.909C233.767 176.609 234.008 176.367 234.309 176.367C236.849 176.367 240.476 175.891 243.332 173.623C245.508 171.892 246.962 169.057 247.771 164.948C248.341 162.064 248.357 154.899 248.313 152.382C248.308 152.084 248.548 151.837 248.845 151.832C249.148 151.832 249.39 152.069 249.395 152.364C249.439 154.914 249.418 162.182 248.833 165.157C247.97 169.525 246.389 172.574 244.004 174.468C240.904 176.932 237.02 177.449 234.309 177.449V177.451Z" fill="black"/>
<path d="M248.13 152.931C237.847 152.931 227.286 143.29 224.583 140.642C223.901 142.806 222.017 148.373 220.083 150.557C219.887 150.781 219.543 150.801 219.319 150.605C219.095 150.406 219.075 150.065 219.273 149.841C221.485 147.342 223.789 139.55 223.809 139.471C223.863 139.286 224.013 139.143 224.201 139.097C224.387 139.054 224.588 139.11 224.72 139.25C224.845 139.38 237.381 152.351 248.802 151.837C249.108 151.842 249.355 152.053 249.365 152.354C249.377 152.651 249.148 152.906 248.848 152.919C248.609 152.929 248.367 152.934 248.128 152.934L248.13 152.931Z" fill="black"/>
<path d="M225.423 181.017C225.074 180.984 224.855 180.722 224.883 180.424C225.173 177.405 225.257 174.671 225.26 174.646C225.268 174.353 225.509 174.122 225.8 174.122C226.115 174.132 226.349 174.381 226.339 174.679C226.339 174.707 226.253 177.474 225.96 180.528C225.932 180.808 225.698 181.02 225.423 181.02V181.017Z" fill="black"/>
<path d="M243.167 180.752C242.889 180.752 242.652 180.541 242.627 180.259C242.355 177.314 242.276 174.702 242.276 174.674C242.266 174.376 242.5 174.127 242.8 174.119C243.106 174.119 243.347 174.348 243.355 174.643C243.355 174.669 243.434 177.25 243.704 180.159C243.732 180.455 243.513 180.719 243.215 180.747C243.197 180.747 243.182 180.75 243.167 180.75V180.752Z" fill="black"/>
<path d="M216.848 154.046C216.616 154.046 216.402 153.896 216.331 153.664C216.194 153.214 212.979 142.559 216.265 136.972C217.212 135.361 218.612 134.322 220.424 133.884C221.076 132.998 224.135 129.216 229.363 128.297C236.811 126.991 248.586 128.837 251.468 137.028C252.763 140.703 252.768 144.898 251.493 153.066C251.445 153.361 251.167 153.563 250.874 153.517C250.579 153.471 250.376 153.193 250.421 152.898C251.666 144.931 251.671 140.874 250.447 137.387C247.772 129.789 236.62 128.119 229.547 129.364C224.209 130.3 221.218 134.627 221.19 134.671C221.111 134.788 220.989 134.867 220.854 134.897C219.228 135.243 218.031 136.101 217.194 137.522C214.147 142.701 217.331 153.242 217.365 153.346C217.451 153.631 217.291 153.934 217.006 154.023C216.952 154.039 216.899 154.046 216.845 154.046H216.848Z" fill="black"/>
<path d="M186.479 328C186.397 328 186.316 327.982 186.24 327.944C185.97 327.811 185.86 327.486 185.993 327.218C188.719 321.687 199.269 266.615 195.79 250.832C192.244 234.735 197.938 218.709 197.997 218.546C198.101 218.266 198.412 218.121 198.692 218.22C198.972 218.325 199.119 218.633 199.017 218.915C198.959 219.073 193.372 234.816 196.849 250.597C200.361 266.531 189.717 322.115 186.965 327.694C186.871 327.885 186.68 327.997 186.479 327.997V328Z" fill="black"/>
<path d="M281.885 328C281.686 328 281.493 327.888 281.398 327.697C278.647 322.12 268.002 266.542 271.515 250.6C274.994 234.809 269.405 219.076 269.346 218.918C269.244 218.638 269.389 218.327 269.672 218.223C269.954 218.121 270.262 218.266 270.367 218.549C270.425 218.709 276.119 234.737 272.574 250.834C269.094 266.626 279.647 321.693 282.373 327.221C282.506 327.488 282.396 327.814 282.126 327.947C282.05 327.985 281.969 328.003 281.887 328.003L281.885 328Z" fill="black"/>
<path d="M315.175 202.375C312.332 202.375 309.143 202.065 306.071 201.507C298.065 200.059 291.425 197.213 289.923 194.587C289.475 193.805 289.554 193.174 289.699 192.779C290.773 189.857 295.014 189.839 298.381 190.341C298.676 190.384 298.88 190.659 298.837 190.954C298.793 191.25 298.531 191.468 298.223 191.41C295.79 191.051 291.58 190.796 290.717 193.151C290.62 193.416 290.669 193.708 290.862 194.049C292.175 196.34 298.799 199.089 306.267 200.441C315.881 202.172 323.013 201.057 323.395 198.962C323.57 197.995 321.814 196.132 318.121 194.449C317.851 194.324 317.729 194.004 317.853 193.731C317.978 193.459 318.301 193.344 318.571 193.464C321.659 194.872 324.828 197.106 324.459 199.155C324.046 201.421 320.136 202.373 315.178 202.373L315.175 202.375Z" fill="black"/>
<path d="M176.544 298.232C172.446 298.232 168.76 297.153 165.54 295.007C157.336 289.537 154.152 278.439 152.986 272.31C152.493 269.724 151.902 266.096 151.273 262.261C150.724 258.903 150.133 255.294 149.525 251.845C149.474 251.55 149.67 251.27 149.962 251.216C150.268 251.173 150.538 251.361 150.591 251.654C151.2 255.108 151.793 258.722 152.342 262.085C152.969 265.916 153.562 269.535 154.05 272.106C155.186 278.07 158.265 288.857 166.141 294.106C170.501 297.013 175.79 297.842 181.859 296.567C185.203 295.867 193.145 293.111 194.626 282.705C194.667 282.41 194.947 282.191 195.237 282.247C195.532 282.288 195.739 282.562 195.695 282.858C194.076 294.251 184.865 297.043 182.083 297.626C180.161 298.028 178.315 298.229 176.544 298.229V298.232Z" fill="black"/>
<path d="M192.982 271.602C192.753 271.602 192.539 271.455 192.468 271.226C187.435 255.564 182.337 241.943 182.286 241.809C182.182 241.529 182.324 241.218 182.602 241.114C182.882 241.007 183.192 241.149 183.297 241.429C183.348 241.564 188.454 255.207 193.493 270.895C193.585 271.18 193.43 271.483 193.145 271.574C193.089 271.592 193.033 271.602 192.979 271.602H192.982Z" fill="black"/>
<path d="M155.667 254.258C152.424 254.258 150.041 253.565 149.54 251.908C149.453 251.623 149.616 251.32 149.901 251.234C150.186 251.15 150.489 251.308 150.576 251.595C151.192 253.634 158.4 253.932 167.76 251.104C175.024 248.907 181.288 245.42 182.329 242.989C182.485 242.628 182.5 242.333 182.373 242.083C181.301 239.96 177.885 240.368 175.207 241.085C174.912 241.159 174.622 240.991 174.543 240.704C174.467 240.413 174.637 240.118 174.925 240.039C179.387 238.84 182.215 239.37 183.337 241.594C183.526 241.971 183.678 242.59 183.325 243.417C182.149 246.156 175.737 249.824 168.07 252.14C163.789 253.433 159.212 254.26 155.667 254.26V254.258Z" fill="black"/>
<path d="M150.059 252.29C149.827 252.29 149.611 252.14 149.542 251.906C148.967 250.002 151.965 246.98 155.078 245.104C155.335 244.949 155.666 245.031 155.822 245.29C155.974 245.545 155.893 245.878 155.636 246.034C152.375 247.999 150.275 250.59 150.578 251.59C150.665 251.875 150.502 252.178 150.217 252.265C150.163 252.28 150.112 252.288 150.059 252.288V252.29Z" fill="black"/>
<path d="M222.954 152.3C222.893 152.3 222.829 152.29 222.768 152.267C222.488 152.165 222.34 151.855 222.445 151.572C223.417 148.902 227.126 148.133 229.315 148.625C229.605 148.691 229.788 148.978 229.724 149.271C229.661 149.561 229.378 149.747 229.078 149.681C227.276 149.276 224.183 149.956 223.46 151.944C223.381 152.163 223.175 152.3 222.954 152.3Z" fill="black"/>
<path d="M235.062 169.932C233.8 169.932 232.777 169.606 232.703 169.581C232.418 169.486 232.265 169.184 232.357 168.898C232.451 168.613 232.759 168.458 233.039 168.552C233.064 168.562 235.686 169.387 237.376 168.237C238.267 167.631 238.766 166.552 238.86 165.029C238.88 164.734 239.094 164.531 239.433 164.523C239.731 164.541 239.957 164.798 239.939 165.096C239.822 166.972 239.163 168.331 237.979 169.133C237.071 169.751 236.002 169.929 235.062 169.929V169.932Z" fill="black"/>
<path d="M230.501 164.716C230.371 164.716 230.244 164.671 230.14 164.576C229.951 164.408 228.281 162.868 228.231 161.275C228.213 160.682 228.424 160.14 228.847 159.71C229.333 159.216 229.908 158.964 230.554 158.964C231.26 158.964 231.911 159.274 232.395 159.587C232.726 156.609 232.955 152.43 232.354 151.514C232.191 151.264 232.26 150.928 232.509 150.765C232.761 150.602 233.095 150.668 233.26 150.92C234.345 152.57 233.53 159.341 233.354 160.682C233.326 160.886 233.184 161.059 232.988 161.125C232.794 161.191 232.575 161.138 232.43 160.99C232.171 160.725 231.331 160.043 230.554 160.043C230.203 160.043 229.898 160.183 229.618 160.466C229.399 160.69 229.302 160.934 229.312 161.237C229.343 162.204 230.442 163.393 230.862 163.77C231.086 163.968 231.104 164.312 230.906 164.533C230.799 164.653 230.651 164.714 230.504 164.714L230.501 164.716Z" fill="black"/>
<path d="M222.691 137.779C222.521 137.779 222.355 137.7 222.248 137.552L220.505 135.091C220.332 134.846 220.39 134.51 220.635 134.335C220.876 134.164 221.215 134.22 221.391 134.465L223.134 136.926C223.307 137.17 223.249 137.506 223.004 137.682C222.91 137.748 222.801 137.781 222.691 137.781V137.779Z" fill="black"/>
<g opacity="0.7">
<path opacity="0.7" d="M43.4 257.375C44.8456 257.375 46.0197 256.201 46.0197 254.755C46.0197 253.31 44.8485 252.136 43.4 252.136C41.9515 252.136 40.7803 253.31 40.7803 254.755C40.7803 256.201 41.9543 257.375 43.4 257.375Z" fill="#1A1A1A"/>
<path d="M63.7574 257.511C65.2795 257.511 66.5129 256.278 66.5129 254.755C66.5129 253.233 65.2795 252 63.7574 252C62.2354 252 61.002 253.233 61.002 254.755C61.002 256.278 62.2354 257.511 63.7574 257.511Z" fill="#1A1A1A"/>
<path d="M84.1124 257.31C85.5212 257.31 86.6642 256.167 86.6642 254.758C86.6642 253.349 85.5212 252.207 84.1124 252.207C82.7035 252.207 81.5605 253.349 81.5605 254.758C81.5605 256.167 82.7035 257.31 84.1124 257.31Z" fill="#1A1A1A"/>
<path opacity="0.7" d="M43.4 277.869C44.9221 277.869 46.1555 276.635 46.1555 275.113C46.1555 273.591 44.9221 272.358 43.4 272.358C41.878 272.358 40.6445 273.591 40.6445 275.113C40.6445 276.635 41.878 277.869 43.4 277.869Z" fill="#1A1A1A"/>
<path d="M63.7575 278.005C65.3531 278.005 66.6488 276.712 66.6488 275.113C66.6488 273.515 65.3559 272.222 63.7575 272.222C62.1591 272.222 60.8662 273.515 60.8662 275.113C60.8662 276.712 62.1591 278.005 63.7575 278.005Z" fill="#1A1A1A"/>
<path d="M84.1124 277.8C85.5977 277.8 86.8 276.598 86.8 275.113C86.8 273.628 85.5977 272.425 84.1124 272.425C82.6272 272.425 81.4248 273.628 81.4248 275.113C81.4248 276.598 82.6272 277.8 84.1124 277.8Z" fill="#1A1A1A"/>
<path opacity="0.7" d="M43.4004 298.023C44.8093 298.023 45.9522 296.88 45.9522 295.471C45.9522 294.062 44.8093 292.919 43.4004 292.919C41.9916 292.919 40.8486 294.062 40.8486 295.471C40.8486 296.88 41.9916 298.023 43.4004 298.023Z" fill="#1A1A1A"/>
<path d="M63.7579 298.159C65.2422 298.159 66.4455 296.956 66.4455 295.471C66.4455 293.987 65.2422 292.784 63.7579 292.784C62.2736 292.784 61.0703 293.987 61.0703 295.471C61.0703 296.956 62.2736 298.159 63.7579 298.159Z" fill="#1A1A1A"/>
<path d="M84.113 297.977C85.4964 297.977 86.6195 296.854 86.6195 295.471C86.6195 294.087 85.4964 292.964 84.113 292.964C82.7296 292.964 81.6064 294.087 81.6064 295.471C81.6064 296.854 82.7296 297.977 84.113 297.977Z" fill="#1A1A1A"/>
</g>
<g opacity="0.7">
<path d="M2.75544 257.375C4.20109 257.375 5.37514 256.201 5.37514 254.755C5.37514 253.31 4.20109 252.136 2.75544 252.136C1.3098 252.136 0.135742 253.31 0.135742 254.755C0.135742 256.201 1.3098 257.375 2.75544 257.375Z" fill="#1A1A1A"/>
<path d="M23.111 257.511C24.633 257.511 25.8665 256.278 25.8665 254.755C25.8665 253.233 24.633 252 23.111 252C21.5889 252 20.3555 253.233 20.3555 254.755C20.3555 256.278 21.5889 257.511 23.111 257.511Z" fill="#1A1A1A"/>
<path opacity="0.7" d="M43.4678 257.31C44.8767 257.31 46.0196 256.167 46.0196 254.758C46.0196 253.349 44.8767 252.207 43.4678 252.207C42.0589 252.207 40.916 253.349 40.916 254.758C40.916 256.167 42.0589 257.31 43.4678 257.31Z" fill="#1A1A1A"/>
<path d="M2.75549 277.869C4.27752 277.869 5.51099 276.635 5.51099 275.113C5.51099 273.591 4.27752 272.358 2.75549 272.358C1.23347 272.358 0 273.591 0 275.113C0 276.635 1.23347 277.869 2.75549 277.869Z" fill="#1A1A1A"/>
<path d="M23.11 278.005C24.7056 278.005 26.0013 276.712 26.0013 275.113C26.0013 273.515 24.7085 272.222 23.11 272.222C21.5116 272.222 20.2188 273.515 20.2188 275.113C20.2188 276.712 21.5116 278.005 23.11 278.005Z" fill="#1A1A1A"/>
<path opacity="0.7" d="M43.4679 277.8C44.9531 277.8 46.1555 276.598 46.1555 275.113C46.1555 273.628 44.9531 272.425 43.4679 272.425C41.9826 272.425 40.7803 273.628 40.7803 275.113C40.7803 276.598 41.9826 277.8 43.4679 277.8Z" fill="#1A1A1A"/>
<path d="M2.7559 298.023C4.16477 298.023 5.30771 296.88 5.30771 295.471C5.30771 294.062 4.16477 292.919 2.7559 292.919C1.34704 292.919 0.204102 294.062 0.204102 295.471C0.204102 296.88 1.34704 298.023 2.7559 298.023Z" fill="#1A1A1A"/>
<path d="M25.8008 295.519C25.8137 294.034 24.621 292.821 23.1367 292.808C21.6525 292.795 20.4388 293.987 20.4258 295.472C20.4128 296.956 21.6056 298.17 23.0898 298.183C24.5741 298.196 25.7878 297.003 25.8008 295.519Z" fill="#1A1A1A"/>
<path opacity="0.7" d="M45.241 297.244C46.2199 296.265 46.2199 294.678 45.241 293.699C44.2621 292.72 42.6751 292.72 41.6962 293.699C40.7174 294.678 40.7174 296.265 41.6962 297.244C42.6751 298.222 44.2621 298.222 45.241 297.244Z" fill="#1A1A1A"/>
</g>
<path d="M163.654 125.801H160.391C156.326 125.801 153.02 122.497 153.02 118.434V109.505C153.02 109.322 153.027 109.144 153.04 108.963C153.053 108.8 153.144 108.65 153.279 108.558C153.417 108.466 153.59 108.441 153.745 108.494C159.055 110.213 164.962 110.223 170.295 108.512C170.45 108.464 170.621 108.487 170.758 108.576C170.896 108.668 170.982 108.813 170.998 108.976C171.015 109.151 171.02 109.329 171.02 109.505V118.434C171.02 122.494 167.714 125.801 163.649 125.801H163.654ZM154.106 109.737V118.434C154.106 121.898 156.927 124.719 160.393 124.719H163.657C167.126 124.719 169.946 121.898 169.946 118.434V109.754C164.82 111.254 159.215 111.246 154.109 109.737H154.106Z" fill="black"/>
<path d="M162.053 110.877C159.095 110.877 156.191 110.421 153.416 109.525C141.738 105.773 133.891 95.0013 133.891 82.7224C133.891 67.1981 146.523 54.5654 162.053 54.5654C177.582 54.5654 190.21 67.1956 190.21 82.7224C190.21 95.0242 182.339 105.804 170.628 109.546C167.866 110.429 164.982 110.879 162.053 110.879V110.877ZM162.053 55.6472C147.122 55.6472 134.975 67.7938 134.975 82.7224C134.975 94.5304 142.517 104.888 153.747 108.494C159.057 110.215 164.965 110.225 170.297 108.515C181.56 104.918 189.125 94.5533 189.125 82.7224C189.125 67.7938 176.981 55.6472 162.053 55.6472Z" fill="black"/>
<path d="M145.431 94.706C145.129 94.706 144.838 94.6983 144.566 94.6856C144.268 94.6729 144.037 94.4209 144.049 94.1231C144.062 93.8329 144.301 93.6063 144.589 93.6063C146.249 93.6776 148.588 93.614 150.125 92.2726C150.469 91.9722 150.767 91.6388 151.024 91.2824C150.329 90.7861 149.728 90.2108 149.222 89.5566C147.908 87.8589 147.323 85.6368 147.613 83.4656C147.712 82.7223 148.394 79.7773 149.909 78.9475C150.42 78.6701 150.978 78.6522 151.517 78.9068C152.553 79.3904 152.948 80.8107 153.208 81.75L153.266 81.9587C153.592 83.1016 153.75 84.2903 153.742 85.4968C153.734 86.604 153.572 88.8974 152.505 90.9362C154.656 92.1148 157.657 92.6391 161.595 92.5398C163.845 92.4813 165.721 92.158 167.334 91.5548C169.307 90.8141 170.875 89.5948 171.901 88.0829C171.791 88.0269 171.682 87.9683 171.575 87.9072C169.923 86.9833 168.823 85.5019 168.63 83.9466C168.521 83.0507 168.696 82.0809 169.137 81.1416C169.473 80.4315 170.086 79.5202 171.114 79.1995C171.957 78.9424 172.558 79.1944 172.911 79.454C174.273 80.462 174.334 83.2085 174.332 83.7506C174.324 85.1124 174.016 86.408 173.441 87.5865C176.134 88.6276 179.379 88.7269 182.51 88.7294C182.81 88.7294 183.052 88.9712 183.052 89.269C183.052 89.5668 182.808 89.8086 182.51 89.8086C179.216 89.8086 175.795 89.6966 172.901 88.5359C171.756 90.2974 169.971 91.7177 167.714 92.5627C165.988 93.2118 163.997 93.5554 161.623 93.6191C157.471 93.726 154.272 93.1482 151.943 91.8577C151.632 92.298 151.265 92.7129 150.838 93.0871C149.283 94.4438 147.152 94.706 145.434 94.706H145.431ZM150.746 79.8079C150.639 79.8079 150.537 79.8384 150.431 79.8969C149.535 80.3882 148.83 82.5416 148.687 83.6081C148.435 85.4968 148.942 87.4211 150.079 88.8948C150.504 89.4446 151.006 89.9308 151.589 90.3559C152.51 88.5461 152.653 86.4844 152.658 85.4866C152.665 84.3819 152.52 83.295 152.225 82.2514L152.164 82.0376C151.971 81.3351 151.642 80.1591 151.057 79.8842C150.947 79.8333 150.845 79.8053 150.744 79.8053L150.746 79.8079ZM171.802 80.1744C171.697 80.1744 171.575 80.1922 171.433 80.2355C170.745 80.4467 170.31 81.1824 170.111 81.6049C169.755 82.3583 169.613 83.1219 169.699 83.8143C169.849 85.0284 170.748 86.2044 172.099 86.9629C172.214 87.0265 172.328 87.0876 172.446 87.1462C172.962 86.1026 173.242 84.9521 173.247 83.7481C173.252 82.4525 172.947 80.8285 172.267 80.3246C172.171 80.2533 172.028 80.1718 171.804 80.1718L171.802 80.1744Z" fill="black"/>
<path d="M373.068 169.932C372.767 169.932 372.525 169.69 372.525 169.39C372.525 169.089 372.767 168.847 373.068 168.847C380.256 168.847 386.102 163.265 386.102 156.403V136.004C386.102 135.707 386.344 135.465 386.645 135.465C386.945 135.465 387.187 135.707 387.187 136.004V156.403C387.187 163.861 380.851 169.929 373.07 169.929L373.068 169.932Z" fill="black"/>
<path d="M242.331 107.585C242.031 107.585 241.789 107.344 241.789 107.046V87.9885C241.789 80.5306 248.124 74.4624 255.906 74.4624H373.067C380.851 74.4624 387.184 80.528 387.184 87.9885V106.875C387.184 107.173 386.942 107.415 386.641 107.415C386.341 107.415 386.099 107.173 386.099 106.875V87.9885C386.099 81.1262 380.253 75.5442 373.064 75.5442H255.903C248.715 75.5442 242.868 81.1262 242.868 87.9885V107.046C242.868 107.344 242.626 107.585 242.326 107.585H242.331Z" fill="#D8DBFE"/>
<path d="M331.412 169.932H257.693C257.392 169.932 257.15 169.69 257.15 169.39C257.15 169.089 257.392 168.848 257.693 168.848H331.412C331.712 168.848 331.954 169.089 331.954 169.39C331.954 169.69 331.712 169.932 331.412 169.932Z" fill="black"/>
<path d="M200.86 240.632H184.404C184.104 240.632 183.862 240.391 183.862 240.09C183.862 239.79 184.104 239.548 184.404 239.548H200.86C207.72 239.548 213.302 233.966 213.302 227.104V173.447C213.302 166.585 207.72 161.003 200.86 161.003H168.113C167.813 161.003 167.571 160.761 167.571 160.461C167.571 160.16 167.813 159.918 168.113 159.918H200.86C208.315 159.918 214.386 165.987 214.386 173.445V227.101C214.386 234.559 208.318 240.627 200.86 240.627V240.632Z" fill="black"/>
<path d="M144.933 240.632H112.721C105.263 240.632 99.1953 234.564 99.1953 227.106V173.449C99.1953 165.992 105.263 159.923 112.721 159.923H134.355C134.655 159.923 134.897 160.165 134.897 160.466C134.897 160.766 134.655 161.008 134.355 161.008H112.721C105.859 161.008 100.277 166.59 100.277 173.452V227.109C100.277 233.971 105.859 239.553 112.721 239.553H144.933C145.234 239.553 145.475 239.795 145.475 240.095C145.475 240.395 145.234 240.637 144.933 240.637V240.632Z" fill="black"/>
<path d="M156.789 221.201C156.583 221.201 156.384 221.081 156.295 220.88C152.764 212.984 150.237 202.513 153.029 198.181C153.879 196.86 155.144 196.185 156.786 196.175C161.6 196.175 163.358 202.439 165.224 209.07C166.232 212.656 167.276 216.365 168.816 218.953C168.968 219.208 168.884 219.541 168.627 219.694C168.373 219.844 168.039 219.763 167.887 219.506C166.275 216.795 165.214 213.018 164.186 209.365C162.434 203.142 160.782 197.262 156.819 197.262C155.529 197.269 154.592 197.761 153.946 198.771C151.774 202.139 153.179 211.254 157.288 220.445C157.41 220.717 157.288 221.038 157.013 221.16C156.941 221.193 156.868 221.209 156.794 221.209L156.789 221.201Z" fill="black"/>
<path d="M177.063 248.457C176.824 248.457 176.605 248.296 176.542 248.057L174.162 239.286C174.103 239.072 174.179 238.845 174.355 238.713C175.653 237.731 177.725 226.895 173.63 221.175C171.527 218.236 159.918 220.343 153.333 224.044C150.474 225.65 149.125 227.251 149.632 228.435C150.38 230.186 151.76 231.393 153.732 232.019C157.459 233.2 162.903 232.09 167.61 229.188C167.864 229.036 168.198 229.109 168.356 229.364C168.513 229.618 168.435 229.952 168.18 230.11C163.214 233.169 157.416 234.33 153.407 233.05C151.151 232.334 149.502 230.884 148.639 228.857C148.102 227.603 148.39 225.584 152.806 223.1C159.431 219.373 171.794 216.747 174.513 220.544C178.72 226.421 177.01 237.066 175.284 239.293L177.585 247.772C177.664 248.062 177.493 248.358 177.206 248.436C177.158 248.449 177.112 248.457 177.063 248.457Z" fill="black"/>
<path d="M162.672 238.884C161.949 238.884 161.198 238.8 160.432 238.635C157.573 238.016 154.628 236.481 151.167 233.811C149.067 232.195 147.16 230.331 145.496 228.275C144.462 226.997 143.105 225.032 143.235 222.731C143.273 222.074 143.431 221.412 143.709 220.761C144.732 218.338 147.282 215.815 150.019 215.858C151.617 215.897 152.765 216.793 153.872 217.661L154.224 217.935C155.657 219.04 156.705 219.878 157.965 220.931C158.194 221.122 158.225 221.463 158.034 221.692C157.843 221.924 157.505 221.952 157.273 221.761C156.026 220.718 154.987 219.888 153.567 218.793L153.208 218.513C152.195 217.719 151.238 216.968 149.996 216.943C147.776 216.943 145.592 219.083 144.704 221.183C144.477 221.72 144.348 222.263 144.317 222.792C144.236 224.261 144.88 225.785 146.341 227.595C147.949 229.586 149.795 231.388 151.828 232.956C155.16 235.527 157.968 236.995 160.663 237.581C162.267 237.927 163.782 237.871 165.044 237.415C165.693 237.181 166.597 236.723 167.208 235.865C168.401 234.19 167.541 232.284 166.923 231.296L166.783 231.077C166.693 230.935 166.653 230.874 166.485 230.645C166.307 230.405 166.357 230.067 166.599 229.889C166.841 229.713 167.177 229.761 167.355 230.003C167.546 230.263 167.594 230.334 167.696 230.499L167.834 230.716C169.155 232.826 169.241 234.875 168.086 236.496C167.472 237.352 166.546 238.024 165.408 238.433C164.571 238.734 163.647 238.887 162.672 238.887V238.884Z" fill="black"/>
<path d="M159.663 244.069C159.322 244.069 158.973 244.054 158.619 244.02C155.707 243.748 152.6 242.577 148.843 240.345C146.559 238.988 144.442 237.367 142.548 235.529C141.369 234.384 139.786 232.599 139.638 230.298C139.595 229.644 139.674 228.967 139.868 228.285C140.321 226.714 141.321 224.615 143.528 223.525C143.795 223.39 144.121 223.502 144.253 223.769C144.386 224.039 144.276 224.363 144.009 224.495C142.156 225.411 141.301 227.224 140.909 228.583C140.748 229.143 140.685 229.698 140.72 230.227C140.814 231.696 141.637 233.134 143.306 234.753C145.139 236.532 147.188 238.1 149.4 239.413C153.014 241.564 155.98 242.687 158.726 242.944C160.358 243.099 161.855 242.857 163.053 242.254C163.672 241.943 164.514 241.378 165.016 240.457C165.515 239.543 165.589 238.874 165.286 237.988C165.189 237.705 165.339 237.397 165.622 237.303C165.904 237.204 166.212 237.357 166.306 237.639C166.711 238.823 166.612 239.79 165.965 240.976C165.461 241.9 164.624 242.677 163.54 243.224C162.425 243.784 161.101 244.071 159.668 244.071L159.663 244.069Z" fill="black"/>
<path d="M158.327 254.123C158.078 254.123 157.851 253.947 157.798 253.695L156.26 246.482C153.674 245.746 151.981 243.921 150.126 241.243C149.958 240.999 150.016 240.66 150.263 240.49C150.51 240.324 150.846 240.38 151.017 240.627C152.803 243.211 154.405 244.929 156.848 245.517C157.052 245.565 157.207 245.726 157.25 245.929L158.856 253.469C158.917 253.761 158.732 254.049 158.439 254.113C158.401 254.12 158.363 254.125 158.324 254.125L158.327 254.123Z" fill="black"/>
<path d="M177.463 240.569C177.17 240.569 176.928 240.335 176.92 240.04C176.915 239.793 176.493 215.087 187.122 198.756C197.838 182.29 221.61 184.471 221.846 184.497C222.144 184.527 222.36 184.792 222.33 185.09C222.299 185.385 222.065 185.612 221.737 185.574C221.51 185.551 198.38 183.441 188.028 199.347C177.58 215.403 177.995 239.772 178.002 240.017C178.007 240.314 177.773 240.564 177.473 240.572H177.46L177.463 240.569Z" fill="black"/>
<path d="M285 209.164C284.773 209.164 284.562 209.019 284.486 208.793C283.396 205.499 279.611 199.398 279.573 199.336C269.219 183.428 247.891 185.431 247.677 185.454C247.374 185.482 247.114 185.268 247.084 184.97C247.053 184.673 247.27 184.408 247.568 184.377C247.792 184.352 269.768 182.282 280.489 198.756C280.655 199.021 284.386 205.038 285.514 208.454C285.608 208.737 285.456 209.042 285.17 209.136C285.114 209.154 285.056 209.164 285 209.164Z" fill="black"/>
<path d="M119.441 183.644C117.336 183.644 115.623 181.931 115.623 179.826C115.623 177.721 117.336 176.008 119.441 176.008C121.546 176.008 123.259 177.721 123.259 179.826C123.259 181.931 121.546 183.644 119.441 183.644ZM119.441 177.092C117.932 177.092 116.707 178.319 116.707 179.826C116.707 181.333 117.932 182.56 119.441 182.56C120.951 182.56 122.175 181.335 122.175 179.826C122.175 178.316 120.951 177.092 119.441 177.092Z" fill="white"/>
<path d="M204.126 204.847C202.173 204.847 200.58 203.256 200.58 201.301C200.58 199.346 202.171 197.755 204.126 197.755C206.081 197.755 207.671 199.346 207.671 201.301C207.671 203.256 206.081 204.847 204.126 204.847ZM204.126 198.84C202.769 198.84 201.664 199.944 201.664 201.301C201.664 202.658 202.769 203.765 204.126 203.765C205.482 203.765 206.59 202.66 206.59 201.301C206.59 199.942 205.485 198.84 204.126 198.84Z" fill="white"/>
<path d="M132.127 217.887C130.226 217.887 128.485 217.177 126.955 215.774C126.736 215.571 126.721 215.23 126.922 215.008C127.128 214.787 127.469 214.774 127.688 214.975C129.012 216.189 130.506 216.803 132.13 216.803C132.137 216.803 132.397 216.8 132.397 216.8C132.654 216.767 132.942 217.034 132.949 217.332C132.954 217.63 132.718 217.877 132.417 217.884H132.137C132.137 217.884 132.132 217.887 132.13 217.887H132.127ZM137.704 216.258C137.528 216.258 137.353 216.169 137.251 216.011C137.088 215.761 137.159 215.426 137.411 215.263C138.753 214.39 140 213.137 141.217 211.434C141.392 211.19 141.731 211.137 141.973 211.31C142.217 211.485 142.273 211.821 142.097 212.066C140.799 213.878 139.46 215.222 138.002 216.171C137.913 216.23 137.808 216.26 137.707 216.26L137.704 216.258ZM124.127 211.317C123.926 211.317 123.73 211.203 123.638 211.009C122.908 209.477 122.246 207.667 121.671 205.631C121.589 205.343 121.757 205.043 122.045 204.961C122.335 204.885 122.633 205.048 122.714 205.336C123.272 207.313 123.911 209.065 124.616 210.543C124.743 210.813 124.628 211.137 124.361 211.266C124.285 211.302 124.206 211.32 124.127 211.32V211.317ZM144.528 207.448C144.444 207.448 144.36 207.428 144.279 207.387C144.014 207.25 143.91 206.924 144.047 206.657C144.516 205.751 144.969 204.829 145.422 203.915C145.803 203.139 146.183 202.37 146.567 201.617C146.707 201.35 147.035 201.25 147.295 201.38C147.562 201.518 147.667 201.843 147.532 202.108C147.15 202.859 146.771 203.623 146.391 204.394C145.938 205.313 145.48 206.239 145.009 207.153C144.913 207.339 144.724 207.446 144.528 207.446V207.448ZM120.945 200.522C120.688 200.522 120.459 200.336 120.411 200.077C120.095 198.323 119.823 196.432 119.594 194.454C119.561 194.159 119.772 193.889 120.072 193.856C120.375 193.838 120.637 194.037 120.67 194.334C120.892 196.289 121.164 198.158 121.477 199.886C121.531 200.181 121.332 200.461 121.039 200.515C121.006 200.52 120.973 200.522 120.943 200.522H120.945ZM119.647 189.305C119.362 189.305 119.125 189.083 119.108 188.796C118.909 185.576 118.901 183.346 118.901 183.102C118.901 182.801 119.143 182.56 119.444 182.56C119.744 182.56 119.986 182.801 119.986 183.102C119.986 183.341 119.991 185.543 120.189 188.73C120.207 189.027 119.981 189.284 119.683 189.302C119.67 189.302 119.66 189.302 119.65 189.302L119.647 189.305Z" fill="black"/>
<path d="M189.247 234.114C187.723 234.114 186.216 233.63 184.765 232.681C184.516 232.518 184.444 232.182 184.61 231.932C184.773 231.683 185.109 231.612 185.358 231.777C187.002 232.851 188.713 233.174 190.314 232.958C190.599 232.899 190.884 233.121 190.925 233.416C190.968 233.711 190.762 233.986 190.467 234.027C190.07 234.086 189.665 234.114 189.247 234.114ZM195.285 231.492C195.142 231.492 195.002 231.436 194.896 231.326C194.689 231.113 194.694 230.769 194.908 230.56C196.049 229.458 197.11 227.969 198.065 226.134C198.202 225.869 198.528 225.767 198.795 225.905C199.06 226.042 199.162 226.368 199.024 226.635C198.016 228.572 196.884 230.156 195.662 231.339C195.557 231.441 195.422 231.492 195.285 231.492ZM181.082 228.827C180.919 228.827 180.756 228.753 180.649 228.611C179.636 227.269 178.636 225.691 177.584 223.792C177.439 223.53 177.536 223.202 177.798 223.056C178.05 222.914 178.386 223.006 178.534 223.27C179.557 225.123 180.532 226.658 181.512 227.961C181.69 228.201 181.644 228.539 181.405 228.717C181.308 228.791 181.194 228.827 181.079 228.827H181.082ZM200.699 221.72C200.643 221.72 200.584 221.71 200.528 221.692C200.243 221.598 200.091 221.293 200.185 221.01C200.727 219.366 201.223 217.551 201.656 215.616C201.72 215.326 202.002 215.145 202.303 215.207C202.593 215.273 202.776 215.563 202.712 215.853C202.27 217.821 201.766 219.671 201.211 221.349C201.137 221.578 200.926 221.72 200.699 221.72ZM175.51 219.04C175.306 219.04 175.113 218.925 175.021 218.729C174.227 217.049 173.453 215.316 172.687 213.578C172.565 213.303 172.69 212.984 172.962 212.865C173.237 212.738 173.555 212.867 173.675 213.14C174.436 214.871 175.207 216.594 175.999 218.264C176.126 218.533 176.011 218.857 175.742 218.984C175.665 219.02 175.586 219.037 175.51 219.037V219.04ZM203.211 210.722C202.835 210.671 202.634 210.396 202.677 210.101C203.16 206.848 203.308 204.541 203.311 204.518C203.331 204.223 203.555 204.025 203.883 204.012C204.181 204.03 204.408 204.287 204.39 204.585C204.39 204.608 204.24 206.957 203.746 210.258C203.705 210.528 203.476 210.722 203.211 210.722ZM170.905 208.741C170.699 208.741 170.501 208.622 170.412 208.421C169.485 206.341 168.734 204.72 168.044 203.325C167.912 203.057 168.021 202.732 168.291 202.599C168.553 202.469 168.882 202.579 169.017 202.846C169.712 204.254 170.468 205.885 171.399 207.98C171.521 208.253 171.399 208.573 171.124 208.695C171.053 208.729 170.979 208.744 170.905 208.744V208.741ZM165.815 198.684C165.636 198.684 165.461 198.595 165.356 198.433C165.082 197.995 164.802 197.58 164.522 197.185C164.346 196.941 164.404 196.602 164.646 196.429C164.893 196.254 165.229 196.312 165.402 196.554C165.695 196.964 165.985 197.397 166.27 197.85C166.431 198.104 166.354 198.438 166.102 198.595C166.013 198.654 165.914 198.679 165.812 198.679L165.815 198.684Z" fill="black"/>
<path d="M353.584 297C353.472 297 353.359 296.967 353.257 296.897C352.99 296.713 352.919 296.345 353.1 296.075L374.932 263.259C375.116 262.989 375.479 262.919 375.743 263.101C376.009 263.284 376.081 263.649 375.9 263.923L354.068 296.738C353.956 296.908 353.771 297 353.584 297Z" fill="white"/>
<path d="M381.59 297C381.443 297 381.299 296.947 381.186 296.836C380.948 296.613 380.937 296.237 381.161 296L396.592 279.542L381.172 264.01C380.943 263.779 380.943 263.403 381.172 263.171C381.399 262.943 381.775 262.943 382.005 263.171L397.828 279.111C398.052 279.336 398.058 279.704 397.84 279.935L382.016 296.811C381.899 296.936 381.745 296.997 381.59 296.997V297Z" fill="white"/>
<path d="M380.877 89.3298H248.825C248.525 89.3298 248.283 89.088 248.283 88.7877C248.283 88.4873 248.525 88.248 248.825 88.248H380.877C381.177 88.248 381.419 88.4899 381.419 88.7877C381.419 89.0855 381.177 89.3298 380.877 89.3298Z" fill="black"/>
<path d="M375.178 84.9443C373.427 84.9443 372.004 83.5214 372.004 81.7727C372.004 80.024 373.427 78.5986 375.178 78.5986C376.929 78.5986 378.352 80.0215 378.352 81.7727C378.352 83.5239 376.929 84.9443 375.178 84.9443ZM375.178 79.6804C374.025 79.6804 373.088 80.6197 373.088 81.7727C373.088 82.9258 374.025 83.8625 375.178 83.8625C376.331 83.8625 377.268 82.9258 377.268 81.7727C377.268 80.6197 376.331 79.6804 375.178 79.6804Z" fill="black"/>
<path d="M363.24 84.9443C361.488 84.9443 360.065 83.5214 360.065 81.7727C360.065 80.024 361.488 78.5986 363.24 78.5986C364.991 78.5986 366.414 80.0215 366.414 81.7727C366.414 83.5239 364.991 84.9443 363.24 84.9443ZM363.24 79.6804C362.086 79.6804 361.15 80.6197 361.15 81.7727C361.15 82.9258 362.086 83.8625 363.24 83.8625C364.393 83.8625 365.329 82.9258 365.329 81.7727C365.329 80.6197 364.393 79.6804 363.24 79.6804Z" fill="black"/>
<path d="M351.302 84.9443C349.554 84.9443 348.131 83.5214 348.131 81.7727C348.131 80.024 349.554 78.5986 351.302 78.5986C353.051 78.5986 354.476 80.0215 354.476 81.7727C354.476 83.5239 353.054 84.9443 351.302 84.9443ZM351.302 79.6804C350.149 79.6804 349.213 80.6197 349.213 81.7727C349.213 82.9258 350.149 83.8625 351.302 83.8625C352.455 83.8625 353.392 82.9258 353.392 81.7727C353.392 80.6197 352.455 79.6804 351.302 79.6804Z" fill="black"/>
<path d="M226.505 130.275C226.352 130.275 226.202 130.211 226.095 130.087C225.764 129.702 218.006 120.582 220.831 114.43C222.412 110.984 226.963 109.235 234.357 109.235C241.751 109.235 246.272 110.968 247.817 114.384C250.579 120.496 242.701 129.557 242.362 129.939C242.164 130.163 241.823 130.186 241.599 129.987C241.375 129.791 241.352 129.448 241.55 129.224C241.629 129.135 249.309 120.305 246.829 114.827C245.475 111.834 241.278 110.314 234.357 110.314C227.436 110.314 223.206 111.849 221.816 114.878C219.281 120.401 226.841 129.29 226.917 129.379C227.11 129.606 227.088 129.947 226.858 130.143C226.757 130.229 226.632 130.272 226.507 130.272L226.505 130.275Z" fill="black"/>
<path d="M366.445 197.873C366.266 197.873 366.088 197.85 365.913 197.804C365.365 197.661 364.905 197.315 364.62 196.829L354.616 179.861C354.326 179.373 353.692 179.207 353.204 179.497L346.321 183.552C345.677 183.932 344.903 183.944 344.246 183.596C343.587 183.239 343.172 182.582 343.137 181.837L341.67 151.941C341.632 151.155 342.032 150.417 342.709 150.014C343.386 149.615 344.226 149.625 344.895 150.037L370.347 165.791C370.98 166.183 371.357 166.865 371.35 167.611C371.342 168.359 370.953 169.031 370.309 169.41L364.07 173.088C363.581 173.378 363.416 174.012 363.703 174.503L373.707 191.471C373.994 191.957 374.073 192.527 373.933 193.075C373.793 193.622 373.447 194.08 372.961 194.365L367.516 197.577C367.188 197.771 366.819 197.873 366.447 197.873H366.445ZM353.723 178.276C354.448 178.276 355.153 178.647 355.548 179.314L365.551 196.282C365.691 196.518 365.918 196.689 366.185 196.758C366.45 196.826 366.727 196.788 366.966 196.648L372.414 193.436C372.65 193.296 372.821 193.072 372.887 192.805C372.956 192.537 372.918 192.26 372.778 192.021L362.774 175.053C362.184 174.05 362.52 172.75 363.52 172.159L369.759 168.481C370.072 168.295 370.263 167.967 370.268 167.603C370.27 167.236 370.087 166.905 369.779 166.715L344.328 150.961C343.994 150.755 343.597 150.75 343.259 150.949C342.923 151.147 342.732 151.498 342.75 151.888L344.216 181.783C344.234 182.15 344.435 182.47 344.758 182.644C345.079 182.817 345.455 182.809 345.771 182.623L352.654 178.568C352.99 178.37 353.359 178.276 353.723 178.276Z" fill="black"/>
<path d="M279.214 119.806H257.153C256.853 119.806 256.611 119.564 256.611 119.266V97.2056C256.611 96.9078 256.853 96.666 257.153 96.666H279.214C279.515 96.666 279.756 96.9078 279.756 97.2056V119.266C279.756 119.564 279.515 119.806 279.214 119.806ZM257.696 118.724H278.672V97.7453H257.696V118.724Z" fill="black"/>
<path d="M275.457 150.74H260.91C260.61 150.74 260.368 150.498 260.368 150.2V135.653C260.368 135.356 260.61 135.114 260.91 135.114H275.457C275.758 135.114 275.999 135.356 275.999 135.653V150.2C275.999 150.498 275.758 150.74 275.457 150.74ZM261.45 149.658H274.915V136.193H261.45V149.658Z" fill="black"/>
<path d="M370.242 100.856H303.405C303.105 100.856 302.863 100.614 302.863 100.316C302.863 100.018 303.105 99.7764 303.405 99.7764H370.242C370.542 99.7764 370.784 100.018 370.784 100.316C370.784 100.614 370.542 100.856 370.242 100.856Z" fill="black"/>
<path d="M370.242 117.871H303.405C303.105 117.871 302.863 117.629 302.863 117.332C302.863 117.034 303.105 116.792 303.405 116.792H370.242C370.542 116.792 370.784 117.034 370.784 117.332C370.784 117.629 370.542 117.871 370.242 117.871Z" fill="black"/>
<path d="M370.242 134.887H303.405C303.105 134.887 302.863 134.646 302.863 134.348C302.863 134.05 303.105 133.808 303.405 133.808H370.242C370.542 133.808 370.784 134.05 370.784 134.348C370.784 134.646 370.542 134.887 370.242 134.887Z" fill="black"/>
<path d="M156.79 202.215C151.371 202.215 146.962 197.806 146.962 192.387C146.962 186.968 151.371 182.56 156.79 182.56C162.209 182.56 166.617 186.968 166.617 192.387C166.617 197.806 162.209 202.215 156.79 202.215ZM156.79 183.646C151.966 183.646 148.044 187.569 148.044 192.39C148.044 197.211 151.966 201.133 156.79 201.133C161.613 201.133 165.533 197.211 165.533 192.39C165.533 187.569 161.611 183.646 156.79 183.646Z" fill="black"/>
<path d="M234.25 183.644C224.051 183.644 223.313 178.81 223.285 178.607C223.247 178.311 223.455 178.039 223.753 178.001C224.066 177.957 224.316 178.169 224.359 178.464C224.369 178.533 225.125 182.562 234.25 182.562C243.375 182.562 243.854 178.538 243.859 178.497C243.887 178.202 244.154 178.003 244.442 178.003C244.737 178.026 244.961 178.281 244.941 178.576C244.928 178.785 244.483 183.646 234.253 183.646L234.25 183.644Z" fill="black"/>
<path d="M224.256 187.039C224.18 187.039 224.104 187.021 224.032 186.988C220.27 185.263 218.025 182.356 218.025 179.212C218.025 177.375 219.084 174.804 224.132 172.984C224.404 172.879 224.722 173.027 224.824 173.31C224.926 173.59 224.778 173.9 224.498 174.002C220.922 175.29 219.11 177.044 219.11 179.21C219.11 181.918 221.118 184.458 224.483 186.003C224.755 186.128 224.875 186.449 224.748 186.719C224.659 186.917 224.463 187.034 224.256 187.034V187.039Z" fill="black"/>
<path d="M234.762 188.946C233.214 188.946 231.74 188.859 230.381 188.689C230.086 188.651 229.874 188.381 229.913 188.086C229.948 187.79 230.203 187.561 230.516 187.617C231.832 187.783 233.257 187.864 234.762 187.864C244.928 187.864 250.416 183.407 250.416 179.215C250.416 177.039 248.346 175.127 244.582 173.837C244.299 173.74 244.149 173.432 244.246 173.149C244.342 172.869 244.645 172.717 244.933 172.813C249.166 174.264 251.497 176.537 251.497 179.215C251.497 183.931 245.633 188.948 234.762 188.948V188.946Z" fill="black"/>
<path d="M221.676 193.627C221.337 193.602 221.114 193.342 221.136 193.044C221.595 186.968 220.515 184.609 220.503 184.586C220.375 184.316 220.487 183.993 220.757 183.866C221.027 183.736 221.345 183.845 221.477 184.115C221.528 184.217 222.699 186.696 222.218 193.126C222.195 193.411 221.959 193.627 221.679 193.627H221.676Z" fill="black"/>
<path d="M247.542 193.627C247.262 193.627 247.025 193.41 247.002 193.125C246.519 186.693 247.692 184.275 247.743 184.176C247.878 183.911 248.206 183.799 248.469 183.936C248.733 184.071 248.84 184.395 248.708 184.659C248.69 184.7 247.623 187.001 248.079 193.044C248.102 193.342 247.878 193.601 247.58 193.624C247.567 193.624 247.552 193.624 247.539 193.624L247.542 193.627Z" fill="black"/>
<path d="M147.56 51.6456C147.341 51.6456 147.135 51.5132 147.053 51.2943L135.472 20.3756C135.367 20.0956 135.51 19.7851 135.787 19.6782C136.067 19.5764 136.38 19.7164 136.482 19.9964L148.064 50.9151C148.168 51.1951 148.026 51.5056 147.748 51.6125C147.684 51.6354 147.621 51.6456 147.56 51.6456Z" fill="black"/>
<path d="M103.739 147.357C103.601 147.357 103.464 147.306 103.357 147.202C103.146 146.993 103.143 146.65 103.354 146.436L137.872 111.549C138.081 111.335 138.422 111.332 138.638 111.546C138.85 111.755 138.852 112.099 138.641 112.312L104.123 147.199C104.019 147.306 103.879 147.36 103.739 147.36V147.357Z" fill="black"/>
<path d="M202.249 128.32C202.125 128.32 202 128.28 201.898 128.193L183.184 112.343C182.958 112.15 182.93 111.808 183.121 111.579C183.312 111.35 183.655 111.32 183.884 111.516L202.598 127.366C202.825 127.559 202.853 127.9 202.662 128.129C202.555 128.257 202.402 128.32 202.249 128.32Z" fill="black"/>
<path d="M194.631 70.3927C194.443 70.3927 194.262 70.296 194.163 70.1203C194.015 69.8607 194.105 69.5298 194.362 69.3822L215.325 57.3705C215.585 57.2229 215.916 57.312 216.064 57.5716C216.211 57.8312 216.122 58.1621 215.862 58.3098L194.899 70.3214C194.815 70.3698 194.721 70.3927 194.629 70.3927H194.631Z" fill="black"/>
<path d="M201.654 168.957H179.026C178.725 168.957 178.483 168.716 178.483 168.415C178.483 168.115 178.725 167.873 179.026 167.873H201.654C201.954 167.873 202.196 168.115 202.196 168.415C202.196 168.716 201.954 168.957 201.654 168.957Z" fill="black"/>
<path d="M201.654 174.776H191.096C190.796 174.776 190.554 174.534 190.554 174.234C190.554 173.933 190.796 173.691 191.096 173.691H201.654C201.954 173.691 202.196 173.933 202.196 174.234C202.196 174.534 201.954 174.776 201.654 174.776Z" fill="black"/>
<path d="M187.575 174.776H181.528C181.227 174.776 180.985 174.534 180.985 174.234C180.985 173.933 181.227 173.691 181.528 173.691H187.575C187.876 173.691 188.117 173.933 188.117 174.234C188.117 174.534 187.876 174.776 187.575 174.776Z" fill="black"/>
<path d="M120.996 90.7224H106.689C106.388 90.7224 106.146 90.4806 106.146 90.1828C106.146 89.885 106.388 89.6406 106.689 89.6406H120.996C121.297 89.6406 121.538 89.8824 121.538 90.1828C121.538 90.4831 121.297 90.7224 120.996 90.7224Z" fill="black"/>
<path d="M257.153 17.6853C252.279 17.6853 248.311 13.7196 248.311 8.84265C248.311 3.9657 252.276 0 257.153 0C262.03 0 265.998 3.96825 265.998 8.84265C265.998 13.717 262.03 17.6853 257.153 17.6853ZM257.153 1.08179C252.874 1.08179 249.392 4.56386 249.392 8.84265C249.392 13.1214 252.872 16.6035 257.153 16.6035C261.435 16.6035 264.914 13.1214 264.914 8.84265C264.914 4.56386 261.432 1.08179 257.153 1.08179Z" fill="black"/>
<path d="M38.0194 144.85C33.1425 144.85 29.1768 140.882 29.1768 136.007C29.1768 131.133 33.145 127.165 38.0194 127.165C42.8938 127.165 46.862 131.13 46.862 136.007C46.862 140.884 42.8938 144.85 38.0194 144.85ZM38.0194 128.246C33.7406 128.246 30.2585 131.728 30.2585 136.007C30.2585 140.286 33.7406 143.768 38.0194 143.768C42.2982 143.768 45.7803 140.286 45.7803 136.007C45.7803 131.728 42.2982 128.246 38.0194 128.246Z" fill="black"/>
<path d="M321.735 65.2992C321.47 65.2992 321.236 65.1057 321.2 64.8334C321.012 63.52 320.646 61.4048 319.951 58.7856C319.874 58.4954 320.047 58.2001 320.335 58.1238C320.635 58.055 320.92 58.2205 320.997 58.5081C321.704 61.1808 322.081 63.3392 322.27 64.6807C322.313 64.9759 322.107 65.2508 321.811 65.2916C321.786 65.2941 321.76 65.2966 321.735 65.2966V65.2992ZM318.584 53.2494C318.365 53.2494 318.159 53.1145 318.077 52.8981C317.357 50.9738 316.537 49.0622 315.639 47.2219C315.506 46.9546 315.618 46.6314 315.888 46.499C316.158 46.3692 316.481 46.4787 316.611 46.7485C317.525 48.6193 318.36 50.5614 319.09 52.5188C319.195 52.7988 319.052 53.1094 318.775 53.2163C318.711 53.2392 318.647 53.2494 318.586 53.2494H318.584ZM313.124 42.0675C312.943 42.0675 312.765 41.9759 312.663 41.8104C311.584 40.0592 310.413 38.3462 309.174 36.7197C308.993 36.483 309.039 36.1419 309.275 35.9612C309.512 35.783 309.853 35.8263 310.034 36.0655C311.294 37.72 312.488 39.4611 313.585 41.2428C313.742 41.4974 313.664 41.8308 313.409 41.9861C313.32 42.0421 313.221 42.0675 313.124 42.0675ZM305.597 32.1736C305.452 32.1736 305.307 32.1151 305.2 32.0031C303.805 30.5064 302.319 29.0581 300.781 27.7014C300.557 27.5054 300.537 27.1618 300.733 26.9378C300.932 26.7138 301.275 26.6909 301.497 26.8894C303.062 28.269 304.577 29.7428 305.994 31.2649C306.198 31.4838 306.185 31.8275 305.966 32.0311C305.862 32.1278 305.73 32.1762 305.597 32.1762V32.1736ZM296.286 23.9495C296.177 23.9495 296.065 23.9164 295.968 23.8477C294.324 22.6539 292.588 21.5136 290.814 20.4573C290.557 20.3045 290.473 19.9711 290.625 19.7166C290.778 19.4595 291.114 19.378 291.366 19.5282C293.168 20.6023 294.932 21.7605 296.604 22.9721C296.844 23.1477 296.9 23.4863 296.724 23.7281C296.617 23.8757 296.454 23.9521 296.286 23.9521V23.9495ZM285.614 17.5835C285.535 17.5835 285.453 17.5657 285.379 17.5301C283.554 16.6468 281.65 15.8145 279.721 15.0585C279.441 14.9491 279.304 14.636 279.413 14.3585C279.522 14.0811 279.838 13.9436 280.113 14.0531C282.07 14.8192 284.002 15.6618 285.85 16.5577C286.12 16.6876 286.232 17.0108 286.102 17.2806C286.008 17.4741 285.815 17.5861 285.614 17.5861V17.5835ZM274.045 13.0451C273.991 13.0451 273.938 13.0375 273.884 13.0222C271.96 12.424 269.954 11.8742 267.923 11.3881C267.633 11.3168 267.455 11.0266 267.524 10.7365C267.592 10.4463 267.88 10.2656 268.178 10.3368C270.232 10.8306 272.258 11.3855 274.208 11.9888C274.493 12.0779 274.653 12.3808 274.564 12.6659C274.493 12.8975 274.279 13.0477 274.047 13.0477L274.045 13.0451Z" fill="black"/>
<path d="M172.171 51.2385C172.092 51.2385 172.016 51.2232 171.942 51.1876C171.672 51.0603 171.555 50.7396 171.682 50.4672C171.723 50.3782 172.718 48.2757 174.833 44.9845C174.996 44.7325 175.327 44.6638 175.582 44.8216C175.831 44.9845 175.905 45.3179 175.745 45.5699C173.673 48.7949 172.672 50.9076 172.662 50.928C172.571 51.124 172.377 51.2385 172.174 51.2385H172.171ZM178.865 40.7083C178.751 40.7083 178.636 40.6726 178.54 40.5988C178.3 40.4181 178.254 40.0796 178.435 39.8403C179.693 38.1807 181.029 36.544 182.403 34.9837C182.599 34.7597 182.946 34.7394 183.167 34.9353C183.391 35.1339 183.411 35.475 183.215 35.699C181.856 37.2415 180.538 38.8552 179.296 40.4945C179.189 40.6345 179.026 40.7083 178.863 40.7083H178.865ZM187.092 31.3565C186.952 31.3565 186.812 31.3031 186.705 31.1936C186.496 30.9798 186.499 30.6388 186.713 30.4275C188.202 28.9639 189.762 27.5436 191.345 26.2022C191.572 26.0087 191.913 26.0393 192.106 26.2658C192.3 26.4949 192.269 26.836 192.043 27.0294C190.48 28.353 188.943 29.7555 187.471 31.2013C187.367 31.3056 187.229 31.3565 187.092 31.3565ZM196.602 23.3233C196.434 23.3233 196.268 23.2444 196.164 23.0993C195.988 22.8575 196.044 22.519 196.286 22.3434C197.979 21.1216 199.735 19.9533 201.509 18.874C201.764 18.7162 202.097 18.7977 202.252 19.0547C202.408 19.3093 202.326 19.6427 202.072 19.798C200.323 20.862 198.59 22.015 196.92 23.219C196.826 23.2877 196.714 23.3208 196.604 23.3208L196.602 23.3233ZM207.231 16.8606C207.033 16.8606 206.844 16.7512 206.747 16.5628C206.613 16.2955 206.719 15.9723 206.987 15.8374C208.845 14.9032 210.767 14.0302 212.693 13.2487C212.971 13.1367 213.287 13.2691 213.399 13.5465C213.513 13.824 213.378 14.1396 213.101 14.2516C211.199 15.0229 209.306 15.8806 207.473 16.8046C207.394 16.8428 207.313 16.8632 207.229 16.8632L207.231 16.8606ZM218.751 12.1873C218.522 12.1873 218.309 12.0397 218.235 11.808C218.146 11.523 218.303 11.2201 218.589 11.1284C220.566 10.5074 222.603 9.95501 224.636 9.4892C224.937 9.42302 225.219 9.60629 225.285 9.89646C225.352 10.1866 225.168 10.4768 224.878 10.5455C222.875 11.0037 220.869 11.5484 218.917 12.1618C218.863 12.1797 218.807 12.1873 218.754 12.1873H218.751ZM230.867 9.4052C230.603 9.4052 230.374 9.2143 230.333 8.94449C230.29 8.64923 230.493 8.37433 230.789 8.32851C232.825 8.02306 234.92 7.78889 237.009 7.63362C237.297 7.59544 237.567 7.83471 237.59 8.13251C237.613 8.43032 237.389 8.68995 237.091 8.71286C235.027 8.86813 232.96 9.09976 230.949 9.40011C230.921 9.4052 230.895 9.4052 230.87 9.4052H230.867ZM245.85 8.48887C245.144 8.47359 244.457 8.46596 243.773 8.46596H243.266C242.907 8.50159 242.724 8.22924 242.721 7.92888C242.721 7.63107 242.961 7.38672 243.261 7.38672H243.773C244.462 7.38672 245.16 7.39181 245.862 7.40963C246.163 7.41726 246.399 7.66417 246.392 7.96197C246.384 8.25724 246.142 8.48887 245.85 8.48887Z" fill="black"/>
<path d="M89.7464 216.976C89.698 216.976 89.6471 216.968 89.5962 216.953C89.1762 216.831 88.7562 216.706 88.3388 216.576C88.0537 216.487 87.8933 216.184 87.9824 215.899C88.069 215.614 88.3668 215.449 88.6595 215.543C89.0718 215.67 89.4842 215.795 89.8966 215.914C90.1816 215.998 90.3496 216.296 90.2656 216.584C90.1969 216.821 89.9805 216.976 89.7464 216.976ZM82.6575 214.448C82.5862 214.448 82.515 214.433 82.4462 214.405C80.5499 213.598 78.6485 212.679 76.798 211.671C76.5359 211.526 76.4391 211.198 76.5817 210.936C76.7242 210.674 77.0526 210.579 77.3173 210.719C79.1398 211.712 81.0081 212.616 82.8713 213.41C83.1462 213.527 83.2735 213.845 83.1564 214.12C83.0673 214.326 82.8688 214.451 82.6575 214.451V214.448ZM71.7327 208.507C71.6284 208.507 71.524 208.477 71.4324 208.416C69.7142 207.263 68.0139 206.01 66.3849 204.689C66.1533 204.501 66.1176 204.16 66.306 203.928C66.4943 203.694 66.8329 203.661 67.0671 203.849C68.6706 205.148 70.343 206.382 72.0382 207.515C72.2876 207.683 72.3538 208.019 72.1858 208.266C72.0814 208.421 71.9109 208.505 71.7353 208.505L71.7327 208.507ZM62.0578 200.691C61.9228 200.691 61.7879 200.64 61.681 200.538C60.1844 199.097 58.7284 197.57 57.3539 196.002C57.1554 195.778 57.1783 195.434 57.4023 195.238C57.6262 195.037 57.9699 195.063 58.1659 195.287C59.5226 196.834 60.9556 198.336 62.4319 199.756C62.6483 199.963 62.6534 200.304 62.4446 200.523C62.3403 200.632 62.1977 200.688 62.0552 200.688L62.0578 200.691ZM53.8591 191.339C53.6911 191.339 53.5282 191.262 53.4238 191.12C52.1842 189.437 51.0032 187.686 49.9163 185.92C49.7585 185.665 49.8374 185.332 50.0919 185.176C50.349 185.021 50.6799 185.098 50.8352 185.355C51.9068 187.096 53.07 188.819 54.2918 190.476C54.47 190.715 54.4191 191.054 54.1773 191.232C54.0805 191.303 53.9685 191.339 53.8565 191.339H53.8591ZM47.3429 180.742C47.1444 180.742 46.9535 180.633 46.8593 180.445C45.9328 178.607 45.0572 176.688 44.2579 174.743C44.1434 174.468 44.2757 174.15 44.5532 174.038C44.8306 173.923 45.1437 174.056 45.2583 174.333C46.0473 176.25 46.9102 178.144 47.8265 179.958C47.9614 180.226 47.8545 180.552 47.5873 180.684C47.5084 180.725 47.4269 180.742 47.3455 180.742H47.3429ZM42.6085 169.237C42.382 169.237 42.1682 169.092 42.0943 168.863C41.4529 166.903 40.8675 164.88 40.3559 162.846C40.282 162.556 40.4577 162.263 40.7478 162.189C41.0355 162.105 41.3307 162.294 41.4046 162.581C41.9111 164.589 42.4889 166.59 43.1227 168.527C43.2143 168.81 43.059 169.115 42.7765 169.209C42.7205 169.227 42.6645 169.237 42.6085 169.237ZM39.5617 157.17C39.3046 157.17 39.0781 156.986 39.0297 156.724C38.6581 154.683 38.3501 152.601 38.1108 150.529C38.0777 150.231 38.289 149.964 38.5868 149.931C38.8795 149.895 39.1519 150.109 39.185 150.407C39.4192 152.453 39.7246 154.515 40.0937 156.531C40.1471 156.824 39.9511 157.106 39.6584 157.16C39.6253 157.165 39.5922 157.167 39.5617 157.167V157.17Z" fill="black"/>
<path d="M39.315 124.591C39.2844 124.591 39.2539 124.591 39.2233 124.583C38.9281 124.532 38.7295 124.252 38.7804 123.96C39.1342 121.89 39.5644 119.826 40.0582 117.828C40.1295 117.538 40.4247 117.365 40.7124 117.431C41.0025 117.502 41.1807 117.797 41.1094 118.085C40.6207 120.06 40.1957 122.099 39.8469 124.143C39.8011 124.405 39.572 124.594 39.315 124.594V124.591ZM42.3109 112.513C42.2549 112.513 42.1963 112.506 42.1403 112.485C41.8578 112.391 41.7025 112.086 41.7967 111.8C42.4585 109.802 43.2017 107.827 44.0061 105.933C44.1232 105.658 44.4413 105.531 44.7162 105.648C44.9911 105.765 45.1184 106.084 45.0013 106.358C44.2097 108.227 43.4766 110.171 42.825 112.142C42.7487 112.368 42.5374 112.513 42.3109 112.513ZM47.1802 101.067C47.0936 101.067 47.0071 101.046 46.9282 101.003C46.6635 100.863 46.5642 100.535 46.7042 100.272C47.6943 98.4118 48.771 96.5944 49.9037 94.8763C50.0666 94.6268 50.4026 94.5555 50.6521 94.721C50.9015 94.8839 50.9702 95.2224 50.8073 95.4693C49.6925 97.162 48.6336 98.9489 47.6587 100.782C47.562 100.965 47.3736 101.069 47.1802 101.069V101.067ZM54.0272 90.6891C53.9076 90.6891 53.788 90.6509 53.6862 90.5695C53.4545 90.3811 53.4189 90.04 53.6047 89.8084C54.9258 88.1768 56.3359 86.6063 57.802 85.1376C58.0108 84.9238 58.3544 84.9264 58.5682 85.1376C58.7795 85.3489 58.7795 85.6925 58.5682 85.9038C57.1301 87.347 55.7428 88.8895 54.4472 90.4906C54.3403 90.6229 54.1851 90.6917 54.0272 90.6917V90.6891ZM62.8113 81.8923C62.6535 81.8923 62.4983 81.8236 62.3914 81.6912C62.203 81.4596 62.2386 81.1185 62.4703 80.9301C64.0738 79.632 65.7843 78.3924 67.5559 77.2495C67.8028 77.0917 68.1414 77.1604 68.3017 77.4099C68.4646 77.6619 68.3934 77.9953 68.1414 78.1582C66.4029 79.2807 64.7229 80.4974 63.1499 81.7727C63.0506 81.8541 62.931 81.8923 62.8088 81.8923H62.8113ZM73.2347 75.1368C73.0387 75.1368 72.8478 75.0299 72.7536 74.8441C72.6161 74.5794 72.7205 74.2536 72.9878 74.1161C74.8052 73.182 76.7244 72.3038 78.692 71.5046C78.9669 71.3926 79.285 71.525 79.397 71.8024C79.5116 72.0798 79.3767 72.3955 79.0992 72.5075C77.1622 73.294 75.2735 74.1594 73.4841 75.0783C73.4052 75.119 73.3187 75.1368 73.2372 75.1368H73.2347ZM84.75 70.4304C84.5209 70.4304 84.3071 70.2828 84.2358 70.0537C84.1442 69.7686 84.302 69.4657 84.5871 69.3741C86.5114 68.7607 88.54 68.188 90.6145 67.6738C90.9149 67.6 91.1974 67.7807 91.2687 68.0683C91.3425 68.3585 91.1643 68.6512 90.8741 68.7225C88.8226 69.2316 86.8168 69.7966 84.9129 70.405C84.8594 70.4228 84.8034 70.4304 84.75 70.4304ZM96.8329 67.4116C96.5783 67.4116 96.3493 67.2309 96.3009 66.9713C96.2449 66.6785 96.4383 66.3935 96.7311 66.3375C98.691 65.9633 100.765 65.6197 102.899 65.3117C103.201 65.2735 103.469 65.4746 103.512 65.7699C103.555 66.0651 103.349 66.34 103.054 66.3833C100.936 66.6887 98.8768 67.0298 96.9321 67.4014C96.8991 67.4091 96.8634 67.4116 96.8303 67.4116H96.8329ZM109.155 65.6171C108.88 65.6171 108.649 65.411 108.618 65.1335C108.585 64.8357 108.801 64.571 109.099 64.5379C111.168 64.3164 113.243 64.1255 115.315 63.9601C115.641 63.9194 115.872 64.1586 115.898 64.4564C115.921 64.7542 115.699 65.0139 115.401 65.0393C113.337 65.2048 111.273 65.3931 109.214 65.6146C109.196 65.6146 109.175 65.6146 109.155 65.6146V65.6171ZM121.571 64.6066C121.286 64.6066 121.05 64.3852 121.032 64.1001C121.014 63.8023 121.241 63.5452 121.541 63.5274C123.623 63.4001 125.697 63.2907 127.762 63.1914C128.126 63.1736 128.317 63.4077 128.329 63.7056C128.345 64.0034 128.116 64.2579 127.815 64.2706C125.756 64.3724 123.684 64.4793 121.604 64.6066C121.594 64.6066 121.582 64.6066 121.571 64.6066Z" fill="black"/>
</svg>
