<svg xmlns="http://www.w3.org/2000/svg" xmlns:xlink="http://www.w3.org/1999/xlink" width="60" height="60" viewBox="0 0 60 60">
  <defs>
    <clipPath id="clip-path">
      <rect id="Rectangle_69" data-name="Rectangle 69" width="28" height="28" transform="translate(13 13)" fill="#07ca8d"/>
    </clipPath>
  </defs>
  <g id="SiteLock2" transform="translate(3 3)">
    <rect id="Rectangle_27" data-name="Rectangle 27" width="60" height="60" rx="30" transform="translate(-3 -3)" fill="#f5f5f5"/>
    <g id="Mask_Group_72" data-name="Mask Group 72" clip-path="url(#clip-path)">
      <g id="virus" transform="translate(13 13)">
        <path id="Path_2728" data-name="Path 2728" d="M18.942,13.942a.821.821,0,0,0,.734-.454l.824-1.647a.821.821,0,0,0-1.468-.734l-.6,1.194H17.29a3.28,3.28,0,0,0-.948-2.258l.832-1.387a.821.821,0,1,0-1.407-.844L14.936,9.2a3.281,3.281,0,0,0-1.873,0l-.831-1.386a.821.821,0,0,0-1.407.844l.832,1.387A3.281,3.281,0,0,0,10.71,12.3H9.565l-.6-1.194a.821.821,0,0,0-1.468.734l.824,1.647a.821.821,0,0,0,.734.454h1.651v1.709H9.058a.821.821,0,0,0-.734.454L7.5,17.752a.821.821,0,0,0,1.468.734l.6-1.194h1.247a3.292,3.292,0,0,0,6.376,0h1.247l.6,1.194a.821.821,0,0,0,1.468-.734L19.676,16.1a.821.821,0,0,0-.734-.454H17.292V13.942ZM15.649,12.3h-3.3a1.65,1.65,0,0,1,3.3,0ZM14,18.122a1.653,1.653,0,0,1-1.651-1.651V13.942h3.3v2.529A1.653,1.653,0,0,1,14,18.122Z" fill="#07ca8d"/>
        <path id="Path_2729" data-name="Path 2729" d="M27.179,13.179h-.854a12.352,12.352,0,0,0-11.5-11.5V.82a.82.82,0,1,0-1.641,0v.854a12.352,12.352,0,0,0-11.5,11.5H.82a.82.82,0,1,0,0,1.641h.854a12.352,12.352,0,0,0,11.5,11.5v.854a.82.82,0,0,0,1.641,0v-.854a12.352,12.352,0,0,0,11.5-11.5h.854a.821.821,0,0,0,0-1.641ZM14.821,24.68v-.8a.82.82,0,0,0-1.641,0v.8a10.729,10.729,0,0,1-9.86-9.86h.8a.82.82,0,1,0,0-1.641h-.8a10.729,10.729,0,0,1,9.86-9.86v.8a.82.82,0,0,0,1.641,0v-.8a10.729,10.729,0,0,1,9.86,9.86h-.8a.82.82,0,1,0,0,1.641h.8A10.729,10.729,0,0,1,14.821,24.68Z" fill="#07ca8d"/>
      </g>
    </g>
  </g>
</svg>
