<svg xmlns="http://www.w3.org/2000/svg" xmlns:xlink="http://www.w3.org/1999/xlink" width="60" height="60" viewBox="0 0 60 60">
  <defs>
    <clipPath id="clip-path">
      <rect id="Rectangle_69" data-name="Rectangle 69" width="26" height="26" transform="translate(14 14)" fill="#07ca8d"/>
    </clipPath>
  </defs>
  <g id="SiteLock1" transform="translate(3 3)">
    <rect id="Rectangle_27" data-name="Rectangle 27" width="60" height="60" rx="30" transform="translate(-3 -3)" fill="#f5f5f5"/>
    <g id="Mask_Group_76" data-name="Mask Group 76" clip-path="url(#clip-path)">
      <g id="virus_1_" data-name="virus (1)" transform="translate(14 14)">
        <path id="Path_2736" data-name="Path 2736" d="M16.1,0A9.9,9.9,0,0,0,8.581,16.342l-1,1L6.5,16.269,0,22.768,3.232,26l6.5-6.5L8.654,18.423l1-1A9.9,9.9,0,1,0,16.1,0ZM3.232,23.846,2.154,22.768,6.5,18.423,7.577,19.5ZM16.1,18.281A8.379,8.379,0,1,1,24.477,9.9,8.388,8.388,0,0,1,16.1,18.281Zm0,0" fill="#07ca8d"/>
        <path id="Path_2737" data-name="Path 2737" d="M21.852,5.966,21.007,4.7l-2.093,1.4h-.531V5.332a2.285,2.285,0,0,0-4.57,0v.762h-.531L11.188,4.7l-.845,1.268,1.946,1.3V9.141H10.766v1.523h1.523v.762a3.8,3.8,0,0,0,.14,1.022l-2.086,1.391.845,1.268,1.943-1.3a3.8,3.8,0,0,0,5.932,0l1.943,1.3.845-1.268-2.086-1.391a3.8,3.8,0,0,0,.14-1.022v-.762H21.43V9.141H19.906V7.263Zm-6.516-.634a.762.762,0,0,1,1.523,0v.762H15.336Zm3.047,6.094a2.285,2.285,0,1,1-4.57,0V7.617h1.523v4.57h1.523V7.617h1.523Zm0,0" fill="#07ca8d"/>
      </g>
    </g>
  </g>
</svg>
