<svg xmlns="http://www.w3.org/2000/svg" xmlns:xlink="http://www.w3.org/1999/xlink" width="60" height="60" viewBox="0 0 60 60">
  <defs>
    <clipPath id="clip-path">
      <rect id="Rectangle_69" data-name="Rectangle 69" width="28" height="28" transform="translate(13 13)" fill="#07ca8d"/>
    </clipPath>
  </defs>
  <g id="SiteLock3" transform="translate(3 3)">
    <rect id="Rectangle_27" data-name="Rectangle 27" width="60" height="60" rx="30" transform="translate(-3 -3)" fill="#f5f5f5"/>
    <g id="Mask_Group_73" data-name="Mask Group 73" clip-path="url(#clip-path)">
      <path id="lock" d="M25.756,16.189H24.443V13.455a3.281,3.281,0,0,0-6.561,0v2.734H16.57a1.094,1.094,0,0,0-1.094,1.094v6.89a16.089,16.089,0,0,1-2.625,1.534C6.525,22.751,3.486,16.7,3.343,6.753a14.424,14.424,0,0,0,9.51-3.993,14.424,14.424,0,0,0,9.51,3.993c0,.332-.013.658-.024.978a1.094,1.094,0,1,0,2.186.075c.024-.685.033-1.4.029-2.122A1.094,1.094,0,0,0,23.46,4.6a13.289,13.289,0,0,1-7.4-2.052A9.2,9.2,0,0,1,13.75.478a1.082,1.082,0,0,0-1.8,0A9.2,9.2,0,0,1,9.642,2.545,13.289,13.289,0,0,1,2.244,4.6,1.094,1.094,0,0,0,1.151,5.685c-.033,5.857.829,10.472,2.635,14.107a16.886,16.886,0,0,0,3.547,4.825,17.671,17.671,0,0,0,5.083,3.293,1.094,1.094,0,0,0,.872,0A18.2,18.2,0,0,0,17.3,25.536c.021-.017.04-.035.06-.052h8.395A1.094,1.094,0,0,0,26.85,24.39V17.282A1.094,1.094,0,0,0,25.756,16.189Zm-5.687-2.734a1.1,1.1,0,0,1,2.187,0v2.734H20.069ZM24.663,23.3h-7V18.376h7Z" transform="translate(13 13)" fill="#07ca8d"/>
    </g>
  </g>
</svg>
