<svg id="undraw_secure_login_pdn4" xmlns="http://www.w3.org/2000/svg" width="328.25" height="228.381" viewBox="0 0 328.25 228.381">
  <ellipse id="Ellipse_13" data-name="Ellipse 13" cx="65.402" cy="4.967" rx="65.402" ry="4.967" transform="translate(197.447 218.446)" fill="#e6e6e6"/>
  <path id="Path_149" data-name="Path 149" d="M364.471,247.256c-11.382-4.841-25.558-1.774-39.4.355-.129-2.578-1.69-5.716-.055-7.514,1.987-2.185,1.8-4.481.609-6.79-3.058-5.9,1.323-12.188,5.747-17.412a9.8,9.8,0,0,1,8.177-3.432l8.195.585a9.814,9.814,0,0,1,8.714,7.015h0c1.957,2.661,3,5.315,2.345,7.955,2.931,2,3.423,4.421,2.106,7.146a4.108,4.108,0,0,0,.051,5.011,23.135,23.135,0,0,1,3.44,6.832Z" transform="translate(-86.213 -196.582)" fill="#2f2e41"/>
  <path id="Path_150" data-name="Path 150" d="M406.278,629.706H638.254a7.778,7.778,0,0,0,7.778-7.778h0q-126.137-14.66-247.533,0h0A7.778,7.778,0,0,0,406.278,629.706Z" transform="translate(-398.5 -432.275)" fill="#2f2e41"/>
  <path id="Path_151" data-name="Path 151" d="M398.5,399.551l247.533-.458-28.688-48.271-.137-.229V244.209a9.832,9.832,0,0,0-9.834-9.833H438.531a9.832,9.832,0,0,0-9.833,9.834V351.325Z" transform="translate(-398.5 -209.44)" fill="#3f3d56"/>
  <path id="Path_152" data-name="Path 152" d="M657.48,250.957a3.206,3.206,0,0,1,3.2,3.2v97a3.207,3.207,0,0,1-3.2,3.2H486.815a3.207,3.207,0,0,1-3.2-3.2v-97a3.206,3.206,0,0,1,3.2-3.2Z" transform="translate(-448.381 -219.157)" fill="#fff"/>
  <path id="Path_153" data-name="Path 153" d="M646.833,531.718a1.376,1.376,0,0,1,1.247.8l8.84,19.217a1.373,1.373,0,0,1-1.247,1.946H469.779a1.372,1.372,0,0,1-1.228-1.987l9.608-19.217a1.366,1.366,0,0,1,1.227-.759Z" transform="translate(-438.45 -383.702)" fill="#2f2e41"/>
  <ellipse id="Ellipse_14" data-name="Ellipse 14" cx="2.059" cy="2.059" rx="2.059" ry="2.059" transform="translate(122.394 26.08)" fill="#fff"/>
  <path id="Path_154" data-name="Path 154" d="M684.351,593.619a1.375,1.375,0,0,1,1.325,1.016l2.217,8.236a1.372,1.372,0,0,1-1.325,1.73H644.4a1.372,1.372,0,0,1-1.3-1.822l2.851-8.236a1.373,1.373,0,0,1,1.3-.924Z" transform="translate(-541.627 -419.98)" fill="#2f2e41"/>
  <path id="Path_155" data-name="Path 155" d="M264.306,337.135v1.83H452.952l-.142-.228v-1.6Z" transform="translate(-234.108 -197.583)" fill="#2f2e41"/>
  <ellipse id="Ellipse_15" data-name="Ellipse 15" cx="32.028" cy="32.028" rx="32.028" ry="32.028" transform="translate(3.431 0)" fill="#07ca8d"/>
  <path id="Path_156" data-name="Path 156" d="M876.188,257.367h26.538a1.832,1.832,0,0,0,1.83-1.83V239.523a1.832,1.832,0,0,0-1.83-1.83H876.188a1.832,1.832,0,0,0-1.83,1.83v16.014A1.832,1.832,0,0,0,876.188,257.367Zm26.538-17.844v16.014H876.186V239.523Z" transform="translate(-853.997 -211.384)" fill="#fff"/>
  <path id="Path_157" data-name="Path 157" d="M890.938,218.793H907.41v-7.321c0-5.3-3.464-9.151-8.236-9.151s-8.236,3.848-8.236,9.151Zm14.641-1.83H892.768v-5.491c0-4.31,2.634-7.321,6.406-7.321s6.406,3.01,6.406,7.321Z" transform="translate(-863.714 -190.653)" fill="#fff"/>
  <ellipse id="Ellipse_16" data-name="Ellipse 16" cx="1.83" cy="1.83" rx="1.83" ry="1.83" transform="translate(33.629 33.858)" fill="#fff"/>
  <path id="Path_158" data-name="Path 158" d="M534.722,368.044h131.9a2.445,2.445,0,0,0,2.442-2.443V332.884a2.445,2.445,0,0,0-2.442-2.443h-131.9a2.445,2.445,0,0,0-2.443,2.443V365.6A2.445,2.445,0,0,0,534.722,368.044Zm131.9-36.626a1.467,1.467,0,0,1,1.465,1.466V365.6a1.467,1.467,0,0,1-1.465,1.465h-131.9a1.467,1.467,0,0,1-1.466-1.465V332.884a1.467,1.467,0,0,1,1.466-1.466Z" transform="translate(-476.903 -265.74)" fill="#e6e6e6"/>
  <ellipse id="Ellipse_17" data-name="Ellipse 17" cx="9.949" cy="9.949" rx="9.949" ry="9.949" transform="translate(159.271 72.297)" fill="#e6e6e6"/>
  <path id="Path_159" data-name="Path 159" d="M719.03,356.8a1.658,1.658,0,1,1,0,3.316H640.855a1.658,1.658,0,1,1,0-3.316Z" transform="translate(-572.788 -281.191)" fill="#e6e6e6"/>
  <path id="Path_160" data-name="Path 160" d="M674.494,380.842a1.658,1.658,0,1,1,0,3.316H640.855a1.658,1.658,0,1,1,0-3.316Z" transform="translate(-528.252 -295.279)" fill="#e6e6e6"/>
  <path id="Path_161" data-name="Path 161" d="M415.993,362.335,440.375,375.3l.309-10.8a72.207,72.207,0,0,1-22.53-7.407l-2.55-6.3a4.271,4.271,0,0,0-7.259-1.108h0a4.271,4.271,0,0,0,.376,5.824Z" transform="translate(-196.824 -276.101)" fill="#ffb8b8"/>
  <path id="Path_162" data-name="Path 162" d="M341.575,540.123h0a4.791,4.791,0,0,0-.608-3.876l-5.356-8.22a9.36,9.36,0,0,0-12.143-3.2h0c2.251,3.832,1.937,7.193-.777,10.114a48.693,48.693,0,0,1,11.564,7.883,4.791,4.791,0,0,0,7.321-2.7Z" transform="translate(-62.83 -379.047)" fill="#2f2e41"/>
  <path id="Path_163" data-name="Path 163" d="M362.456,486.321h0a9.191,9.191,0,0,0,7.811,4.462l35.582.27,1.543-8.95-15.74-4.629,13.271-10.185-14.506-16.975-26.347,24.556A9.191,9.191,0,0,0,362.456,486.321Z" transform="translate(-144.397 -335.993)" fill="#2f2e41"/>
  <path id="Path_164" data-name="Path 164" d="M338.718,512.574h8.333c7.482-51.286,15.1-102.714-7.407-121.91L313.1,394.985l3.4,22.53,14.814,16.975Z" transform="translate(-71.711 -301.035)" fill="#2f2e41"/>
  <path id="Path_165" data-name="Path 165" d="M331.186,692.37h0a4.791,4.791,0,0,0,3.876-.608l9.048-1.216a9.36,9.36,0,0,0,3.2-12.143h0c-3.832,2.251-7.193,1.937-10.114-.778-2.064,4.167-5.464,3.913-8.712,7.424a4.791,4.791,0,0,0,2.7,7.321Z" transform="translate(-71.504 -469.213)" fill="#2f2e41"/>
  <path id="Path_166" data-name="Path 166" d="M361.892,277.751l15.432-3.7c-2.563-5.246-2.774-11.084-1.543-17.283l-10.493-.309A80.566,80.566,0,0,1,361.892,277.751Z" transform="translate(-114.637 -222.38)" fill="#ffb8b8"/>
  <path id="Path_167" data-name="Path 167" d="M346.012,344.849c11.234,7.655,19.171.262,25.228-11.145-.842-6.98.521-15.332,3.045-24.408a16.614,16.614,0,0,0-10.144-20.035h0l-13.271,5.555c-11.269,9.185-13.487,19.135-9.259,29.629Z" transform="translate(-102.999 -241.606)" fill="#07ca8d"/>
  <path id="Path_168" data-name="Path 168" d="M277.327,308.626l12.345,6.481L267.759,328.07l-3.049,7.521a3.989,3.989,0,0,0,2.4,5.27h0a3.989,3.989,0,0,0,5.283-3.537l.308-5.242,27.851-9.191a6.513,6.513,0,0,0,4.087-3.979h0a6.512,6.512,0,0,0-2.443-7.576l-22.4-15.365Z" transform="translate(-1.986 -245.539)" fill="#ffb8b8"/>
  <path id="Path_169" data-name="Path 169" d="M320.883,305.247c5.149-2.256,9.831.195,15.74,2.16l.926-16.358c-5.868-3.128-11.463-3.971-16.666-1.543Z" transform="translate(-57.888 -240.926)" fill="#07ca8d"/>
  <ellipse id="Ellipse_18" data-name="Ellipse 18" cx="9.853" cy="9.853" rx="9.853" ry="9.853" transform="translate(246.983 22.473)" fill="#ffb8b8"/>
  <path id="Path_170" data-name="Path 170" d="M351.5,236.707c9.755.955,17.188-.64,21.939-5.182v-3.658H352.328Z" transform="translate(-106.451 -205.625)" fill="#2f2e41"/>
</svg>
