<svg xmlns="http://www.w3.org/2000/svg" xmlns:xlink="http://www.w3.org/1999/xlink" width="60" height="60" viewBox="0 0 60 60">
  <defs>
    <clipPath id="clip-path">
      <rect id="Rectangle_675" data-name="Rectangle 675" width="24" height="24" transform="translate(15 15)" fill="#07ca8d"/>
    </clipPath>
  </defs>
  <g id="Group_5101" data-name="Group 5101" transform="translate(3 3)">
    <rect id="Rectangle_27" data-name="Rectangle 27" width="60" height="60" rx="30" transform="translate(-3 -3)" fill="#f5f5f5"/>
    <g id="Mask_Group_125" data-name="Mask Group 125" clip-path="url(#clip-path)">
      <g id="email" transform="translate(15 15)">
        <g id="Group_5075" data-name="Group 5075">
          <path id="Path_3247" data-name="Path 3247" d="M21.891,3.563H2.109A2.112,2.112,0,0,0,0,5.672V18.328a2.112,2.112,0,0,0,2.109,2.109H21.891A2.112,2.112,0,0,0,24,18.328V5.672A2.112,2.112,0,0,0,21.891,3.563Zm-.324,1.406L12.545,14.02a.821.821,0,0,1-1.09,0L2.433,4.969ZM1.406,18.07V5.93L7.456,12Zm1.027.962L8.449,13l2.01,2.017a2.225,2.225,0,0,0,3.082,0L15.551,13l6.016,6.035Zm20.16-.962L16.544,12l6.05-6.07Z" fill="#07ca8d"/>
        </g>
      </g>
    </g>
  </g>
</svg>
