<svg width="60" height="60" viewBox="0 0 60 60" fill="none" xmlns="http://www.w3.org/2000/svg">
<g clip-path="url(#clip0_284_2)">
<path d="M60 30C60 13.4315 46.5685 0 30 0C13.4315 0 0 13.4315 0 30C0 46.5685 13.4315 60 30 60C46.5685 60 60 46.5685 60 30Z" fill="#F4F5FF"/>
<mask id="mask0_284_2" style="mask-type:luminance" maskUnits="userSpaceOnUse" x="16" y="16" width="28" height="28">
<path d="M44 16H16V44H44V16Z" fill="white"/>
</mask>
<g mask="url(#mask0_284_2)">
<path d="M41.138 20.5341L30.419 16.0841C30.286 16.0289 30.1435 16.0005 29.9995 16.0005C29.8555 16.0005 29.713 16.0289 29.58 16.0841L18.862 20.5341C18.6625 20.6171 18.492 20.7573 18.372 20.937C18.2521 21.1168 18.188 21.328 18.188 21.5441V26.9541C18.1871 30.5947 19.2712 34.1529 21.3017 37.1746C23.3321 40.1963 26.217 42.5443 29.588 43.9191C29.853 44.0273 30.1499 44.0273 30.415 43.9191C33.786 42.5443 36.6708 40.1963 38.7013 37.1746C40.7318 34.1529 41.8158 30.5947 41.815 26.9541V21.5441C41.8147 21.3277 41.7502 21.1162 41.6297 20.9364C41.5092 20.7566 41.3381 20.6166 41.138 20.5341ZM39.625 26.9541C39.6254 30.0834 38.7157 33.1452 37.0067 35.7666C35.2978 38.388 32.8633 40.4558 30 41.7181C27.1366 40.4558 24.7022 38.388 22.9933 35.7666C21.2843 33.1452 20.3746 30.0834 20.375 26.9541V22.2741L30 18.2741L39.625 22.2741V26.9541ZM28.791 30.6411L33.491 25.9411C33.592 25.8372 33.7127 25.7544 33.8461 25.6976C33.9794 25.6407 34.1227 25.6109 34.2676 25.6099C34.4126 25.6089 34.5563 25.6367 34.6904 25.6917C34.8245 25.7467 34.9463 25.8278 35.0488 25.9303C35.1513 26.0328 35.2324 26.1546 35.2874 26.2887C35.3424 26.4228 35.3702 26.5665 35.3692 26.7115C35.3682 26.8564 35.3384 26.9997 35.2815 27.133C35.2247 27.2664 35.1419 27.3871 35.038 27.4881L29.564 32.9621C29.3588 33.1672 29.0806 33.2825 28.7905 33.2825C28.5004 33.2825 28.2221 33.1672 28.017 32.9621L24.961 29.9001C24.7605 29.694 24.6493 29.4173 24.6513 29.1298C24.6533 28.8423 24.7684 28.5671 24.9717 28.3638C25.175 28.1605 25.4501 28.0454 25.7376 28.0434C26.0251 28.0414 26.3019 28.1527 26.508 28.3531L28.791 30.6411Z" fill="#673DE6"/>
</g>
</g>
<defs>
<clipPath id="clip0_284_2">
<rect width="60" height="60" fill="white"/>
</clipPath>
</defs>
</svg>
