<svg width="60" height="60" viewBox="0 0 60 60" fill="none" xmlns="http://www.w3.org/2000/svg">
<g clip-path="url(#clip0_284_66)">
<path d="M60 30C60 13.4315 46.5685 0 30 0C13.4315 0 0 13.4315 0 30C0 46.5685 13.4315 60 30 60C46.5685 60 60 46.5685 60 30Z" fill="#F4F5FF"/>
<mask id="mask0_284_66" style="mask-type:luminance" maskUnits="userSpaceOnUse" x="16" y="16" width="28" height="28">
<path d="M44 16H16V44H44V16Z" fill="white"/>
</mask>
<g mask="url(#mask0_284_66)">
<path d="M43.9668 18.09C43.9382 17.5538 43.7123 17.047 43.3325 16.6673C42.9528 16.2876 42.4461 16.0617 41.9098 16.033C38.171 15.8042 34.437 16.551 31.0738 18.2C28.6937 19.5054 26.5854 21.2542 24.8628 23.352L24.7968 23.432L20.6968 23.749C20.3659 23.7737 20.0451 23.8741 19.7592 24.0425C19.4733 24.2108 19.2299 24.4427 19.0478 24.72L16.2478 28.951C16.1092 29.1609 16.0256 29.4022 16.0047 29.6528C15.9838 29.9034 16.0262 30.1553 16.1281 30.3852C16.23 30.6151 16.388 30.8157 16.5877 30.9686C16.7873 31.1215 17.0222 31.2217 17.2708 31.26L20.7258 31.795C20.7138 31.862 20.7018 31.929 20.6898 31.995C20.6338 32.3362 20.6599 32.6858 20.766 33.0148C20.8721 33.3439 21.0551 33.6429 21.2998 33.887L26.1118 38.7C26.52 39.1084 27.0734 39.3381 27.6508 39.339C27.7677 39.3389 27.8844 39.3292 27.9998 39.31L28.1998 39.274L28.7348 42.729C28.7734 42.9774 28.8738 43.2121 29.0268 43.4115C29.1798 43.6109 29.3805 43.7687 29.6103 43.8704C29.8402 43.972 30.092 44.0143 30.3424 43.9932C30.5929 43.9722 30.8341 43.8886 31.0438 43.75L35.2748 40.95C35.552 40.7679 35.7837 40.5245 35.9519 40.2386C36.1201 39.9526 36.2203 39.6319 36.2448 39.301L36.5618 35.201L36.6418 35.135C38.7417 33.4136 40.4925 31.306 41.7998 28.926C43.4488 25.5628 44.1956 21.8288 43.9668 18.09ZM34.3748 39.584L30.3278 42.26L29.8068 38.893C31.5898 38.3557 33.2808 37.5505 34.8218 36.505L34.6158 39.176C34.6097 39.2578 34.5849 39.337 34.5432 39.4075C34.5016 39.4781 34.4443 39.5382 34.3758 39.583L34.3748 39.584ZM27.2748 37.54L22.4598 32.728C22.3995 32.6687 22.3543 32.5958 22.3279 32.5154C22.3015 32.4351 22.2946 32.3496 22.3078 32.266C22.4483 31.4362 22.6629 30.6206 22.9488 29.829L30.1688 37.049C29.3778 37.3349 28.5629 37.5497 27.7338 37.691C27.6502 37.7043 27.5647 37.6974 27.4844 37.6709C27.404 37.6445 27.3312 37.5993 27.2718 37.539L27.2748 37.54ZM20.8228 25.385L23.4938 25.179C22.4483 26.7201 21.6431 28.411 21.1058 30.194L17.7388 29.673L20.4158 25.625C20.4607 25.5565 20.5207 25.4992 20.5913 25.4576C20.6619 25.416 20.7411 25.3911 20.8228 25.385ZM35.5998 33.877C34.438 34.8551 33.162 35.6888 31.7998 36.36L23.6388 28.2C24.313 26.8393 25.1469 25.5636 26.1228 24.4C27.705 22.4694 29.6417 20.8592 31.8288 19.656C34.9313 18.1412 38.3738 17.4572 41.8198 17.671C41.9525 17.678 42.078 17.7339 42.1719 17.8279C42.2659 17.9219 42.3218 18.0473 42.3288 18.18C42.542 21.6266 41.857 25.0695 40.3408 28.172C39.1385 30.3585 37.5292 32.2949 35.5998 33.877Z" fill="#673DE6"/>
<path d="M35.1799 28.9192C36.1284 28.9188 37.0474 28.5896 37.7804 27.9875C38.5134 27.3855 39.015 26.5479 39.1997 25.6175C39.3843 24.6872 39.2407 23.7215 38.7933 22.8852C38.3458 22.0488 37.6222 21.3934 36.7458 21.0308C35.8693 20.6681 34.8942 20.6205 33.9866 20.8962C33.079 21.1718 32.2951 21.7537 31.7684 22.5425C31.2416 23.3314 31.0047 24.2784 31.098 25.2224C31.1913 26.1663 31.6089 27.0487 32.2799 27.7192C32.6604 28.1003 33.1125 28.4025 33.6102 28.6085C34.1078 28.8144 34.6413 28.92 35.1799 28.9192ZM33.4399 23.0802C33.8425 22.6777 34.3723 22.4272 34.9389 22.3714C35.5056 22.3157 36.074 22.4582 36.5474 22.7745C37.0207 23.0909 37.3698 23.5617 37.535 24.1065C37.7002 24.6514 37.6714 25.2367 37.4534 25.7627C37.2354 26.2887 36.8418 26.7229 36.3397 26.9912C35.8375 27.2595 35.2578 27.3454 34.6994 27.2343C34.141 27.1231 33.6384 26.8218 33.2772 26.3816C32.9161 25.9414 32.7188 25.3896 32.7189 24.8202C32.7185 24.497 32.782 24.1769 32.9057 23.8783C33.0294 23.5797 33.211 23.3085 33.4399 23.0802Z" fill="#673DE6"/>
<path d="M16.8369 39.0748C16.9447 39.075 17.0514 39.0539 17.1509 39.0127C17.2505 38.9716 17.3409 38.9111 17.4169 38.8348L20.0949 36.1568C20.1766 36.082 20.2422 35.9913 20.2879 35.8904C20.3335 35.7895 20.3583 35.6804 20.3606 35.5697C20.3629 35.4589 20.3428 35.3489 20.3014 35.2461C20.26 35.1434 20.1983 35.0501 20.1199 34.9718C20.0414 34.8936 19.948 34.8321 19.8451 34.791C19.7423 34.7499 19.6322 34.73 19.5214 34.7327C19.4107 34.7353 19.3016 34.7603 19.2008 34.8062C19.1 34.8521 19.0096 34.918 18.9349 34.9998L16.2569 37.6738C16.1422 37.7885 16.064 37.9346 16.0324 38.0937C16.0007 38.2529 16.0169 38.4178 16.079 38.5677C16.1411 38.7175 16.2463 38.8456 16.3812 38.9357C16.5161 39.0258 16.6747 39.0739 16.8369 39.0738V39.0748Z" fill="#673DE6"/>
<path d="M22.5488 37.4498C22.4726 37.3736 22.3822 37.3132 22.2827 37.2719C22.1831 37.2307 22.0765 37.2095 21.9688 37.2095C21.861 37.2095 21.7544 37.2307 21.6548 37.2719C21.5553 37.3132 21.4649 37.3736 21.3888 37.4498L16.2398 42.5998C16.1636 42.676 16.1032 42.7664 16.0619 42.8659C16.0207 42.9654 15.9995 43.0721 15.9995 43.1798C15.9995 43.2875 16.0207 43.3942 16.0619 43.4937C16.1032 43.5932 16.1636 43.6837 16.2398 43.7598C16.3159 43.836 16.4063 43.8964 16.5059 43.9376C16.6054 43.9788 16.712 44.0001 16.8198 44.0001C16.9275 44.0001 17.0341 43.9788 17.1336 43.9376C17.2332 43.8964 17.3236 43.836 17.3998 43.7598L22.5488 38.6108C22.625 38.5347 22.6854 38.4442 22.7266 38.3447C22.7679 38.2452 22.7891 38.1385 22.7891 38.0308C22.7891 37.9231 22.7679 37.8164 22.7266 37.7169C22.6854 37.6174 22.625 37.526 22.5488 37.4498Z" fill="#673DE6"/>
<path d="M23.844 39.9003L21.166 42.5833C21.0899 42.6594 21.0294 42.7499 20.9882 42.8494C20.947 42.9489 20.9258 43.0556 20.9258 43.1633C20.9258 43.271 20.947 43.3777 20.9882 43.4772C21.0294 43.5767 21.0899 43.6671 21.166 43.7433C21.2422 43.8194 21.3326 43.8799 21.4321 43.9211C21.5316 43.9623 21.6383 43.9835 21.746 43.9835C21.8537 43.9835 21.9604 43.9623 22.0599 43.9211C22.1594 43.8799 22.2499 43.8194 22.326 43.7433L25 41.0653C25.1539 40.9115 25.2403 40.7028 25.2403 40.4853C25.2403 40.2677 25.1539 40.0591 25 39.9053C24.8462 39.7515 24.6376 39.665 24.42 39.665C24.2025 39.665 23.9939 39.7515 23.84 39.9053L23.844 39.9003Z" fill="#673DE6"/>
</g>
</g>
<defs>
<clipPath id="clip0_284_66">
<rect width="60" height="60" fill="white"/>
</clipPath>
</defs>
</svg>
