<svg xmlns="http://www.w3.org/2000/svg" width="541.999" height="630.123" viewBox="0 0 541.999 630.123">
  <g id="undraw_server_cluster_jwwq" transform="translate(-140.25)">
    <path id="Path_3328" data-name="Path 3328" d="M571.413,640.361a230.544,230.544,0,1,1,163.02-67.525,230.544,230.544,0,0,1-163.02,67.525Zm0-459.316c-126.145,0-228.771,102.627-228.771,228.772S445.269,638.588,571.413,638.588,800.184,535.962,800.184,409.817,697.557,181.045,571.413,181.045Z" transform="translate(-161.062 -104.205)" fill="#ccc"/>
    <rect id="Rectangle_677" data-name="Rectangle 677" width="232.26" height="172.866" transform="translate(495.954 338.468) rotate(90)" fill="#2f2e41"/>
    <rect id="Rectangle_678" data-name="Rectangle 678" width="232.26" height="92.195" transform="translate(293.391 331.376)" fill="#3f3d56"/>
    <rect id="Rectangle_679" data-name="Rectangle 679" width="232.26" height="92.195" transform="translate(293.391 434.209)" fill="#3f3d56"/>
    <rect id="Rectangle_680" data-name="Rectangle 680" width="232.26" height="92.195" transform="translate(293.391 537.042)" fill="#3f3d56"/>
    <rect id="Rectangle_681" data-name="Rectangle 681" width="232.26" height="14.184" transform="translate(293.391 370.468)" fill="#01c98a"/>
    <rect id="Rectangle_682" data-name="Rectangle 682" width="232.26" height="14.184" transform="translate(293.391 473.3)" fill="#01c98a"/>
    <rect id="Rectangle_683" data-name="Rectangle 683" width="232.26" height="14.184" transform="translate(293.391 576.133)" fill="#01c98a"/>
    <circle id="Ellipse_340" data-name="Ellipse 340" cx="5.319" cy="5.319" r="5.319" transform="translate(475.122 339.355)" fill="#01c98a"/>
    <circle id="Ellipse_341" data-name="Ellipse 341" cx="5.319" cy="5.319" r="5.319" transform="translate(493.738 339.355)" fill="#01c98a"/>
    <circle id="Ellipse_342" data-name="Ellipse 342" cx="5.319" cy="5.319" r="5.319" transform="translate(512.354 339.355)" fill="#01c98a"/>
    <circle id="Ellipse_343" data-name="Ellipse 343" cx="5.319" cy="5.319" r="5.319" transform="translate(475.122 440.414)" fill="#01c98a"/>
    <circle id="Ellipse_344" data-name="Ellipse 344" cx="5.319" cy="5.319" r="5.319" transform="translate(493.738 440.414)" fill="#01c98a"/>
    <circle id="Ellipse_345" data-name="Ellipse 345" cx="5.319" cy="5.319" r="5.319" transform="translate(512.354 440.414)" fill="#01c98a"/>
    <circle id="Ellipse_346" data-name="Ellipse 346" cx="5.319" cy="5.319" r="5.319" transform="translate(475.122 541.474)" fill="#01c98a"/>
    <circle id="Ellipse_347" data-name="Ellipse 347" cx="5.319" cy="5.319" r="5.319" transform="translate(493.738 541.474)" fill="#01c98a"/>
    <circle id="Ellipse_348" data-name="Ellipse 348" cx="5.319" cy="5.319" r="5.319" transform="translate(512.354 541.474)" fill="#01c98a"/>
    <rect id="Rectangle_684" data-name="Rectangle 684" width="419.4" height="1.773" transform="translate(183.95 628.35)" fill="#3f3d56"/>
    <path id="Path_3329" data-name="Path 3329" d="M386.343,364v164.88a13.009,13.009,0,0,1-13,13.007H309.262a13.011,13.011,0,0,1-13.012-13.008V364a13.011,13.011,0,0,1,13.012-13.007h7.773a6.186,6.186,0,0,0,5.722,8.516h36.531a6.186,6.186,0,0,0,5.722-8.516h8.326a13.009,13.009,0,0,1,13.007,13Z" transform="translate(-156 -123.7)" fill="#e6e6e6"/>
    <rect id="Rectangle_685" data-name="Rectangle 685" width="81.557" height="113.471" transform="translate(144.518 258.775)" fill="#fff"/>
    <rect id="Rectangle_686" data-name="Rectangle 686" width="32.552" height="1.86" transform="translate(167.674 336.801)" fill="#e6e6e6"/>
    <rect id="Rectangle_687" data-name="Rectangle 687" width="50.368" height="1.86" transform="translate(167.642 343.632)" fill="#01c98a"/>
    <rect id="Rectangle_688" data-name="Rectangle 688" width="39.527" height="1.86" transform="translate(167.642 350.066)" fill="#e6e6e6"/>
    <rect id="Rectangle_689" data-name="Rectangle 689" width="23.251" height="1.86" transform="translate(167.642 356.501)" fill="#e6e6e6"/>
    <rect id="Rectangle_690" data-name="Rectangle 690" width="34.877" height="1.86" transform="translate(167.642 362.935)" fill="#e6e6e6"/>
    <rect id="Rectangle_691" data-name="Rectangle 691" width="3.72" height="3.72" transform="translate(152.912 336.267)" fill="#e6e6e6"/>
    <rect id="Rectangle_692" data-name="Rectangle 692" width="3.72" height="3.72" transform="translate(152.912 342.701)" fill="#01c98a"/>
    <rect id="Rectangle_693" data-name="Rectangle 693" width="3.72" height="3.72" transform="translate(152.912 349.136)" fill="#e6e6e6"/>
    <rect id="Rectangle_694" data-name="Rectangle 694" width="3.72" height="3.72" transform="translate(152.912 355.571)" fill="#e6e6e6"/>
    <rect id="Rectangle_695" data-name="Rectangle 695" width="3.72" height="3.72" transform="translate(152.912 362.005)" fill="#e6e6e6"/>
    <rect id="Rectangle_696" data-name="Rectangle 696" width="32.798" height="32.798" transform="translate(169.062 272.959)" fill="#e6e6e6"/>
    <rect id="Rectangle_697" data-name="Rectangle 697" width="217.974" height="139.6" transform="translate(300.581 0.124)" fill="#e6e6e6"/>
    <rect id="Rectangle_698" data-name="Rectangle 698" width="180.721" height="68.291" transform="translate(317.013 39.179)" fill="#fff"/>
    <rect id="Rectangle_699" data-name="Rectangle 699" width="43.373" height="2.478" transform="translate(349.939 51.01)" fill="#e6e6e6"/>
    <rect id="Rectangle_700" data-name="Rectangle 700" width="67.112" height="2.478" transform="translate(349.896 60.11)" fill="#01c98a"/>
    <rect id="Rectangle_701" data-name="Rectangle 701" width="52.667" height="2.478" transform="translate(349.896 68.684)" fill="#e6e6e6"/>
    <rect id="Rectangle_702" data-name="Rectangle 702" width="30.981" height="2.478" transform="translate(349.896 77.258)" fill="#e6e6e6"/>
    <rect id="Rectangle_703" data-name="Rectangle 703" width="46.471" height="2.478" transform="translate(349.896 85.832)" fill="#e6e6e6"/>
    <rect id="Rectangle_704" data-name="Rectangle 704" width="4.957" height="4.957" transform="translate(330.27 50.297)" fill="#e6e6e6"/>
    <rect id="Rectangle_705" data-name="Rectangle 705" width="4.957" height="4.957" transform="translate(330.27 58.871)" fill="#01c98a"/>
    <rect id="Rectangle_706" data-name="Rectangle 706" width="4.957" height="4.957" transform="translate(330.27 67.445)" fill="#e6e6e6"/>
    <rect id="Rectangle_707" data-name="Rectangle 707" width="4.957" height="4.957" transform="translate(330.27 76.019)" fill="#e6e6e6"/>
    <rect id="Rectangle_708" data-name="Rectangle 708" width="4.957" height="4.957" transform="translate(330.27 84.593)" fill="#e6e6e6"/>
    <rect id="Rectangle_709" data-name="Rectangle 709" width="44.377" height="44.377" transform="translate(444.489 47.735)" fill="#e6e6e6"/>
    <rect id="Rectangle_710" data-name="Rectangle 710" width="217.974" height="9.26" transform="translate(300.488)" fill="#01c98a"/>
    <circle id="Ellipse_349" data-name="Ellipse 349" cx="1.859" cy="1.859" r="1.859" transform="translate(305.51 2.876)" fill="#fff"/>
    <circle id="Ellipse_350" data-name="Ellipse 350" cx="1.859" cy="1.859" r="1.859" transform="translate(312.025 2.876)" fill="#fff"/>
    <circle id="Ellipse_351" data-name="Ellipse 351" cx="1.859" cy="1.859" r="1.859" transform="translate(318.54 2.876)" fill="#fff"/>
    <rect id="Rectangle_711" data-name="Rectangle 711" width="53.189" height="27.481" transform="translate(611.329 261.343)" fill="#e6e6e6"/>
    <rect id="Rectangle_712" data-name="Rectangle 712" width="53.189" height="27.481" transform="translate(611.329 359.744)" fill="#e6e6e6"/>
    <circle id="Ellipse_352" data-name="Ellipse 352" cx="44.324" cy="44.324" r="44.324" transform="translate(593.599 279.96)" fill="#e6e6e6"/>
    <circle id="Ellipse_353" data-name="Ellipse 353" cx="34.573" cy="34.573" r="34.573" transform="translate(603.35 289.711)" fill="#fff"/>
    <rect id="Rectangle_713" data-name="Rectangle 713" width="26.813" height="1.532" transform="translate(626.602 314.812)" fill="#e2e2e2"/>
    <rect id="Rectangle_714" data-name="Rectangle 714" width="41.489" height="1.532" transform="translate(626.575 320.438)" fill="#01c98a"/>
    <rect id="Rectangle_715" data-name="Rectangle 715" width="32.559" height="1.532" transform="translate(626.575 325.738)" fill="#e2e2e2"/>
    <rect id="Rectangle_716" data-name="Rectangle 716" width="19.153" height="1.532" transform="translate(626.575 331.038)" fill="#e2e2e2"/>
    <rect id="Rectangle_717" data-name="Rectangle 717" width="28.729" height="1.532" transform="translate(626.575 336.339)" fill="#e2e2e2"/>
    <rect id="Rectangle_718" data-name="Rectangle 718" width="3.064" height="3.064" transform="translate(614.442 314.371)" fill="#e2e2e2"/>
    <rect id="Rectangle_719" data-name="Rectangle 719" width="3.064" height="3.064" transform="translate(614.442 319.672)" fill="#01c98a"/>
    <rect id="Rectangle_720" data-name="Rectangle 720" width="3.064" height="3.064" transform="translate(614.442 324.972)" fill="#e2e2e2"/>
    <rect id="Rectangle_721" data-name="Rectangle 721" width="3.064" height="3.064" transform="translate(614.442 330.272)" fill="#e2e2e2"/>
    <rect id="Rectangle_722" data-name="Rectangle 722" width="3.064" height="3.064" transform="translate(614.442 335.573)" fill="#e2e2e2"/>
  </g>
</svg>
