<svg width="60" height="60" viewBox="0 0 60 60" fill="none" xmlns="http://www.w3.org/2000/svg">
<g clip-path="url(#clip0_284_50)">
<path d="M60 30C60 13.4315 46.5685 0 30 0C13.4315 0 0 13.4315 0 30C0 46.5685 13.4315 60 30 60C46.5685 60 60 46.5685 60 30Z" fill="#F4F5FF"/>
<mask id="mask0_284_50" style="mask-type:luminance" maskUnits="userSpaceOnUse" x="18" y="18" width="24" height="24">
<path d="M42 18H18V42H42V18Z" fill="white"/>
</mask>
<g mask="url(#mask0_284_50)">
<path d="M39.8548 17.9019H19.9258C19.3624 17.9026 18.8224 18.1268 18.4241 18.5251C18.0257 18.9235 17.8016 19.4635 17.8008 20.0269V39.9559C17.8016 40.5192 18.0257 41.0592 18.4241 41.4576C18.8224 41.8559 19.3624 42.0801 19.9258 42.0809H39.8548C40.4181 42.0801 40.9582 41.8559 41.3565 41.4576C41.7548 41.0592 41.979 40.5192 41.9798 39.9559V20.0269C41.979 19.4635 41.7548 18.9235 41.3565 18.5251C40.9582 18.1268 40.4181 17.9026 39.8548 17.9019ZM40.5628 39.9559C40.5625 40.1435 40.4878 40.3235 40.3551 40.4562C40.2224 40.5889 40.0425 40.6636 39.8548 40.6639H19.9258C19.7381 40.6636 19.5582 40.5889 19.4254 40.4562C19.2927 40.3235 19.218 40.1435 19.2178 39.9559V24.9859H40.5638L40.5628 39.9559ZM40.5628 23.5689H19.2178V20.0269C19.218 19.8392 19.2927 19.6592 19.4254 19.5265C19.5582 19.3938 19.7381 19.3191 19.9258 19.3189H39.8548C40.0425 19.3191 40.2224 19.3938 40.3551 19.5265C40.4878 19.6592 40.5625 19.8392 40.5628 20.0269V23.5689Z" fill="#673DE6"/>
<path d="M22.3346 20.7358H21.3926C21.2047 20.7358 21.0245 20.8105 20.8916 20.9434C20.7587 21.0762 20.6841 21.2564 20.6841 21.4443C20.6841 21.6322 20.7587 21.8125 20.8916 21.9453C21.0245 22.0782 21.2047 22.1528 21.3926 22.1528H22.3376C22.5255 22.1528 22.7057 22.0782 22.8386 21.9453C22.9714 21.8125 23.0461 21.6322 23.0461 21.4443C23.0461 21.2564 22.9714 21.0762 22.8386 20.9434C22.7057 20.8105 22.5255 20.7358 22.3376 20.7358H22.3346Z" fill="#673DE6"/>
<path d="M26.113 20.7358H25.168C24.9801 20.7358 24.7999 20.8105 24.667 20.9434C24.5341 21.0762 24.4595 21.2564 24.4595 21.4443C24.4595 21.6322 24.5341 21.8125 24.667 21.9453C24.7999 22.0782 24.9801 22.1528 25.168 22.1528H26.113C26.3009 22.1528 26.4811 22.0782 26.614 21.9453C26.7468 21.8125 26.8215 21.6322 26.8215 21.4443C26.8215 21.2564 26.7468 21.0762 26.614 20.9434C26.4811 20.8105 26.3009 20.7358 26.113 20.7358Z" fill="#673DE6"/>
<path d="M29.8908 20.7358H28.9458C28.7579 20.7358 28.5777 20.8105 28.4448 20.9434C28.3119 21.0762 28.2373 21.2564 28.2373 21.4443C28.2373 21.6322 28.3119 21.8125 28.4448 21.9453C28.5777 22.0782 28.7579 22.1528 28.9458 22.1528H29.8908C30.0787 22.1528 30.2589 22.0782 30.3918 21.9453C30.5247 21.8125 30.5993 21.6322 30.5993 21.4443C30.5993 21.2564 30.5247 21.0762 30.3918 20.9434C30.2589 20.8105 30.0787 20.7358 29.8908 20.7358Z" fill="#673DE6"/>
<path d="M25.3919 35.7061C25.4259 35.7121 26.5919 35.7061 27.1279 35.7061C27.2532 35.7061 27.3734 35.6563 27.462 35.5677C27.5506 35.4791 27.6004 35.3589 27.6004 35.2336C27.6004 35.1083 27.5506 34.9881 27.462 34.8995C27.3734 34.8109 27.2532 34.7611 27.1279 34.7611C26.7139 34.7611 26.2689 34.7611 25.9489 34.7611V30.5111C25.9489 30.3858 25.8991 30.2656 25.8105 30.177C25.7219 30.0884 25.6017 30.0386 25.4764 30.0386C25.3511 30.0386 25.2309 30.0884 25.1423 30.177C25.0537 30.2656 25.0039 30.3858 25.0039 30.5111V35.2301C25.0035 35.3421 25.042 35.4507 25.1127 35.5375C25.1835 35.6243 25.2822 35.6839 25.3919 35.7061Z" fill="#673DE6"/>
<path d="M20.701 35.7057H22.315C22.6848 35.7038 23.0444 35.5846 23.3421 35.3651C23.6398 35.1457 23.8601 34.8375 23.9713 34.4848C24.0825 34.1321 24.0789 33.7533 23.9609 33.4028C23.843 33.0523 23.6168 32.7483 23.315 32.5347C23.4906 32.3033 23.5981 32.0275 23.6252 31.7383C23.6524 31.4491 23.5981 31.1581 23.4687 30.8981C23.3392 30.6381 23.1396 30.4195 22.8925 30.2669C22.6453 30.1144 22.3605 30.0339 22.07 30.0347H20.701C20.5758 30.0347 20.4558 30.0844 20.3672 30.1729C20.2787 30.2614 20.229 30.3815 20.229 30.5067V35.2297C20.229 35.2917 20.2412 35.353 20.2649 35.4103C20.2887 35.4676 20.3234 35.5196 20.3672 35.5634C20.4111 35.6073 20.4631 35.642 20.5204 35.6657C20.5776 35.6895 20.639 35.7017 20.701 35.7017V35.7057ZM21.173 30.9827H22.073C22.236 30.9827 22.3923 31.0474 22.5075 31.1627C22.6228 31.2779 22.6875 31.4342 22.6875 31.5972C22.6875 31.7601 22.6228 31.9164 22.5075 32.0317C22.3923 32.1469 22.236 32.2117 22.073 32.2117H21.173V30.9827ZM21.173 33.1587H22.312C22.5242 33.1587 22.7277 33.243 22.8777 33.393C23.0277 33.543 23.112 33.7465 23.112 33.9587C23.112 34.1708 23.0277 34.3743 22.8777 34.5244C22.7277 34.6744 22.5242 34.7587 22.312 34.7587H21.173V33.1587Z" fill="#673DE6"/>
<path d="M37.042 35.7057C37.3982 35.6994 37.7492 35.6192 38.0727 35.4701C38.3963 35.3209 38.6853 35.1062 38.9214 34.8394C39.1575 34.5726 39.3356 34.2597 39.4443 33.9204C39.553 33.5812 39.59 33.223 39.553 32.8687C39.553 32.7435 39.5032 32.6234 39.4147 32.5349C39.3262 32.4464 39.2062 32.3967 39.081 32.3967H37.668C37.5427 32.3967 37.4225 32.4465 37.3339 32.5351C37.2453 32.6237 37.1955 32.7439 37.1955 32.8692C37.1955 32.9945 37.2453 33.1147 37.3339 33.2033C37.4225 33.2919 37.5427 33.3417 37.668 33.3417H38.568C38.5406 33.7271 38.3679 34.0878 38.0849 34.3508C37.8018 34.6139 37.4294 34.7596 37.043 34.7587C36.7478 34.7585 36.4567 34.6891 36.1932 34.5562C35.9296 34.4232 35.7009 34.2303 35.5254 33.993C35.3498 33.7556 35.2323 33.4805 35.1823 33.1895C35.1324 32.8986 35.1513 32.6 35.2375 32.3177C35.3238 32.0354 35.475 31.7772 35.6791 31.5639C35.8831 31.3506 36.1344 31.188 36.4126 31.0894C36.6908 30.9907 36.9883 30.9586 37.2811 30.9956C37.574 31.0326 37.8541 31.1378 38.099 31.3027C38.2028 31.3728 38.3303 31.3988 38.4533 31.375C38.5763 31.3512 38.6848 31.2795 38.755 31.1757C38.8251 31.0718 38.8512 30.9444 38.8273 30.8214C38.8035 30.6983 38.7318 30.5898 38.628 30.5197C38.2607 30.2718 37.8404 30.1134 37.4008 30.0574C36.9613 30.0014 36.5147 30.0492 36.097 30.197C35.6793 30.3449 35.302 30.5886 34.9956 30.9087C34.6891 31.2287 34.462 31.6162 34.3324 32.0399C34.2028 32.4636 34.1744 32.9119 34.2494 33.3486C34.3245 33.7853 34.5009 34.1983 34.7645 34.5545C35.028 34.9107 35.3715 35.2001 35.7672 35.3995C36.1629 35.5989 36.5999 35.7027 37.043 35.7027L37.042 35.7057Z" fill="#673DE6"/>
<path d="M30.4317 35.7061C30.992 35.7061 31.5398 35.54 32.0058 35.2287C32.4718 34.9174 32.8351 34.475 33.0496 33.9573C33.2642 33.4396 33.3205 32.87 33.2114 32.3203C33.1023 31.7706 32.8327 31.2657 32.4367 30.8692C32.0406 30.4727 31.5359 30.2026 30.9864 30.0929C30.4368 29.9832 29.8671 30.0389 29.3492 30.253C28.8313 30.467 28.3885 30.8298 28.0767 31.2954C27.765 31.7611 27.5982 32.3087 27.5977 32.8691C27.5977 33.621 27.8961 34.3421 28.4275 34.8741C28.9589 35.406 29.6798 35.7053 30.4317 35.7061ZM30.4317 30.9831C30.8054 30.9831 31.1707 31.094 31.4814 31.3017C31.7921 31.5093 32.0343 31.8045 32.1771 32.1499C32.32 32.4952 32.3573 32.8752 32.2841 33.2417C32.211 33.6082 32.0308 33.9448 31.7663 34.2089C31.5018 34.4729 31.165 34.6526 30.7983 34.7252C30.4317 34.7977 30.0518 34.7599 29.7067 34.6164C29.3616 34.473 29.0668 34.2304 28.8596 33.9194C28.6523 33.6083 28.5421 33.2428 28.5427 32.8691C28.5442 32.3689 28.7439 31.8898 29.0979 31.5365C29.452 31.1833 29.9315 30.9836 30.4317 30.9831Z" fill="#673DE6"/>
</g>
</g>
<defs>
<clipPath id="clip0_284_50">
<rect width="60" height="60" fill="white"/>
</clipPath>
</defs>
</svg>
