<svg width="60" height="60" viewBox="0 0 60 60" fill="none" xmlns="http://www.w3.org/2000/svg">
<g clip-path="url(#clip0_284_37)">
<path d="M60 30C60 13.4315 46.5685 0 30 0C13.4315 0 0 13.4315 0 30C0 46.5685 13.4315 60 30 60C46.5685 60 60 46.5685 60 30Z" fill="#F4F5FF"/>
<mask id="mask0_284_37" style="mask-type:luminance" maskUnits="userSpaceOnUse" x="18" y="18" width="24" height="24">
<path d="M42 18H18V42H42V18Z" fill="white"/>
</mask>
<g mask="url(#mask0_284_37)">
<path d="M39.2729 24.038L33.4799 18.245C33.3255 18.0898 33.1159 18.002 32.8969 18.001H21.3109C21.0913 18.001 20.8807 18.0882 20.7254 18.2435C20.5701 18.3988 20.4829 18.6094 20.4829 18.829V41.173C20.4829 41.3926 20.5701 41.6032 20.7254 41.7585C20.8807 41.9137 21.0913 42.001 21.3109 42.001H38.6899C38.9095 42.001 39.1201 41.9137 39.2754 41.7585C39.4307 41.6032 39.5179 41.3926 39.5179 41.173V24.621C39.5166 24.4019 39.4285 24.1922 39.2729 24.038ZM33.7249 20.827L36.6919 23.794H33.7249V20.827ZM22.1379 40.345V19.659H32.0689V24.621C32.0689 24.8406 32.1561 25.0512 32.3114 25.2065C32.4667 25.3617 32.6773 25.449 32.8969 25.449H37.8589V40.349L22.1379 40.345Z" fill="#673DE6"/>
<path d="M34.5521 36.207H25.4491C25.338 36.2032 25.2272 36.2217 25.1235 36.2616C25.0197 36.3014 24.925 36.3618 24.8451 36.439C24.7651 36.5162 24.7015 36.6087 24.6581 36.711C24.6147 36.8134 24.5923 36.9234 24.5923 37.0345C24.5923 37.1457 24.6147 37.2557 24.6581 37.358C24.7015 37.4604 24.7651 37.5529 24.8451 37.6301C24.925 37.7073 25.0197 37.7677 25.1235 37.8075C25.2272 37.8474 25.338 37.8659 25.4491 37.862H34.5491C34.7635 37.8546 34.9668 37.7641 35.1159 37.6098C35.265 37.4554 35.3483 37.2492 35.3483 37.0345C35.3483 36.8199 35.265 36.6137 35.1159 36.4593C34.9668 36.3049 34.7635 36.2145 34.5491 36.207H34.5521Z" fill="#673DE6"/>
<path d="M34.5521 32.0689H25.4491C25.338 32.065 25.2272 32.0835 25.1235 32.1234C25.0197 32.1632 24.925 32.2236 24.8451 32.3008C24.7651 32.378 24.7015 32.4705 24.6581 32.5729C24.6147 32.6752 24.5923 32.7852 24.5923 32.8964C24.5923 33.0075 24.6147 33.1175 24.6581 33.2199C24.7015 33.3222 24.7651 33.4147 24.8451 33.4919C24.925 33.5692 25.0197 33.6295 25.1235 33.6693C25.2272 33.7092 25.338 33.7277 25.4491 33.7239H34.5491C34.7635 33.7164 34.9668 33.626 35.1159 33.4716C35.265 33.3172 35.3483 33.111 35.3483 32.8964C35.3483 32.6817 35.265 32.4755 35.1159 32.3211C34.9668 32.1668 34.7635 32.0763 34.5491 32.0689H34.5521Z" fill="#673DE6"/>
<path d="M34.5521 27.9312H25.4491C25.2346 27.9386 25.0314 28.0291 24.8823 28.1834C24.7332 28.3378 24.6499 28.544 24.6499 28.7587C24.6499 28.9733 24.7332 29.1795 24.8823 29.3339C25.0314 29.4882 25.2346 29.5787 25.4491 29.5862H34.5491C34.7636 29.5787 34.9668 29.4882 35.1159 29.3339C35.265 29.1795 35.3484 28.9733 35.3484 28.7587C35.3484 28.544 35.265 28.3378 35.1159 28.1834C34.9668 28.0291 34.7636 27.9386 34.5491 27.9312H34.5521Z" fill="#673DE6"/>
<path d="M25.4491 25.4489H28.7591C28.9736 25.4415 29.1768 25.351 29.3259 25.1967C29.475 25.0423 29.5584 24.8361 29.5584 24.6214C29.5584 24.4068 29.475 24.2006 29.3259 24.0462C29.1768 23.8919 28.9736 23.8014 28.7591 23.7939H25.4491C25.2346 23.8014 25.0314 23.8919 24.8823 24.0462C24.7332 24.2006 24.6499 24.4068 24.6499 24.6214C24.6499 24.8361 24.7332 25.0423 24.8823 25.1967C25.0314 25.351 25.2346 25.4415 25.4491 25.4489Z" fill="#673DE6"/>
</g>
</g>
<defs>
<clipPath id="clip0_284_37">
<rect width="60" height="60" fill="white"/>
</clipPath>
</defs>
</svg>
