<svg width="60" height="60" viewBox="0 0 60 60" fill="none" xmlns="http://www.w3.org/2000/svg">
<g clip-path="url(#clip0_284_19)">
<path d="M60 30C60 13.4315 46.5685 0 30 0C13.4315 0 0 13.4315 0 30C0 46.5685 13.4315 60 30 60C46.5685 60 60 46.5685 60 30Z" fill="#F4F5FF"/>
<mask id="mask0_284_19" style="mask-type:luminance" maskUnits="userSpaceOnUse" x="18" y="18" width="24" height="24">
<path d="M42 18H18V42H42V18Z" fill="white"/>
</mask>
<g mask="url(#mask0_284_19)">
<path d="M40.238 29.2001C40.7051 29.1996 41.153 29.0138 41.4833 28.6834C41.8137 28.3531 41.9995 27.9052 42 27.4381V21.3621C41.9995 20.8949 41.8137 20.4471 41.4833 20.1168C41.153 19.7864 40.7051 19.6006 40.238 19.6001H19.762C19.2949 19.6006 18.847 19.7864 18.5167 20.1168C18.1863 20.4471 18.0005 20.8949 18 21.3621V27.4401C18.0011 27.9069 18.1871 28.3543 18.5174 28.6841C18.8476 29.014 19.2952 29.1996 19.762 29.2001H20.4V30.8001H19.762C19.2949 30.8006 18.847 30.9864 18.5167 31.3168C18.1863 31.6471 18.0005 32.0949 18 32.5621V38.6401C18.0011 39.1069 18.1871 39.5543 18.5174 39.8841C18.8476 40.214 19.2952 40.3996 19.762 40.4001H40.239C40.706 40.3993 41.1536 40.2134 41.4837 39.8831C41.8138 39.5528 41.9995 39.1051 42 38.6381V32.5611C41.9992 32.0941 41.8133 31.6465 41.483 31.3164C41.1527 30.9863 40.705 30.8006 40.238 30.8001H39.6V29.2001H40.238ZM19.6 27.4381V21.3621C19.5999 21.3408 19.604 21.3197 19.6121 21.2999C19.6202 21.2802 19.6321 21.2623 19.6472 21.2473C19.6622 21.2322 19.6801 21.2203 19.6998 21.2122C19.7196 21.2041 19.7407 21.2 19.762 21.2001H40.239C40.2602 21.2001 40.2812 21.2043 40.3008 21.2124C40.3204 21.2206 40.3382 21.2325 40.3532 21.2476C40.3682 21.2627 40.38 21.2805 40.388 21.3002C40.3961 21.3198 40.4001 21.3409 40.4 21.3621V27.4401C40.4 27.4613 40.3958 27.4823 40.3876 27.5019C40.3795 27.5215 40.3675 27.5393 40.3525 27.5543C40.3374 27.5693 40.3196 27.5811 40.2999 27.5891C40.2803 27.5972 40.2592 27.6012 40.238 27.6011H19.762C19.7407 27.6012 19.7196 27.5971 19.6998 27.589C19.6801 27.5809 19.6622 27.569 19.6472 27.5539C19.6321 27.5389 19.6202 27.521 19.6121 27.5012C19.604 27.4815 19.5999 27.4604 19.6 27.4391V27.4381ZM40.4 32.5611V38.6391C40.4 38.6603 40.3958 38.6813 40.3876 38.7009C40.3795 38.7205 40.3675 38.7383 40.3525 38.7533C40.3374 38.7683 40.3196 38.7801 40.2999 38.7881C40.2803 38.7962 40.2592 38.8002 40.238 38.8001H19.762C19.7407 38.8002 19.7196 38.7961 19.6998 38.788C19.6801 38.7799 19.6622 38.768 19.6472 38.7529C19.6321 38.7379 19.6202 38.72 19.6121 38.7002C19.604 38.6805 19.5999 38.6594 19.6 38.6381V32.5611C19.6 32.5399 19.6042 32.5189 19.6124 32.4993C19.6205 32.4797 19.6325 32.4619 19.6475 32.4469C19.6626 32.4319 19.6804 32.4201 19.7001 32.4121C19.7197 32.404 19.7408 32.4 19.762 32.4001H40.238C40.2593 32.4 40.2804 32.4041 40.3002 32.4122C40.3199 32.4203 40.3378 32.4322 40.3528 32.4473C40.3679 32.4623 40.3798 32.4802 40.3879 32.4999C40.396 32.5197 40.4001 32.5398 40.4 32.5611ZM38 30.8001H22V29.2001H38V30.8001Z" fill="#673DE6"/>
<path d="M28.4001 36.4003C28.8419 36.4003 29.2001 36.0421 29.2001 35.6003C29.2001 35.1585 28.8419 34.8003 28.4001 34.8003C27.9583 34.8003 27.6001 35.1585 27.6001 35.6003C27.6001 36.0421 27.9583 36.4003 28.4001 36.4003Z" fill="#673DE6"/>
<path d="M25.1999 36.4003C25.6417 36.4003 25.9999 36.0421 25.9999 35.6003C25.9999 35.1585 25.6417 34.8003 25.1999 34.8003C24.7581 34.8003 24.3999 35.1585 24.3999 35.6003C24.3999 36.0421 24.7581 36.4003 25.1999 36.4003Z" fill="#673DE6"/>
<path d="M22.0002 36.4003C22.442 36.4003 22.8002 36.0421 22.8002 35.6003C22.8002 35.1585 22.442 34.8003 22.0002 34.8003C21.5584 34.8003 21.2002 35.1585 21.2002 35.6003C21.2002 36.0421 21.5584 36.4003 22.0002 36.4003Z" fill="#673DE6"/>
<path d="M38.0001 34.8003H32.4001C32.1879 34.8003 31.9844 34.8846 31.8344 35.0346C31.6844 35.1846 31.6001 35.3881 31.6001 35.6003C31.6001 35.8125 31.6844 36.0159 31.8344 36.166C31.9844 36.316 32.1879 36.4003 32.4001 36.4003H38.0001C38.2123 36.4003 38.4158 36.316 38.5658 36.166C38.7158 36.0159 38.8001 35.8125 38.8001 35.6003C38.8001 35.3881 38.7158 35.1846 38.5658 35.0346C38.4158 34.8846 38.2123 34.8003 38.0001 34.8003Z" fill="#673DE6"/>
<path d="M28.4001 25.2001C28.8419 25.2001 29.2001 24.8419 29.2001 24.4001C29.2001 23.9583 28.8419 23.6001 28.4001 23.6001C27.9583 23.6001 27.6001 23.9583 27.6001 24.4001C27.6001 24.8419 27.9583 25.2001 28.4001 25.2001Z" fill="#673DE6"/>
<path d="M25.1999 25.2001C25.6417 25.2001 25.9999 24.8419 25.9999 24.4001C25.9999 23.9583 25.6417 23.6001 25.1999 23.6001C24.7581 23.6001 24.3999 23.9583 24.3999 24.4001C24.3999 24.8419 24.7581 25.2001 25.1999 25.2001Z" fill="#673DE6"/>
<path d="M22.0002 25.2001C22.442 25.2001 22.8002 24.8419 22.8002 24.4001C22.8002 23.9583 22.442 23.6001 22.0002 23.6001C21.5584 23.6001 21.2002 23.9583 21.2002 24.4001C21.2002 24.8419 21.5584 25.2001 22.0002 25.2001Z" fill="#673DE6"/>
<path d="M32.4001 25.2001H38.0001C38.2123 25.2001 38.4158 25.1158 38.5658 24.9658C38.7158 24.8158 38.8001 24.6123 38.8001 24.4001C38.8001 24.1879 38.7158 23.9844 38.5658 23.8344C38.4158 23.6844 38.2123 23.6001 38.0001 23.6001H32.4001C32.1879 23.6001 31.9844 23.6844 31.8344 23.8344C31.6844 23.9844 31.6001 24.1879 31.6001 24.4001C31.6001 24.6123 31.6844 24.8158 31.8344 24.9658C31.9844 25.1158 32.1879 25.2001 32.4001 25.2001Z" fill="#673DE6"/>
</g>
</g>
<defs>
<clipPath id="clip0_284_19">
<rect width="60" height="60" fill="white"/>
</clipPath>
</defs>
</svg>
