<svg xmlns="http://www.w3.org/2000/svg" xmlns:xlink="http://www.w3.org/1999/xlink" width="60" height="60" viewBox="0 0 60 60">
  <defs>
    <clipPath id="clip-path">
      <rect id="Rectangle_675" data-name="Rectangle 675" width="24" height="24" transform="translate(15 15)" fill="#07ca8d"/>
    </clipPath>
  </defs>
  <g id="Group_5099" data-name="Group 5099" transform="translate(3 3)">
    <rect id="Rectangle_27" data-name="Rectangle 27" width="60" height="60" rx="30" transform="translate(-3 -3)" fill="#f5f5f5"/>
    <g id="Mask_Group_123" data-name="Mask Group 123" clip-path="url(#clip-path)">
      <g id="login" transform="translate(15 15)">
        <g id="Group_5074" data-name="Group 5074">
          <path id="Path_3246" data-name="Path 3246" d="M12,0A12,12,0,1,0,24,12,12.014,12.014,0,0,0,12,0Zm4.261,21.378a10.293,10.293,0,0,1-8.521,0V17.225A2.125,2.125,0,0,1,9.862,15.1h4.276a2.125,2.125,0,0,1,2.123,2.123v4.153Zm1.7-.98V17.225A3.826,3.826,0,0,0,14.138,13.4h-.212a4.466,4.466,0,1,0-3.851,0H9.862A3.826,3.826,0,0,0,6.04,17.225V20.4a10.3,10.3,0,1,1,11.919,0ZM12,12.142a2.767,2.767,0,1,1,2.767-2.767A2.77,2.77,0,0,1,12,12.142Z" fill="#07ca8d"/>
        </g>
      </g>
    </g>
  </g>
</svg>
