<svg width="60" height="60" viewBox="0 0 60 60" fill="none" xmlns="http://www.w3.org/2000/svg">
<g clip-path="url(#clip0_284_11)">
<path d="M60 30C60 13.4315 46.5685 0 30 0C13.4315 0 0 13.4315 0 30C0 46.5685 13.4315 60 30 60C46.5685 60 60 46.5685 60 30Z" fill="#F4F5FF"/>
<mask id="mask0_284_11" style="mask-type:luminance" maskUnits="userSpaceOnUse" x="17" y="17" width="26" height="26">
<path d="M43 17H17V43H43V17Z" fill="white"/>
</mask>
<g mask="url(#mask0_284_11)">
<path d="M42.7862 29.9889L38.4162 25.4739C38.3452 25.4005 38.2602 25.3422 38.1663 25.3024C38.0723 25.2625 37.9713 25.2419 37.8692 25.2419H35.0762V21.9549C35.0762 21.8548 35.0565 21.7557 35.0182 21.6633C34.9799 21.5708 34.9238 21.4868 34.853 21.4161C34.7823 21.3453 34.6983 21.2892 34.6058 21.2509C34.5134 21.2126 34.4143 21.1929 34.3142 21.1929H20.1672C20.0672 21.1929 19.9681 21.2126 19.8756 21.2509C19.7832 21.2892 19.6992 21.3453 19.6284 21.4161C19.5577 21.4868 19.5015 21.5708 19.4632 21.6633C19.4249 21.7557 19.4052 21.8548 19.4052 21.9549V24.2409H18.8282C18.631 24.248 18.4443 24.3314 18.3073 24.4734C18.1704 24.6154 18.0938 24.8051 18.0938 25.0024C18.0938 25.1997 18.1704 25.3893 18.3073 25.5313C18.4443 25.6734 18.631 25.7567 18.8282 25.7639H19.4002V27.2879H17.7622C17.565 27.295 17.3783 27.3784 17.2413 27.5204C17.1044 27.6624 17.0278 27.8521 17.0278 28.0494C17.0278 28.2467 17.1044 28.4363 17.2413 28.5783C17.3783 28.7204 17.565 28.8037 17.7622 28.8109H19.4002V35.8109C19.4002 36.013 19.4805 36.2068 19.6234 36.3497C19.7663 36.4926 19.9601 36.5729 20.1622 36.5729H21.7882C21.983 37.2194 22.3807 37.786 22.9224 38.1891C23.4641 38.5922 24.1211 38.8103 24.7963 38.8112C25.4715 38.8121 26.129 38.5957 26.6718 38.1941C27.2146 37.7924 27.6137 37.2268 27.8102 36.5809H35.0842C35.2807 37.2257 35.6791 37.7903 36.2207 38.1916C36.7624 38.5928 37.4187 38.8094 38.0927 38.8094C38.7668 38.8094 39.4231 38.5928 39.9647 38.1916C40.5064 37.7903 40.9048 37.2257 41.1012 36.5809H42.2392C42.3395 36.5807 42.4387 36.5608 42.5312 36.5223C42.6238 36.4838 42.7078 36.4273 42.7785 36.3563C42.8492 36.2852 42.9051 36.2009 42.9432 36.1082C42.9812 36.0154 43.0006 35.9161 43.0002 35.8159V30.5159C43.0004 30.3181 42.9236 30.1281 42.7862 29.9859V29.9889ZM40.4412 29.7569H35.0552V26.7649H37.5462L40.4412 29.7569ZM20.9282 28.8119H24.8932C25.0904 28.8047 25.2771 28.7214 25.4141 28.5793C25.5511 28.4373 25.6276 28.2477 25.6276 28.0504C25.6276 27.8531 25.5511 27.6634 25.4141 27.5214C25.2771 27.3794 25.0904 27.296 24.8932 27.2889H20.9282V25.7649H25.4522C25.6494 25.7577 25.8361 25.6744 25.9731 25.5323C26.1101 25.3903 26.1866 25.2007 26.1866 25.0034C26.1866 24.8061 26.1101 24.6164 25.9731 24.4744C25.8361 24.3324 25.6494 24.249 25.4522 24.2419H20.9282V22.7169H33.5532L33.5322 35.0539H27.8882C27.7481 34.3388 27.3641 33.6945 26.8018 33.2311C26.2395 32.7676 25.5337 32.5138 24.805 32.5128C24.0763 32.5119 23.3699 32.7639 22.8064 33.2259C22.2429 33.6879 21.8572 34.3312 21.7152 35.0459H20.9282V28.8119ZM25.9482 36.8119C25.721 37.0382 25.4318 37.1921 25.1171 37.2542C24.8025 37.3163 24.4765 37.2837 24.1803 37.1607C23.8842 37.0376 23.6311 36.8296 23.453 36.5629C23.275 36.2961 23.18 35.9826 23.18 35.6619C23.18 35.3412 23.275 35.0276 23.453 34.7609C23.6311 34.4941 23.8842 34.2861 24.1803 34.1631C24.4765 34.04 24.8025 34.0075 25.1171 34.0696C25.4318 34.1316 25.721 34.2856 25.9482 34.5119C26.1003 34.6618 26.2211 34.8404 26.3035 35.0373C26.386 35.2343 26.4285 35.4456 26.4286 35.6592C26.4287 35.8727 26.3863 36.0841 26.3041 36.2811C26.2218 36.4781 26.1012 36.6568 25.9492 36.8069L25.9482 36.8119ZM39.2392 36.8119C38.9738 37.0775 38.6245 37.2428 38.2509 37.2797C37.8772 37.3167 37.5023 37.2229 37.19 37.0144C36.8777 36.8059 36.6474 36.4956 36.5383 36.1363C36.4292 35.777 36.448 35.391 36.5915 35.0441C36.7351 34.6971 36.9945 34.4107 37.3256 34.2336C37.6567 34.0564 38.0389 33.9996 38.4072 34.0727C38.7755 34.1458 39.1071 34.3443 39.3454 34.6344C39.5837 34.9246 39.7141 35.2884 39.7142 35.6639C39.7149 35.8771 39.6733 36.0884 39.5918 36.2855C39.5102 36.4825 39.3904 36.6615 39.2392 36.8119ZM41.1782 35.0589C41.0423 34.3608 40.6738 33.7294 40.1327 33.2678C39.5917 32.8062 38.9102 32.5417 38.1994 32.5175C37.4886 32.4932 36.7906 32.7106 36.2194 33.1343C35.6481 33.5579 35.2374 34.1627 35.0542 34.8499V31.2799H41.4762V35.0539L41.1782 35.0589Z" fill="#673DE6"/>
</g>
</g>
<defs>
<clipPath id="clip0_284_11">
<rect width="60" height="60" fill="white"/>
</clipPath>
</defs>
</svg>
