<svg xmlns="http://www.w3.org/2000/svg" width="281.566" height="228.381" viewBox="0 0 281.566 228.381">
  <g id="undraw_certification_aif8" transform="translate(0.001 0)">
    <path id="Path_2537" data-name="Path 2537" d="M381.519,674.575a288.558,288.558,0,0,1-39.186-2.568c-.424-.054-.854-.115-1.281-.178-3.188-.454-6.378-.972-9.479-1.541a204.736,204.736,0,0,1-39.114-11.079c-39.93-15.972-65.035-12.573-79.064-6.909-15.183,6.13-21.019,16.159-21.076,16.259l-.5-.283c.058-.1,5.97-10.281,21.318-16.491,9-3.642,19.439-5.233,31.032-4.732,14.471.627,30.79,4.537,48.5,11.622a204.194,204.194,0,0,0,39,11.048c3.094.567,6.276,1.085,9.458,1.537.425.063.851.123,1.274.178,35.208,4.843,69.174,1.922,91.468-1.38a293.3,293.3,0,0,0,30.32-5.937l.15.554a293.777,293.777,0,0,1-30.386,5.951,362.059,362.059,0,0,1-52.442,3.949Z" transform="translate(-191.82 -464.84)" fill="#3f3d56"/>
    <path id="Path_2538" data-name="Path 2538" d="M381.557,196.723c-10.123,0-19.977-.474-29.485-1.421-21.848-2.176-41.905-6.871-59.614-13.954-39.929-15.972-65.035-12.573-79.064-6.909-15.183,6.13-21.019,16.159-21.076,16.259l-.5-.283c.058-.1,5.97-10.28,21.318-16.491,9-3.642,19.439-5.234,31.032-4.732,14.471.627,30.79,4.537,48.5,11.622,39.992,16,84.495,16.626,114.785,14.338,32.831-2.481,56.5-8.829,56.74-8.893l.15.554c-.236.064-23.952,6.425-56.834,8.91C398.708,196.391,390.038,196.723,381.557,196.723Z" transform="translate(-191.819 -151.794)" fill="#3f3d56"/>
    <path id="Path_2539" data-name="Path 2539" d="M667.179,121.7s-11.289-4.032-18.546,12.1-18.546,33.867-18.546,33.867l6.451,1.613s1.613-11.289,5.645-12.9l-1.613,14.515s48.382,16.934,70.154-1.613l-.806-5.645s3.225.806,3.225,5.645l2.419-2.419s-2.419-4.838-9.676-11.289c-4.763-4.234-6.4-12.289-6.963-17.326a20.966,20.966,0,0,0-4.827-11.418C689.272,121.23,680.484,115.29,667.179,121.7Z" transform="translate(-478.927 -118.919)" fill="#2f2e41"/>
    <path id="Path_2540" data-name="Path 2540" d="M881.062,391.56s21.244,18.12,24.368,28.741-11.871,11.871-11.871,11.871L861.068,435.3s-.625,15-6.248,16.87-1.142-24.8-1.142-24.8l31.758-8.943-14.371-15Z" transform="translate(-624.293 -297.526)" fill="#fbbebe"/>
    <path id="Path_2541" data-name="Path 2541" d="M605.705,445.907l-2.5,33.115L589.46,535.255s-12.5,25.617-1.875,26.242,10-24.368,10-24.368l19.994-53.109,1.874-36.239Z" transform="translate(-448.282 -333.128)" fill="#fbbebe"/>
    <circle id="Ellipse_227" data-name="Ellipse 227" cx="20.619" cy="20.619" r="20.619" transform="translate(171.794 13.434)" fill="#fbbebe"/>
    <path id="Path_2542" data-name="Path 2542" d="M710.23,246.635s7.5,26.867-4.374,33.74,29.991,11.872,41.238-8.747c0,0-19.994-6.873-14.371-24.993Z" transform="translate(-527.19 -202.586)" fill="#fbbebe"/>
    <path id="Path_2543" data-name="Path 2543" d="M657.123,351.143l-3.749-1.25s-7.5,3.124-7.5,8.747-1.25,28.117-1.25,28.117l16.87,1.874Z" transform="translate(-488.453 -270.23)" fill="#07ca8d"/>
    <path id="Path_2544" data-name="Path 2544" d="M719.87,605.007c-23.065,3.417-56.683,6.176-91.547,1.381,0-.345,0-.68,0-1.008q0-2.924.224-5.783c1.786-23.465,13.874-43.027,18.552-49.806.235-.344.454-.655.649-.93.755-1.06,1.194-1.619,1.194-1.619s36.239-.592,54.983,6.906a8.064,8.064,0,0,1,2.441,1.6C713.352,562.192,717.458,583.13,719.87,605.007Z" transform="translate(-477.77 -399.505)" fill="#2f2e41"/>
    <path id="Path_2545" data-name="Path 2545" d="M847.648,326.219s8.122-4.374,16.245,5l16.245,18.744-12.5,13.746L843.9,349.337Z" transform="translate(-618.995 -254.053)" fill="#07ca8d"/>
    <path id="Path_2546" data-name="Path 2546" d="M683.684,171.384c7.3-5.283,13.208-11.367,17.116-18.6,0,0,13.4,14.884,21.581,15.628s.744-17.861.744-17.861l-14.884-3.721-14.14,1.488-11.163,7.442Z" transform="translate(-513.552 -137.201)" fill="#2f2e41"/>
    <path id="Path_2547" data-name="Path 2547" d="M721.848,315.474S713.1,329.3,686.86,322.7l-14.892,4.1-1.979.545s1.875,37.489,6.873,44.362,3.749,10.622,2.5,11.247-4.374-.625-2.5,2.5,4.374,1.25,1.874,3.124-3.749,8.747-3.749,8.747l58.733,7.5s-1.875-24.368,3.124-36.864,6.248-17.495,6.248-17.495l-3.749-31.241Z" transform="translate(-505.067 -247.682)" fill="#07ca8d"/>
    <rect id="Rectangle_572" data-name="Rectangle 572" width="80.397" height="100.497" transform="translate(14.319 55.56)" fill="#e6e6e6"/>
    <rect id="Rectangle_573" data-name="Rectangle 573" width="17.228" height="11.485" transform="translate(19.918 64.031)" fill="#fff"/>
    <rect id="Rectangle_574" data-name="Rectangle 574" width="66.615" height="4.02" transform="translate(20.061 86.427)" fill="#fff"/>
    <rect id="Rectangle_575" data-name="Rectangle 575" width="66.615" height="4.02" transform="translate(20.061 97.051)" fill="#fff"/>
    <rect id="Rectangle_576" data-name="Rectangle 576" width="66.615" height="4.02" transform="translate(20.061 107.675)" fill="#fff"/>
    <rect id="Rectangle_577" data-name="Rectangle 577" width="66.615" height="4.02" transform="translate(20.061 118.3)" fill="#fff"/>
    <rect id="Rectangle_578" data-name="Rectangle 578" width="66.615" height="4.02" transform="translate(20.061 128.923)" fill="#fff"/>
    <path id="Path_2548" data-name="Path 2548" d="M452.4,541.029a15.748,15.748,0,1,1-2.441-8.436A15.748,15.748,0,0,1,452.4,541.029Z" transform="translate(-341.89 -385.114)" fill="#07ca8d"/>
    <path id="Path_2549" data-name="Path 2549" d="M463.429,542.046l-15.545,15.543c-.977-1.513-6.42-8.542-6.42-8.542a22.034,22.034,0,0,1,2.228-1.967L448.2,553.1l13.4-13.4a15.739,15.739,0,0,1,1.82,2.352Z" transform="translate(-355.361 -394.568)" fill="#fff"/>
  </g>
</svg>
