<svg xmlns="http://www.w3.org/2000/svg" xmlns:xlink="http://www.w3.org/1999/xlink" width="60" height="60" viewBox="0 0 60 60">
  <defs>
    <clipPath id="clip-path">
      <rect id="Rectangle_675" data-name="Rectangle 675" width="24" height="24" transform="translate(15 15)" fill="#07ca8d"/>
    </clipPath>
  </defs>
  <g id="Group_5100" data-name="Group 5100" transform="translate(3 3)">
    <rect id="Rectangle_27" data-name="Rectangle 27" width="60" height="60" rx="30" transform="translate(-3 -3)" fill="#f5f5f5"/>
    <g id="Mask_Group_124" data-name="Mask Group 124" clip-path="url(#clip-path)">
      <path id="intranet" d="M21.7,17.8V14.3h-9V11.656H17.75a2.954,2.954,0,0,0,1.656-5.4A4.829,4.829,0,0,0,12.84,1.091,4.577,4.577,0,0,0,5.3,4.578c0,.029,0,.057,0,.086A3.7,3.7,0,0,0,7,11.656h4.3V14.3h-9v3.5H0V24H6.2V17.8H3.7V15.7H11.3V17.8H8.9V24h6.2V17.8H12.7V15.7H20.3V17.8H17.8V24H24V17.8ZM6.263,5.778l.55-.186-.079-.576A3.22,3.22,0,0,1,6.7,4.578,3.176,3.176,0,0,1,9.875,1.406a3.142,3.142,0,0,1,2.313,1l.367.391.474-.25a3.38,3.38,0,0,1,1.6-.394,3.425,3.425,0,0,1,3.31,4.292l-.155.591.564.235a1.547,1.547,0,0,1-.595,2.975H7a2.3,2.3,0,0,1-.737-4.472ZM4.8,22.594H1.406V19.2H4.8Zm8.9,0H10.3V19.2H13.7Zm8.9,0H19.2V19.2h3.391Zm0,0" transform="translate(15 15)" fill="#07ca8d"/>
    </g>
  </g>
</svg>
