<svg width="421" height="328" viewBox="0 0 421 328" fill="none" xmlns="http://www.w3.org/2000/svg">
<g clip-path="url(#clip0_406_850)">
<path d="M78.5824 262.152C63.1038 241.416 52.6175 217.005 48.2555 191.56C46.0308 178.595 45.3852 165.381 46.334 152.285C47.3111 138.798 49.985 125.391 54.2816 112.435C58.7832 98.8601 65.0034 85.9672 72.77 74.1123C80.3032 62.6114 89.2955 52.0785 99.4939 42.8066C119.577 24.5533 144.126 11.4331 170.49 4.86426L172.111 11.3566C146.817 17.6588 123.267 30.2458 104.002 47.7561C84.1352 65.8149 69.1408 88.9064 60.6414 114.539C56.5193 126.969 53.9523 139.831 53.0166 152.768C52.1071 165.326 52.7265 177.996 54.8574 190.428C59.0427 214.84 69.1037 238.257 83.952 258.151L78.5824 262.152Z" fill="url(#paint0_linear_406_850)"/>
<path d="M158.437 319.646C136.752 312.465 117.21 301.147 100.359 286.008L104.839 281.032C120.998 295.551 139.74 306.405 160.544 313.293C197.981 325.688 238.406 323.649 274.373 307.55C310.111 291.552 338.43 263.098 354.109 227.426L360.242 230.116C343.893 267.311 314.369 296.98 277.111 313.658C239.615 330.443 197.469 332.569 158.437 319.648V319.646Z" fill="url(#paint1_linear_406_850)"/>
<path d="M364.203 195.922C372.032 158.408 365.81 119.338 346.683 85.9081C327.407 52.2204 296.469 26.9394 259.569 14.7217C239.397 8.04362 218.52 5.51093 197.519 7.19794L196.982 0.526401C218.882 -1.23053 240.646 1.40705 261.673 8.36922C300.144 21.107 332.399 47.4631 352.495 82.5865C372.436 117.437 378.922 158.172 370.757 197.288L364.2 195.922H364.203Z" fill="url(#paint2_linear_406_850)"/>
<path d="M171.467 15.5279C175.536 15.5279 178.835 12.2317 178.835 8.16578C178.835 4.09982 175.536 0.803711 171.467 0.803711C167.398 0.803711 164.1 4.09982 164.1 8.16578C164.1 12.2317 167.398 15.5279 171.467 15.5279Z" fill="url(#paint3_linear_406_850)"/>
<path d="M102.495 291.198C106.564 291.198 109.863 287.902 109.863 283.836C109.863 279.77 106.564 276.474 102.495 276.474C98.4264 276.474 95.1279 279.77 95.1279 283.836C95.1279 287.902 98.4264 291.198 102.495 291.198Z" fill="url(#paint4_linear_406_850)"/>
<path d="M374.868 197.738C373.588 201.597 369.42 203.688 365.557 202.41C361.695 201.131 359.601 196.966 360.881 193.107C362.161 189.248 366.329 187.157 370.192 188.435C374.054 189.713 376.148 193.878 374.868 197.738Z" fill="url(#paint5_linear_406_850)"/>
<path d="M170.27 293.954C148.63 286.789 129.129 274.149 113.88 257.401C99.097 241.167 88.4711 221.319 83.1494 200.004L89.555 198.409C94.6128 218.668 104.711 237.533 118.763 252.963C133.252 268.876 151.781 280.884 172.346 287.693C191.958 294.186 213.013 295.787 233.236 292.328C252.823 288.976 271.613 280.917 287.575 269.022L291.521 274.311C274.727 286.823 254.958 295.302 234.35 298.829C213.061 302.472 190.902 300.787 170.268 293.956L170.27 293.954Z" fill="#D8DBFE"/>
<path d="M311.388 255.655L306.407 251.18C318.228 238.047 327.063 222.816 332.67 205.908C342.762 175.483 341.1 142.63 327.994 113.401C314.971 84.3566 291.805 61.3417 262.765 48.5996L265.458 42.4722C296.023 55.8852 320.402 80.102 334.108 110.665C347.9 141.424 349.647 175.997 339.03 208.013C333.131 225.803 323.831 241.832 311.388 255.655Z" fill="#D8DBFE"/>
<path d="M76.7957 176.395C75.3518 158.43 77.5198 140.576 83.2405 123.326C93.7072 91.7669 115.367 65.308 144.228 48.8247C172.867 32.4682 206.339 27.1472 238.483 33.8449L237.115 40.3963C206.574 34.0329 174.767 39.0895 147.552 54.6353C120.126 70.3013 99.5458 95.4424 89.5982 125.433C84.1609 141.826 82.0999 158.793 83.4717 175.859L76.7957 176.395Z" fill="#D8DBFE"/>
<path d="M83.6556 203.198C86.9813 203.198 89.6773 200.505 89.6773 197.182C89.6773 193.86 86.9813 191.167 83.6556 191.167C80.3298 191.167 77.6338 193.86 77.6338 197.182C77.6338 200.505 80.3298 203.198 83.6556 203.198Z" fill="#D8DBFE"/>
<path d="M309.157 259.519C312.482 259.519 315.178 256.825 315.178 253.503C315.178 250.18 312.482 247.487 309.157 247.487C305.831 247.487 303.135 250.18 303.135 253.503C303.135 256.825 305.831 259.519 309.157 259.519Z" fill="url(#paint6_linear_406_850)"/>
<path d="M236.832 42.8151C240.158 42.8151 242.854 40.1217 242.854 36.7992C242.854 33.4766 240.158 30.7832 236.832 30.7832C233.507 30.7832 230.811 33.4766 230.811 36.7992C230.811 40.1217 233.507 42.8151 236.832 42.8151Z" fill="#D8DBFE"/>
<path d="M163.648 265.185C148.211 257.812 134.562 246.757 124.177 233.213C113.448 219.221 106.244 202.576 103.344 185.076C100.301 166.722 102.035 147.833 108.355 130.452C114.482 113.604 124.802 98.3835 138.203 86.439L142.663 91.4322C130.087 102.643 120.401 116.925 114.652 132.738C108.724 149.042 107.099 166.762 109.952 183.984C112.674 200.406 119.431 216.021 129.494 229.144C139.241 241.853 152.05 252.229 166.538 259.147L163.648 265.185Z" fill="url(#paint7_linear_406_850)"/>
<path d="M183.733 272.447L185.38 265.959C198.998 269.409 212.989 269.984 226.97 267.672C252.123 263.509 274.64 250.19 290.372 230.167C306.003 210.27 313.637 185.474 311.868 160.353L318.55 159.883C320.437 186.665 312.302 213.093 295.641 234.299C278.873 255.642 254.876 269.837 228.065 274.274C213.168 276.738 198.255 276.124 183.736 272.444L183.733 272.447Z" fill="#D8DBFE"/>
<path d="M308.153 139.289C301.338 115.472 286.012 94.9854 265 81.6095C243.827 68.1288 218.512 62.9629 193.718 67.0668C180.163 69.3088 167.456 74.136 155.949 81.4129L152.368 75.7575C164.636 67.9999 178.183 62.8536 192.625 60.463C219.05 56.0903 246.034 61.5949 268.601 75.9651C290.995 90.2238 307.329 112.059 314.596 137.449L308.156 139.289H308.153Z" fill="url(#paint8_linear_406_850)"/>
<path d="M145.298 88.1285C145.732 90.7508 143.956 93.2288 141.333 93.6637C138.709 94.0985 136.227 92.3241 135.793 89.7018C135.359 87.0796 137.134 84.6015 139.758 84.1666C142.382 83.7318 144.864 85.5062 145.298 88.1285Z" fill="url(#paint9_linear_406_850)"/>
<path d="M189.345 268.631C189.779 271.254 188.003 273.732 185.379 274.167C182.756 274.601 180.274 272.827 179.84 270.205C179.406 267.582 181.181 265.104 183.805 264.67C186.429 264.235 188.911 266.009 189.345 268.631Z" fill="url(#paint10_linear_406_850)"/>
<path d="M315.992 136.78C316.426 139.403 314.651 141.881 312.027 142.316C309.403 142.75 306.921 140.976 306.487 138.354C306.053 135.731 307.829 133.253 310.452 132.818C313.076 132.384 315.558 134.158 315.992 136.78Z" fill="url(#paint11_linear_406_850)"/>
<path d="M327.761 65.2158H95.2237C90.794 65.2158 87.2041 68.7646 87.2041 73.1417V228.134H335.778V73.1417C335.778 68.7646 332.188 65.2158 327.759 65.2158H327.761Z" fill="#1A1A1A"/>
<path opacity="0.2" d="M327.761 65.2158H248.501C246.608 72.154 245.594 79.4483 245.594 86.9786C245.594 133.041 283.378 170.385 329.986 170.385C331.933 170.385 333.866 170.313 335.781 170.186V73.1417C335.781 68.7646 332.191 65.2158 327.761 65.2158Z" fill="url(#paint12_linear_406_850)"/>
<mask id="mask0_406_850" style="mask-type:luminance" maskUnits="userSpaceOnUse" x="99" y="76" width="225" height="142">
<path d="M99.7949 206.867V217.066H323.189V206.867V76.2842H99.7949V206.867Z" fill="white"/>
</mask>
<g mask="url(#mask0_406_850)">
<path d="M329.674 72.9868H93.2412V225.954H329.674V72.9868Z" fill="white"/>
</g>
<path d="M50.4912 268.113C50.4912 270.157 52.1662 271.813 54.2338 271.813H368.69C370.757 271.813 372.432 270.157 372.432 268.113V264.366H50.4912V268.113Z" fill="#CACACA"/>
<path d="M48.7549 267.967C48.7549 268.41 49.1191 268.769 49.5662 268.769H373.357C373.806 268.769 374.168 268.41 374.168 267.967V263.616H48.7549V267.967Z" fill="#B1B1B1"/>
<path d="M192.892 264.341C192.892 265.362 193.729 266.19 194.763 266.19H228.163C229.197 266.19 230.034 265.362 230.034 264.341V263.614H192.892V264.341Z" fill="#CACACA"/>
<path d="M87.3042 225.346L48.7549 263.614H374.168L335.619 225.346H87.3042Z" fill="#F1F1F1"/>
<path d="M74.2529 248.138H96.6454L112.41 228.088H93.0903L74.2529 248.138Z" fill="#CFCFCF"/>
<path d="M310.516 228.088L326.278 248.138H348.672L329.835 228.088H310.516Z" fill="#CFCFCF"/>
<path d="M244.365 253.245C243.966 251.416 241.973 249.965 239.901 249.965H183.024C180.952 249.965 178.957 251.416 178.56 253.245L177.474 258.232C177.038 260.233 178.492 261.894 180.73 261.894H242.195C244.433 261.894 245.888 260.233 245.451 258.232L244.365 253.245Z" fill="#D6D6D6"/>
<path d="M103.28 248.138H115.775L118.166 244.489H105.985L103.28 248.138Z" fill="#313946"/>
<path d="M114.859 232.507H126.017L127.93 229.587H117.023L114.859 232.507Z" fill="#313946"/>
<path d="M117.378 229.107H133.581L134.207 228.088H118.133L117.378 229.107Z" fill="#313946"/>
<path d="M135.795 229.107H146.661L147.182 228.088H136.403L135.795 229.107Z" fill="#313946"/>
<path d="M149.143 229.107H160.008L160.421 228.088H149.642L149.143 229.107Z" fill="#313946"/>
<path d="M162.315 229.107H173.181L173.489 228.088H162.71L162.315 229.107Z" fill="#313946"/>
<path d="M175.661 229.107H186.527L186.728 228.088H175.949L175.661 229.107Z" fill="#313946"/>
<path d="M188.773 229.107H199.641L199.735 228.088H188.957L188.773 229.107Z" fill="#313946"/>
<path d="M202.195 228.088L202.121 229.107H212.987L212.974 228.088H202.195Z" fill="#313946"/>
<path d="M215.265 228.088L215.295 229.107H226.161L226.043 228.088H215.265Z" fill="#313946"/>
<path d="M227.969 228.088L228.102 229.107H238.968L238.747 228.088H227.969Z" fill="#313946"/>
<path d="M240.924 228.088L241.162 229.107H252.027L251.702 228.088H240.924Z" fill="#313946"/>
<path d="M254.466 228.088L254.813 229.107H265.681L265.244 228.088H254.466Z" fill="#313946"/>
<path d="M267.704 228.088L268.16 229.107H279.026L278.483 228.088H267.704Z" fill="#313946"/>
<path d="M280.773 228.088L281.334 229.107H292.2L291.552 228.088H280.773Z" fill="#313946"/>
<path d="M294.012 228.088L294.679 229.107H305.547L304.79 228.088H294.012Z" fill="#313946"/>
<path d="M109.398 239.88H130.5L132.412 236.626H111.808L109.398 239.88Z" fill="#313946"/>
<path d="M112.205 236.093H130.083L131.952 233.014H114.484L112.205 236.093Z" fill="#313946"/>
<path d="M106.428 243.89H137.143L138.947 240.446H108.98L106.428 243.89Z" fill="#313946"/>
<path d="M288.588 236.626L290.453 239.88H313.488L311.078 236.626H288.588Z" fill="#313946"/>
<path d="M283.939 240.446L285.743 243.89H316.456L313.907 240.446H283.939Z" fill="#313946"/>
<path d="M118.212 248.138H130.705L132.724 244.489H120.541L118.212 248.138Z" fill="#313946"/>
<path d="M139.528 243.89H151.659L153.112 240.446H141.275L139.528 243.89Z" fill="#313946"/>
<path d="M154.43 243.89H166.558L167.649 240.446H155.815L154.43 243.89Z" fill="#313946"/>
<path d="M168.748 243.89H180.879L181.623 240.446H169.786L168.748 243.89Z" fill="#313946"/>
<path d="M183.648 243.89H195.779L196.159 240.446H184.322L183.648 243.89Z" fill="#313946"/>
<path d="M198.204 243.89H210.335L210.363 240.446H198.527L198.204 243.89Z" fill="#313946"/>
<path d="M213.065 240.446L213.105 243.89H225.235L224.902 240.446H213.065Z" fill="#313946"/>
<path d="M227.037 240.446L227.425 243.89H239.556L238.873 240.446H227.037Z" fill="#313946"/>
<path d="M241.576 240.446L242.324 243.89H254.455L253.413 240.446H241.576Z" fill="#313946"/>
<path d="M255.488 240.446L256.583 243.89H268.714L267.325 240.446H255.488Z" fill="#313946"/>
<path d="M270.025 240.446L271.484 243.89H283.615L281.862 240.446H270.025Z" fill="#313946"/>
<path d="M133.182 239.88H144.97L146.54 236.626H135.031L133.182 239.88Z" fill="#313946"/>
<path d="M147.662 239.88H159.448L160.676 236.626H149.167L147.662 239.88Z" fill="#313946"/>
<path d="M161.576 239.88H173.362L174.263 236.626H162.754L161.576 239.88Z" fill="#313946"/>
<path d="M176.054 239.88H187.842L188.398 236.626H176.889L176.054 239.88Z" fill="#313946"/>
<path d="M190.2 239.88H201.989L202.211 236.626H190.702L190.2 239.88Z" fill="#313946"/>
<path d="M204.839 236.626L204.68 239.88H216.466L216.348 236.626H204.839Z" fill="#313946"/>
<path d="M218.425 236.626L218.595 239.88H230.381L229.934 236.626H218.425Z" fill="#313946"/>
<path d="M232.562 236.626L233.072 239.88H244.86L244.071 236.626H232.562Z" fill="#313946"/>
<path d="M246.091 236.626L246.928 239.88H258.717L257.6 236.626H246.091Z" fill="#313946"/>
<path d="M260.228 236.626L261.407 239.88H273.194L271.737 236.626H260.228Z" fill="#313946"/>
<path d="M274.406 236.626L275.929 239.88H287.717L285.915 236.626H274.406Z" fill="#313946"/>
<path d="M132.727 236.093H144.19L145.736 233.014H134.535L132.727 236.093Z" fill="#313946"/>
<path d="M146.807 236.093H158.27L159.491 233.014H148.292L146.807 236.093Z" fill="#313946"/>
<path d="M160.338 236.093H171.801L172.713 233.014H161.513L160.338 236.093Z" fill="#313946"/>
<path d="M174.418 236.093H185.881L186.47 233.014H175.269L174.418 236.093Z" fill="#313946"/>
<path d="M188.176 236.093H199.639L199.91 233.014H188.71L188.176 236.093Z" fill="#313946"/>
<path d="M202.468 233.014L202.257 236.093H213.72L213.668 233.014H202.468Z" fill="#313946"/>
<path d="M215.689 233.014L215.788 236.093H227.251L226.889 233.014H215.689Z" fill="#313946"/>
<path d="M229.445 233.014L229.868 236.093H241.332L240.647 233.014H229.445Z" fill="#313946"/>
<path d="M243.166 233.014L243.912 236.093H255.375L254.368 233.014H243.166Z" fill="#313946"/>
<path d="M256.367 233.014L257.425 236.093H268.888L267.569 233.014H256.367Z" fill="#313946"/>
<path d="M270.167 233.014L271.548 236.093H283.011L281.366 233.014H270.167Z" fill="#313946"/>
<path d="M283.66 233.014L285.357 236.093H296.82L294.86 233.014H283.66Z" fill="#313946"/>
<path d="M297.202 233.014L299.22 236.093H310.683L308.402 233.014H297.202Z" fill="#313946"/>
<path d="M128.191 232.507H139.349L140.961 229.587H130.056L128.191 232.507Z" fill="#313946"/>
<path d="M141.896 232.507H153.054L154.36 229.587H143.453L141.896 232.507Z" fill="#313946"/>
<path d="M155.066 232.507H166.222L167.234 229.587H156.327L155.066 232.507Z" fill="#313946"/>
<path d="M168.77 232.507H179.925L180.632 229.587H169.725L168.77 232.507Z" fill="#313946"/>
<path d="M182.158 232.507H193.314L193.722 229.587H182.815L182.158 232.507Z" fill="#313946"/>
<path d="M195.862 232.507H207.02L207.118 229.587H196.211L195.862 232.507Z" fill="#313946"/>
<path d="M209.088 229.587L209.033 232.507H220.189L219.995 229.587H209.088Z" fill="#313946"/>
<path d="M222.483 229.587L222.736 232.507H233.892L233.391 229.587H222.483Z" fill="#313946"/>
<path d="M235.306 229.587L235.851 232.507H247.007L246.213 229.587H235.306Z" fill="#313946"/>
<path d="M248.701 229.587L249.554 232.507H260.712L259.608 229.587H248.701Z" fill="#313946"/>
<path d="M262.141 229.587L263.301 232.507H274.457L273.048 229.587H262.141Z" fill="#313946"/>
<path d="M275.279 229.587L276.741 232.507H287.899L286.187 229.587H275.279Z" fill="#313946"/>
<path d="M288.468 229.587L290.23 232.507H308.027L305.866 229.587H288.468Z" fill="#313946"/>
<path d="M133.36 248.138H145.855L147.495 244.489H135.312L133.36 248.138Z" fill="#313946"/>
<path d="M260.487 244.489L261.744 248.138H274.239L272.668 244.489H260.487Z" fill="#313946"/>
<path d="M275.26 244.489L276.896 248.138H289.388L287.441 244.489H275.26Z" fill="#313946"/>
<path d="M304.596 244.303L306.98 247.943H319.457L316.761 244.303H304.596Z" fill="#313946"/>
<path d="M289.885 244.303L290.77 245.909H303.076L302.05 244.303H289.885Z" fill="#313946"/>
<path d="M291.087 246.481L292.001 248.138H304.496L303.44 246.481H291.087Z" fill="#313946"/>
<path d="M148.292 248.138H164.593L165.764 244.489H149.871L148.292 248.138Z" fill="#313946"/>
<path d="M242.37 244.489L243.164 248.138H259.465L258.265 244.489H242.37Z" fill="#313946"/>
<path d="M169.034 244.489L167.945 248.138H240.348L239.626 244.489H169.034Z" fill="#313946"/>
<path d="M302.724 225.346H120.163L120.156 225.354C119.681 225.997 120.023 226.524 120.931 226.524H301.959C302.864 226.524 303.208 225.997 302.733 225.354L302.726 225.346H302.724Z" fill="#333333"/>
<path d="M164.772 162.273L139.555 172.944L169.55 179.821L164.772 162.273Z" fill="url(#paint13_linear_406_850)"/>
<path d="M255.512 162.273L280.718 172.944L250.733 179.821L255.512 162.273Z" fill="url(#paint14_linear_406_850)"/>
<path d="M204.747 205.119C193.543 200.88 183.068 194.471 173.611 186.071C164.567 178.036 156.643 168.348 150.061 157.28C143.566 146.358 138.527 134.337 135.084 121.558C131.574 108.536 129.797 94.979 129.797 81.2645C129.797 74.2673 130.275 67.1915 131.217 60.2337L133.605 42.5748L150.735 47.9024C157.007 49.8538 163.539 50.8416 170.154 50.8416C181.428 50.8416 192.673 47.8653 202.671 42.2317L210.141 38.0229L217.609 42.2339C217.72 42.2951 217.829 42.3541 217.94 42.4131L217.975 42.4328C218.132 42.518 218.291 42.6032 218.448 42.6884C228.237 48.0226 239.188 50.8416 250.119 50.8416C256.734 50.8416 263.266 49.8516 269.536 47.9024L286.666 42.5748L289.056 60.2337C289.999 67.1915 290.476 74.2673 290.476 81.2645C290.476 94.8566 288.729 108.298 285.281 121.213C281.898 133.889 276.945 145.825 270.559 156.69C264.093 167.695 256.3 177.356 247.399 185.406C238.104 193.813 227.796 200.284 216.76 204.639L216.49 204.746C216.178 204.87 215.853 204.997 215.528 205.122L210.137 207.16L204.747 205.122V205.119Z" fill="url(#paint15_linear_406_850)"/>
<path opacity="0.31" d="M208.341 195.765C198.293 191.962 188.873 186.191 180.339 178.61C172.067 171.261 164.804 162.374 158.749 152.191C152.721 142.051 148.038 130.874 144.83 118.971C141.55 106.793 139.886 94.1051 139.886 81.2646C139.886 74.7111 140.333 68.0832 141.214 61.5668L142.01 55.6798L147.72 57.4564C154.97 59.7116 162.518 60.8545 170.154 60.8545C183.17 60.8545 196.136 57.4258 207.648 50.94L210.138 49.5371L212.627 50.94C212.812 51.0449 212.998 51.1433 213.185 51.2438C213.323 51.3181 213.458 51.3902 213.595 51.4645C224.864 57.605 237.495 60.8523 250.118 60.8523C257.756 60.8523 265.305 59.7094 272.552 57.4542L278.262 55.6776L279.058 61.5647C279.939 68.081 280.386 74.7089 280.386 81.2624C280.386 93.9892 278.753 106.567 275.527 118.647C272.376 130.454 267.771 141.555 261.843 151.645C255.891 161.771 248.746 170.639 240.603 178.003C232.21 185.594 222.932 191.425 213.03 195.332L212.747 195.443C212.476 195.55 212.204 195.657 211.931 195.762L210.134 196.442L208.337 195.762L208.341 195.765Z" fill="white"/>
<path d="M274.062 62.2311C266.315 64.6414 258.295 65.8586 250.121 65.8586C236.555 65.8586 223.196 62.4081 211.17 55.8524C210.826 55.6645 210.481 55.4853 210.139 55.293C197.847 62.218 184.111 65.8586 170.156 65.8586C161.982 65.8586 153.96 64.6414 146.213 62.2311C145.361 68.5377 144.929 74.912 144.929 81.2623C144.929 131.759 171.629 176.513 210.139 191.086C210.483 190.955 210.826 190.817 211.17 190.682C249.124 175.704 275.349 131.307 275.349 81.2623C275.349 74.9099 274.919 68.5355 274.064 62.2311H274.062Z" fill="white"/>
<path d="M227.114 90.4926H226.789V84.634C226.789 75.7728 219.526 68.5659 210.602 68.5659C201.677 68.5659 194.414 75.775 194.414 84.634V90.4926H193.345C191.241 90.4926 189.535 92.1862 189.535 94.2753V118.488C189.535 120.577 191.241 122.27 193.345 122.27H227.116C229.221 122.27 230.926 120.577 230.926 118.488V94.2753C230.926 92.1862 229.221 90.4926 227.116 90.4926H227.114ZM211.757 107.913V113.392C211.757 114.231 211.073 114.91 210.229 114.91C209.385 114.91 208.7 114.231 208.7 113.392V107.913C208.004 107.433 207.548 106.635 207.548 105.73C207.548 104.26 208.748 103.069 210.229 103.069C211.709 103.069 212.909 104.26 212.909 105.73C212.909 106.635 212.453 107.433 211.757 107.913ZM222.252 84.634V90.4926H198.948V84.634C198.948 78.2553 204.176 73.0653 210.602 73.0653C217.027 73.0653 222.257 78.2553 222.257 84.634H222.252Z" fill="#FC5185"/>
<path d="M173.5 186L145.5 171H275L247 186H173.5Z" fill="black"/>
<path d="M280.718 172.944H139.554L129.932 129.986H290.341L280.718 172.944Z" fill="url(#paint16_linear_406_850)"/>
<path d="M164 120.5L130 130H290.5L256 120.5H164Z" fill="black"/>
<path d="M196.143 156.911C196.143 158.559 195.716 160.04 194.861 161.354C194.006 162.667 192.754 163.696 191.107 164.439C189.461 165.182 187.507 165.554 185.247 165.554C182.538 165.554 180.305 165.047 178.545 164.031C177.297 163.299 176.283 162.324 175.502 161.102C174.721 159.883 174.331 158.696 174.331 157.543C174.331 156.874 174.564 156.301 175.033 155.823C175.502 155.346 176.098 155.108 176.822 155.108C177.408 155.108 177.904 155.294 178.309 155.665C178.715 156.037 179.062 156.588 179.347 157.32C179.696 158.187 180.074 158.913 180.479 159.494C180.885 160.077 181.456 160.556 182.191 160.934C182.929 161.312 183.895 161.5 185.094 161.5C186.741 161.5 188.08 161.12 189.11 160.357C190.139 159.595 190.654 158.644 190.654 157.505C190.654 156.601 190.377 155.867 189.821 155.303C189.264 154.739 188.547 154.308 187.668 154.011C186.789 153.714 185.611 153.397 184.139 153.063C182.167 152.604 180.516 152.069 179.186 151.455C177.858 150.84 176.802 150.006 176.021 148.946C175.241 147.886 174.85 146.571 174.85 144.997C174.85 143.424 175.262 142.165 176.087 141.003C176.911 139.838 178.102 138.942 179.664 138.317C181.223 137.692 183.059 137.379 185.168 137.379C186.854 137.379 188.311 137.587 189.539 138.002C190.769 138.417 191.788 138.968 192.601 139.656C193.413 140.345 194.006 141.066 194.379 141.822C194.754 142.578 194.942 143.315 194.942 144.033C194.942 144.691 194.708 145.281 194.239 145.808C193.77 146.335 193.188 146.597 192.488 146.597C191.851 146.597 191.367 146.439 191.038 146.123C190.706 145.808 190.348 145.29 189.96 144.571C189.461 143.542 188.861 142.74 188.163 142.165C187.463 141.588 186.34 141.3 184.793 141.3C183.358 141.3 182.2 141.612 181.321 142.239C180.442 142.864 180.002 143.618 180.002 144.497C180.002 145.043 180.152 145.513 180.451 145.908C180.75 146.306 181.162 146.645 181.688 146.931C182.211 147.217 182.743 147.44 183.28 147.6C183.816 147.761 184.702 147.997 185.938 148.306C187.487 148.666 188.887 149.062 190.141 149.494C191.395 149.929 192.462 150.454 193.343 151.074C194.222 151.695 194.909 152.477 195.402 153.426C195.895 154.374 196.141 155.534 196.141 156.911H196.143Z" fill="white"/>
<path d="M221.716 156.911C221.716 158.559 221.288 160.04 220.433 161.354C219.578 162.667 218.326 163.696 216.68 164.439C215.033 165.182 213.079 165.554 210.819 165.554C208.11 165.554 205.877 165.047 204.117 164.031C202.869 163.299 201.855 162.324 201.075 161.102C200.294 159.883 199.903 158.696 199.903 157.543C199.903 156.874 200.137 156.301 200.606 155.823C201.075 155.346 201.67 155.108 202.394 155.108C202.981 155.108 203.476 155.294 203.881 155.665C204.287 156.037 204.634 156.588 204.92 157.32C205.269 158.187 205.646 158.913 206.052 159.494C206.457 160.077 207.029 160.556 207.764 160.934C208.501 161.312 209.467 161.5 210.667 161.5C212.313 161.5 213.652 161.12 214.682 160.357C215.711 159.595 216.226 158.644 216.226 157.505C216.226 156.601 215.949 155.867 215.393 155.303C214.837 154.739 214.119 154.308 213.24 154.011C212.361 153.714 211.184 153.397 209.711 153.063C207.74 152.604 206.089 152.069 204.758 151.455C203.43 150.84 202.374 150.006 201.594 148.946C200.813 147.886 200.422 146.571 200.422 144.997C200.422 143.424 200.835 142.165 201.659 141.003C202.483 139.838 203.674 138.942 205.236 138.317C206.795 137.692 208.632 137.379 210.741 137.379C212.427 137.379 213.884 137.587 215.111 138.002C216.342 138.417 217.36 138.968 218.174 139.656C218.985 140.345 219.578 141.066 219.951 141.822C220.326 142.578 220.514 143.315 220.514 144.033C220.514 144.691 220.28 145.281 219.812 145.808C219.343 146.335 218.76 146.597 218.06 146.597C217.423 146.597 216.939 146.439 216.61 146.123C216.278 145.808 215.921 145.29 215.532 144.571C215.033 143.542 214.433 142.74 213.735 142.165C213.035 141.588 211.912 141.3 210.366 141.3C208.931 141.3 207.772 141.612 206.893 142.239C206.015 142.864 205.574 143.618 205.574 144.497C205.574 145.043 205.724 145.513 206.023 145.908C206.322 146.306 206.734 146.645 207.26 146.931C207.783 147.217 208.315 147.44 208.852 147.6C209.389 147.761 210.274 147.997 211.511 148.306C213.059 148.666 214.459 149.062 215.713 149.494C216.968 149.929 218.034 150.454 218.915 151.074C219.794 151.695 220.481 152.477 220.974 153.426C221.467 154.374 221.713 155.534 221.713 156.911H221.716Z" fill="white"/>
<path d="M231.884 140.723V160.552H243.155C244.054 160.552 244.743 160.768 245.223 161.203C245.702 161.638 245.945 162.182 245.945 162.837C245.945 163.493 245.707 164.048 245.234 164.463C244.76 164.878 244.067 165.086 243.155 165.086H229.731C228.52 165.086 227.65 164.819 227.12 164.286C226.59 163.753 226.324 162.892 226.324 161.703V140.721C226.324 139.606 226.577 138.769 227.083 138.212C227.589 137.655 228.254 137.375 229.077 137.375C229.899 137.375 230.59 137.65 231.107 138.201C231.626 138.752 231.884 139.593 231.884 140.718V140.723Z" fill="white"/>
</g>
<path d="M396.657 72.7149C402.09 72.7149 406.495 68.3016 406.495 62.8574C406.495 57.4133 402.09 53 396.657 53C391.223 53 386.818 57.4133 386.818 62.8574C386.818 68.3016 391.223 72.7149 396.657 72.7149Z" fill="#4A51ED"/>
<path d="M398.811 57.5712C398.811 58.6789 397.918 59.574 396.812 59.574C395.707 59.574 394.813 58.6789 394.813 57.5712C394.813 56.4635 395.707 55.5684 396.812 55.5684C397.918 55.5684 398.811 56.4635 398.811 57.5712Z" fill="white"/>
<path d="M393.926 71.864V76.7591C393.926 77.05 394.082 77.313 394.334 77.4528L394.546 77.5703C395.054 77.8556 395.093 78.5717 394.624 78.913L394.261 79.1759C394.054 79.327 393.932 79.5676 393.932 79.8193V80.6025C393.932 80.9494 394.161 81.2571 394.49 81.3634C395.099 81.5536 395.249 82.3424 394.752 82.7452L394.429 83.0082C394.244 83.1592 394.133 83.3886 394.133 83.6291V84.6529C394.133 84.8935 394.027 85.1173 393.842 85.2683L392.58 86.2977C392.396 86.4487 392.29 86.6781 392.29 86.9131V88.2054C392.29 88.6474 392.647 88.9998 393.083 88.9998H397.902C398.114 88.9998 398.315 88.9159 398.466 88.7649L400.118 87.1089C400.269 86.9578 400.353 86.7564 400.353 86.5439V71.8584C400.353 71.4164 399.995 71.064 399.56 71.064H394.73C394.289 71.064 393.937 71.422 393.937 71.8584L393.926 71.864Z" fill="#4A51ED"/>
<path d="M403.472 74.6904H411.49L414.712 71.4624H419.904" stroke="#4257EF" stroke-width="2" stroke-miterlimit="10"/>
<path d="M403.472 79.2544H415.348" stroke="#4257EF" stroke-width="2" stroke-miterlimit="10"/>
<path d="M420.562 71.4276C420.562 72.0989 420.015 72.6472 419.345 72.6472C418.675 72.6472 418.128 72.0989 418.128 71.4276C418.128 70.7563 418.675 70.208 419.345 70.208C420.015 70.208 420.562 70.7563 420.562 71.4276Z" fill="#4257EF"/>
<path d="M403.906 83.8247H411.924L415.146 87.0471H420.339" stroke="#4257EF" stroke-width="2" stroke-miterlimit="10"/>
<path d="M419.783 88.3015C420.455 88.3015 421 87.7555 421 87.0819C421 86.4083 420.455 85.8623 419.783 85.8623C419.11 85.8623 418.565 86.4083 418.565 87.0819C418.565 87.7555 419.11 88.3015 419.783 88.3015Z" fill="#4257EF"/>
<path d="M416.531 79.243C416.531 79.9144 415.984 80.4626 415.314 80.4626C414.644 80.4626 414.097 79.9144 414.097 79.243C414.097 78.5717 414.644 78.0234 415.314 78.0234C415.984 78.0234 416.531 78.5717 416.531 79.243Z" fill="#4257EF"/>
<path d="M391.804 74.8139H383.786L380.564 71.5859H375.371" stroke="#4257EF" stroke-width="2" stroke-miterlimit="10"/>
<path d="M391.802 79.377H379.926" stroke="#4257EF" stroke-width="2" stroke-miterlimit="10"/>
<path d="M374.713 71.5506C374.713 72.222 375.26 72.7702 375.93 72.7702C376.6 72.7702 377.147 72.222 377.147 71.5506C377.147 70.8793 376.6 70.3311 375.93 70.3311C375.26 70.3311 374.713 70.8793 374.713 71.5506Z" fill="#4257EF"/>
<path d="M391.361 83.9434H383.337L380.121 87.1714H374.923" stroke="#4257EF" stroke-width="2" stroke-miterlimit="10"/>
<path d="M375.492 88.4245C376.164 88.4245 376.709 87.8785 376.709 87.2049C376.709 86.5314 376.164 85.9854 375.492 85.9854C374.819 85.9854 374.274 86.5314 374.274 87.2049C374.274 87.8785 374.819 88.4245 375.492 88.4245Z" fill="#4257EF"/>
<path d="M378.745 79.3661C378.745 80.0374 379.292 80.5857 379.962 80.5857C380.632 80.5857 381.18 80.0374 381.18 79.3661C381.18 78.6947 380.632 78.1465 379.962 78.1465C379.292 78.1465 378.745 78.6947 378.745 79.3661Z" fill="#4257EF"/>
<path d="M29.9777 210.626H3.45476C3.33091 210.626 3.21183 210.622 3.09274 210.612C0.348983 210.373 -0.832357 207.071 1.0254 205.095L14.1726 191.092C15.5349 189.636 17.8928 189.636 19.2599 191.092L32.4071 205.095C34.2601 207.071 33.0835 210.373 30.3398 210.612C30.2207 210.622 30.0968 210.626 29.9777 210.626Z" fill="#ABCEEF"/>
<path d="M8.5622 200.612H24.9485C26.5491 200.612 27.8447 201.915 27.8447 203.514V215.895H5.66602V203.514C5.66602 201.91 6.96644 200.612 8.5622 200.612Z" fill="white"/>
<path d="M29.5335 226H3.86317C1.72914 226 0 224.268 0 222.13V207.625C0 205.487 1.72914 210.026 3.86317 210.026H29.5335C31.6675 210.026 33.3967 205.487 33.3967 207.625V222.13C33.3967 224.268 31.6675 226 29.5335 226Z" fill="#4A51ED"/>
<path d="M10.1924 224.907L30.0417 210.025C30.0417 210.025 18.5856 223.508 10.1924 224.907Z" fill="#ABCEEF"/>
<path d="M23.9324 224.578L3.45898 210.078C3.45898 210.078 15.4105 223.389 23.9324 224.573V224.578Z" fill="#ABCEEF"/>
<path d="M19.6084 205.405C19.6084 206.946 18.3604 208.197 16.8218 208.197C15.2832 208.197 14.0352 206.946 14.0352 205.405C14.0352 203.863 15.2832 202.613 16.8218 202.613C18.3604 202.613 19.6084 203.863 19.6084 205.405Z" fill="#FC5185"/>
<path d="M16.1754 207.597H15.2656V208.876H16.1754V207.597Z" fill="#FC5185"/>
<path d="M17.2477 207.808H16.3379V209.087H17.2477V207.808Z" fill="#FC5185"/>
<path d="M18.3297 207.568H17.4199V208.847H18.3297V207.568Z" fill="#FC5185"/>
<path d="M14.9838 205.148L16.3557 205.712C16.3557 205.712 16.3271 206.232 15.8079 206.275C15.2887 206.318 14.8219 205.903 14.9838 205.148Z" fill="#FC5185"/>
<path d="M18.6502 205.161L17.2783 205.724C17.2783 205.724 17.3069 206.245 17.8261 206.287C18.3453 206.33 18.8122 205.915 18.6502 205.161Z" fill="#FC5185"/>
<path d="M16.7815 206.356L16.4814 207.029H17.1102L16.7815 206.356Z" fill="#FC5185"/>
<path d="M14.586 204.423L13.3094 204.175L12.5854 203.034L12.29 203.206L12.9617 204.614L14.4908 204.891L14.586 204.423Z" fill="#FC5185"/>
<path d="M14.5665 207.057L13.2899 207.301L12.5706 208.442L12.2705 208.27L12.9422 206.867L14.4712 206.585L14.5665 207.057Z" fill="#FC5185"/>
<path d="M14.433 205.373L12.3895 205.345L10.9033 206.242L11.0462 206.509L12.5896 205.827L14.5474 206.013L14.433 205.373Z" fill="#FC5185"/>
<path d="M18.8887 204.408L20.1653 204.16L20.8846 203.019L21.1847 203.191L20.513 204.599L18.9839 204.876L18.8887 204.408Z" fill="#FC5185"/>
<path d="M18.9004 207.044L20.177 207.287L20.8963 208.428L21.1964 208.256L20.5247 206.853L18.9957 206.576L18.9004 207.044Z" fill="#FC5185"/>
<path d="M19.0372 205.359L21.0807 205.33L22.5669 206.227L22.424 206.495L20.8806 205.812L18.9229 205.998L19.0372 205.359Z" fill="#FC5185"/>
<defs>
<linearGradient id="paint0_linear_406_850" x1="109.012" y1="-8.12262" x2="109.012" y2="350.927" gradientUnits="userSpaceOnUse">
<stop stop-color="#00BEFF"/>
<stop offset="1" stop-color="#007DFF"/>
</linearGradient>
<linearGradient id="paint1_linear_406_850" x1="230.302" y1="-8.12282" x2="230.302" y2="350.925" gradientUnits="userSpaceOnUse">
<stop stop-color="#00BEFF"/>
<stop offset="1" stop-color="#007DFF"/>
</linearGradient>
<linearGradient id="paint2_linear_406_850" x1="285.59" y1="-8.12278" x2="285.59" y2="350.925" gradientUnits="userSpaceOnUse">
<stop stop-color="#00BEFF"/>
<stop offset="1" stop-color="#007DFF"/>
</linearGradient>
<linearGradient id="paint3_linear_406_850" x1="171.467" y1="-8.12299" x2="171.467" y2="350.925" gradientUnits="userSpaceOnUse">
<stop stop-color="#00BEFF"/>
<stop offset="1" stop-color="#007DFF"/>
</linearGradient>
<linearGradient id="paint4_linear_406_850" x1="102.495" y1="-8.12051" x2="102.495" y2="350.927" gradientUnits="userSpaceOnUse">
<stop stop-color="#00BEFF"/>
<stop offset="1" stop-color="#007DFF"/>
</linearGradient>
<linearGradient id="paint5_linear_406_850" x1="367.873" y1="-8.12285" x2="367.873" y2="350.925" gradientUnits="userSpaceOnUse">
<stop stop-color="#00BEFF"/>
<stop offset="1" stop-color="#007DFF"/>
</linearGradient>
<linearGradient id="paint6_linear_406_850" x1="309.157" y1="-8.12248" x2="309.157" y2="350.925" gradientUnits="userSpaceOnUse">
<stop stop-color="#A7D63F"/>
<stop offset="0.07" stop-color="#9ED33F"/>
<stop offset="1" stop-color="#39B54A"/>
</linearGradient>
<linearGradient id="paint7_linear_406_850" x1="134.211" y1="-8.12288" x2="134.211" y2="350.925" gradientUnits="userSpaceOnUse">
<stop stop-color="#A7D63F"/>
<stop offset="0.07" stop-color="#9ED33F"/>
<stop offset="1" stop-color="#39B54A"/>
</linearGradient>
<linearGradient id="paint8_linear_406_850" x1="233.478" y1="-8.12291" x2="233.478" y2="350.925" gradientUnits="userSpaceOnUse">
<stop stop-color="#A7D63F"/>
<stop offset="0.07" stop-color="#9ED33F"/>
<stop offset="1" stop-color="#39B54A"/>
</linearGradient>
<linearGradient id="paint9_linear_406_850" x1="140.545" y1="-8.12255" x2="140.545" y2="350.925" gradientUnits="userSpaceOnUse">
<stop stop-color="#A7D63F"/>
<stop offset="0.07" stop-color="#9ED33F"/>
<stop offset="1" stop-color="#39B54A"/>
</linearGradient>
<linearGradient id="paint10_linear_406_850" x1="184.592" y1="-8.12234" x2="184.592" y2="350.925" gradientUnits="userSpaceOnUse">
<stop stop-color="#00BEFF"/>
<stop offset="1" stop-color="#007DFF"/>
</linearGradient>
<linearGradient id="paint11_linear_406_850" x1="311.24" y1="-8.12076" x2="311.24" y2="350.925" gradientUnits="userSpaceOnUse">
<stop stop-color="#A7D63F"/>
<stop offset="0.07" stop-color="#9ED33F"/>
<stop offset="1" stop-color="#39B54A"/>
</linearGradient>
<linearGradient id="paint12_linear_406_850" x1="336.583" y1="169.718" x2="269.204" y2="53.2401" gradientUnits="userSpaceOnUse">
<stop/>
<stop offset="1" stop-color="white"/>
</linearGradient>
<linearGradient id="paint13_linear_406_850" x1="154.553" y1="170.442" x2="154.553" y2="179.006" gradientUnits="userSpaceOnUse">
<stop stop-color="#0080AC"/>
<stop offset="1" stop-color="#0054AC"/>
</linearGradient>
<linearGradient id="paint14_linear_406_850" x1="265.726" y1="171.261" x2="265.726" y2="179.406" gradientUnits="userSpaceOnUse">
<stop stop-color="#0080AC"/>
<stop offset="1" stop-color="#0054AC"/>
</linearGradient>
<linearGradient id="paint15_linear_406_850" x1="170.383" y1="18.7491" x2="266" y2="179.897" gradientUnits="userSpaceOnUse">
<stop stop-color="#673DE6"/>
<stop offset="1" stop-color="#0083FF"/>
</linearGradient>
<linearGradient id="paint16_linear_406_850" x1="210.136" y1="128.586" x2="210.136" y2="175.07" gradientUnits="userSpaceOnUse">
<stop stop-color="#673DE6"/>
<stop offset="1" stop-color="#0083FF"/>
</linearGradient>
<clipPath id="clip0_406_850">
<rect width="329.332" height="328" fill="white" transform="translate(45.9111)"/>
</clipPath>
</defs>
</svg>
