<svg width="462" height="366" viewBox="0 0 462 366" fill="none" xmlns="http://www.w3.org/2000/svg">
<g clip-path="url(#clip0_135_352)">
<path d="M408.093 275.277C408.487 275.295 408.876 275.192 409.209 274.981C409.542 274.77 409.802 274.462 409.954 274.098C410.106 273.735 410.143 273.334 410.059 272.948C409.975 272.563 409.775 272.213 409.486 271.946L409.354 271.423L409.406 271.297C409.803 270.36 410.467 269.562 411.316 269.002C412.164 268.442 413.16 268.145 414.177 268.149C415.194 268.152 416.187 268.457 417.031 269.023C417.876 269.589 418.534 270.393 418.924 271.332C420.481 275.081 422.463 278.837 422.951 282.802C423.166 284.554 423.075 286.331 422.683 288.052C426.339 280.076 428.238 271.407 428.25 262.633C428.251 260.431 428.129 258.231 427.884 256.043C427.684 254.249 427.403 252.468 427.042 250.7C425.082 241.105 420.874 232.112 414.764 224.46C411.807 222.847 409.416 220.366 407.912 217.352C407.367 216.268 406.982 215.112 406.769 213.918C407.103 213.962 407.442 213.989 407.775 214.011L408.092 214.027H408.131C408.498 214.045 408.862 213.956 409.18 213.771C409.498 213.586 409.755 213.313 409.92 212.985C410.086 212.657 410.152 212.288 410.113 211.923C410.073 211.557 409.928 211.211 409.695 210.927L409.263 210.396C409.044 210.123 408.82 209.855 408.601 209.581C408.576 209.555 408.552 209.528 408.53 209.499C408.278 209.187 408.03 208.881 407.775 208.569C408.233 207.857 408.849 207.259 409.575 206.824C412.096 205.347 415.575 206.37 417.396 208.651C418.249 209.841 418.829 211.204 419.095 212.644C419.361 214.083 419.305 215.564 418.933 216.98C418.309 219.403 417.277 221.703 415.881 223.78C416.018 223.955 416.16 224.125 416.297 224.3C418.795 227.513 420.972 230.963 422.797 234.6C422.353 230.523 422.882 226.4 424.343 222.568C425.823 218.997 428.598 215.99 431.043 212.903C431.689 212.074 432.567 211.455 433.565 211.124C434.563 210.793 435.637 210.766 436.65 211.046C437.664 211.325 438.572 211.899 439.259 212.694C439.947 213.489 440.383 214.471 440.513 215.514C440.518 215.559 440.523 215.605 440.528 215.65C440.165 215.855 439.81 216.072 439.462 216.302C439.025 216.594 438.687 217.01 438.491 217.498C438.295 217.985 438.251 218.52 438.365 219.033C438.478 219.546 438.744 220.012 439.128 220.371C439.511 220.73 439.994 220.965 440.513 221.045L440.566 221.053C440.437 222.361 440.208 223.657 439.882 224.93C438.938 228.485 437.27 231.806 434.982 234.686C432.694 237.566 429.836 239.942 426.587 241.665C426.374 241.774 426.166 241.884 425.953 241.988C427.788 247.187 428.939 252.603 429.377 258.099C429.625 261.341 429.61 264.599 429.333 267.839L429.349 267.724C430.05 264.122 431.972 260.873 434.791 258.524C438.979 255.084 444.891 253.817 449.413 251.052C449.893 250.744 450.451 250.579 451.022 250.578C451.592 250.577 452.151 250.739 452.633 251.044C453.114 251.35 453.499 251.787 453.74 252.304C453.981 252.821 454.07 253.396 453.995 253.962L453.977 254.083C453.304 254.357 452.648 254.673 452.014 255.029C451.651 255.234 451.296 255.451 450.948 255.681C450.511 255.973 450.173 256.389 449.977 256.877C449.781 257.364 449.737 257.899 449.851 258.412C449.964 258.925 450.23 259.391 450.614 259.75C450.997 260.109 451.48 260.344 451.999 260.424L452.052 260.432L452.161 260.448C451.01 263.195 449.396 265.724 447.387 267.924C444.905 270.586 441.906 272.713 438.573 274.174C435.24 275.636 431.644 276.401 428.005 276.424H428C427.012 280.717 425.581 284.896 423.729 288.893H408.472C408.417 288.724 408.372 288.548 408.319 288.379C409.731 288.468 411.149 288.383 412.541 288.127C411.409 286.738 410.277 285.338 409.141 283.949C409.116 283.923 409.092 283.896 409.07 283.867C408.496 283.156 407.916 282.451 407.342 281.74C407.311 279.561 407.561 277.386 408.086 275.271L408.093 275.277Z" fill="#F2F2F2"/>
<path d="M228.152 289.213C228.152 289.296 228.168 289.379 228.2 289.456C228.231 289.533 228.278 289.602 228.337 289.661C228.396 289.72 228.466 289.767 228.543 289.798C228.619 289.83 228.702 289.846 228.785 289.846H461.335C461.503 289.846 461.664 289.779 461.783 289.661C461.901 289.542 461.968 289.381 461.968 289.213C461.968 289.045 461.901 288.884 461.783 288.766C461.664 288.647 461.503 288.58 461.335 288.58H228.787C228.704 288.58 228.621 288.596 228.545 288.628C228.468 288.659 228.398 288.706 228.339 288.765C228.28 288.824 228.233 288.894 228.202 288.971C228.17 289.047 228.154 289.13 228.154 289.213H228.152Z" fill="#CCCCCC"/>
<path d="M339.703 207.602C340.579 207.392 341.49 207.377 342.372 207.558C343.254 207.739 344.086 208.111 344.809 208.648C345.532 209.185 346.129 209.874 346.557 210.666C346.985 211.458 347.234 212.335 347.286 213.234L360.58 217.861L359.739 226.626L341.057 219.826C339.542 219.813 338.084 219.245 336.959 218.23C335.834 217.214 335.121 215.821 334.954 214.315C334.787 212.809 335.178 211.294 336.053 210.057C336.929 208.819 338.227 207.946 339.703 207.602V207.602Z" fill="#FC5185"/>
<path d="M361.861 233.089C367.147 236.773 376.461 238.658 389.135 238.572C389.836 238.574 390.53 238.429 391.173 238.149C391.816 237.868 392.393 237.457 392.869 236.942C396.26 233.41 396.128 225.349 396.107 224.57L399.824 210.561C399.904 210.347 401.961 204.599 399.868 200.585C399.423 199.747 398.801 199.015 398.046 198.439C397.291 197.864 396.42 197.458 395.494 197.251C387.633 195.165 380.243 216.208 379.304 218.988L368.269 217.11L360.65 216.797L352.899 212.518L348.535 222.963L359.335 230.855C360.081 231.701 360.93 232.452 361.861 233.089Z" fill="#2F2E41"/>
<path d="M339.999 349.58L331.873 349.96L326.541 318.796L338.535 318.235L339.999 349.58Z" fill="#FC5185"/>
<path d="M341.829 345.476L328.947 345.31L329.204 350.81L317.389 359.821C316.805 360.266 316.379 360.886 316.172 361.59C315.966 362.294 315.99 363.046 316.241 363.736C316.492 364.425 316.956 365.017 317.567 365.424C318.178 365.83 318.903 366.031 319.636 365.997L334.93 365.282L337.312 359.715L338.596 365.115L344.362 364.845L341.829 345.476Z" fill="#2F2E41"/>
<path d="M254.88 282.258L251.919 274.68L279.738 259.655L293.791 268.488L254.88 282.258Z" fill="#FC5185"/>
<path d="M259.216 282.715L255.251 270.455L250.119 272.46L237.804 264.145C237.196 263.736 236.473 263.531 235.741 263.56C235.009 263.59 234.305 263.853 233.732 264.31C233.16 264.768 232.748 265.396 232.557 266.104C232.367 266.812 232.407 267.562 232.672 268.245L238.244 282.506L244.281 282.981L239.581 285.924L241.681 291.301L259.216 282.715Z" fill="#2F2E41"/>
<path d="M415.544 259.685C415.544 259.685 412.169 281.231 396.215 282.827C380.261 284.423 365.555 277.235 365.555 277.235L320.884 263.473C320.884 263.473 273.369 276.973 265.392 279.104C265.392 279.104 259.892 266.615 260.074 265.809C261.774 258.386 263.981 263.409 263.981 263.409L314.502 241.073C314.502 241.073 322.479 238.946 336.302 244.796C350.125 250.646 387.17 264.747 387.17 264.747L415.544 259.685Z" fill="#2F2E41"/>
<path d="M415.36 258.794C415.36 258.794 418.021 284.606 402.48 288.549C387.707 292.297 367.329 288.449 367.329 288.449L343.036 285.913C343.036 285.913 341.972 317.127 341.972 332.549C337.036 333.22 332.063 333.575 327.082 333.613C326.018 333.613 325.948 333.056 325.948 333.056L323.889 279.108C323.744 276.762 324.092 274.413 324.911 272.21C325.729 270.007 326.999 268 328.64 266.317C330.281 264.635 332.256 263.315 334.438 262.442C336.619 261.569 338.96 261.162 341.308 261.248C342.455 261.292 343.658 261.373 344.917 261.492C359.862 262.925 378.417 259.879 378.417 259.879L415.36 258.794Z" fill="#2F2E41"/>
<path d="M371.873 220.823C371.873 220.823 365.564 258.976 369.828 262.023C374.092 265.07 379.939 265.081 379.939 265.081L381.299 244.015L371.873 220.823Z" fill="#2F2E41"/>
<path d="M382.398 173.723L373.962 181.739C370.041 185.465 367.442 190.368 366.56 195.704C365.677 201.04 366.558 206.519 369.07 211.309L373.102 218.999L382.398 173.723Z" fill="#2F2E41"/>
<path d="M384.662 175.219L373.232 188.239C370.724 191.096 369.169 194.665 368.785 198.448C368.611 200.166 368.681 201.9 368.993 203.598L373.301 227.015L376.539 260.832C376.539 260.832 401.539 268.406 404.094 256.711C406.649 245.016 384.662 175.219 384.662 175.219Z" fill="#FC5185"/>
<path d="M395.391 263.987C411.823 261.249 415.848 260.705 416.098 260.609L416.349 260.509L414.702 250.626L407.747 233.537C407.295 227.947 404.366 220.373 406.042 214.289C410.914 196.603 402.999 171.611 399.379 169.696L389.344 163.118L385.822 166.347L379.715 174.897C374.69 197.281 371.215 218.144 371.388 219.42L374.488 241.334L378.143 249.74C389.232 255.093 381.777 266.256 395.391 263.987Z" fill="#2F2E41"/>
<path d="M365.157 248.048L339.357 241.148L337.085 240.609L335.465 240.224L333.577 239.778H333.562C333.288 239.716 333.001 239.763 332.762 239.911L323.182 251.397C323.096 251.45 323.02 251.517 322.957 251.597C322.931 251.618 322.908 251.642 322.889 251.669C322.783 251.813 322.714 251.982 322.688 252.159C322.663 252.337 322.681 252.518 322.742 252.687C322.803 252.855 322.904 253.006 323.037 253.127C323.171 253.247 323.331 253.332 323.505 253.376L361.993 262.233C362.193 262.278 362.401 262.266 362.594 262.198C362.787 262.13 362.956 262.008 363.083 261.848L363.474 261.342L365.604 251.086L365.756 249.754C365.853 249.631 365.921 249.488 365.956 249.335C366.018 249.059 365.969 248.769 365.819 248.529C365.669 248.289 365.431 248.117 365.156 248.051L365.157 248.048Z" fill="#E6E6E6"/>
<path opacity="0.17" d="M363.463 261.354L363.07 261.862C362.943 262.022 362.774 262.143 362.582 262.211C362.39 262.279 362.182 262.292 361.983 262.247L323.494 253.389C323.32 253.346 323.159 253.26 323.026 253.14C322.893 253.02 322.792 252.869 322.731 252.7C322.67 252.532 322.652 252.351 322.678 252.173C322.703 251.996 322.773 251.827 322.879 251.683C322.898 251.656 322.92 251.632 322.946 251.611L363.463 261.354Z" fill="black"/>
<path d="M333.656 239.556L334.356 190.49C334.385 190.195 334.296 189.9 334.108 189.67L329.172 179.41L328.66 178.788C328.469 178.561 328.197 178.417 327.902 178.388L326.829 178.288C326.683 178.273 326.535 178.288 326.394 178.331C326.253 178.373 326.122 178.443 326.008 178.537C325.894 178.63 325.8 178.745 325.731 178.875C325.661 179.004 325.618 179.146 325.604 179.293V179.293L324.637 231.209L324.158 236.209L323.591 242.145V242.153L322.705 251.388C322.689 251.546 322.708 251.706 322.759 251.856C322.811 252.007 322.895 252.144 323.005 252.259C323.112 252.376 323.242 252.468 323.388 252.53C323.533 252.593 323.69 252.623 323.848 252.62L324.548 252.606C324.816 252.599 325.073 252.498 325.273 252.32L325.664 251.969L325.845 251.804L333.294 240.289C333.503 240.099 333.633 239.837 333.656 239.556V239.556Z" fill="#E6E6E6"/>
<path opacity="0.17" d="M329.153 179.405L325.82 251.805L325.638 251.968L325.249 252.318C325.048 252.496 324.791 252.598 324.523 252.604L323.823 252.618C323.665 252.621 323.508 252.59 323.362 252.528C323.217 252.466 323.086 252.373 322.978 252.257C322.871 252.141 322.789 252.004 322.738 251.854C322.688 251.704 322.669 251.545 322.684 251.387L325.584 179.287C325.598 179.141 325.641 178.998 325.71 178.868C325.779 178.738 325.873 178.623 325.986 178.529C326.1 178.436 326.231 178.365 326.372 178.322C326.513 178.279 326.66 178.264 326.807 178.278L327.883 178.378C328.029 178.391 328.171 178.434 328.3 178.502C328.43 178.571 328.544 178.665 328.637 178.778L329.153 179.405Z" fill="black"/>
<path d="M328.894 182.277L333.404 193.41L332.846 226.71L327.963 233.772L328.894 182.277Z" fill="#FC5185"/>
<path d="M362.211 247.749C362.334 247.784 362.448 247.843 362.548 247.922C362.648 248.001 362.732 248.099 362.793 248.211C362.855 248.322 362.895 248.445 362.909 248.572C362.923 248.698 362.912 248.827 362.877 248.949L360.89 257.23L359.028 256.7L361.015 248.419C361.049 248.297 361.108 248.182 361.186 248.082C361.265 247.982 361.363 247.898 361.474 247.836C361.585 247.774 361.707 247.734 361.834 247.719C361.96 247.704 362.089 247.714 362.211 247.749V247.749Z" fill="#2F2E41"/>
<path d="M358.472 246.662C358.595 246.697 358.709 246.755 358.809 246.835C358.909 246.914 358.993 247.012 359.054 247.124C359.116 247.235 359.156 247.358 359.17 247.484C359.184 247.611 359.173 247.739 359.138 247.862L358.714 249.351L356.852 248.821L357.276 247.332C357.311 247.209 357.37 247.095 357.449 246.995C357.528 246.895 357.626 246.811 357.738 246.75C357.849 246.688 357.972 246.648 358.099 246.634C358.225 246.62 358.354 246.631 358.476 246.666L358.472 246.662Z" fill="#2F2E41"/>
<path d="M354.731 245.597C354.854 245.632 354.968 245.69 355.068 245.77C355.168 245.849 355.252 245.947 355.314 246.059C355.375 246.17 355.415 246.293 355.429 246.419C355.443 246.546 355.432 246.674 355.397 246.797L354.973 248.286L353.111 247.756L353.535 246.267C353.569 246.144 353.628 246.03 353.706 245.93C353.785 245.83 353.883 245.746 353.994 245.684C354.105 245.622 354.227 245.582 354.354 245.567C354.48 245.552 354.609 245.562 354.731 245.597Z" fill="#2F2E41"/>
<path d="M350.99 244.532C351.113 244.567 351.227 244.625 351.327 244.705C351.427 244.784 351.511 244.882 351.573 244.994C351.634 245.105 351.674 245.228 351.688 245.354C351.702 245.481 351.691 245.61 351.656 245.732L351.232 247.221L349.37 246.691L349.794 245.202C349.828 245.079 349.887 244.965 349.965 244.865C350.044 244.765 350.142 244.681 350.253 244.619C350.364 244.557 350.486 244.517 350.613 244.502C350.739 244.487 350.868 244.497 350.99 244.532V244.532Z" fill="#2F2E41"/>
<path d="M347.249 243.466C347.372 243.501 347.486 243.559 347.586 243.639C347.686 243.718 347.769 243.816 347.831 243.927C347.893 244.039 347.932 244.162 347.947 244.288C347.961 244.415 347.95 244.543 347.915 244.666L347.491 246.155L345.629 245.625L346.053 244.135C346.087 244.012 346.146 243.898 346.225 243.798C346.303 243.698 346.401 243.615 346.512 243.552C346.623 243.49 346.745 243.451 346.872 243.436C346.998 243.421 347.126 243.431 347.249 243.466V243.466Z" fill="#2F2E41"/>
<path d="M343.509 242.401C343.632 242.436 343.746 242.494 343.846 242.574C343.946 242.653 344.029 242.751 344.091 242.863C344.153 242.974 344.192 243.097 344.207 243.223C344.221 243.35 344.21 243.478 344.175 243.601L343.751 245.09L341.889 244.56L342.313 243.071C342.347 242.948 342.406 242.834 342.484 242.734C342.563 242.634 342.661 242.55 342.772 242.488C342.883 242.426 343.005 242.386 343.132 242.371C343.258 242.356 343.386 242.366 343.509 242.401Z" fill="#2F2E41"/>
<path d="M339.772 241.336C339.895 241.371 340.009 241.43 340.109 241.509C340.209 241.588 340.292 241.686 340.354 241.798C340.416 241.909 340.455 242.032 340.47 242.158C340.484 242.285 340.473 242.413 340.438 242.536L340.014 244.025L338.152 243.495L338.576 242.006C338.611 241.883 338.669 241.769 338.749 241.669C338.828 241.569 338.926 241.486 339.037 241.424C339.149 241.362 339.272 241.322 339.398 241.308C339.525 241.294 339.653 241.305 339.776 241.34L339.772 241.336Z" fill="#2F2E41"/>
<path d="M336.029 240.271C336.152 240.306 336.266 240.365 336.366 240.444C336.466 240.523 336.549 240.621 336.611 240.733C336.673 240.844 336.712 240.967 336.727 241.093C336.741 241.22 336.73 241.349 336.695 241.471L336.271 242.96L334.409 242.43L334.833 240.941C334.867 240.818 334.926 240.704 335.004 240.604C335.083 240.504 335.181 240.42 335.292 240.358C335.403 240.296 335.525 240.256 335.652 240.241C335.778 240.226 335.906 240.236 336.029 240.271V240.271Z" fill="#2F2E41"/>
<path d="M357.687 250.074C357.81 250.109 357.924 250.168 358.024 250.247C358.124 250.326 358.207 250.424 358.269 250.536C358.331 250.647 358.37 250.77 358.385 250.897C358.399 251.023 358.388 251.152 358.353 251.274L357.929 252.763L356.067 252.233L356.491 250.743C356.525 250.621 356.584 250.506 356.663 250.406C356.741 250.306 356.839 250.223 356.95 250.161C357.061 250.098 357.183 250.059 357.31 250.044C357.436 250.029 357.564 250.039 357.687 250.074V250.074Z" fill="#2F2E41"/>
<path d="M353.946 249.008C354.069 249.043 354.183 249.101 354.283 249.181C354.383 249.26 354.466 249.358 354.528 249.469C354.59 249.581 354.629 249.704 354.644 249.83C354.658 249.957 354.647 250.085 354.612 250.208L354.188 251.697L352.326 251.167L352.75 249.678C352.784 249.555 352.843 249.441 352.921 249.341C353 249.24 353.098 249.157 353.209 249.095C353.32 249.032 353.442 248.993 353.569 248.978C353.695 248.963 353.823 248.973 353.946 249.008V249.008Z" fill="#2F2E41"/>
<path d="M350.205 247.943C350.328 247.978 350.442 248.037 350.542 248.116C350.642 248.195 350.726 248.293 350.787 248.405C350.849 248.516 350.889 248.639 350.903 248.766C350.917 248.892 350.906 249.021 350.871 249.143L350.445 250.631L348.583 250.101L349.007 248.612C349.041 248.489 349.1 248.375 349.179 248.274C349.258 248.174 349.356 248.091 349.467 248.029C349.578 247.966 349.701 247.927 349.827 247.912C349.954 247.898 350.082 247.908 350.205 247.943Z" fill="#2F2E41"/>
<path d="M346.465 246.878C346.588 246.913 346.702 246.971 346.802 247.051C346.902 247.13 346.986 247.228 347.047 247.34C347.109 247.451 347.149 247.574 347.163 247.7C347.177 247.827 347.166 247.955 347.131 248.078L346.703 249.56L344.841 249.03L345.265 247.541C345.3 247.418 345.359 247.304 345.438 247.204C345.517 247.104 345.615 247.02 345.727 246.959C345.838 246.897 345.961 246.857 346.088 246.843C346.214 246.829 346.343 246.84 346.465 246.875V246.878Z" fill="#2F2E41"/>
<path d="M342.724 245.812C342.847 245.847 342.961 245.905 343.061 245.985C343.161 246.064 343.245 246.162 343.306 246.273C343.368 246.385 343.408 246.508 343.422 246.634C343.436 246.761 343.425 246.889 343.39 247.012L342.966 248.501L341.104 247.971L341.528 246.482C341.563 246.359 341.621 246.245 341.701 246.145C341.78 246.045 341.878 245.961 341.99 245.899C342.101 245.838 342.224 245.798 342.35 245.784C342.477 245.77 342.605 245.78 342.728 245.816L342.724 245.812Z" fill="#2F2E41"/>
<path d="M338.983 244.748C339.106 244.783 339.22 244.842 339.32 244.921C339.42 245 339.504 245.098 339.565 245.21C339.627 245.321 339.667 245.444 339.681 245.571C339.695 245.697 339.684 245.826 339.649 245.948L339.225 247.437L337.363 246.907L337.787 245.418C337.821 245.295 337.88 245.181 337.958 245.081C338.037 244.981 338.135 244.897 338.246 244.835C338.357 244.773 338.479 244.733 338.606 244.718C338.732 244.703 338.861 244.713 338.983 244.748V244.748Z" fill="#2F2E41"/>
<path d="M335.242 243.682C335.365 243.717 335.479 243.775 335.579 243.855C335.679 243.934 335.763 244.032 335.824 244.144C335.886 244.255 335.926 244.378 335.94 244.504C335.954 244.631 335.943 244.759 335.908 244.882L335.484 246.371L333.622 245.841L334.046 244.352C334.081 244.229 334.14 244.115 334.219 244.015C334.298 243.915 334.396 243.831 334.508 243.77C334.619 243.708 334.742 243.668 334.868 243.654C334.995 243.64 335.124 243.651 335.246 243.686L335.242 243.682Z" fill="#2F2E41"/>
<path d="M356.902 253.484C357.025 253.519 357.139 253.577 357.239 253.657C357.339 253.736 357.423 253.834 357.484 253.946C357.546 254.057 357.586 254.18 357.6 254.306C357.614 254.433 357.603 254.562 357.568 254.684L357.144 256.173L355.282 255.643L355.706 254.153C355.74 254.03 355.799 253.916 355.878 253.816C355.956 253.716 356.054 253.633 356.165 253.57C356.276 253.508 356.399 253.469 356.525 253.454C356.651 253.439 356.78 253.449 356.902 253.484V253.484Z" fill="#2F2E41"/>
<path d="M353.161 252.42C353.284 252.455 353.398 252.513 353.498 252.593C353.598 252.672 353.682 252.77 353.743 252.882C353.805 252.993 353.845 253.116 353.859 253.242C353.873 253.369 353.862 253.497 353.827 253.62L353.403 255.109L351.541 254.579L351.965 253.09C351.999 252.967 352.058 252.853 352.136 252.753C352.215 252.653 352.313 252.569 352.424 252.507C352.535 252.445 352.657 252.405 352.784 252.39C352.91 252.375 353.038 252.385 353.161 252.42Z" fill="#2F2E41"/>
<path d="M349.42 251.357C349.543 251.392 349.657 251.45 349.757 251.53C349.857 251.609 349.941 251.707 350.002 251.819C350.064 251.93 350.104 252.053 350.118 252.179C350.132 252.306 350.121 252.434 350.086 252.557L349.662 254.046L347.8 253.516L348.224 252.027C348.258 251.904 348.317 251.79 348.395 251.69C348.474 251.59 348.572 251.506 348.683 251.444C348.794 251.382 348.916 251.342 349.043 251.327C349.169 251.312 349.298 251.322 349.42 251.357Z" fill="#2F2E41"/>
<path d="M345.68 250.286C345.803 250.321 345.917 250.379 346.017 250.459C346.117 250.538 346.201 250.636 346.262 250.747C346.324 250.859 346.364 250.982 346.378 251.108C346.392 251.235 346.381 251.363 346.346 251.486L345.922 252.975L344.06 252.445L344.484 250.956C344.518 250.833 344.577 250.719 344.655 250.619C344.734 250.519 344.832 250.435 344.943 250.373C345.054 250.31 345.176 250.271 345.303 250.256C345.429 250.241 345.558 250.251 345.68 250.286V250.286Z" fill="#2F2E41"/>
<path d="M341.939 249.224C342.062 249.259 342.176 249.317 342.276 249.397C342.376 249.476 342.46 249.574 342.522 249.686C342.583 249.797 342.623 249.92 342.637 250.046C342.651 250.173 342.641 250.301 342.605 250.424L342.181 251.913L340.319 251.383L340.743 249.894C340.777 249.771 340.836 249.657 340.914 249.557C340.993 249.457 341.091 249.373 341.202 249.311C341.313 249.249 341.435 249.209 341.562 249.194C341.688 249.179 341.817 249.189 341.939 249.224Z" fill="#2F2E41"/>
<path d="M338.198 248.159C338.321 248.194 338.435 248.252 338.535 248.332C338.635 248.411 338.719 248.509 338.781 248.621C338.842 248.732 338.882 248.855 338.896 248.981C338.91 249.108 338.9 249.236 338.864 249.359L338.44 250.848L336.578 250.318L337.002 248.829C337.036 248.706 337.095 248.592 337.173 248.492C337.252 248.392 337.35 248.308 337.461 248.246C337.572 248.184 337.694 248.144 337.821 248.129C337.947 248.114 338.076 248.124 338.198 248.159Z" fill="#2F2E41"/>
<path d="M334.457 247.094C334.58 247.129 334.694 247.188 334.794 247.267C334.894 247.346 334.977 247.444 335.039 247.556C335.101 247.667 335.14 247.79 335.155 247.916C335.169 248.043 335.158 248.172 335.123 248.294L334.699 249.783L332.837 249.253L333.261 247.764C333.295 247.641 333.354 247.527 333.432 247.427C333.511 247.327 333.609 247.243 333.72 247.181C333.831 247.119 333.953 247.079 334.08 247.064C334.206 247.049 334.334 247.059 334.457 247.094Z" fill="#2F2E41"/>
<path d="M345.547 240.649C346.047 239.9 346.704 239.269 347.474 238.801C348.243 238.334 349.106 238.04 350.001 237.942C350.896 237.844 351.802 237.943 352.655 238.233C353.507 238.523 354.286 238.996 354.936 239.619L367.828 233.967L373.173 240.967L354.855 248.693C353.736 249.715 352.28 250.292 350.764 250.313C349.248 250.334 347.777 249.798 346.63 248.807C345.483 247.816 344.739 246.439 344.539 244.936C344.34 243.433 344.698 241.909 345.547 240.653V240.649Z" fill="#FC5185"/>
<path d="M379.188 244.5C385.569 243.6 393.677 238.651 402.909 229.966C403.425 229.49 403.836 228.912 404.117 228.269C404.398 227.626 404.542 226.932 404.54 226.23C404.624 221.33 399.04 215.515 398.498 214.959L391.698 202.159C391.611 201.948 389.209 196.335 384.944 194.817C384.047 194.505 383.094 194.392 382.149 194.483C381.204 194.575 380.29 194.871 379.47 195.349C372.289 199.167 381.186 219.619 382.389 222.296L373.025 228.423L367.225 233.376L358.633 235.513L362.539 246.137L375.824 244.576C376.944 244.69 378.074 244.664 379.188 244.5V244.5Z" fill="#2F2E41"/>
<path d="M398.407 143.5C397.332 134.524 389.341 128.1 380.561 129.152C371.78 130.204 365.533 138.333 366.609 147.31C367.684 156.287 375.674 162.711 384.455 161.659C393.236 160.607 399.483 152.477 398.407 143.5Z" fill="#FC5185"/>
<path d="M424.207 133.229C421.127 130.401 419.341 126.374 416.752 123.054C414.163 119.734 410.019 116.981 406.152 118.29C403.483 119.19 401.652 121.862 400.908 124.684C400.309 127.56 400.163 130.512 400.476 133.433C400.133 130.479 398.905 127.697 396.952 125.453C395 123.21 392.414 121.609 389.535 120.862C386.669 120.3 383.7 120.662 381.053 121.895C378.406 123.128 376.218 125.169 374.805 127.724C373.151 126.523 371.115 125.97 369.081 126.171C367.047 126.371 365.157 127.311 363.77 128.812C362.446 130.444 361.714 132.476 361.693 134.577C361.671 136.678 362.362 138.725 363.653 140.383C364.982 141.941 366.834 142.96 368.861 143.248C370.888 143.536 372.95 143.074 374.661 141.949L376.061 142.957C375.882 144.236 376.159 145.536 376.843 146.632C377.526 147.727 378.574 148.546 379.801 148.947C381.767 149.48 384.401 149.037 385.337 150.921C385.992 152.237 385.251 153.815 384.403 154.989C383.555 156.163 382.528 157.389 382.586 158.869C382.673 161.097 385.139 162.369 387.267 162.586C389.869 162.789 392.472 162.212 394.744 160.927C397.016 159.643 398.852 157.71 400.019 155.375C400.064 155.283 400.114 155.191 400.169 155.098C401.537 152.838 402.431 150.322 402.794 147.705C403.158 145.088 402.984 142.424 402.283 139.876C401.999 138.876 402.071 138.098 402.745 137.776C405.658 136.369 414.431 137.539 417.245 139.21C420.059 140.881 422.435 143.253 425.168 145.063C427.901 146.873 431.258 148.119 434.34 147.168C435.572 146.712 436.699 146.015 437.657 145.116C438.614 144.217 439.382 143.135 439.914 141.935C441.001 139.485 441.722 136.889 442.053 134.229C439.406 136.113 436.198 137.04 432.955 136.858C429.711 136.676 426.626 135.396 424.207 133.229V133.229Z" fill="#2F2E41"/>
<path d="M0.959961 18.339H242.553C242.808 18.339 243.052 18.2377 243.232 18.0575C243.413 17.8773 243.514 17.6329 243.514 17.378C243.514 17.1231 243.413 16.8787 243.232 16.6985C243.052 16.5182 242.808 16.417 242.553 16.417H0.960999C0.706125 16.417 0.461656 16.5182 0.281433 16.6985C0.101211 16.8787 0 17.1231 0 17.378C0 17.6329 0.101211 17.8773 0.281433 18.0575C0.461656 18.2377 0.706125 18.339 0.960999 18.339H0.959961Z" fill="#D8DBFE"/>
<path d="M227.148 11.512C230.257 11.512 232.778 8.93495 232.778 5.756C232.778 2.57705 230.257 0 227.148 0C224.039 0 221.518 2.57705 221.518 5.756C221.518 8.93495 224.039 11.512 227.148 11.512Z" fill="#2F2E41"/>
<path d="M207.605 11.512C210.714 11.512 213.235 8.93495 213.235 5.756C213.235 2.57705 210.714 0 207.605 0C204.496 0 201.975 2.57705 201.975 5.756C201.975 8.93495 204.496 11.512 207.605 11.512Z" fill="#2F2E41"/>
<path d="M188.063 11.512C191.172 11.512 193.693 8.93495 193.693 5.756C193.693 2.57705 191.172 0 188.063 0C184.954 0 182.433 2.57705 182.433 5.756C182.433 8.93495 184.954 11.512 188.063 11.512Z" fill="#2F2E41"/>
<path d="M12.671 1.427H26.488C26.7656 1.427 27.0318 1.53726 27.228 1.73352C27.4243 1.92978 27.5345 2.19595 27.5345 2.4735C27.5345 2.75105 27.4243 3.01724 27.228 3.21349C27.0318 3.40975 26.7656 3.52 26.488 3.52H12.671C12.3935 3.52 12.1273 3.40975 11.931 3.21349C11.7348 3.01724 11.6245 2.75105 11.6245 2.4735C11.6245 2.19595 11.7348 1.92978 11.931 1.73352C12.1273 1.53726 12.3935 1.427 12.671 1.427V1.427Z" fill="#2F2E41"/>
<path d="M12.671 5.354H26.488C26.7656 5.354 27.0318 5.46426 27.228 5.66051C27.4243 5.85677 27.5345 6.12296 27.5345 6.40051C27.5345 6.67805 27.4243 6.94423 27.228 7.14049C27.0318 7.33674 26.7656 7.44701 26.488 7.44701H12.671C12.3935 7.44701 12.1273 7.33674 11.931 7.14049C11.7348 6.94423 11.6245 6.67805 11.6245 6.40051C11.6245 6.12296 11.7348 5.85677 11.931 5.66051C12.1273 5.46426 12.3935 5.354 12.671 5.354V5.354Z" fill="#2F2E41"/>
<path d="M12.67 9.27295H26.4871C26.7646 9.27295 27.0308 9.3832 27.2271 9.57946C27.4233 9.77572 27.5335 10.0419 27.5335 10.3195C27.5335 10.597 27.4233 10.8632 27.2271 11.0594C27.0308 11.2557 26.7646 11.3659 26.4871 11.3659H12.67C12.3925 11.3659 12.1263 11.2557 11.9301 11.0594C11.7338 10.8632 11.6235 10.597 11.6235 10.3195C11.6235 10.0419 11.7338 9.77572 11.9301 9.57946C12.1263 9.3832 12.3925 9.27295 12.67 9.27295V9.27295Z" fill="#2F2E41"/>
<path d="M426.629 240.253L426.621 240.242L426.629 240.264V240.253Z" fill="#2F2E41"/>
<path d="M93.0391 55.778C96.8836 55.778 100 52.6614 100 48.817C100 44.9725 96.8836 41.856 93.0391 41.856C89.1947 41.856 86.0781 44.9725 86.0781 48.817C86.0781 52.6614 89.1947 55.778 93.0391 55.778Z" fill="#D8DBFE"/>
<path d="M33.9631 64.23H97.5201C97.7924 64.23 98.0619 64.1764 98.3134 64.0722C98.5649 63.968 98.7935 63.8153 98.986 63.6228C99.1785 63.4303 99.3311 63.2018 99.4353 62.9503C99.5395 62.6988 99.5931 62.4292 99.5931 62.157C99.5931 61.8848 99.5395 61.6152 99.4353 61.3637C99.3311 61.1122 99.1785 60.8836 98.986 60.6911C98.7935 60.4987 98.5649 60.346 98.3134 60.2418C98.0619 60.1376 97.7924 60.084 97.5201 60.084H33.9631C33.4133 60.084 32.886 60.3024 32.4973 60.6911C32.1085 61.0799 31.8901 61.6072 31.8901 62.157C31.8901 62.7068 32.1085 63.2341 32.4973 63.6228C32.886 64.0116 33.4133 64.23 33.9631 64.23Z" fill="#D8DBFE"/>
<path d="M82.1179 72.4209H97.9039C98.1761 72.4209 98.4457 72.3673 98.6972 72.2631C98.9487 72.1589 99.1773 72.0062 99.3698 71.8137C99.5622 71.6212 99.7149 71.3927 99.8191 71.1412C99.9233 70.8897 99.9769 70.6201 99.9769 70.3479C99.9769 70.0757 99.9233 69.8061 99.8191 69.5546C99.7149 69.3031 99.5622 69.0746 99.3698 68.8821C99.1773 68.6896 98.9487 68.5369 98.6972 68.4327C98.4457 68.3285 98.1761 68.2749 97.9039 68.2749H82.1179C81.5681 68.2749 81.0408 68.4933 80.652 68.8821C80.2633 69.2708 80.0449 69.7981 80.0449 70.3479C80.0449 70.8977 80.2633 71.425 80.652 71.8137C81.0408 72.2025 81.5681 72.4209 82.1179 72.4209V72.4209Z" fill="#D8DBFE"/>
<path d="M93.0391 165.147C96.8836 165.147 100 162.031 100 158.186C100 154.342 96.8836 151.225 93.0391 151.225C89.1947 151.225 86.0781 154.342 86.0781 158.186C86.0781 162.031 89.1947 165.147 93.0391 165.147Z" fill="#D8DBFE"/>
<path d="M33.9631 173.67H97.5201C98.0699 173.67 98.5972 173.452 98.986 173.063C99.3747 172.674 99.5931 172.147 99.5931 171.597C99.5931 171.047 99.3747 170.52 98.986 170.131C98.5972 169.742 98.0699 169.524 97.5201 169.524H33.9631C33.4133 169.524 32.886 169.742 32.4973 170.131C32.1085 170.52 31.8901 171.047 31.8901 171.597C31.8901 172.147 32.1085 172.674 32.4973 173.063C32.886 173.452 33.4133 173.67 33.9631 173.67V173.67Z" fill="#D8DBFE"/>
<path d="M82.1179 181.897H97.9039C98.4537 181.897 98.981 181.679 99.3698 181.29C99.7585 180.901 99.9769 180.374 99.9769 179.824C99.9769 179.274 99.7585 178.747 99.3698 178.358C98.981 177.969 98.4537 177.751 97.9039 177.751H82.1179C81.5681 177.751 81.0408 177.969 80.652 178.358C80.2633 178.747 80.0449 179.274 80.0449 179.824C80.0449 180.374 80.2633 180.901 80.652 181.29C81.0408 181.679 81.5681 181.897 82.1179 181.897V181.897Z" fill="#D8DBFE"/>
<path d="M205.601 148.58C209.445 148.58 212.562 145.463 212.562 141.619C212.562 137.775 209.445 134.658 205.601 134.658C201.756 134.658 198.64 137.775 198.64 141.619C198.64 145.463 201.756 148.58 205.601 148.58Z" fill="#D8DBFE"/>
<path d="M146.771 157.1H210.328C210.878 157.1 211.405 156.882 211.794 156.493C212.183 156.104 212.401 155.577 212.401 155.027C212.401 154.477 212.183 153.95 211.794 153.561C211.405 153.173 210.878 152.954 210.328 152.954H146.771C146.221 152.954 145.694 153.173 145.305 153.561C144.916 153.95 144.698 154.477 144.698 155.027C144.698 155.577 144.916 156.104 145.305 156.493C145.694 156.882 146.221 157.1 146.771 157.1V157.1Z" fill="#D8DBFE"/>
<path d="M194.688 165.329H210.474C211.024 165.329 211.551 165.111 211.94 164.722C212.329 164.333 212.547 163.806 212.547 163.256C212.547 162.706 212.329 162.179 211.94 161.79C211.551 161.401 211.024 161.183 210.474 161.183H194.688C194.138 161.183 193.611 161.401 193.222 161.79C192.833 162.179 192.615 162.706 192.615 163.256C192.615 163.806 192.833 164.333 193.222 164.722C193.611 165.111 194.138 165.329 194.688 165.329Z" fill="#D8DBFE"/>
<path d="M93.0391 106.447C96.8836 106.447 100 103.33 100 99.4859C100 95.6414 96.8836 92.5249 93.0391 92.5249C89.1947 92.5249 86.0781 95.6414 86.0781 99.4859C86.0781 103.33 89.1947 106.447 93.0391 106.447Z" fill="#D8DBFE"/>
<path d="M33.9631 114.973H97.5201C98.0699 114.973 98.5972 114.755 98.986 114.366C99.3747 113.977 99.5931 113.45 99.5931 112.9C99.5931 112.35 99.3747 111.823 98.986 111.434C98.5972 111.045 98.0699 110.827 97.5201 110.827H33.9631C33.4133 110.827 32.886 111.045 32.4973 111.434C32.1085 111.823 31.8901 112.35 31.8901 112.9C31.8901 113.45 32.1085 113.977 32.4973 114.366C32.886 114.755 33.4133 114.973 33.9631 114.973V114.973Z" fill="#D8DBFE"/>
<path d="M59.3291 123.202H97.5211C98.0709 123.202 98.5982 122.983 98.9869 122.595C99.3757 122.206 99.5941 121.679 99.5941 121.129C99.5941 120.579 99.3757 120.052 98.9869 119.663C98.5982 119.274 98.0709 119.056 97.5211 119.056H59.3291C58.7793 119.056 58.252 119.274 57.8632 119.663C57.4745 120.052 57.2561 120.579 57.2561 121.129C57.2561 121.679 57.4745 122.206 57.8632 122.595C58.252 122.983 58.7793 123.202 59.3291 123.202V123.202Z" fill="#D8DBFE"/>
<path d="M69.97 131.431H97.5209C98.0707 131.431 98.598 131.212 98.9868 130.824C99.3755 130.435 99.5939 129.908 99.5939 129.358C99.5939 128.808 99.3755 128.281 98.9868 127.892C98.598 127.503 98.0707 127.285 97.5209 127.285H69.97C69.4202 127.285 68.8929 127.503 68.5041 127.892C68.1153 128.281 67.897 128.808 67.897 129.358C67.897 129.908 68.1153 130.435 68.5041 130.824C68.8929 131.212 69.4202 131.431 69.97 131.431V131.431Z" fill="#D8DBFE"/>
<path d="M156.914 53.812V126.895C156.915 127.405 157.118 127.894 157.478 128.255C157.838 128.615 158.327 128.819 158.837 128.82H197.345C201.605 124.869 205.101 120.167 207.655 114.948C207.823 114.612 207.983 114.273 208.136 113.929C210.464 108.879 211.873 103.454 212.297 97.909C212.326 97.567 212.349 97.229 212.365 96.885C212.418 96.005 212.441 95.112 212.441 94.216C212.449 88.2538 211.323 82.3445 209.123 76.803C208.992 76.459 208.852 76.117 208.708 75.779C205.812 68.97 201.36 62.935 195.708 58.159C195.375 57.873 195.035 57.5946 194.689 57.324L194.61 57.261C190.188 53.76 184.708 51.8635 179.068 51.882H158.837C158.326 51.8836 157.837 52.0876 157.477 52.4494C157.116 52.8112 156.914 53.3012 156.914 53.812Z" fill="#673DE6"/>
<path opacity="0.2" d="M156.811 76.8039V75.7799H173.985V51.8799H175.007V75.7799H194.689V57.3239C195.033 57.5945 195.373 57.8729 195.708 58.1589V75.7789H208.708C208.852 76.1179 208.992 76.4589 209.123 76.8029H195.708V96.8839H212.364C212.348 97.2279 212.325 97.5669 212.296 97.9079H195.708V113.928H208.134C207.982 114.272 207.821 114.611 207.653 114.947H195.708V128.414H194.689V114.949H175.007V128.416H173.985V114.949H156.811V113.93H173.985C173.985 111.826 173.571 109.742 172.766 107.798C171.961 105.854 170.78 104.087 169.292 102.599C167.804 101.112 166.038 99.9316 164.093 99.1267C162.149 98.3219 160.065 97.9081 157.961 97.9089H156.811V96.8849H173.985V76.8039H156.811ZM175.011 113.93H194.693V97.9099H175.007L175.011 113.93ZM175.011 96.8849H194.693V96.4849C194.693 91.2653 192.619 86.2597 188.928 82.569C185.237 78.8783 180.232 76.8049 175.012 76.8049L175.011 96.8849Z" fill="black"/>
<path d="M158.738 114.189C159.15 114.208 159.557 114.1 159.906 113.879C160.254 113.659 160.526 113.337 160.685 112.957C160.844 112.576 160.883 112.156 160.795 111.753C160.707 111.351 160.498 110.985 160.195 110.705L160.057 110.157L160.112 110.026C161.963 105.613 173.771 117.914 174.282 122.062C174.507 123.895 174.412 125.753 174.002 127.554C177.827 119.21 179.813 110.142 179.826 100.963C179.827 98.6596 179.699 96.358 179.443 94.0689C179.231 92.1922 178.937 90.3289 178.562 88.4789C176.512 78.4419 172.11 69.0343 165.718 61.0289C162.063 61.2289 158.859 60.6759 158.55 53.5919C158.495 52.3319 157.56 51.2409 157.35 49.9989C157.699 50.0449 158.05 50.0729 158.403 50.0989L158.735 50.1159H158.776C159.16 50.1331 159.54 50.039 159.871 49.845C160.203 49.6511 160.471 49.3655 160.644 49.0226C160.817 48.6798 160.887 48.2943 160.846 47.9126C160.805 47.5308 160.654 47.1691 160.412 46.8709L159.96 46.3149C159.731 46.0289 159.497 45.7489 159.268 45.4629C159.242 45.4357 159.217 45.407 159.194 45.3769C158.931 45.0509 158.668 44.7309 158.404 44.4039C158.884 43.6583 159.531 43.0337 160.292 42.5789C162.929 41.0339 166.568 42.1039 168.473 44.4899C169.366 45.7344 169.973 47.1606 170.251 48.6667C170.529 50.1728 170.471 51.7217 170.081 53.2029C169.429 55.7392 168.349 58.1458 166.889 60.3199C167.032 60.5029 167.181 60.6799 167.324 60.8639C169.937 64.2261 172.215 67.8364 174.124 71.6429C173.584 67.4209 180.193 52.1749 182.749 48.9429C183.425 48.0756 184.343 47.4281 185.387 47.0824C186.431 46.7366 187.554 46.708 188.614 47.0003C189.674 47.2926 190.624 47.8926 191.343 48.7244C192.062 49.5563 192.519 50.5827 192.655 51.6739C192.66 51.7212 192.665 51.7689 192.67 51.8169C192.291 52.0309 191.919 52.2582 191.555 52.4989C191.098 52.8042 190.745 53.2404 190.54 53.7502C190.336 54.26 190.29 54.8197 190.409 55.356C190.527 55.8923 190.806 56.3802 191.206 56.7558C191.607 57.1314 192.112 57.3771 192.655 57.4609L192.711 57.4699C197.793 64.7259 181.502 83.6099 177.424 79.3699C179.343 84.8089 180.547 90.4744 181.005 96.2239C181.264 99.6159 181.249 103.023 180.959 106.413L180.976 106.293C181.882 98.9099 197.425 87.9339 201.964 88.8479C204.579 89.3749 207.154 89.2549 206.757 91.8919L206.738 92.0179C206.034 92.3049 205.348 92.6356 204.684 93.0079C204.305 93.2219 203.933 93.4492 203.569 93.6899C203.112 93.9952 202.759 94.4314 202.554 94.9412C202.349 95.451 202.304 96.0107 202.423 96.547C202.541 97.0833 202.82 97.5712 203.22 97.9468C203.621 98.3224 204.126 98.5681 204.669 98.6519L204.725 98.6609L204.839 98.6779C207.152 106.637 189.998 119.478 179.569 115.395H179.563C178.53 119.886 177.032 124.257 175.095 128.439H159.138C159.081 128.262 159.029 128.079 158.978 127.901C160.456 127.994 161.939 127.906 163.395 127.638C162.211 126.185 161.026 124.72 159.842 123.267C159.816 123.24 159.791 123.211 159.768 123.181C159.168 122.437 158.561 121.699 157.96 120.956C157.928 118.676 158.189 116.402 158.738 114.189V114.189ZM177.016 78.2319L177.008 78.2209L177.016 78.2439V78.2319ZM180.552 110.104L180.689 109.795C180.683 109.572 180.683 109.349 180.689 109.12C180.689 109.057 180.7 108.994 180.7 108.931C180.648 109.326 180.6 109.721 180.546 110.115L180.552 110.104Z" fill="#2F2E41"/>
</g>
<defs>
<clipPath id="clip0_135_352">
<rect width="461.967" height="366" fill="white"/>
</clipPath>
</defs>
</svg>
