<svg width="81" height="81" viewBox="0 0 81 81" fill="none" xmlns="http://www.w3.org/2000/svg">
<g clip-path="url(#clip0_139_698)">
<path d="M40.5 81C62.8675 81 81 62.8675 81 40.5C81 18.1325 62.8675 0 40.5 0C18.1325 0 0 18.1325 0 40.5C0 62.8675 18.1325 81 40.5 81Z" fill="#F4F5FF"/>
<path d="M54 26H28C27.4696 26 26.9609 26.2107 26.5858 26.5858C26.2107 26.9609 26 27.4696 26 28V54C26 54.5304 26.2107 55.0391 26.5858 55.4142C26.9609 55.7893 27.4696 56 28 56H54C54.5304 56 55.0391 55.7893 55.4142 55.4142C55.7893 55.0391 56 54.5304 56 54V28C56 27.4696 55.7893 26.9609 55.4142 26.5858C55.0391 26.2107 54.5304 26 54 26V26ZM54 28V32H28V28H54ZM28 54V34H54V54H28Z" fill="#673DE6"/>
<path d="M51 31C51.5523 31 52 30.5523 52 30C52 29.4477 51.5523 29 51 29C50.4477 29 50 29.4477 50 30C50 30.5523 50.4477 31 51 31Z" fill="#673DE6"/>
<path d="M48 31C48.5523 31 49 30.5523 49 30C49 29.4477 48.5523 29 48 29C47.4477 29 47 29.4477 47 30C47 30.5523 47.4477 31 48 31Z" fill="#673DE6"/>
<path d="M45 31C45.5523 31 46 30.5523 46 30C46 29.4477 45.5523 29 45 29C44.4477 29 44 29.4477 44 30C44 30.5523 44.4477 31 45 31Z" fill="#673DE6"/>
<path d="M31 48C31.5523 48 32 47.5523 32 47C32 46.4477 31.5523 46 31 46C30.4477 46 30 46.4477 30 47C30 47.5523 30.4477 48 31 48Z" fill="#673DE6"/>
<path d="M37 42C37.2652 42 37.5196 41.8946 37.7071 41.7071C37.8946 41.5196 38 41.2652 38 41C38 40.7348 37.8946 40.4804 37.7071 40.2929C37.5196 40.1054 37.2652 40 37 40H35C34.4696 40 33.9609 40.2107 33.5858 40.5858C33.2107 40.9609 33 41.4696 33 42V46C33 46.5304 33.2107 47.0391 33.5858 47.4142C33.9609 47.7893 34.4696 48 35 48H37C37.2652 48 37.5196 47.8946 37.7071 47.7071C37.8946 47.5196 38 47.2652 38 47C38 46.7348 37.8946 46.4804 37.7071 46.2929C37.5196 46.1054 37.2652 46 37 46H35V42H37Z" fill="#673DE6"/>
<path d="M43 40H41C40.4696 40 39.9609 40.2107 39.5858 40.5858C39.2107 40.9609 39 41.4696 39 42V46C39 46.5304 39.2107 47.0391 39.5858 47.4142C39.9609 47.7893 40.4696 48 41 48H43C43.5304 48 44.0391 47.7893 44.4142 47.4142C44.7893 47.0391 45 46.5304 45 46V42C45 41.4696 44.7893 40.9609 44.4142 40.5858C44.0391 40.2107 43.5304 40 43 40ZM43 46H41V42H43V46Z" fill="#673DE6"/>
<path d="M51.23 40.0259C51.0106 39.9739 50.7802 39.9976 50.576 40.0931C50.3717 40.1886 50.2058 40.3502 50.105 40.5519L49.005 42.7639L47.905 40.5529C47.8076 40.3453 47.6418 40.1775 47.4354 40.0777C47.229 39.9778 46.9945 39.9518 46.7713 40.0042C46.5481 40.0566 46.3496 40.1841 46.2092 40.3654C46.0688 40.5466 45.9949 40.7707 46 40.9999V46.9999C46 47.2651 46.1054 47.5195 46.2929 47.707C46.4804 47.8945 46.7348 47.9999 47 47.9999C47.2652 47.9999 47.5196 47.8945 47.7071 47.707C47.8946 47.5195 48 47.2651 48 46.9999V45.2359L48.1 45.4469C48.1923 45.6019 48.3232 45.7302 48.48 45.8194C48.6368 45.9085 48.8141 45.9554 48.9945 45.9554C49.1749 45.9554 49.3522 45.9085 49.509 45.8194C49.6658 45.7302 49.7967 45.6019 49.889 45.4469L49.995 45.2359V46.9999C49.995 47.2651 50.1004 47.5195 50.2879 47.707C50.4754 47.8945 50.7298 47.9999 50.995 47.9999C51.2602 47.9999 51.5146 47.8945 51.7021 47.707C51.8896 47.5195 51.995 47.2651 51.995 46.9999V40.9999C51.9955 40.7752 51.9202 40.5569 51.7814 40.3802C51.6426 40.2035 51.4484 40.0787 51.23 40.0259Z" fill="#673DE6"/>
</g>
<defs>
<clipPath id="clip0_139_698">
<rect width="81" height="81" fill="white"/>
</clipPath>
</defs>
</svg>
