<svg width="81" height="81" viewBox="0 0 81 81" fill="none" xmlns="http://www.w3.org/2000/svg">
<g clip-path="url(#clip0_139_712)">
<path d="M40.5 81C62.8675 81 81 62.8675 81 40.5C81 18.1325 62.8675 0 40.5 0C18.1325 0 0 18.1325 0 40.5C0 62.8675 18.1325 81 40.5 81Z" fill="#F4F5FF"/>
<path d="M51.6071 29.3931C48.7939 26.5799 44.9785 24.9995 41.0001 24.9995C37.0217 24.9995 33.2062 26.5799 30.3931 29.3931C27.5799 32.2062 25.9995 36.0217 25.9995 40.0001C25.9995 43.9785 27.5799 47.7939 30.3931 50.6071C33.2062 53.4202 37.0217 55.0006 41.0001 55.0006C44.9785 55.0006 48.7939 53.4202 51.6071 50.6071C54.4202 47.7939 56.0006 43.9785 56.0006 40.0001C56.0006 36.0217 54.4202 32.2062 51.6071 29.3931V29.3931ZM41.8791 34.6851C43.4417 34.6416 44.9977 34.4643 46.5301 34.1551C46.9082 35.7853 47.122 37.4492 47.1681 39.1221H41.8791V34.6851ZM41.8791 32.9261V26.9061C43.3944 27.6053 44.585 28.8575 45.2071 30.4061C45.536 31.0697 45.8177 31.7558 46.0501 32.4591C44.6748 32.7282 43.2798 32.8844 41.8791 32.9261V32.9261ZM40.1211 26.9061V32.9261C38.7204 32.8851 37.3254 32.7296 35.9501 32.4611C36.1825 31.7578 36.4642 31.0717 36.7931 30.4081C37.4147 28.8587 38.6054 27.6058 40.1211 26.9061V26.9061ZM40.1211 34.6851V39.1221H34.8331C34.8788 37.4489 35.0922 35.7846 35.4701 34.1541C37.0024 34.4636 38.5584 34.6413 40.1211 34.6851V34.6851ZM33.0741 39.1211H27.7871C27.9423 36.6726 28.781 34.3167 30.2081 32.3211C31.3387 32.9206 32.531 33.3958 33.7641 33.7381C33.3528 35.5045 33.1216 37.308 33.0741 39.1211V39.1211ZM33.0741 40.8791C33.1216 42.6921 33.3528 44.4957 33.7641 46.2621C32.531 46.6044 31.3387 47.0795 30.2081 47.6791C28.781 45.6834 27.9423 43.3275 27.7871 40.8791H33.0741ZM34.8331 40.8791H40.1211V45.3161C38.5584 45.3595 37.0024 45.5369 35.4701 45.8461C35.0923 44.2159 34.8789 42.5519 34.8331 40.8791V40.8791ZM40.1211 47.0791V53.0991C38.6058 52.3998 37.4151 51.1477 36.7931 49.5991C36.4642 48.9354 36.1825 48.2494 35.9501 47.5461C37.3252 47.2752 38.7202 47.1174 40.1211 47.0741V47.0791ZM41.8791 53.0991V47.0791C43.2798 47.1201 44.6747 47.2756 46.0501 47.5441C45.8177 48.2474 45.536 48.9334 45.2071 49.5971C44.5844 51.1446 43.3938 52.3956 41.8791 53.0941V53.0991ZM41.8791 45.3201V40.8791H47.1671C47.1209 42.5519 46.9072 44.2159 46.5291 45.8461C44.9971 45.5366 43.4414 45.3589 41.8791 45.3151V45.3201ZM48.9261 40.8831H54.2131C54.0579 43.3315 53.2191 45.6874 51.7921 47.6831C50.6615 47.0835 49.4692 46.6084 48.2361 46.2661C48.6476 44.4984 48.8788 42.6935 48.9261 40.8791V40.8831ZM48.9261 39.1251C48.8785 37.312 48.6473 35.5085 48.2361 33.7421C49.4692 33.3998 50.6615 32.9246 51.7921 32.3251C53.2191 34.3207 54.0579 36.6766 54.2131 39.1251H48.9261ZM50.6521 30.9391C49.7264 31.4015 48.7587 31.7746 47.7621 32.0531C47.4948 31.2208 47.1659 30.4095 46.7781 29.6261C46.4143 28.8862 45.9767 28.185 45.4721 27.5331C47.3125 28.194 48.9831 29.2556 50.3631 30.6411C50.4621 30.7351 50.5581 30.8341 50.6521 30.9351V30.9391ZM36.5281 27.5291C36.0231 28.181 35.5852 28.8822 35.2211 29.6221C34.8333 30.4055 34.5044 31.2168 34.2371 32.0491C33.2405 31.7706 32.2728 31.3975 31.3471 30.9351C31.4421 30.8351 31.5371 30.7351 31.6361 30.6351C33.0166 29.2502 34.6875 28.1893 36.5281 27.5291V27.5291ZM31.3481 49.0651C32.2738 48.6026 33.2415 48.2296 34.2381 47.9511C34.5054 48.7834 34.8343 49.5946 35.2221 50.3781C35.5859 51.1179 36.0234 51.8191 36.5281 52.4711C34.6877 51.8102 33.0171 50.7486 31.6371 49.3631C31.5381 49.2651 31.4421 49.1661 31.3481 49.0651ZM45.4731 52.4711C45.9777 51.8191 46.4153 51.1179 46.7791 50.3781C47.1669 49.5946 47.4958 48.7834 47.7631 47.9511C48.7597 48.2296 49.7274 48.6026 50.6531 49.0651C50.5581 49.1651 50.4631 49.2651 50.3641 49.3651C48.9836 50.75 47.3127 51.8109 45.4721 52.4711H45.4731Z" fill="#673DE6"/>
</g>
<defs>
<clipPath id="clip0_139_712">
<rect width="81" height="81" fill="white"/>
</clipPath>
</defs>
</svg>
