<svg width="511" height="445" viewBox="0 0 511 445" fill="none" xmlns="http://www.w3.org/2000/svg">
<g clip-path="url(#clip0_424_589)">
<path d="M103.655 311.115C103.594 311.115 103.533 311.105 103.471 311.084L88.3074 305.837C88.167 305.788 88.0496 305.686 87.9858 305.551C87.9194 305.415 87.9118 305.262 87.9603 305.119L91.0946 296.112C88.1798 294.213 85.5763 291.903 83.3378 289.231L74.7311 293.394C74.4503 293.529 74.1159 293.411 73.9806 293.133L66.9793 278.73C66.913 278.595 66.9053 278.441 66.9538 278.299C67.0023 278.158 67.1044 278.041 67.2397 277.977L75.8465 273.816C75.1292 270.412 74.925 266.94 75.2339 263.484L66.2009 260.358C65.9124 260.258 65.7542 259.944 65.8486 259.653L70.6753 244.836C70.7697 244.545 71.0785 244.382 71.3721 244.471L80.8543 247.315C82.7584 244.402 85.0811 241.799 87.7637 239.563L83.5905 230.979C83.5241 230.844 83.5165 230.691 83.565 230.548C83.6135 230.407 83.7156 230.29 83.8509 230.226L98.2925 223.243C98.5732 223.108 98.9076 223.225 99.0429 223.503L103.216 232.087C106.631 231.372 110.113 231.166 113.579 231.477L116.713 222.467C116.815 222.173 117.134 222.018 117.428 222.12L132.592 227.367C132.732 227.416 132.85 227.518 132.914 227.653C132.98 227.789 132.988 227.942 132.939 228.085L129.805 237.092C132.717 238.989 135.323 241.301 137.562 243.974L146.168 239.811C146.449 239.675 146.783 239.793 146.919 240.071L153.92 254.474C153.986 254.609 153.994 254.763 153.945 254.906C153.897 255.046 153.795 255.163 153.66 255.227L145.053 259.388C145.77 262.793 145.977 266.264 145.665 269.72L154.698 272.847C154.839 272.895 154.956 272.997 155.02 273.132C155.086 273.268 155.094 273.421 155.046 273.564L149.785 288.687C149.683 288.98 149.364 289.136 149.07 289.034L140.035 285.907C138.133 288.815 135.813 291.413 133.136 293.644L137.306 302.227C137.373 302.363 137.38 302.516 137.332 302.659C137.283 302.799 137.181 302.917 137.046 302.98L122.604 309.964C122.324 310.099 121.989 309.982 121.854 309.704L117.681 301.12C114.266 301.834 110.784 302.041 107.318 301.73L104.183 310.74C104.102 310.972 103.885 311.118 103.653 311.118L103.655 311.115ZM89.2084 304.959L103.308 309.839L106.402 300.944C106.488 300.696 106.733 300.54 106.991 300.568C110.628 300.941 114.291 300.724 117.875 299.928C118.13 299.872 118.388 299.997 118.503 300.231L122.622 308.708L136.05 302.215L131.931 293.741C131.816 293.506 131.88 293.223 132.081 293.059C134.927 290.749 137.365 288.016 139.325 284.935C139.466 284.715 139.739 284.621 139.984 284.705L148.904 287.791L153.795 273.73L144.877 270.644C144.629 270.56 144.473 270.315 144.502 270.054C144.874 266.422 144.657 262.772 143.858 259.201C143.802 258.946 143.927 258.686 144.162 258.571L152.659 254.461L146.15 241.069L137.651 245.178C137.416 245.291 137.135 245.229 136.969 245.028C134.652 242.189 131.91 239.757 128.825 237.802C128.602 237.661 128.508 237.388 128.595 237.141L131.688 228.246L117.589 223.365L114.495 232.26C114.411 232.508 114.163 232.664 113.906 232.636C110.268 232.263 106.603 232.48 103.022 233.276C102.767 233.333 102.509 233.207 102.394 232.973L98.2746 224.496L84.8463 230.989L88.9659 239.463C89.0808 239.698 89.017 239.982 88.8153 240.145C85.9694 242.455 83.5318 245.189 81.569 248.269C81.4337 248.481 81.1734 248.578 80.9334 248.507L71.5737 245.702L67.0891 259.469L76.0175 262.56C76.2651 262.645 76.4208 262.89 76.3927 263.15C76.02 266.779 76.237 270.432 77.0359 274.003C77.092 274.258 76.967 274.518 76.7322 274.633L68.2351 278.743L74.7438 292.135L83.2434 288.026C83.4782 287.914 83.759 287.975 83.9249 288.176C86.2425 291.015 88.9812 293.447 92.0697 295.402C92.2917 295.543 92.3862 295.816 92.2994 296.063L89.2058 304.959H89.2084ZM110.432 287.352C108.175 287.352 105.881 286.982 103.632 286.203C98.3767 284.384 94.1473 280.631 91.7251 275.634C89.3105 270.651 88.9812 265.028 90.8011 259.799C94.5608 248.989 106.435 243.249 117.27 246.998C122.525 248.818 126.755 252.57 129.177 257.568C131.591 262.55 131.921 268.173 130.101 273.403C127.122 281.966 119.046 287.352 110.432 287.352ZM110.468 246.978C102.318 246.978 94.6808 252.07 91.8629 260.171C90.1426 265.115 90.454 270.432 92.7384 275.144C95.0305 279.871 99.0301 283.419 104.002 285.142C114.253 288.687 125.483 283.258 129.042 273.035C130.762 268.091 130.45 262.775 128.166 258.063C125.874 253.336 121.874 249.788 116.902 248.065C114.773 247.33 112.604 246.98 110.47 246.98L110.468 246.978Z" fill="black"/>
<path d="M56.4691 459.662C56.3492 459.662 56.2292 459.624 56.1271 459.545C55.8795 459.356 55.8336 459.003 56.0224 458.756L183.82 292.223C183.927 292.085 184.09 292.003 184.267 292.003H203.854C204.165 292.003 204.415 292.256 204.415 292.565V459.098C204.415 459.409 204.163 459.659 203.854 459.659C203.545 459.659 203.292 459.407 203.292 459.098V293.129H184.545L56.9158 459.442C56.806 459.585 56.6376 459.662 56.4691 459.662Z" fill="black"/>
<path d="M199.78 384.324H114.536L98.2109 405.672H183.26L199.78 384.324Z" fill="#DFE3E8"/>
<path d="M174.239 417.44H88.9927L72.6699 438.786H157.717L174.239 417.44Z" fill="#DFE3E8"/>
<path d="M233.483 336.438H148.128L131.815 357.786H216.962L233.483 336.438Z" fill="#DFE3E8"/>
<path d="M142.475 459.662C142.355 459.662 142.235 459.624 142.133 459.545C141.885 459.356 141.839 459.004 142.028 458.756L269.826 292.223C269.933 292.086 270.096 292.004 270.272 292.004H289.86C290.171 292.004 290.421 292.257 290.421 292.565V459.098C290.421 459.41 290.169 459.66 289.86 459.66C289.551 459.66 289.298 459.407 289.298 459.098V293.13H270.551L142.922 459.443C142.812 459.586 142.643 459.662 142.475 459.662Z" fill="black"/>
<path d="M258.239 305.132H191.879C191.568 305.132 191.317 304.879 191.317 304.57C191.317 304.261 191.57 304.009 191.879 304.009H258.239C258.551 304.009 258.801 304.261 258.801 304.57C258.801 304.879 258.548 305.132 258.239 305.132Z" fill="black"/>
<path d="M239.084 268.838L214.51 260.739L197.424 312.583L221.998 320.681L239.084 268.838Z" fill="#DFE3E8"/>
<path d="M221.998 321.24C221.939 321.24 221.88 321.23 221.822 321.212L197.247 313.116C197.104 313.07 196.987 312.967 196.92 312.835C196.854 312.702 196.841 312.546 196.89 312.406L213.993 260.566C214.09 260.273 214.409 260.109 214.703 260.209L239.278 268.308C239.421 268.354 239.538 268.456 239.604 268.589C239.671 268.721 239.683 268.877 239.635 269.017L222.531 320.854C222.452 321.092 222.233 321.24 221.998 321.24ZM198.135 312.222L221.64 319.969L238.392 269.199L214.887 261.452L198.135 312.222Z" fill="black"/>
<path d="M235.359 280.179L207.89 280.853L214.526 260.74L239.101 268.839L235.359 280.179Z" fill="black"/>
<path d="M183.631 319.009C188.795 311.503 190.281 306.413 196.825 302.11L197.397 301.734C199.49 300.359 202.277 301.854 202.285 304.358L202.297 308.552C202.31 312.626 206.279 313.509 206.323 313.539C208.617 314.295 209.891 313.254 215.422 312.013L216.992 307.255L222.336 304.79L227.206 306.395L229.044 312.996L243.818 329.193L263.545 334.472L267.887 340.511L260.924 346.994L230.387 351.795L210.797 340.391L183.629 319.009H183.631Z" fill="white"/>
<path d="M230.389 352.357C230.29 352.357 230.193 352.331 230.106 352.28L210.516 340.876C210.493 340.863 210.473 340.848 210.452 340.832L183.284 319.451C183.052 319.267 183.001 318.935 183.17 318.69C184.64 316.554 185.834 314.573 186.888 312.825C189.599 308.33 191.741 304.779 196.516 301.643L197.088 301.267C198.247 300.504 199.668 300.443 200.888 301.099C202.111 301.755 202.841 302.972 202.846 304.358L202.859 308.552C202.869 311.617 205.358 312.672 206.425 312.986C206.445 312.991 206.471 313.001 206.496 313.011C207.88 313.465 208.867 313.185 211.032 312.569C212.058 312.279 213.324 311.919 214.988 311.538L216.458 307.082C216.507 306.934 216.614 306.814 216.757 306.747L222.102 304.282C222.232 304.223 222.377 304.213 222.513 304.259L227.383 305.864C227.561 305.923 227.699 306.066 227.748 306.247L229.55 312.718L244.121 328.696L263.691 333.933C263.816 333.966 263.926 334.043 264.002 334.148L268.344 340.187C268.51 340.416 268.479 340.733 268.27 340.927L261.307 347.41C261.225 347.487 261.121 347.538 261.011 347.553L230.474 352.354C230.446 352.359 230.415 352.362 230.387 352.362L230.389 352.357ZM211.116 339.924L230.499 351.205L260.669 346.463L267.144 340.437L263.208 334.962L243.672 329.735C243.568 329.706 243.476 329.65 243.402 329.571L228.628 313.373C228.57 313.31 228.526 313.231 228.503 313.146L226.745 306.837L222.372 305.395L217.451 307.664L215.958 312.189C215.897 312.378 215.741 312.518 215.547 312.562C213.758 312.963 212.418 313.343 211.341 313.649C209.095 314.287 207.857 314.637 206.146 314.075C206.141 314.075 206.136 314.073 206.131 314.07C205.069 313.759 201.746 312.475 201.733 308.554L201.721 304.361C201.718 303.396 201.208 302.546 200.355 302.087C199.503 301.63 198.51 301.673 197.703 302.204L197.131 302.579C192.57 305.578 190.487 309.032 187.851 313.404C186.86 315.048 185.745 316.893 184.392 318.892L211.116 339.924Z" fill="black"/>
<path d="M177.588 321.694L183.632 319.009L212.967 338.814L235.977 347.854L253.341 345.603L267.913 340.49L268.63 345.286L267.395 348.896L257.445 355.94C257.445 355.94 251.167 357.028 238.744 358.881C238.744 358.881 218.067 352.847 212.885 351.124L211.002 347.497L206.742 346.093L203.099 347.9C191.751 344.117 182.787 341.205 182.787 341.205L172.144 331.649L177.588 321.694Z" fill="black"/>
<path d="M191.994 307.72L191.419 306.635C190.937 305.726 186.713 297.697 186.575 295.364C186.501 294.113 186.922 292.908 187.754 291.971C188.589 291.035 189.737 290.481 190.988 290.407C192.236 290.335 193.443 290.754 194.38 291.586C195.317 292.418 195.873 293.567 195.945 294.817C196.08 297.148 192.81 305.614 192.438 306.574L191.991 307.717L191.994 307.72ZM191.266 291.525C191.195 291.525 191.126 291.525 191.054 291.53C190.102 291.586 189.229 292.007 188.596 292.719C187.963 293.431 187.644 294.345 187.7 295.297C187.79 296.839 190.342 302.089 191.838 305.002C192.986 301.936 194.916 296.425 194.827 294.884C194.771 293.934 194.349 293.061 193.637 292.426C192.979 291.839 192.144 291.522 191.269 291.522L191.266 291.525Z" fill="black"/>
<path d="M226.18 319.333C225.938 319.333 225.713 319.175 225.642 318.93C225.555 318.631 225.724 318.32 226.022 318.231L232.273 316.39C232.572 316.303 232.883 316.474 232.972 316.771C233.059 317.069 232.891 317.381 232.592 317.47L226.341 319.31C226.288 319.326 226.234 319.333 226.183 319.333H226.18Z" fill="black"/>
<path d="M229.606 323.736C229.364 323.736 229.139 323.578 229.068 323.333C228.981 323.034 229.149 322.723 229.448 322.633L235.699 320.793C236 320.706 236.309 320.877 236.398 321.173C236.485 321.472 236.317 321.783 236.018 321.873L229.767 323.713C229.713 323.728 229.66 323.736 229.609 323.736H229.606Z" fill="black"/>
<path d="M233.031 328.136C232.789 328.136 232.564 327.978 232.493 327.733C232.406 327.435 232.574 327.123 232.873 327.034L239.124 325.193C239.425 325.107 239.734 325.278 239.823 325.574C239.91 325.872 239.741 326.184 239.443 326.273L233.192 328.113C233.138 328.129 233.085 328.136 233.034 328.136H233.031Z" fill="black"/>
<path d="M166.375 296.79L139.096 292.137L129.656 347.481L156.935 352.134L166.375 296.79Z" fill="#DFE3E8"/>
<path d="M156.957 352.691C156.926 352.691 156.893 352.691 156.862 352.683L129.582 348.033C129.434 348.007 129.304 347.925 129.217 347.803C129.13 347.68 129.097 347.53 129.123 347.382L138.572 292.04C138.623 291.734 138.914 291.527 139.22 291.581L166.5 296.231C166.648 296.257 166.779 296.338 166.865 296.461C166.952 296.583 166.985 296.734 166.96 296.882L157.511 352.224C157.465 352.497 157.227 352.691 156.957 352.691ZM130.325 347.017L156.495 351.478L165.755 297.247L139.585 292.785L130.325 347.017Z" fill="black"/>
<path d="M164.362 308.746L135.221 315.002L139.123 292.135L166.404 296.788L164.362 308.746Z" fill="black"/>
<path d="M129.805 337.06L129.297 337.516C123.47 342.744 122.757 347.999 118.771 356.19L148.823 373.289L196.647 382.059L205.657 378.646L204.049 371.385L179.038 358.112L162.782 343.481L159.979 337.228L154.926 336.365L150.007 339.599L149.165 344.538C143.879 346.59 142.776 347.808 140.395 347.402C140.346 347.376 136.29 347.096 135.67 343.071L135.032 338.928C134.652 336.452 131.673 335.388 129.807 337.062L129.805 337.06Z" fill="white"/>
<path d="M196.647 382.62C196.614 382.62 196.581 382.618 196.545 382.61L148.721 373.84C148.659 373.83 148.598 373.807 148.544 373.776L118.492 356.678C118.234 356.532 118.135 356.211 118.265 355.943C119.401 353.61 120.287 351.473 121.068 349.587C123.079 344.74 124.667 340.909 128.919 337.095L129.429 336.639C130.463 335.712 131.859 335.439 133.164 335.906C134.468 336.373 135.374 337.468 135.586 338.839L136.224 342.984C136.691 346.016 139.307 346.687 140.412 346.836C140.433 346.836 140.458 346.843 140.486 346.848C141.918 347.093 142.858 346.667 144.905 345.738C145.877 345.296 147.074 344.753 148.662 344.127L149.451 339.502C149.476 339.349 149.565 339.214 149.696 339.127L154.614 335.893C154.734 335.814 154.877 335.786 155.017 335.809L160.071 336.672C160.258 336.702 160.413 336.825 160.49 336.996L163.244 343.14L179.362 357.645L204.312 370.887C204.458 370.964 204.562 371.101 204.598 371.262L206.206 378.524C206.268 378.797 206.117 379.073 205.857 379.172L196.847 382.582C196.783 382.605 196.714 382.618 196.647 382.618V382.62ZM149.019 372.753L196.596 381.477L205.004 378.294L203.557 371.76L178.775 358.607C178.735 358.587 178.696 358.559 178.663 358.528L162.407 343.898C162.348 343.844 162.302 343.78 162.269 343.709L159.589 337.731L155.048 336.958L150.52 339.934L149.719 344.63C149.685 344.824 149.553 344.988 149.366 345.059C147.659 345.723 146.39 346.297 145.369 346.761C143.243 347.726 142.072 348.257 140.295 347.956C140.29 347.956 140.285 347.956 140.282 347.956C139.185 347.808 135.708 347.035 135.111 343.157L134.473 339.012C134.325 338.058 133.694 337.292 132.783 336.968C131.872 336.644 130.9 336.833 130.18 337.478L129.669 337.935C125.606 341.58 124.062 345.304 122.106 350.021C121.371 351.792 120.544 353.786 119.506 355.96L149.019 372.75V372.753Z" fill="black"/>
<path d="M205.657 378.646L190.215 378.958L150.729 371.405L118.77 356.19L113.193 359.743L109.293 370.397L121.241 378.261C121.241 378.261 130.539 379.805 142.326 381.855L145.657 379.527L150.081 380.28L152.483 383.585C170.903 386.778 190.873 390.132 190.873 390.132L202.538 386.467L204.838 383.422L205.655 378.641L205.657 378.646Z" fill="black"/>
<path d="M125.358 343.783L124.628 342.795C124.015 341.968 118.64 334.655 118.158 332.371C117.9 331.146 118.135 329.89 118.819 328.841C119.503 327.792 120.557 327.072 121.782 326.814C124.314 326.281 126.81 327.907 127.341 330.439C127.824 332.723 125.853 341.583 125.626 342.586L125.355 343.783H125.358ZM122.752 327.838C122.51 327.838 122.262 327.863 122.017 327.914C121.085 328.111 120.284 328.657 119.763 329.456C119.242 330.255 119.064 331.207 119.26 332.139C119.579 333.65 122.885 338.461 124.799 341.118C125.478 337.915 126.563 332.179 126.244 330.668C125.891 328.991 124.403 327.838 122.752 327.838Z" fill="black"/>
<path d="M160.811 350.184C160.599 350.184 160.395 350.064 160.3 349.86C160.17 349.579 160.29 349.245 160.574 349.112L166.48 346.363C166.763 346.23 167.098 346.356 167.228 346.636C167.358 346.917 167.238 347.251 166.955 347.384L161.048 350.133C160.972 350.169 160.89 350.187 160.811 350.187V350.184Z" fill="black"/>
<path d="M164.854 354.025C164.642 354.025 164.438 353.906 164.343 353.701C164.213 353.421 164.333 353.086 164.617 352.953L170.523 350.205C170.806 350.072 171.138 350.197 171.271 350.478C171.401 350.758 171.281 351.093 170.998 351.225L165.091 353.974C165.015 354.01 164.933 354.028 164.854 354.028V354.025Z" fill="black"/>
<path d="M168.897 357.869C168.685 357.869 168.481 357.749 168.386 357.545C168.256 357.264 168.376 356.93 168.66 356.797L174.568 354.048C174.852 353.916 175.184 354.041 175.316 354.321C175.446 354.602 175.326 354.937 175.043 355.069L169.134 357.818C169.058 357.854 168.976 357.872 168.897 357.872V357.869Z" fill="black"/>
<path d="M166.847 108.802L172.513 145.569L184.798 203.04C189.045 222.91 188.565 243.498 183.397 263.149L166.847 326.054H125.421L141.537 241.017L125.426 145.608H125.421V108.802H166.847Z" fill="black"/>
<path d="M166.847 326.613H125.422C125.253 326.613 125.095 326.539 124.988 326.409C124.88 326.281 124.837 326.11 124.868 325.944L140.966 241.007L124.886 145.774C124.868 145.72 124.857 145.664 124.857 145.603V108.797C124.857 108.485 125.11 108.235 125.419 108.235H166.845C167.123 108.235 167.358 108.437 167.401 108.713L173.068 145.48L185.347 202.917C189.592 222.775 189.105 243.652 183.938 263.287L167.388 326.192C167.325 326.439 167.1 326.61 166.845 326.61L166.847 326.613ZM126.1 325.487H166.413L182.854 263.004C187.976 243.537 188.459 222.842 184.25 203.155L171.962 145.684L166.365 109.364H125.983V145.524L142.091 240.923C142.102 240.989 142.102 241.056 142.091 241.122L126.103 325.49L126.1 325.487Z" fill="black"/>
<path d="M146.118 152.816L142.374 116.202L183.585 111.993L184.183 117.843L248.529 185.75C257.578 195.299 261.087 208.821 257.823 221.561L239.902 291.525L199.661 291.946L209.536 218.122L155.815 151.826L146.116 152.816H146.118Z" fill="black"/>
<path d="M173.308 222.206C192.191 264.625 234.714 294.197 284.142 294.197C351.11 294.197 405.405 239.907 405.405 172.934C405.405 163.304 404.279 153.932 402.158 144.95L389.789 147.29L407.041 122.006L432.325 139.253L420.503 141.491C422.82 151.599 424.063 162.125 424.063 172.937C424.063 250.212 361.417 312.853 284.142 312.853C227.21 312.853 178.219 278.85 156.365 230.045L173.308 222.209V222.206Z" fill="#FC5185"/>
<path d="M284.142 313.411C228.826 313.411 178.469 280.776 155.852 230.269C155.727 229.988 155.852 229.659 156.13 229.529L173.073 221.693C173.211 221.629 173.367 221.624 173.507 221.677C173.648 221.731 173.763 221.838 173.824 221.976C193.202 265.508 236.506 293.633 284.145 293.633C350.699 293.633 404.844 239.486 404.844 172.931C404.844 163.709 403.797 154.516 401.735 145.6L389.894 147.841C389.672 147.884 389.445 147.787 389.32 147.596C389.195 147.405 389.197 147.16 389.325 146.971L406.577 121.686C406.75 121.429 407.103 121.365 407.358 121.538L432.642 138.785C432.831 138.913 432.923 139.142 432.874 139.364C432.828 139.586 432.652 139.76 432.428 139.803L421.177 141.935C423.464 152.101 424.622 162.53 424.622 172.936C424.622 210.46 410.01 245.737 383.475 272.269C356.94 298.801 321.663 313.414 284.14 313.414L284.142 313.411ZM157.105 230.317C179.651 280.133 229.451 312.286 284.142 312.286C360.985 312.286 423.502 249.772 423.502 172.931C423.502 162.415 422.31 151.876 419.957 141.613C419.923 141.465 419.951 141.307 420.033 141.179C420.117 141.052 420.25 140.962 420.398 140.934L430.889 138.948L407.189 122.784L391.02 146.483L402.054 144.395C402.347 144.339 402.636 144.525 402.705 144.819C404.869 153.985 405.964 163.444 405.964 172.934C405.964 205.475 393.291 236.068 370.281 259.078C347.271 282.088 316.678 294.758 284.14 294.758C236.248 294.758 192.696 266.592 173.025 222.954L157.103 230.317H157.105Z" fill="black"/>
<path d="M369.89 144.885C369.89 93.8676 327.778 52.5107 275.831 52.5107C224.599 52.5107 183.239 91.9457 181.807 142.241C180.95 172.352 194.776 199.318 216.765 216.762C227.981 225.659 234.231 239.266 234.231 253.427C234.231 275.991 252.854 294.279 275.828 294.279C298.802 294.279 317.425 275.988 317.425 253.427V253.42C317.425 239.026 324.087 225.463 335.422 216.338C356.462 199.4 369.887 173.687 369.887 144.885H369.89Z" fill="#D8DBFE"/>
<path d="M275.831 294.84C252.584 294.84 233.67 276.261 233.67 253.425C233.67 239.101 227.381 225.897 216.418 217.201C193.235 198.811 180.414 171.482 181.246 142.223C182.686 91.6037 224.237 51.9468 275.831 51.9468C328.005 51.9468 370.452 93.638 370.452 144.886C370.452 172.832 357.812 199.035 335.777 216.777C324.473 225.876 317.992 239.233 317.992 253.42C317.992 276.264 299.079 294.84 275.831 294.84ZM275.831 53.0698C224.847 53.0698 183.793 92.2444 182.372 142.254C181.55 171.155 194.215 198.15 217.118 216.318C228.354 225.231 234.796 238.753 234.796 253.422C234.796 275.638 253.204 293.712 275.831 293.712C298.458 293.712 316.866 275.638 316.866 253.422C316.866 238.884 323.503 225.21 335.073 215.896C356.842 198.369 369.329 172.487 369.329 144.88C369.329 94.2557 327.387 53.0673 275.834 53.0673L275.831 53.0698Z" fill="black"/>
<path d="M276.472 327.325C259.075 327.325 244.973 313.476 244.973 296.39H307.972C307.972 313.476 293.869 327.325 276.472 327.325Z" fill="white"/>
<path d="M276.472 327.887C258.794 327.887 244.411 313.757 244.411 296.39C244.411 296.079 244.664 295.829 244.973 295.829H307.972C308.283 295.829 308.533 296.081 308.533 296.39C308.533 313.757 294.15 327.887 276.472 327.887ZM245.542 296.952C245.848 313.44 259.606 326.761 276.472 326.761C293.339 326.761 307.096 313.44 307.402 296.952H245.539H245.542Z" fill="black"/>
<path d="M320.479 255.051H231.185V276.154H320.479V255.051Z" fill="white"/>
<path d="M320.479 276.718H231.185C230.873 276.718 230.623 276.466 230.623 276.157V255.053C230.623 254.742 230.876 254.492 231.185 254.492H320.479C320.79 254.492 321.04 254.744 321.04 255.053V276.157C321.04 276.468 320.787 276.718 320.479 276.718ZM231.746 275.593H319.914V255.615H231.746V275.593Z" fill="black"/>
<path d="M320.479 275.287H231.185V296.39H320.479V275.287Z" fill="white"/>
<path d="M320.479 296.952H231.185C230.873 296.952 230.623 296.699 230.623 296.39V275.287C230.623 274.975 230.876 274.725 231.185 274.725H320.479C320.79 274.725 321.04 274.978 321.04 275.287V296.39C321.04 296.701 320.787 296.952 320.479 296.952ZM231.746 295.826H319.914V275.846H231.746V295.826Z" fill="black"/>
<path d="M291.668 255.51L258.852 255.503C258.571 255.503 258.334 255.296 258.295 255.018L245.985 168.067C245.96 167.888 246.023 167.707 246.153 167.582C246.286 167.457 246.467 167.403 246.646 167.436L254.548 168.922L261.144 165.961C261.287 165.897 261.448 165.895 261.591 165.956L268.635 168.902L275.795 165.959C275.925 165.905 276.068 165.902 276.201 165.951L284.402 168.917L292.467 165.956C292.597 165.908 292.743 165.91 292.873 165.961L300.221 168.932L306.893 167.454C307.075 167.416 307.269 167.467 307.404 167.597C307.539 167.727 307.6 167.916 307.57 168.1L292.225 255.043C292.176 255.311 291.944 255.508 291.671 255.508L291.668 255.51ZM259.342 254.377L291.199 254.385L306.314 168.733L300.293 170.068C300.181 170.091 300.066 170.083 299.961 170.04L292.653 167.084L284.598 170.042C284.473 170.088 284.338 170.088 284.213 170.042L276.024 167.082L268.85 170.032C268.712 170.088 268.556 170.088 268.418 170.032L261.384 167.092L254.85 170.025C254.745 170.071 254.628 170.086 254.515 170.065L247.21 168.692L259.342 254.382V254.377Z" fill="black"/>
<path d="M390.653 98.4444C371.77 56.0257 329.247 26.4534 279.819 26.4534C212.851 26.4534 158.556 80.7434 158.556 147.716C158.556 157.347 159.682 166.719 161.803 175.701L174.172 173.361L156.92 198.645L131.636 181.398L143.459 179.16C141.141 169.052 139.898 158.526 139.898 147.714C139.898 70.4418 202.545 7.80029 279.819 7.80029C336.751 7.80029 385.742 41.8036 407.596 90.6085L390.653 98.4444Z" fill="#FC5185"/>
<path d="M156.919 199.209C156.809 199.209 156.7 199.179 156.603 199.112L131.318 181.865C131.129 181.738 131.038 181.508 131.086 181.286C131.132 181.064 131.308 180.89 131.533 180.847L142.784 178.716C140.497 168.549 139.338 158.123 139.338 147.714C139.338 110.191 153.951 74.9137 180.486 48.3813C207.016 21.8488 242.295 7.23877 279.818 7.23877C335.134 7.23877 385.491 39.8741 408.108 90.3814C408.233 90.6622 408.108 90.9915 407.83 91.1216L390.887 98.9576C390.752 99.0214 390.593 99.0265 390.453 98.9729C390.313 98.9193 390.198 98.8121 390.137 98.6743C370.759 55.1427 327.454 27.0175 279.816 27.0175C213.261 27.0175 159.114 81.1621 159.114 147.719C159.114 156.941 160.161 166.135 162.223 175.05L174.064 172.809C174.286 172.766 174.513 172.863 174.638 173.054C174.763 173.246 174.761 173.491 174.633 173.68L157.381 198.964C157.271 199.125 157.095 199.209 156.917 199.209H156.919ZM133.072 181.7L156.771 197.864L172.941 174.165L161.907 176.253C161.61 176.309 161.325 176.122 161.256 175.829C159.091 166.663 157.994 157.204 157.994 147.714C157.994 115.173 170.666 84.5798 193.677 61.5697C216.687 38.5596 247.28 25.8893 279.818 25.8893C327.709 25.8893 371.261 54.0553 390.933 97.6941L406.852 90.3304C384.309 40.5173 334.509 8.36184 279.818 8.36184C202.975 8.36184 140.459 70.8758 140.459 147.717C140.459 158.235 141.651 168.771 144.004 179.035C144.037 179.183 144.009 179.341 143.927 179.469C143.843 179.596 143.71 179.686 143.56 179.714L133.069 181.7H133.072Z" fill="black"/>
<path d="M257.472 84.8755L263.378 83.0557L267.697 94.4139C268.353 96.0883 267.595 97.8597 266.004 98.3676C264.412 98.8756 262.589 97.9312 261.933 96.2542L257.472 84.8755Z" fill="#DFE3E8"/>
<path d="M262.061 79.9824L267.824 78.1421L272.286 89.5208C272.942 91.1952 272.183 92.9666 270.593 93.4745C269.001 93.9824 267.178 93.038 266.522 91.3611L262.061 79.9824Z" fill="#DFE3E8"/>
<path d="M267.408 77.1184L272.556 75.4746L276.541 85.6358C277.128 87.1315 276.451 88.7115 275.03 89.1658C273.608 89.6201 271.98 88.7753 271.395 87.2795L267.411 77.1184H267.408Z" fill="#DFE3E8"/>
<path d="M252.698 90.4939L258.114 87.5688L273.643 106.074C274.703 107.337 274.537 109.218 273.273 110.278C272.01 111.337 270.126 111.171 269.067 109.908L252.698 90.4914V90.4939Z" fill="#DFE3E8"/>
<path d="M239.265 75.8989L250.722 80.1206L249.446 101.002C249.477 102.748 248.106 104.05 246.383 103.912C244.663 103.774 243.241 102.248 243.211 100.502L243.047 91.0271L239.265 75.9015V75.8989Z" fill="#DFE3E8"/>
<path d="M239.311 75.3832L228.33 58.8435L247.159 46.7578L257.114 61.3398L272.536 75.4521L253.538 91.4048L239.311 75.3832Z" fill="#DFE3E8"/>
<path d="M228.33 58.8435L247.159 46.7578L251.085 52.0005L235.872 70.2912L228.33 58.8435Z" fill="black"/>
<path d="M267.222 98.1736C267.051 98.1736 266.883 98.097 266.773 97.949C266.586 97.7014 266.635 97.3491 266.883 97.1603C267.398 96.7723 267.789 96.1954 267.171 94.618L263.212 84.4645C263.1 84.1761 263.243 83.8494 263.531 83.7371C263.82 83.6247 264.146 83.7677 264.259 84.0561L268.217 94.2071C268.468 94.8478 269.231 96.7953 267.559 98.0562C267.457 98.1327 267.339 98.1685 267.222 98.1685V98.1736Z" fill="black"/>
<path d="M269.71 94.1716C268.153 94.1716 266.617 93.1506 265.997 91.5656L263.214 84.4673C263.1 84.1789 263.243 83.8522 263.534 83.7373C263.822 83.625 264.149 83.7654 264.264 84.0564L267.046 91.1546C267.594 92.5559 269.108 93.3574 270.423 92.9362C271.002 92.7499 271.466 92.3466 271.729 91.7953C272.023 91.1751 272.036 90.4221 271.763 89.7253L267.778 79.5973C267.663 79.3089 267.806 78.9821 268.095 78.8673C268.383 78.755 268.71 78.8954 268.825 79.1838L272.809 89.3118C273.194 90.297 273.171 91.3767 272.745 92.2752C272.347 93.1098 271.645 93.7249 270.765 94.0057C270.42 94.1155 270.065 94.1691 269.716 94.1691L269.71 94.1716Z" fill="black"/>
<path d="M274.244 89.8506C272.827 89.8506 271.434 88.9241 270.87 87.4845L267.776 79.5975C267.661 79.3091 267.804 78.9824 268.095 78.8675C268.383 78.7552 268.71 78.8956 268.825 79.1866L271.919 87.0761C272.398 88.2987 273.718 88.9981 274.859 88.6331C275.362 88.4723 275.763 88.1226 275.99 87.6453C276.245 87.1067 276.255 86.4508 276.018 85.8459L272.033 75.6847C271.919 75.3962 272.062 75.0695 272.353 74.9547C272.641 74.8423 272.968 74.9827 273.083 75.2737L277.067 85.4349C277.419 86.3283 277.396 87.3109 277.008 88.1303C276.646 88.8909 276.005 89.4499 275.204 89.7077C274.89 89.8072 274.568 89.8557 274.249 89.8557L274.244 89.8506Z" fill="black"/>
<path d="M271.357 111.535C270.343 111.535 269.335 111.104 268.636 110.269L253.107 91.7643C252.908 91.5269 252.938 91.1722 253.176 90.9705C253.416 90.7714 253.768 90.8021 253.967 91.0394L269.496 109.544C270.356 110.568 271.888 110.703 272.911 109.843C273.406 109.427 273.713 108.845 273.769 108.199C273.825 107.556 273.628 106.928 273.212 106.431L258.074 87.5809C257.88 87.3384 257.918 86.9836 258.161 86.7896C258.403 86.5957 258.758 86.6339 258.952 86.8764L274.083 105.716C274.685 106.433 274.974 107.352 274.892 108.296C274.808 109.241 274.364 110.096 273.636 110.703C272.972 111.26 272.163 111.53 271.357 111.53V111.535Z" fill="black"/>
<path d="M246.637 104.481C246.537 104.481 246.44 104.478 246.34 104.468C244.342 104.307 242.685 102.531 242.652 100.507L242.489 91.0933L238.79 75.6129L229.642 62.0647C229.469 61.8069 229.535 61.4572 229.793 61.2836C230.051 61.11 230.401 61.1764 230.574 61.4342L239.781 75.0667C239.819 75.1228 239.845 75.1841 239.862 75.2505L243.599 90.8917C243.609 90.93 243.614 90.9708 243.614 91.0116L243.78 100.486C243.806 101.946 244.998 103.23 246.435 103.345C247.106 103.399 247.721 103.189 248.181 102.758C248.65 102.319 248.901 101.696 248.888 101.007L249.694 87.7956C249.715 87.4868 249.967 87.2519 250.292 87.2673C250.6 87.2851 250.838 87.5531 250.817 87.862L250.011 101.027C250.029 101.995 249.651 102.914 248.949 103.575C248.326 104.162 247.515 104.476 246.639 104.476L246.637 104.481Z" fill="black"/>
<path d="M253.538 91.9663C253.388 91.9663 253.235 91.9051 253.125 91.7851L246.675 84.7787C246.466 84.549 246.478 84.1942 246.708 83.9849C246.935 83.7756 247.293 83.7884 247.502 84.0181L253.952 91.0245C254.161 91.2542 254.148 91.609 253.919 91.8183C253.811 91.9178 253.674 91.9663 253.538 91.9663Z" fill="black"/>
<path d="M272.536 76.0135C272.401 76.0135 272.263 75.965 272.156 75.8654L256.734 61.7531C256.703 61.725 256.675 61.6918 256.65 61.6561L248.592 49.9405C248.416 49.6852 248.482 49.3355 248.737 49.1594C248.993 48.9833 249.342 49.0471 249.518 49.3049L257.538 60.9669L272.911 75.0359C273.141 75.2452 273.156 75.6025 272.947 75.8297C272.837 75.9497 272.684 76.0135 272.534 76.0135H272.536Z" fill="black"/>
<path d="M253.83 50.2673L230.187 65.2092L206.679 36.5659L183.924 50.9667V117.465H121.737V108.802H89.3744C84.295 109.172 79.1825 106.806 76.2677 102.209C72.0536 95.5549 74.0343 86.7465 80.6885 82.5376L199.338 7.45806C205.834 3.35122 214.374 5.13025 218.706 11.3888L253.83 50.2647V50.2673Z" fill="#673DE6"/>
<path d="M183.924 118.029H121.736C121.425 118.029 121.175 117.776 121.175 117.468V109.366H89.3742C83.9528 109.764 78.7255 107.138 75.7927 102.513C73.6742 99.1667 72.9851 95.1977 73.8529 91.3359C74.7207 87.4741 77.0409 84.1814 80.3871 82.0655L199.037 6.98337C205.778 2.72338 214.604 4.50752 219.147 11.0417L254.248 49.8922C254.358 50.0147 254.411 50.1806 254.388 50.3465C254.365 50.5099 254.271 50.6579 254.131 50.7447L230.488 65.6866C230.248 65.8397 229.931 65.7861 229.752 65.5692L206.561 37.3087L184.488 51.2781V117.465C184.488 117.776 184.235 118.027 183.926 118.027L183.924 118.029ZM122.3 116.904H183.362V50.9642C183.362 50.7702 183.462 50.5915 183.622 50.4894L206.377 36.0887C206.62 35.9355 206.934 35.9891 207.112 36.2061L230.304 64.4665L252.962 50.1474L218.287 11.7666C218.272 11.7487 218.256 11.7283 218.241 11.7105C214.047 5.64846 205.877 3.99193 199.636 7.93287L80.992 83.015C77.901 84.9701 75.7545 88.0126 74.953 91.5809C74.1515 95.1492 74.7871 98.8196 76.7448 101.911C79.4555 106.186 84.2795 108.613 89.3359 108.243H121.739C122.05 108.243 122.3 108.493 122.3 108.805V116.906V116.904Z" fill="black"/>
<path d="M230.186 65.7706C230.023 65.7706 229.862 65.7017 229.75 65.5639L196.934 25.5801C196.737 25.3402 196.773 24.9854 197.013 24.7889C197.253 24.5924 197.607 24.6255 197.804 24.868L230.62 64.8517C230.817 65.0917 230.781 65.4465 230.541 65.643C230.437 65.7298 230.309 65.7706 230.184 65.7706H230.186Z" fill="black"/>
<path d="M140.973 109.364H121.705C121.394 109.364 121.144 109.111 121.144 108.802C121.144 108.493 121.396 108.241 121.705 108.241H140.412V80.5445H94.624C94.3126 80.5445 94.0625 80.2918 94.0625 79.9829C94.0625 79.6741 94.3152 79.4214 94.624 79.4214H140.973C141.285 79.4214 141.535 79.6741 141.535 79.9829V108.802C141.535 109.114 141.282 109.364 140.973 109.364Z" fill="black"/>
<path d="M140.974 84.8019V105.15H174.142C175.273 105.15 176.348 105.63 177.103 106.469L178.681 108.228C180.102 109.813 182.624 109.678 183.87 107.952C184.699 106.801 184.694 105.272 183.911 104.129L184.791 102.909C185.799 101.507 185.682 99.5906 184.51 98.3246L183.625 97.3675C184.515 95.984 184.365 94.1616 183.234 92.9415L181.754 91.3437L181.777 91.3284C182.397 90.0114 182.172 88.4212 181.154 87.3237L179.839 85.9045C177.325 83.1887 173.79 81.6445 170.087 81.6445H157.613C152.439 81.6445 151.109 84.8044 148.817 84.8044H140.974V84.8019Z" fill="#DFE3E8"/>
<path d="M148.23 84.8022L140.974 105.15V84.8022H148.23Z" fill="black"/>
<path d="M183.622 97.9293C183.518 97.9293 183.413 97.9012 183.319 97.84C183.058 97.6715 182.982 97.3244 183.15 97.0615C183.906 95.8873 183.77 94.3482 182.821 93.3222L180.498 90.8131C178.74 88.9141 176.243 87.8242 173.653 87.8242H167.259C166.947 87.8242 166.697 87.5715 166.697 87.2627C166.697 86.9539 166.95 86.7012 167.259 86.7012H173.653C176.557 86.7012 179.352 87.9212 181.325 90.0525L183.648 92.5615C184.947 93.9654 185.133 96.0686 184.097 97.674C183.99 97.84 183.809 97.9318 183.622 97.9318V97.9293Z" fill="black"/>
<path d="M183.903 104.703C183.788 104.703 183.674 104.668 183.574 104.596C183.321 104.415 183.265 104.063 183.446 103.81L184.335 102.577C185.185 101.398 185.085 99.7695 184.097 98.7026L181.31 95.6933C179.845 94.1108 177.765 93.2022 175.608 93.2022H167.2C166.889 93.2022 166.639 92.9495 166.639 92.6406C166.639 92.3318 166.891 92.0791 167.2 92.0791H175.608C178.079 92.0791 180.457 93.1179 182.134 94.9302L184.922 97.9395C186.272 99.3969 186.41 101.625 185.248 103.236L184.36 104.469C184.25 104.622 184.077 104.701 183.903 104.701V104.703Z" fill="black"/>
<path d="M161.056 105.712H140.412V84.2406H148.82C149.565 84.2406 150.244 83.7913 151.102 83.2222C152.467 82.3186 154.338 81.0781 157.613 81.0781H170.087C173.933 81.0781 177.639 82.6964 180.253 85.5168L181.567 86.9359C182.734 88.1943 183.017 90.0116 182.287 91.5635C182.154 91.8442 181.82 91.9668 181.539 91.834C181.258 91.7013 181.136 91.3669 181.269 91.0862C181.802 89.9503 181.595 88.6231 180.743 87.7017L179.428 86.2825C177.027 83.6892 173.622 82.2037 170.089 82.2037H157.615C154.678 82.2037 153.041 83.2885 151.724 84.1589C150.749 84.8047 149.905 85.3636 148.82 85.3636H141.538V104.586H161.059C161.37 104.586 161.62 104.839 161.62 105.147C161.62 105.456 161.367 105.709 161.059 105.709L161.056 105.712Z" fill="black"/>
<path d="M181.159 109.9C180.051 109.9 179.005 109.435 178.259 108.603L176.682 106.845C176.036 106.125 175.11 105.711 174.14 105.711H154.157C150.491 105.711 147.076 103.899 145.017 100.864C144.843 100.607 144.909 100.257 145.167 100.083C145.422 99.9098 145.775 99.9762 145.948 100.234C147.799 102.96 150.867 104.586 154.157 104.586H174.14C175.429 104.586 176.659 105.135 177.519 106.094L179.096 107.853C179.661 108.481 180.465 108.815 181.309 108.769C182.152 108.723 182.917 108.307 183.41 107.623C184.178 106.559 184.086 105.086 183.196 104.124L180.288 100.984C178.795 99.3713 176.677 98.4473 174.477 98.4473H167.48C167.169 98.4473 166.919 98.1946 166.919 97.8858C166.919 97.5769 167.172 97.3242 167.48 97.3242H174.477C176.988 97.3242 179.408 98.3809 181.113 100.221L184.02 103.361C185.276 104.716 185.404 106.786 184.324 108.282C183.63 109.244 182.552 109.831 181.368 109.895C181.297 109.9 181.228 109.9 181.159 109.9Z" fill="black"/>
<path d="M146.293 38.4062C153.929 38.4062 160.12 32.3473 160.12 24.8733C160.12 17.3992 153.929 11.3403 146.293 11.3403C138.657 11.3403 132.467 17.3992 132.467 24.8733C132.467 32.3473 138.657 38.4062 146.293 38.4062Z" fill="black"/>
<path d="M144.612 47.9264L155.279 53.1308V33.5869H144.612V47.9264Z" fill="#DFE3E8"/>
<path d="M155.279 53.6949C155.195 53.6949 155.111 53.677 155.032 53.6388L144.365 48.4318C144.171 48.3374 144.049 48.1408 144.049 47.9264V33.5869C144.049 33.2755 144.302 33.0254 144.61 33.0254H155.277C155.588 33.0254 155.838 33.2781 155.838 33.5869V53.1308C155.838 53.3248 155.739 53.506 155.573 53.6081C155.481 53.6643 155.379 53.6924 155.274 53.6924L155.279 53.6949ZM145.174 47.5742L154.715 52.2298V34.1485H145.174V47.5742Z" fill="black"/>
<path d="M144.614 37.6274V33.5869H155.281V42.5076C154.319 42.6991 152.399 42.9415 150.196 42.2141C146.748 41.0783 145.056 38.3829 144.614 37.6274Z" fill="black"/>
<path d="M151.392 39.9147C156.13 39.9147 159.971 35.6717 159.971 30.4376C159.971 25.2035 156.13 20.9604 151.392 20.9604C146.654 20.9604 142.813 25.2035 142.813 30.4376C142.813 35.6717 146.654 39.9147 151.392 39.9147Z" fill="#DFE3E8"/>
<path d="M151.393 40.4763C146.352 40.4763 142.25 35.9738 142.25 30.4376C142.25 24.9014 146.352 20.3989 151.393 20.3989C156.434 20.3989 160.536 24.9014 160.536 30.4376C160.536 35.9738 156.434 40.4763 151.393 40.4763ZM151.393 21.5245C146.972 21.5245 143.376 25.5216 143.376 30.4376C143.376 35.3536 146.972 39.3507 151.393 39.3507C155.814 39.3507 159.41 35.351 159.41 30.4376C159.41 25.5242 155.814 21.5245 151.393 21.5245Z" fill="black"/>
<path d="M147.721 34.5523C148.55 35.3104 149.617 35.8234 150.822 35.9459C153.51 36.219 155.929 34.4757 156.595 31.9463L147.721 34.5523Z" fill="white"/>
<path d="M372.829 419.153C360.946 419.153 349.247 413.546 341.948 403.083C330.089 386.085 334.271 362.607 351.271 350.748C368.269 338.889 391.747 343.071 403.606 360.071C415.464 377.068 411.283 400.547 394.283 412.405C387.747 416.964 380.252 419.153 372.831 419.153H372.829ZM372.723 344.819C365.462 344.819 358.132 346.96 351.736 351.42C335.108 363.02 331.017 385.987 342.618 402.615C354.219 419.244 377.185 423.335 393.814 411.734C410.442 400.133 414.533 377.167 402.932 360.538C395.793 350.303 384.346 344.819 372.723 344.819Z" fill="black"/>
<path d="M372.842 412.565C371.017 412.565 369.178 412.403 367.343 412.077C359.197 410.626 352.102 406.088 347.368 399.302C342.633 392.515 340.824 384.291 342.275 376.143C343.726 367.996 348.264 360.902 355.05 356.167C361.837 351.433 370.061 349.624 378.208 351.074C386.354 352.525 393.449 357.063 398.183 363.85C402.918 370.636 404.727 378.861 403.276 387.007C401.825 395.153 397.287 402.248 390.501 406.982C385.243 410.65 379.12 412.563 372.84 412.563L372.842 412.565ZM372.712 351.407C366.597 351.407 360.638 353.267 355.52 356.839C348.911 361.449 344.494 368.356 343.082 376.287C341.67 384.218 343.429 392.226 348.039 398.834C352.65 405.443 359.555 409.858 367.488 411.272C375.419 412.685 383.426 410.925 390.035 406.314C396.643 401.704 401.059 394.799 402.472 386.866C403.884 378.935 402.126 370.927 397.515 364.319C392.905 357.711 386 353.293 378.067 351.882C376.28 351.562 374.49 351.407 372.714 351.407H372.712Z" fill="black"/>
<path d="M329.444 407.734C329.314 407.734 329.188 407.673 329.108 407.56C328.978 407.374 329.024 407.12 329.21 406.99L340.05 399.428C340.236 399.298 340.49 399.345 340.62 399.53C340.75 399.716 340.703 399.97 340.518 400.1L329.677 407.662C329.605 407.712 329.525 407.736 329.444 407.736V407.734Z" fill="black"/>
<path d="M305.806 433.186C305.782 433.186 305.758 433.184 305.733 433.18C305.628 433.162 305.533 433.101 305.47 433.012L301.264 426.982C301.134 426.796 301.181 426.542 301.366 426.412L329.208 406.99C329.395 406.86 329.648 406.906 329.778 407.092C329.907 407.277 329.861 407.531 329.676 407.661L302.17 426.85L305.908 432.21L323.245 420.114C323.431 419.984 323.685 420.03 323.815 420.216C323.945 420.401 323.898 420.656 323.713 420.785L306.04 433.115C305.971 433.164 305.889 433.19 305.806 433.19V433.186Z" fill="black"/>
<path d="M323.481 420.858C323.351 420.858 323.225 420.797 323.145 420.684C323.015 420.499 323.062 420.244 323.247 420.115L344.256 405.458C344.443 405.328 344.696 405.375 344.826 405.56C344.955 405.746 344.909 406 344.723 406.13L323.715 420.786C323.642 420.836 323.562 420.86 323.481 420.86V420.858Z" fill="black"/>
<path d="M304.572 429.155C303.331 427.366 301.841 426.25 301.246 426.663C300.65 427.077 301.175 428.862 302.416 430.65C303.657 432.439 305.147 433.556 305.743 433.142C306.338 432.728 305.813 430.943 304.572 429.155Z" fill="black"/>
<path d="M464.292 369.348C493.932 365.182 514.614 337.999 510.487 308.632C506.36 279.266 478.986 258.837 449.346 263.002C419.706 267.168 399.023 294.351 403.151 323.718C407.278 353.084 434.652 373.513 464.292 369.348Z" fill="black"/>
<path d="M457.822 365.623C487.462 361.458 508.145 334.274 504.017 304.908C499.89 275.541 472.516 255.112 442.876 259.278C413.236 263.443 392.554 290.627 396.681 319.993C400.808 349.36 428.182 369.789 457.822 365.623Z" fill="#FC5185"/>
<path d="M450.179 366.75C424.598 366.75 401.716 348.85 396.609 323.052C393.814 308.925 396.706 294.532 404.756 282.522C412.911 270.355 425.356 262.09 439.798 259.247C469.419 253.415 498.249 272.548 504.058 301.898C506.853 316.023 503.961 330.416 495.911 342.425C487.756 354.593 475.31 362.86 460.866 365.701C457.28 366.408 453.699 366.747 450.174 366.747L450.179 366.75ZM450.49 259.326C447.034 259.326 443.532 259.658 440.018 260.352C425.87 263.137 413.679 271.233 405.69 283.15C397.808 294.909 394.975 309.004 397.714 322.835C402.714 348.094 425.127 365.624 450.179 365.627C453.635 365.627 457.137 365.295 460.651 364.601C474.799 361.816 486.99 353.717 494.979 341.802C502.861 330.043 505.694 315.949 502.955 302.12C497.955 276.861 475.542 259.329 450.49 259.329V259.326Z" fill="black"/>
<path d="M455.818 351.297C477.479 348.253 492.593 328.387 489.577 306.926C486.561 285.464 466.556 270.535 444.895 273.579C423.234 276.623 408.12 296.489 411.136 317.95C414.152 339.411 434.157 354.341 455.818 351.297Z" fill="white"/>
<path d="M454.561 342.372C471.242 340.028 482.882 324.729 480.559 308.201C478.237 291.673 462.83 280.175 446.149 282.519C429.467 284.864 417.827 300.163 420.15 316.691C422.473 333.219 437.879 344.717 454.561 342.372Z" fill="#FC5185"/>
<path d="M453.066 331.716C463.812 330.205 471.311 320.35 469.814 309.703C468.318 299.056 458.394 291.65 447.648 293.16C436.902 294.67 429.403 304.526 430.9 315.172C432.396 325.819 442.32 333.226 453.066 331.716Z" fill="white"/>
<path d="M451.873 323.367C457.95 322.513 462.19 316.94 461.344 310.92C460.498 304.899 454.886 300.711 448.809 301.565C442.733 302.419 438.493 307.992 439.339 314.012C440.185 320.033 445.797 324.221 451.873 323.367Z" fill="#B9BEC6"/>
<path d="M450.281 313.042C450.126 313.042 449.973 312.978 449.86 312.853C449.653 312.621 449.676 312.266 449.909 312.059L501.896 266.039C502.129 265.835 502.484 265.855 502.69 266.087C502.897 266.32 502.874 266.674 502.642 266.881L450.654 312.901C450.547 312.996 450.414 313.042 450.281 313.042Z" fill="black"/>
<path d="M499.436 275.021C499.436 275.021 499.413 275.021 499.403 275.021L493.594 274.674C493.282 274.656 493.048 274.388 493.065 274.079C493.083 273.768 493.354 273.528 493.66 273.551L499.469 273.898C499.781 273.916 500.016 274.184 499.998 274.493C499.98 274.791 499.732 275.021 499.436 275.021Z" fill="black"/>
<path d="M504.155 270.842C504.155 270.842 504.132 270.842 504.122 270.842L498.313 270.495C498.001 270.477 497.766 270.21 497.784 269.901C497.802 269.589 498.062 269.352 498.379 269.372L504.188 269.719C504.5 269.737 504.734 270.005 504.717 270.314C504.699 270.613 504.451 270.842 504.155 270.842Z" fill="black"/>
<path d="M491.508 276.56C491.508 276.56 491.485 276.56 491.475 276.56C491.163 276.542 490.928 276.277 490.946 275.965L491.286 270.174C491.304 269.865 491.569 269.623 491.88 269.646C492.192 269.663 492.427 269.929 492.409 270.24L492.069 276.032C492.051 276.33 491.804 276.56 491.508 276.56Z" fill="black"/>
<path d="M496.228 272.382C496.228 272.382 496.205 272.382 496.194 272.382C495.883 272.364 495.648 272.099 495.666 271.787L496.005 265.996C496.023 265.687 496.291 265.444 496.6 265.467C496.912 265.485 497.146 265.751 497.129 266.062L496.789 271.853C496.771 272.152 496.524 272.382 496.228 272.382Z" fill="black"/>
<path d="M481.657 248.348C481.463 248.348 481.274 248.249 481.17 248.067C481.014 247.799 481.106 247.455 481.376 247.299C481.665 247.131 481.951 246.962 482.234 246.791C482.5 246.63 482.844 246.715 483.007 246.983C483.168 247.248 483.081 247.595 482.816 247.753C482.528 247.927 482.234 248.1 481.938 248.271C481.849 248.323 481.752 248.348 481.657 248.348ZM491.494 241.086C491.344 241.086 491.193 241.028 491.083 240.908C490.871 240.681 490.882 240.326 491.109 240.111C493.83 237.564 496.247 234.718 498.291 231.658C498.462 231.4 498.812 231.331 499.072 231.502C499.33 231.676 499.399 232.023 499.228 232.283C497.135 235.415 494.662 238.325 491.88 240.933C491.77 241.035 491.632 241.086 491.494 241.086ZM503.889 222.551C503.822 222.551 503.756 222.538 503.69 222.515C503.399 222.405 503.253 222.081 503.363 221.79C504.655 218.38 505.599 214.763 506.171 211.042C506.219 210.736 506.505 210.524 506.811 210.572C507.118 210.618 507.33 210.907 507.281 211.213C506.699 215.011 505.734 218.704 504.415 222.188C504.33 222.413 504.116 222.551 503.889 222.551ZM507.347 200.475C507.046 200.475 506.799 200.238 506.786 199.934C506.64 196.217 506.148 192.504 505.323 188.897C505.254 188.593 505.443 188.292 505.747 188.223C506.051 188.154 506.352 188.343 506.421 188.647C507.261 192.322 507.763 196.105 507.911 199.89C507.924 200.202 507.682 200.462 507.37 200.475C507.363 200.475 507.355 200.475 507.347 200.475ZM481.011 195.896C480.973 195.896 480.935 195.893 480.897 195.883C477.211 195.117 473.686 193.116 470.965 190.25C470.751 190.025 470.761 189.668 470.986 189.454C471.21 189.239 471.568 189.249 471.782 189.474C474.345 192.174 477.663 194.058 481.126 194.78C481.43 194.844 481.627 195.143 481.563 195.447C481.507 195.712 481.274 195.896 481.011 195.896ZM491.923 194.336C491.721 194.336 491.525 194.227 491.425 194.035C491.28 193.76 491.387 193.42 491.66 193.275C492.24 192.971 492.814 192.624 493.368 192.246C496.012 190.449 498.373 188.517 500.387 186.503C500.606 186.283 500.964 186.283 501.183 186.503C501.403 186.722 501.403 187.08 501.183 187.299C499.121 189.364 496.704 191.342 494.001 193.18C493.411 193.581 492.801 193.948 492.183 194.273C492.099 194.316 492.01 194.336 491.923 194.336ZM466.539 180.474C466.264 180.474 466.021 180.27 465.983 179.989C465.858 179.083 465.794 178.162 465.794 177.25C465.794 174.231 466.488 171.28 467.8 168.718C467.943 168.442 468.28 168.332 468.558 168.473C468.834 168.616 468.944 168.953 468.803 169.231C467.57 171.635 466.92 174.407 466.92 177.25C466.92 178.111 466.978 178.981 467.098 179.836C467.142 180.145 466.927 180.428 466.618 180.472C466.593 180.474 466.567 180.477 466.539 180.477V180.474ZM502.299 178.685C502.084 178.685 501.88 178.562 501.786 178.356C500.137 174.739 498.171 171.576 495.951 168.955C495.749 168.718 495.78 168.363 496.017 168.161C496.255 167.96 496.609 167.99 496.811 168.225C499.098 170.923 501.117 174.175 502.812 177.886C502.939 178.169 502.817 178.501 502.534 178.631C502.457 178.667 502.378 178.682 502.301 178.682L502.299 178.685ZM507.383 178.419C507.299 178.419 507.215 178.402 507.136 178.361C506.857 178.223 506.742 177.886 506.88 177.608C508.511 174.313 509.504 170.757 509.831 167.038C509.859 166.729 510.137 166.505 510.441 166.528C510.75 166.556 510.979 166.829 510.951 167.138C510.612 170.997 509.583 174.688 507.891 178.108C507.791 178.307 507.592 178.422 507.386 178.422L507.383 178.419ZM487.505 162.434C487.436 162.434 487.367 162.421 487.301 162.395C486.162 161.954 485.003 161.658 483.852 161.515C483.112 161.423 482.377 161.38 481.662 161.38C479.906 161.38 478.229 161.655 476.677 162.201C476.387 162.303 476.065 162.15 475.96 161.857C475.858 161.563 476.011 161.242 476.305 161.14C477.977 160.553 479.779 160.256 481.662 160.256C482.42 160.256 483.204 160.305 483.988 160.402C485.231 160.555 486.481 160.874 487.706 161.349C487.995 161.461 488.14 161.788 488.026 162.076C487.939 162.298 487.727 162.436 487.502 162.436L487.505 162.434ZM509.576 156.474C509.318 156.474 509.083 156.295 509.027 156.032C508.289 152.655 507.095 149.11 505.476 145.496C505.349 145.212 505.476 144.881 505.76 144.753C506.043 144.625 506.375 144.753 506.503 145.036C508.151 148.722 509.371 152.341 510.124 155.792C510.191 156.096 509.999 156.395 509.696 156.461C509.655 156.469 509.614 156.474 509.576 156.474ZM500.642 135.924C500.456 135.924 500.272 135.832 500.165 135.661C498.274 132.65 496.099 129.571 493.707 126.508C493.516 126.263 493.559 125.911 493.804 125.72C494.049 125.528 494.401 125.572 494.593 125.817C497.01 128.908 499.205 132.019 501.117 135.064C501.283 135.327 501.204 135.674 500.941 135.84C500.849 135.899 500.744 135.927 500.642 135.927V135.924ZM486.841 118.152C486.691 118.152 486.54 118.091 486.428 117.971C481.912 113.088 478.492 110.091 478.459 110.063C478.224 109.859 478.201 109.504 478.405 109.269C478.61 109.035 478.964 109.012 479.199 109.216C479.232 109.246 482.694 112.279 487.255 117.207C487.467 117.435 487.451 117.792 487.224 118.001C487.117 118.101 486.979 118.152 486.841 118.152Z" fill="black"/>
<path d="M464.332 77.0372C464.332 77.0372 474.381 80.2533 476.814 86.3306C479.555 93.1762 475.104 97.0788 476.076 102.429C476.581 105.211 479.912 109.647 482.85 110.796C482.85 110.796 463.947 115.178 456.56 107.23C449.173 99.2816 448.227 90.2639 448.227 90.2639L464.33 77.0347L464.332 77.0372Z" fill="#B9BEC6"/>
<path d="M462.135 81.6695C462.135 81.6695 467.199 83.5788 468.631 86.9479C469.881 89.896 468.61 91.818 467.36 94.8349C466.535 96.8232 466.841 99.5033 468.618 100.81C468.618 100.81 462.456 102.553 457.403 96.9917C452.709 91.8307 453.13 89.0664 453.13 89.0664L462.135 81.667V81.6695Z" fill="white"/>
<path d="M449.625 122.59C449.462 122.59 449.298 122.519 449.191 122.384L429.139 97.916C427.715 96.1778 427.261 93.8602 427.919 91.711L432.383 77.1571C432.473 76.8661 432.779 76.6951 433.075 76.7819L441.963 79.2858C442.169 79.3445 442.325 79.513 442.363 79.7248L450.181 121.924C450.227 122.177 450.097 122.429 449.865 122.537C449.788 122.572 449.709 122.59 449.627 122.59H449.625ZM433.295 78.0147L428.991 92.0428C428.442 93.8295 428.823 95.7592 430.007 97.2038L448.673 119.979L441.317 80.2762L433.295 78.0147Z" fill="black"/>
<path d="M495.112 85.2201C495.04 85.2201 494.971 85.2074 494.902 85.1793L455.092 69.265C454.893 69.1858 454.755 68.9995 454.74 68.7851L454.02 59.5683C453.997 59.2646 454.219 58.9966 454.523 58.9659L469.651 57.4243C471.885 57.1971 474.069 58.0981 475.491 59.8337L495.543 84.3013C495.706 84.5004 495.714 84.7837 495.561 84.9904C495.454 85.1385 495.283 85.2201 495.106 85.2201H495.112ZM455.835 68.3486L493.292 83.3237L474.626 60.5484C473.442 59.1038 471.627 58.3585 469.769 58.5448L455.187 60.0328L455.835 68.3512V68.3486Z" fill="black"/>
<path d="M448.778 92.6452L466.788 77.8488C466.788 77.8488 461.039 42.8116 425.576 19.7403C416.586 13.8952 405.688 8.81847 392.492 5.27315C392.379 5.24763 392.272 5.217 392.165 5.18637L392.124 5.17871L392.132 5.2221C393.005 19.0103 395.866 30.8101 399.876 40.859C415.56 80.1715 448.78 92.6452 448.78 92.6452H448.778Z" fill="#673DE6"/>
<path d="M450.308 66.7697C451.293 61.7038 447.99 56.7998 442.931 55.8164C437.872 54.8331 432.973 58.1427 431.988 63.2086C431.003 68.2746 434.306 73.1785 439.365 74.1619C444.424 75.1453 449.324 71.8357 450.308 66.7697Z" fill="white"/>
<path d="M446.774 66.0899C447.379 62.9865 445.357 59.9809 442.258 59.3767C439.158 58.7726 436.155 60.7987 435.55 63.9022C434.945 67.0056 436.968 70.0112 440.067 70.6154C443.166 71.2195 446.169 69.1934 446.774 66.0899Z" fill="white"/>
<path d="M441.184 71.2887C440.974 71.2887 440.765 71.2785 440.556 71.2581C438.887 71.0947 437.381 70.2882 436.319 68.989C434.124 66.3089 434.514 62.3399 437.192 60.1397C438.488 59.0728 440.125 58.5777 441.794 58.741C443.463 58.9044 444.969 59.7109 446.031 61.0101C448.226 63.6902 447.835 67.6592 445.158 69.8593C444.025 70.791 442.631 71.2887 441.184 71.2887ZM437.189 68.2768C438.062 69.3412 439.298 70.0023 440.668 70.1376C442.039 70.2728 443.381 69.8645 444.446 68.989C446.643 67.1819 446.965 63.9224 445.163 61.7222C444.29 60.6579 443.055 59.9968 441.684 59.8615C440.311 59.7262 438.971 60.1346 437.906 61.0101C435.709 62.8172 435.387 66.0767 437.189 68.2768Z" fill="black"/>
<path d="M429.143 42.406C429.975 38.1303 427.187 33.9907 422.917 33.1599C418.647 32.329 414.511 35.1217 413.679 39.3974C412.847 43.6731 415.634 47.8127 419.905 48.6435C424.175 49.4743 428.311 46.6817 429.143 42.406Z" fill="white"/>
<path d="M426.184 41.8305C426.691 39.2107 424.981 36.676 422.364 36.1692C419.747 35.6624 417.214 37.3754 416.707 39.9952C416.199 42.615 417.91 45.1496 420.527 45.6564C423.144 46.1632 425.677 44.4503 426.184 41.8305Z" fill="white"/>
<path d="M421.436 46.3034C421.257 46.3034 421.078 46.2957 420.897 46.2778C419.465 46.1374 418.174 45.4457 417.26 44.3329C415.376 42.0332 415.711 38.6282 418.01 36.742C419.123 35.8282 420.53 35.402 421.956 35.5424C423.388 35.6827 424.682 36.3744 425.594 37.4873C427.477 39.787 427.14 43.192 424.843 45.0782C423.871 45.8771 422.676 46.3034 421.433 46.3034H421.436ZM421.423 36.6373C420.44 36.6373 419.496 36.9743 418.725 37.6073C416.908 39.1004 416.64 41.7958 418.133 43.6157C418.855 44.4962 419.876 45.0425 421.009 45.1548C422.14 45.2671 423.253 44.9301 424.134 44.2053C425.951 42.7121 426.219 40.0167 424.726 38.1943C424.003 37.3137 422.982 36.7675 421.847 36.6552C421.704 36.6424 421.563 36.6348 421.423 36.6348V36.6373Z" fill="black"/>
<path d="M399.751 40.9588L425.712 19.6307C416.622 13.7576 405.578 8.68085 392.173 5.18149L392.132 5.17383L392.139 5.21722C392.949 19.0564 395.772 30.8895 399.753 40.9588H399.751Z" fill="#DFE3E8"/>
<path d="M399.685 41.0122L412.597 30.4018L392.303 5.42891C392.191 5.40339 392.084 5.37276 391.976 5.34213L391.936 5.33447L391.943 5.37786C392.816 19.1661 395.677 30.9659 399.687 41.0148L399.685 41.0122Z" fill="#B9BEC6"/>
<path d="M129.191 306.717C128.982 306.717 128.78 306.599 128.683 306.4C128.548 306.119 128.665 305.785 128.944 305.65L136.047 302.214L131.927 293.74C131.812 293.505 131.876 293.222 132.078 293.059C134.924 290.749 137.361 288.015 139.322 284.934C139.462 284.715 139.735 284.62 139.98 284.704L148.901 287.79L153.791 273.729L144.873 270.643C144.626 270.559 144.47 270.314 144.498 270.054C144.871 266.421 144.654 262.772 143.855 259.201C143.799 258.945 143.924 258.685 144.159 258.57L152.656 254.461L146.147 241.068L141.43 243.35C141.149 243.485 140.815 243.368 140.68 243.09C140.544 242.809 140.662 242.475 140.94 242.339L146.162 239.815C146.443 239.68 146.777 239.797 146.913 240.075L153.914 254.479C153.98 254.614 153.988 254.767 153.939 254.91C153.891 255.05 153.789 255.168 153.654 255.232L145.047 259.392C145.764 262.797 145.971 266.268 145.659 269.724L154.692 272.851C154.833 272.899 154.95 273.002 155.014 273.137C155.08 273.272 155.088 273.425 155.04 273.568L149.779 288.691C149.677 288.985 149.358 289.141 149.064 289.038L140.029 285.912C138.125 288.819 135.807 291.417 133.129 293.648L137.3 302.232C137.367 302.367 137.374 302.52 137.326 302.663C137.277 302.804 137.175 302.921 137.04 302.985L129.428 306.666C129.349 306.704 129.265 306.722 129.183 306.722L129.191 306.717Z" fill="white"/>
<path d="M86.603 158.772C86.5897 165.513 84.0554 172.005 79.4982 176.972C74.941 181.939 68.6905 185.022 61.9757 185.614C55.2609 186.206 48.5674 184.265 43.2112 180.173C37.855 176.08 34.2235 170.132 33.0307 163.497C31.8378 156.863 33.1699 150.022 36.7651 144.32C40.3602 138.618 45.9584 134.467 52.4589 132.683C58.9595 130.899 65.8922 131.611 71.8942 134.68C77.8962 137.748 82.5332 142.951 84.8936 149.265C84.9525 149.424 85.0098 149.582 85.0657 149.742C85.3149 150.446 85.5343 151.163 85.724 151.893C86.3094 154.139 86.6048 156.45 86.603 158.771V158.772Z" fill="#D8DBFE"/>
<path d="M56.2889 140.363C55.0968 139.723 53.7733 139.361 52.4191 139.306C51.065 139.251 49.7161 139.504 48.4754 140.046C47.3827 140.518 46.2326 141.365 45.8682 142.895C47.3421 142.031 49.2501 143.396 49.6294 145.586L49.5408 145.611C49.3403 147.127 49.7876 148.779 50.6535 149.72C50.7179 149.295 50.8767 148.89 51.1183 148.534C51.3599 148.179 51.6782 147.881 52.0502 147.662C52.6865 147.247 53.39 146.945 53.8756 146.231C54.4512 145.384 54.5973 144.147 54.826 143.019C55.0547 141.89 55.4883 140.678 56.2889 140.363Z" fill="#673DE6"/>
<path d="M48.0714 153.545C47.6487 154.179 47.084 154.577 46.5774 155.072C45.9926 155.603 45.609 156.319 45.4911 157.099C45.4269 157.651 45.5247 158.211 45.5123 158.769C45.4998 159.327 45.3125 159.954 44.9325 160.093C44.3328 160.309 43.875 159.197 43.2585 159.119C42.7685 159.059 42.3276 159.828 42.4695 160.496C42.6114 161.164 43.2767 161.459 43.6615 161.023C44.0079 161.604 43.7624 162.656 43.2434 162.835C43.1886 163.2 43.1334 163.564 43.0799 163.93C41.7646 163.011 40.4354 162.077 39.3168 160.732C38.0727 159.249 37.3011 157.428 37.101 155.503C36.9561 153.957 37.1713 152.188 36.46 150.999C35.8909 150.047 34.9128 149.836 34.035 149.896C33.8749 149.907 33.7132 149.925 33.5527 149.945C34.0711 148.39 34.7294 146.886 35.5196 145.45C35.6985 145.374 35.8647 145.27 36.0126 145.144C36.8306 144.451 37.1938 143.048 37.8574 142.078C37.9002 142.015 37.9445 141.954 37.9903 141.895C38.6693 141.01 39.5788 140.554 40.4579 140.131C42.4036 139.188 44.4058 138.233 46.4597 138.364L45.8752 138.42C45.1931 140.327 44.5105 142.235 43.8273 144.142C43.7235 144.435 43.6186 144.728 43.5128 145.021C43.1254 146.106 42.7255 147.261 42.785 148.475C42.8186 149.194 43.0702 149.962 43.5464 150.208C43.9904 150.437 44.4757 150.157 44.9045 149.879C45.0862 149.764 45.2661 149.648 45.4477 149.531C46.0992 149.111 46.8213 148.682 47.5094 148.962C48.1397 149.218 48.6052 150.073 48.6936 150.995C48.7748 151.891 48.5559 152.788 48.0711 153.547L48.0714 153.545Z" fill="#673DE6"/>
<path d="M51.7144 166.587L46.3254 163.066L46.3571 162.982C45.2401 163.434 44.7762 165.541 44.96 167.263C45.1439 168.986 45.7707 170.526 46.0869 172.205C46.5133 174.502 46.3524 176.878 45.6208 179.087C47.9832 176.275 50.074 173.218 51.8617 169.964C52.1115 169.553 52.3018 169.106 52.4263 168.636C52.5581 168.135 52.5111 167.599 52.2942 167.133C52.1468 166.902 51.9475 166.715 51.7144 166.587V166.587Z" fill="#673DE6"/>
<path d="M45.1148 145.544C44.8946 146.03 44.8606 146.583 45.0197 147.094C45.2047 147.505 45.5403 147.825 45.9534 147.983L46.9892 148.511C47.3338 148.687 47.7052 148.864 48.0567 148.719C48.4805 148.545 48.7744 147.862 48.6982 147.228C48.586 146.628 48.2763 146.087 47.8212 145.695L46.2148 144.036L45.913 144.415C45.5868 144.742 45.3169 145.124 45.1148 145.544V145.544Z" fill="#673DE6"/>
<path d="M80.8666 152.53L82.2617 152.851C82.1807 154.384 81.4021 155.802 80.3582 156.316C79.9231 156.53 79.4389 156.609 79.0789 157.009C78.7607 157.448 78.5419 157.949 78.4369 158.477L77.6399 161.307C77.3549 162.323 76.989 163.452 76.2481 163.818C75.6121 164.132 74.8848 163.748 74.3969 163.102C73.9184 162.372 73.5553 161.577 73.3199 160.742C73.3381 161.664 72.8984 162.569 72.2759 162.889C71.6534 163.21 70.8931 162.922 70.4759 162.204C70.1761 161.69 70.0515 161.013 69.7576 160.491C69.4637 159.97 68.8472 159.671 68.5262 160.161C68.3146 160.485 68.3417 160.983 68.2366 161.396C68.1838 161.67 68.0447 161.921 67.8389 162.115C67.633 162.308 67.3705 162.434 67.0879 162.475C66.828 162.469 66.572 162.412 66.3356 162.307C66.0991 162.201 65.887 162.05 65.7123 161.862C64.7938 160.945 64.1958 159.768 64.0039 158.499C63.8737 157.891 63.8901 157.261 64.0518 156.66C64.2363 156.09 64.6819 155.651 65.1242 155.759C65.4151 155.159 64.8409 154.362 64.3232 154.433C63.8056 154.503 63.3976 155.046 62.9718 155.463C62.5461 155.881 61.9533 156.184 61.5259 155.769C61.5306 155.844 61.5202 155.92 61.4952 155.991C61.4701 156.062 61.431 156.127 61.3799 156.184C61.3289 156.24 61.267 156.286 61.1978 156.319C61.1286 156.352 61.0534 156.371 60.9765 156.376C60.9611 156.376 60.9457 156.376 60.9305 156.376C60.6463 156.296 60.3821 156.16 60.155 155.975C59.1755 155.379 57.9322 155.774 57.2363 156.902C57.6714 155.095 58.3087 153.022 59.6452 152.597C60.1914 152.423 60.7867 152.565 61.3028 152.265C62.2161 151.731 62.4006 149.712 61.6118 148.878C61.711 149.666 61.6928 150.585 61.2667 151.124C60.8406 151.663 59.9467 151.312 60.0009 150.515C59.9887 150.627 59.9405 150.733 59.8632 150.816C59.786 150.9 59.6836 150.957 59.5708 150.981C59.458 151.004 59.3405 150.992 59.2351 150.946C59.1297 150.901 59.0419 150.824 58.9841 150.726C58.8548 150.477 58.7826 150.204 58.7725 149.926C58.7624 149.647 58.8146 149.37 58.9256 149.113C59.1328 148.656 59.4299 148.245 59.8 147.9C60.4542 147.143 61.2153 146.48 62.0604 145.932C62.8869 145.463 63.8409 145.305 64.6687 145.771C65.105 146.016 65.4892 146.427 65.9345 146.642C66.1459 146.77 66.4007 146.811 66.6429 146.755C66.8851 146.7 67.0948 146.553 67.226 146.347L67.2406 146.323C67.5711 145.755 67.4161 144.911 67.5381 144.201C67.7586 142.947 69.0439 142.359 69.7566 143.188C69.224 143.055 68.6736 143.67 68.6078 144.414C68.5421 145.159 68.9259 145.912 69.4419 146.137C70.309 146.512 71.1576 145.569 71.8131 144.697C72.4963 143.783 73.1813 142.87 73.868 141.957C73.9775 141.802 74.1005 141.656 74.2356 141.521C74.4504 141.317 74.7368 141.2 75.0368 141.194C75.3368 141.188 75.6279 141.293 75.8511 141.489C76.5453 142.041 76.8696 143.173 77.4379 143.952C78.2643 145.083 79.4974 145.359 80.6461 145.578C81.5025 145.741 82.3595 145.904 83.217 146.069C83.7885 147.107 84.2871 148.181 84.7092 149.285C83.1368 149.985 81.803 151.111 80.8663 152.528L80.8666 152.53Z" fill="#673DE6"/>
<path d="M85.6553 151.882C85.4791 152.407 85.3827 152.955 85.3695 153.509C84.6322 152.6 84.5148 150.898 84.9994 149.719C85.2477 150.428 85.4663 151.149 85.6553 151.882Z" fill="#673DE6"/>
<path d="M83.7622 170.238C83.1717 171.59 82.485 172.885 81.7087 174.111C81.2126 173.872 80.6792 174.299 80.2147 174.7C79.7287 175.12 79.1467 175.528 78.6491 175.145C78.1406 174.754 77.9765 173.659 78.1378 172.79C78.3232 171.989 78.6474 171.237 79.0917 170.578C79.5051 169.882 79.9477 169.16 80.5224 168.889C81.0972 168.619 81.8387 169.001 82.007 169.924L82.4149 169.908C82.1862 169.554 82.3062 168.821 82.6136 168.692C82.9678 168.541 83.2752 169.089 83.4845 169.574C83.5775 169.793 83.6726 170.014 83.7622 170.238Z" fill="#673DE6"/>
<path d="M66.5703 164.275C65.6186 164.332 64.865 163.212 64.3639 162.109C63.8629 161.006 63.406 159.745 62.5476 159.184C62.057 158.863 61.4976 158.819 60.9652 158.664C60.6634 158.591 60.384 158.45 60.1504 158.253C59.9167 158.057 59.7354 157.809 59.6216 157.532L59.018 157.299C58.1736 157.703 57.4004 158.23 56.7262 158.862C55.9557 159.645 55.4758 160.649 55.3605 161.719C55.2451 162.875 55.671 164.164 56.4668 164.598C57.0954 164.941 57.8272 164.724 58.4641 165.04C59.2599 165.432 59.7323 166.572 59.911 167.698C60.0897 168.823 60.0428 169.993 60.1724 171.132C60.302 172.27 60.653 173.455 61.3826 174.038C62.2957 174.768 63.6354 174.161 64.0452 172.832C64.2463 172.18 64.2393 171.445 64.3893 170.768C64.653 169.576 65.3681 168.692 65.9347 167.715C66.5014 166.737 66.9474 165.409 66.5703 164.275Z" fill="#673DE6"/>
<path d="M57.4099 152.15C57.5169 152.246 57.6166 152.35 57.7085 152.46C57.8035 152.62 57.852 152.802 57.8488 152.987C57.8456 153.172 57.7908 153.352 57.6902 153.509C57.828 153.501 57.9627 153.465 58.0857 153.404C58.2087 153.343 58.3174 153.258 58.4049 153.153C58.6141 152.921 58.7981 152.668 58.954 152.399C59.0274 152.306 59.0798 152.2 59.1077 152.087C59.1357 151.973 59.1385 151.855 59.116 151.74C59.062 151.59 58.9338 151.525 58.8441 151.412C58.7196 151.19 58.6346 150.949 58.5927 150.7C58.543 150.466 58.4275 150.25 58.2592 150.077C58.0908 149.904 57.8764 149.78 57.6398 149.719L57.6974 149.73C57.5996 149.787 57.5224 149.872 57.4766 149.973C57.4308 150.075 57.4187 150.188 57.4421 150.296C57.477 150.516 57.6212 150.698 57.6069 150.922C57.5862 151.243 57.2567 151.394 57.2364 151.716C57.2336 151.877 57.2959 152.033 57.4099 152.15V152.15Z" fill="#673DE6"/>
<path d="M55.9883 148.679C56.1099 148.539 56.1997 148.358 56.248 148.156C56.2963 147.954 56.3012 147.739 56.2622 147.533C56.1888 147.101 55.9292 146.81 55.6896 146.892C55.6202 146.984 55.534 147.052 55.4391 147.088C55.3442 147.125 55.2437 147.129 55.1472 147.101C54.9992 147.051 54.8366 146.922 54.7082 147.069C54.6348 147.178 54.5835 147.309 54.5589 147.451L54.4162 148.024C54.3936 148.093 54.3877 148.169 54.3994 148.241C54.4084 148.271 54.4231 148.296 54.442 148.316C54.4609 148.336 54.4833 148.349 54.5071 148.354L55.3626 148.684C55.4608 148.743 55.5678 148.774 55.676 148.773C55.7841 148.772 55.8907 148.74 55.9883 148.679V148.679Z" fill="#673DE6"/>
<path d="M76.0772 166.252L75.866 165.621C75.7968 165.377 75.7023 165.16 75.5876 164.983C75.5628 164.945 75.5341 164.916 75.5032 164.898C75.4723 164.88 75.4398 164.874 75.4075 164.879C75.3752 164.884 75.3438 164.901 75.3151 164.928C75.2864 164.956 75.2609 164.993 75.2401 165.039L75.2363 165.047L75.2449 165.167C75.4335 165.536 75.562 165.993 75.616 166.488C75.6321 166.704 75.6265 166.926 75.6405 167.142C75.642 167.242 75.6544 167.341 75.6768 167.432C75.6993 167.524 75.7314 167.606 75.7713 167.675C75.8821 167.812 76.0123 167.611 76.0912 167.368C76.1618 167.168 76.1934 166.931 76.181 166.694C76.1635 166.535 76.1282 166.384 76.0773 166.251L76.0772 166.252Z" fill="#673DE6"/>
<path d="M78.4333 166.579C78.4639 166.363 78.4439 166.144 78.3747 165.935C78.3632 165.653 78.4483 165.374 78.619 165.135C78.7892 164.909 78.9182 164.662 79.0014 164.401C79.0363 164.282 79.0299 164.157 78.9831 164.042C78.93 163.937 78.8017 163.889 78.7282 163.972L78.8858 164.062C78.6731 164.028 78.4545 164.038 78.2464 164.089C78.1276 164.129 78.0216 164.193 77.9372 164.277C77.8528 164.36 77.7926 164.46 77.7616 164.569C77.7355 164.738 77.6928 164.904 77.6342 165.067C77.5403 165.237 77.3584 165.293 77.2437 165.442C77.1656 165.574 77.1262 165.721 77.129 165.87C77.1319 166.019 77.1768 166.164 77.2599 166.294C77.4034 166.506 77.6316 166.664 77.9001 166.736C78.0917 166.798 78.345 166.801 78.4333 166.579Z" fill="#673DE6"/>
<path d="M82.0612 167.904C82.1126 168.036 82.1815 168.161 82.2662 168.276C82.4232 168.434 82.6395 168.338 82.8313 168.298C83.0055 168.271 83.1839 168.291 83.3476 168.356C83.5112 168.421 83.6541 168.528 83.761 168.667C83.6865 168.3 83.524 167.956 83.2872 167.665C83.0504 167.373 82.7461 167.142 82.3999 166.99C81.9502 166.836 81.4762 166.762 81.0003 166.773L80.9189 166.793C81.1255 167.389 81.7758 167.375 82.0612 167.904Z" fill="#673DE6"/>
<path d="M66.1642 169.799C66.0763 170.031 66.0007 170.273 65.938 170.523C65.8554 170.926 65.8008 171.341 65.7749 171.761C65.7545 171.999 65.7482 172.304 65.8503 172.42C65.8796 172.449 65.915 172.461 65.9499 172.454C65.9848 172.447 66.0169 172.422 66.04 172.383C66.0968 172.295 66.1433 172.195 66.1775 172.084C66.3784 171.578 66.5344 171.037 66.6417 170.473C66.7539 169.875 66.7274 169.24 66.5663 168.667L66.1642 169.799Z" fill="#673DE6"/>
<path d="M61.2975 142.881C61.3761 142.98 61.4755 143.048 61.5833 143.075C61.6912 143.102 61.8028 143.088 61.9045 143.034C62.1151 142.915 62.3083 142.75 62.4756 142.546C62.6141 142.414 62.7317 142.248 62.8218 142.058C62.8715 141.945 62.9033 141.82 62.9155 141.691C62.9276 141.561 62.9199 141.43 62.8927 141.304C62.8541 141.184 62.7923 141.079 62.7133 140.998C62.6343 140.917 62.5406 140.863 62.4412 140.842L61.6004 140.522L61.8032 140.286C61.5948 140.142 61.3638 140.41 61.2337 140.742C61.1502 140.959 61.0919 141.191 61.0609 141.43C61.0166 141.68 61.0149 141.94 61.0559 142.19C61.0969 142.441 61.1797 142.677 61.2985 142.882L61.2975 142.881Z" fill="#673DE6"/>
<path d="M66.8702 140.977C66.9384 141.101 67.0325 141.178 67.1334 141.191C67.2343 141.205 67.3346 141.155 67.414 141.05C67.4823 140.965 67.5389 140.857 67.5803 140.732C67.6217 140.608 67.6469 140.471 67.6543 140.33C67.6714 140.013 67.5774 139.663 67.4434 139.635L67.4741 139.339C67.2157 139.261 66.8974 139.246 66.7589 139.768C66.7122 139.968 66.698 140.185 66.7175 140.397C66.737 140.609 66.7897 140.809 66.8702 140.977V140.977Z" fill="#673DE6"/>
<g opacity="0.35">
<path d="M117.307 159.89C119.071 159.121 115.493 158.673 111.434 158.526C107.375 158.379 102.466 158.387 99.8721 157.968C97.3632 157.563 97.5484 156.843 97.3374 156.191C97.1265 155.538 96.1619 154.87 92.2476 154.724C87.3697 154.544 79.3262 155.239 75.6424 154.822C72.2061 154.432 74.2489 153.209 69.238 153.163C66.3768 153.136 62.691 153.539 59.5073 153.637C57.2507 153.734 54.9898 153.617 52.7556 153.285C51.204 153.03 50.1232 152.708 48.3769 152.483C43.7918 151.894 34.8213 152.092 26.8149 152.847C18.8084 153.601 11.9455 154.84 8.07476 156.067C4.20406 157.293 3.1348 158.501 4.03636 159.525C4.6121 160.179 6.08544 160.79 9.65902 161.053C16.3434 161.545 28.245 160.699 35.1518 161.146C39.0014 161.395 40.7094 162.013 44.0869 162.351C47.7156 162.714 53.028 162.734 58.2472 162.725C69.1142 162.707 80.2592 162.595 91.6227 162.391C96.3695 162.305 101.343 162.193 106.394 161.787C111.445 161.381 116.597 160.593 117.662 159.855" fill="#F4F5FF"/>
</g>
<path opacity="0.5" d="M90.9592 198.977C89.5534 198.977 88.0124 198.883 86.3365 198.696C77.668 197.728 66.4398 194.361 54.7201 189.219C43.0005 184.077 32.1894 177.768 24.2787 171.462C20.4251 168.389 17.4676 165.481 15.4882 162.817C13.3925 159.997 12.4759 157.539 12.7635 155.511C13.324 151.561 18.287 150.696 22.3519 150.667L22.3532 151.242C16.7712 151.282 13.478 152.847 13.0804 155.65C12.5738 159.219 16.7046 164.791 24.4135 170.94C32.3068 177.234 43.0979 183.528 54.7991 188.663C66.5003 193.798 77.7078 197.158 86.3574 198.124C94.8042 199.068 99.9395 197.562 100.446 193.992C100.866 191.029 98.0938 186.663 92.6404 181.699L92.791 181.189C96.7539 184.796 101.353 189.969 100.763 194.131C100.476 196.159 99.0097 197.571 96.4065 198.329C94.6035 198.8 92.7819 199.017 90.9592 198.977V198.977Z" fill="#673DE6"/>
<path opacity="0.5" d="M37.5004 198.981C33.5952 198.981 29.9656 198.753 26.716 198.293C22.4682 197.69 19.1022 196.722 16.7115 195.415C14.1803 194.031 12.8375 192.3 12.7202 190.27C12.4918 186.315 17.0345 182.658 20.8857 180.287L20.9975 180.815C15.7084 184.072 12.8855 187.41 13.0476 190.216C13.254 193.789 18.2459 196.53 26.7431 197.735C35.4445 198.968 46.8947 198.531 58.9847 196.503C71.0747 194.474 82.356 191.1 90.7486 186.999C98.9449 182.993 103.527 178.648 103.321 175.074C103.15 172.107 99.6792 169.693 93.5489 168.275L93.5931 167.719C98.0481 168.749 103.408 170.853 103.648 175.02C103.766 177.05 102.647 179.194 100.323 181.393C98.1273 183.469 94.9366 185.537 90.8394 187.539C82.4282 191.649 71.1268 195.031 59.0169 197.062C51.4204 198.334 44.0729 198.981 37.5004 198.981Z" fill="#673DE6"/>
<path d="M65.137 198.67C66.9682 198.67 68.4527 197.186 68.4527 195.355C68.4527 193.524 66.9682 192.039 65.137 192.039C63.3058 192.039 61.8213 193.524 61.8213 195.355C61.8213 197.186 63.3058 198.67 65.137 198.67Z" fill="#673DE6"/>
<path d="M21.7102 183.824C23.5414 183.824 25.0259 182.339 25.0259 180.508C25.0259 178.677 23.5414 177.192 21.7102 177.192C19.879 177.192 18.3945 178.677 18.3945 180.508C18.3945 182.339 19.879 183.824 21.7102 183.824Z" fill="#E6E6E6"/>
<path d="M28.8156 135.51C29.862 135.51 30.7103 134.661 30.7103 133.615C30.7103 132.568 29.862 131.72 28.8156 131.72C27.7692 131.72 26.9209 132.568 26.9209 133.615C26.9209 134.661 27.7692 135.51 28.8156 135.51Z" fill="#FC5185"/>
<path d="M16.0276 151.614C17.8588 151.614 19.3433 150.13 19.3433 148.299C19.3433 146.467 17.8588 144.983 16.0276 144.983C14.1964 144.983 12.7119 146.467 12.7119 148.299C12.7119 150.13 14.1964 151.614 16.0276 151.614Z" fill="#D8DBFE"/>
</g>
<defs>
<clipPath id="clip0_424_589">
<rect width="511" height="445" fill="white"/>
</clipPath>
</defs>
</svg>
