<svg width="24" height="24" viewBox="0 0 24 24" fill="none" xmlns="http://www.w3.org/2000/svg">
<path d="M23.3 8.28398H20.96C20.7817 6.02997 19.7604 3.92599 18.0997 2.39153C16.439 0.85707 14.261 0.00488281 12 0.00488281C9.73895 0.00488281 7.56096 0.85707 5.90031 2.39153C4.23965 3.92599 3.21833 6.02997 3.04 8.28398H0.7C0.514348 8.28398 0.336301 8.35773 0.205025 8.489C0.0737498 8.62028 0 8.79833 0 8.98398V16.515C0 16.7006 0.0737498 16.8787 0.205025 17.01C0.336301 17.1412 0.514348 17.215 0.7 17.215H3.716C3.90165 17.215 4.0797 17.1412 4.21097 17.01C4.34225 16.8787 4.416 16.7006 4.416 16.515V8.98698C4.416 6.97637 5.21471 5.04812 6.63642 3.6264C8.05814 2.20469 9.98639 1.40598 11.997 1.40598C14.0076 1.40598 15.9359 2.20469 17.3576 3.6264C18.7793 5.04812 19.578 6.97637 19.578 8.98698V16.518C19.5767 17.7293 19.0949 18.8907 18.2383 19.7473C17.3817 20.6039 16.2204 21.0857 15.009 21.087H14.091C13.9242 20.5901 13.5862 20.1687 13.1373 19.8981C12.6884 19.6275 12.158 19.5254 11.6407 19.6099C11.1234 19.6944 10.6531 19.9601 10.3136 20.3594C9.97421 20.7588 9.78785 21.2659 9.78785 21.79C9.78785 22.3141 9.97421 22.8212 10.3136 23.2205C10.6531 23.6199 11.1234 23.8856 11.6407 23.9701C12.158 24.0546 12.6884 23.9524 13.1373 23.6818C13.5862 23.4112 13.9242 22.9899 14.091 22.493H15.009C16.4713 22.4909 17.8822 21.9535 18.9753 20.9821C20.0684 20.0108 20.768 18.6729 20.942 17.221H23.3C23.4857 17.221 23.6637 17.1472 23.795 17.016C23.9263 16.8847 24 16.7066 24 16.521V8.98698C24 8.80133 23.9263 8.62328 23.795 8.492C23.6637 8.36073 23.4857 8.28698 23.3 8.28698V8.28398ZM3.013 15.816H1.406V9.69098H3.013V15.816ZM12 22.594C11.8418 22.594 11.6871 22.5471 11.5555 22.4592C11.424 22.3712 11.3214 22.2463 11.2609 22.1001C11.2003 21.9539 11.1845 21.7931 11.2154 21.6379C11.2462 21.4827 11.3224 21.3402 11.4343 21.2283C11.5462 21.1164 11.6887 21.0402 11.8439 21.0094C11.9991 20.9785 12.16 20.9943 12.3061 21.0549C12.4523 21.1154 12.5773 21.218 12.6652 21.3495C12.7531 21.4811 12.8 21.6358 12.8 21.794C12.8 22.0062 12.7157 22.2096 12.5657 22.3597C12.4157 22.5097 12.2122 22.594 12 22.594ZM22.594 15.816H20.987V9.69098H22.593L22.594 15.816Z" fill="#673DE6"/>
<path d="M17.1648 8.33807C17.0364 8.28444 16.895 8.27025 16.7586 8.29732C16.6222 8.3244 16.4969 8.3915 16.3988 8.49007L13.1628 11.7251C12.6935 12.1993 12.4292 12.8389 12.4268 13.5061C12.4268 13.6917 12.5005 13.8698 12.6318 14.001C12.7631 14.1323 12.9411 14.2061 13.1268 14.2061H16.1898V15.7621C16.1898 15.9485 16.2638 16.1273 16.3957 16.2592C16.5275 16.391 16.7063 16.4651 16.8928 16.4651C17.0792 16.4651 17.258 16.391 17.3899 16.2592C17.5217 16.1273 17.5958 15.9485 17.5958 15.7621V14.2101H17.6458C17.8322 14.2101 18.011 14.136 18.1429 14.0042C18.2747 13.8723 18.3488 13.6935 18.3488 13.5071C18.3488 13.3206 18.2747 13.1418 18.1429 13.01C18.011 12.8781 17.8322 12.8041 17.6458 12.8041H17.5958V8.98407C17.5957 8.84587 17.5548 8.71078 17.4781 8.59582C17.4014 8.48086 17.2923 8.39118 17.1648 8.33807V8.33807ZM16.1928 12.8031H14.0818C14.1056 12.7735 14.131 12.7451 14.1578 12.7181L16.1928 10.6841V12.8031Z" fill="#673DE6"/>
<path d="M11.1969 15.7659C11.1969 15.5803 11.1232 15.4022 10.9919 15.2709C10.8606 15.1397 10.6826 15.0659 10.4969 15.0659H7.6799C7.70374 15.0363 7.7291 15.0079 7.7559 14.9809L10.9909 11.7479C11.0567 11.6824 11.1088 11.6044 11.1441 11.5186C11.1795 11.4328 11.1974 11.3407 11.1969 11.2479V10.8709C11.1969 10.1851 10.9244 9.5273 10.4395 9.04233C9.95451 8.55736 9.29675 8.28491 8.6109 8.28491C7.92505 8.28491 7.26729 8.55736 6.78232 9.04233C6.29736 9.5273 6.0249 10.1851 6.0249 10.8709C6.0249 11.0574 6.09897 11.2362 6.23081 11.368C6.36264 11.4998 6.54145 11.5739 6.7279 11.5739C6.91435 11.5739 7.09316 11.4998 7.225 11.368C7.35684 11.2362 7.4309 11.0574 7.4309 10.8709C7.43984 10.564 7.56803 10.2727 7.78825 10.0588C8.00847 9.84491 8.30339 9.72526 8.6104 9.72526C8.91741 9.72526 9.21233 9.84491 9.43255 10.0588C9.65278 10.2727 9.78097 10.564 9.7899 10.8709V10.9559L6.7609 13.9839C6.2916 14.4582 6.0273 15.0977 6.0249 15.7649C6.0249 15.9506 6.09865 16.1286 6.22993 16.2599C6.3612 16.3912 6.53925 16.4649 6.7249 16.4649H10.4909C10.6766 16.4649 10.8546 16.3912 10.9859 16.2599C11.1172 16.1286 11.1909 15.9506 11.1909 15.7649L11.1969 15.7659Z" fill="#673DE6"/>
</svg>
