<svg width="24" height="24" viewBox="0 0 24 24" fill="none" xmlns="http://www.w3.org/2000/svg">
<g clip-path="url(#clip0_150_786)">
<path d="M12.6999 11.368V7.2C13.1107 7.34586 13.4663 7.6152 13.718 7.97111C13.9697 8.32702 14.1052 8.75207 14.1059 9.188H15.5119C15.5108 8.37798 15.2306 7.59309 14.7183 6.96558C14.2061 6.33807 13.4933 5.90629 12.6999 5.743V4.5H11.2999V5.743C10.5058 5.90505 9.79207 6.33645 9.27948 6.96421C8.76689 7.59197 8.4869 8.37755 8.4869 9.188C8.4869 9.99845 8.76689 10.784 9.27948 11.4118C9.79207 12.0395 10.5058 12.471 11.2999 12.633V16.8C10.8891 16.6541 10.5335 16.3848 10.2817 16.0289C10.03 15.673 9.89455 15.2479 9.89389 14.812H8.48389C8.48516 15.6226 8.76598 16.4079 9.27898 17.0355C9.79198 17.6631 10.5058 18.0945 11.2999 18.257V19.5H12.6999V18.257C13.494 18.095 14.2077 17.6635 14.7203 17.0358C15.2329 16.408 15.5129 15.6225 15.5129 14.812C15.5129 14.0015 15.2329 13.216 14.7203 12.5882C14.2077 11.9605 13.494 11.529 12.6999 11.367V11.368ZM11.2999 11.176C10.8886 11.0307 10.5325 10.7614 10.2807 10.4053C10.0288 10.0491 9.89356 9.62369 9.89356 9.1875C9.89356 8.75131 10.0288 8.32585 10.2807 7.96973C10.5325 7.6136 10.8886 7.34433 11.2999 7.199V11.176ZM12.6999 16.8V12.824C13.1112 12.9693 13.4672 13.2386 13.7191 13.5947C13.971 13.9509 14.1062 14.3763 14.1062 14.8125C14.1062 15.2487 13.971 15.6741 13.7191 16.0303C13.4672 16.3864 13.1112 16.6557 12.6999 16.801V16.8Z" fill="#673DE6"/>
<path d="M12 0C9.62663 0 7.30655 0.703788 5.33316 2.02236C3.35977 3.34094 1.8217 5.21509 0.913451 7.4078C0.00519943 9.60051 -0.232441 12.0133 0.230582 14.3411C0.693605 16.6689 1.83649 18.8071 3.51472 20.4853C5.19295 22.1635 7.33115 23.3064 9.65892 23.7694C11.9867 24.2324 14.3995 23.9948 16.5922 23.0866C18.7849 22.1783 20.6591 20.6402 21.9776 18.6668C23.2962 16.6935 24 14.3734 24 12C24 8.8174 22.7357 5.76515 20.4853 3.51472C18.2348 1.26428 15.1826 0 12 0V0ZM12 22.594C9.90471 22.594 7.85647 21.9727 6.11429 20.8086C4.37212 19.6445 3.01426 17.9899 2.21243 16.0541C1.41059 14.1183 1.20079 11.9882 1.60957 9.93321C2.01834 7.87818 3.02732 5.99051 4.50892 4.50891C5.99051 3.02731 7.87818 2.01833 9.93322 1.60956C11.9883 1.20079 14.1184 1.41059 16.0542 2.21242C17.99 3.01426 19.6445 4.37211 20.8086 6.11429C21.9727 7.85646 22.594 9.90471 22.594 12C22.594 14.8097 21.4779 17.5043 19.4911 19.4911C17.5043 21.4778 14.8097 22.594 12 22.594Z" fill="#673DE6"/>
</g>
<defs>
<clipPath id="clip0_150_786">
<rect width="24" height="24" fill="white"/>
</clipPath>
</defs>
</svg>
