<svg width="24" height="24" viewBox="0 0 24 24" fill="none" xmlns="http://www.w3.org/2000/svg">
<g clip-path="url(#clip0_150_795)">
<path d="M24 10.6149C23.9899 10.5187 23.9603 10.4256 23.9128 10.3413C23.8653 10.257 23.801 10.1834 23.724 10.1249L21.824 8.68492L22.516 6.40292C22.5439 6.3104 22.5526 6.21312 22.5415 6.11711C22.5304 6.02109 22.4997 5.92837 22.4513 5.84468C22.403 5.76099 22.338 5.68811 22.2603 5.63053C22.1827 5.57295 22.0941 5.5319 22 5.50992L19.677 4.96792L19.377 2.60192C19.3649 2.50608 19.3333 2.41373 19.2841 2.33057C19.235 2.24742 19.1693 2.17522 19.0911 2.11843C19.013 2.06165 18.924 2.02148 18.8297 2.00041C18.7355 1.97934 18.6379 1.97781 18.543 1.99592L16.2 2.44392L14.966 0.402924C14.9159 0.320225 14.8494 0.248669 14.7706 0.192678C14.6918 0.136688 14.6024 0.0974522 14.5078 0.077396C14.4133 0.0573397 14.3156 0.056889 14.2208 0.0760717C14.1261 0.0952544 14.0363 0.133663 13.957 0.188924L12 1.55192L10.043 0.188924C9.96365 0.133663 9.87385 0.0952544 9.7791 0.0760717C9.68436 0.056889 9.58668 0.0573397 9.49212 0.077396C9.39756 0.0974522 9.30811 0.136688 9.22931 0.192678C9.15051 0.248669 9.08402 0.320225 9.03397 0.402924L7.79997 2.44392L5.45897 1.99492C5.36408 1.97681 5.26648 1.97834 5.17221 1.99941C5.07793 2.02048 4.98897 2.06065 4.91082 2.11743C4.83267 2.17422 4.76698 2.24642 4.71782 2.32957C4.66866 2.41273 4.63706 2.50508 4.62497 2.60092L4.32497 4.96692L2.00197 5.50892C1.90784 5.5309 1.81922 5.57195 1.74159 5.62953C1.66395 5.68711 1.59894 5.75999 1.55059 5.84368C1.50223 5.92737 1.47154 6.02009 1.46043 6.11611C1.44931 6.21212 1.45801 6.3094 1.48597 6.40192L2.17797 8.68392L0.277968 10.1239C0.200883 10.1823 0.136593 10.2559 0.089072 10.3401C0.0415511 10.4243 0.01181 10.5174 0.00168743 10.6135C-0.0084351 10.7097 0.00127616 10.8069 0.0302208 10.8992C0.0591654 10.9914 0.106728 11.0768 0.169968 11.1499L1.72997 12.9499L0.580968 15.0439C0.53434 15.1286 0.50558 15.222 0.496464 15.3182C0.487348 15.4145 0.49807 15.5116 0.527968 15.6035C0.557866 15.6955 0.606305 15.7803 0.670289 15.8528C0.734273 15.9253 0.812443 15.9839 0.899968 16.0249L3.05897 17.0329L2.85897 19.4089C2.85074 19.5053 2.86237 19.6023 2.89313 19.694C2.92388 19.7856 2.97312 19.87 3.03779 19.9419C3.10247 20.0138 3.1812 20.0717 3.26912 20.1119C3.35704 20.1522 3.45229 20.1739 3.54897 20.1759L5.93397 20.2239L6.71597 22.4769C6.74765 22.5682 6.79772 22.6521 6.86309 22.7233C6.92845 22.7945 7.00773 22.8516 7.09601 22.8909C7.1843 22.9303 7.27971 22.9511 7.37637 22.9522C7.47302 22.9532 7.56886 22.9344 7.65797 22.8969L9.85797 21.9709L11.489 23.7109C11.5551 23.7814 11.6349 23.8375 11.7236 23.8759C11.8123 23.9143 11.9079 23.9341 12.0045 23.9341C12.1011 23.9341 12.1967 23.9143 12.2853 23.8759C12.374 23.8375 12.4538 23.7814 12.52 23.7109L14.151 21.9709L16.351 22.8969C16.4401 22.9344 16.5359 22.9532 16.6326 22.9522C16.7292 22.9511 16.8246 22.9303 16.9129 22.8909C17.0012 22.8516 17.0805 22.7945 17.1458 22.7233C17.2112 22.6521 17.2613 22.5682 17.293 22.4769L18.075 20.2239L20.459 20.1759C20.5556 20.1739 20.6509 20.1522 20.7388 20.1119C20.8267 20.0717 20.9055 20.0138 20.9701 19.9419C21.0348 19.87 21.0841 19.7856 21.1148 19.694C21.1456 19.6023 21.1572 19.5053 21.149 19.4089L20.949 17.0329L23.1 16.0249C23.1875 15.9839 23.2657 15.9253 23.3296 15.8528C23.3936 15.7803 23.4421 15.6955 23.472 15.6035C23.5019 15.5116 23.5126 15.4145 23.5035 15.3182C23.4944 15.222 23.4656 15.1286 23.419 15.0439L22.268 12.9549L23.828 11.1549C23.8923 11.0816 23.9408 10.9958 23.9704 10.9029C24 10.81 24.0101 10.7119 24 10.6149V10.6149ZM20.8 13.2059L21.825 15.0649L19.903 15.9649C19.7729 16.0269 19.6649 16.1272 19.5934 16.2523C19.5219 16.3774 19.4904 16.5214 19.503 16.6649L19.683 18.7799L17.56 18.8219C17.4155 18.8248 17.2753 18.8718 17.1584 18.9567C17.0415 19.0417 16.9534 19.1604 16.906 19.2969L16.206 21.3029L14.25 20.4779C14.1169 20.4219 13.9698 20.408 13.8286 20.438C13.6874 20.468 13.5587 20.5406 13.46 20.6459L12 22.1979L10.548 20.6489C10.4492 20.5436 10.3205 20.471 10.1793 20.441C10.0381 20.411 9.89105 20.4249 9.75797 20.4809L7.79997 21.3049L7.09997 19.2989C7.05257 19.1624 6.96448 19.0437 6.84754 18.9587C6.73061 18.8738 6.59046 18.8268 6.44597 18.8239L4.32897 18.7829L4.50897 16.6679C4.52157 16.5244 4.49001 16.3804 4.41853 16.2553C4.34704 16.1302 4.23903 16.0299 4.10897 15.9679L2.18697 15.0679L3.21197 13.2089C3.28093 13.0828 3.30984 12.9387 3.29483 12.7958C3.27982 12.6529 3.22162 12.5179 3.12797 12.4089L1.73497 10.7969L3.42697 9.51492C3.54208 9.42776 3.62774 9.30743 3.67243 9.17014C3.71712 9.03284 3.71871 8.88515 3.67697 8.74692L3.06097 6.71492L5.12897 6.23292C5.26964 6.20015 5.39689 6.12508 5.49361 6.01781C5.59033 5.91054 5.65188 5.77622 5.66997 5.63292L5.93397 3.52692L8.01897 3.92692C8.16086 3.95405 8.30765 3.93706 8.4396 3.87824C8.57154 3.81942 8.6823 3.72159 8.75697 3.59792L9.85697 1.78092L11.6 2.99292C11.7185 3.07547 11.8595 3.11972 12.004 3.11972C12.1484 3.11972 12.2894 3.07547 12.408 2.99292L14.15 1.77992L15.25 3.59692C15.3246 3.72059 15.4354 3.81842 15.5673 3.87724C15.6993 3.93606 15.8461 3.95305 15.988 3.92592L18.073 3.52592L18.331 5.63292C18.3491 5.77622 18.4106 5.91054 18.5073 6.01781C18.604 6.12508 18.7313 6.20015 18.872 6.23292L20.94 6.71592L20.324 8.74792C20.2822 8.88615 20.2838 9.03384 20.3285 9.17114C20.3732 9.30843 20.4589 9.42876 20.574 9.51592L22.266 10.7979L20.877 12.4029C20.7825 12.5121 20.7237 12.6475 20.7086 12.7911C20.6934 12.9346 20.7225 13.0794 20.792 13.2059H20.8Z" fill="#673DE6"/>
<path d="M12.0001 5.23682C10.6625 5.23682 9.35491 5.63346 8.24274 6.37659C7.13057 7.11972 6.26374 8.17595 5.75187 9.41173C5.23999 10.6475 5.10606 12.0073 5.36701 13.3192C5.62796 14.6311 6.27208 15.8362 7.2179 16.782C8.16372 17.7278 9.36877 18.3719 10.6807 18.6329C11.9926 18.8938 13.3524 18.7599 14.5882 18.248C15.8239 17.7361 16.8802 16.8693 17.6233 15.7571C18.3664 14.645 18.7631 13.3374 18.7631 11.9998C18.7609 10.2068 18.0477 8.48784 16.7799 7.21999C15.512 5.95214 13.7931 5.23893 12.0001 5.23682V5.23682ZM12.0001 17.3498C10.9421 17.3498 9.90796 17.0361 9.02832 16.4483C8.14868 15.8606 7.46309 15.0252 7.05823 14.0478C6.65338 13.0704 6.54745 11.9949 6.75384 10.9573C6.96024 9.91967 7.46968 8.96657 8.21775 8.2185C8.96582 7.47043 9.91892 6.96099 10.9565 6.7546C11.9941 6.5482 13.0696 6.65413 14.047 7.05898C15.0244 7.46384 15.8598 8.14943 16.4476 9.02907C17.0354 9.90871 17.3491 10.9429 17.3491 12.0008C17.3472 13.4189 16.7831 14.7784 15.7803 15.7811C14.7776 16.7838 13.4181 17.348 12.0001 17.3498V17.3498Z" fill="#673DE6"/>
<path d="M14.7712 9.98596C14.7055 9.92029 14.6275 9.86819 14.5418 9.83265C14.456 9.7971 14.364 9.77881 14.2712 9.77881C14.1783 9.77881 14.0863 9.7971 14.0005 9.83265C13.9148 9.86819 13.8368 9.92029 13.7712 9.98596L11.2432 12.514L10.2262 11.5C10.0935 11.3674 9.91369 11.2929 9.72615 11.2929C9.53861 11.2929 9.35876 11.3674 9.22615 11.5C9.09354 11.6326 9.01904 11.8124 9.01904 12C9.01904 12.1875 9.09354 12.3674 9.22615 12.5L10.7402 14.014C10.8058 14.0796 10.8838 14.1317 10.9695 14.1673C11.0553 14.2028 11.1473 14.2211 11.2402 14.2211C11.333 14.2211 11.425 14.2028 11.5108 14.1673C11.5965 14.1317 11.6745 14.0796 11.7402 14.014L14.7682 10.986C14.834 10.9205 14.8864 10.8427 14.9222 10.757C14.958 10.6713 14.9765 10.5794 14.9768 10.4866C14.9771 10.3937 14.9591 10.3017 14.9238 10.2158C14.8885 10.1299 14.8366 10.0518 14.7712 9.98596V9.98596Z" fill="#673DE6"/>
</g>
<defs>
<clipPath id="clip0_150_795">
<rect width="24" height="24" fill="white"/>
</clipPath>
</defs>
</svg>
