<svg width="50" height="50" viewBox="0 0 50 50" fill="none" xmlns="http://www.w3.org/2000/svg">
<g clip-path="url(#clip0_161_182)">
<path d="M32.9412 27.2822L37.4932 28.1822C37.5635 29.3062 38.0401 30.3662 38.8343 31.1646C39.6284 31.9631 40.6859 32.4455 41.8094 32.5219C42.933 32.5982 44.046 32.2634 44.9409 31.5798C45.8358 30.8961 46.4515 29.9103 46.6733 28.8062C46.895 27.7022 46.7077 26.5551 46.1461 25.5789C45.5846 24.6028 44.6872 23.8641 43.6213 23.5007C42.5554 23.1374 41.3937 23.174 40.3529 23.6039C39.312 24.0338 38.463 24.8276 37.9642 25.8372L33.2542 24.9022C33.2013 23.1202 32.5108 21.4163 31.3082 20.1002L37.6572 11.1312C38.9729 11.7019 40.4534 11.765 41.8128 11.3082C43.1723 10.8513 44.3143 9.90704 45.0183 8.65759C45.7224 7.40815 45.9386 5.94216 45.6251 4.54267C45.3117 3.14318 44.4909 1.90945 43.3211 1.07966C42.1514 0.24988 40.7157 -0.117103 39.2913 0.0495698C37.8668 0.216242 36.5547 0.90475 35.6081 1.98216C34.6615 3.05957 34.1477 4.44947 34.1658 5.88352C34.1839 7.31756 34.7327 8.69404 35.7062 9.7472L29.4322 18.6102C27.9738 17.7916 26.2825 17.4872 24.6302 17.7458C22.978 18.0044 21.4606 18.8111 20.3222 20.0362L12.1002 13.6482C12.5772 12.6252 12.6658 11.4637 12.3496 10.3802C12.0334 9.29667 11.3338 8.36517 10.3814 7.75941C9.42902 7.15365 8.28881 6.91497 7.17341 7.08791C6.05802 7.26084 5.04361 7.83356 4.31935 8.69928C3.59509 9.56499 3.21045 10.6646 3.23714 11.793C3.26384 12.9214 3.70005 14.0016 4.46443 14.832C5.22882 15.6625 6.26918 16.1867 7.3915 16.3067C8.51383 16.4266 9.64148 16.1343 10.5642 15.4842L18.9872 22.0252C18.3277 23.4653 18.1438 25.078 18.4622 26.6296C18.7806 28.1813 19.5848 29.5912 20.7582 30.6552L15.7132 37.7902C14.374 37.0435 12.8049 36.8217 11.3113 37.1681C9.81761 37.5144 8.50622 38.404 7.63228 39.6638C6.75834 40.9237 6.38435 42.4636 6.58309 43.9839C6.78184 45.5042 7.5391 46.8963 8.70752 47.8891C9.87594 48.8819 11.3719 49.4046 12.9044 49.3553C14.4369 49.306 15.8963 48.6884 16.9985 47.6226C18.1007 46.5567 18.767 45.1189 18.8677 43.589C18.9684 42.059 18.4962 40.5463 17.5432 39.3452L22.7642 31.9612C23.6647 32.3607 24.6356 32.5775 25.6205 32.5991C26.6055 32.6207 27.5849 32.4467 28.5022 32.0872L34.7432 41.3072C33.8954 42.2727 33.432 43.5162 33.4413 44.8011C33.4506 46.086 33.9318 47.3226 34.7935 48.2758C35.6551 49.229 36.837 49.8322 38.1145 49.9707C39.3919 50.1093 40.6757 49.7734 41.7216 49.0271C42.7676 48.2808 43.5027 47.176 43.7872 45.923C44.0717 44.67 43.8856 43.3561 43.2645 42.2313C42.6434 41.1064 41.6305 40.2492 40.4185 39.8225C39.2065 39.3958 37.8799 39.4295 36.6912 39.9172L30.5652 30.8672C31.6904 29.93 32.5165 28.6837 32.9412 27.2822ZM42.1222 25.6482C42.5666 25.6482 43.001 25.78 43.3705 26.0269C43.74 26.2738 44.028 26.6247 44.1981 27.0353C44.3682 27.4459 44.4127 27.8977 44.326 28.3336C44.2393 28.7694 44.0253 29.1698 43.711 29.4841C43.3968 29.7983 42.9964 30.0123 42.5605 30.099C42.1247 30.1857 41.6729 30.1412 41.2623 29.9712C40.8517 29.8011 40.5008 29.5131 40.2538 29.1436C40.0069 28.7741 39.8752 28.3396 39.8752 27.8952C39.8752 27.2993 40.1119 26.7277 40.5333 26.3063C40.9547 25.8849 41.5262 25.6482 42.1222 25.6482V25.6482ZM39.9512 2.4212C40.6226 2.4212 41.279 2.62032 41.8373 2.99336C42.3956 3.36641 42.8308 3.89664 43.0877 4.51699C43.3447 5.13735 43.4119 5.81997 43.2809 6.47853C43.1499 7.1371 42.8266 7.74203 42.3518 8.21683C41.877 8.69163 41.2721 9.01497 40.6135 9.14597C39.9549 9.27697 39.2723 9.20973 38.652 8.95277C38.0316 8.69581 37.5014 8.26067 37.1283 7.70236C36.7553 7.14406 36.5562 6.48767 36.5562 5.8162C36.5562 5.37036 36.644 4.92889 36.8146 4.51699C36.9852 4.10509 37.2353 3.73083 37.5505 3.41558C37.8658 3.10032 38.2401 2.85025 38.652 2.67963C39.0639 2.50902 39.5053 2.4212 39.9512 2.4212ZM7.90016 13.9392C7.45575 13.9392 7.02131 13.8074 6.6518 13.5605C6.28228 13.3136 5.99427 12.9627 5.8242 12.5521C5.65413 12.1415 5.60964 11.6897 5.69634 11.2538C5.78304 10.818 5.99704 10.4176 6.31129 10.1033C6.62554 9.78908 7.02592 9.57508 7.46179 9.48838C7.89767 9.40168 8.34947 9.44618 8.76005 9.61625C9.17064 9.78632 9.52157 10.0743 9.76847 10.4438C10.0154 10.8134 10.1472 11.2478 10.1472 11.6922C10.1466 12.288 9.90973 12.8592 9.48845 13.2805C9.06717 13.7018 8.49594 13.9387 7.90016 13.9392V13.9392ZM12.7272 46.9392C11.9823 46.9392 11.2542 46.7183 10.6349 46.3045C10.0156 45.8907 9.53287 45.3025 9.24783 44.6144C8.96279 43.9262 8.88821 43.169 9.03352 42.4385C9.17884 41.708 9.53751 41.0369 10.0642 40.5102C10.5909 39.9836 11.2619 39.6249 11.9925 39.4796C12.723 39.3343 13.4802 39.4088 14.1683 39.6939C14.8565 39.9789 15.4447 40.4616 15.8585 41.0809C16.2723 41.7002 16.4932 42.4284 16.4932 43.1732C16.4926 43.6678 16.3947 44.1575 16.2049 44.6143C16.0151 45.0711 15.7371 45.486 15.3869 45.8354C15.0368 46.1847 14.6212 46.4616 14.164 46.6504C13.7067 46.8391 13.2168 46.9359 12.7222 46.9352L12.7272 46.9392ZM38.6842 41.9212C39.2486 41.9212 39.8004 42.0886 40.2698 42.4022C40.7391 42.7158 41.1049 43.1615 41.3209 43.683C41.5369 44.2045 41.5934 44.7784 41.4833 45.332C41.3732 45.8856 41.1014 46.3941 40.7022 46.7933C40.3031 47.1924 39.7946 47.4642 39.2409 47.5744C38.6873 47.6845 38.1135 47.628 37.592 47.412C37.0705 47.1959 36.6247 46.8301 36.3111 46.3608C35.9975 45.8915 35.8302 45.3397 35.8302 44.7752C35.8302 44.0188 36.13 43.2932 36.6641 42.7575C37.1981 42.2217 37.9227 41.9196 38.6792 41.9172L38.6842 41.9212ZM25.7852 30.2092C24.4373 30.2084 23.1448 29.6728 22.1915 28.72C21.2381 27.7672 20.7018 26.4751 20.7002 25.1272V25.1272C20.7002 24.1221 20.9982 23.1395 21.5566 22.3038C22.1151 21.4681 22.9088 20.8167 23.8374 20.432C24.766 20.0474 25.7878 19.9468 26.7736 20.1429C27.7594 20.3389 28.6649 20.823 29.3757 21.5337C30.0864 22.2444 30.5704 23.1499 30.7665 24.1358C30.9626 25.1216 30.862 26.1434 30.4773 27.072C30.0927 28.0006 29.4413 28.7943 28.6056 29.3527C27.7698 29.9111 26.7873 30.2092 25.7822 30.2092H25.7852Z" fill="#673DE6"/>
</g>
<defs>
<clipPath id="clip0_161_182">
<rect width="50" height="50" fill="white"/>
</clipPath>
</defs>
</svg>
