<svg width="50" height="50" viewBox="0 0 50 50" fill="none" xmlns="http://www.w3.org/2000/svg">
<g clip-path="url(#clip0_161_176)">
<path d="M46.239 13.5658V13.5268C46.217 13.0468 46.203 12.5388 46.194 11.9728C46.1688 10.6382 45.6409 9.36221 44.7158 8.39986C43.7907 7.43751 42.5366 6.85968 41.204 6.78184C35.9553 6.67441 30.9464 4.56353 27.204 0.881843L27.175 0.851843C26.5834 0.303916 25.8068 -0.000488281 25.0005 -0.000488281C24.1941 -0.000488281 23.4175 0.303916 22.826 0.851843L22.794 0.882843C19.0514 4.56436 14.0426 6.67521 8.79397 6.78284C7.46261 6.86238 6.21018 7.44095 5.28655 8.40313C4.36293 9.36531 3.83603 10.6403 3.81097 11.9738C3.80297 12.5358 3.78797 13.0438 3.76597 13.5268V13.6168C3.64897 19.4798 3.51097 26.7748 5.95097 33.3998C7.23401 36.9493 9.29857 40.1649 11.992 42.8088C15.3716 45.9773 19.4065 48.364 23.811 49.7998C23.9691 49.8549 24.1308 49.899 24.295 49.9318C24.7594 50.025 25.2376 50.025 25.702 49.9318C25.8668 49.8987 26.0292 49.8542 26.188 49.7988C30.5891 48.3583 34.62 45.9687 37.996 42.7988C40.6887 40.1536 42.7531 36.9375 44.037 33.3878C46.489 26.7488 46.35 19.4388 46.239 13.5658ZM41.286 32.3748C38.711 39.3548 33.458 44.1478 25.222 47.0278C25.1916 47.0382 25.1605 47.0465 25.129 47.0528C25.0438 47.0699 24.9561 47.0699 24.871 47.0528C24.8398 47.0465 24.8091 47.0382 24.779 47.0278C16.535 44.1528 11.279 39.3628 8.70397 32.3828C6.45397 26.2828 6.58197 19.5828 6.69397 13.6738V13.6408C6.71697 13.1328 6.73197 12.6008 6.74097 12.0168C6.7526 11.4236 6.98772 10.8567 7.3993 10.4293C7.81089 10.002 8.36862 9.74574 8.96097 9.71184C11.9635 9.58613 14.9208 8.93564 17.699 7.78984C20.3529 6.65875 22.7688 5.03551 24.819 3.00584C24.8688 2.96094 24.9334 2.93609 25.0005 2.93609C25.0675 2.93609 25.1322 2.96094 25.182 3.00584C27.2323 5.03536 29.6481 6.65858 32.302 7.78984C35.0801 8.93562 38.0375 9.58611 41.04 9.71184C41.6323 9.746 42.1899 10.0025 42.6013 10.43C43.0128 10.8576 43.2476 11.4246 43.259 12.0178C43.268 12.6048 43.283 13.1368 43.306 13.6418C43.418 19.5558 43.542 26.2578 41.286 32.3748Z" fill="#673DE6"/>
<path d="M25.0001 12.54C22.5355 12.5398 20.1261 13.2705 18.0768 14.6397C16.0274 16.0088 14.4301 17.955 13.4868 20.232C12.5436 22.509 12.2967 25.0145 12.7775 27.4318C13.2583 29.8491 14.4451 32.0695 16.1878 33.8123C17.9306 35.5551 20.151 36.7419 22.5683 37.2227C24.9856 37.7034 27.4912 37.4566 29.7682 36.5133C32.0452 35.57 33.9913 33.9727 35.3605 31.9234C36.7296 29.874 37.4603 27.4647 37.4601 25C37.4561 21.6967 36.1421 18.5297 33.8063 16.1939C31.4704 13.858 28.3035 12.544 25.0001 12.54V12.54ZM25.0001 34.528C23.1158 34.5282 21.2738 33.9697 19.707 32.923C18.1402 31.8763 16.9189 30.3885 16.1977 28.6478C15.4764 26.907 15.2875 24.9915 15.655 23.1434C16.0224 21.2953 16.9295 19.5977 18.2618 18.2651C19.594 16.9326 21.2915 16.0251 23.1395 15.6573C24.9875 15.2895 26.9031 15.478 28.644 16.1989C30.3849 16.9197 31.8729 18.1407 32.9199 19.7073C33.967 21.2739 34.5259 23.1158 34.5261 25C34.5234 27.5259 33.519 29.9475 31.7332 31.7337C29.9473 33.5199 27.5259 34.5249 25.0001 34.528V34.528Z" fill="#673DE6"/>
<path d="M28.581 21.132L22.793 26.92L21.222 25.349C20.9458 25.0793 20.5745 24.9293 20.1885 24.9315C19.8025 24.9338 19.4329 25.0881 19.1599 25.3609C18.8869 25.6338 18.7324 26.0033 18.73 26.3893C18.7276 26.7753 18.8774 27.1467 19.147 27.423L21.755 30.031C22.03 30.3059 22.403 30.4603 22.792 30.4603C23.1809 30.4603 23.5539 30.3059 23.829 30.031L30.654 23.206C30.7929 23.0703 30.9034 22.9085 30.9793 22.7298C31.0552 22.5511 31.0948 22.3591 31.096 22.165C31.0971 21.9708 31.0597 21.7784 30.9859 21.5988C30.9121 21.4193 30.8034 21.2561 30.6661 21.1189C30.5287 20.9816 30.3656 20.873 30.186 20.7993C30.0064 20.7256 29.8139 20.6883 29.6198 20.6895C29.4256 20.6907 29.2337 20.7304 29.055 20.8064C28.8763 20.8824 28.7145 20.993 28.579 21.132H28.581Z" fill="#673DE6"/>
</g>
<defs>
<clipPath id="clip0_161_176">
<rect width="50" height="50" fill="white"/>
</clipPath>
</defs>
</svg>
