<svg width="50" height="50" viewBox="0 0 50 50" fill="none" xmlns="http://www.w3.org/2000/svg">
<path d="M49.9919 22.1139C49.9709 21.9136 49.909 21.7198 49.8101 21.5443C49.7112 21.3689 49.5774 21.2156 49.4169 21.0939L45.4559 18.0939L46.8999 13.3389C46.9584 13.1462 46.9767 12.9435 46.9537 12.7434C46.9308 12.5433 46.867 12.3501 46.7663 12.1756C46.6656 12.0012 46.5302 11.8492 46.3685 11.7292C46.2067 11.6092 46.022 11.5237 45.8259 11.4779L40.9869 10.3479L40.3689 5.41791C40.3439 5.21808 40.2782 5.02551 40.1758 4.8521C40.0734 4.67869 39.9365 4.52814 39.7736 4.40975C39.6107 4.29137 39.4252 4.20767 39.2287 4.16383C39.0321 4.12 38.8287 4.11696 38.6309 4.15491L33.7509 5.09091L31.1789 0.838906C31.0747 0.66683 30.9364 0.517923 30.7724 0.401364C30.6084 0.284805 30.4223 0.203064 30.2256 0.161183C30.0288 0.119301 29.8256 0.118166 29.6284 0.157847C29.4311 0.197529 29.2442 0.277185 29.0789 0.391906L24.9999 3.23191L20.9229 0.391906C20.7577 0.277185 20.5707 0.197529 20.3734 0.157847C20.1762 0.118166 19.973 0.119301 19.7762 0.161183C19.5795 0.203064 19.3934 0.284805 19.2294 0.401364C19.0655 0.517923 18.9271 0.66683 18.8229 0.838906L16.2519 5.09091L11.3719 4.15491C11.1741 4.11696 10.9707 4.12 10.7741 4.16383C10.5776 4.20767 10.3921 4.29137 10.2292 4.40975C10.0663 4.52814 9.92939 4.67869 9.827 4.8521C9.72461 5.02551 9.65889 5.21808 9.6339 5.41791L9.0159 10.3479L4.1769 11.4779C3.98049 11.5233 3.79551 11.6086 3.63342 11.7285C3.47133 11.8484 3.33559 12.0002 3.23462 12.1747C3.13364 12.3492 3.06958 12.5426 3.04641 12.7428C3.02323 12.9431 3.04144 13.146 3.0999 13.3389L4.5409 18.0939L0.580903 21.0939C0.420274 21.2154 0.286297 21.3687 0.187265 21.5441C0.088233 21.7195 0.0262534 21.9133 0.00516216 22.1136C-0.0159291 22.314 0.00431696 22.5165 0.0646471 22.7086C0.124977 22.9008 0.224108 23.0786 0.355903 23.2309L3.6059 26.9889L1.2059 31.3409C1.10857 31.5173 1.04847 31.7118 1.02935 31.9124C1.01023 32.1129 1.03248 32.3153 1.09472 32.5069C1.15697 32.6985 1.25788 32.8753 1.39122 33.0263C1.52456 33.1773 1.68748 33.2994 1.8699 33.3849L6.3699 35.4959L5.9489 40.4469C5.93147 40.6478 5.95549 40.8502 6.01947 41.0415C6.08345 41.2327 6.18602 41.4088 6.32084 41.5588C6.45565 41.7088 6.61984 41.8296 6.80322 41.9135C6.98659 41.9975 7.18526 42.0429 7.3869 42.0469L12.3549 42.1469L13.9839 46.8409C14.0499 47.0312 14.1542 47.206 14.2905 47.3543C14.4267 47.5027 14.5919 47.6215 14.7759 47.7034C14.96 47.7853 15.1588 47.8286 15.3602 47.8306C15.5616 47.8326 15.7613 47.7932 15.9469 47.7149L20.5259 45.7849L23.9259 49.4099C24.0636 49.557 24.23 49.6742 24.4148 49.7543C24.5996 49.8345 24.799 49.8758 25.0004 49.8758C25.2019 49.8758 25.4012 49.8345 25.586 49.7543C25.7708 49.6742 25.9372 49.557 26.0749 49.4099L29.4749 45.7849L34.0529 47.7149C34.2385 47.7932 34.4382 47.8326 34.6396 47.8306C34.841 47.8286 35.0398 47.7853 35.2239 47.7034C35.4079 47.6215 35.5731 47.5027 35.7093 47.3543C35.8456 47.206 35.9499 47.0312 36.0159 46.8409L37.6449 42.1469L42.6119 42.0469C42.8135 42.0429 43.0122 41.9975 43.1956 41.9135C43.379 41.8296 43.5432 41.7088 43.678 41.5588C43.8128 41.4088 43.9154 41.2327 43.9793 41.0415C44.0433 40.8502 44.0673 40.6478 44.0499 40.4469L43.6269 35.4989L48.1269 33.3879C48.3093 33.3024 48.4722 33.1803 48.6056 33.0293C48.7389 32.8783 48.8398 32.7015 48.9021 32.5099C48.9643 32.3183 48.9866 32.1159 48.9675 31.9154C48.9483 31.7148 48.8882 31.5203 48.7909 31.3439L46.3909 26.9929L49.6409 23.2349C49.7731 23.0821 49.8725 22.9037 49.9329 22.7109C49.9933 22.518 50.0134 22.3148 49.9919 22.1139V22.1139ZM43.3169 27.5139L45.4519 31.3879L41.4519 33.2669C41.1794 33.3948 40.9526 33.6031 40.8021 33.8637C40.6515 34.1244 40.5845 34.425 40.6099 34.7249L40.9849 39.1319L36.5629 39.2199C36.262 39.2259 35.9702 39.3239 35.7267 39.5007C35.4832 39.6775 35.2997 39.9247 35.2009 40.2089L33.7509 44.3879L29.6749 42.6699C29.3977 42.553 29.0913 42.5239 28.797 42.5865C28.5027 42.6491 28.2346 42.8003 28.0289 43.0199L24.9999 46.2439L21.9759 43.0169C21.7702 42.7973 21.5021 42.6461 21.2078 42.5835C20.9136 42.5209 20.6072 42.55 20.3299 42.6669L16.2539 44.3849L14.7999 40.2069C14.7012 39.9226 14.5177 39.6754 14.2742 39.4985C14.0307 39.3217 13.7388 39.2238 13.4379 39.2179L9.0189 39.1289L9.3939 34.7219C9.41935 34.422 9.35229 34.1214 9.20175 33.8607C9.0512 33.6001 8.82441 33.3918 8.5519 33.2639L4.5519 31.3849L6.6869 27.5109C6.83208 27.2473 6.89303 26.9456 6.86157 26.6463C6.8301 26.347 6.70772 26.0645 6.5109 25.8369L3.6139 22.4919L7.1399 19.8219C7.37967 19.6403 7.55804 19.3896 7.65101 19.1035C7.74398 18.8175 7.74708 18.5098 7.6599 18.2219L6.3769 13.9879L10.6839 12.9819C10.9769 12.9134 11.2419 12.7567 11.4432 12.5331C11.6445 12.3094 11.7725 12.0295 11.8099 11.7309L12.3599 7.34291L16.7039 8.17591C16.9995 8.2327 17.3055 8.19749 17.5805 8.075C17.8555 7.95252 18.0864 7.74866 18.2419 7.49091L20.5289 3.70591L24.1579 6.23391C24.4048 6.40593 24.6985 6.49816 24.9994 6.49816C25.3003 6.49816 25.594 6.40593 25.8409 6.23391L29.4699 3.70591L31.7579 7.49191C31.9135 7.74966 32.1443 7.95352 32.4193 8.076C32.6943 8.19849 33.0003 8.2337 33.2959 8.17691L37.6399 7.34391L38.1899 11.7319C38.2273 12.0305 38.3553 12.3104 38.5566 12.5341C38.7579 12.7577 39.0229 12.9144 39.3159 12.9829L43.6229 13.9889L42.3399 18.2209C42.2527 18.5088 42.2558 18.8165 42.3488 19.1025C42.4418 19.3886 42.6201 19.6393 42.8599 19.8209L46.3859 22.4919L43.4929 25.8369C43.2959 26.0646 43.1734 26.3473 43.1419 26.6468C43.1104 26.9463 43.1715 27.2482 43.3169 27.5119V27.5139Z" fill="#673DE6"/>
<path d="M24.9997 10.9097C22.2129 10.9097 19.4888 11.736 17.1717 13.2843C14.8546 14.8325 13.0487 17.033 11.9822 19.6077C10.9158 22.1823 10.6367 25.0153 11.1804 27.7485C11.7241 30.4817 13.066 32.9923 15.0365 34.9628C17.0071 36.9333 19.5177 38.2753 22.2509 38.8189C24.984 39.3626 27.8171 39.0836 30.3917 38.0171C32.9663 36.9507 35.1669 35.1447 36.7151 32.8277C38.2633 30.5106 39.0897 27.7864 39.0897 24.9997C39.0854 21.2641 37.5996 17.6827 34.9581 15.0412C32.3167 12.3997 28.7353 10.9139 24.9997 10.9097ZM24.9997 36.1437C22.7954 36.1437 20.6405 35.49 18.8077 34.2653C16.9749 33.0407 15.5465 31.3 14.7029 29.2634C13.8594 27.2269 13.6388 24.986 14.0689 22.824C14.499 20.6621 15.5606 18.6762 17.1193 17.1176C18.6781 15.559 20.664 14.4976 22.826 14.0677C24.988 13.6378 27.2289 13.8586 29.2654 14.7023C31.3018 15.546 33.0424 16.9746 34.2669 18.8076C35.4914 20.6405 36.1449 22.7954 36.1447 24.9997C36.1415 27.9545 34.9663 30.7875 32.8769 32.8769C30.7875 34.9663 27.9545 36.1415 24.9997 36.1447V36.1437Z" fill="#673DE6"/>
<path d="M30.7731 20.8C30.4968 20.5238 30.1222 20.3687 29.7316 20.3687C29.3409 20.3687 28.9663 20.5238 28.6901 20.8L23.4231 26.067L21.3101 23.959C21.034 23.6829 20.6595 23.5278 20.2691 23.5278C19.8786 23.5278 19.5042 23.6829 19.2281 23.959C18.952 24.2351 18.7969 24.6096 18.7969 25C18.7969 25.3905 18.952 25.7649 19.2281 26.041L22.3821 29.2C22.5188 29.3367 22.6811 29.4452 22.8597 29.5192C23.0383 29.5932 23.2297 29.6313 23.4231 29.6313C23.6164 29.6313 23.8079 29.5932 23.9865 29.5192C24.1651 29.4452 24.3274 29.3367 24.4641 29.2L30.7731 22.892C30.9112 22.7551 31.0208 22.5921 31.0956 22.4126C31.1704 22.2331 31.209 22.0405 31.209 21.846C31.209 21.6515 31.1704 21.459 31.0956 21.2794C31.0208 21.0999 30.9112 20.937 30.7731 20.8V20.8Z" fill="#673DE6"/>
</svg>
