<svg width="50" height="50" viewBox="0 0 50 50" fill="none" xmlns="http://www.w3.org/2000/svg">
<g clip-path="url(#clip0_161_187)">
<path d="M32.0612 12.5518H17.9402C16.5121 12.5536 15.1429 13.1218 14.1331 14.1316C13.1232 15.1415 12.5551 16.5106 12.5532 17.9388V32.0608C12.5551 33.4889 13.1232 34.858 14.1331 35.8679C15.1429 36.8778 16.5121 37.4459 17.9402 37.4478H32.0612C33.4894 37.4459 34.8585 36.8778 35.8684 35.8679C36.8782 34.858 37.4464 33.4889 37.4482 32.0608V17.9398C37.4464 16.5116 36.8782 15.1425 35.8684 14.1326C34.8585 13.1228 33.4894 12.5546 32.0612 12.5528V12.5518ZM34.5232 32.0608C34.5234 32.3841 34.4598 32.7043 34.3361 33.0031C34.2124 33.3018 34.0311 33.5733 33.8024 33.8019C33.5738 34.0306 33.3023 34.2119 33.0035 34.3356C32.7048 34.4593 32.3846 34.5229 32.0612 34.5228H17.9402C17.2886 34.522 16.6638 34.2627 16.203 33.802C15.7422 33.3412 15.483 32.7164 15.4822 32.0648V17.9398C15.483 17.2881 15.7422 16.6634 16.203 16.2026C16.6638 15.7418 17.2886 15.4826 17.9402 15.4818H32.0612C32.7136 15.4815 33.3393 15.7402 33.801 16.2012C34.2627 16.6621 34.5224 17.2874 34.5232 17.9398V32.0608Z" fill="#673DE6"/>
<path d="M48.535 19.8C48.7274 19.8 48.9179 19.7621 49.0956 19.6885C49.2734 19.6149 49.4349 19.5069 49.5709 19.3709C49.7069 19.2349 49.8149 19.0734 49.8885 18.8956C49.9621 18.7179 50 18.5274 50 18.335C50 18.1426 49.9621 17.9521 49.8885 17.7744C49.8149 17.5966 49.7069 17.4351 49.5709 17.2991C49.4349 17.1631 49.2734 17.0551 49.0956 16.9815C48.9179 16.9079 48.7274 16.87 48.535 16.87H43.724V13.128H48.535C48.9235 13.128 49.2962 12.9737 49.5709 12.6989C49.8457 12.4242 50 12.0515 50 11.663C50 11.2745 49.8457 10.9018 49.5709 10.6271C49.2962 10.3523 48.9235 10.198 48.535 10.198H43.52C43.2676 9.31289 42.7935 8.50685 42.1425 7.85622C41.4915 7.20558 40.6852 6.73189 39.8 6.48V1.465C39.8 1.07646 39.6457 0.703829 39.3709 0.429089C39.0962 0.154348 38.7235 6.17451e-08 38.335 6.17451e-08C37.9465 6.17451e-08 37.5738 0.154348 37.2991 0.429089C37.0243 0.703829 36.87 1.07646 36.87 1.465V6.276H33.133V1.465C33.133 1.07646 32.9787 0.703829 32.7039 0.429089C32.4292 0.154348 32.0565 6.17451e-08 31.668 6.17451e-08C31.2795 6.17451e-08 30.9068 0.154348 30.6321 0.429089C30.3573 0.703829 30.203 1.07646 30.203 1.465V6.276H26.465V1.465C26.465 1.07646 26.3107 0.703829 26.0359 0.429089C25.7612 0.154348 25.3885 6.17451e-08 25 6.17451e-08C24.6115 6.17451e-08 24.2388 0.154348 23.9641 0.429089C23.6893 0.703829 23.535 1.07646 23.535 1.465V6.276H19.8V1.465C19.8 1.27261 19.7621 1.08211 19.6885 0.904369C19.6149 0.726627 19.5069 0.565126 19.3709 0.429089C19.2349 0.293051 19.0734 0.18514 18.8956 0.111516C18.7179 0.0378933 18.5274 0 18.335 0C18.1426 0 17.9521 0.0378933 17.7744 0.111516C17.5966 0.18514 17.4351 0.293051 17.2991 0.429089C17.1631 0.565126 17.0551 0.726627 16.9815 0.904369C16.9079 1.08211 16.87 1.27261 16.87 1.465V6.276H13.128V1.465C13.128 1.07646 12.9737 0.703829 12.6989 0.429089C12.4242 0.154348 12.0515 6.17451e-08 11.663 6.17451e-08C11.2745 6.17451e-08 10.9018 0.154348 10.6271 0.429089C10.3523 0.703829 10.198 1.07646 10.198 1.465V6.48C9.31289 6.73236 8.50685 7.20649 7.85622 7.85747C7.20558 8.50846 6.73189 9.31475 6.48 10.2H1.465C1.07646 10.2 0.703829 10.3543 0.429089 10.6291C0.154348 10.9038 0 11.2765 0 11.665C0 12.0535 0.154348 12.4262 0.429089 12.7009C0.703829 12.9757 1.07646 13.13 1.465 13.13H6.276V16.868H1.465C1.07646 16.868 0.703829 17.0223 0.429089 17.2971C0.154348 17.5718 0 17.9445 0 18.333C0 18.7215 0.154348 19.0942 0.429089 19.3689C0.703829 19.6437 1.07646 19.798 1.465 19.798H6.276V23.537H1.465C1.07646 23.537 0.703829 23.6913 0.429089 23.9661C0.154348 24.2408 0 24.6135 0 25.002C0 25.3905 0.154348 25.7632 0.429089 26.0379C0.703829 26.3127 1.07646 26.467 1.465 26.467H6.276V30.2H1.465C1.07646 30.2 0.703829 30.3543 0.429089 30.6291C0.154348 30.9038 0 31.2765 0 31.665C0 32.0535 0.154348 32.4262 0.429089 32.7009C0.703829 32.9757 1.07646 33.13 1.465 33.13H6.276V36.869H1.465C1.07646 36.869 0.703829 37.0233 0.429089 37.2981C0.154348 37.5728 0 37.9455 0 38.334C0 38.7225 0.154348 39.0952 0.429089 39.3699C0.703829 39.6447 1.07646 39.799 1.465 39.799H6.48C6.73209 40.6846 7.20608 41.4911 7.85707 42.1423C8.50805 42.7935 9.31449 43.2677 10.2 43.52V48.535C10.2 48.9235 10.3543 49.2962 10.6291 49.5709C10.9038 49.8457 11.2765 50 11.665 50C12.0535 50 12.4262 49.8457 12.7009 49.5709C12.9757 49.2962 13.13 48.9235 13.13 48.535V43.724H16.869V48.535C16.869 48.9235 17.0233 49.2962 17.2981 49.5709C17.5728 49.8457 17.9455 50 18.334 50C18.7225 50 19.0952 49.8457 19.3699 49.5709C19.6447 49.2962 19.799 48.9235 19.799 48.535V43.724H23.537V48.535C23.537 48.9235 23.6913 49.2962 23.9661 49.5709C24.2408 49.8457 24.6135 50 25.002 50C25.3905 50 25.7632 49.8457 26.0379 49.5709C26.3127 49.2962 26.467 48.9235 26.467 48.535V43.724H30.2V48.535C30.2 48.9235 30.3543 49.2962 30.6291 49.5709C30.9038 49.8457 31.2765 50 31.665 50C32.0535 50 32.4262 49.8457 32.7009 49.5709C32.9757 49.2962 33.13 48.9235 33.13 48.535V43.724H36.868V48.535C36.868 48.9235 37.0223 49.2962 37.2971 49.5709C37.5718 49.8457 37.9445 50 38.333 50C38.7215 50 39.0942 49.8457 39.3689 49.5709C39.6437 49.2962 39.798 48.9235 39.798 48.535V43.52C40.6838 43.2681 41.4906 42.7942 42.142 42.1432C42.7933 41.4922 43.2677 40.6857 43.52 39.8H48.535C48.9235 39.8 49.2962 39.6457 49.5709 39.3709C49.8457 39.0962 50 38.7235 50 38.335C50 37.9465 49.8457 37.5738 49.5709 37.2991C49.2962 37.0243 48.9235 36.87 48.535 36.87H43.724V33.133H48.535C48.9235 33.133 49.2962 32.9787 49.5709 32.7039C49.8457 32.4292 50 32.0565 50 31.668C50 31.2795 49.8457 30.9068 49.5709 30.6321C49.2962 30.3573 48.9235 30.203 48.535 30.203H43.724V26.465H48.535C48.9235 26.465 49.2962 26.3107 49.5709 26.0359C49.8457 25.7612 50 25.3885 50 25C50 24.6115 49.8457 24.2388 49.5709 23.9641C49.2962 23.6893 48.9235 23.535 48.535 23.535H43.724V19.8H48.535ZM38.335 40.8H11.663C11.0115 40.7989 10.387 40.5396 9.92645 40.0788C9.46588 39.6181 9.20679 38.9935 9.206 38.342V11.663C9.20679 11.0115 9.46588 10.3869 9.92645 9.92616C10.387 9.4654 11.0115 9.20606 11.663 9.205H38.337C38.9885 9.20606 39.613 9.4654 40.0735 9.92616C40.5341 10.3869 40.7932 11.0115 40.794 11.663V38.337C40.7932 38.9887 40.534 39.6134 40.0732 40.0742C39.6124 40.535 38.9877 40.7942 38.336 40.795L38.335 40.8Z" fill="#673DE6"/>
</g>
<defs>
<clipPath id="clip0_161_187">
<rect width="50" height="50" fill="white"/>
</clipPath>
</defs>
</svg>
