<svg width="492" height="325" viewBox="0 0 492 325" fill="none" xmlns="http://www.w3.org/2000/svg">
<g clip-path="url(#clip0_161_118)">
<path d="M13.2601 324.051L12.5342 324.037C12.815 315.961 13.6766 307.917 15.1122 299.965C18.2532 282.94 23.4752 271.759 30.6342 266.733L31.0511 267.327C14.3271 279.069 13.2681 323.602 13.2601 324.051Z" fill="#F1F1F1"/>
<path d="M22.3422 323.877L21.6162 323.863C21.6322 323.063 22.0862 304.103 29.5482 298.863L29.9652 299.457C22.7992 304.486 22.3422 323.684 22.3422 323.877Z" fill="#F1F1F1"/>
<path d="M35.1828 267.394C37.1887 267.394 38.8148 265.768 38.8148 263.762C38.8148 261.756 37.1887 260.13 35.1828 260.13C33.1769 260.13 31.5508 261.756 31.5508 263.762C31.5508 265.768 33.1769 267.394 35.1828 267.394Z" fill="#F1F1F1"/>
<path d="M33.3849 298.625C35.3908 298.625 37.0169 296.999 37.0169 294.993C37.0169 292.987 35.3908 291.361 33.3849 291.361C31.379 291.361 29.7529 292.987 29.7529 294.993C29.7529 296.999 31.379 298.625 33.3849 298.625Z" fill="#F1F1F1"/>
<path d="M20.6501 269.57C21.0129 272.372 20.6336 275.219 19.5501 277.828C17.6599 275.715 16.4209 273.101 15.9825 270.3C15.5441 267.499 15.9249 264.631 17.0791 262.042C18.9081 264.195 20.1395 266.791 20.6501 269.57Z" fill="#F1F1F1"/>
<path d="M32.5159 280.157C29.8209 281.003 26.9508 281.127 24.1929 280.516C25.944 278.287 28.3025 276.611 30.9841 275.691C33.6657 274.771 36.556 274.647 39.3069 275.332C37.5048 277.507 35.163 279.171 32.5159 280.157Z" fill="#F1F1F1"/>
<path d="M32.65 307.815C30.7609 308.408 28.7491 308.495 26.8159 308.067C28.043 306.504 29.6961 305.329 31.5759 304.684C33.4556 304.039 35.4817 303.952 37.4099 304.433C36.1467 305.958 34.5054 307.124 32.65 307.815Z" fill="#F1F1F1"/>
<path d="M323.732 324.052L324.786 324.031C324.378 312.31 323.128 300.633 321.044 289.091C316.485 264.38 308.905 248.151 298.514 240.855L297.909 241.718C322.183 258.763 323.72 323.401 323.732 324.052Z" fill="#F1F1F1"/>
<path d="M310.525 323.799L311.579 323.778C311.556 322.611 310.897 295.096 300.066 287.492L299.461 288.355C309.855 295.653 310.519 323.519 310.525 323.799Z" fill="#F1F1F1"/>
<path d="M291.828 241.488C294.739 241.488 297.099 239.128 297.099 236.217C297.099 233.306 294.739 230.946 291.828 230.946C288.917 230.946 286.557 233.306 286.557 236.217C286.557 239.128 288.917 241.488 291.828 241.488Z" fill="#F1F1F1"/>
<path d="M294.448 287.144C297.359 287.144 299.719 284.784 299.719 281.873C299.719 278.962 297.359 276.602 294.448 276.602C291.537 276.602 289.177 278.962 289.177 281.873C289.177 284.784 291.537 287.144 294.448 287.144Z" fill="#F1F1F1"/>
<path d="M313.021 244.696C312.493 248.762 313.041 252.896 314.612 256.683C317.356 253.616 319.154 249.822 319.79 245.756C320.427 241.691 319.874 237.528 318.199 233.77C315.546 236.896 313.76 240.664 313.02 244.697L313.021 244.696Z" fill="#F1F1F1"/>
<path d="M295.722 260.093C299.634 261.321 303.799 261.501 307.802 260.615C305.261 257.379 301.837 254.946 297.945 253.611C294.053 252.276 289.857 252.095 285.864 253.09C288.48 256.247 291.88 258.662 295.722 260.093Z" fill="#F1F1F1"/>
<path d="M295.524 300.484C298.266 301.345 301.186 301.471 303.991 300.85C302.21 298.582 299.81 296.877 297.082 295.941C294.354 295.006 291.413 294.879 288.614 295.576C290.448 297.789 292.831 299.481 295.524 300.484Z" fill="#F1F1F1"/>
<path d="M405.838 98.8122L408.374 83.2962L415.535 81.5052C415.535 81.5052 421.219 79.7542 422.547 91.2052C423.875 102.656 422.847 124.028 422.847 124.028L438.57 173.817C439.777 174.391 440.794 175.3 441.498 176.436C442.202 177.573 442.564 178.888 442.539 180.224C442.515 181.561 442.107 182.862 441.362 183.972C440.618 185.082 439.569 185.954 438.341 186.484C437.114 187.013 435.76 187.178 434.442 186.958C433.123 186.738 431.896 186.142 430.907 185.243C429.918 184.344 429.21 183.178 428.866 181.886C428.523 180.595 428.559 179.231 428.97 177.959L408.527 131.189L405.838 98.8122Z" fill="#FFB7B7"/>
<path d="M361.735 86.4888L365.495 71.2228L359.612 66.7648C359.612 66.7648 355.072 62.9228 349.355 72.9308C343.638 82.9388 336.193 103 336.193 103L302.184 142.617C300.848 142.67 299.556 143.106 298.462 143.875C297.368 144.643 296.519 145.71 296.016 146.949C295.513 148.187 295.378 149.545 295.626 150.858C295.875 152.172 296.496 153.386 297.417 154.355C298.338 155.324 299.519 156.007 300.818 156.323C302.117 156.638 303.479 156.573 304.742 156.134C306.004 155.695 307.114 154.902 307.937 153.848C308.761 152.795 309.263 151.527 309.384 150.196L346.549 115.209L361.735 86.4888Z" fill="#FFB7B7"/>
<path d="M332.283 315.921H323.755L319.698 283.026H332.285L332.283 315.921Z" fill="#FFB7B7"/>
<path d="M334.447 313.14H317.647C314.809 313.14 312.088 314.267 310.081 316.274C308.075 318.281 306.947 321.002 306.947 323.84V324.188H334.447V313.14Z" fill="#2F2E41"/>
<path d="M440.029 315.921H431.499L427.442 283.026H440.029V315.921Z" fill="#FFB7B7"/>
<path d="M442.203 313.14H425.403C422.565 313.14 419.844 314.267 417.837 316.274C415.83 318.281 414.703 321.002 414.703 323.84V324.188H442.203V313.14Z" fill="#2F2E41"/>
<path d="M387.384 56.9079C400.123 56.9079 410.45 46.5809 410.45 33.8419C410.45 21.1029 400.123 10.7759 387.384 10.7759C374.645 10.7759 364.318 21.1029 364.318 33.8419C364.318 46.5809 374.645 56.9079 387.384 56.9079Z" fill="#2F2E41"/>
<path d="M415.851 11.2811C412.124 7.55354 406.835 6.79818 404.04 9.59394C401.244 12.3897 401.999 17.6779 405.727 21.4055C409.454 25.133 414.742 25.8884 417.538 23.0926C420.334 20.2968 419.579 15.0087 415.851 11.2811Z" fill="#2F2E41"/>
<path d="M380.808 6.58234C379.255 2.94639 374.066 1.67762 369.218 3.74847C364.37 5.81932 361.699 10.4456 363.253 14.0816C364.806 17.7175 369.995 18.9863 374.843 16.9154C379.69 14.8446 382.361 10.2183 380.808 6.58234Z" fill="#2F2E41"/>
<path d="M403.836 29.9604C398.651 20.4737 386.756 16.9872 377.27 22.1731C367.783 27.3589 364.296 39.2533 369.482 48.7399C374.668 58.2266 386.563 61.7131 396.049 56.5272C405.536 51.3414 409.022 39.447 403.836 29.9604Z" fill="#FFB7B7"/>
<path d="M407.216 27.0348C402.743 30.1172 397.433 31.7572 392 31.7348C393.938 33.0787 396.145 33.9866 398.467 34.3958C391.244 35.9452 383.778 35.9871 376.537 34.5188C374.928 34.2607 373.375 33.7272 371.946 32.9418C371.234 32.5443 370.614 32.0014 370.126 31.3484C369.638 30.6954 369.292 29.947 369.112 29.1518C368.631 26.4028 370.773 23.9058 372.998 22.2228C376.406 19.6854 380.335 17.9372 384.501 17.1046C388.668 16.2721 392.967 16.376 397.088 17.4088C399.834 17.9612 402.333 19.3734 404.223 21.4408C405.971 23.6018 406.489 26.9338 404.823 29.1588L407.216 27.0348Z" fill="#2F2E41"/>
<path d="M396.801 66.0331L416.177 81.8571L399.247 122.223L398.924 128.682C398.924 128.682 416.499 144.882 427.373 190.15C438.247 235.418 460.21 295.561 460.21 295.561L416.273 306.31L385.725 203.916L346.783 284.247L341.243 308.007L307.279 298.58L320.387 234.818L352.536 135.844L349.901 108.5C349.901 108.5 344.018 94.8521 354.238 80.4001L357.444 66.8232L374.038 63.9941L396.801 66.0331Z" fill="#2F2E41"/>
<path d="M69.1272 209.165H203.648C204.723 209.164 205.753 208.737 206.512 207.977C207.272 207.218 207.699 206.187 207.7 205.113V159.733C207.699 158.659 207.272 157.629 206.512 156.869C205.752 156.11 204.722 155.682 203.648 155.681H69.1272C68.0529 155.682 67.0229 156.109 66.2632 156.869C65.5035 157.629 65.0763 158.659 65.0752 159.733V205.113C65.0763 206.187 65.5035 207.218 66.2632 207.977C67.0229 208.737 68.0529 209.164 69.1272 209.165Z" fill="#E6E6E6"/>
<path d="M187.248 167.775H151.592V171.827H187.248V167.775Z" fill="white"/>
<path d="M104.362 172.638C105.705 172.638 106.793 171.549 106.793 170.207C106.793 168.864 105.705 167.776 104.362 167.776C103.02 167.776 101.931 168.864 101.931 170.207C101.931 171.549 103.02 172.638 104.362 172.638Z" fill="#FC5185"/>
<path d="M96.2269 172.638C97.5695 172.638 98.6579 171.549 98.6579 170.207C98.6579 168.864 97.5695 167.776 96.2269 167.776C94.8843 167.776 93.7959 168.864 93.7959 170.207C93.7959 171.549 94.8843 172.638 96.2269 172.638Z" fill="#FC5185"/>
<path d="M87.766 172.638C89.1086 172.638 90.197 171.549 90.197 170.207C90.197 168.864 89.1086 167.776 87.766 167.776C86.4234 167.776 85.335 168.864 85.335 170.207C85.335 171.549 86.4234 172.638 87.766 172.638Z" fill="#FC5185"/>
<path d="M69.1272 266.963H203.648C204.722 266.962 205.752 266.534 206.512 265.775C207.272 265.015 207.699 263.985 207.7 262.911V217.531C207.699 216.457 207.272 215.427 206.512 214.667C205.753 213.907 204.723 213.48 203.648 213.479H69.1272C68.0529 213.48 67.0229 213.907 66.2632 214.667C65.5035 215.427 65.0763 216.457 65.0752 217.531V262.916C65.0776 263.989 65.5054 265.018 66.265 265.777C67.0245 266.535 68.0537 266.962 69.1272 266.963Z" fill="#E6E6E6"/>
<path d="M187.248 225.531H151.592V229.583H187.248V225.531Z" fill="white"/>
<path d="M104.362 230.395C105.705 230.395 106.793 229.307 106.793 227.964C106.793 226.622 105.705 225.533 104.362 225.533C103.02 225.533 101.931 226.622 101.931 227.964C101.931 229.307 103.02 230.395 104.362 230.395Z" fill="#FC5185"/>
<path d="M96.2269 230.395C97.5695 230.395 98.6579 229.307 98.6579 227.964C98.6579 226.622 97.5695 225.533 96.2269 225.533C94.8843 225.533 93.7959 226.622 93.7959 227.964C93.7959 229.307 94.8843 230.395 96.2269 230.395Z" fill="#FC5185"/>
<path d="M87.766 230.395C89.1086 230.395 90.197 229.307 90.197 227.964C90.197 226.622 89.1086 225.533 87.766 225.533C86.4234 225.533 85.335 226.622 85.335 227.964C85.335 229.307 86.4234 230.395 87.766 230.395Z" fill="#FC5185"/>
<path d="M69.1272 324.76H203.648C204.722 324.759 205.752 324.331 206.512 323.572C207.272 322.812 207.699 321.782 207.7 320.708V275.328C207.699 274.254 207.272 273.224 206.512 272.464C205.752 271.705 204.722 271.277 203.648 271.276H69.1272C68.0529 271.277 67.0231 271.705 66.2635 272.464C65.5039 273.224 65.0765 274.254 65.0752 275.328V320.708C65.0763 321.782 65.5035 322.812 66.2632 323.572C67.0229 324.332 68.0529 324.759 69.1272 324.76Z" fill="#E6E6E6"/>
<path d="M187.248 283.432H151.592V287.484H187.248V283.432Z" fill="white"/>
<path d="M104.362 288.294C105.705 288.294 106.793 287.206 106.793 285.863C106.793 284.521 105.705 283.432 104.362 283.432C103.02 283.432 101.931 284.521 101.931 285.863C101.931 287.206 103.02 288.294 104.362 288.294Z" fill="#FC5185"/>
<path d="M96.2269 288.294C97.5695 288.294 98.6579 287.206 98.6579 285.863C98.6579 284.521 97.5695 283.432 96.2269 283.432C94.8843 283.432 93.7959 284.521 93.7959 285.863C93.7959 287.206 94.8843 288.294 96.2269 288.294Z" fill="#FC5185"/>
<path d="M87.766 288.294C89.1086 288.294 90.197 287.206 90.197 285.863C90.197 284.521 89.1086 283.432 87.766 283.432C86.4234 283.432 85.335 284.521 85.335 285.863C85.335 287.206 86.4234 288.294 87.766 288.294Z" fill="#FC5185"/>
<path d="M231.403 226.152C233.965 226.144 236.516 225.814 238.996 225.17L239.485 225.035L239.938 224.808C255.748 217.048 269.752 206.055 281.044 192.54C290.053 181.556 297.076 169.084 301.799 155.686C307.446 139.645 310.163 122.719 309.82 105.717C309.813 105.36 309.807 105.085 309.807 104.895C309.807 96.63 305.219 89.378 298.119 86.42C292.685 84.156 243.347 63.891 239.782 62.426C233.068 59.062 225.906 61.87 224.76 62.361C222.189 63.412 176.579 82.067 166.723 86.761C156.565 91.598 153.855 100.288 153.855 104.661C153.855 124.454 157.283 142.952 164.044 159.642C169.504 173.151 177.242 185.622 186.922 196.513C205.598 217.531 224.28 224.981 224.46 225.047C226.692 225.815 229.041 226.191 231.402 226.156L231.403 226.152ZM235.797 215.27C234.177 215.633 230.448 216.178 228.018 215.291C224.93 214.165 209.295 206.057 194.683 189.614C174.495 166.896 164.252 138.337 164.237 104.731C164.273 104.05 164.757 99.194 171.187 96.131C180.852 91.531 228.26 72.143 228.738 71.948L228.869 71.892C229.863 71.476 233.024 70.599 235.204 71.741L235.64 71.941C236.168 72.158 288.54 93.669 294.127 95.996C298.034 97.624 299.427 101.657 299.427 104.889C299.427 105.125 299.433 105.469 299.442 105.913C299.887 128.912 294.566 185.498 235.796 215.269L235.797 215.27Z" fill="#3F3D56"/>
<path d="M237.615 67.1528C237.615 67.1528 290.464 88.8588 296.127 91.2178C301.79 93.5768 304.621 99.2398 304.621 104.902C304.621 110.564 308.868 184.451 237.616 220.176C237.616 220.176 231.149 221.965 226.243 220.176C221.337 218.387 159.05 188.187 159.05 104.667C159.05 104.667 159.05 96.1728 168.959 91.4548C178.868 86.7368 226.777 67.1548 226.777 67.1548C226.777 67.1548 232.66 64.5578 237.615 67.1528Z" fill="#FC5185"/>
<path opacity="0.2" d="M231.856 84.1572V199.951C231.856 199.951 178.535 174.284 179.007 106.807L231.856 84.1572Z" fill="black"/>
<path d="M0.599838 324.76H491.028C491.185 324.76 491.336 324.698 491.447 324.587C491.558 324.475 491.621 324.325 491.621 324.167C491.621 324.01 491.558 323.859 491.447 323.748C491.336 323.637 491.185 323.574 491.028 323.574H0.599838C0.442565 323.574 0.291721 323.637 0.180511 323.748C0.0693024 323.859 0.00683594 324.01 0.00683594 324.167C0.00683594 324.325 0.0693024 324.475 0.180511 324.587C0.291721 324.698 0.442565 324.76 0.599838 324.76Z" fill="#CBCBCB"/>
</g>
<defs>
<clipPath id="clip0_161_118">
<rect width="491.623" height="324.76" fill="white"/>
</clipPath>
</defs>
</svg>
