<svg xmlns="http://www.w3.org/2000/svg" xmlns:xlink="http://www.w3.org/1999/xlink" width="26" height="26" viewBox="0 0 26 26">
  <defs>
    <clipPath id="clip-path">
      <rect id="Rectangle_637" data-name="Rectangle 637" width="26" height="26" transform="translate(274 47.488)" fill="#07ca8d" stroke="#707070" stroke-width="1"/>
    </clipPath>
  </defs>
  <g id="Mask_Group_108" data-name="Mask Group 108" transform="translate(-274 -47.488)" clip-path="url(#clip-path)">
    <g id="hierarchical-structure_1_" data-name="hierarchical-structure (1)" transform="translate(274 47.488)">
      <path id="Path_3201" data-name="Path 3201" d="M25.238,18.383H22.953V14.016a.762.762,0,0,0-.762-.762h-8.43V9.648h3.3a.762.762,0,0,0,.762-.762V.762A.762.762,0,0,0,17.063,0H8.938a.762.762,0,0,0-.762.762V8.887a.762.762,0,0,0,.762.762h3.3v3.605H3.809a.762.762,0,0,0-.762.762v4.367H.762A.762.762,0,0,0,0,19.145v6.094A.762.762,0,0,0,.762,26H6.855a.762.762,0,0,0,.762-.762V19.145a.762.762,0,0,0-.762-.762H4.57V14.777h7.668v3.605H9.953a.762.762,0,0,0-.762.762v6.094A.762.762,0,0,0,9.953,26h6.094a.762.762,0,0,0,.762-.762V19.145a.762.762,0,0,0-.762-.762H13.762V14.777H21.43v3.605H19.145a.762.762,0,0,0-.762.762v6.094a.762.762,0,0,0,.762.762h6.094A.762.762,0,0,0,26,25.238V19.145A.762.762,0,0,0,25.238,18.383ZM9.7,1.523h6.6v6.6H9.7ZM6.094,24.477H1.523v-4.57h4.57Zm9.191,0h-4.57v-4.57h4.57Zm9.191,0h-4.57v-4.57h4.57Z" fill="#07ca8d"/>
    </g>
  </g>
</svg>
