<svg xmlns="http://www.w3.org/2000/svg" xmlns:xlink="http://www.w3.org/1999/xlink" width="24" height="24" viewBox="0 0 24 24">
  <defs>
    <clipPath id="clip-path">
      <rect id="Rectangle_636" data-name="Rectangle 636" width="24" height="24" transform="translate(275 48.488)" fill="#07ca8d"/>
    </clipPath>
  </defs>
  <g id="Mask_Group_107" data-name="Mask Group 107" transform="translate(-275 -48.488)" clip-path="url(#clip-path)">
    <g id="_x32_2_domain" transform="translate(274.2 47.689)">
      <g id="Group_5015" data-name="Group 5015">
        <path id="Path_3197" data-name="Path 3197" d="M23.2.8H2.4A1.6,1.6,0,0,0,.8,2.4V23.2a1.6,1.6,0,0,0,1.6,1.6H23.2a1.6,1.6,0,0,0,1.6-1.6V2.4A1.6,1.6,0,0,0,23.2.8Zm0,1.6V5.6H2.4V2.4ZM2.4,23.2V7.2H23.2l0,16Z" fill="#07ca8d"/>
        <circle id="Ellipse_328" data-name="Ellipse 328" cx="0.8" cy="0.8" r="0.8" transform="translate(20 3.2)" fill="#07ca8d"/>
        <circle id="Ellipse_329" data-name="Ellipse 329" cx="0.8" cy="0.8" r="0.8" transform="translate(17.6 3.2)" fill="#07ca8d"/>
        <circle id="Ellipse_330" data-name="Ellipse 330" cx="0.8" cy="0.8" r="0.8" transform="translate(15.2 3.2)" fill="#07ca8d"/>
        <circle id="Ellipse_331" data-name="Ellipse 331" cx="0.8" cy="0.8" r="0.8" transform="translate(4 16.8)" fill="#07ca8d"/>
        <path id="Path_3198" data-name="Path 3198" d="M9.6,13.6a.8.8,0,1,0,0-1.6H8a1.6,1.6,0,0,0-1.6,1.6v3.2A1.6,1.6,0,0,0,8,18.4H9.6a.8.8,0,1,0,0-1.6H8V13.6Z" fill="#07ca8d"/>
        <path id="Path_3199" data-name="Path 3199" d="M14.4,12H12.8a1.6,1.6,0,0,0-1.6,1.6v3.2a1.6,1.6,0,0,0,1.6,1.6h1.6A1.6,1.6,0,0,0,16,16.8V13.6A1.6,1.6,0,0,0,14.4,12Zm0,4.8H12.8V13.6h1.6Z" fill="#07ca8d"/>
        <path id="Path_3200" data-name="Path 3200" d="M20.984,12.021a.8.8,0,0,0-.9.421l-.884,1.77-.884-1.769A.8.8,0,0,0,16.8,12.8v4.8a.8.8,0,0,0,1.6,0V16.189l.084.169a.833.833,0,0,0,1.431,0L20,16.189V17.6a.8.8,0,0,0,1.6,0V12.8A.8.8,0,0,0,20.984,12.021Z" fill="#07ca8d"/>
      </g>
    </g>
  </g>
</svg>
