<svg width="81" height="81" viewBox="0 0 81 81" fill="none" xmlns="http://www.w3.org/2000/svg">
<g clip-path="url(#clip0_1292_35837)">
<path d="M40.5 81C62.8675 81 81 62.8675 81 40.5C81 18.1325 62.8675 0 40.5 0C18.1325 0 0 18.1325 0 40.5C0 62.8675 18.1325 81 40.5 81Z" fill="#F4F5FF"/>
<mask id="mask0_1292_35837" style="mask-type:luminance" maskUnits="userSpaceOnUse" x="26" y="26" width="30" height="30">
<path d="M56 26H26V56H56V26Z" fill="white"/>
</mask>
<g mask="url(#mask0_1292_35837)">
<path d="M51.4408 30.285C49.0813 27.9355 45.9938 26.457 42.6841 26.0917C39.3744 25.7264 36.0388 26.4959 33.2237 28.2743C30.4086 30.0526 28.2809 32.7343 27.1892 35.8801C26.0975 39.0258 26.1065 42.449 27.2148 45.589L27.2368 45.65C27.5347 46.4755 28.0364 47.2123 28.6951 47.7922C29.3539 48.372 30.1485 48.7761 31.0052 48.9668C31.8618 49.1575 32.7528 49.1287 33.5953 48.8832C34.4379 48.6376 35.2048 48.1831 35.8248 47.562L36.6388 46.748C37.7281 47.4616 39.0297 47.7786 40.3251 47.6458C41.6206 47.5131 42.8309 46.9386 43.7528 46.019L46.9468 42.827C47.1619 42.6117 47.2828 42.3198 47.2828 42.0155C47.2828 41.7111 47.1619 41.4192 46.9468 41.204L45.8868 40.146L49.0468 36.99C49.2531 36.7729 49.3665 36.4839 49.3627 36.1845C49.3589 35.885 49.2383 35.5989 49.0266 35.3872C48.8148 35.1755 48.5287 35.0548 48.2293 35.051C47.9299 35.0473 47.6408 35.1606 47.4238 35.367L44.2688 38.522L43.2468 37.5L46.4468 34.3C46.6531 34.0829 46.7665 33.7939 46.7627 33.4945C46.7589 33.195 46.6383 32.9089 46.4266 32.6972C46.2148 32.4855 45.9287 32.3648 45.6293 32.361C45.3299 32.3573 45.0408 32.4706 44.8238 32.677L41.6238 35.877L40.5608 34.819C40.3455 34.6038 40.0536 34.483 39.7493 34.483C39.4449 34.483 39.1531 34.6038 38.9378 34.819L35.7468 38.012C34.8271 38.9339 34.2527 40.1442 34.1199 41.4396C33.9872 42.735 34.3042 44.0367 35.0178 45.126L34.2038 45.94C33.8575 46.287 33.4293 46.541 32.9587 46.6785C32.4882 46.816 31.9905 46.8325 31.5119 46.7265C31.0333 46.6205 30.5891 46.3954 30.2206 46.0721C29.8521 45.7488 29.5712 45.3377 29.4038 44.877L29.3858 44.827C28.4484 42.1753 28.4402 39.2836 29.3628 36.6267C30.2853 33.9698 32.0837 31.7054 34.4627 30.2052C36.8418 28.705 39.6601 28.0582 42.4552 28.3709C45.2503 28.6835 47.8561 29.9371 49.8449 31.9259C51.8336 33.9146 53.0872 36.5204 53.3999 39.3155C53.7126 42.1106 53.0657 44.929 51.5655 47.308C50.0654 49.6871 47.801 51.4854 45.1441 52.408C42.4871 53.3305 39.5955 53.3224 36.9438 52.385C36.6577 52.2877 36.3448 52.3071 36.0729 52.4391C35.8011 52.571 35.5922 52.8049 35.4916 53.0898C35.3911 53.3748 35.4069 53.6879 35.5358 53.9613C35.6646 54.2346 35.896 54.4461 36.1798 54.55C39.3241 55.6592 42.7521 55.6662 45.9008 54.5697C49.0496 53.4731 51.7318 51.3384 53.5069 48.516C55.282 45.6935 56.0444 42.3514 55.669 39.0384C55.2935 35.7254 53.8025 32.6386 51.4408 30.285ZM37.3678 39.635L39.7468 37.254L44.5088 42.016L42.1298 44.4C41.4967 45.023 40.643 45.3706 39.7548 45.3671C38.8666 45.3636 38.0157 45.0092 37.3875 44.3812C36.7594 43.7532 36.4049 42.9024 36.4012 42.0142C36.3975 41.1259 36.7449 40.2722 37.3678 39.639V39.635Z" fill="#6741EE"/>
</g>
</g>
<defs>
<clipPath id="clip0_1292_35837">
<rect width="81" height="81" fill="white"/>
</clipPath>
</defs>
</svg>
