<svg width="81" height="81" viewBox="0 0 81 81" fill="none" xmlns="http://www.w3.org/2000/svg">
<g clip-path="url(#clip0_1292_35828)">
<path d="M40.5 81C62.8675 81 81 62.8675 81 40.5C81 18.1325 62.8675 0 40.5 0C18.1325 0 0 18.1325 0 40.5C0 62.8675 18.1325 81 40.5 81Z" fill="#F4F5FF"/>
<mask id="mask0_1292_35828" style="mask-type:luminance" maskUnits="userSpaceOnUse" x="26" y="26" width="30" height="30">
<path d="M56 26H26V56H56V26Z" fill="white"/>
</mask>
<g mask="url(#mask0_1292_35828)">
<path d="M52.9338 31.155L41.4498 26.387C41.3072 26.3276 41.1543 26.2971 40.9998 26.2971C40.8454 26.2971 40.6924 26.3276 40.5498 26.387L29.0668 31.155C28.8523 31.2432 28.6688 31.3932 28.5396 31.5858C28.4104 31.7784 28.3412 32.005 28.3408 32.237V38.037C28.3408 41.9372 29.503 45.749 31.679 48.9858C33.855 52.2227 36.9461 54.7377 40.5578 56.21C40.8418 56.3259 41.1599 56.3259 41.4438 56.21C45.0554 54.7368 48.1461 52.2209 50.3214 48.9833C52.4967 45.7458 53.6579 41.9334 53.6568 38.033V32.237C53.6567 32.0053 53.588 31.779 53.4593 31.5864C53.3306 31.3938 53.1478 31.2437 52.9338 31.155ZM51.3128 38.034C51.3131 41.3867 50.3383 44.6671 48.5072 47.4757C46.6761 50.2842 44.0677 52.4996 40.9998 53.852C37.932 52.4993 35.3238 50.2837 33.4929 47.475C31.662 44.6663 30.6874 41.3857 30.6878 38.033V33.019L40.9998 28.738L51.3128 33.019V38.034ZM39.7048 41.984L44.7408 36.947C44.8487 36.8339 44.978 36.7436 45.1213 36.6813C45.2645 36.6189 45.4188 36.5859 45.575 36.584C45.7312 36.5822 45.8863 36.6116 46.0309 36.6706C46.1756 36.7295 46.3071 36.8168 46.4175 36.9272C46.528 37.0377 46.6153 37.1691 46.6742 37.3138C46.7331 37.4585 46.7626 37.6135 46.7607 37.7697C46.7589 37.926 46.7258 38.0802 46.6635 38.2235C46.6012 38.3668 46.5109 38.4961 46.3978 38.604L40.5318 44.47C40.312 44.6896 40.014 44.813 39.7033 44.813C39.3926 44.813 39.0946 44.6896 38.8748 44.47L35.6008 41.197C35.3896 40.9755 35.2733 40.6802 35.2769 40.3742C35.2805 40.0681 35.4037 39.7756 35.6201 39.5592C35.8365 39.3428 36.129 39.2196 36.435 39.216C36.7411 39.2124 37.0364 39.3287 37.2578 39.54L39.7048 41.984Z" fill="#6741EE"/>
</g>
</g>
<defs>
<clipPath id="clip0_1292_35828">
<rect width="81" height="81" fill="white"/>
</clipPath>
</defs>
</svg>
