<svg width="60" height="60" viewBox="0 0 60 60" fill="none" xmlns="http://www.w3.org/2000/svg">
<g clip-path="url(#clip0_158_68)">
<path d="M60 30C60 13.4315 46.5685 0 30 0C13.4315 0 0 13.4315 0 30C0 46.5685 13.4315 60 30 60C46.5685 60 60 46.5685 60 30Z" fill="#F4F5FF"/>
<path d="M18.1 26.6572C18.5793 24.9499 19.4204 23.3657 20.5664 22.0123C21.7124 20.659 23.1363 19.5682 24.7414 18.8142C26.3464 18.0601 28.095 17.6605 29.8683 17.6423C31.6415 17.6242 33.3979 17.9881 35.018 18.7092C34.8203 19.4397 34.8943 20.217 35.2263 20.897C35.5584 21.577 36.1259 22.1134 36.8235 22.4067C37.5211 22.6999 38.3014 22.7301 39.0195 22.4915C39.7377 22.253 40.3449 21.762 40.7284 21.1096C41.1119 20.4573 41.2457 19.6879 41.1049 18.9444C40.9641 18.2009 40.5583 17.5337 39.9628 17.0668C39.3674 16.5998 38.6227 16.3648 37.867 16.4053C37.1114 16.4459 36.3961 16.7592 35.854 17.2872C33.2298 16.0802 30.2965 15.7145 27.4562 16.2401C24.616 16.7658 22.0078 18.1571 19.9894 20.2233C17.9709 22.2895 16.641 24.9294 16.1819 27.7812C15.7228 30.633 16.157 33.557 17.425 36.1522L18.9 35.4292C17.5619 32.7036 17.2771 29.58 18.1 26.6572V26.6572ZM38.028 18.0402C38.3202 18.0402 38.6057 18.1269 38.8486 18.2892C39.0915 18.4514 39.2808 18.6821 39.3926 18.952C39.5044 19.2219 39.5337 19.5189 39.4767 19.8054C39.4197 20.0919 39.279 20.3551 39.0724 20.5616C38.8659 20.7682 38.6027 20.9089 38.3162 20.9659C38.0297 21.0228 37.7327 20.9936 37.4628 20.8818C37.1929 20.77 36.9623 20.5807 36.8 20.3378C36.6377 20.0949 36.551 19.8094 36.551 19.5172C36.5513 19.1256 36.707 18.7501 36.9839 18.4731C37.2609 18.1962 37.6364 18.0405 38.028 18.0402V18.0402Z" fill="#673DE6"/>
<path d="M42.184 23.1143L40.756 23.9223C42.068 26.2358 42.5978 28.9112 42.2665 31.5501C41.9353 34.1891 40.7607 36.6505 38.9176 38.568C37.0745 40.4855 34.6614 41.7565 32.0376 42.1919C29.4138 42.6273 26.7196 42.2037 24.356 40.9843C24.5979 40.2673 24.5715 39.4869 24.2816 38.7879C23.9918 38.089 23.4581 37.5189 22.7798 37.1836C22.1015 36.8483 21.3245 36.7705 20.5931 36.9647C19.8618 37.1589 19.2257 37.6118 18.8031 38.2394C18.3804 38.867 18.1998 39.6267 18.2948 40.3774C18.3897 41.1281 18.7539 41.8188 19.3196 42.3214C19.8853 42.8239 20.6141 43.1041 21.3708 43.11C22.1275 43.1158 22.8606 42.847 23.434 42.3533C25.4624 43.4332 27.725 43.9987 30.023 44.0003H30.1C32.5374 43.9819 34.9278 43.3275 37.0347 42.1018C39.1416 40.8761 40.892 39.1216 42.1127 37.0117C43.3334 34.9019 43.9821 32.5099 43.9946 30.0725C44.0071 27.635 43.383 25.2365 42.184 23.1143V23.1143ZM21.4 41.4693C21.1079 41.4693 20.8223 41.3826 20.5794 41.2203C20.3365 41.058 20.1472 40.8274 20.0354 40.5575C19.9236 40.2876 19.8944 39.9906 19.9514 39.7041C20.0084 39.4176 20.149 39.1544 20.3556 38.9479C20.5621 38.7413 20.8253 38.6006 21.1118 38.5436C21.3983 38.4866 21.6953 38.5159 21.9652 38.6277C22.2351 38.7395 22.4658 38.9288 22.6281 39.1717C22.7904 39.4146 22.877 39.7001 22.877 39.9923C22.8767 40.3839 22.721 40.7594 22.4441 41.0364C22.1672 41.3133 21.7916 41.469 21.4 41.4693Z" fill="#673DE6"/>
<path d="M35.3999 28.1203C35.2402 27.5483 34.9188 27.0346 34.4742 26.6408C34.0297 26.247 33.481 25.9899 32.8939 25.9003C32.706 25.0256 32.225 24.2414 31.5304 23.6776C30.8358 23.1138 29.9695 22.8043 29.0749 22.8003C28.1048 22.8016 27.1694 23.1611 26.4482 23.8099C25.7269 24.4586 25.2706 25.3508 25.1669 26.3153C24.0573 26.4298 23.034 26.9661 22.3084 27.8133C21.5827 28.6605 21.2101 29.7541 21.2675 30.8681C21.3248 31.9821 21.8078 33.0316 22.6166 33.7998C23.4254 34.568 24.4984 34.9963 25.6139 34.9963H35.2999C35.7533 34.9963 36.2022 34.9066 36.6208 34.7323C37.0394 34.558 37.4193 34.3026 37.7387 33.9807C38.0581 33.6589 38.3107 33.2771 38.4818 32.8572C38.653 32.4373 38.7393 31.9877 38.7359 31.5343C38.7244 30.6458 38.3716 29.7957 37.7506 29.1602C37.1296 28.5246 36.2879 28.1523 35.3999 28.1203ZM36.5729 32.8203C36.4065 32.989 36.2081 33.1229 35.9894 33.2141C35.7706 33.3052 35.5359 33.3519 35.2989 33.3513H25.6139C24.9038 33.3377 24.2273 33.046 23.73 32.539C23.2326 32.0319 22.954 31.35 22.954 30.6398C22.954 29.9295 23.2326 29.2476 23.73 28.7406C24.2273 28.2336 24.9038 27.9419 25.6139 27.9283H26.7849V26.7283C26.7912 26.1325 27.031 25.5629 27.4527 25.1421C27.8744 24.7212 28.4444 24.4825 29.0403 24.4774C29.6361 24.4723 30.2101 24.7011 30.639 25.1147C31.0679 25.5283 31.3174 26.0937 31.3339 26.6893V27.5173L32.4339 27.5063C32.814 27.5076 33.178 27.6595 33.4464 27.9286C33.7148 28.1977 33.8656 28.5622 33.8659 28.9423V29.7623H35.2659C35.744 29.7577 36.2047 29.9418 36.548 30.2746C36.8914 30.6075 37.0896 31.0622 37.0999 31.5403C37.1024 31.7774 37.0576 32.0126 36.9682 32.2323C36.8787 32.4519 36.7464 32.6514 36.5789 32.8193L36.5729 32.8203Z" fill="#673DE6"/>
</g>
<defs>
<clipPath id="clip0_158_68">
<rect width="60" height="60" fill="white"/>
</clipPath>
</defs>
</svg>
