<svg width="60" height="60" viewBox="0 0 60 60" fill="none" xmlns="http://www.w3.org/2000/svg">
<g clip-path="url(#clip0_158_96)">
<path d="M60 30C60 13.4315 46.5685 0 30 0C13.4315 0 0 13.4315 0 30C0 46.5685 13.4315 60 30 60C46.5685 60 60 46.5685 60 30Z" fill="#F4F5FF"/>
<path d="M43.1798 18.021H39.5868C39.6002 17.621 39.6068 17.221 39.6068 16.821C39.6068 16.7133 39.5856 16.6067 39.5444 16.5072C39.5032 16.4077 39.4428 16.3173 39.3667 16.2411C39.2905 16.165 39.2001 16.1046 39.1006 16.0634C39.0012 16.0222 38.8945 16.001 38.7868 16.001H21.2129C20.9954 16.001 20.7868 16.0874 20.633 16.2411C20.4792 16.3949 20.3929 16.6035 20.3929 16.821C20.3929 17.221 20.3995 17.621 20.4129 18.021H16.8199C16.6024 18.021 16.3938 18.1074 16.24 18.2611C16.0862 18.4149 15.9999 18.6235 15.9999 18.841C15.9337 22.2889 16.8718 25.6817 18.6999 28.606C20.4239 31.197 22.7208 32.684 25.1999 32.828C25.7202 33.4048 26.3179 33.9069 26.9759 34.32V37.966H25.6069C24.8069 37.9668 24.04 38.2849 23.4744 38.8505C22.9088 39.4161 22.5906 40.1831 22.5899 40.983V42.359H22.5319C22.3142 42.359 22.1055 42.4454 21.9517 42.5993C21.7978 42.7532 21.7114 42.9619 21.7114 43.1795C21.7114 43.3971 21.7978 43.6058 21.9517 43.7597C22.1055 43.9135 22.3142 44 22.5319 44H37.4678C37.6855 44 37.8942 43.9135 38.048 43.7597C38.2019 43.6058 38.2883 43.3971 38.2883 43.1795C38.2883 42.9619 38.2019 42.7532 38.048 42.5993C37.8942 42.4454 37.6855 42.359 37.4678 42.359H37.4098V40.983C37.4091 40.1831 37.0909 39.4161 36.5253 38.8505C35.9597 38.2849 35.1928 37.9668 34.3928 37.966H33.0168V34.32C33.6749 33.907 34.2725 33.4049 34.7928 32.828C37.2738 32.683 39.5708 31.197 41.2928 28.606C43.1233 25.6825 44.0639 22.2897 43.9998 18.841C43.9998 18.6235 43.9135 18.4149 43.7597 18.2611C43.6059 18.1074 43.3973 18.021 43.1798 18.021V18.021ZM20.0709 27.7C18.5569 25.2867 17.7232 22.5091 17.6579 19.661H20.5049C20.7194 23.1092 21.5839 26.4859 23.0529 29.613C23.2715 30.0503 23.4999 30.4636 23.7379 30.853C22.2164 30.2105 20.9341 29.108 20.0709 27.7ZM35.7708 40.986V42.362H24.2298V40.983C24.2304 40.6182 24.3755 40.2685 24.6335 40.0106C24.8914 39.7526 25.2411 39.6075 25.6059 39.607H34.3918C34.757 39.607 35.1072 39.7519 35.3655 40.0099C35.6239 40.2679 35.7693 40.6179 35.7698 40.983L35.7708 40.986ZM31.3779 37.969H28.6238V35.033C29.5257 35.2737 30.475 35.2737 31.3769 35.033L31.3779 37.969ZM31.8858 33.084C31.8492 33.0993 31.8138 33.1174 31.7799 33.138C31.2314 33.4253 30.6215 33.5754 30.0023 33.5754C29.3832 33.5754 28.7733 33.4253 28.2249 33.138C28.1906 33.117 28.1548 33.0987 28.1179 33.083C27.4116 32.6914 26.7832 32.1734 26.2639 31.555C26.2345 31.5112 26.201 31.4704 26.1638 31.433C25.5204 30.6497 24.9713 29.7935 24.5279 28.882C22.9034 25.3564 22.0559 21.5228 22.0429 17.641H37.9569C37.9458 21.5215 37.1011 25.3543 35.4798 28.88C35.0363 29.7914 34.4872 30.6477 33.8438 31.431C33.8066 31.4683 33.7731 31.5091 33.7438 31.553C33.2227 32.1719 32.5922 32.6899 31.8839 33.081L31.8858 33.084ZM39.9289 27.7C39.0658 29.1092 37.7831 30.2128 36.2608 30.856C36.4982 30.4666 36.7265 30.0533 36.9458 29.616C38.4147 26.4888 39.2792 23.1122 39.4938 19.664H42.3408C42.2753 22.511 41.4419 25.2874 39.9289 27.7Z" fill="#673DE6"/>
</g>
<defs>
<clipPath id="clip0_158_96">
<rect width="60" height="60" fill="white"/>
</clipPath>
</defs>
</svg>
