<svg width="60" height="60" viewBox="0 0 60 60" fill="none" xmlns="http://www.w3.org/2000/svg">
<g clip-path="url(#clip0_158_109)">
<path d="M60 30C60 13.4315 46.5685 0 30 0C13.4315 0 0 13.4315 0 30C0 46.5685 13.4315 60 30 60C46.5685 60 60 46.5685 60 30Z" fill="#F4F5FF"/>
<path d="M33.28 34.0671V33.1671C33.265 32.3067 32.9127 31.4866 32.2989 30.8835C31.6851 30.2803 30.859 29.9424 29.9985 29.9424C29.138 29.9424 28.3119 30.2803 27.6981 30.8835C27.0844 31.4866 26.732 32.3067 26.717 33.1671V34.0671C26.0541 34.1483 25.4438 34.469 25.0008 34.9689C24.5579 35.4687 24.3129 36.1132 24.312 36.7811V42.2501C24.312 42.5402 24.4273 42.8185 24.6324 43.0237C24.8376 43.2288 25.1159 43.3441 25.406 43.3441H34.594C34.8842 43.3441 35.1624 43.2288 35.3676 43.0237C35.5728 42.8185 35.688 42.5402 35.688 42.2501V36.7811C35.687 36.1128 35.4416 35.4679 34.9981 34.968C34.5545 34.4681 33.9435 34.1476 33.28 34.0671V34.0671ZM28.905 33.1671C28.9334 32.8967 29.0609 32.6464 29.2629 32.4645C29.4649 32.2825 29.7271 32.1818 29.999 32.1818C30.2709 32.1818 30.5331 32.2825 30.7351 32.4645C30.9372 32.6464 31.0647 32.8967 31.093 33.1671V34.0421H28.905V33.1671ZM33.5 41.1561H26.5V36.7811C26.5 36.636 26.5576 36.4969 26.6602 36.3943C26.7628 36.2917 26.9019 36.2341 27.047 36.2341H32.953C33.0981 36.2341 33.2372 36.2917 33.3398 36.3943C33.4424 36.4969 33.5 36.636 33.5 36.7811V41.1561Z" fill="#673DE6"/>
<path d="M41.2661 24.8929V24.1119C41.2654 22.3843 40.6649 20.7106 39.5671 19.3767C38.4692 18.0428 36.9423 17.1315 35.2471 16.7985C33.5519 16.4655 31.7937 16.7316 30.2729 17.5511C28.7521 18.3707 27.5631 19.6929 26.9091 21.2919C26.1672 20.9129 25.3404 20.7306 24.5079 20.7627C23.6754 20.7947 22.8651 21.0399 22.1546 21.4749C21.444 21.9099 20.857 22.52 20.4498 23.2468C20.0427 23.9736 19.8289 24.7928 19.8291 25.6259V26.6209C18.9796 26.8095 18.1959 27.2216 17.559 27.8144C16.922 28.4072 16.4549 29.1593 16.2059 29.9931C15.9569 30.8268 15.9349 31.7119 16.1424 32.5569C16.3499 33.402 16.7792 34.1763 17.3861 34.7999C17.8317 35.2568 18.3649 35.6192 18.9537 35.8656C19.5424 36.112 20.1748 36.2372 20.8131 36.2339H21.4131C21.6973 36.2253 21.9671 36.1063 22.1652 35.9022C22.3632 35.6981 22.474 35.4248 22.474 35.1404C22.474 34.856 22.3632 34.5828 22.1652 34.3786C21.9671 34.1745 21.6973 34.0555 21.4131 34.0469H20.8131C20.4637 34.047 20.1178 33.9773 19.7956 33.842C19.4735 33.7066 19.1817 33.5083 18.9372 33.2587C18.6927 33.0091 18.5005 32.7132 18.3719 32.3884C18.2432 32.0635 18.1807 31.7162 18.1881 31.3669C18.1949 30.6503 18.4858 29.9656 18.9969 29.4632C19.5079 28.9608 20.1974 28.6816 20.9141 28.6869H20.9221C21.2122 28.6869 21.4905 28.5717 21.6956 28.3665C21.9008 28.1613 22.0161 27.8831 22.0161 27.5929V25.6249C22.0172 25.0818 22.1835 24.5519 22.4927 24.1054C22.8019 23.6589 23.2396 23.3169 23.7476 23.1248C24.2556 22.9328 24.81 22.8996 25.3373 23.0298C25.8646 23.16 26.3398 23.4474 26.7001 23.8539C26.8376 24.0093 27.0166 24.1224 27.2161 24.1799C27.4155 24.2375 27.6272 24.237 27.8265 24.1787C28.0257 24.1204 28.2042 24.0067 28.3412 23.8507C28.4782 23.6947 28.568 23.503 28.6001 23.2979C28.8046 21.987 29.4963 20.8015 30.537 19.9784C31.5776 19.1553 32.8905 18.7552 34.2133 18.858C35.5361 18.9608 36.7714 19.559 37.6723 20.533C38.5733 21.507 39.0735 22.7851 39.0731 24.1119V25.4569C39.0731 25.4649 39.0731 25.4739 39.0731 25.4819C39.0679 25.685 39.1195 25.8855 39.2219 26.0609C39.3244 26.2363 39.4737 26.3796 39.6531 26.4749C40.3035 26.8187 40.8477 27.3336 41.2271 27.9639C41.6065 28.5943 41.8067 29.3162 41.8061 30.0519C41.7852 30.9838 41.4573 31.8828 40.8733 32.6093C40.2892 33.3359 39.4817 33.8493 38.5761 34.0699C38.2988 34.1348 38.0578 34.3052 37.9042 34.5449C37.7505 34.7846 37.6964 35.0748 37.7533 35.3537C37.8102 35.6327 37.9736 35.8785 38.2088 36.039C38.4441 36.1994 38.7326 36.2618 39.0131 36.2129C39.9614 35.9738 40.8495 35.5399 41.6211 34.9389C42.3762 34.3711 42.9857 33.632 43.3993 32.7826C43.8129 31.9331 44.0188 30.9975 44.0001 30.0529C44.0012 29.0348 43.7526 28.032 43.2759 27.1323C42.7992 26.2327 42.1091 25.4637 41.2661 24.8929V24.8929Z" fill="#673DE6"/>
</g>
<defs>
<clipPath id="clip0_158_109">
<rect width="60" height="60" fill="white"/>
</clipPath>
</defs>
</svg>
