<svg width="505" height="315" viewBox="0 0 505 315" fill="none" xmlns="http://www.w3.org/2000/svg">
<g clip-path="url(#clip0_453_2)">
<path d="M133.027 193.67C186.507 193.67 229.862 150.315 229.862 96.835C229.862 43.3545 186.507 0 133.027 0C79.5464 0 36.1919 43.3545 36.1919 96.835C36.1919 150.315 79.5464 193.67 133.027 193.67Z" fill="#F2F2F2"/>
<path d="M0 23.25C0 58.482 22.1 86.992 49.418 86.992Z" fill="#2F2E41"/>
<path d="M49.418 86.992C49.418 51.364 74.084 22.534 104.566 22.534Z" fill="#673DE6"/>
<path d="M17.9048 26.445C17.9048 59.912 31.9998 86.993 49.4178 86.993Z" fill="#673DE6"/>
<path d="M49.418 86.992C49.418 41.467 77.928 4.62903 113.16 4.62903Z" fill="#2F2E41"/>
<path d="M39.022 86.682C39.022 86.682 46.03 86.466 48.142 84.962C50.254 83.458 58.922 81.662 59.442 84.074C59.962 86.486 69.974 96.074 62.062 96.135C54.15 96.196 43.677 94.903 41.569 93.618C39.461 92.333 39.022 86.682 39.022 86.682Z" fill="#A8A8A8"/>
<path opacity="0.2" d="M62.208 95.266C54.296 95.33 43.823 94.034 41.715 92.749C40.11 91.771 39.47 88.262 39.256 86.643L39.022 86.652C39.022 86.652 39.466 92.304 41.574 93.588C43.682 94.872 54.154 96.168 62.067 96.105C64.351 96.087 65.14 95.274 65.097 94.07C64.779 94.799 63.907 95.253 62.208 95.266Z" fill="black"/>
<path d="M90.2918 202.841C137.244 202.841 175.306 197.663 175.306 191.275C175.306 184.887 137.244 179.709 90.2918 179.709C43.3399 179.709 5.27783 184.887 5.27783 191.275C5.27783 197.663 43.3399 202.841 90.2918 202.841Z" fill="#D1E8FD"/>
<path opacity="0.1" d="M90.292 200.989C129.712 200.989 161.668 196.642 161.668 191.279C161.668 185.916 129.712 181.569 90.292 181.569C50.8721 181.569 18.916 185.916 18.916 191.279C18.916 196.642 50.8721 200.989 90.292 200.989Z" fill="black"/>
<path d="M375.886 315C446.942 315 504.544 307.164 504.544 297.497C504.544 287.83 446.942 279.994 375.886 279.994C304.83 279.994 247.228 287.83 247.228 297.497C247.228 307.164 304.83 315 375.886 315Z" fill="#3F3D56"/>
<path d="M141.21 301.192C183.894 301.192 218.496 296.485 218.496 290.678C218.496 284.871 183.894 280.164 141.21 280.164C98.526 280.164 63.9238 284.871 63.9238 290.678C63.9238 296.485 98.526 301.192 141.21 301.192Z" fill="#E5E5E5"/>
<path d="M207.852 281.813C248.768 292.269 327.418 268.174 336.052 240.897" stroke="#2F2E41" stroke-width="2" stroke-miterlimit="10"/>
<path d="M139.35 116.149C139.35 116.149 198.45 99.783 202.088 152.519C205.726 205.255 153.443 220.258 194.359 230.719" stroke="#2F2E41" stroke-width="2" stroke-miterlimit="10"/>
<path d="M82.8931 241.479C82.8931 241.479 100.656 236.56 101.749 252.41C102.842 268.26 87.1291 272.769 99.4261 275.91" stroke="#2F2E41" stroke-width="2" stroke-miterlimit="10"/>
<path d="M350.489 253.28L346.908 276.145C346.908 276.145 329.277 285.512 341.674 285.787C354.071 286.062 412.474 285.787 412.474 285.787C412.474 285.787 423.769 285.787 405.862 275.869L402.281 251.902L350.489 253.28Z" fill="#2F2E41"/>
<path opacity="0.1" d="M339.179 285.54C341.587 283.594 344.175 281.881 346.907 280.425L350.488 257.56L402.28 257.609L405.861 280.15C408.804 281.669 411.578 283.494 414.137 285.595C416.437 285.07 418.95 283.12 405.861 275.871L402.28 251.904L350.488 253.281L346.907 276.146C346.907 276.146 332.092 284.017 339.179 285.54Z" fill="black"/>
<path d="M473.805 94.961H276.56C266.594 94.961 258.514 103.04 258.514 113.007V239.452C258.514 249.419 266.594 257.498 276.56 257.498H473.805C483.772 257.498 491.851 249.419 491.851 239.452V113.007C491.851 103.04 483.772 94.961 473.805 94.961Z" fill="#2F2E41"/>
<path d="M483.999 103.876H266.365V225.641H483.999V103.876Z" fill="white"/>
<path d="M376.308 102.007C377.069 102.007 377.685 101.39 377.685 100.63C377.685 99.8695 377.069 99.253 376.308 99.253C375.548 99.253 374.931 99.8695 374.931 100.63C374.931 101.39 375.548 102.007 376.308 102.007Z" fill="#F2F2F2"/>
<path d="M491.852 234.548V248.796C491.852 249.873 491.64 250.94 491.227 251.935C490.815 252.93 490.211 253.835 489.449 254.596C488.687 255.358 487.782 255.961 486.787 256.373C485.791 256.785 484.724 256.997 483.647 256.996H266.718C265.641 256.996 264.574 256.784 263.579 256.371C262.584 255.959 261.68 255.354 260.918 254.593C260.157 253.831 259.553 252.926 259.141 251.931C258.729 250.935 258.517 249.868 258.518 248.791V234.548H491.852Z" fill="#2F2E41"/>
<path d="M436.065 300.664V303.419H287.853V301.219L288.053 300.668L291.706 290.75H433.034L436.065 300.664Z" fill="#2F2E41"/>
<path d="M493.102 297.967C492.832 299.121 491.813 300.339 489.51 301.49C481.245 305.622 464.441 300.39 464.441 300.39C464.441 300.39 451.493 298.19 451.493 292.401C451.857 292.152 452.236 291.927 452.628 291.726C456.103 289.888 467.628 285.352 488.051 291.918C489.556 292.391 490.9 293.272 491.934 294.463C492.392 294.913 492.736 295.466 492.939 296.075C493.142 296.684 493.198 297.332 493.102 297.967Z" fill="#2F2E41"/>
<path opacity="0.1" d="M493.102 297.967C482.986 301.843 473.969 302.132 464.716 295.705C461.217 293.118 456.98 291.723 452.628 291.724C456.103 289.886 467.628 285.35 488.051 291.916C489.556 292.389 490.9 293.27 491.934 294.461C492.392 294.911 492.737 295.464 492.94 296.073C493.143 296.683 493.198 297.332 493.102 297.967Z" fill="black"/>
<path d="M480.418 295.705C482.396 295.705 483.999 295.212 483.999 294.603C483.999 293.994 482.396 293.501 480.418 293.501C478.44 293.501 476.837 293.994 476.837 294.603C476.837 295.212 478.44 295.705 480.418 295.705Z" fill="#F2F2F2"/>
<path d="M376.291 251.109C379.182 251.109 381.525 248.766 381.525 245.875C381.525 242.984 379.182 240.641 376.291 240.641C373.4 240.641 371.057 242.984 371.057 245.875C371.057 248.766 373.4 251.109 376.291 251.109Z" fill="#F2F2F2"/>
<path opacity="0.1" d="M436.065 300.664V303.419H287.853V301.219L288.053 300.668L436.065 300.664Z" fill="black"/>
<path d="M143.938 71.317H49.376V181.336H143.938V71.317Z" fill="#2F2E41"/>
<path d="M153.485 60.762H39.8291V99.86H153.485V60.762Z" fill="#673DE6"/>
<path d="M153.485 106.67H39.8291V145.768H153.485V106.67Z" fill="#673DE6"/>
<path d="M153.485 152.579H39.8291V191.677H153.485V152.579Z" fill="#673DE6"/>
<path opacity="0.4" d="M129.657 67.583H122.383V74.857H129.657V67.583Z" fill="white"/>
<path opacity="0.8" d="M140.021 67.583H132.747V74.857H140.021V67.583Z" fill="white"/>
<path d="M150.384 67.583H143.11V74.857H150.384V67.583Z" fill="white"/>
<path opacity="0.4" d="M129.657 113.088H122.383V120.362H129.657V113.088Z" fill="white"/>
<path opacity="0.8" d="M140.021 113.088H132.747V120.362H140.021V113.088Z" fill="white"/>
<path d="M150.384 113.088H143.11V120.362H150.384V113.088Z" fill="white"/>
<path opacity="0.4" d="M129.657 158.594H122.383V165.868H129.657V158.594Z" fill="white"/>
<path opacity="0.8" d="M140.021 158.594H132.747V165.868H140.021V158.594Z" fill="white"/>
<path d="M150.384 158.594H143.11V165.868H150.384V158.594Z" fill="white"/>
<path d="M137.341 269.992H126.43V289.541H137.341V269.992Z" fill="#D81F57"/>
<path d="M158.911 270H148V289.549H158.911V270Z" fill="#D81F57"/>
<path d="M142.837 277.72C162.672 277.72 178.752 261.64 178.752 241.805C178.752 221.97 162.672 205.89 142.837 205.89C123.002 205.89 106.922 221.97 106.922 241.805C106.922 261.64 123.002 277.72 142.837 277.72Z" fill="#FC5185"/>
<path d="M135.505 293.179C140.526 293.179 144.597 291.652 144.597 289.769C144.597 287.886 140.526 286.359 135.505 286.359C130.484 286.359 126.413 287.886 126.413 289.769C126.413 291.652 130.484 293.179 135.505 293.179Z" fill="#D81F57"/>
<path d="M157.129 292.724C162.15 292.724 166.221 291.197 166.221 289.314C166.221 287.431 162.15 285.904 157.129 285.904C152.108 285.904 148.037 287.431 148.037 289.314C148.037 291.197 152.108 292.724 157.129 292.724Z" fill="#D81F57"/>
<path d="M143.628 245.653C150.407 245.653 155.903 240.157 155.903 233.378C155.903 226.599 150.407 221.103 143.628 221.103C136.849 221.103 131.353 226.599 131.353 233.378C131.353 240.157 136.849 245.653 143.628 245.653Z" fill="white"/>
<path d="M143.595 237.508C145.855 237.508 147.687 235.676 147.687 233.416C147.687 231.156 145.855 229.324 143.595 229.324C141.335 229.324 139.503 231.156 139.503 233.416C139.503 235.676 141.335 237.508 143.595 237.508Z" fill="#3F3D56"/>
<path d="M108.038 209.365C105.138 196.378 114.408 183.254 128.743 180.053C143.078 176.852 157.05 184.786 159.95 197.773C162.85 210.76 153.35 215.55 139.014 218.751C124.678 221.952 110.938 222.353 108.038 209.365Z" fill="#D81F57"/>
<path d="M176.142 235.336C185.26 231.433 191.659 225.949 190.434 223.087C189.209 220.225 180.824 221.068 171.706 224.971C162.588 228.873 156.19 234.357 157.415 237.219C158.64 240.081 167.024 239.238 176.142 235.336Z" fill="#FC5185"/>
<path d="M109.493 259.203C118.611 255.3 125.01 249.816 123.785 246.954C122.56 244.092 114.175 244.935 105.057 248.838C95.9394 252.74 89.5409 258.224 90.7659 261.086C91.9909 263.948 100.375 263.105 109.493 259.203Z" fill="#FC5185"/>
<path d="M163.655 252.739C163.655 256.254 154.604 263.195 144.561 263.195C134.518 263.195 125.012 256.708 125.012 253.193C125.012 249.678 134.518 250.465 144.561 250.465C154.604 250.465 163.655 249.221 163.655 252.739Z" fill="white"/>
</g>
<defs>
<clipPath id="clip0_453_2">
<rect width="504.545" height="315" fill="white"/>
</clipPath>
</defs>
</svg>
