<svg width="60" height="60" viewBox="0 0 60 60" fill="none" xmlns="http://www.w3.org/2000/svg">
<g clip-path="url(#clip0_158_102)">
<path d="M60 30C60 13.4315 46.5685 0 30 0C13.4315 0 0 13.4315 0 30C0 46.5685 13.4315 60 30 60C46.5685 60 60 46.5685 60 30Z" fill="#F4F5FF"/>
<path d="M33.9538 23.0288H26.0458C25.246 23.0299 24.4792 23.3481 23.9136 23.9136C23.3481 24.4792 23.0299 25.246 23.0288 26.0458V33.9538C23.0299 34.7536 23.3481 35.5204 23.9136 36.086C24.4792 36.6515 25.246 36.9698 26.0458 36.9708H33.9538C34.7537 36.97 35.5206 36.6519 36.0863 36.0863C36.6519 35.5206 36.97 34.7537 36.9708 33.9538V26.0458C36.97 25.2459 36.6519 24.479 36.0863 23.9133C35.5206 23.3477 34.7537 23.0296 33.9538 23.0288V23.0288ZM35.3298 33.9538C35.3293 34.3186 35.1841 34.6683 34.9262 34.9262C34.6683 35.1841 34.3186 35.3293 33.9538 35.3298H26.0458C25.681 35.3293 25.3313 35.1841 25.0734 34.9262C24.8155 34.6683 24.6703 34.3186 24.6698 33.9538V26.0458C24.6703 25.681 24.8155 25.3313 25.0734 25.0734C25.3313 24.8155 25.681 24.6703 26.0458 24.6698H33.9538C34.3186 24.6703 34.6683 24.8155 34.9262 25.0734C35.1841 25.3313 35.3293 25.681 35.3298 26.0458V33.9538Z" fill="#673DE6"/>
<path d="M43.18 27.086C43.3976 27.086 43.6063 26.9996 43.7602 26.8457C43.9141 26.6918 44.0005 26.4831 44.0005 26.2655C44.0005 26.0479 43.9141 25.8392 43.7602 25.6853C43.6063 25.5315 43.3976 25.445 43.18 25.445H40.485V23.352H43.18C43.3976 23.352 43.6063 23.2656 43.7602 23.1117C43.9141 22.9578 44.0005 22.7491 44.0005 22.5315C44.0005 22.3139 43.9141 22.1052 43.7602 21.9513C43.6063 21.7975 43.3976 21.711 43.18 21.711H40.371C40.2298 21.2155 39.9644 20.7642 39.6001 20.3999C39.2358 20.0356 38.7845 19.7702 38.289 19.629V16.82C38.289 16.6024 38.2026 16.3937 38.0487 16.2398C37.8948 16.086 37.6861 15.9995 37.4685 15.9995C37.2509 15.9995 37.0422 16.086 36.8883 16.2398C36.7345 16.3937 36.648 16.6024 36.648 16.82V19.515H34.555V16.82C34.555 16.6024 34.4686 16.3937 34.3147 16.2398C34.1608 16.086 33.9521 15.9995 33.7345 15.9995C33.5169 15.9995 33.3082 16.086 33.1543 16.2398C33.0005 16.3937 32.914 16.6024 32.914 16.82V19.515H30.821V16.82C30.821 16.6024 30.7346 16.3937 30.5807 16.2398C30.4268 16.086 30.2181 15.9995 30.0005 15.9995C29.7829 15.9995 29.5742 16.086 29.4203 16.2398C29.2665 16.3937 29.18 16.6024 29.18 16.82V19.515H27.086V16.82C27.086 16.6024 26.9996 16.3937 26.8457 16.2398C26.6918 16.086 26.4831 15.9995 26.2655 15.9995C26.0479 15.9995 25.8392 16.086 25.6853 16.2398C25.5315 16.3937 25.445 16.6024 25.445 16.82V19.515H23.352V16.82C23.352 16.6024 23.2656 16.3937 23.1117 16.2398C22.9578 16.086 22.7491 15.9995 22.5315 15.9995C22.3139 15.9995 22.1052 16.086 21.9513 16.2398C21.7975 16.3937 21.711 16.6024 21.711 16.82V19.629C21.2155 19.7702 20.7642 20.0356 20.3999 20.3999C20.0356 20.7642 19.7702 21.2155 19.629 21.711H16.82C16.6024 21.711 16.3937 21.7975 16.2398 21.9513C16.086 22.1052 15.9995 22.3139 15.9995 22.5315C15.9995 22.7491 16.086 22.9578 16.2398 23.1117C16.3937 23.2656 16.6024 23.352 16.82 23.352H19.515V25.445H16.82C16.6024 25.445 16.3937 25.5315 16.2398 25.6853C16.086 25.8392 15.9995 26.0479 15.9995 26.2655C15.9995 26.4831 16.086 26.6918 16.2398 26.8457C16.3937 26.9996 16.6024 27.086 16.82 27.086H19.515V29.18H16.82C16.6024 29.18 16.3937 29.2665 16.2398 29.4203C16.086 29.5742 15.9995 29.7829 15.9995 30.0005C15.9995 30.2181 16.086 30.4268 16.2398 30.5807C16.3937 30.7346 16.6024 30.821 16.82 30.821H19.515V32.915H16.82C16.6024 32.915 16.3937 33.0015 16.2398 33.1553C16.086 33.3092 15.9995 33.5179 15.9995 33.7355C15.9995 33.9531 16.086 34.1618 16.2398 34.3157C16.3937 34.4696 16.6024 34.556 16.82 34.556H19.515V36.65H16.82C16.6024 36.65 16.3937 36.7365 16.2398 36.8903C16.086 37.0442 15.9995 37.2529 15.9995 37.4705C15.9995 37.6881 16.086 37.8968 16.2398 38.0507C16.3937 38.2046 16.6024 38.291 16.82 38.291H19.629C19.7703 38.7865 20.0357 39.2377 20.4 39.602C20.7643 39.9663 21.2156 40.2317 21.711 40.373V43.18C21.711 43.3976 21.7975 43.6063 21.9513 43.7602C22.1052 43.9141 22.3139 44.0005 22.5315 44.0005C22.7491 44.0005 22.9578 43.9141 23.1117 43.7602C23.2656 43.6063 23.352 43.3976 23.352 43.18V40.485H25.446V43.18C25.446 43.3976 25.5325 43.6063 25.6863 43.7602C25.8402 43.9141 26.0489 44.0005 26.2665 44.0005C26.4841 44.0005 26.6928 43.9141 26.8467 43.7602C27.0006 43.6063 27.087 43.3976 27.087 43.18V40.485H29.18V43.18C29.18 43.3976 29.2665 43.6063 29.4203 43.7602C29.5742 43.9141 29.7829 44.0005 30.0005 44.0005C30.2181 44.0005 30.4268 43.9141 30.5807 43.7602C30.7346 43.6063 30.821 43.3976 30.821 43.18V40.485H32.915V43.18C32.915 43.3976 33.0015 43.6063 33.1553 43.7602C33.3092 43.9141 33.5179 44.0005 33.7355 44.0005C33.9531 44.0005 34.1618 43.9141 34.3157 43.7602C34.4696 43.6063 34.556 43.3976 34.556 43.18V40.485H36.65V43.18C36.65 43.3976 36.7365 43.6063 36.8903 43.7602C37.0442 43.9141 37.2529 44.0005 37.4705 44.0005C37.6881 44.0005 37.8968 43.9141 38.0507 43.7602C38.2046 43.6063 38.291 43.3976 38.291 43.18V40.371C38.7865 40.2298 39.2378 39.9644 39.6021 39.6001C39.9664 39.2358 40.2318 38.7845 40.373 38.289H43.18C43.3976 38.289 43.6063 38.2026 43.7602 38.0487C43.9141 37.8948 44.0005 37.6861 44.0005 37.4685C44.0005 37.2509 43.9141 37.0422 43.7602 36.8883C43.6063 36.7345 43.3976 36.648 43.18 36.648H40.485V34.555H43.18C43.3976 34.555 43.6063 34.4686 43.7602 34.3147C43.9141 34.1608 44.0005 33.9521 44.0005 33.7345C44.0005 33.5169 43.9141 33.3082 43.7602 33.1543C43.6063 33.0005 43.3976 32.914 43.18 32.914H40.485V30.82H43.18C43.3976 30.82 43.6063 30.7336 43.7602 30.5797C43.9141 30.4258 44.0005 30.2171 44.0005 29.9995C44.0005 29.7819 43.9141 29.5732 43.7602 29.4193C43.6063 29.2655 43.3976 29.179 43.18 29.179H40.485V27.086H43.18ZM37.468 38.845H22.531C22.1662 38.8445 21.8166 38.6993 21.5586 38.4414C21.3007 38.1835 21.1555 37.8338 21.155 37.469V22.532C21.1553 22.1671 21.3003 21.8171 21.5583 21.559C21.8162 21.3008 22.1661 21.1555 22.531 21.155H37.469C37.8338 21.1555 38.1835 21.3007 38.4414 21.5586C38.6993 21.8166 38.8445 22.1662 38.845 22.531V37.469C38.8445 37.8338 38.6993 38.1835 38.4414 38.4414C38.1835 38.6993 37.8338 38.8445 37.469 38.845H37.468Z" fill="#673DE6"/>
</g>
<defs>
<clipPath id="clip0_158_102">
<rect width="60" height="60" fill="white"/>
</clipPath>
</defs>
</svg>
