<svg width="81" height="81" viewBox="0 0 81 81" fill="none" xmlns="http://www.w3.org/2000/svg">
<g clip-path="url(#clip0_150_762)">
<path d="M40.5 81C62.8675 81 81 62.8675 81 40.5C81 18.1325 62.8675 0 40.5 0C18.1325 0 0 18.1325 0 40.5C0 62.8675 18.1325 81 40.5 81Z" fill="#F4F5FF"/>
<path d="M53.363 26H28.637C27.9379 26.0008 27.2676 26.2789 26.7732 26.7732C26.2789 27.2676 26.0008 27.9379 26 28.637V46.273C26.0016 46.9719 26.2799 47.6417 26.7741 48.1359C27.2683 48.6301 27.9381 48.9084 28.637 48.91H37.485V50.726C36.3198 50.7273 35.2027 51.1908 34.3787 52.0147C33.5548 52.8387 33.0913 53.9558 33.09 55.121C33.09 55.3541 33.1826 55.5777 33.3475 55.7425C33.5123 55.9074 33.7359 56 33.969 56H48.031C48.1464 56 48.2607 55.9773 48.3674 55.9331C48.474 55.8889 48.5709 55.8242 48.6525 55.7425C48.7342 55.6609 48.7989 55.564 48.8431 55.4574C48.8873 55.3507 48.91 55.2364 48.91 55.121C48.9087 53.9558 48.4452 52.8387 47.6213 52.0147C46.7973 51.1908 45.6802 50.7273 44.515 50.726V48.91H53.363C54.0621 48.9092 54.7324 48.6311 55.2268 48.1368C55.7211 47.6424 55.9992 46.9721 56 46.273V28.637C55.9992 27.9379 55.7211 27.2676 55.2268 26.7732C54.7324 26.2789 54.0621 26.0008 53.363 26V26ZM47 54.242H35C35.1823 53.7282 35.5191 53.2834 35.9642 52.9687C36.4093 52.6539 36.9409 52.4846 37.486 52.484H44.517C45.0616 52.4852 45.5926 52.6548 46.0371 52.9695C46.4816 53.2843 46.8179 53.7287 47 54.242ZM39.24 50.726V48.91H42.756V50.726H39.24ZM54.24 46.273C54.2397 46.506 54.147 46.7295 53.9823 46.8943C53.8175 47.059 53.594 47.1517 53.361 47.152H28.637C28.5531 47.1522 28.4696 47.1404 28.389 47.117V47.117C28.2071 47.0628 28.0475 46.9515 27.9338 46.7994C27.8201 46.6474 27.7585 46.4628 27.758 46.273V45.394H54.242L54.24 46.273ZM54.24 43.636H27.758V28.636C27.7583 28.403 27.851 28.1795 28.0157 28.0147C28.1805 27.85 28.404 27.7573 28.637 27.757H53.363C53.596 27.7573 53.8195 27.85 53.9843 28.0147C54.149 28.1795 54.2417 28.403 54.242 28.636L54.24 43.636Z" fill="#673DE6"/>
<path d="M52.2778 35.1811L50.5198 32.5441C50.4395 32.4238 50.3308 32.3252 50.2033 32.257C50.0758 32.1888 49.9334 32.1531 49.7888 32.1531H40.7758C40.0274 31.0783 38.9555 30.2704 37.7161 29.847C36.4767 29.4235 35.1345 29.4067 33.8849 29.7989C32.6353 30.1911 31.5435 30.9719 30.7683 32.0276C29.9932 33.0833 29.5752 34.3589 29.5752 35.6686C29.5752 36.9783 29.9932 38.2539 30.7683 39.3096C31.5435 40.3653 32.6353 41.1461 33.8849 41.5383C35.1345 41.9305 36.4767 41.9137 37.7161 41.4902C38.9555 41.0668 40.0274 40.2589 40.7758 39.1841H42.9758C43.1065 39.184 43.2355 39.1548 43.3535 39.0986C43.4715 39.0424 43.5754 38.9606 43.6578 38.8591L44.4038 37.9411L45.1498 38.8591C45.2322 38.9605 45.3362 39.0422 45.4542 39.0983C45.5721 39.1544 45.7012 39.1836 45.8318 39.1836C45.9624 39.1836 46.0914 39.1544 46.2094 39.0983C46.3274 39.0422 46.4314 38.9605 46.5138 38.8591L47.2598 37.9411L48.0058 38.8591C48.0882 38.9606 48.1921 39.0424 48.3101 39.0986C48.4281 39.1548 48.5571 39.184 48.6878 39.1841H49.7878C49.9351 39.184 50.0799 39.1468 50.2091 39.0761C50.3382 39.0053 50.4475 38.9032 50.5268 38.7791L52.2758 36.1561C52.3723 36.0119 52.424 35.8424 52.4244 35.6689C52.4247 35.4954 52.3737 35.3257 52.2778 35.1811V35.1811ZM49.3188 37.4261H49.1088L47.9438 35.9931C47.8614 35.8917 47.7574 35.81 47.6394 35.7539C47.5214 35.6978 47.3924 35.6686 47.2618 35.6686C47.1311 35.6686 47.0021 35.6978 46.8842 35.7539C46.7662 35.81 46.6622 35.8917 46.5798 35.9931L45.8338 36.9111L45.0878 35.9931C45.0054 35.8917 44.9014 35.81 44.7834 35.7539C44.6654 35.6978 44.5364 35.6686 44.4058 35.6686C44.2752 35.6686 44.1461 35.6978 44.0282 35.7539C43.9102 35.81 43.8062 35.8917 43.7238 35.9931L42.5588 37.4381H40.2948C40.1415 37.4358 39.9904 37.474 39.8567 37.549C39.7231 37.624 39.6116 37.7331 39.5338 37.8651C39.0502 38.7032 38.3036 39.3583 37.4097 39.7287C36.5159 40.0992 35.5247 40.1643 34.5901 39.914C33.6554 39.6637 32.8295 39.1119 32.2404 38.3443C31.6513 37.5767 31.332 36.6362 31.332 35.6686C31.332 34.701 31.6513 33.7605 32.2404 32.9929C32.8295 32.2253 33.6554 31.6735 34.5901 31.4232C35.5247 31.1729 36.5159 31.238 37.4097 31.6085C38.3036 31.9789 39.0502 32.634 39.5338 33.4721C39.611 33.6056 39.7219 33.7164 39.8555 33.7935C39.9891 33.8706 40.1406 33.9111 40.2948 33.9111H49.3188L50.4908 35.6691L49.3188 37.4261Z" fill="#673DE6"/>
<path d="M35.7268 33.031C35.2053 33.031 34.6955 33.1857 34.2618 33.4754C33.8282 33.7652 33.4902 34.177 33.2906 34.6589C33.091 35.1407 33.0388 35.6709 33.1405 36.1825C33.2423 36.694 33.4934 37.1639 33.8622 37.5326C34.231 37.9014 34.7009 38.1526 35.2124 38.2543C35.7239 38.3561 36.2541 38.3039 36.736 38.1043C37.2178 37.9047 37.6297 37.5667 37.9194 37.133C38.2092 36.6994 38.3638 36.1896 38.3638 35.668C38.3631 34.9689 38.085 34.2986 37.5906 33.8042C37.0962 33.3099 36.426 33.0318 35.7268 33.031V33.031ZM35.7268 36.547C35.553 36.547 35.383 36.4955 35.2385 36.3989C35.0939 36.3023 34.9813 36.165 34.9148 36.0044C34.8482 35.8438 34.8308 35.667 34.8647 35.4965C34.8987 35.326 34.9824 35.1694 35.1053 35.0465C35.2282 34.9235 35.3849 34.8398 35.5554 34.8059C35.7259 34.772 35.9026 34.7894 36.0632 34.8559C36.2238 34.9224 36.3611 35.0351 36.4577 35.1797C36.5543 35.3242 36.6058 35.4942 36.6058 35.668C36.6056 35.9011 36.5129 36.1245 36.3481 36.2893C36.1833 36.454 35.9599 36.5467 35.7268 36.547V36.547Z" fill="#673DE6"/>
</g>
<defs>
<clipPath id="clip0_150_762">
<rect width="81" height="81" fill="white"/>
</clipPath>
</defs>
</svg>
