<svg width="60" height="60" viewBox="0 0 60 60" fill="none" xmlns="http://www.w3.org/2000/svg">
<g clip-path="url(#clip0_158_87)">
<path d="M60 30C60 13.4315 46.5685 0 30 0C13.4315 0 0 13.4315 0 30C0 46.5685 13.4315 60 30 60C46.5685 60 60 46.5685 60 30Z" fill="#F4F5FF"/>
<path d="M41.0498 32.6569C40.7236 32.3292 40.3148 32.096 39.8668 31.9819C40.0273 31.3228 39.9213 30.6269 39.5717 30.0455C39.2221 29.4641 38.6572 29.0442 37.9998 28.8769C38.1436 28.2879 38.075 27.667 37.8061 27.1236C37.5372 26.5801 37.0853 26.1489 36.5298 25.9059L39.1828 23.2539C39.6448 22.7665 39.8984 22.118 39.8896 21.4464C39.8807 20.7749 39.6102 20.1333 39.1355 19.6582C38.6608 19.1831 38.0194 18.912 37.3478 18.9026C36.6763 18.8932 36.0276 19.1463 35.5398 19.6079L27.2658 27.8819L26.7818 25.7819C26.6458 25.1897 26.3536 24.6448 25.9356 24.2039C25.5176 23.7629 24.989 23.442 24.405 23.2746C23.8209 23.1072 23.2026 23.0993 22.6145 23.2518C22.0264 23.4044 21.4899 23.7117 21.0608 24.1419V24.1419C20.9846 24.2182 20.9241 24.3088 20.883 24.4085C20.8418 24.5082 20.8207 24.615 20.8208 24.7229L20.8308 34.9279L18.4308 37.3279C18.3546 37.4041 18.2941 37.4945 18.2529 37.594C18.2117 37.6935 18.1904 37.8002 18.1904 37.9079C18.1904 38.0156 18.2117 38.1223 18.2529 38.2218C18.2941 38.3213 18.3546 38.4118 18.4308 38.4879L23.7078 43.7599C23.784 43.836 23.8744 43.8964 23.9739 43.9376C24.0734 43.9788 24.1801 43.9999 24.2878 43.9999H31.9218C32.3759 44.001 32.8257 43.9121 33.2452 43.7382C33.6648 43.5643 34.0456 43.309 34.3658 42.9869L41.0498 36.2999C41.2892 36.0605 41.4791 35.7763 41.6087 35.4635C41.7382 35.1507 41.8049 34.8155 41.8049 34.4769C41.8049 34.1383 41.7382 33.8031 41.6087 33.4903C41.4791 33.1775 41.2892 32.8933 41.0498 32.6539V32.6569ZM36.6998 30.7099C36.8763 30.5381 37.1133 30.4426 37.3597 30.4443C37.606 30.4459 37.8418 30.5445 38.016 30.7187C38.1902 30.8929 38.2888 31.1287 38.2904 31.375C38.2921 31.6213 38.1966 31.8584 38.0248 32.0349L36.1608 33.8999C35.9843 34.0718 35.7472 34.1672 35.5009 34.1655C35.2545 34.1639 35.0188 34.0653 34.8446 33.8911C34.6704 33.7169 34.5718 33.4811 34.5701 33.2348C34.5685 32.9885 34.6639 32.7514 34.8358 32.5749L36.6998 30.7099ZM33.6748 31.4099C33.4983 31.5818 33.2612 31.6772 33.0149 31.6755C32.7685 31.6739 32.5328 31.5753 32.3586 31.4011C32.1844 31.2269 32.0858 30.9911 32.0841 30.7448C32.0825 30.4985 32.1779 30.2614 32.3498 30.0849L34.8358 27.5999C35.0123 27.4281 35.2493 27.3326 35.4957 27.3343C35.742 27.3359 35.9778 27.4345 36.152 27.6087C36.3262 27.7829 36.4248 28.0187 36.4264 28.265C36.4281 28.5113 36.3326 28.7484 36.1608 28.9249V28.9249L33.6758 31.4099H33.6748ZM33.2038 41.8229C32.8625 42.1624 32.4011 42.3535 31.9198 42.3549H24.6278L20.1758 37.9069L22.2318 35.8509C22.308 35.7746 22.3684 35.684 22.4096 35.5843C22.4508 35.4846 22.4719 35.3778 22.4718 35.2699L22.4618 25.0999C22.6981 24.9356 22.9711 24.8318 23.2568 24.7975C23.5426 24.7631 23.8324 24.7994 24.1009 24.903C24.3694 25.0066 24.6084 25.1744 24.797 25.3918C24.9856 25.6092 25.1181 25.8695 25.1828 26.1499L25.9998 29.6929C26.0343 29.8425 26.1102 29.9794 26.2188 30.0879L26.8408 30.7099C27.5099 31.3807 27.8857 32.2894 27.8857 33.2369C27.8857 34.1844 27.5099 35.0931 26.8408 35.7639C26.6911 35.9184 26.6081 36.1256 26.6098 36.3408C26.6115 36.5559 26.6976 36.7618 26.8497 36.914C27.0018 37.0662 27.2076 37.1525 27.4227 37.1544C27.6378 37.1562 27.8451 37.0735 27.9998 36.9239C28.9762 35.9453 29.5246 34.6193 29.5246 33.2369C29.5246 31.8545 28.9762 30.5285 27.9998 29.5499L27.9588 29.5089L36.6998 20.7679C36.8763 20.5961 37.1133 20.5006 37.3597 20.5023C37.606 20.5039 37.8418 20.6025 38.016 20.7767C38.1902 20.9509 38.2888 21.1867 38.2904 21.433C38.2921 21.6793 38.1966 21.9164 38.0248 22.0929L31.1898 28.9289C30.8335 29.2837 30.5888 29.735 30.4859 30.2272C30.383 30.7194 30.4265 31.2309 30.6108 31.6987C30.7952 32.1666 31.1124 32.5702 31.5234 32.8599C31.9344 33.1495 32.4212 33.3126 32.9238 33.3289C32.945 33.9813 33.2136 34.6012 33.6751 35.0629C34.1366 35.5246 34.7564 35.7934 35.4088 35.8149C35.4256 36.3002 35.579 36.7709 35.8514 37.1728C36.1239 37.5747 36.5042 37.8916 36.9488 38.0869L33.2038 41.8229ZM39.8888 35.1379L38.6458 36.3809C38.4699 36.5566 38.2315 36.6553 37.9829 36.6552C37.7343 36.6551 37.496 36.5562 37.3203 36.3804C37.1446 36.2046 37.0459 35.9661 37.046 35.7175C37.0461 35.469 37.1449 35.2306 37.3208 35.0549L38.5638 33.8119C38.7403 33.6401 38.9773 33.5446 39.2237 33.5463C39.47 33.5479 39.7058 33.6465 39.88 33.8207C40.0542 33.9949 40.1528 34.2307 40.1544 34.477C40.1561 34.7233 40.0606 34.9604 39.8888 35.1369V35.1379Z" fill="#673DE6"/>
<path d="M26.9235 21.1521C27.0312 21.1521 27.1379 21.1309 27.2373 21.0897C27.3368 21.0485 27.4272 20.9881 27.5034 20.9119C27.5795 20.8358 27.6399 20.7454 27.6811 20.6459C27.7223 20.5464 27.7435 20.4398 27.7435 20.3321V16.8161C27.7435 16.5985 27.6571 16.3898 27.5032 16.2359C27.3493 16.0821 27.1407 15.9956 26.923 15.9956C26.7054 15.9956 26.4967 16.0821 26.3429 16.2359C26.189 16.3898 26.1025 16.5985 26.1025 16.8161V20.3311C26.1024 20.439 26.1236 20.5458 26.1648 20.6454C26.206 20.7451 26.2664 20.8357 26.3427 20.9119C26.419 20.9882 26.5095 21.0487 26.6092 21.0899C26.7089 21.1311 26.8157 21.1522 26.9235 21.1521V21.1521Z" fill="#673DE6"/>
<path d="M22.8287 20.9111C22.9049 20.9872 22.9953 21.0477 23.0948 21.0889C23.1943 21.1301 23.301 21.1513 23.4087 21.1513C23.5164 21.1513 23.6231 21.1301 23.7226 21.0889C23.8221 21.0477 23.9125 20.9872 23.9887 20.9111C24.0649 20.8349 24.1253 20.7445 24.1665 20.645C24.2077 20.5455 24.229 20.4388 24.229 20.3311C24.229 20.2234 24.2077 20.1167 24.1665 20.0172C24.1253 19.9177 24.0649 19.8272 23.9887 19.7511L23.1097 18.8721C22.9559 18.7183 22.7473 18.6318 22.5297 18.6318C22.3122 18.6318 22.1035 18.7183 21.9497 18.8721C21.7959 19.0259 21.7095 19.2345 21.7095 19.4521C21.7095 19.6696 21.7959 19.8783 21.9497 20.0321L22.8287 20.9111Z" fill="#673DE6"/>
<path d="M31.0199 20.9111L31.8989 20.0321C31.975 19.9559 32.0355 19.8655 32.0767 19.766C32.1179 19.6665 32.1391 19.5598 32.1391 19.4521C32.1391 19.3444 32.1179 19.2377 32.0767 19.1382C32.0355 19.0387 31.975 18.9482 31.8989 18.8721C31.8227 18.7959 31.7323 18.7355 31.6328 18.6943C31.5333 18.6531 31.4266 18.6318 31.3189 18.6318C31.2112 18.6318 31.1045 18.6531 31.005 18.6943C30.9055 18.7355 30.815 18.7959 30.7389 18.8721L29.8599 19.7511C29.7837 19.8272 29.7233 19.9177 29.6821 20.0172C29.6408 20.1167 29.6196 20.2234 29.6196 20.3311C29.6196 20.4388 29.6408 20.5455 29.6821 20.645C29.7233 20.7445 29.7837 20.8349 29.8599 20.9111C29.936 20.9872 30.0265 21.0477 30.126 21.0889C30.2255 21.1301 30.3322 21.1513 30.4399 21.1513C30.5476 21.1513 30.6543 21.1301 30.7538 21.0889C30.8533 21.0477 30.9437 20.9872 31.0199 20.9111V20.9111Z" fill="#673DE6"/>
</g>
<defs>
<clipPath id="clip0_158_87">
<rect width="60" height="60" fill="white"/>
</clipPath>
</defs>
</svg>
