<svg width="81" height="81" viewBox="0 0 81 81" fill="none" xmlns="http://www.w3.org/2000/svg">
<g clip-path="url(#clip0_150_781)">
<path d="M40.5 81C62.8675 81 81 62.8675 81 40.5C81 18.1325 62.8675 0 40.5 0C18.1325 0 0 18.1325 0 40.5C0 62.8675 18.1325 81 40.5 81Z" fill="#F4F5FF"/>
<path d="M52.753 44.1541C52.692 43.0643 52.3823 42.003 51.8477 41.0514C51.3131 40.0998 50.5678 39.2832 49.6689 38.6642C48.7699 38.0452 47.7412 37.6402 46.6615 37.4802C45.5818 37.3201 44.4798 37.4094 43.44 37.7411V32.2341C43.44 30.9061 42.311 29.7341 40.261 28.9451C38.1607 28.2072 35.9458 27.8493 33.72 27.8881C31.4942 27.8493 29.2793 28.2072 27.179 28.9451C25.129 29.7381 24 30.9061 24 32.2341V44.4881C24 45.8161 25.129 46.9881 27.179 47.7771C29.0081 48.429 30.9306 48.7806 32.872 48.8181C33.1105 49.9386 33.726 50.9435 34.616 51.6649C35.5059 52.3863 36.6164 52.7807 37.762 52.7821H52.349C53.46 52.7809 54.5279 52.3519 55.3311 51.5843C56.1343 50.8166 56.6111 49.7692 56.6625 48.6593C56.714 47.5495 56.3362 46.4624 55.6075 45.6238C54.8788 44.7851 53.8551 44.2591 52.749 44.1551L52.753 44.1541ZM33.72 29.8021C38.771 29.8021 41.526 31.4091 41.526 32.2341C41.526 33.0591 38.771 34.6661 33.72 34.6661C28.669 34.6661 25.914 33.0601 25.914 32.2341C25.914 31.4081 28.67 29.8021 33.72 29.8021ZM25.914 34.9201C26.3183 35.1542 26.741 35.3549 27.178 35.5201C29.2784 36.2591 31.4937 36.6181 33.72 36.5801C35.9461 36.619 38.1614 36.2611 40.262 35.5231C40.699 35.3578 41.1217 35.1572 41.526 34.9231V38.3631C41.4923 38.5974 41.3676 38.8091 41.179 38.9521C41.099 39.0154 41.0203 39.0821 40.943 39.1521C39.887 39.9301 37.42 40.7881 33.72 40.7881C28.669 40.7881 25.914 39.1811 25.914 38.3561V34.9201ZM32.842 46.9011C28.351 46.7291 25.914 45.2621 25.914 44.4861V41.0461C26.3182 41.2803 26.741 41.481 27.178 41.6461C29.2784 42.3851 31.4937 42.7441 33.72 42.7061C35.4691 42.7194 37.2128 42.51 38.909 42.0831C38.8147 42.34 38.7352 42.6021 38.671 42.8681C38.0234 42.7487 37.3585 42.7584 36.7146 42.8966C36.0708 43.0348 35.4605 43.2989 34.919 43.6736C34.3775 44.0484 33.9153 44.5264 33.559 45.0803C33.2028 45.6341 32.9594 46.2529 32.843 46.9011H32.842ZM52.348 50.8671H37.761C37.3006 50.8667 36.846 50.7633 36.4308 50.5642C36.0156 50.3652 35.6503 50.0757 35.3616 49.717C35.0729 49.3583 34.8682 48.9395 34.7626 48.4913C34.657 48.0431 34.6531 47.577 34.7512 47.1271C34.8493 46.6773 35.047 46.2551 35.3296 45.8916C35.6123 45.5281 35.9728 45.2325 36.3846 45.0266C36.7964 44.8207 37.2491 44.7096 37.7095 44.7016C38.1699 44.6935 38.6262 44.7887 39.045 44.9801L40.302 45.5571L40.402 44.1771C40.5009 42.827 41.1193 41.5679 42.1271 40.6642C43.1349 39.7604 44.4538 39.2825 45.8066 39.3308C47.1595 39.3791 48.4409 39.9498 49.3817 40.9231C50.3226 41.8964 50.8496 43.1964 50.852 44.5501C50.852 44.7111 50.844 44.8791 50.827 45.0501L50.709 46.2941L51.941 46.0831C52.2701 46.0256 52.6076 46.0371 52.932 46.117C53.2564 46.1969 53.5607 46.3434 53.8254 46.5473C54.0902 46.7511 54.3096 47.0077 54.4698 47.3009C54.6301 47.5941 54.7275 47.9174 54.7561 48.2503C54.7846 48.5832 54.7436 48.9184 54.6356 49.2346C54.5277 49.5508 54.3551 49.841 54.1289 50.0869C53.9027 50.3329 53.6279 50.529 53.3218 50.663C53.0157 50.797 52.6851 50.8658 52.351 50.8651L52.348 50.8671Z" fill="#673DE6"/>
</g>
<defs>
<clipPath id="clip0_150_781">
<rect width="81" height="81" fill="white"/>
</clipPath>
</defs>
</svg>
