<svg width="60" height="60" viewBox="0 0 60 60" fill="none" xmlns="http://www.w3.org/2000/svg">
<g clip-path="url(#clip0_158_76)">
<path d="M60 30C60 13.4315 46.5685 0 30 0C13.4315 0 0 13.4315 0 30C0 46.5685 13.4315 60 30 60C46.5685 60 60 46.5685 60 30Z" fill="#F4F5FF"/>
<path d="M36.6682 23.4C36.8412 23.0517 36.9224 22.6649 36.9042 22.2763C36.8859 21.8878 36.7688 21.5103 36.5638 21.1797C36.3589 20.8491 36.0729 20.5763 35.7331 20.3871C35.3932 20.1979 35.0107 20.0986 34.6217 20.0986C34.2327 20.0986 33.8502 20.1979 33.5103 20.3871C33.1705 20.5763 32.8845 20.8491 32.6796 21.1797C32.4746 21.5103 32.3575 21.8878 32.3392 22.2763C32.321 22.6649 32.4022 23.0517 32.5752 23.4C30.5934 23.8992 28.8624 25.1054 27.7078 26.7917C26.5533 28.4781 26.0549 30.5282 26.3064 32.5564C26.5579 34.5845 27.5419 36.4508 29.0734 37.8041C30.6048 39.1574 32.578 39.9043 34.6217 39.9043C36.6654 39.9043 38.6386 39.1574 40.17 37.8041C41.7015 36.4508 42.6855 34.5845 42.937 32.5564C43.1885 30.5282 42.6901 28.4781 41.5356 26.7917C40.381 25.1054 38.65 23.8992 36.6682 23.4V23.4ZM33.8592 22.383C33.8592 22.2323 33.9039 22.085 33.9876 21.9597C34.0713 21.8344 34.1904 21.7367 34.3296 21.679C34.4688 21.6214 34.622 21.6063 34.7699 21.6357C34.9177 21.6651 35.0534 21.7376 35.16 21.8442C35.2666 21.9508 35.3392 22.0866 35.3686 22.2344C35.398 22.3822 35.3829 22.5354 35.3252 22.6746C35.2675 22.8139 35.1699 22.9329 35.0445 23.0166C34.9192 23.1003 34.7719 23.145 34.6212 23.145C34.4192 23.1448 34.2255 23.0644 34.0827 22.9216C33.9398 22.7787 33.8595 22.585 33.8592 22.383V22.383ZM35.3822 38.337V37.618C35.375 37.4208 35.2917 37.2341 35.1497 37.0971C35.0076 36.9602 34.818 36.8836 34.6207 36.8836C34.4234 36.8836 34.2338 36.9602 34.0917 37.0971C33.9497 37.2341 33.8663 37.4208 33.8592 37.618V38.337C32.3147 38.162 30.8752 37.4682 29.7761 36.3691C28.677 35.27 27.9832 33.8305 27.8082 32.286H28.5272C28.7244 32.2789 28.9111 32.1955 29.0481 32.0535C29.1851 31.9115 29.2616 31.7218 29.2616 31.5245C29.2616 31.3272 29.1851 31.1376 29.0481 30.9956C28.9111 30.8535 28.7244 30.7702 28.5272 30.763H27.8082C27.9832 29.2185 28.677 27.7791 29.7761 26.6799C30.8752 25.5808 32.3147 24.8871 33.8592 24.712V25.43C33.8663 25.6272 33.9497 25.8139 34.0917 25.9509C34.2338 26.0879 34.4234 26.1644 34.6207 26.1644C34.818 26.1644 35.0076 26.0879 35.1497 25.9509C35.2917 25.8139 35.375 25.6272 35.3822 25.43V24.711C36.9267 24.8861 38.3662 25.5798 39.4653 26.6789C40.5644 27.7781 41.2582 29.2175 41.4332 30.762H40.7142C40.517 30.7692 40.3303 30.8525 40.1933 30.9946C40.0563 31.1366 39.9798 31.3262 39.9798 31.5235C39.9798 31.7208 40.0563 31.9105 40.1933 32.0525C40.3303 32.1945 40.517 32.2779 40.7142 32.285H41.4332C41.2582 33.8294 40.5646 35.2687 39.4657 36.3678C38.3667 37.4669 36.9275 38.1608 35.3832 38.336L35.3822 38.337Z" fill="#673DE6"/>
<path d="M23.9571 23.145H22.3321C22.1349 23.1522 21.9481 23.2355 21.8112 23.3776C21.6742 23.5196 21.5977 23.7092 21.5977 23.9065C21.5977 24.1038 21.6742 24.2935 21.8112 24.4355C21.9481 24.5775 22.1349 24.6609 22.3321 24.668H23.9571C24.1542 24.6609 24.341 24.5775 24.4779 24.4355C24.6149 24.2935 24.6915 24.1038 24.6915 23.9065C24.6915 23.7092 24.6149 23.5196 24.4779 23.3776C24.341 23.2355 24.1542 23.1522 23.9571 23.145V23.145Z" fill="#673DE6"/>
<path d="M23.9571 27.7148H20.8091C20.6119 27.722 20.4252 27.8053 20.2882 27.9474C20.1512 28.0894 20.0747 28.279 20.0747 28.4763C20.0747 28.6737 20.1512 28.8633 20.2882 29.0053C20.4252 29.1473 20.6119 29.2307 20.8091 29.2378H23.9571C24.1543 29.2307 24.341 29.1473 24.478 29.0053C24.615 28.8633 24.6915 28.6737 24.6915 28.4763C24.6915 28.279 24.615 28.0894 24.478 27.9474C24.341 27.8053 24.1543 27.722 23.9571 27.7148V27.7148Z" fill="#673DE6"/>
<path d="M23.9572 32.2852H19.2852C19.088 32.2923 18.9013 32.3757 18.7643 32.5177C18.6273 32.6597 18.5508 32.8493 18.5508 33.0467C18.5508 33.244 18.6273 33.4336 18.7643 33.5756C18.9013 33.7177 19.088 33.801 19.2852 33.8082H23.9572C24.1544 33.801 24.3411 33.7177 24.4781 33.5756C24.615 33.4336 24.6916 33.244 24.6916 33.0467C24.6916 32.8493 24.615 32.6597 24.4781 32.5177C24.3411 32.3757 24.1544 32.2923 23.9572 32.2852V32.2852Z" fill="#673DE6"/>
<path d="M23.9572 36.855H17.7622C17.565 36.8621 17.3783 36.9455 17.2413 37.0875C17.1044 37.2295 17.0278 37.4192 17.0278 37.6165C17.0278 37.8138 17.1044 38.0034 17.2413 38.1454C17.3783 38.2875 17.565 38.3708 17.7622 38.378H23.9622C24.1594 38.3708 24.3461 38.2875 24.4831 38.1454C24.6201 38.0034 24.6966 37.8138 24.6966 37.6165C24.6966 37.4192 24.6201 37.2295 24.4831 37.0875C24.3461 36.9455 24.1594 36.8621 23.9622 36.855H23.9572Z" fill="#673DE6"/>
<path d="M37.6684 30.7621H35.3834V28.4771C35.3762 28.2799 35.2928 28.0932 35.1508 27.9562C35.0088 27.8192 34.8192 27.7427 34.6219 27.7427C34.4245 27.7427 34.2349 27.8192 34.0929 27.9562C33.9509 28.0932 33.8675 28.2799 33.8604 28.4771V31.5241C33.8604 31.7262 33.9406 31.92 34.0835 32.0629C34.2264 32.2058 34.4203 32.2861 34.6224 32.2861H37.6694C37.8665 32.2789 38.0533 32.1956 38.1902 32.0535C38.3272 31.9115 38.4038 31.7219 38.4038 31.5246C38.4038 31.3273 38.3272 31.1376 38.1902 30.9956C38.0533 30.8536 37.8665 30.7702 37.6694 30.7631L37.6684 30.7621Z" fill="#673DE6"/>
</g>
<defs>
<clipPath id="clip0_158_76">
<rect width="60" height="60" fill="white"/>
</clipPath>
</defs>
</svg>
