<svg width="81" height="81" viewBox="0 0 81 81" fill="none" xmlns="http://www.w3.org/2000/svg">
<g clip-path="url(#clip0_150_776)">
<path d="M40.5 81C62.8675 81 81 62.8675 81 40.5C81 18.1325 62.8675 0 40.5 0C18.1325 0 0 18.1325 0 40.5C0 62.8675 18.1325 81 40.5 81Z" fill="#F4F5FF"/>
<path d="M52.993 45.9931C52.3744 45.9952 51.7716 46.1886 51.2671 46.5466C50.7627 46.9046 50.3812 47.4099 50.175 47.9931H47.996V41.9931H50.996C52.1376 41.9841 53.2417 41.5847 54.1249 40.8613C55.008 40.1379 55.6171 39.134 55.8507 38.0166C56.0844 36.8991 55.9286 35.7354 55.4093 34.7187C54.8899 33.7021 54.0383 32.8937 52.996 32.4281C52.5513 31.6886 51.9227 31.0768 51.1715 30.6522C50.4203 30.2276 49.5719 30.0047 48.709 30.0051C48.4507 30.0044 48.1929 30.0279 47.939 30.0751C47.1783 29.3089 46.225 28.7622 45.1796 28.4926C44.1342 28.2229 43.0354 28.2404 41.999 28.5431C40.9732 27.4426 39.6572 26.6546 38.2028 26.27C36.7483 25.8854 35.2148 25.9199 33.7791 26.3694C32.3434 26.819 31.0641 27.6653 30.0888 28.8108C29.1135 29.9562 28.4819 31.3541 28.267 32.8431C27.3684 33.4314 26.6839 34.2944 26.3155 35.3033C25.9472 36.3123 25.9148 37.4133 26.223 38.4422C26.5313 39.4711 27.1638 40.3729 28.0262 41.0131C28.8887 41.6534 29.9349 41.9978 31.009 41.9951H34.009V49.9951H31.825C31.5891 49.3279 31.1249 48.7655 30.5145 48.4074C29.9041 48.0494 29.1868 47.9186 28.4893 48.0383C27.7918 48.158 27.159 48.5204 26.7029 49.0614C26.2468 49.6025 25.9966 50.2874 25.9966 50.9951C25.9966 51.7028 26.2468 52.3877 26.7029 52.9287C27.159 53.4698 27.7918 53.8322 28.4893 53.9519C29.1868 54.0715 29.9041 53.9408 30.5145 53.5827C31.1249 53.2246 31.5891 52.6623 31.825 51.9951H35.003C35.2682 51.9951 35.5226 51.8897 35.7101 51.7022C35.8977 51.5147 36.003 51.2603 36.003 50.9951V41.9951H40.003V50.1701C39.3358 50.406 38.7735 50.8702 38.4154 51.4806C38.0573 52.091 37.9265 52.8083 38.0462 53.5058C38.1659 54.2033 38.5283 54.836 39.0693 55.2922C39.6104 55.7483 40.2953 55.9985 41.003 55.9985C41.7107 55.9985 42.3956 55.7483 42.9367 55.2922C43.4777 54.836 43.8401 54.2033 43.9598 53.5058C44.0795 52.8083 43.9487 52.091 43.5906 51.4806C43.2326 50.8702 42.6702 50.406 42.003 50.1701V41.9951H46.003V48.9951C46.003 49.2603 46.1084 49.5147 46.2959 49.7022C46.4834 49.8897 46.7378 49.9951 47.003 49.9951H50.181C50.3645 50.514 50.6872 50.9725 51.1138 51.3203C51.5405 51.6681 52.0546 51.8918 52.5999 51.967C53.1452 52.0421 53.7006 51.9658 54.2054 51.7464C54.7102 51.5269 55.1449 51.1728 55.4619 50.7228C55.7789 50.2729 55.966 49.7443 56.0028 49.1951C56.0395 48.6459 55.9244 48.0972 55.67 47.609C55.4157 47.1209 55.032 46.7121 54.5609 46.4274C54.0898 46.1427 53.5494 45.9932 52.999 45.9951L52.993 45.9931ZM29.009 51.9901C28.8112 51.9901 28.6179 51.9314 28.4534 51.8216C28.289 51.7117 28.1608 51.5555 28.0851 51.3728C28.0094 51.19 27.9896 50.989 28.0282 50.795C28.0668 50.601 28.162 50.4228 28.3019 50.283C28.4418 50.1431 28.6199 50.0479 28.8139 50.0093C29.0079 49.9707 29.209 49.9905 29.3917 50.0662C29.5744 50.1419 29.7306 50.2701 29.8405 50.4345C29.9504 50.599 30.009 50.7923 30.009 50.9901C30.009 51.2553 29.9037 51.5097 29.7161 51.6972C29.5286 51.8847 29.2742 51.9901 29.009 51.9901ZM41.002 53.9901C40.8042 53.9901 40.6109 53.9314 40.4464 53.8216C40.282 53.7117 40.1538 53.5555 40.0781 53.3728C40.0024 53.19 39.9826 52.989 40.0212 52.795C40.0598 52.601 40.1551 52.4228 40.2949 52.283C40.4348 52.1431 40.6129 52.0479 40.8069 52.0093C41.0009 51.9707 41.202 51.9905 41.3847 52.0662C41.5674 52.1419 41.7236 52.2701 41.8335 52.4345C41.9434 52.599 42.002 52.7923 42.002 52.9901C42.0019 53.1215 41.9758 53.2516 41.9254 53.3729C41.875 53.4943 41.8011 53.6045 41.7081 53.6972C41.615 53.79 41.5046 53.8636 41.3831 53.9136C41.2616 53.9637 41.1314 53.9893 41 53.9891L41.002 53.9901ZM28.009 36.9981C28.0126 36.4464 28.1683 35.9065 28.4588 35.4375C28.7494 34.9686 29.1636 34.5889 29.656 34.3401C29.8076 34.2622 29.9367 34.147 30.0312 34.0052C30.1257 33.8635 30.1825 33.6999 30.196 33.5301C30.2946 32.326 30.7543 31.1798 31.5151 30.2414C32.2758 29.3029 33.3022 28.616 34.4597 28.2704C35.6173 27.9248 36.8523 27.9368 38.003 28.3046C39.1537 28.6725 40.1665 29.3791 40.909 30.3321C41.0458 30.507 41.2369 30.6314 41.4521 30.6857C41.6674 30.74 41.8946 30.7212 42.098 30.6321C42.9032 30.284 43.8006 30.2102 44.6518 30.4221C45.5031 30.6341 46.261 31.12 46.809 31.8051C46.932 31.9602 47.0983 32.0754 47.2869 32.1359C47.4754 32.1964 47.6777 32.1996 47.868 32.1451C48.1395 32.0554 48.4231 32.0082 48.709 32.0051C49.2647 32.0089 49.8083 32.167 50.2794 32.4617C50.7505 32.7564 51.1305 33.1761 51.377 33.6741C51.4361 33.7914 51.5177 33.896 51.6173 33.9818C51.7168 34.0676 51.8322 34.1329 51.957 34.1741C52.6201 34.4093 53.1794 34.8702 53.5372 35.4761C53.8949 36.082 54.0283 36.7943 53.9141 37.4886C53.7998 38.1829 53.4452 38.8149 52.9121 39.2742C52.3791 39.7334 51.7015 39.9907 50.998 40.0011H31.009C30.6148 40.0011 30.2244 39.9234 29.8603 39.7724C29.4961 39.6215 29.1652 39.4002 28.8866 39.1213C28.608 38.8424 28.3871 38.5114 28.2365 38.1471C28.0859 37.7827 28.0086 37.3923 28.009 36.9981V36.9981ZM52.993 49.9911C52.7952 49.9911 52.6019 49.9324 52.4374 49.8226C52.273 49.7127 52.1448 49.5565 52.0691 49.3738C51.9934 49.191 51.9736 48.99 52.0122 48.796C52.0508 48.602 52.146 48.4238 52.2859 48.284C52.4258 48.1441 52.6039 48.0489 52.7979 48.0103C52.9919 47.9717 53.193 47.9915 53.3757 48.0672C53.5584 48.1429 53.7146 48.2711 53.8245 48.4355C53.9344 48.6 53.993 48.7933 53.993 48.9911C53.993 49.2563 53.8877 49.5107 53.7001 49.6982C53.5126 49.8857 53.2582 49.9911 52.993 49.9911Z" fill="#673DE6"/>
</g>
<defs>
<clipPath id="clip0_150_776">
<rect width="81" height="81" fill="white"/>
</clipPath>
</defs>
</svg>
