<svg width="445" height="425" viewBox="0 0 445 425" fill="none" xmlns="http://www.w3.org/2000/svg">
<path d="M14.4879 262.11C14.4193 262.029 14.3707 261.934 14.3459 261.831C5.09788 223.632 6.6528 183.615 18.837 146.249C31.0212 108.883 53.3547 75.6404 83.3424 50.2356C113.33 24.8308 149.791 8.26419 188.651 2.38659C227.511 -3.49101 267.24 1.55192 303.4 16.952C303.483 16.9857 303.559 17.0356 303.622 17.0989C303.686 17.1621 303.736 17.2374 303.771 17.3203C303.805 17.4033 303.822 17.4922 303.822 17.5819C303.822 17.6717 303.803 17.7604 303.768 17.843C303.733 17.9256 303.682 18.0004 303.617 18.0629C303.553 18.1255 303.477 18.1747 303.393 18.2075C303.31 18.2404 303.221 18.2563 303.131 18.2543C303.041 18.2523 302.953 18.2325 302.871 18.196C266.942 2.90033 227.468 -2.10578 188.859 3.73679C150.249 9.57936 114.024 26.0405 84.2291 51.2817C54.4344 76.5229 32.2435 109.55 20.135 146.675C8.02645 183.799 6.47708 223.559 15.6599 261.513C15.6968 261.661 15.6825 261.817 15.6193 261.956C15.5561 262.095 15.4478 262.208 15.312 262.278C15.1762 262.348 15.0208 262.369 14.8712 262.339C14.7216 262.309 14.5865 262.229 14.4879 262.113V262.11Z" fill="#FEE1F1"/>
<path d="M139.25 408.308C139.151 408.192 139.095 408.047 139.089 407.895C139.083 407.743 139.129 407.593 139.219 407.471C139.308 407.348 139.437 407.259 139.583 407.218C139.73 407.177 139.886 407.187 140.026 407.246C175.927 422.416 215.346 427.279 253.858 421.291C292.37 415.303 328.451 398.7 358.051 373.346C419.779 320.758 445.993 239.923 426.46 162.391C426.437 162.305 426.432 162.214 426.444 162.126C426.456 162.037 426.486 161.952 426.531 161.875C426.577 161.798 426.637 161.73 426.709 161.677C426.78 161.623 426.862 161.584 426.949 161.562C427.035 161.541 427.126 161.536 427.214 161.55C427.303 161.563 427.388 161.594 427.464 161.64C427.541 161.686 427.607 161.747 427.66 161.82C427.712 161.892 427.75 161.974 427.771 162.061C437.249 199.738 436.047 239.31 424.3 276.342C415.352 304.473 400.655 330.437 381.142 352.589C361.629 374.74 337.726 392.594 310.948 405.019C284.17 417.444 255.103 424.169 225.589 424.767C196.075 425.365 166.759 419.823 139.5 408.493C139.403 408.452 139.318 408.389 139.25 408.308V408.308Z" fill="#FEE1F1"/>
<path d="M123.629 420.306C123.571 420.238 123.527 420.16 123.5 420.076C123.473 419.991 123.462 419.902 123.469 419.814C123.476 419.725 123.501 419.639 123.541 419.56C123.582 419.481 123.637 419.41 123.705 419.353L442.999 147.359C443.066 147.298 443.145 147.252 443.23 147.222C443.316 147.192 443.406 147.18 443.497 147.186C443.587 147.191 443.675 147.215 443.756 147.256C443.837 147.297 443.909 147.353 443.967 147.422C444.026 147.491 444.07 147.571 444.097 147.657C444.125 147.743 444.134 147.834 444.126 147.924C444.117 148.015 444.09 148.102 444.047 148.182C444.004 148.261 443.946 148.331 443.875 148.388L124.582 420.382C124.514 420.44 124.436 420.483 124.352 420.511C124.267 420.538 124.178 420.549 124.09 420.542C124.001 420.535 123.915 420.51 123.836 420.47C123.757 420.429 123.687 420.374 123.629 420.306V420.306Z" fill="#FEE1F1"/>
<path d="M0.161029 275.628C0.103443 275.56 0.0597285 275.482 0.0323824 275.398C0.00503626 275.313 -0.0054061 275.224 0.00165119 275.136C0.00870847 275.047 0.0331338 274.961 0.0735201 274.882C0.113906 274.803 0.169467 274.733 0.237033 274.675L319.531 2.68104C319.599 2.62346 319.677 2.57975 319.761 2.5524C319.846 2.52506 319.935 2.51461 320.023 2.52167C320.112 2.52873 320.198 2.55315 320.277 2.59353C320.356 2.63392 320.426 2.68948 320.484 2.75705C320.542 2.82461 320.585 2.90286 320.613 2.98732C320.64 3.07177 320.65 3.16079 320.643 3.24929C320.636 3.33778 320.612 3.42401 320.572 3.50307C320.531 3.58213 320.476 3.65246 320.408 3.71004L1.11403 275.704C1.04647 275.762 0.968221 275.805 0.883762 275.833C0.799303 275.86 0.710294 275.87 0.621799 275.863C0.533304 275.856 0.447057 275.832 0.367999 275.792C0.288942 275.751 0.218613 275.696 0.161029 275.628V275.628Z" fill="#FEE1F1"/>
<path d="M123.629 420.306C123.571 420.238 123.527 420.16 123.5 420.076C123.473 419.991 123.462 419.902 123.469 419.814C123.476 419.725 123.501 419.639 123.541 419.56C123.582 419.481 123.637 419.41 123.705 419.353L442.999 147.359C443.066 147.298 443.145 147.252 443.23 147.222C443.316 147.192 443.406 147.18 443.497 147.186C443.587 147.191 443.675 147.215 443.756 147.256C443.837 147.297 443.909 147.353 443.967 147.422C444.026 147.491 444.07 147.571 444.097 147.657C444.125 147.743 444.134 147.834 444.126 147.924C444.117 148.015 444.09 148.102 444.047 148.182C444.004 148.261 443.946 148.331 443.875 148.388L124.582 420.382C124.514 420.44 124.436 420.483 124.352 420.511C124.267 420.538 124.178 420.549 124.09 420.542C124.001 420.535 123.915 420.51 123.836 420.47C123.757 420.429 123.687 420.374 123.629 420.306V420.306Z" fill="#FEE1F1"/>
<path d="M374.477 112.667H250.435V112.02C250.435 111.77 250.386 111.522 250.29 111.291C250.194 111.06 250.053 110.851 249.876 110.674C249.699 110.498 249.489 110.358 249.257 110.263C249.026 110.168 248.778 110.119 248.528 110.12H196.097C195.847 110.119 195.599 110.168 195.368 110.263C195.137 110.358 194.926 110.498 194.749 110.674C194.572 110.851 194.431 111.06 194.335 111.291C194.239 111.522 194.19 111.77 194.19 112.02V112.667H69.6361C67.4151 112.663 65.2834 113.542 63.71 115.109C62.1366 116.677 61.2503 118.805 61.2461 121.026V290.24C61.2503 292.461 62.1366 294.59 63.71 296.157C65.2834 297.725 67.4151 298.603 69.6361 298.599H374.477C375.577 298.601 376.666 298.387 377.683 297.968C378.7 297.549 379.625 296.934 380.404 296.157C381.183 295.381 381.802 294.459 382.224 293.444C382.647 292.429 382.866 291.34 382.868 290.24V121.026C382.864 118.805 381.978 116.677 380.404 115.109C378.831 113.542 376.699 112.663 374.478 112.667H374.477Z" fill="#3F3D56"/>
<path d="M76.253 130.493C76.0453 130.493 75.8461 130.575 75.699 130.722C75.5519 130.869 75.4688 131.067 75.468 131.275V291.775C75.4688 291.983 75.5519 292.182 75.699 292.328C75.8461 292.475 76.0453 292.557 76.253 292.557H367.853C368.061 292.557 368.26 292.475 368.407 292.329C368.555 292.182 368.637 291.983 368.638 291.775V131.275C368.637 131.067 368.554 130.869 368.407 130.722C368.26 130.575 368.061 130.493 367.853 130.493H76.253Z" fill="#FC5185"/>
<path d="M221.801 122.638C223.489 122.638 224.857 121.27 224.857 119.582C224.857 117.894 223.489 116.526 221.801 116.526C220.113 116.526 218.745 117.894 218.745 119.582C218.745 121.27 220.113 122.638 221.801 122.638Z" fill="#FC5185"/>
<path d="M388.399 287.47H359.216V284.47C359.216 284.305 359.029 284.17 358.799 284.17H348.793C348.563 284.17 348.376 284.304 348.376 284.47V287.47H342.123V284.47C342.123 284.305 341.936 284.17 341.706 284.17H331.704C331.474 284.17 331.287 284.304 331.287 284.47V287.47H325.033V284.47C325.033 284.305 324.846 284.17 324.616 284.17H314.604C314.374 284.17 314.187 284.304 314.187 284.47V287.47H307.934V284.47C307.934 284.305 307.747 284.17 307.517 284.17H297.515C297.285 284.17 297.098 284.304 297.098 284.47V287.47H290.844V284.47C290.844 284.305 290.657 284.17 290.427 284.17H280.422C280.192 284.17 280.005 284.304 280.005 284.47V287.47H273.752V284.47C273.752 284.305 273.565 284.17 273.335 284.17H263.33C263.1 284.17 262.913 284.304 262.913 284.47V287.47H256.659V284.47C256.659 284.305 256.472 284.17 256.242 284.17H177.866C177.636 284.17 177.449 284.304 177.449 284.47V287.47H171.196V284.47C171.196 284.305 171.009 284.17 170.779 284.17H160.773C160.543 284.17 160.356 284.304 160.356 284.47V287.47H154.104V284.47C154.104 284.305 153.917 284.17 153.687 284.17H143.68C143.45 284.17 143.263 284.304 143.263 284.47V287.47H137.01V284.47C137.01 284.305 136.823 284.17 136.593 284.17H126.588C126.358 284.17 126.171 284.304 126.171 284.47V287.47H119.917V284.47C119.917 284.305 119.73 284.17 119.5 284.17H109.495C109.265 284.17 109.078 284.304 109.078 284.47V287.47H102.824V284.47C102.824 284.305 102.637 284.17 102.407 284.17H92.404C92.174 284.17 91.987 284.304 91.987 284.47V287.47H85.734V284.47C85.734 284.305 85.547 284.17 85.317 284.17H75.309C75.079 284.17 74.892 284.304 74.892 284.47V287.47H55.715C50.189 287.47 45.709 290.679 45.709 294.638V297.879C45.709 301.838 50.189 305.047 55.715 305.047H388.399C393.925 305.047 398.405 301.838 398.405 297.879V294.638C398.404 290.679 393.924 287.47 388.399 287.47Z" fill="#3F3D56"/>
<path d="M187.985 197.982H102.149C101.97 197.982 101.798 197.911 101.671 197.784C101.544 197.657 101.473 197.485 101.473 197.306C101.473 197.127 101.544 196.955 101.671 196.828C101.798 196.701 101.97 196.63 102.149 196.63H187.985C188.164 196.63 188.336 196.701 188.463 196.828C188.59 196.955 188.661 197.127 188.661 197.306C188.661 197.485 188.59 197.657 188.463 197.784C188.336 197.911 188.164 197.982 187.985 197.982V197.982Z" fill="#F2F2F2"/>
<path d="M187.985 212.892H102.149C101.97 212.892 101.798 212.821 101.671 212.694C101.544 212.567 101.473 212.395 101.473 212.216C101.473 212.037 101.544 211.865 101.671 211.738C101.798 211.611 101.97 211.54 102.149 211.54H187.985C188.164 211.54 188.336 211.611 188.463 211.738C188.59 211.865 188.661 212.037 188.661 212.216C188.661 212.395 188.59 212.567 188.463 212.694C188.336 212.821 188.164 212.892 187.985 212.892V212.892Z" fill="#F2F2F2"/>
<path d="M187.985 227.799H102.149C101.97 227.799 101.798 227.728 101.671 227.601C101.544 227.474 101.473 227.302 101.473 227.123C101.473 226.943 101.544 226.772 101.671 226.645C101.798 226.518 101.97 226.447 102.149 226.447H187.985C188.164 226.447 188.336 226.518 188.463 226.645C188.59 226.772 188.661 226.943 188.661 227.123C188.661 227.302 188.59 227.474 188.463 227.601C188.336 227.728 188.164 227.799 187.985 227.799V227.799Z" fill="#F2F2F2"/>
<path d="M332.778 159.16H229.33C227.474 159.16 225.97 160.664 225.97 162.52V261.912C225.97 263.768 227.474 265.272 229.33 265.272H332.778C334.634 265.272 336.138 263.768 336.138 261.912V162.52C336.138 160.664 334.634 159.16 332.778 159.16Z" fill="white"/>
<path d="M248.006 215.318C248.37 208.891 251.005 202.803 255.44 198.139C259.876 193.474 265.823 190.536 272.223 189.848C278.623 189.16 285.059 190.767 290.384 194.383C295.71 197.999 299.578 203.389 301.299 209.591C301.628 209.579 301.957 209.566 302.289 209.566C303.421 209.577 304.545 209.768 305.617 210.132C319.128 214.569 315.57 234.741 301.349 234.741H266.399C263.927 234.748 261.479 234.256 259.202 233.295C256.925 232.333 254.865 230.922 253.146 229.146C251.427 227.37 250.084 225.265 249.197 222.958C248.311 220.651 247.899 218.188 247.986 215.718C247.992 215.585 247.999 215.452 248.006 215.318Z" fill="#673DE6"/>
<path d="M279.827 214.906V203.788H273.841V214.906H269.062L272.948 221.638L276.835 228.369L280.721 221.638L284.607 214.906H279.827Z" fill="white"/>
</svg>
