<svg xmlns="http://www.w3.org/2000/svg" width="471.181" height="272.316" viewBox="0 0 471.181 272.316">
  <g id="Group_4491" data-name="Group 4491" transform="translate(-128.653 -3077)">
    <g id="Group_4488" data-name="Group 4488" transform="translate(128.653 3080.89)">
      <path id="Path_949" data-name="Path 949" d="M884.417,484.284a7.587,7.587,0,0,0-1.168-.25l-15.774-32.052,4.816-7.22-9.946-8.692-12.5,15.3,25.464,37.06a7.56,7.56,0,1,0,9.111-4.146Z" transform="translate(-780.904 -371.087)" fill="#a0616a"/>
      <path id="Path_950" data-name="Path 950" d="M854.458,434.646a3.248,3.248,0,0,0,.732.577l16.139,9.356a3.241,3.241,0,0,0,4.555-1.417l7.85-16.584a3.225,3.225,0,0,0-1.107-4.066l-10-6.806a3.243,3.243,0,0,0-4.119.392l-13.984,14.033a3.244,3.244,0,0,0-.062,4.516Z" transform="translate(-777.872 -365.235)" fill="#07ca8d"/>
      <path id="Path_951" data-name="Path 951" d="M697.217,502.928l8.521,2.319,13-31.764L706.16,470.06Z" transform="translate(-643.293 -249.853)" fill="#a0616a"/>
      <path id="Path_952" data-name="Path 952" d="M10.724,10.723H27.755V0H0A10.723,10.723,0,0,0,10.724,10.723Z" transform="translate(76.726 267.775) rotate(-164.779)" fill="#2f2e41"/>
      <path id="Path_953" data-name="Path 953" d="M607.87,511.491H616.7l4.2-34.063H607.869Z" transform="translate(-481.099 -251.913)" fill="#a0616a"/>
      <path id="Path_954" data-name="Path 954" d="M607.089,521.212H590.057v10.724h27.755A10.724,10.724,0,0,0,607.089,521.212Z" transform="translate(-465.177 -264.159)" fill="#2f2e41"/>
      <ellipse id="Ellipse_61" data-name="Ellipse 61" cx="17.692" cy="17.692" rx="17.692" ry="17.692" transform="translate(99.775 3.78)" fill="#a0616a"/>
      <path id="Path_955" data-name="Path 955" d="M871.3,619.642h12.068A3.251,3.251,0,0,0,886.6,616.6c3.6-57.166,1.492-98.173-6.62-129.049a3.411,3.411,0,0,0-.131-.4l-.646-1.616a3.226,3.226,0,0,0-3.01-2.038H851.379a3.236,3.236,0,0,0-2.461,1.132l-3.371,3.933c-.066.077-.127.155-.187.237-15.2,21.2-28.821,62.636-44.6,118.334a3.231,3.231,0,0,0,2.131,3.974l12.969,4.15a3.259,3.259,0,0,0,3.908-1.68l33.656-69.805a2.521,2.521,0,0,1,4.769.753l9.889,72.311A3.254,3.254,0,0,0,871.3,619.642Z" transform="translate(-743.984 -384.352)" fill="#2f2e41"/>
      <path id="Path_956" data-name="Path 956" d="M824.98,465.494h.1l30.145-.952a3.231,3.231,0,0,0,3.118-2.848c3.821-30.932-6.659-39.219-11.342-41.345a2.492,2.492,0,0,1-1.45-1.976l-.405-3.242a3.23,3.23,0,0,0-.641-1.574,37.043,37.043,0,0,0-22.692-13.527,3.236,3.236,0,0,0-3.782,2.773l-.607,4.655a2.563,2.563,0,0,1-.514,1.218c-15.313,20.019,1.746,49.578,5.322,55.3h0A3.247,3.247,0,0,0,824.98,465.494Z" transform="translate(-722.057 -360.993)" fill="#07ca8d"/>
      <path id="Path_957" data-name="Path 957" d="M811.085,369.32a70.415,70.415,0,0,1,14.05-14.709,41.728,41.728,0,0,1,14.918-7.892c5.483-1.425,11.539-1.183,16.541,1.476s10.175,7.941,10.207,13.607c.01,1.82-.453,4.282-2.245,3.967l-.518.069-12.971-2.62-5.525,19.172c-.388,1.347-.909,2.853-2.187,3.427-1.2.541-2.6.031-3.815-.477-.2-.084-1.922-3.949-1.922-3.949a.72.72,0,0,0-1.241-.208l-1.023,1.278a1.441,1.441,0,0,1-1.68.429l-21.153-8.83c-.974-.407-2.064-.938-2.346-1.956A3.489,3.489,0,0,1,811.085,369.32Z" transform="translate(-729.313 -345.857)" fill="#2f2e41"/>
      <path id="Path_958" data-name="Path 958" d="M698.7,717.941H915.516a.72.72,0,1,0,0-1.441H698.7a.72.72,0,1,0,0,1.441Z" transform="translate(-697.976 -449.515)" fill="#3f3d56"/>
      <path id="Path_959" data-name="Path 959" d="M819.072,554.2a2.307,2.307,0,0,0,1.361-.451l3.279-2.382a1.589,1.589,0,0,1,1.874,0l3.279,2.382a2.315,2.315,0,0,0,3.562-2.588l-1.253-3.854a1.59,1.59,0,0,1,.579-1.783l3.279-2.382a2.315,2.315,0,0,0-1.361-4.187h-4.053a1.591,1.591,0,0,1-1.516-1.1L826.851,534a2.315,2.315,0,0,0-4.4,0l-1.253,3.855a1.59,1.59,0,0,1-1.516,1.1h-4.053a2.315,2.315,0,0,0-1.361,4.187l3.279,2.382a1.591,1.591,0,0,1,.579,1.783l-1.253,3.855a2.28,2.28,0,0,0,.841,2.588,2.307,2.307,0,0,0,1.36.451Z" transform="translate(-700.806 -398.027)" fill="#01c98a"/>
      <path id="Path_960" data-name="Path 960" d="M843.741,521.123a7.738,7.738,0,0,1-1.013-11.822l-5.6-67.618,16.671,2.293.317,65.7a7.78,7.78,0,0,1-10.376,11.45Z" transform="translate(-738.006 -372.656)" fill="#a0616a"/>
      <path id="Path_961" data-name="Path 961" d="M839.308,443.993a3.253,3.253,0,0,0,.922-.134l17.9-5.264a3.241,3.241,0,0,0,2.108-4.28l-6.623-17.111a3.225,3.225,0,0,0-3.712-2l-11.824,2.57a3.243,3.243,0,0,0-2.552,3.257l.55,19.8A3.244,3.244,0,0,0,839.308,443.993Z" transform="translate(-741.274 -365.231)" fill="#07ca8d"/>
    </g>
    <g id="Group_4490" data-name="Group 4490" transform="translate(366.705 3209.761)">
      <path id="Path_962" data-name="Path 962" d="M202.741,506.377H428.435a3.721,3.721,0,0,0,3.717-3.717V435.217a3.721,3.721,0,0,0-3.717-3.717H202.741a3.722,3.722,0,0,0-3.717,3.717V502.66a3.722,3.722,0,0,0,3.717,3.717Zm225.694-73.815a2.658,2.658,0,0,1,2.655,2.655V502.66a2.658,2.658,0,0,1-2.655,2.655H202.741a2.658,2.658,0,0,1-2.655-2.655V435.217a2.658,2.658,0,0,1,2.655-2.655Z" transform="translate(-199.024 -431.5)" fill="#3f3d56"/>
      <g id="Group_4487" data-name="Group 4487" transform="translate(5.207 83.586)">
        <path id="Path_963" data-name="Path 963" d="M368.436,608.588a2.084,2.084,0,0,0,1.229-.407l2.961-2.151a1.435,1.435,0,0,1,1.693,0l2.961,2.151a2.091,2.091,0,0,0,3.217-2.337l-1.131-3.481a1.437,1.437,0,0,1,.523-1.61l2.961-2.151a2.09,2.09,0,0,0-1.229-3.782h-3.66a1.436,1.436,0,0,1-1.369-.995l-1.131-3.481a2.091,2.091,0,0,0-3.977,0l-1.131,3.481a1.436,1.436,0,0,1-1.369.995h-3.661a2.09,2.09,0,0,0-1.229,3.782l2.961,2.151a1.437,1.437,0,0,1,.523,1.61l-1.131,3.481a2.059,2.059,0,0,0,.759,2.337,2.084,2.084,0,0,0,1.229.407Z" transform="translate(-273.208 -588.899)" fill="#01c98a"/>
        <path id="Path_964" data-name="Path 964" d="M424.944,608.588a2.084,2.084,0,0,0,1.229-.407l2.961-2.151a1.435,1.435,0,0,1,1.693,0l2.961,2.151a2.091,2.091,0,0,0,3.217-2.337l-1.131-3.481a1.437,1.437,0,0,1,.523-1.61l2.961-2.151a2.091,2.091,0,0,0-1.229-3.782h-3.66a1.436,1.436,0,0,1-1.369-.995l-1.131-3.481a2.09,2.09,0,0,0-3.976,0l-1.131,3.481a1.437,1.437,0,0,1-1.37.995h-3.66A2.091,2.091,0,0,0,420.6,598.6l2.961,2.151a1.437,1.437,0,0,1,.523,1.61l-1.131,3.481a2.059,2.059,0,0,0,.759,2.337A2.084,2.084,0,0,0,424.944,608.588Z" transform="translate(-359.724 -588.899)" fill="#01c98a"/>
        <path id="Path_965" data-name="Path 965" d="M481.453,608.588a2.084,2.084,0,0,0,1.229-.407l2.961-2.151a1.438,1.438,0,0,1,1.693,0l2.961,2.151a2.09,2.09,0,0,0,3.217-2.337l-1.131-3.481a1.437,1.437,0,0,1,.523-1.61l2.961-2.151a2.091,2.091,0,0,0-1.229-3.782h-3.66a1.436,1.436,0,0,1-1.369-.995l-1.131-3.481a2.09,2.09,0,0,0-3.976,0l-1.131,3.481a1.436,1.436,0,0,1-1.369.995h-3.66a2.091,2.091,0,0,0-1.229,3.782l2.961,2.151a1.437,1.437,0,0,1,.523,1.61l-1.131,3.481a2.059,2.059,0,0,0,.759,2.337A2.084,2.084,0,0,0,481.453,608.588Z" transform="translate(-446.242 -588.899)" fill="#01c98a"/>
        <path id="Path_966" data-name="Path 966" d="M537.961,608.588a2.084,2.084,0,0,0,1.229-.407l2.961-2.151a1.435,1.435,0,0,1,1.693,0l2.961,2.152a2.09,2.09,0,0,0,3.217-2.337l-1.131-3.481a1.436,1.436,0,0,1,.523-1.61l2.961-2.152a2.09,2.09,0,0,0-1.229-3.782h-3.66a1.436,1.436,0,0,1-1.37-.995l-1.131-3.481a2.09,2.09,0,0,0-3.976,0l-1.131,3.481a1.436,1.436,0,0,1-1.369.995h-3.66a2.091,2.091,0,0,0-1.229,3.782l2.961,2.151a1.437,1.437,0,0,1,.523,1.61l-1.131,3.481a2.059,2.059,0,0,0,.759,2.337A2.084,2.084,0,0,0,537.961,608.588Z" transform="translate(-532.758 -588.899)" fill="#01c98a"/>
      </g>
      <path id="Path_967" data-name="Path 967" d="M604.361,608.613a2.29,2.29,0,0,0,1.35-.446,2.262,2.262,0,0,0,.834-2.568l-1.131-3.481a1.231,1.231,0,0,1,.448-1.38l2.961-2.152a2.3,2.3,0,0,0-1.35-4.154h-3.66a1.231,1.231,0,0,1-1.174-.853l-1.131-3.481a2.3,2.3,0,0,0-4.368,0l-1.131,3.481a1.231,1.231,0,0,1-1.174.853h-3.66a2.3,2.3,0,0,0-1.35,4.154l2.961,2.152a1.231,1.231,0,0,1,.448,1.38L592.1,605.6a2.3,2.3,0,0,0,3.534,2.567l2.961-2.151a1.231,1.231,0,0,1,1.451,0l2.961,2.151A2.289,2.289,0,0,0,604.361,608.613Zm-5.036-3.9a2.291,2.291,0,0,0-1.349.44l-2.962,2.152a1.234,1.234,0,0,1-1.9-1.38l1.131-3.481a2.29,2.29,0,0,0-.834-2.567l-2.961-2.152a1.234,1.234,0,0,1,.725-2.233h3.66a2.29,2.29,0,0,0,2.184-1.587l1.131-3.481a1.234,1.234,0,0,1,2.348,0l1.131,3.481a2.29,2.29,0,0,0,2.184,1.587h3.66a1.234,1.234,0,0,1,.726,2.233l-2.961,2.152a2.291,2.291,0,0,0-.834,2.567l1.131,3.481a1.234,1.234,0,0,1-1.9,1.38l-2.961-2.151a2.293,2.293,0,0,0-1.35-.44Z" transform="translate(-463.844 -505.132)" fill="#3f3d56"/>
      <path id="Path_968" data-name="Path 968" d="M425.689,461.5a3.452,3.452,0,0,1,0,6.9H250.976a3.452,3.452,0,0,1,0-6.9Z" transform="translate(-221.769 -445.569)" fill="#ccc"/>
      <path id="Path_969" data-name="Path 969" d="M425.689,495.5a3.452,3.452,0,0,1,0,6.9H250.976a3.452,3.452,0,0,1,0-6.9Z" transform="translate(-221.769 -461.513)" fill="#ccc"/>
      <path id="Path_970" data-name="Path 970" d="M425.689,529.5a3.452,3.452,0,0,1,0,6.9H250.976a3.452,3.452,0,0,1,0-6.9Z" transform="translate(-221.769 -477.458)" fill="#ccc"/>
      <path id="Path_971" data-name="Path 971" d="M425.689,461.5a3.452,3.452,0,0,1,0,6.9H250.976a3.452,3.452,0,0,1,0-6.9Z" transform="translate(-221.769 -445.569)" fill="#ccc"/>
      <path id="Path_972" data-name="Path 972" d="M425.689,495.5a3.452,3.452,0,0,1,0,6.9H250.976a3.452,3.452,0,0,1,0-6.9Z" transform="translate(-221.769 -461.513)" fill="#ccc"/>
      <path id="Path_973" data-name="Path 973" d="M425.689,529.5a3.452,3.452,0,0,1,0,6.9H250.976a3.452,3.452,0,0,1,0-6.9Z" transform="translate(-221.769 -477.458)" fill="#ccc"/>
    </g>
    <g id="Group_4489" data-name="Group 4489" transform="translate(366.705 3077)">
      <path id="Path_974" data-name="Path 974" d="M202.741,256.377H428.435a3.721,3.721,0,0,0,3.717-3.717V185.217a3.721,3.721,0,0,0-3.717-3.717H202.741a3.722,3.722,0,0,0-3.717,3.717V252.66a3.721,3.721,0,0,0,3.717,3.717Zm225.694-73.815a2.658,2.658,0,0,1,2.655,2.655V252.66a2.658,2.658,0,0,1-2.655,2.655H202.741a2.658,2.658,0,0,1-2.655-2.655V185.217a2.658,2.658,0,0,1,2.655-2.655Z" transform="translate(-199.024 -181.5)" fill="#3f3d56"/>
      <g id="Group_4486" data-name="Group 4486" transform="translate(5.207 83.586)">
        <path id="Path_975" data-name="Path 975" d="M368.436,358.588a2.084,2.084,0,0,0,1.229-.407l2.961-2.151a1.435,1.435,0,0,1,1.693,0l2.961,2.151a2.091,2.091,0,0,0,3.217-2.337l-1.131-3.481a1.437,1.437,0,0,1,.523-1.61l2.961-2.151a2.09,2.09,0,0,0-1.229-3.782h-3.661a1.436,1.436,0,0,1-1.369-.995l-1.131-3.481a2.091,2.091,0,0,0-3.977,0l-1.131,3.481a1.436,1.436,0,0,1-1.369.995h-3.66a2.091,2.091,0,0,0-1.229,3.782l2.961,2.151a1.437,1.437,0,0,1,.523,1.61l-1.131,3.481a2.059,2.059,0,0,0,.759,2.337A2.085,2.085,0,0,0,368.436,358.588Z" transform="translate(-303.216 -338.899)" fill="#01c98a"/>
        <path id="Path_976" data-name="Path 976" d="M424.944,358.588a2.084,2.084,0,0,0,1.229-.407l2.961-2.151a1.435,1.435,0,0,1,1.693,0l2.961,2.151a2.09,2.09,0,0,0,3.217-2.337l-1.131-3.481a1.437,1.437,0,0,1,.523-1.61l2.961-2.151a2.091,2.091,0,0,0-1.229-3.782h-3.66a1.436,1.436,0,0,1-1.369-.995l-1.131-3.481a2.09,2.09,0,0,0-3.976,0l-1.131,3.481a1.436,1.436,0,0,1-1.37.995h-3.66A2.091,2.091,0,0,0,420.6,348.6l2.961,2.151a1.436,1.436,0,0,1,.523,1.61l-1.131,3.481a2.059,2.059,0,0,0,.76,2.337A2.083,2.083,0,0,0,424.944,358.588Z" transform="translate(-389.732 -338.899)" fill="#01c98a"/>
        <path id="Path_977" data-name="Path 977" d="M481.453,358.588a2.084,2.084,0,0,0,1.229-.407l2.961-2.151a1.438,1.438,0,0,1,1.693,0l2.961,2.151a2.09,2.09,0,0,0,3.217-2.337l-1.131-3.481a1.437,1.437,0,0,1,.523-1.61l2.961-2.151a2.091,2.091,0,0,0-1.229-3.782h-3.66a1.436,1.436,0,0,1-1.369-.995l-1.131-3.481a2.09,2.09,0,0,0-3.976,0l-1.131,3.481a1.436,1.436,0,0,1-1.369.995h-3.66a2.091,2.091,0,0,0-1.229,3.782l2.961,2.151a1.437,1.437,0,0,1,.523,1.61l-1.131,3.481a2.059,2.059,0,0,0,.759,2.337A2.084,2.084,0,0,0,481.453,358.588Z" transform="translate(-476.25 -338.899)" fill="#01c98a"/>
      </g>
      <g id="Group_4485" data-name="Group 4485" transform="translate(94.765 83.295)">
        <path id="Path_978" data-name="Path 978" d="M604.361,358.613a2.29,2.29,0,0,0,1.349-.447,2.263,2.263,0,0,0,.834-2.568l-1.131-3.481a1.231,1.231,0,0,1,.448-1.38l2.961-2.152a2.3,2.3,0,0,0-1.35-4.154h-3.66a1.231,1.231,0,0,1-1.174-.853l-1.131-3.481a2.3,2.3,0,0,0-4.368,0l-1.131,3.481a1.231,1.231,0,0,1-1.174.853h-3.66a2.3,2.3,0,0,0-1.35,4.154l2.961,2.152a1.231,1.231,0,0,1,.448,1.38L592.1,355.6a2.3,2.3,0,0,0,3.534,2.567l2.961-2.151a1.231,1.231,0,0,1,1.451,0l2.961,2.151a2.289,2.289,0,0,0,1.349.447Zm-5.036-3.9a2.292,2.292,0,0,0-1.349.44l-2.962,2.152a1.234,1.234,0,0,1-1.9-1.38l1.131-3.481a2.29,2.29,0,0,0-.834-2.567l-2.961-2.152a1.234,1.234,0,0,1,.725-2.233h3.66a2.29,2.29,0,0,0,2.184-1.587l1.131-3.481a1.234,1.234,0,0,1,2.348,0l1.131,3.481a2.29,2.29,0,0,0,2.184,1.587h3.66a1.234,1.234,0,0,1,.726,2.233l-2.961,2.152a2.291,2.291,0,0,0-.834,2.567l1.131,3.481a1.234,1.234,0,0,1-1.9,1.38l-2.961-2.151a2.292,2.292,0,0,0-1.35-.44Z" transform="translate(-588.879 -338.427)" fill="#3f3d56"/>
        <path id="Path_979" data-name="Path 979" d="M547.361,358.452a2.29,2.29,0,0,0,1.349-.447,2.263,2.263,0,0,0,.834-2.568l-1.131-3.481a1.231,1.231,0,0,1,.448-1.38l2.961-2.152a2.3,2.3,0,0,0-1.349-4.154h-3.66a1.231,1.231,0,0,1-1.174-.853l-1.131-3.481a2.3,2.3,0,0,0-4.368,0l-1.131,3.481a1.231,1.231,0,0,1-1.174.853h-3.66a2.3,2.3,0,0,0-1.35,4.154l2.961,2.152a1.231,1.231,0,0,1,.448,1.38l-1.131,3.481a2.3,2.3,0,0,0,3.534,2.567l2.961-2.151a1.231,1.231,0,0,1,1.451,0l2.961,2.151A2.289,2.289,0,0,0,547.361,358.452Zm-5.036-3.9a2.292,2.292,0,0,0-1.349.44l-2.962,2.152a1.234,1.234,0,0,1-1.9-1.38l1.131-3.481a2.29,2.29,0,0,0-.834-2.567l-2.961-2.152a1.234,1.234,0,0,1,.725-2.233h3.66a2.29,2.29,0,0,0,2.184-1.587l1.131-3.481a1.234,1.234,0,0,1,2.348,0l1.131,3.481a2.29,2.29,0,0,0,2.184,1.587h3.66a1.234,1.234,0,0,1,.726,2.233l-2.961,2.152a2.291,2.291,0,0,0-.834,2.567l1.131,3.481a1.234,1.234,0,0,1-1.9,1.38l-2.961-2.151a2.292,2.292,0,0,0-1.35-.44Z" transform="translate(-501.61 -338.351)" fill="#3f3d56"/>
      </g>
      <path id="Path_980" data-name="Path 980" d="M425.689,211.5a3.452,3.452,0,0,1,0,6.9H250.976a3.452,3.452,0,1,1,0-6.9Z" transform="translate(-221.769 -195.569)" fill="#ccc"/>
      <path id="Path_981" data-name="Path 981" d="M425.689,245.5a3.452,3.452,0,0,1,0,6.9H250.976a3.452,3.452,0,0,1,0-6.9Z" transform="translate(-221.769 -211.513)" fill="#ccc"/>
      <path id="Path_982" data-name="Path 982" d="M425.689,279.5a3.452,3.452,0,0,1,0,6.9H250.976a3.452,3.452,0,0,1,0-6.9Z" transform="translate(-221.769 -227.458)" fill="#ccc"/>
      <path id="Path_983" data-name="Path 983" d="M425.689,211.5a3.452,3.452,0,0,1,0,6.9H250.976a3.452,3.452,0,1,1,0-6.9Z" transform="translate(-221.769 -195.569)" fill="#ccc"/>
      <path id="Path_984" data-name="Path 984" d="M425.689,245.5a3.452,3.452,0,0,1,0,6.9H250.976a3.452,3.452,0,0,1,0-6.9Z" transform="translate(-221.769 -211.513)" fill="#ccc"/>
      <path id="Path_985" data-name="Path 985" d="M425.689,279.5a3.452,3.452,0,0,1,0,6.9H250.976a3.452,3.452,0,0,1,0-6.9Z" transform="translate(-221.769 -227.458)" fill="#ccc"/>
    </g>
  </g>
</svg>
