<svg xmlns="http://www.w3.org/2000/svg" xmlns:xlink="http://www.w3.org/1999/xlink" width="25" height="25" viewBox="0 0 25 25">
  <defs>
    <clipPath id="clip-path">
      <rect id="Rectangle_29" data-name="Rectangle 29" width="25" height="25" transform="translate(154 2423)" fill="#07ca8d"/>
    </clipPath>
  </defs>
  <g id="Mask_Group_4" data-name="Mask Group 4" transform="translate(-154 -2423)" clip-path="url(#clip-path)">
    <g id="ssl" transform="translate(153.182 2422.164)">
      <path id="Path_105" data-name="Path 105" d="M5,14.65a9.358,9.358,0,0,0,.126,1.688c-3.814,4.406-1.028,6.636,3.27,5.755,6.693,5.712,17.077-.107,15.63-8.863,2.088-2.39,1.986-3.864,1.5-4.689-.473-.807-1.693-1.623-4.774-1.066a9.534,9.534,0,0,0-6.18-2.269c-.136-.012-.077-.391-.126-.488a.838.838,0,0,0-1.065-.665,5.179,5.179,0,0,1-3.187-.2A4.749,4.749,0,0,1,8.332,2.576a.86.86,0,0,0-1.257,0A4.751,4.751,0,0,1,5.211,3.855a5.184,5.184,0,0,1-3.187.2.838.838,0,0,0-1.065.665A10.4,10.4,0,0,0,5,14.65Zm.059,5.536c-.133-.228-.092-.837.618-1.865a9.577,9.577,0,0,0,1.3,2.28c-1.236.081-1.783-.19-1.915-.415Zm9.517,2.51a7.852,7.852,0,0,1-4.054-1.13,34.869,34.869,0,0,0,11.967-6.787A7.922,7.922,0,0,1,14.575,22.7ZM24.092,9.381c.133.228.092.837-.618,1.865a9.575,9.575,0,0,0-1.3-2.28C23.413,8.886,23.96,9.157,24.092,9.381Zm-1.883,3.354A31.867,31.867,0,0,1,8.9,20.282a7.885,7.885,0,0,1-2.181-4.606c.432.179.833.482,1.294.3a10.306,10.306,0,0,0,6.55-9.1,7.923,7.923,0,0,1,7.649,5.864Zm-19.7-6.9a7.026,7.026,0,0,0,3.3-.425A6.584,6.584,0,0,0,7.7,4.287,6.584,6.584,0,0,0,9.6,5.41a7.024,7.024,0,0,0,3.3.425A8.637,8.637,0,0,1,7.7,14.3,8.64,8.64,0,0,1,2.513,5.836Z" fill="#07ca8d"/>
      <path id="Path_106" data-name="Path 106" d="M7.912,9.786a.833.833,0,1,0-.833-.833.833.833,0,0,0,.833.833Z" fill="#07ca8d"/>
    </g>
  </g>
</svg>
