<svg xmlns="http://www.w3.org/2000/svg" xmlns:xlink="http://www.w3.org/1999/xlink" width="25" height="25" viewBox="0 0 25 25">
  <defs>
    <clipPath id="clip-path">
      <rect id="Rectangle_31" data-name="Rectangle 31" width="25" height="25" transform="translate(15 15.245)" fill="#07ca8d"/>
    </clipPath>
  </defs>
  <g id="Mask_Group_3" data-name="Mask Group 3" transform="translate(-15 -15.245)" clip-path="url(#clip-path)">
    <g id="server" transform="translate(14.167 14.412)">
      <path id="Path_98" data-name="Path 98" d="M18.333,5.833A.833.833,0,1,0,17.5,5a.833.833,0,0,0,.833.833Z" fill="#07ca8d"/>
      <path id="Path_99" data-name="Path 99" d="M15,5.833A.833.833,0,1,0,14.167,5,.833.833,0,0,0,15,5.833Z" fill="#07ca8d"/>
      <path id="Path_100" data-name="Path 100" d="M8.333,5.833h2.083a.833.833,0,1,0,0-1.667H8.333a.833.833,0,1,0,0,1.667Z" fill="#07ca8d"/>
      <path id="Path_101" data-name="Path 101" d="M18.333,14.167a.833.833,0,1,0,.833.833.833.833,0,0,0-.833-.833Z" fill="#07ca8d"/>
      <path id="Path_102" data-name="Path 102" d="M15,14.167a.833.833,0,1,0,.833.833A.833.833,0,0,0,15,14.167Z" fill="#07ca8d"/>
      <path id="Path_103" data-name="Path 103" d="M10.417,14.167H8.333a.833.833,0,1,0,0,1.667h2.083a.833.833,0,1,0,0-1.667Z" fill="#07ca8d"/>
      <path id="Path_104" data-name="Path 104" d="M25,4.167H22.5V2.083A1.251,1.251,0,0,0,21.25.833H5.417a1.251,1.251,0,0,0-1.25,1.25V4.167h-2.5A.833.833,0,0,0,.833,5V15a.833.833,0,0,0,.833.833h2.5v2.083a1.251,1.251,0,0,0,1.25,1.25H12.5v1.812A2.508,2.508,0,0,0,10.979,22.5H8.333a.833.833,0,1,0,0,1.667h2.646a2.5,2.5,0,0,0,4.708,0h2.646a.833.833,0,1,0,0-1.667H15.687a2.508,2.508,0,0,0-1.521-1.521V19.167H21.25a1.251,1.251,0,0,0,1.25-1.25V15.833H25A.833.833,0,0,0,25.833,15V5A.833.833,0,0,0,25,4.167Zm-11.667,20a.833.833,0,1,1,.833-.833.833.833,0,0,1-.833.833ZM5.833,2.5h15v5h-15Zm15,15h-15v-5h15Zm3.333-3.333H22.5V12.083a1.251,1.251,0,0,0-1.25-1.25H5.417a1.251,1.251,0,0,0-1.25,1.25v2.083H2.5V5.833H4.167V7.917a1.251,1.251,0,0,0,1.25,1.25H21.25a1.251,1.251,0,0,0,1.25-1.25V5.833h1.667Z" fill="#07ca8d"/>
    </g>
  </g>
</svg>
