<svg xmlns="http://www.w3.org/2000/svg" xmlns:xlink="http://www.w3.org/1999/xlink" width="25" height="25" viewBox="0 0 25 25">
  <defs>
    <clipPath id="clip-path">
      <rect id="Rectangle_32" data-name="Rectangle 32" width="25" height="25" transform="translate(15 15.49)" fill="#07ca8d"/>
    </clipPath>
  </defs>
  <g id="Mask_Group_5" data-name="Mask Group 5" transform="translate(-15 -15.49)" clip-path="url(#clip-path)">
    <g id="communication" transform="translate(14.17 14.664)">
      <path id="Path_107" data-name="Path 107" d="M8.748,17.079a3.332,3.332,0,1,0-3.332,3.332A3.336,3.336,0,0,0,8.748,17.079ZM5.415,18.745a1.666,1.666,0,1,1,1.666-1.666,1.666,1.666,0,0,1-1.666,1.666Z" fill="#07ca8d"/>
      <path id="Path_108" data-name="Path 108" d="M24.577,17.079a3.332,3.332,0,1,0-3.332,3.332,3.336,3.336,0,0,0,3.332-3.332Zm-3.332,1.666a1.666,1.666,0,1,1,1.666-1.666,1.666,1.666,0,0,1-1.666,1.666Z" fill="#07ca8d"/>
      <path id="Path_109" data-name="Path 109" d="M22.494,20.411h-2.5a3.336,3.336,0,0,0-3.087,2.083H9.752a3.336,3.336,0,0,0-3.087-2.083h-2.5A3.336,3.336,0,0,0,.833,23.744v1.25a.833.833,0,0,0,.833.833h7.5A.833.833,0,0,0,10,24.993V24.16h6.665v.833a.833.833,0,0,0,.833.833h7.5a.833.833,0,0,0,.833-.833v-1.25a3.336,3.336,0,0,0-3.332-3.332ZM8.331,24.16H2.5a1.74,1.74,0,0,1,1.666-2.083h2.5A1.74,1.74,0,0,1,8.331,24.16Zm15.829,0H18.328a1.74,1.74,0,0,1,1.666-2.083h2.5A1.74,1.74,0,0,1,24.16,24.16Z" fill="#07ca8d"/>
      <path id="Path_110" data-name="Path 110" d="M6.749,11.62a8.4,8.4,0,0,0,2.273-.4,5.807,5.807,0,0,0,9.393-5.388c1.713-1.622,2.3-2.936,1.735-3.909C19.562.9,17.96.788,15.511,1.589a5.85,5.85,0,0,0-8.69,5.025c-1.9,1.725-2.57,3.117-1.977,4.139A2.013,2.013,0,0,0,6.749,11.62Zm5.9-.79a4.143,4.143,0,0,1-1.615-.326,28.311,28.311,0,0,0,5.741-3.3A4.169,4.169,0,0,1,12.65,10.83ZM18.68,2.772a3.406,3.406,0,0,1-.832,1.262,5.845,5.845,0,0,0-.769-1.154,3.507,3.507,0,0,1,1.6-.108ZM12.65,2.5a4.169,4.169,0,0,1,3.914,2.753A25.464,25.464,0,0,1,9.45,9.328,4.162,4.162,0,0,1,12.65,2.5ZM7.162,8.618a5.809,5.809,0,0,0,.6,1.209A3.284,3.284,0,0,1,6.313,9.9,3.4,3.4,0,0,1,7.162,8.618Z" fill="#07ca8d"/>
      <path id="Path_111" data-name="Path 111" d="M13.33,13.33a.833.833,0,1,0,.833.833.833.833,0,0,0-.833-.833Z" fill="#07ca8d"/>
      <path id="Path_112" data-name="Path 112" d="M13.33,19.995a.833.833,0,1,0,.833.833.833.833,0,0,0-.833-.833Z" fill="#07ca8d"/>
      <path id="Path_113" data-name="Path 113" d="M13.33,16.662a.833.833,0,1,0,.833.833.833.833,0,0,0-.833-.833Z" fill="#07ca8d"/>
    </g>
  </g>
</svg>
