<svg width="60" height="60" viewBox="0 0 60 60" fill="none" xmlns="http://www.w3.org/2000/svg">
<g clip-path="url(#clip0_448_2)">
<path d="M60 30C60 13.4315 46.5685 0 30 0C13.4315 0 0 13.4315 0 30C0 46.5685 13.4315 60 30 60C46.5685 60 60 46.5685 60 30Z" fill="#F4F5FF"/>
<path d="M21 36V30C21 28.8181 21.2328 27.6478 21.6851 26.5558C22.1374 25.4639 22.8003 24.4718 23.636 23.636C24.4718 22.8003 25.4639 22.1374 26.5558 21.6851C27.6478 21.2328 28.8181 21 30 21C31.1819 21 32.3522 21.2328 33.4442 21.6851C34.5361 22.1374 35.5282 22.8003 36.364 23.636C37.1997 24.4718 37.8626 25.4639 38.3149 26.5558C38.7672 27.6478 39 28.8181 39 30V36" stroke="#6741EE" stroke-width="2" stroke-linecap="round" stroke-linejoin="round"/>
<path d="M39 37C39 37.5304 38.7893 38.0391 38.4142 38.4142C38.0391 38.7893 37.5304 39 37 39H36C35.4696 39 34.9609 38.7893 34.5858 38.4142C34.2107 38.0391 34 37.5304 34 37V34C34 33.4696 34.2107 32.9609 34.5858 32.5858C34.9609 32.2107 35.4696 32 36 32H39V37ZM21 37C21 37.5304 21.2107 38.0391 21.5858 38.4142C21.9609 38.7893 22.4696 39 23 39H24C24.5304 39 25.0391 38.7893 25.4142 38.4142C25.7893 38.0391 26 37.5304 26 37V34C26 33.4696 25.7893 32.9609 25.4142 32.5858C25.0391 32.2107 24.5304 32 24 32H21V37Z" stroke="#6741EE" stroke-width="2" stroke-linecap="round" stroke-linejoin="round"/>
</g>
<defs>
<clipPath id="clip0_448_2">
<rect width="60" height="60" fill="white"/>
</clipPath>
</defs>
</svg>
