<svg width="60" height="60" viewBox="0 0 60 60" fill="none" xmlns="http://www.w3.org/2000/svg">
<g clip-path="url(#clip0_448_8)">
<path d="M60 30C60 13.4315 46.5685 0 30 0C13.4315 0 0 13.4315 0 30C0 46.5685 13.4315 60 30 60C46.5685 60 60 46.5685 60 30Z" fill="#F4F5FF"/>
<path d="M26.501 29L29.501 32L39.501 22" stroke="#6741EE" stroke-width="2" stroke-linecap="round" stroke-linejoin="round"/>
<path d="M38.501 30V37C38.501 37.5304 38.2903 38.0391 37.9152 38.4142C37.5401 38.7893 37.0314 39 36.501 39H22.501C21.9705 39 21.4618 38.7893 21.0868 38.4142C20.7117 38.0391 20.501 37.5304 20.501 37V23C20.501 22.4696 20.7117 21.9609 21.0868 21.5858C21.4618 21.2107 21.9705 21 22.501 21H33.501" stroke="#6741EE" stroke-width="2" stroke-linecap="round" stroke-linejoin="round"/>
</g>
<defs>
<clipPath id="clip0_448_8">
<rect width="60" height="60" fill="white"/>
</clipPath>
</defs>
</svg>
