<svg width="421" height="328" viewBox="0 0 421 328" fill="none" xmlns="http://www.w3.org/2000/svg">
<circle cx="158.5" cy="158.5" r="158.5" fill="#DFE7FD"/>
<path opacity="0.2" d="M229 125.933V129.531C229 131.305 230.424 132.729 232.198 132.729H238.12C239.494 132.729 240.719 133.604 241.144 134.928C241.543 136.202 242.068 137.427 242.668 138.601C243.292 139.825 243.068 141.325 242.093 142.299L237.895 146.497C236.646 147.746 236.646 149.77 237.895 151.02L240.444 153.568C241.693 154.818 243.717 154.818 244.967 153.568L249.164 149.37C250.139 148.396 251.638 148.146 252.862 148.796C254.037 149.395 255.261 149.92 256.536 150.32C257.835 150.745 258.734 151.969 258.734 153.343V159.265C258.734 161.039 260.159 162.464 261.933 162.464H265.531C267.305 162.464 268.729 161.039 268.729 159.265V153.343C268.729 151.969 269.604 150.745 270.928 150.32C272.202 149.92 273.427 149.395 274.601 148.796C275.825 148.171 277.325 148.396 278.299 149.37L282.497 153.568C283.746 154.818 285.77 154.818 287.02 153.568L289.568 151.02C290.818 149.77 290.818 147.746 289.568 146.497L285.37 142.299C284.396 141.325 284.146 139.825 284.796 138.601C285.395 137.427 285.92 136.202 286.32 134.928C286.745 133.629 287.969 132.729 289.343 132.729H295.265C297.039 132.729 298.464 131.305 298.464 129.531V125.933C298.464 124.159 297.039 122.734 295.265 122.734H289.343C287.969 122.734 286.745 121.86 286.32 120.536C285.92 119.261 285.395 118.037 284.796 116.862C284.171 115.638 284.396 114.139 285.37 113.164L289.568 108.967C290.818 107.717 290.818 105.693 289.568 104.444L287.02 101.895C285.77 100.646 283.746 100.646 282.497 101.895L278.299 106.093C277.325 107.068 275.825 107.317 274.601 106.668C273.427 106.068 272.202 105.543 270.928 105.144C269.629 104.719 268.729 103.494 268.729 102.12V96.1983C268.729 94.4243 267.305 93 265.531 93H261.933C260.159 93 258.734 94.4243 258.734 96.1983V102.12C258.734 103.494 257.86 104.719 256.536 105.144C255.261 105.543 254.037 106.068 252.862 106.668C251.638 107.293 250.139 107.068 249.164 106.093L244.967 101.895C243.717 100.646 241.693 100.646 240.444 101.895L237.895 104.444C236.646 105.693 236.646 107.717 237.895 108.967L242.093 113.164C243.068 114.139 243.317 115.638 242.668 116.862C242.068 118.037 241.543 119.261 241.144 120.536C240.719 121.835 239.494 122.734 238.12 122.734H232.198C230.424 122.734 229 124.159 229 125.933ZM266.131 115.688C270.928 116.588 274.876 120.536 275.775 125.333C277.425 133.979 269.978 141.425 261.308 139.8C256.511 138.901 252.563 134.953 251.663 130.156C250.014 121.51 257.46 114.064 266.131 115.688Z" fill="#673DE6"/>
<g clip-path="url(#clip0_515_1639)">
<path d="M267.812 27.999H101.996V134.649H267.812V27.999Z" fill="white"/>
<path d="M267.812 27.999H101.996V39.2197H267.812V27.999Z" fill="#9E97FF"/>
<path d="M109.854 33.6055C109.854 32.6782 109.106 31.9307 108.179 31.9307C107.251 31.9307 106.504 32.6782 106.504 33.6055C106.504 34.5328 107.251 35.2803 108.179 35.2803C109.106 35.2803 109.854 34.5328 109.854 33.6055Z" fill="#814EFF"/>
<path d="M116.92 33.6055C116.92 32.6782 116.172 31.9307 115.245 31.9307C114.318 31.9307 113.57 32.6782 113.57 33.6055C113.57 34.5328 114.318 35.2803 115.245 35.2803C116.172 35.2803 116.92 34.5328 116.92 33.6055Z" fill="#814EFF"/>
<path d="M123.994 33.6055C123.994 32.6782 123.247 31.9307 122.319 31.9307C121.392 31.9307 120.645 32.6782 120.645 33.6055C120.645 34.5328 121.392 35.2803 122.319 35.2803C123.247 35.2803 123.994 34.5328 123.994 33.6055Z" fill="#814EFF"/>
<path opacity="0.2" d="M196 78H247" stroke="#060305" stroke-width="0.718813" stroke-linecap="round" stroke-linejoin="round"/>
<path opacity="0.2" d="M196 83H247" stroke="#060305" stroke-width="0.718813" stroke-linecap="round" stroke-linejoin="round"/>
<path opacity="0.2" d="M196 89H247" stroke="#060305" stroke-width="0.718813" stroke-linecap="round" stroke-linejoin="round"/>
<path opacity="0.2" d="M196 94H247" stroke="#060305" stroke-width="0.718813" stroke-linecap="round" stroke-linejoin="round"/>
<path opacity="0.2" d="M196 99H247" stroke="#060305" stroke-width="0.718813" stroke-linecap="round" stroke-linejoin="round"/>
<path opacity="0.2" d="M196 105H247" stroke="#060305" stroke-width="0.718813" stroke-linecap="round" stroke-linejoin="round"/>
<path d="M272.862 83.3218C283.315 80.8546 289.789 70.3805 287.322 59.9273C284.854 49.4741 274.38 43.0002 263.927 45.4673C253.474 47.9345 247 58.4086 249.467 68.8618C251.934 79.315 262.408 85.7889 272.862 83.3218Z" fill="#9E97FF"/>
<path d="M268.526 76.833L253.789 58.8247L258.91 54.3505L267.802 65.2121L281.149 43.833L286.789 47.5987L268.526 76.833Z" fill="#060305"/>
<path d="M133.482 207.445C140.152 205.554 148.706 207.401 153.73 212.182C158.755 216.962 160.653 224.984 157.677 231.244C156.031 234.716 153.091 237.462 149.755 239.367C146.42 241.272 142.69 242.386 138.93 243.191L86.7946 251.17C85.8242 241.15 84.861 231.122 83.8906 221.102C100.258 216.473 117.114 212.074 133.482 207.445Z" fill="#263238"/>
<path d="M149.23 237.153C152.343 235.564 154.65 232.495 155.319 229.066" stroke="#060305" stroke-width="0.718813" stroke-linecap="round" stroke-linejoin="round"/>
<path d="M105.664 166.364C102.149 160.311 96.7863 154.884 90.3386 152.167C85.1919 150.004 80.2105 147.977 75.0638 145.813C74.1868 147.222 72.3754 147.977 70.7581 147.61C69.1408 147.243 67.5881 145.777 67.4013 144.131C61.3417 144.548 55.3252 145.561 49.4669 147.15C37.1105 150.5 27.7515 161.138 22.7773 172.941C25.8467 173.832 28.7147 174.68 31.7841 175.572C33.1067 186.792 34.494 197.69 35.8238 208.91C50.6745 211.06 65.8774 213.022 79.3695 219.592L96.24 219.743C99.065 208.141 101.998 196.669 104.815 185.067C108.129 183.299 111.795 181.581 115.109 179.813C111.968 175.306 108.41 171.122 105.656 166.378L105.664 166.364Z" fill="#FC5185"/>
<path d="M60.4492 145.223C61.5993 148.191 62.8716 151.261 65.2581 153.374C67.7092 155.538 71.2314 156.429 74.4158 155.689C77.6001 154.948 80.3675 152.59 81.6111 149.564" stroke="white" stroke-width="0.718813" stroke-linecap="round" stroke-linejoin="round"/>
<path d="M96.5145 155.905C95.8173 166.515 96.2917 177.197 97.9306 187.698" stroke="white" stroke-width="0.718813" stroke-linecap="round" stroke-linejoin="round"/>
<path d="M48.646 176.636C49.2929 171.331 49.9471 166.026 50.594 160.721C50.8025 159.032 51.0109 157.321 50.8312 155.625C50.6587 153.929 50.0693 152.225 48.876 151.01C47.6828 149.795 45.8283 149.156 44.2109 149.695" stroke="white" stroke-width="0.718813" stroke-linecap="round" stroke-linejoin="round"/>
<path d="M24.7109 169.729L48.8127 173.33" stroke="white" stroke-width="0.718813" stroke-linecap="round" stroke-linejoin="round"/>
<path d="M98.9283 179.359L86.0903 217.73H61.2553C59.9973 217.73 59.1923 219.153 59.9111 220.195C60.7162 221.367 62.0388 222.071 63.4476 222.071H143.825C145.608 222.071 147.189 220.928 147.757 219.232L161.098 179.367C161.566 177.972 160.531 176.527 159.064 176.527H102.86C101.077 176.527 99.4961 177.67 98.9283 179.367V179.359Z" fill="#36474F"/>
<path opacity="0.2" d="M130.011 199.96C130.011 198.437 128.782 197.2 127.265 197.2C125.749 197.2 124.52 198.437 124.52 199.96C124.52 201.484 125.749 202.721 127.265 202.721C128.782 202.721 130.011 201.484 130.011 199.96Z" fill="white"/>
<path d="M102.089 176.592L87.9141 221.633" stroke="#060305" stroke-width="0.718813" stroke-linecap="round" stroke-linejoin="round"/>
<path d="M159.102 177.605H124.52" stroke="white" stroke-width="0.718813" stroke-linecap="round" stroke-linejoin="round"/>
<path d="M73.0704 200.241C63.8624 195.612 54.1728 191.507 44.5407 187.849C45.6118 184.096 46.6828 180.344 47.7538 176.592L25.2694 173.199C23.192 177.253 21.1074 181.336 19.8639 185.721C18.6203 190.099 18.2681 194.85 19.677 199.184C21.7759 205.639 27.7996 210.153 34.5133 211.167C48.7099 213.309 62.8417 216.328 76.7004 220.08C77.3689 220.26 78.059 220.44 78.7419 220.332C79.4247 220.224 80.1004 219.742 80.201 219.059C79.4319 218.276 78.6556 217.492 77.8865 216.709C77.5343 216.35 77.1605 215.976 76.6861 215.803C77.7427 216.17 78.9431 216.687 79.9998 217.054C80.9414 218.348 82.0412 219.527 83.2273 220.605C83.7376 221.065 84.7871 221.173 85.3334 220.749C84.5714 218.657 83.8814 216.687 83.1194 214.596C84.7799 215.645 86.5194 217.004 88.3164 217.787C89.0065 218.089 89.9482 217.873 90.3938 217.262C85.6209 210.764 80.2729 203.857 73.0704 200.234V200.241Z" fill="#FF9A7D"/>
<path d="M44.7213 187.676C43.3843 187.669 42.0401 187.662 40.7031 187.647" stroke="#060305" stroke-width="0.718813" stroke-linecap="round" stroke-linejoin="round"/>
<path d="M78.0664 210.01C79.9425 211.821 81.8258 213.64 83.7019 215.451" stroke="#060305" stroke-width="0.718813" stroke-linecap="round" stroke-linejoin="round"/>
<path d="M74.5586 214.329C75.795 215.199 77.0313 216.076 78.2677 216.946" stroke="#060305" stroke-width="0.718813" stroke-linecap="round" stroke-linejoin="round"/>
<path d="M72.0781 217.5C73.7745 218.485 75.4709 219.47 77.1673 220.447" stroke="#060305" stroke-width="0.718813" stroke-linecap="round" stroke-linejoin="round"/>
<path d="M106.778 230.36C101.847 229.102 97.1027 227.744 92.3657 225.882C89.3251 234.019 88.441 242.867 89.282 251.515C97.8574 252.341 107.791 252.212 114.189 257.977C115.526 259.177 117.035 260.32 118.796 259.954L106.778 230.36Z" fill="#060305"/>
<path d="M97.2539 247.202V252.205" stroke="white" stroke-width="0.718813" stroke-linecap="round" stroke-linejoin="round"/>
<path d="M99.7773 247.288C99.8492 249.078 99.9283 250.861 100 252.65" stroke="white" stroke-width="0.718813" stroke-linecap="round" stroke-linejoin="round"/>
<path d="M102.797 247.202C102.768 248.956 102.739 250.717 102.703 252.471" stroke="white" stroke-width="0.718813" stroke-linecap="round" stroke-linejoin="round"/>
<path d="M73.5156 126.814C76.0818 127.159 78.763 126.498 80.8763 125.003" stroke="#814EFF" stroke-width="0.718813" stroke-linecap="round" stroke-linejoin="round"/>
<path d="M67.457 127.346L68.068 128.345" stroke="#814EFF" stroke-width="0.718813" stroke-linecap="round" stroke-linejoin="round"/>
<path d="M83.4637 130.279C84.125 129.906 84.5419 129.151 84.5132 128.396C84.4844 127.641 83.9956 126.922 83.3056 126.613C82.7305 126.355 82.0692 126.369 81.4367 126.391C79.158 126.477 76.7069 126.779 74.4426 126.52C71.5458 126.196 68.5268 127.39 66.6363 129.611C64.7458 131.832 64.0486 135.002 64.8321 137.813L79.0358 140.932C79.2227 138.539 79.92 136.023 80.8113 133.794C81.5157 133.766 82.2417 133.708 82.8887 133.428C83.5356 133.147 84.1107 132.608 84.2688 131.918C84.4269 131.228 84.1466 130.473 83.4709 130.279H83.4637Z" fill="#814EFF"/>
<path d="M79.0125 148.746C78.0493 148.35 77.1651 148.034 76.2019 147.639C76.3385 147.128 76.5901 146.489 76.7266 145.978C78.2505 145.914 79.7385 145.252 80.8167 144.167C81.8949 143.081 82.5203 141.651 82.5346 140.127C82.5634 138.114 82.5131 135.965 81.4996 134.218C80.8023 133.025 79.5516 132.242 78.229 131.832C77.8983 132.457 77.2801 132.925 76.5901 133.068C75.9 133.212 75.2028 132.989 74.6493 132.551C74.3689 133.248 73.7004 133.78 72.9601 133.888C72.2125 133.996 71.4937 133.543 71.0265 132.953C71.1271 134.19 70.588 135.448 69.6248 136.231C69.3372 135.85 69.0785 135.433 68.7838 135.052C67.5546 134.592 66.0666 134.93 65.1538 135.872C64.2409 136.813 63.9605 138.316 64.4565 139.531C64.9525 140.745 66.2176 141.601 67.533 141.622C67.1377 142.851 66.6417 143.98 66.2463 145.209C65.3047 145.339 64.3127 145.389 63.3711 145.518C63.9318 147.847 64.895 149.989 66.7855 151.463C68.6759 152.936 71.1774 153.655 73.5423 153.26C75.9072 152.864 78.0205 150.924 79.0053 148.739L79.0125 148.746Z" fill="#FF9A7D"/>
<path d="M73.8633 139.616C74.2603 139.616 74.5822 139.295 74.5822 138.898C74.5822 138.501 74.2603 138.179 73.8633 138.179C73.4664 138.179 73.1445 138.501 73.1445 138.898C73.1445 139.295 73.4664 139.616 73.8633 139.616Z" fill="#060305"/>
<path d="M80.543 139.386C80.94 139.386 81.2618 139.064 81.2618 138.667C81.2618 138.27 80.94 137.948 80.543 137.948C80.146 137.948 79.8242 138.27 79.8242 138.667C79.8242 139.064 80.146 139.386 80.543 139.386Z" fill="#060305"/>
<path d="M77.6822 138.192C77.826 139.019 77.9698 139.838 78.1135 140.665C77.7829 140.572 77.33 140.615 76.9922 140.521" stroke="#060305" stroke-width="0.718813" stroke-linecap="round" stroke-linejoin="round"/>
<path d="M73.0898 135.699C73.3342 135.16 73.8877 134.771 74.4843 134.735C75.0738 134.692 75.6776 135.001 75.9938 135.505" stroke="#060305" stroke-width="0.718813" stroke-linecap="round" stroke-linejoin="round"/>
<path d="M80.2031 134.973C80.6488 134.944 81.0945 134.922 81.5401 134.894" stroke="#060305" stroke-width="0.718813" stroke-linecap="round" stroke-linejoin="round"/>
<path d="M74.4265 140.594C74.4121 140.946 74.6206 141.298 74.9368 141.456C75.2531 141.614 75.6556 141.571 75.9288 141.349" stroke="#060305" stroke-width="0.718813" stroke-linecap="round" stroke-linejoin="round"/>
<path d="M66.4531 136.806C67.0138 137.108 67.5817 137.409 68.1423 137.711" stroke="#060305" stroke-width="0.718813" stroke-linecap="round" stroke-linejoin="round"/>
<path d="M67.2734 141.873H68.2798" stroke="#060305" stroke-width="0.718813" stroke-linecap="round" stroke-linejoin="round"/>
<path d="M70.9961 144.727C72.5631 145.956 74.6045 146.552 76.5885 146.365" stroke="#060305" stroke-width="0.718813" stroke-linecap="round" stroke-linejoin="round"/>
<path d="M45.5774 209.53C38.9931 207.345 30.3673 208.811 25.1344 213.361C19.9014 217.911 17.6515 225.84 20.3399 232.23C21.8278 235.774 24.6456 238.649 27.8946 240.697C31.1436 242.746 34.8168 244.026 38.5402 244.996L90.2732 255.289C91.6893 245.319 93.0981 235.349 94.5142 225.38C78.3696 220.024 61.7291 214.885 45.5846 209.53H45.5774Z" fill="#263238"/>
<path d="M95.0034 225.408L84.9688 222.072" stroke="#060305" stroke-width="0.718813" stroke-linecap="round" stroke-linejoin="round"/>
<path d="M90.8435 223.978C88.7015 234.113 86.5522 244.255 84.4102 254.391" stroke="#060305" stroke-width="0.718813" stroke-linecap="round" stroke-linejoin="round"/>
<path d="M22.8125 222.806C23.3085 220.269 24.667 217.911 26.6222 216.222" stroke="#060305" stroke-width="0.718813" stroke-linecap="round" stroke-linejoin="round"/>
<path d="M255.255 145.554H252.977V162.28H255.255V145.554Z" fill="#F6921E"/>
<path d="M258.656 146.884L254.113 139.013L249.57 146.884H258.656Z" fill="#F6921E"/>
<path d="M133.954 139.013H131.676V166.378H133.954V139.013Z" fill="#F6921E"/>
<path d="M128.27 165.048L132.812 172.912L137.355 165.048H128.27Z" fill="#F6921E"/>
<path d="M332.613 248.079H203.852V270.923H332.613V248.079Z" fill="#9E97FF"/>
<path d="M254.11 254.75H238.332V257.755H254.11V254.75Z" fill="#FF99A8"/>
<path d="M266.584 254.75H256.168V257.755H266.584V254.75Z" fill="white"/>
<path d="M247.856 261.233H238.332V264.238H247.856V261.233Z" fill="white"/>
<path d="M266.583 261.233H250.137V264.238H266.583V261.233Z" fill="white"/>
<path d="M281.132 258.049C282.18 258.049 283.03 257.2 283.03 256.152C283.03 255.104 282.18 254.254 281.132 254.254C280.084 254.254 279.234 255.104 279.234 256.152C279.234 257.2 280.084 258.049 281.132 258.049Z" fill="white"/>
<path d="M281.132 264.742C282.18 264.742 283.03 263.892 283.03 262.844C283.03 261.796 282.18 260.946 281.132 260.946C280.084 260.946 279.234 261.796 279.234 262.844C279.234 263.892 280.084 264.742 281.132 264.742Z" fill="white"/>
<path d="M276.1 256.152C276.1 255.102 275.252 254.254 274.202 254.254C273.153 254.254 272.305 255.102 272.305 256.152C272.305 257.201 273.153 258.049 274.202 258.049C275.252 258.049 276.1 257.201 276.1 256.152Z" fill="#F6921E"/>
<path d="M276.1 262.844C276.1 261.794 275.252 260.946 274.202 260.946C273.153 260.946 272.305 261.794 272.305 262.844C272.305 263.893 273.153 264.742 274.202 264.742C275.252 264.742 276.1 263.893 276.1 262.844Z" fill="white"/>
<path d="M232.915 254.75H211.695V264.238H232.915V254.75Z" stroke="white" stroke-width="0.718813" stroke-linecap="round" stroke-linejoin="round"/>
<path d="M215.094 258.021H229.032" stroke="white" stroke-width="0.718813" stroke-linecap="round" stroke-linejoin="round"/>
<path d="M229.032 260.975H215.094" stroke="white" stroke-width="0.718813" stroke-linecap="round" stroke-linejoin="round"/>
<path d="M332.62 248.079H291.598V270.923H332.62V248.079Z" fill="#814EFF"/>
<path d="M308.392 254.75H297.977V257.755H308.392V254.75Z" fill="#060305"/>
<path d="M326.224 254.75H315.809V257.755H326.224V254.75Z" fill="#9E97FF"/>
<path d="M308.392 261.233H297.977V264.238H308.392V261.233Z" fill="#9E97FF"/>
<path d="M326.224 261.233H315.809V264.238H326.224V261.233Z" fill="#060305"/>
<path d="M332.613 166.708H203.852V189.552H332.613V166.708Z" fill="#9E97FF"/>
<path d="M254.11 173.386H238.332V176.39H254.11V173.386Z" fill="white"/>
<path d="M266.584 173.386H256.168V176.39H266.584V173.386Z" fill="white"/>
<path d="M247.856 179.862H238.332V182.867H247.856V179.862Z" fill="#FF99A8"/>
<path d="M266.583 179.862H250.137V182.867H266.583V179.862Z" fill="white"/>
<path d="M281.132 176.678C282.18 176.678 283.03 175.829 283.03 174.78C283.03 173.732 282.18 172.883 281.132 172.883C280.084 172.883 279.234 173.732 279.234 174.78C279.234 175.829 280.084 176.678 281.132 176.678Z" fill="white"/>
<path d="M281.132 183.371C282.18 183.371 283.03 182.521 283.03 181.473C283.03 180.425 282.18 179.575 281.132 179.575C280.084 179.575 279.234 180.425 279.234 181.473C279.234 182.521 280.084 183.371 281.132 183.371Z" fill="white"/>
<path d="M276.1 174.78C276.1 173.731 275.252 172.883 274.202 172.883C273.153 172.883 272.305 173.731 272.305 174.78C272.305 175.83 273.153 176.678 274.202 176.678C275.252 176.678 276.1 175.83 276.1 174.78Z" fill="white"/>
<path d="M276.1 181.473C276.1 180.423 275.252 179.575 274.202 179.575C273.153 179.575 272.305 180.423 272.305 181.473C272.305 182.522 273.153 183.371 274.202 183.371C275.252 183.371 276.1 182.522 276.1 181.473Z" fill="#F6921E"/>
<path d="M232.915 173.386H211.695V182.874H232.915V173.386Z" stroke="white" stroke-width="0.718813" stroke-linecap="round" stroke-linejoin="round"/>
<path d="M215.094 176.649H229.032" stroke="white" stroke-width="0.718813" stroke-linecap="round" stroke-linejoin="round"/>
<path d="M229.032 179.604H215.094" stroke="white" stroke-width="0.718813" stroke-linecap="round" stroke-linejoin="round"/>
<path d="M332.62 166.708H291.598V189.552H332.62V166.708Z" fill="#814EFF"/>
<path d="M308.392 173.386H297.977V176.39H308.392V173.386Z" fill="#9E97FF"/>
<path d="M326.224 173.386H315.809V176.39H326.224V173.386Z" fill="#9E97FF"/>
<path d="M308.392 179.862H297.977V182.867H308.392V179.862Z" fill="#9E97FF"/>
<path d="M326.224 179.862H315.809V182.867H326.224V179.862Z" fill="#060305"/>
<path d="M332.613 193.829H203.852V216.673H332.613V193.829Z" fill="#9E97FF"/>
<path d="M254.11 200.507H238.332V203.511H254.11V200.507Z" fill="white"/>
<path d="M266.584 200.507H256.168V203.511H266.584V200.507Z" fill="white"/>
<path d="M247.856 206.99H238.332V209.995H247.856V206.99Z" fill="white"/>
<path d="M266.583 206.99H250.137V209.995H266.583V206.99Z" fill="#FF99A8"/>
<path d="M281.132 203.799C282.18 203.799 283.03 202.95 283.03 201.902C283.03 200.854 282.18 200.004 281.132 200.004C280.084 200.004 279.234 200.854 279.234 201.902C279.234 202.95 280.084 203.799 281.132 203.799Z" fill="#F6921E"/>
<path d="M281.132 210.492C282.18 210.492 283.03 209.642 283.03 208.594C283.03 207.546 282.18 206.696 281.132 206.696C280.084 206.696 279.234 207.546 279.234 208.594C279.234 209.642 280.084 210.492 281.132 210.492Z" fill="white"/>
<path d="M276.1 201.902C276.1 200.852 275.252 200.004 274.202 200.004C273.153 200.004 272.305 200.852 272.305 201.902C272.305 202.951 273.153 203.799 274.202 203.799C275.252 203.799 276.1 202.951 276.1 201.902Z" fill="white"/>
<path d="M276.1 208.594C276.1 207.544 275.252 206.696 274.202 206.696C273.153 206.696 272.305 207.544 272.305 208.594C272.305 209.643 273.153 210.492 274.202 210.492C275.252 210.492 276.1 209.643 276.1 208.594Z" fill="white"/>
<path d="M232.915 200.507H211.695V209.995H232.915V200.507Z" stroke="white" stroke-width="0.718813" stroke-linecap="round" stroke-linejoin="round"/>
<path d="M215.094 203.77H229.032" stroke="white" stroke-width="0.718813" stroke-linecap="round" stroke-linejoin="round"/>
<path d="M229.032 206.731H215.094" stroke="white" stroke-width="0.718813" stroke-linecap="round" stroke-linejoin="round"/>
<path d="M332.62 193.829H291.598V216.673H332.62V193.829Z" fill="#814EFF"/>
<path d="M308.392 200.507H297.977V203.511H308.392V200.507Z" fill="#060305"/>
<path d="M326.224 200.507H315.809V203.511H326.224V200.507Z" fill="#9E97FF"/>
<path d="M308.392 206.99H297.977V209.995H308.392V206.99Z" fill="#9E97FF"/>
<path d="M326.224 206.99H315.809V209.995H326.224V206.99Z" fill="#9E97FF"/>
<path d="M332.613 220.95H203.852V243.794H332.613V220.95Z" fill="#9E97FF"/>
<path d="M254.11 227.628H238.332V230.633H254.11V227.628Z" fill="white"/>
<path d="M266.584 227.628H256.168V230.633H266.584V227.628Z" fill="white"/>
<path d="M247.856 234.111H238.332V237.116H247.856V234.111Z" fill="#FF99A8"/>
<path d="M266.583 234.111H250.137V237.116H266.583V234.111Z" fill="white"/>
<path d="M283.03 229.03C283.03 227.98 282.181 227.132 281.132 227.132C280.083 227.132 279.234 227.98 279.234 229.03C279.234 230.079 280.083 230.927 281.132 230.927C282.181 230.927 283.03 230.079 283.03 229.03Z" fill="white"/>
<path d="M283.03 235.722C283.03 234.672 282.181 233.824 281.132 233.824C280.083 233.824 279.234 234.672 279.234 235.722C279.234 236.771 280.083 237.62 281.132 237.62C282.181 237.62 283.03 236.771 283.03 235.722Z" fill="#F6921E"/>
<path d="M276.1 229.03C276.1 227.98 275.252 227.132 274.202 227.132C273.153 227.132 272.305 227.98 272.305 229.03C272.305 230.079 273.153 230.927 274.202 230.927C275.252 230.927 276.1 230.079 276.1 229.03Z" fill="white"/>
<path d="M276.1 235.722C276.1 234.672 275.252 233.824 274.202 233.824C273.153 233.824 272.305 234.672 272.305 235.722C272.305 236.771 273.153 237.62 274.202 237.62C275.252 237.62 276.1 236.771 276.1 235.722Z" fill="white"/>
<path d="M232.915 227.628H211.695V237.116H232.915V227.628Z" stroke="white" stroke-width="0.718813" stroke-linecap="round" stroke-linejoin="round"/>
<path d="M215.094 230.892H229.032" stroke="white" stroke-width="0.718813" stroke-linecap="round" stroke-linejoin="round"/>
<path d="M229.032 233.854H215.094" stroke="white" stroke-width="0.718813" stroke-linecap="round" stroke-linejoin="round"/>
<path d="M332.62 220.95H291.598V243.794H332.62V220.95Z" fill="#814EFF"/>
<path d="M308.392 227.628H297.977V230.633H308.392V227.628Z" fill="#060305"/>
<path d="M326.224 227.628H315.809V230.633H326.224V227.628Z" fill="#9E97FF"/>
<path d="M308.392 234.111H297.977V237.116H308.392V234.111Z" fill="#9E97FF"/>
<path d="M326.224 234.111H315.809V237.116H326.224V234.111Z" fill="#9E97FF"/>
<g clip-path="url(#clip1_515_1639)">
<path d="M164.308 54H130.692C123.13 54 117 60.13 117 67.6917V101.308C117 108.87 123.13 115 130.692 115H164.308C171.87 115 178 108.87 178 101.308V67.6917C178 60.13 171.87 54 164.308 54Z" fill="#5231B8"/>
<path d="M144.955 83.9401V72.8262L133.566 74.432V83.9401H144.955ZM133.566 85.1234V94.6315L144.955 96.2162V85.1234H133.566ZM146.307 85.2079V96.4064L161.436 98.4981V85.2079H146.307ZM161.436 83.8133V70.502L146.307 72.636V83.8133H161.436Z" fill="white"/>
</g>
<path d="M58.2395 76.4371L66 80.4902L58.2395 84.5629L53.9897 92L49.7605 84.5629L42 80.4902L49.7605 76.4371L53.9897 69L58.2395 76.4371Z" fill="white"/>
<path d="M76.4919 89.5148L81 92L76.4919 94.4852L74.0103 99L71.5288 94.4852L67 92L71.5288 89.5148L74.0103 85L76.4919 89.5148Z" fill="white"/>
</g>
<defs>
<clipPath id="clip0_515_1639">
<rect width="321.18" height="285.965" fill="white" transform="translate(17 28)"/>
</clipPath>
<clipPath id="clip1_515_1639">
<rect width="61" height="61" fill="white" transform="translate(117 54)"/>
</clipPath>
</defs>
</svg>
