<svg width="421" height="328" viewBox="0 0 421 328" fill="none" xmlns="http://www.w3.org/2000/svg">
<circle cx="158.5" cy="158.5" r="158.5" fill="#DFE7FD"/>
<path d="M396 35H37V288H396V35Z" fill="white" stroke="#3F3D56" stroke-width="1.06476" stroke-miterlimit="10"/>
<path d="M388.967 146.432H322.817C317.274 146.432 312.781 150.925 312.781 156.468V305.637C312.781 311.18 317.274 315.673 322.817 315.673H388.967C394.51 315.673 399.003 311.18 399.003 305.637V156.468C399.003 150.925 394.51 146.432 388.967 146.432Z" fill="#673DE6"/>
<path opacity="0.2" d="M388.967 146.432H322.817C317.274 146.432 312.781 150.925 312.781 156.468V305.637C312.781 311.18 317.274 315.673 322.817 315.673H388.967C394.51 315.673 399.003 311.18 399.003 305.637V156.468C399.003 150.925 394.51 146.432 388.967 146.432Z" fill="black"/>
<path d="M370.94 146.432H304.79C299.247 146.432 294.754 150.925 294.754 156.468V305.637C294.754 311.18 299.247 315.673 304.79 315.673H370.94C376.482 315.673 380.976 311.18 380.976 305.637V156.468C380.976 150.925 376.482 146.432 370.94 146.432Z" fill="#673DE6"/>
<path opacity="0.2" d="M377.629 305.645V156.467C377.629 152.774 374.635 149.779 370.941 149.779H304.791C301.097 149.779 298.103 152.774 298.103 156.467V305.645C298.103 309.339 301.097 312.333 304.791 312.333H370.941C374.635 312.333 377.629 309.339 377.629 305.645Z" fill="black"/>
<path d="M377.621 305.645V156.467C377.621 152.774 374.627 149.779 370.933 149.779H307.893C304.199 149.779 301.204 152.774 301.204 156.467V305.645C301.204 309.339 304.199 312.333 307.893 312.333H370.933C374.627 312.333 377.621 309.339 377.621 305.645Z" fill="white"/>
<path opacity="0.3" d="M367.215 169.344H311.617C308.754 169.344 306.414 167.004 306.414 164.141C306.414 161.278 308.754 158.938 311.617 158.938H367.215C370.078 158.938 372.418 161.278 372.418 164.141C372.418 167.004 370.078 169.344 367.215 169.344Z" fill="#673DE6"/>
<path d="M348.888 165.28H310.784C310.16 165.28 309.645 164.764 309.645 164.141C309.645 163.518 310.16 163.002 310.784 163.002H348.888C349.511 163.002 350.027 163.518 350.027 164.141C350.027 164.764 349.511 165.28 348.888 165.28Z" fill="white"/>
<path d="M362.643 165.28C363.272 165.28 363.782 164.77 363.782 164.141C363.782 163.512 363.272 163.002 362.643 163.002C362.014 163.002 361.504 163.512 361.504 164.141C361.504 164.77 362.014 165.28 362.643 165.28Z" fill="#673DE6"/>
<path d="M367.662 165.28C368.292 165.28 368.802 164.77 368.802 164.141C368.802 163.512 368.292 163.002 367.662 163.002C367.033 163.002 366.523 163.512 366.523 164.141C366.523 164.77 367.033 165.28 367.662 165.28Z" fill="#673DE6"/>
<path d="M357.623 165.28C358.253 165.28 358.762 164.77 358.762 164.141C358.762 163.512 358.253 163.002 357.623 163.002C356.994 163.002 356.484 163.512 356.484 164.141C356.484 164.77 356.994 165.28 357.623 165.28Z" fill="#673DE6"/>
<path opacity="0.3" d="M367.215 186.076H311.617C308.754 186.076 306.414 183.737 306.414 180.874C306.414 178.011 308.754 175.671 311.617 175.671H367.215C370.078 175.671 372.418 178.011 372.418 180.874C372.418 183.737 370.078 186.076 367.215 186.076Z" fill="#673DE6"/>
<path d="M348.888 182.005H310.784C310.16 182.005 309.645 181.489 309.645 180.866C309.645 180.242 310.16 179.727 310.784 179.727H348.888C349.511 179.727 350.027 180.242 350.027 180.866C350.027 181.489 349.511 182.005 348.888 182.005Z" fill="white"/>
<path d="M362.643 182.005C363.272 182.005 363.782 181.495 363.782 180.866C363.782 180.237 363.272 179.727 362.643 179.727C362.014 179.727 361.504 180.237 361.504 180.866C361.504 181.495 362.014 182.005 362.643 182.005Z" fill="#673DE6"/>
<path d="M367.662 182.005C368.292 182.005 368.802 181.495 368.802 180.866C368.802 180.237 368.292 179.727 367.662 179.727C367.033 179.727 366.523 180.237 366.523 180.866C366.523 181.495 367.033 182.005 367.662 182.005Z" fill="#673DE6"/>
<path opacity="0.3" d="M357.623 182.005C358.253 182.005 358.762 181.495 358.762 180.866C358.762 180.237 358.253 179.727 357.623 179.727C356.994 179.727 356.484 180.237 356.484 180.866C356.484 181.495 356.994 182.005 357.623 182.005Z" fill="#673DE6"/>
<path opacity="0.3" d="M367.215 202.8H311.617C308.754 202.8 306.414 200.46 306.414 197.597C306.414 194.734 308.754 192.395 311.617 192.395H367.215C370.078 192.395 372.418 194.734 372.418 197.597C372.418 200.46 370.078 202.8 367.215 202.8Z" fill="#673DE6"/>
<path d="M348.888 198.736H310.784C310.16 198.736 309.645 198.22 309.645 197.597C309.645 196.974 310.16 196.458 310.784 196.458H348.888C349.511 196.458 350.027 196.974 350.027 197.597C350.027 198.22 349.511 198.736 348.888 198.736Z" fill="white"/>
<path d="M362.643 198.736C363.272 198.736 363.782 198.226 363.782 197.597C363.782 196.968 363.272 196.458 362.643 196.458C362.014 196.458 361.504 196.968 361.504 197.597C361.504 198.226 362.014 198.736 362.643 198.736Z" fill="#673DE6"/>
<path d="M367.662 198.736C368.292 198.736 368.802 198.226 368.802 197.597C368.802 196.968 368.292 196.458 367.662 196.458C367.033 196.458 366.523 196.968 366.523 197.597C366.523 198.226 367.033 198.736 367.662 198.736Z" fill="#673DE6"/>
<path opacity="0.6" d="M357.623 198.736C358.253 198.736 358.762 198.226 358.762 197.597C358.762 196.968 358.253 196.458 357.623 196.458C356.994 196.458 356.484 196.968 356.484 197.597C356.484 198.226 356.994 198.736 357.623 198.736Z" fill="#673DE6"/>
<path opacity="0.3" d="M367.215 209.119H311.617C308.743 209.119 306.414 211.448 306.414 214.322C306.414 217.195 308.743 219.525 311.617 219.525H367.215C370.088 219.525 372.418 217.195 372.418 214.322C372.418 211.448 370.088 209.119 367.215 209.119Z" fill="#673DE6"/>
<path d="M348.888 215.461H310.784C310.16 215.461 309.645 214.945 309.645 214.322C309.645 213.698 310.16 213.183 310.784 213.183H348.888C349.511 213.183 350.027 213.698 350.027 214.322C350.027 214.945 349.511 215.461 348.888 215.461Z" fill="white"/>
<path d="M362.643 215.47C363.272 215.47 363.782 214.96 363.782 214.33C363.782 213.701 363.272 213.191 362.643 213.191C362.014 213.191 361.504 213.701 361.504 214.33C361.504 214.96 362.014 215.47 362.643 215.47Z" fill="#673DE6"/>
<path opacity="0.3" d="M367.662 215.47C368.292 215.47 368.802 214.96 368.802 214.33C368.802 213.701 368.292 213.191 367.662 213.191C367.033 213.191 366.523 213.701 366.523 214.33C366.523 214.96 367.033 215.47 367.662 215.47Z" fill="#673DE6"/>
<path opacity="0.6" d="M357.623 215.47C358.253 215.47 358.762 214.96 358.762 214.33C358.762 213.701 358.253 213.191 357.623 213.191C356.994 213.191 356.484 213.701 356.484 214.33C356.484 214.96 356.994 215.47 357.623 215.47Z" fill="#673DE6"/>
<path opacity="0.3" d="M367.215 236.255H311.617C308.754 236.255 306.414 233.915 306.414 231.052C306.414 228.189 308.754 225.85 311.617 225.85H367.215C370.078 225.85 372.418 228.189 372.418 231.052C372.418 233.915 370.078 236.255 367.215 236.255Z" fill="#673DE6"/>
<path d="M348.888 232.191H310.784C310.16 232.191 309.645 231.676 309.645 231.052C309.645 230.429 310.16 229.913 310.784 229.913H348.888C349.511 229.913 350.027 230.429 350.027 231.052C350.027 231.676 349.511 232.191 348.888 232.191Z" fill="white"/>
<path d="M362.643 232.191C363.272 232.191 363.782 231.681 363.782 231.052C363.782 230.423 363.272 229.913 362.643 229.913C362.014 229.913 361.504 230.423 361.504 231.052C361.504 231.681 362.014 232.191 362.643 232.191Z" fill="#673DE6"/>
<path opacity="0.6" d="M367.662 232.191C368.292 232.191 368.802 231.681 368.802 231.052C368.802 230.423 368.292 229.913 367.662 229.913C367.033 229.913 366.523 230.423 366.523 231.052C366.523 231.681 367.033 232.191 367.662 232.191Z" fill="#673DE6"/>
<path d="M357.623 232.191C358.253 232.191 358.762 231.681 358.762 231.052C358.762 230.423 358.253 229.913 357.623 229.913C356.994 229.913 356.484 230.423 356.484 231.052C356.484 231.681 356.994 232.191 357.623 232.191Z" fill="#673DE6"/>
<path opacity="0.3" d="M367.215 252.987H311.617C308.754 252.987 306.414 250.648 306.414 247.785C306.414 244.922 308.754 242.582 311.617 242.582H367.215C370.078 242.582 372.418 244.922 372.418 247.785C372.418 250.648 370.078 252.987 367.215 252.987Z" fill="#673DE6"/>
<path d="M348.888 248.917H310.784C310.16 248.917 309.645 248.401 309.645 247.778C309.645 247.154 310.16 246.639 310.784 246.639H348.888C349.511 246.639 350.027 247.154 350.027 247.778C350.027 248.401 349.511 248.917 348.888 248.917Z" fill="white"/>
<path opacity="0.3" d="M362.643 248.924C363.272 248.924 363.782 248.414 363.782 247.785C363.782 247.155 363.272 246.646 362.643 246.646C362.014 246.646 361.504 247.155 361.504 247.785C361.504 248.414 362.014 248.924 362.643 248.924Z" fill="#673DE6"/>
<path d="M367.662 248.924C368.292 248.924 368.802 248.414 368.802 247.785C368.802 247.155 368.292 246.646 367.662 246.646C367.033 246.646 366.523 247.155 366.523 247.785C366.523 248.414 367.033 248.924 367.662 248.924Z" fill="#673DE6"/>
<path d="M357.623 248.924C358.253 248.924 358.762 248.414 358.762 247.785C358.762 247.155 358.253 246.646 357.623 246.646C356.994 246.646 356.484 247.155 356.484 247.785C356.484 248.414 356.994 248.924 357.623 248.924Z" fill="#673DE6"/>
<path opacity="0.3" d="M367.215 269.712H311.617C308.754 269.712 306.414 267.372 306.414 264.509C306.414 261.646 308.754 259.307 311.617 259.307H367.215C370.078 259.307 372.418 261.646 372.418 264.509C372.418 267.372 370.078 269.712 367.215 269.712Z" fill="#673DE6"/>
<path d="M348.888 265.648H310.784C310.16 265.648 309.645 265.133 309.645 264.509C309.645 263.886 310.16 263.37 310.784 263.37H348.888C349.511 263.37 350.027 263.886 350.027 264.509C350.027 265.133 349.511 265.648 348.888 265.648Z" fill="white"/>
<path opacity="0.3" d="M362.643 265.648C363.272 265.648 363.782 265.138 363.782 264.509C363.782 263.88 363.272 263.37 362.643 263.37C362.014 263.37 361.504 263.88 361.504 264.509C361.504 265.138 362.014 265.648 362.643 265.648Z" fill="#673DE6"/>
<path d="M367.662 265.648C368.292 265.648 368.802 265.138 368.802 264.509C368.802 263.88 368.292 263.37 367.662 263.37C367.033 263.37 366.523 263.88 366.523 264.509C366.523 265.138 367.033 265.648 367.662 265.648Z" fill="#673DE6"/>
<path opacity="0.3" d="M357.623 265.648C358.253 265.648 358.762 265.138 358.762 264.509C358.762 263.88 358.253 263.37 357.623 263.37C356.994 263.37 356.484 263.88 356.484 264.509C356.484 265.138 356.994 265.648 357.623 265.648Z" fill="#673DE6"/>
<path opacity="0.3" d="M367.215 276.03H311.617C308.743 276.03 306.414 278.36 306.414 281.233C306.414 284.106 308.743 286.436 311.617 286.436H367.215C370.088 286.436 372.418 284.106 372.418 281.233C372.418 278.36 370.088 276.03 367.215 276.03Z" fill="#673DE6"/>
<path d="M348.888 282.372H310.784C310.16 282.372 309.645 281.856 309.645 281.233C309.645 280.609 310.16 280.094 310.784 280.094H348.888C349.511 280.094 350.027 280.609 350.027 281.233C350.027 281.856 349.511 282.372 348.888 282.372Z" fill="white"/>
<path d="M362.643 282.381C363.272 282.381 363.782 281.871 363.782 281.242C363.782 280.613 363.272 280.103 362.643 280.103C362.014 280.103 361.504 280.613 361.504 281.242C361.504 281.871 362.014 282.381 362.643 282.381Z" fill="#673DE6"/>
<path d="M367.662 282.381C368.292 282.381 368.802 281.871 368.802 281.242C368.802 280.613 368.292 280.103 367.662 280.103C367.033 280.103 366.523 280.613 366.523 281.242C366.523 281.871 367.033 282.381 367.662 282.381Z" fill="#673DE6"/>
<path d="M357.623 282.381C358.253 282.381 358.762 281.871 358.762 281.242C358.762 280.613 358.253 280.103 357.623 280.103C356.994 280.103 356.484 280.613 356.484 281.242C356.484 281.871 356.994 282.381 357.623 282.381Z" fill="#673DE6"/>
<path opacity="0.3" d="M367.215 303.167H311.617C308.754 303.167 306.414 300.827 306.414 297.964C306.414 295.101 308.754 292.762 311.617 292.762H367.215C370.078 292.762 372.418 295.101 372.418 297.964C372.418 300.827 370.078 303.167 367.215 303.167Z" fill="#673DE6"/>
<path d="M348.888 299.103H310.784C310.16 299.103 309.645 298.588 309.645 297.964C309.645 297.341 310.16 296.825 310.784 296.825H348.888C349.511 296.825 350.027 297.341 350.027 297.964C350.027 298.588 349.511 299.103 348.888 299.103Z" fill="white"/>
<path d="M362.643 299.103C363.272 299.103 363.782 298.593 363.782 297.964C363.782 297.335 363.272 296.825 362.643 296.825C362.014 296.825 361.504 297.335 361.504 297.964C361.504 298.593 362.014 299.103 362.643 299.103Z" fill="#673DE6"/>
<path d="M367.662 299.103C368.292 299.103 368.802 298.593 368.802 297.964C368.802 297.335 368.292 296.825 367.662 296.825C367.033 296.825 366.523 297.335 366.523 297.964C366.523 298.593 367.033 299.103 367.662 299.103Z" fill="#673DE6"/>
<path opacity="0.6" d="M357.623 299.103C358.253 299.103 358.762 298.593 358.762 297.964C358.762 297.335 358.253 296.825 357.623 296.825C356.994 296.825 356.484 297.335 356.484 297.964C356.484 298.593 356.994 299.103 357.623 299.103Z" fill="#673DE6"/>
<path opacity="0.2" d="M393.875 181.373H386.102C384.84 181.373 383.816 182.396 383.816 183.659V193.264C383.816 194.526 384.84 195.55 386.102 195.55H393.875C395.138 195.55 396.161 194.526 396.161 193.264V183.659C396.161 182.396 395.138 181.373 393.875 181.373Z" fill="black"/>
<path d="M302.559 145.556L311.264 149.342L306.269 155.168L298.996 152.013L302.559 145.556Z" fill="#CE7A63"/>
<path opacity="0.2" d="M302.56 145.562L311.264 149.341L308.47 152.605L300.559 149.172L302.56 145.562Z" fill="black"/>
<path d="M307.383 158.24L306.405 157.978C305.828 157.824 305.359 157.385 305.166 156.816L304.528 157.085C304.158 157.239 303.743 157.27 303.358 157.162L290.051 153.583C290.135 152.383 291.251 151.082 291.251 151.082C291.251 151.082 297.185 152.344 298.963 150.982C299.102 150.874 299.279 150.851 299.433 150.928C300.495 151.467 304.697 153.491 307.444 153.337C307.806 153.314 308.083 153.66 307.991 154.014C307.521 155.969 307.375 158.232 307.375 158.232L307.383 158.24Z" fill="#263238"/>
<path d="M380.766 118.156L377.033 125.968C371.53 137.497 357.969 143.293 347.148 138.759C340.83 136.104 333.926 130.509 329.231 127.946C325.214 136.743 317.695 146.456 311.945 153.213L300.309 147.356C304.657 137.382 311.422 121.804 315.717 111.684C317.279 108.02 320.919 105.504 324.767 105.396C344.116 104.873 380.773 118.164 380.773 118.164L380.766 118.156Z" fill="#263238"/>
<path d="M324.724 171.076L333.09 170.707L331.543 179.896L324.547 180.212L324.724 171.076Z" fill="#CE7A63"/>
<path opacity="0.2" d="M324.725 171.076L333.091 170.707L332.46 174.486L324.648 174.994L324.725 171.076Z" fill="black"/>
<path d="M334.75 180.312L333.788 180.613C333.21 180.79 332.587 180.674 332.118 180.297L331.725 180.867C331.494 181.197 331.163 181.444 330.778 181.559L317.633 185.684C317.056 184.622 317.302 182.929 317.302 182.929C317.302 182.929 322.982 180.805 323.759 178.704C323.821 178.542 323.952 178.419 324.129 178.404C325.314 178.288 329.947 177.742 332.187 176.133C332.487 175.918 332.895 176.064 333.018 176.41C333.672 178.311 334.757 180.297 334.757 180.297L334.75 180.312Z" fill="#263238"/>
<path d="M386.197 115.071L386.135 123.322C386.035 135.49 375.722 146.349 363.408 147.265C356.22 147.796 346.507 147.958 340.897 147.85C340.081 156.37 337.418 166.406 334.74 173.679L322.633 172.832C322.318 162.504 321.848 147.865 321.456 138.16C321.309 134.374 323.649 130.649 327.266 128.871C345.422 119.935 386.197 115.079 386.197 115.079V115.071Z" fill="#263238"/>
<path opacity="0.1" d="M332.157 173.778C332.157 173.778 332.103 173.778 332.072 173.762C331.918 173.716 331.834 173.555 331.88 173.401C333.711 167.382 337.006 148.588 337.152 139.968C337.152 139.883 337.19 139.806 337.252 139.752C337.313 139.699 337.398 139.676 337.475 139.683C355.161 142.038 367.144 141.238 372.124 137.367C380.867 130.578 380.736 119.58 378.519 113.854C378.466 113.708 378.535 113.539 378.681 113.485C378.827 113.431 378.997 113.5 379.05 113.647C381.329 119.542 381.459 130.84 372.47 137.821C367.329 141.815 355.638 142.646 337.714 140.291C337.49 149.088 334.235 167.582 332.419 173.562C332.38 173.685 332.265 173.77 332.141 173.77L332.157 173.778Z" fill="black"/>
<path opacity="0.2" d="M328.762 128.954C326.861 132.894 324.306 136.989 321.566 140.891C321.628 142.592 321.697 144.4 321.767 146.278C326.053 139.513 328.778 128.946 328.778 128.946C328.778 128.946 328.778 128.946 328.778 128.962L328.762 128.954Z" fill="black"/>
<path d="M360.093 76.2431C359.769 77.436 359.461 78.475 359.107 79.5602C358.769 80.6377 358.392 81.7075 358.015 82.7695C357.237 84.8937 356.429 87.0102 355.49 89.1036C354.559 91.2047 353.589 93.2904 352.435 95.3684C351.296 97.4618 350.033 99.5244 348.448 101.618L347.955 102.272C347.64 102.688 347.232 103.011 346.793 103.226C345.939 103.634 345.062 103.973 344.177 104.258C343.299 104.558 342.391 104.75 341.498 104.935C340.59 105.089 339.682 105.189 338.758 105.22C338.297 105.235 337.827 105.22 337.365 105.204L336.65 105.15C336.396 105.127 336.188 105.081 335.857 105.058C334.371 104.973 333.24 103.696 333.325 102.218C333.34 101.956 333.394 101.71 333.471 101.472L334.495 98.6393C334.533 98.5393 334.695 98.4007 334.81 98.2699L335.195 97.9005L335.98 97.1847C336.503 96.7076 337.019 96.2612 337.504 95.7994C338.004 95.3684 338.474 94.8989 338.943 94.4756C339.413 94.0523 339.844 93.5982 340.282 93.1903L338.62 94.7989C339.49 93.3058 340.298 91.5587 341.098 89.7732L341.683 88.4109L342.237 87.0102C342.614 86.079 342.984 85.1246 343.338 84.1703C344.046 82.2539 344.746 80.299 345.416 78.3442L347.394 72.5181L347.44 72.3795C348.61 68.9162 352.373 67.0614 355.836 68.2389C359.169 69.3703 361.001 72.9029 360.093 76.2508V76.2431Z" fill="#CE7A63"/>
<path d="M353.746 65.4131C350.236 66.4213 345.503 70.3002 343.879 79.0894C346.234 82.7452 357.278 79.9206 357.278 79.9206L353.738 65.4131H353.746Z" fill="#FF3774"/>
<path d="M337.214 98.7311L337.568 102.533C336.506 106.404 331.765 104.172 331.765 104.172L329.056 104.018C328.141 103.965 327.386 103.156 327.279 102.094L327.009 99.4391C326.886 98.2308 327.648 97.1379 328.695 97.0225L331.05 96.7685C331.735 96.6915 332.427 96.7916 333.066 97.0456L337.214 98.7234V98.7311Z" fill="#CE7A63"/>
<path d="M355.445 64.8908C360.964 63.7133 367.313 62.8205 372.993 62.505C379.473 62.1432 384.868 67.3844 384.707 73.8724C384.214 93.2594 386.939 113.639 386.554 117.372C386.554 117.372 345.679 123.26 339.414 111.107C336.782 93.8751 345.286 96.0686 345.971 76.2891C346.148 71.1094 350.381 65.976 355.453 64.8908H355.445Z" fill="#FC5185"/>
<path d="M352.22 82.4079L352.359 82.3694L352.382 82.2232C352.597 80.9379 353.621 80.0067 354.868 79.9528H355.022L355.076 79.7989C355.514 78.5213 356.63 77.6978 357.946 77.667C359.293 77.744 360.563 78.6752 361.125 80.0144L361.217 80.2376L361.433 80.176H361.448C361.694 80.1067 361.956 80.0759 362.21 80.0759C362.256 80.0759 362.302 80.0759 362.349 80.0759C363.872 80.176 365.173 81.5228 365.266 83.1391C365.366 84.8015 364.157 86.1329 362.572 86.1098L352.898 85.9482C351.951 85.9328 351.143 85.117 351.081 84.1242C351.035 83.3238 351.505 82.6234 352.22 82.4156V82.4079Z" fill="white"/>
<path d="M384.259 69.0851L384.628 69.9163L384.952 70.6705C385.167 71.1708 385.352 71.671 385.544 72.1713C385.929 73.1718 386.268 74.18 386.599 75.196C387.237 77.2278 387.799 79.2981 388.222 81.43C388.438 82.4998 388.623 83.5772 388.784 84.6701C388.931 85.7707 389.038 86.8789 389.123 88.0103C389.285 90.273 389.246 92.6127 388.923 95.0524L388.846 95.6219C388.746 96.3685 388.469 97.0689 388.076 97.6538C387.222 98.916 386.368 99.8318 385.498 100.609C384.636 101.386 383.782 102.041 382.927 102.641C381.234 103.826 379.518 104.742 377.825 105.589C376.108 106.412 374.4 107.128 372.661 107.751C370.906 108.375 369.197 108.913 367.319 109.344C365.518 109.76 363.725 108.636 363.317 106.835C363.017 105.542 363.517 104.25 364.487 103.48L364.626 103.364C365.911 102.341 367.312 101.302 368.628 100.278C369.951 99.2469 371.26 98.2233 372.491 97.1843C373.738 96.1684 374.892 95.0909 375.893 94.075C376.386 93.567 376.832 93.0591 377.186 92.5819C377.532 92.1124 377.802 91.6891 377.856 91.4582L377.009 94.0596C377.009 92.5973 376.817 91.0119 376.563 89.3879C376.278 87.7563 375.893 86.0939 375.447 84.4084C374.977 82.7306 374.477 81.0298 373.9 79.352C373.623 78.5054 373.315 77.6742 373.022 76.8353L372.145 74.4725L372.014 74.1185C370.744 70.6936 372.491 66.8916 375.916 65.6218C379.195 64.4057 382.827 65.9758 384.243 69.1082L384.259 69.0851Z" fill="#FFBE9D"/>
<path d="M375.142 62.5898C377.966 62.9054 383.946 65.0219 387.879 73.1261C384.015 80.7608 373.941 83.6623 373.941 83.6623C373.941 83.6623 366.93 66.6458 375.142 62.5898Z" fill="#FF3774"/>
<path d="M352.059 117.292H318.834C317.388 117.292 317.08 116.961 318.149 116.546L333.311 110.758C334.381 110.35 336.444 110.012 337.89 110.012H371.115C372.562 110.012 372.87 110.343 371.8 110.758L356.639 116.546C355.569 116.954 353.506 117.292 352.059 117.292Z" fill="#455A64"/>
<path opacity="0.4" d="M352.059 117.292H318.834C317.388 117.292 317.08 116.961 318.149 116.546L333.311 110.758C334.381 110.35 336.444 110.012 337.89 110.012H371.115C372.562 110.012 372.87 110.343 371.8 110.758L356.639 116.546C355.569 116.954 353.506 117.292 352.059 117.292Z" fill="black"/>
<path d="M352.061 115.914H318.836C317.389 115.914 315.988 114.729 315.719 113.282L311.955 92.8021C311.686 91.3552 312.655 90.1699 314.102 90.1699H347.327C348.774 90.1699 350.175 91.3552 350.444 92.8021L354.208 113.282C354.477 114.729 353.507 115.914 352.061 115.914Z" fill="#455A64"/>
<path opacity="0.3" d="M352.061 115.914H318.836C317.389 115.914 315.988 114.729 315.719 113.282L311.955 92.8021C311.686 91.3552 312.655 90.1699 314.102 90.1699H347.327C348.774 90.1699 350.175 91.3552 350.444 92.8021L354.208 113.282C354.477 114.729 353.507 115.914 352.061 115.914Z" fill="black"/>
<path opacity="0.3" d="M351.283 115.914H318.836C317.389 115.914 315.988 114.729 315.719 113.282L311.955 92.8021C311.686 91.3552 312.655 90.1699 314.102 90.1699H346.55C347.997 90.1699 349.398 91.3552 349.667 92.8021L353.43 113.282C353.7 114.729 352.73 115.914 351.283 115.914Z" fill="#455A64"/>
<path d="M366.384 104.781L368.046 106.528C369.601 110.23 364.498 111.407 364.498 111.407L362.274 112.97C361.52 113.501 360.427 113.324 359.688 112.562L357.833 110.638C356.986 109.76 356.909 108.436 357.664 107.698L359.357 106.035C359.849 105.55 360.458 105.196 361.119 105.004L364.067 104.15C364.898 103.911 365.791 104.15 366.391 104.773L366.384 104.781Z" fill="#FFBE9D"/>
<path d="M357.671 66.8833C357.871 66.0367 358.687 64.6437 359.695 64.028C359.896 63.0044 359.734 61.9346 359.134 60.7571L368.308 53.0762C368.877 56.9012 370.224 62.0039 372.11 63.6586C370.008 65.5981 366.145 69.0999 361.327 69.9157C356.517 70.7315 357.225 68.7228 357.671 66.8756V66.8833Z" fill="#FFB692"/>
<path opacity="0.2" d="M359.305 61.1197L367.14 57.8564C366.154 61.8431 361.721 65.1371 359.766 63.5517C359.828 62.7744 359.69 61.974 359.312 61.1197H359.305Z" fill="black"/>
<path d="M358.846 48.8058C358.846 51.6226 356.56 53.9084 353.743 53.9084C350.926 53.9084 348.641 51.6226 348.641 48.8058C348.641 45.9889 350.926 43.7031 353.743 43.7031C356.56 43.7031 358.846 45.9889 358.846 48.8058Z" fill="#111111"/>
<path d="M367.629 45.9342C368.829 51.768 369.522 55.7547 366.851 59.0795C361.541 65.6906 356.723 63.6357 353.791 58.2637C351.159 53.4304 349.635 44.7028 354.653 40.9393C359.601 37.2374 366.428 40.0927 367.629 45.9265V45.9342Z" fill="#FFBE9D"/>
<path d="M356.172 44.3877C354.994 45.7346 351.877 48.5591 347.344 46.0117C342.811 43.4642 344.658 37.3841 347.39 35.4292C351.346 32.6047 355.302 34.3748 355.302 34.3748C355.302 34.3748 354.925 31.1347 359.481 31.0039C364.037 30.873 363.806 34.1132 363.806 34.1132C363.806 34.1132 369.709 31.658 372.526 36.1989C375.151 40.4241 371.241 43.7028 371.241 43.7028C371.241 43.7028 375.328 45.4575 373.981 49.7059C372.826 53.3462 369.509 53.3308 369.509 53.3308C369.509 53.3308 365.145 53.6387 364.414 50.4601C363.675 47.2815 365.053 44.9265 365.053 44.9265C365.053 44.9265 358.065 47.651 356.172 44.38V44.3877Z" fill="#111111"/>
<path d="M362.873 51.2682C362.873 51.2682 362.858 51.2682 362.85 51.2682L361.773 51.1605C361.665 51.1528 361.588 51.0527 361.604 50.9527C361.611 50.8449 361.711 50.768 361.811 50.7834L362.85 50.8911L368.284 49.5673C368.392 49.5443 368.492 49.6058 368.515 49.7059C368.538 49.8059 368.476 49.9137 368.376 49.9368L362.912 51.2682C362.912 51.2682 362.881 51.2682 362.866 51.2682H362.873Z" fill="#263238"/>
<path d="M370.714 44.3107C370.537 44.3107 370.36 44.303 370.183 44.2799C369.976 44.2568 369.822 44.0721 369.837 43.8566C369.86 43.6488 370.053 43.4872 370.26 43.5103C371.469 43.6334 372.446 43.2717 372.962 42.5175C373.362 41.9326 373.408 41.2014 373.085 40.5703C372.985 40.3779 373.062 40.147 373.254 40.0547C373.447 39.9546 373.677 40.0316 373.77 40.224C374.216 41.1014 374.155 42.1481 373.601 42.9562C373.008 43.8258 371.969 44.303 370.722 44.303L370.714 44.3107Z" fill="#111111"/>
<path d="M349.566 48.0745C348.858 48.0745 348.081 47.9745 347.234 47.7359C345.049 47.1356 343.663 45.5502 343.425 43.3952C343.179 41.1325 344.287 38.7466 346.011 37.8308C346.195 37.7307 346.434 37.8 346.534 37.9924C346.634 38.1771 346.565 38.4157 346.372 38.5157C344.91 39.2931 343.971 41.3557 344.187 43.3182C344.302 44.3957 344.887 46.3044 347.435 47.0048C351.945 48.2439 354.215 45.3424 355.169 43.5029C355.269 43.3182 355.5 43.2413 355.685 43.3413C355.877 43.4414 355.947 43.6723 355.847 43.857C354.962 45.5656 353.061 48.0822 349.551 48.0822L349.566 48.0745Z" fill="#111111"/>
<path d="M358.112 56.9015C357.85 57.0093 357.565 57.1094 357.25 57.1786C357.165 57.194 357.088 57.1401 357.073 57.0555C357.058 56.9708 357.111 56.8785 357.204 56.8631C359.49 56.3474 360.298 54.431 360.305 54.4156C360.336 54.331 360.429 54.2848 360.513 54.3233C360.59 54.3541 360.629 54.4464 360.59 54.5311C360.559 54.6081 359.905 56.1473 358.112 56.9092V56.9015Z" fill="#263238"/>
<path opacity="0.2" d="M360.395 49.0825C360.395 49.0825 361.349 48.2513 362.388 48.436C361.38 49.0055 360.395 49.0825 360.395 49.0825Z" fill="black"/>
<path opacity="0.2" d="M360.578 49.5524C360.578 49.5524 361.586 48.9906 362.471 49.437C361.463 49.7294 360.578 49.5524 360.578 49.5524Z" fill="black"/>
<path opacity="0.2" d="M352.518 51.3065C352.518 51.3065 351.856 50.9371 351.633 51.3604C352.187 51.5143 352.518 51.3065 352.518 51.3065Z" fill="black"/>
<path opacity="0.2" d="M352.592 51.7758C352.592 51.7758 352.038 51.4295 351.977 51.9836C352.408 52.0837 352.592 51.7758 352.592 51.7758Z" fill="black"/>
<path d="M371.239 52.2683C370.77 53.7999 369.638 54.9697 368.461 55.5623C366.691 56.4551 365.405 54.9697 365.559 53.0995C365.698 51.414 366.791 48.9204 368.73 48.805C370.639 48.6895 371.77 50.5213 371.239 52.2683Z" fill="#FFB692"/>
<path d="M358.954 49.8059C359.077 50.2754 358.931 50.7141 358.631 50.7987C358.323 50.8757 357.969 50.5678 357.846 50.0984C357.722 49.6289 357.861 49.1902 358.169 49.1055C358.477 49.0286 358.831 49.3364 358.954 49.8059Z" fill="#263238"/>
<path d="M354.02 51.2063C354.143 51.6758 354.005 52.1145 353.697 52.1991C353.389 52.2761 353.043 51.9682 352.912 51.4987C352.789 51.0293 352.927 50.5906 353.235 50.5059C353.543 50.4213 353.889 50.7368 354.02 51.2063Z" fill="#263238"/>
<path d="M351.179 54.7084C350.879 54.7084 350.563 54.5314 350.41 54.262L349.625 52.8613C349.532 52.6919 349.517 52.4995 349.586 52.3379C349.655 52.184 349.794 52.0762 349.979 52.0378L353.981 51.1527C354.319 51.0757 354.727 51.2681 354.904 51.5837L355.689 52.9844C355.782 53.1537 355.797 53.3461 355.728 53.5078C355.658 53.6617 355.52 53.7694 355.335 53.8079L351.333 54.693C351.279 54.7007 351.233 54.7084 351.179 54.7084ZM354.135 51.5144C354.135 51.5144 354.081 51.5144 354.058 51.5221L350.055 52.4072C350.009 52.4149 349.955 52.438 349.932 52.4918C349.909 52.538 349.917 52.5996 349.955 52.6689L350.74 54.0696C350.833 54.2389 351.071 54.3467 351.248 54.3082L355.251 53.4231C355.297 53.4154 355.351 53.3923 355.374 53.3384C355.397 53.2923 355.389 53.2307 355.351 53.1614L354.566 51.7607C354.481 51.6145 354.296 51.5144 354.135 51.5144Z" fill="#263238"/>
<path d="M355.666 51.2607L357.36 54.9627C357.36 54.9627 356.09 55.9247 354.974 55.6784C354.589 53.5542 355.666 51.2607 355.666 51.2607Z" fill="#CC9275"/>
<path d="M357.816 53.2308C357.516 53.2308 357.2 53.0538 357.046 52.7845L356.261 51.3837C356.169 51.2144 356.153 51.022 356.223 50.8604C356.292 50.7065 356.431 50.5987 356.615 50.5602L360.617 49.6751C360.964 49.5982 361.364 49.7906 361.541 50.1061L362.326 51.5069C362.418 51.6762 362.434 51.8686 362.364 52.0302C362.295 52.1841 362.157 52.2919 361.972 52.3304L357.97 53.2154C357.916 53.2231 357.87 53.2308 357.816 53.2308ZM360.771 50.0369C360.771 50.0369 360.717 50.0369 360.694 50.0446L356.692 50.9296C356.646 50.9373 356.592 50.9604 356.569 51.0143C356.546 51.0605 356.554 51.1221 356.592 51.1913L357.377 52.592C357.47 52.7614 357.708 52.8691 357.885 52.8306L361.887 51.9456C361.933 51.9379 361.987 51.9148 362.01 51.8609C362.033 51.8147 362.026 51.7532 361.987 51.6839L361.202 50.2832C361.125 50.1369 360.933 50.0369 360.771 50.0369Z" fill="#263238"/>
<path d="M355.057 52.4306C355.057 52.4306 355.018 52.4306 354.995 52.4229C354.895 52.3921 354.841 52.2844 354.872 52.1843C354.88 52.1535 355.149 51.3531 356.788 51.6764C356.896 51.6994 356.958 51.7995 356.942 51.8996C356.919 52.0073 356.819 52.0766 356.719 52.0535C355.449 51.7995 355.249 52.2998 355.241 52.3075C355.211 52.3844 355.134 52.4306 355.057 52.4306Z" fill="#263238"/>
<path d="M360.089 48.106C360.136 48.0906 360.174 48.0598 360.205 48.0213C360.305 47.8982 360.282 47.7212 360.151 47.6211C358.904 46.6514 357.65 47.0593 357.604 47.0747C357.457 47.1286 357.373 47.2825 357.426 47.4364C357.48 47.5826 357.642 47.6673 357.788 47.6134C357.827 47.598 358.804 47.2902 359.805 48.0675C359.889 48.1368 359.997 48.1445 360.089 48.106Z" fill="#263238"/>
<path d="M350.945 50.5214C351.037 50.4983 351.106 50.4291 351.137 50.3367C351.514 49.1438 352.492 48.8513 352.538 48.8359C352.692 48.7898 352.777 48.6358 352.73 48.4896C352.684 48.3357 352.53 48.251 352.376 48.2895C352.322 48.3049 351.06 48.6666 350.591 50.1597C350.545 50.3059 350.629 50.4676 350.775 50.5137C350.829 50.5291 350.891 50.5291 350.937 50.5137L350.945 50.5214Z" fill="#263238"/>
<path opacity="0.2" d="M294.754 255.035V305.638C294.754 311.157 299.272 315.674 304.79 315.674H317.112L312.709 259.822L294.754 255.035Z" fill="black"/>
<path d="M276.407 255.466L271.489 261.6C270.596 262.716 269.249 263.378 267.879 263.378H223.464C221.109 263.378 219.038 265.287 218.838 267.65L214.929 314.928C214.736 317.283 216.483 319.199 218.846 319.199H305.814C308.169 319.199 310.24 317.291 310.44 314.928L315.158 257.96C315.35 255.605 313.603 253.688 311.24 253.688H280.032C278.654 253.688 277.315 254.35 276.422 255.466H276.407Z" fill="#673DE6"/>
<path opacity="0.3" d="M276.407 255.466L271.489 261.6C270.596 262.716 269.249 263.378 267.879 263.378H223.464C221.109 263.378 219.038 265.287 218.838 267.65L214.929 314.928C214.736 317.283 216.483 319.199 218.846 319.199H305.814C308.169 319.199 310.24 317.291 310.44 314.928L315.158 257.96C315.35 255.605 313.603 253.688 311.24 253.688H280.032C278.654 253.688 277.315 254.35 276.422 255.466H276.407Z" fill="black"/>
<path d="M258.843 258.83L254.856 264.641C254.133 265.695 252.886 266.326 251.516 266.326H214.981C212.626 266.326 210.849 268.135 211.01 270.367L214.273 315.152C214.435 317.384 216.482 319.192 218.837 319.192H305.806C308.161 319.192 309.938 317.384 309.777 315.152L305.844 261.185C305.682 258.953 303.635 257.145 301.28 257.145H262.191C260.813 257.145 259.574 257.768 258.85 258.83H258.843Z" fill="#673DE6"/>
<path d="M288.723 65.5586H144.469V95.2395H288.723V65.5586Z" stroke="#3F3D56" stroke-width="0.66264" stroke-miterlimit="10"/>
<path d="M278.512 71.3027H134.258V100.984H278.512V71.3027Z" fill="#673DE6"/>
<path d="M43.0619 42.9773C44.2956 42.9773 45.2956 41.9772 45.2956 40.7435C45.2956 39.5099 44.2956 38.5098 43.0619 38.5098C41.8282 38.5098 40.8281 39.5099 40.8281 40.7435C40.8281 41.9772 41.8282 42.9773 43.0619 42.9773Z" fill="#A79BDD"/>
<path d="M50.722 42.9773C51.9557 42.9773 52.9558 41.9772 52.9558 40.7435C52.9558 39.5099 51.9557 38.5098 50.722 38.5098C49.4884 38.5098 48.4883 39.5099 48.4883 40.7435C48.4883 41.9772 49.4884 42.9773 50.722 42.9773Z" fill="#A79BDD"/>
<path d="M58.3822 42.9773C59.6159 42.9773 60.616 41.9772 60.616 40.7435C60.616 39.5099 59.6159 38.5098 58.3822 38.5098C57.1485 38.5098 56.1484 39.5099 56.1484 40.7435C56.1484 41.9772 57.1485 42.9773 58.3822 42.9773Z" fill="#A79BDD"/>
<path d="M37 44.6807H305.083" stroke="#3F3D56" stroke-width="0.66264" stroke-miterlimit="10"/>
<path d="M43.6986 42.0203C44.9323 42.0203 45.9324 41.0202 45.9324 39.7865C45.9324 38.5528 44.9323 37.5527 43.6986 37.5527C42.4649 37.5527 41.4648 38.5528 41.4648 39.7865C41.4648 41.0202 42.4649 42.0203 43.6986 42.0203Z" stroke="#3F3D56" stroke-width="0.66264" stroke-miterlimit="10"/>
<path d="M51.3588 42.0203C52.5924 42.0203 53.5925 41.0202 53.5925 39.7865C53.5925 38.5528 52.5924 37.5527 51.3588 37.5527C50.1251 37.5527 49.125 38.5528 49.125 39.7865C49.125 41.0202 50.1251 42.0203 51.3588 42.0203Z" stroke="#3F3D56" stroke-width="0.66264" stroke-miterlimit="10"/>
<path d="M59.0228 42.0203C60.2565 42.0203 61.2566 41.0202 61.2566 39.7865C61.2566 38.5528 60.2565 37.5527 59.0228 37.5527C57.7891 37.5527 56.7891 38.5528 56.7891 39.7865C56.7891 41.0202 57.7891 42.0203 59.0228 42.0203Z" stroke="#3F3D56" stroke-width="0.66264" stroke-miterlimit="10"/>
<path d="M121 45L121 288" stroke="#3F3D56" stroke-width="0.66264" stroke-miterlimit="10"/>
<path d="M198.238 125.717H151.324V132.1H198.238V125.717Z" fill="#F2F2F2"/>
<path d="M198.914 204.19H152V210.574H198.914V204.19Z" fill="#F2F2F2"/>
<path d="M271.961 125.717H225.047V132.1H271.961V125.717Z" fill="#F2F2F2"/>
<path d="M272.637 204.19H225.723V210.574H272.637V204.19Z" fill="#F2F2F2"/>
<path d="M200.797 122.526H153.883V128.91H200.797V122.526Z" stroke="#3F3D56" stroke-width="0.66264" stroke-miterlimit="10"/>
<path d="M201.473 201H154.559V207.383H201.473V201Z" stroke="#3F3D56" stroke-width="0.66264" stroke-miterlimit="10"/>
<path d="M198.238 175.185H151.324V181.568H198.238V175.185Z" fill="#F2F2F2"/>
<path d="M198.914 253.658H152V260.041H198.914V253.658Z" fill="#F2F2F2"/>
<path d="M200.797 171.993H153.883V178.376H200.797V171.993Z" stroke="#3F3D56" stroke-width="0.66264" stroke-miterlimit="10"/>
<path d="M201.473 250.467H154.559V256.85H201.473V250.467Z" stroke="#3F3D56" stroke-width="0.66264" stroke-miterlimit="10"/>
<path d="M272.122 149.812H151.484V156.195H272.122V149.812Z" fill="#F2F2F2"/>
<path d="M272.798 228.285H152.16V234.668H272.798V228.285Z" fill="#F2F2F2"/>
<path d="M274.68 147.261H154.043V153.644H274.68V147.261Z" stroke="#3F3D56" stroke-width="0.66264" stroke-miterlimit="10"/>
<path d="M275.356 225.734H154.719V232.118H275.356V225.734Z" stroke="#3F3D56" stroke-width="0.66264" stroke-miterlimit="10"/>
<path d="M274.512 122.526H227.598V128.91H274.512V122.526Z" stroke="#3F3D56" stroke-width="0.66264" stroke-miterlimit="10"/>
<path d="M288.128 157.01C288.384 157.01 288.592 156.802 288.592 156.546C288.592 156.29 288.384 156.082 288.128 156.082C287.872 156.082 287.664 156.29 287.664 156.546C287.664 156.802 287.872 157.01 288.128 157.01Z" fill="#F2F2F2"/>
<path d="M284.972 162.974C285.228 162.974 285.436 162.766 285.436 162.51C285.436 162.254 285.228 162.046 284.972 162.046C284.715 162.046 284.508 162.254 284.508 162.51C284.508 162.766 284.715 162.974 284.972 162.974Z" fill="#F2F2F2"/>
<path d="M286.444 159.834C286.7 159.834 286.908 159.626 286.908 159.37C286.908 159.114 286.7 158.906 286.444 158.906C286.188 158.906 285.98 159.114 285.98 159.37C285.98 159.626 286.188 159.834 286.444 159.834Z" fill="#F2F2F2"/>
<path d="M283.136 166.068C283.392 166.068 283.6 165.861 283.6 165.604C283.6 165.348 283.392 165.141 283.136 165.141C282.88 165.141 282.672 165.348 282.672 165.604C282.672 165.861 282.88 166.068 283.136 166.068Z" fill="#F2F2F2"/>
<path d="M289.688 100.787C289.722 100.767 289.751 100.746 289.78 100.726C289.785 100.722 289.79 100.716 289.795 100.711L289.688 100.787Z" fill="black"/>
<path opacity="0.1" d="M287.344 137.808C288.188 137.454 289.094 137.274 290.01 137.277Z" fill="black"/>
<path d="M59 95.1915C62.9512 89.1061 70.4315 85 79.0097 85C91.7071 85 102 93.9964 102 105.093C102 112.189 97.7923 118.425 91.4392 122" stroke="#3F3D56" stroke-width="0.66264" stroke-miterlimit="10"/>
<path d="M53 108.104C53 116.855 58.2178 124.417 65.7836 128L54.9637 99.1075C53.6761 101.895 53.0034 104.977 53 108.104ZM90.9949 106.992C90.9531 104.796 90.3002 102.668 89.1246 100.895C87.9749 99.0741 86.8978 97.532 86.8978 95.7111C86.9316 94.6347 87.3515 93.617 88.0654 92.8813C88.7793 92.1457 89.729 91.7521 90.7059 91.787C90.8063 91.787 90.9022 91.7995 91 91.8044C86.6465 87.997 81.2402 85.9487 75.6822 86.001C67.758 86.001 60.7867 89.964 56.7305 95.9649C57.2625 95.9802 57.7647 95.9913 58.19 95.9913C60.5626 95.9913 64.2351 95.7132 64.2351 95.7132C64.3499 95.6883 64.4682 95.6904 64.5822 95.7192C64.6962 95.748 64.8035 95.8029 64.897 95.8803C64.9906 95.9577 65.0683 96.056 65.1251 96.1687C65.1819 96.2813 65.2166 96.4059 65.2269 96.5343C65.2371 96.6627 65.2228 96.7921 65.1847 96.914C65.1467 97.0359 65.0858 97.1476 65.006 97.2419C64.9263 97.3362 64.8294 97.4109 64.7217 97.4612C64.614 97.5116 64.4978 97.5364 64.3809 97.5341C64.3809 97.5341 63.1517 97.6731 61.7843 97.7427L70.0442 121.688L75.0083 107.179L71.4747 97.7427C70.253 97.6731 69.0964 97.5341 69.0964 97.5341C68.9799 97.5358 68.8644 97.5106 68.7573 97.4602C68.6503 97.4097 68.5539 97.335 68.4746 97.241C68.3953 97.147 68.3348 97.0358 68.2969 96.9144C68.259 96.793 68.2447 96.6643 68.2547 96.5364C68.2648 96.4086 68.2991 96.2844 68.3553 96.1721C68.4116 96.0597 68.4886 95.9616 68.5814 95.884C68.6742 95.8064 68.7807 95.7512 68.8941 95.7217C69.0075 95.6923 69.1252 95.6894 69.2396 95.7132C69.2396 95.7132 72.9853 95.9913 75.214 95.9913C77.586 95.9913 81.2591 95.7132 81.2591 95.7132C81.3739 95.6883 81.4922 95.6904 81.6063 95.7192C81.7203 95.748 81.8276 95.8029 81.9211 95.8804C82.0146 95.9579 82.0923 96.0562 82.1491 96.1689C82.2059 96.2816 82.2406 96.4063 82.2508 96.5347C82.2611 96.6631 82.2467 96.7925 82.2086 96.9144C82.1705 97.0363 82.1095 97.148 82.0297 97.2422C81.9498 97.3365 81.8529 97.4112 81.7451 97.4615C81.6374 97.5117 81.5212 97.5365 81.4042 97.5341C81.4042 97.5341 80.1731 97.6731 78.8083 97.7427L87.0051 121.506L89.2672 114.136C90.2485 111.077 90.9943 108.882 90.9943 106.99L90.9949 106.992Z" fill="#673DE6"/>
<path d="M76.0186 110.267L69 129.119C73.7297 130.401 78.7077 130.282 83.3762 128.774C83.3115 128.681 83.2557 128.581 83.2096 128.477L76.0186 110.267ZM96.134 98.0007C96.2402 98.7365 96.2929 99.4797 96.2915 100.224C96.2472 102.91 95.6401 105.554 94.5129 107.969L87.3674 127.066C94.3222 123.317 99 116.353 99 108.375C98.9948 104.704 98.0026 101.109 96.1366 98L96.134 98.0007Z" fill="#673DE6"/>
</svg>
