<svg width="538" height="296" viewBox="0 0 538 296" fill="none" xmlns="http://www.w3.org/2000/svg">
<g clip-path="url(#clip0_1289_35677)">
<path d="M447.679 46.616H229.983V91.408H447.679V46.616Z" stroke="#3F3D56" stroke-miterlimit="10"/>
<path d="M100.071 110.241C106.279 100.541 118.032 93.9961 131.51 93.9961C151.46 93.9961 167.632 108.336 167.632 126.024C167.632 137.334 161.021 147.274 151.039 152.973" stroke="#3F3D56" stroke-miterlimit="10"/>
<path d="M432.267 55.2849H214.571V100.077H432.267V55.2849Z" fill="#FC5185"/>
<path d="M76.954 12.5401C78.8158 12.5401 80.325 11.0308 80.325 9.1691C80.325 7.30734 78.8158 5.7981 76.954 5.7981C75.0923 5.7981 73.583 7.30734 73.583 9.1691C73.583 11.0308 75.0923 12.5401 76.954 12.5401Z" fill="#2F1C6A"/>
<path d="M88.5131 12.5401C90.3748 12.5401 91.8841 11.0308 91.8841 9.1691C91.8841 7.30734 90.3748 5.7981 88.5131 5.7981C86.6513 5.7981 85.1421 7.30734 85.1421 9.1691C85.1421 11.0308 86.6513 12.5401 88.5131 12.5401Z" fill="#2F1C6A"/>
<path d="M100.072 12.5401C101.934 12.5401 103.443 11.0308 103.443 9.1691C103.443 7.30734 101.934 5.7981 100.072 5.7981C98.2104 5.7981 96.7012 7.30734 96.7012 9.1691C96.7012 11.0308 98.2104 12.5401 100.072 12.5401Z" fill="#2F1C6A"/>
<path d="M472.373 0.5H67.8042V263.47H472.373V0.5Z" stroke="#3F3D56" stroke-miterlimit="10"/>
<path d="M67.8042 15.1101H472.373" stroke="#3F3D56" stroke-miterlimit="10"/>
<path d="M77.9169 11.095C79.7787 11.095 81.2879 9.58578 81.2879 7.72403C81.2879 5.86228 79.7787 4.35303 77.9169 4.35303C76.0551 4.35303 74.5459 5.86228 74.5459 7.72403C74.5459 9.58578 76.0551 11.095 77.9169 11.095Z" stroke="#3F3D56" stroke-miterlimit="10"/>
<path d="M89.476 11.095C91.3377 11.095 92.847 9.58578 92.847 7.72403C92.847 5.86228 91.3377 4.35303 89.476 4.35303C87.6142 4.35303 86.105 5.86228 86.105 7.72403C86.105 9.58578 87.6142 11.095 89.476 11.095Z" stroke="#3F3D56" stroke-miterlimit="10"/>
<path d="M101.036 11.095C102.898 11.095 104.407 9.58578 104.407 7.72403C104.407 5.86228 102.898 4.35303 101.036 4.35303C99.1743 4.35303 97.665 5.86228 97.665 7.72403C97.665 9.58578 99.1743 11.095 101.036 11.095Z" stroke="#3F3D56" stroke-miterlimit="10"/>
<path d="M15.809 98.7761C17.2838 98.1242 18.587 97.1386 19.616 95.897C20.6449 94.6555 21.3714 93.192 21.7383 91.6218C22.1051 90.0516 22.1022 88.4176 21.7299 86.8487C21.3575 85.2798 20.6259 83.8189 19.5926 82.581C18.5593 81.3431 17.2526 80.3621 15.7755 79.7153C14.2985 79.0685 12.6913 78.7737 11.0809 78.854C9.47037 78.9343 7.90055 79.3875 6.49512 80.178C5.08968 80.9685 3.88705 82.0746 2.98201 83.4091L6.88201 87.0941L1.87201 85.5371C0.886754 88.1039 0.960849 90.9569 2.07801 93.4691C2.46619 94.3524 2.9776 95.1763 3.59701 95.9161C5.04497 97.6555 7.02035 98.8756 9.22393 99.3917C11.4275 99.9078 13.7393 99.6917 15.809 98.7761Z" fill="#2F1C6A"/>
<path d="M67.9103 134.924C64.1103 132.256 64.1103 126.655 65.0513 122.107C65.9923 117.559 67.4373 112.597 65.2933 108.477C62.2123 102.555 54.1123 102.199 47.4673 101.566C42.5363 101.096 37.6784 100.043 32.9953 98.4289C31.0857 97.8613 29.2915 96.9608 27.6953 95.7689C25.4813 93.9589 24.1823 91.2889 22.9693 88.6979C18.93 80.0699 15.096 71.3492 11.4673 62.5359" stroke="#3F3D56" stroke-miterlimit="10"/>
<path d="M15.1641 97.4831C16.6387 96.8308 17.9416 95.8449 18.9702 94.6032C19.9988 93.3615 20.725 91.8978 21.0915 90.3276C21.458 88.7574 21.4548 87.1235 21.0821 85.5548C20.7095 83.986 19.9776 82.5252 18.9441 81.2876C17.9106 80.0499 16.6038 79.0691 15.1267 78.4226C13.6496 77.7761 12.0425 77.4815 10.432 77.5621C8.82164 77.6426 7.25194 78.096 5.84666 78.8866C4.44137 79.6773 3.23892 80.7835 2.33406 82.1181L6.23406 85.8031L1.22406 84.2461C0.238805 86.8129 0.3129 89.6658 1.43006 92.1781C1.81823 93.0614 2.32965 93.8853 2.94906 94.6251C4.39757 96.3646 6.37359 97.5847 8.57776 98.1005C10.7819 98.6162 13.0941 98.3994 15.1641 97.4831Z" stroke="#3F3D56" stroke-miterlimit="10"/>
<path d="M2.47183 68.6059C1.76431 67.0103 1.46976 65.2623 1.61534 63.5229C1.76091 61.7835 2.34192 60.1087 3.30483 58.6529L7.45183 61.7339L4.89283 56.7729C6.50744 55.2682 8.55846 54.3156 10.7498 54.0525C12.9411 53.7894 15.1593 54.2296 17.0842 55.3093C19.009 56.3891 20.541 58.0527 21.4588 60.0598C22.3766 62.067 22.6328 64.3139 22.1904 66.4761C21.748 68.6384 20.6299 70.6041 18.9975 72.0895C17.3652 73.5749 15.303 74.5031 13.1087 74.7401C10.9144 74.9771 8.70158 74.5106 6.78967 73.4081C4.87777 72.3055 3.36572 70.6238 2.47183 68.6059Z" fill="#2F1C6A"/>
<path d="M1.611 66.884C0.903472 65.2884 0.608924 63.5403 0.754498 61.8009C0.900072 60.0616 1.48109 58.3868 2.444 56.931L6.591 60.012L4.03199 55.051C5.6466 53.5463 7.69762 52.5937 9.88893 52.3306C12.0802 52.0675 14.2985 52.5076 16.2233 53.5874C18.1482 54.6672 19.6801 56.3307 20.5979 58.3379C21.5158 60.345 21.772 62.5919 21.3296 64.7542C20.8872 66.9164 19.7691 68.8822 18.1367 70.3676C16.5043 71.8529 14.4421 72.7812 12.2479 73.0182C10.0536 73.2552 7.84074 72.7887 5.92884 71.6861C4.01693 70.5836 2.50489 68.9019 1.611 66.884Z" stroke="#3F3D56" stroke-miterlimit="10"/>
<path d="M46.2203 102.907C48.5582 101.871 50.4332 100.012 51.488 97.6826C52.5428 95.3534 52.7036 92.7174 51.9396 90.2773C51.1757 87.8372 49.5405 85.7635 47.3457 84.4516C45.151 83.1397 42.5503 82.6814 40.0393 83.1639L42.0063 86.9759L37.8113 83.8569L37.7853 83.8679C36.53 84.4184 35.3958 85.2112 34.4477 86.201C33.4995 87.1909 32.7562 88.3581 32.2602 89.6359C31.7643 90.9137 31.5255 92.2768 31.5575 93.6471C31.5896 95.0173 31.8919 96.3678 32.4471 97.6209C33.0023 98.8741 33.7995 100.005 34.7929 100.95C35.7863 101.894 36.9564 102.633 38.236 103.124C39.5156 103.615 40.8797 103.849 42.2498 103.812C43.6199 103.774 44.9692 103.467 46.2203 102.907Z" fill="#2F1C6A"/>
<path d="M45.2863 101.22C47.6242 100.184 49.4992 98.3248 50.554 95.9956C51.6088 93.6664 51.7696 91.0305 51.0056 88.5903C50.2417 86.1502 48.6065 84.0765 46.4118 82.7646C44.217 81.4527 41.6163 80.9943 39.1053 81.4769L41.0723 85.2889L36.8773 82.1729L36.8513 82.1839C34.337 83.3092 32.3712 85.385 31.3842 87.9567C30.3972 90.5284 30.4695 93.3865 31.5853 95.905C32.7011 98.4235 34.7694 100.397 37.3374 101.394C39.9053 102.391 42.7636 102.329 45.2863 101.223V101.22Z" stroke="#F4F5FF" stroke-miterlimit="10"/>
<path d="M50.376 122.888C52.3028 124.298 54.6558 125.003 57.0404 124.884C59.425 124.765 61.6962 123.829 63.4731 122.235C65.2499 120.64 66.4244 118.483 66.7995 116.125C67.1746 113.767 66.7276 111.352 65.5334 109.284C64.3391 107.217 62.4703 105.623 60.2404 104.77C58.0105 103.916 55.555 103.856 53.2858 104.598C51.0166 105.341 49.0716 106.841 47.7771 108.847C46.4826 110.853 45.9173 113.244 46.176 115.617L54.358 117.441L47.219 119.158C47.9574 120.636 49.0401 121.916 50.376 122.888Z" fill="#2F1C6A"/>
<path d="M49.73 121.595C51.6568 123.005 54.0098 123.71 56.3944 123.591C58.779 123.472 61.0502 122.536 62.8271 120.942C64.6039 119.347 65.7784 117.19 66.1535 114.832C66.5286 112.474 66.0816 110.059 64.8874 107.991C63.6931 105.924 61.8244 104.33 59.5944 103.477C57.3645 102.623 54.909 102.563 52.6398 103.305C50.3706 104.048 48.4256 105.548 47.1311 107.554C45.8367 109.56 45.2713 111.951 45.53 114.324L53.712 116.148L46.573 117.865C47.3114 119.343 48.3941 120.623 49.73 121.595Z" stroke="#F4F5FF" stroke-miterlimit="10"/>
<path d="M501.936 221.034C503.306 221.763 504.827 222.165 506.379 222.206C507.931 222.248 509.471 221.928 510.879 221.273C512.286 220.618 513.522 219.644 514.489 218.43C515.456 217.216 516.127 215.793 516.451 214.275C516.774 212.756 516.741 211.184 516.353 209.681C515.965 208.178 515.233 206.785 514.215 205.613C513.197 204.441 511.921 203.521 510.487 202.927C509.053 202.332 507.501 202.078 505.952 202.186L505.477 207.33L503.677 202.61C501.147 203.389 499.03 205.14 497.791 207.479C497.353 208.296 497.033 209.172 496.84 210.079C496.382 212.211 496.632 214.434 497.552 216.411C498.471 218.388 500.011 220.011 501.936 221.034Z" fill="#2F1C6A"/>
<path d="M505.51 281.974C505.272 277.509 509.51 274.181 513.52 272.194C517.53 270.207 522.141 268.352 523.988 264.28C526.643 258.428 522.101 252.08 518.632 246.671C516.059 242.656 513.97 238.351 512.41 233.845C511.707 232.062 511.324 230.169 511.279 228.253C511.335 225.5 512.586 222.93 513.827 220.472C517.96 212.285 522.288 204.198 526.809 196.213" stroke="#3F3D56" stroke-miterlimit="10"/>
<path d="M502.533 219.777C503.903 220.506 505.424 220.908 506.976 220.949C508.528 220.991 510.068 220.671 511.475 220.016C512.883 219.361 514.118 218.387 515.085 217.173C516.052 215.958 516.724 214.536 517.048 213.018C517.371 211.499 517.338 209.927 516.95 208.424C516.562 206.921 515.83 205.528 514.812 204.356C513.794 203.184 512.518 202.264 511.084 201.67C509.65 201.075 508.098 200.821 506.549 200.929L506.074 206.073L504.274 201.353C501.744 202.132 499.627 203.883 498.388 206.222C497.95 207.039 497.63 207.915 497.437 208.822C496.979 210.954 497.229 213.177 498.148 215.154C499.068 217.131 500.607 218.754 502.533 219.777Z" stroke="#3F3D56" stroke-miterlimit="10"/>
<path d="M516.866 193.007C517.654 191.523 518.803 190.262 520.207 189.339C521.611 188.415 523.225 187.861 524.9 187.725L525.03 192.697L527.267 187.811C529.366 188.139 531.307 189.126 532.809 190.63C534.311 192.133 535.296 194.074 535.622 196.174C535.949 198.273 535.6 200.422 534.625 202.311C533.651 204.199 532.101 205.728 530.201 206.679C528.3 207.629 526.147 207.951 524.052 207.597C521.956 207.244 520.028 206.234 518.544 204.713C517.06 203.192 516.098 201.239 515.797 199.136C515.495 197.032 515.87 194.888 516.867 193.011L516.866 193.007Z" fill="#2F1C6A"/>
<path d="M517.664 191.33C518.452 189.846 519.601 188.584 521.005 187.661C522.409 186.738 524.023 186.183 525.698 186.048L525.828 191.02L528.065 186.134C530.164 186.462 532.105 187.449 533.607 188.952C535.108 190.455 536.094 192.397 536.42 194.497C536.747 196.596 536.397 198.745 535.423 200.633C534.448 202.521 532.899 204.051 530.999 205.001C529.098 205.952 526.945 206.273 524.85 205.92C522.754 205.567 520.826 204.557 519.342 203.036C517.858 201.515 516.896 199.562 516.595 197.458C516.293 195.355 516.668 193.21 517.665 191.334L517.664 191.33Z" stroke="#3F3D56" stroke-miterlimit="10"/>
<path d="M516.872 246.523C519.046 247.678 521.568 247.993 523.959 247.408C526.349 246.823 528.441 245.379 529.835 243.351C531.23 241.322 531.829 238.852 531.519 236.411C531.209 233.969 530.012 231.727 528.155 230.111L526.436 233.866L526.306 228.836L526.282 228.823C525.12 228.2 523.846 227.813 522.533 227.684C521.221 227.554 519.895 227.685 518.634 228.069C517.372 228.452 516.198 229.081 515.18 229.92C514.161 230.758 513.318 231.789 512.699 232.953C512.08 234.118 511.697 235.393 511.572 236.706C511.446 238.019 511.581 239.344 511.969 240.604C512.357 241.865 512.989 243.037 513.831 244.052C514.672 245.068 515.706 245.908 516.872 246.523Z" fill="#2F1C6A"/>
<path d="M517.595 244.813C519.769 245.968 522.291 246.283 524.682 245.698C527.072 245.113 529.164 243.669 530.558 241.64C531.952 239.612 532.552 237.142 532.242 234.7C531.932 232.259 530.735 230.017 528.878 228.401L527.159 232.156L527.029 227.126L527.005 227.113C524.659 225.875 521.918 225.618 519.382 226.398C516.847 227.177 514.723 228.931 513.478 231.273C512.233 233.615 511.967 236.356 512.739 238.894C513.51 241.432 515.257 243.56 517.595 244.813Z" stroke="#3F3D56" stroke-miterlimit="10"/>
<path d="M504.209 261.543C504.285 263.84 505.149 266.041 506.656 267.777C508.162 269.513 510.22 270.677 512.483 271.076C514.747 271.475 517.078 271.083 519.087 269.967C521.096 268.851 522.661 267.077 523.517 264.945C524.374 262.812 524.471 260.45 523.793 258.254C523.115 256.058 521.702 254.162 519.792 252.884C517.882 251.606 515.59 251.023 513.301 251.234C511.013 251.446 508.866 252.437 507.222 254.043L510.702 261.324L505.16 256.936C504.479 258.373 504.152 259.953 504.209 261.543Z" fill="#2F1C6A"/>
<path d="M504.806 260.285C504.882 262.582 505.746 264.784 507.253 266.52C508.76 268.256 510.817 269.421 513.081 269.82C515.345 270.219 517.677 269.827 519.686 268.71C521.695 267.594 523.26 265.82 524.116 263.687C524.973 261.555 525.071 259.192 524.392 256.996C523.714 254.799 522.301 252.903 520.39 251.625C518.48 250.347 516.188 249.765 513.899 249.976C511.61 250.187 509.464 251.179 507.819 252.785L511.299 260.066L505.757 255.678C505.076 257.115 504.75 258.695 504.806 260.285Z" stroke="#3F3D56" stroke-miterlimit="10"/>
<path d="M55.7851 57.3559C57.2599 56.704 58.5631 55.7184 59.5921 54.4769C60.621 53.2354 61.3475 51.7718 61.7143 50.2016C62.0812 48.6314 62.0783 46.9975 61.706 45.4286C61.3336 43.8597 60.602 42.3987 59.5687 41.1608C58.5354 39.9229 57.2287 38.9419 55.7516 38.2951C54.2745 37.6484 52.6674 37.3535 51.0569 37.4338C49.4464 37.5141 47.8766 37.9673 46.4712 38.7578C45.0658 39.5483 43.8631 40.6544 42.9581 41.9889L46.8581 45.6739L41.8481 44.1169C40.8628 46.6837 40.9369 49.5367 42.0541 52.0489C42.4423 52.9323 42.9537 53.7561 43.5731 54.4959C45.021 56.2353 46.9964 57.4555 49.2 57.9715C51.4036 58.4876 53.7153 58.2715 55.7851 57.3559Z" fill="#2F1C6A"/>
<path d="M67.6739 54.349C65.4599 52.539 64.1609 49.869 62.9479 47.279C58.9059 38.6503 55.0706 29.9293 51.4419 21.116" stroke="#3F3D56" stroke-miterlimit="10"/>
<path d="M55.1392 56.0629C56.6138 55.4106 57.9167 54.4248 58.9453 53.1831C59.9739 51.9413 60.7001 50.4777 61.0666 48.9075C61.4331 47.3373 61.4299 45.7034 61.0572 44.1346C60.6846 42.5658 59.9527 41.105 58.9192 39.8674C57.8857 38.6297 56.5789 37.649 55.1018 37.0025C53.6247 36.356 52.0175 36.0614 50.4071 36.1419C48.7967 36.2224 47.227 36.6759 45.8217 37.4665C44.4165 38.2571 43.214 39.3633 42.3092 40.6979L46.2092 44.3829L41.1992 42.8259C40.2139 45.3927 40.288 48.2457 41.4052 50.7579C41.7933 51.6412 42.3048 52.4651 42.9241 53.2049C44.3727 54.9445 46.3487 56.1646 48.5529 56.6803C50.757 57.196 53.0692 56.9793 55.1392 56.0629Z" stroke="#3F3D56" stroke-miterlimit="10"/>
<path d="M42.4469 27.186C41.7394 25.5904 41.4449 23.8423 41.5904 22.1029C41.736 20.3636 42.317 18.6888 43.2799 17.233L47.4269 20.314L44.8679 15.353C46.4825 13.8483 48.5336 12.8957 50.7249 12.6326C52.9162 12.3695 55.1344 12.8096 57.0593 13.8894C58.9842 14.9692 60.5161 16.6327 61.4339 18.6399C62.3517 20.647 62.6079 22.8939 62.1655 25.0562C61.7231 27.2184 60.605 29.1842 58.9727 30.6696C57.3403 32.155 55.2781 33.0832 53.0838 33.3202C50.8895 33.5572 48.6767 33.0907 46.7648 31.9881C44.8529 30.8856 43.3408 29.2039 42.4469 27.186Z" fill="#2F1C6A"/>
<path d="M41.5861 25.4641C40.8786 23.8684 40.584 22.1204 40.7296 20.381C40.8752 18.6417 41.4562 16.9669 42.4191 15.5111L46.5661 18.5921L44.0061 13.6311C45.6207 12.1264 47.6717 11.1737 49.863 10.9107C52.0543 10.6476 54.2726 11.0877 56.1974 12.1675C58.1223 13.2473 59.6542 14.9108 60.572 16.918C61.4899 18.9251 61.7461 21.172 61.3037 23.3343C60.8613 25.4965 59.7432 27.4623 58.1108 28.9476C56.4784 30.433 54.4162 31.3612 52.222 31.5982C50.0277 31.8352 47.8148 31.3688 45.9029 30.2662C43.991 29.1636 42.48 27.482 41.5861 25.4641Z" stroke="#3F3D56" stroke-miterlimit="10"/>
<path d="M194.822 15.1101V263.843" stroke="#3F3D56" stroke-miterlimit="10"/>
<path d="M311.137 137.403H240.338V147.036H311.137V137.403Z" fill="#F2F2F2"/>
<path d="M422.393 137.403H351.594V147.036H422.393V137.403Z" fill="#F2F2F2"/>
<path d="M314.99 132.587H244.191V142.22H314.99V132.587Z" stroke="#3F3D56" stroke-miterlimit="10"/>
<path d="M311.137 212.056H240.338V221.689H311.137V212.056Z" fill="#F2F2F2"/>
<path d="M314.99 207.239H244.191V216.872H314.99V207.239Z" stroke="#3F3D56" stroke-miterlimit="10"/>
<path d="M422.635 173.766H240.579V183.399H422.635V173.766Z" fill="#F2F2F2"/>
<path d="M426.488 169.913H244.432V179.546H426.488V169.913Z" stroke="#3F3D56" stroke-miterlimit="10"/>
<path d="M426.246 132.587H355.447V142.22H426.246V132.587Z" stroke="#3F3D56" stroke-miterlimit="10"/>
<path d="M448.722 104.381C448.873 104.901 449.067 105.407 449.301 105.895C451.903 112.01 452.016 118.898 449.616 125.095C451.348 125.074 453.078 125.175 454.796 125.395C456.523 125.616 458.277 125.423 459.914 124.831C460.742 124.51 461.475 123.982 462.041 123.298C462.608 122.614 462.989 121.796 463.15 120.922C463.466 118.511 461.711 116.407 460.17 114.577C458.463 112.797 457.241 110.609 456.618 108.223C456.107 105.549 456.834 102.414 455.145 100.331C454.997 100.131 454.805 99.9668 454.584 99.852C453.216 99.4235 451.745 99.463 450.402 99.964C449.718 100.453 449.194 101.133 448.895 101.919C448.596 102.705 448.536 103.561 448.722 104.381Z" fill="#3F3D56"/>
<path d="M496.551 278.799C496.442 279.604 496.252 280.395 495.984 281.162C495.984 281.162 494.234 285.189 487.037 284.103C482.337 283.393 482.367 281.189 483.146 279.483C483.5 278.772 483.93 278.101 484.429 277.483C485.129 276.538 485.059 272.931 485.305 269.641C485.551 266.351 487.036 266.181 487.036 266.181L487.124 269.881C489.924 266.205 491.886 270.511 491.886 270.511C491.886 270.511 495.871 270.594 495.386 268.551C494.867 266.375 494.092 262.929 494.092 262.929C494.092 262.929 496.02 263.824 496.369 264.454C496.718 265.084 496.3 273.523 495.985 274.328C495.743 275.548 495.903 276.814 496.441 277.935C496.57 278.203 496.609 278.507 496.551 278.799Z" fill="#3F3D56"/>
<path d="M495.22 268.341C495.219 269.175 494.953 269.987 494.46 270.66C493.966 271.333 493.271 271.83 492.476 272.081C491.704 272.326 490.887 272.39 490.087 272.268C489.287 272.147 488.525 271.843 487.861 271.381C487.459 271.101 487.14 270.716 486.939 270.269C486.738 269.822 486.662 269.328 486.72 268.841L486.831 267.91L487.231 264.517L487.786 259.843C487.786 259.843 493.75 256.805 493.353 257.952C493.373 259.509 493.593 261.056 494.006 262.557C494.342 264.164 494.75 265.933 495.106 267.433C495.177 267.732 495.213 268.038 495.213 268.345L495.22 268.341Z" fill="#FBBEBE"/>
<path opacity="0.1" d="M486.355 268.084C486.355 268.084 491.519 262.018 495.747 268.635L495.038 272.875H486.355V268.084Z" fill="black"/>
<path d="M486.355 268.508C486.355 268.508 491.519 262.442 495.747 269.06L495.038 273.3H486.355V268.508Z" fill="#3F3D56"/>
<path d="M493.067 272.245C493.357 272.245 493.592 272.01 493.592 271.72C493.592 271.43 493.357 271.195 493.067 271.195C492.777 271.195 492.542 271.43 492.542 271.72C492.542 272.01 492.777 272.245 493.067 272.245Z" fill="#F2F2F2"/>
<path d="M486.353 271.403C486.643 271.403 486.878 271.168 486.878 270.878C486.878 270.588 486.643 270.353 486.353 270.353C486.063 270.353 485.828 270.588 485.828 270.878C485.828 271.168 486.063 271.403 486.353 271.403Z" fill="#F2F2F2"/>
<path d="M491.256 275.805C491.546 275.805 491.781 275.57 491.781 275.28C491.781 274.99 491.546 274.755 491.256 274.755C490.966 274.755 490.731 274.99 490.731 275.28C490.731 275.57 490.966 275.805 491.256 275.805Z" fill="#F2F2F2"/>
<path d="M486.671 275.187C486.961 275.187 487.196 274.952 487.196 274.662C487.196 274.372 486.961 274.137 486.671 274.137C486.381 274.137 486.146 274.372 486.146 274.662C486.146 274.952 486.381 275.187 486.671 275.187Z" fill="#F2F2F2"/>
<path d="M492.272 274.137C492.562 274.137 492.797 273.902 492.797 273.612C492.797 273.322 492.562 273.087 492.272 273.087C491.982 273.087 491.747 273.322 491.747 273.612C491.747 273.902 491.982 274.137 492.272 274.137Z" fill="#F2F2F2"/>
<path d="M486.353 273.296C486.643 273.296 486.878 273.061 486.878 272.771C486.878 272.481 486.643 272.246 486.353 272.246C486.063 272.246 485.828 272.481 485.828 272.771C485.828 273.061 486.063 273.296 486.353 273.296Z" fill="#F2F2F2"/>
<path d="M490.731 277.758C491.021 277.758 491.256 277.523 491.256 277.233C491.256 276.943 491.021 276.708 490.731 276.708C490.441 276.708 490.206 276.943 490.206 277.233C490.206 277.523 490.441 277.758 490.731 277.758Z" fill="#F2F2F2"/>
<path d="M486.671 277.08C486.961 277.08 487.196 276.845 487.196 276.555C487.196 276.265 486.961 276.03 486.671 276.03C486.381 276.03 486.146 276.265 486.146 276.555C486.146 276.845 486.381 277.08 486.671 277.08Z" fill="#F2F2F2"/>
<path d="M451.761 285.154L444.618 287.57C444.618 287.57 440.837 283.788 441.887 282.633C442.508 281.433 442.893 280.126 443.023 278.782C443.123 278.24 443.206 277.687 443.281 277.162C443.529 275.454 443.672 274.019 443.672 274.019C443.672 274.019 451.972 270.027 450.605 274.019C450.265 275.15 450.132 276.333 450.212 277.511C450.27 278.687 450.418 279.857 450.655 281.011C450.934 282.414 451.304 283.798 451.761 285.154Z" fill="#FBBEBE"/>
<path opacity="0.1" d="M451.761 285.154L444.618 287.57C444.618 287.57 440.837 283.789 441.887 282.633C442.508 281.434 442.893 280.126 443.023 278.782C443.428 279.506 443.71 280.293 443.857 281.11C450.027 284.499 450.132 282.476 450.132 282.476C450.202 281.955 450.38 281.455 450.655 281.007C450.934 282.412 451.304 283.797 451.761 285.154Z" fill="black"/>
<path d="M453.336 290.668C453.336 290.668 452.101 291.586 448.479 291.718C447.531 291.754 446.587 291.86 445.654 292.036C441.835 292.778 437.92 292.884 434.067 292.349C433.074 292.215 432.09 292.022 431.12 291.771C427.391 290.746 430.227 288.385 430.227 288.385C430.227 288.385 430.406 288.23 430.714 287.996C431.919 287.045 433.324 286.378 434.823 286.046C437.159 285.678 439.313 281.529 439.313 281.529L440.783 278.876C443.067 276.908 443.857 281.529 443.857 281.529C450.027 284.918 450.132 282.894 450.132 282.894C450.475 281.081 451.105 281.081 451.105 281.081C451.105 281.081 452.643 285.222 453.2 286.255C453.237 286.33 453.283 286.401 453.337 286.465C453.703 286.837 453.336 290.668 453.336 290.668Z" fill="#3F3D56"/>
<path d="M443.83 283.788C444.12 283.788 444.355 283.553 444.355 283.263C444.355 282.973 444.12 282.738 443.83 282.738C443.54 282.738 443.305 282.973 443.305 283.263C443.305 283.553 443.54 283.788 443.83 283.788Z" fill="#F2F2F2"/>
<path d="M440.822 285.258C441.112 285.258 441.347 285.023 441.347 284.733C441.347 284.443 441.112 284.208 440.822 284.208C440.532 284.208 440.297 284.443 440.297 284.733C440.297 285.023 440.532 285.258 440.822 285.258Z" fill="#F2F2F2"/>
<path d="M442.439 284.505C442.729 284.505 442.964 284.27 442.964 283.98C442.964 283.69 442.729 283.455 442.439 283.455C442.149 283.455 441.914 283.69 441.914 283.98C441.914 284.27 442.149 284.505 442.439 284.505Z" fill="#F2F2F2"/>
<path d="M439.129 286.125C439.419 286.125 439.654 285.89 439.654 285.6C439.654 285.31 439.419 285.075 439.129 285.075C438.839 285.075 438.604 285.31 438.604 285.6C438.604 285.89 438.839 286.125 439.129 286.125Z" fill="#F2F2F2"/>
<path opacity="0.1" d="M450.605 274.02C450.266 275.151 450.133 276.334 450.212 277.512C448.349 276.886 445.296 276.995 443.281 277.163C443.529 275.455 443.672 274.02 443.672 274.02C443.672 274.02 451.97 270.028 450.605 274.02Z" fill="black"/>
<path opacity="0.1" d="M494.008 262.553C491.426 265.084 488.958 265.242 487.233 264.513L487.788 259.839C487.788 259.839 493.752 256.801 493.355 257.948C493.377 259.504 493.597 261.052 494.008 262.553Z" fill="black"/>
<path d="M448.715 176.331C447.485 177.078 446.422 178.07 445.591 179.244C444.76 180.419 444.179 181.751 443.883 183.159C443.148 187.676 441.883 193.453 440.942 194.503C440.001 195.553 437.056 198.915 438.211 200.703C439.366 202.491 439.577 208.581 439.577 208.581C439.577 208.581 439.157 214.043 440.312 215.829C441.467 217.615 442.412 228.959 439.892 232.32C439.892 232.32 439.052 240.093 439.367 240.828C439.682 241.563 438.001 243.454 438.527 245.028C439.053 246.602 441.573 275.595 441.258 276.75C441.258 276.75 449.241 275.594 451.342 277.485C451.574 275.707 451.574 273.906 451.342 272.128C450.922 269.922 451.657 261.204 452.602 258.998C453.547 256.792 453.757 248.389 453.442 247.548C453.442 247.548 455.123 240.09 454.492 238.62C453.861 237.15 457.223 223.599 457.223 223.599C457.223 223.599 458.904 220.343 458.483 219.923C458.483 219.923 461.214 218.137 460.899 216.772C460.584 215.407 463.42 213.831 463.42 213.831C463.42 213.831 465.941 220.031 466.781 220.974C467.621 221.917 467.654 228.012 468.688 229.274C469.722 230.536 471.088 237.152 472.453 238.938C473.818 240.724 479.281 245.451 480.121 250.808C480.121 250.808 485.058 258.476 484.848 260.892C484.638 263.308 490.415 267.72 495.982 259.527C495.05 258.836 494.297 257.932 493.785 256.89C493.274 255.849 493.018 254.7 493.041 253.54C493.041 249.44 488.629 236.313 488.629 236.313C488.629 236.313 486.108 232.637 487.053 230.851C487.998 229.065 487.158 223.813 487.158 223.813L489.158 220.557C489.158 220.557 489.473 217.406 489.788 214.15C490.103 210.894 487.897 207.322 488.948 205.75C489.999 204.178 488.528 196.302 488.528 196.302C488.528 196.302 487.221 182.732 485.272 181.902C483.323 181.072 448.715 176.331 448.715 176.331Z" fill="#3F3D56"/>
<path d="M458.285 157.316C458.285 157.316 456.127 157.562 453.508 157.81C449.718 158.167 444.96 158.528 444.393 158.157C443.435 157.527 444.393 149.544 444.393 149.544C444.393 149.544 444.723 140.826 444.408 134.733C444.152 129.79 447.425 126.16 448.666 124.966C448.956 124.689 449.134 124.544 449.134 124.544L450.185 125.384L456.172 135.573L458.285 157.316Z" fill="#FBBEBE"/>
<path d="M481.698 123.811L475.816 127.382L466.152 134.735C466.152 134.735 456.173 129.483 458.694 126.435C459.163 125.833 459.48 125.126 459.616 124.374C460.374 120.866 458.694 115.826 458.694 115.826C458.694 115.826 471.841 98.0721 471.089 111.834C470.789 117.363 472.44 120.382 474.526 122.017C476.609 123.49 479.167 124.13 481.698 123.811Z" fill="#FBBEBE"/>
<path opacity="0.1" d="M481.698 123.811L475.816 127.382L466.152 134.735C466.152 134.735 456.173 129.483 458.694 126.435C459.163 125.833 459.48 125.126 459.616 124.374C460.374 120.866 458.694 115.826 458.694 115.826C458.694 115.826 471.841 98.0721 471.089 111.834C470.789 117.363 472.44 120.382 474.526 122.017C476.609 123.49 479.167 124.13 481.698 123.811Z" fill="black"/>
<path opacity="0.1" d="M463.65 120.911C470.368 120.911 475.815 115.141 475.815 108.023C475.815 100.905 470.368 95.135 463.65 95.135C456.931 95.135 451.485 100.905 451.485 108.023C451.485 115.141 456.931 120.911 463.65 120.911Z" fill="black"/>
<path d="M463.65 120.491C470.368 120.491 475.815 114.721 475.815 107.603C475.815 100.485 470.368 94.7151 463.65 94.7151C456.931 94.7151 451.485 100.485 451.485 107.603C451.485 114.721 456.931 120.491 463.65 120.491Z" fill="#FBBEBE"/>
<path opacity="0.1" d="M481.698 123.811L475.816 127.382L466.152 134.735C466.152 134.735 456.173 129.483 458.694 126.435C459.163 125.833 459.48 125.126 459.616 124.374C470.624 133.786 473.969 124.044 474.526 122.017C476.609 123.49 479.167 124.13 481.698 123.811Z" fill="black"/>
<path opacity="0.1" d="M458.283 157.316C458.283 157.316 456.125 157.562 453.506 157.81C453.406 155.55 453.061 152.993 453.124 151.434C453.224 148.808 453.224 148.493 452.389 147.022C451.554 145.551 451.654 144.396 451.759 142.505C451.859 140.694 451.381 140.329 449.677 137.436L449.448 137.043C448.612 135.602 448.372 132.995 448.364 130.533C448.366 130.524 448.366 130.515 448.364 130.506C448.364 129.92 448.372 129.342 448.393 128.792C448.393 128.769 448.393 128.746 448.393 128.723C448.454 127.059 448.593 125.641 448.662 124.967C448.952 124.69 449.131 124.545 449.131 124.545L450.181 125.385L456.168 135.574L458.283 157.316Z" fill="black"/>
<path d="M489.341 125.363C489.333 125.363 490.61 126.324 490.601 126.322C486.801 124.681 484.641 132.946 484.063 135.547C483.956 136.026 483.903 136.312 483.903 136.312C483.903 136.312 483.97 137.012 484.054 138.119C484.338 141.833 484.825 150.15 483.693 152.173C483.577 152.386 483.486 152.613 483.422 152.847C483.099 154.451 483.055 156.098 483.292 157.717C483.496 159.561 483.805 161.393 484.218 163.202C484.218 163.202 486.739 169.609 485.689 173.811C485.343 175.374 485.239 176.981 485.382 178.576C485.49 180.04 485.713 181.494 486.048 182.923C486.148 183.341 486.214 183.581 486.214 183.581C484.63 184.123 483.082 184.573 481.569 184.93C478.623 185.636 475.614 186.044 472.586 186.146C463.26 186.524 454.096 183.619 446.691 177.936C446.514 177.789 446.382 177.673 446.298 177.594C444.827 176.228 447.663 175.178 447.348 174.233C447.033 173.288 448.785 171.187 448.785 171.187C448.785 171.187 448.399 167.721 449.974 166.987C451.549 166.253 452.705 163.731 453.594 161.63C454.483 159.529 453.441 154.067 453.546 151.441C453.651 148.815 453.646 148.5 452.811 147.029C451.976 145.558 452.076 144.403 452.181 142.512C452.281 140.701 451.803 140.336 450.099 137.443L449.87 137.05C449.034 135.609 450.337 133.126 450.329 130.664C450.329 130.656 450.813 130.672 450.811 130.664C450.811 130.078 449.827 129.288 449.848 128.737C449.848 128.714 449.367 128.279 449.367 128.255C449.438 127.015 449.361 125.771 449.137 124.549C457.537 120.242 459.537 124.73 459.537 124.73C471.827 135.308 474.617 122.089 474.617 122.089C481.306 119.803 490.104 125.961 490.606 126.318L489.341 125.363Z" fill="#55536E"/>
<path d="M444.25 156.251C444.25 156.251 443.199 161.861 446.239 164.99C446.742 165.506 447.396 165.849 448.107 165.971C448.817 166.093 449.548 165.988 450.195 165.67C451.261 165.237 452.16 164.474 452.758 163.491C453.593 161.626 450.973 152.519 444.25 156.251Z" fill="#FBBEBE"/>
<path opacity="0.1" d="M483.691 152.171C483.575 152.384 483.484 152.611 483.42 152.845L483.901 140.564L484.052 138.117C484.336 141.831 484.823 150.149 483.691 152.171Z" fill="black"/>
<path opacity="0.1" d="M485.69 173.811C485.344 175.374 485.24 176.981 485.383 178.576C484.702 179.809 484.121 180.855 483.742 181.536L483.273 182.372C482.641 183.179 482.073 184.034 481.573 184.929C481.183 185.56 480.94 186.27 480.861 187.007C480.861 188.622 479.233 199.389 471.512 196.707C466.527 194.978 469.712 189.68 472.59 186.142C473.549 184.966 474.574 183.847 475.661 182.789C475.661 182.789 476.552 181.655 477.407 180.468C477.99 179.719 478.497 178.914 478.918 178.063C479.285 177.013 481.71 172.391 481.71 172.391C481.71 172.391 484.117 167.297 483.592 164.933C483.301 162.539 483.201 160.125 483.292 157.715C483.496 159.56 483.805 161.391 484.218 163.2C484.218 163.2 486.74 169.609 485.69 173.811Z" fill="black"/>
<path d="M490.627 126.332C490.627 126.332 494.409 128.958 494.304 135.786C494.199 142.614 492.938 154.431 492.938 154.431L492.15 161.784C492.15 161.784 491.15 164.778 491.31 165.671C491.47 166.564 483.061 181.532 483.061 181.532C483.061 181.532 480.645 184.553 480.645 186.167C480.645 187.781 479.017 198.548 471.296 195.867C463.575 193.186 475.445 181.949 475.445 181.949C476.652 180.461 477.741 178.88 478.701 177.222C479.069 176.172 481.495 171.55 481.495 171.55C481.495 171.55 483.902 166.456 483.377 164.092C482.852 161.728 483.167 153.148 483.167 153.148L483.692 139.723L483.902 136.309C483.902 136.309 485.844 124.967 490.627 126.332Z" fill="#FBBEBE"/>
<path d="M450.514 151.394L456.246 149.312C456.719 149.14 457.23 149.104 457.722 149.206C458.215 149.308 458.669 149.545 459.035 149.89L466.642 157.074C466.642 157.074 467.062 158.227 466.502 158.174C465.942 158.121 457.749 149.929 457.749 149.929L449.628 152.662C449.628 152.385 449.713 152.115 449.872 151.888C450.031 151.661 450.256 151.489 450.517 151.394H450.514Z" fill="#FC5185"/>
<path d="M458.623 161.03L466.501 158.175L457.748 149.931L449.625 152.662L458.623 161.03Z" fill="#4B4B5B"/>
<path d="M446.788 184.629C447.174 184.629 447.488 184.316 447.488 183.929C447.488 183.542 447.174 183.229 446.788 183.229C446.401 183.229 446.088 183.542 446.088 183.929C446.088 184.316 446.401 184.629 446.788 184.629Z" fill="#F2F2F2"/>
<path d="M442.026 193.627C442.413 193.627 442.726 193.314 442.726 192.927C442.726 192.54 442.413 192.227 442.026 192.227C441.64 192.227 441.326 192.54 441.326 192.927C441.326 193.314 441.64 193.627 442.026 193.627Z" fill="#F2F2F2"/>
<path d="M480.066 196.898C480.453 196.898 480.766 196.585 480.766 196.198C480.766 195.811 480.453 195.498 480.066 195.498C479.68 195.498 479.366 195.811 479.366 196.198C479.366 196.585 479.68 196.898 480.066 196.898Z" fill="#F2F2F2"/>
<path d="M484.027 209.61C484.414 209.61 484.727 209.297 484.727 208.91C484.727 208.523 484.414 208.21 484.027 208.21C483.641 208.21 483.327 208.523 483.327 208.91C483.327 209.297 483.641 209.61 484.027 209.61Z" fill="#F2F2F2"/>
<path d="M482.486 206.032C482.873 206.032 483.186 205.719 483.186 205.332C483.186 204.945 482.873 204.632 482.486 204.632C482.1 204.632 481.786 204.945 481.786 205.332C481.786 205.719 482.1 206.032 482.486 206.032Z" fill="#F2F2F2"/>
<path d="M481.145 201.465C481.532 201.465 481.845 201.152 481.845 200.765C481.845 200.378 481.532 200.065 481.145 200.065C480.759 200.065 480.445 200.378 480.445 200.765C480.445 201.152 480.759 201.465 481.145 201.465Z" fill="#F2F2F2"/>
<path d="M444.25 188.889C444.636 188.889 444.95 188.576 444.95 188.189C444.95 187.802 444.636 187.489 444.25 187.489C443.863 187.489 443.55 187.802 443.55 188.189C443.55 188.576 443.863 188.889 444.25 188.889Z" fill="#F2F2F2"/>
<path d="M439.249 198.299C439.635 198.299 439.949 197.986 439.949 197.599C439.949 197.212 439.635 196.899 439.249 196.899C438.862 196.899 438.549 197.212 438.549 197.599C438.549 197.986 438.862 198.299 439.249 198.299Z" fill="#F2F2F2"/>
<path d="M490.603 126.315V126.321C486.803 124.68 484.643 132.945 484.065 135.546L478.092 126.998C478.092 126.998 475.642 130.918 467.729 131.515C459.816 132.112 457.891 125.492 457.891 125.492C456.805 125.408 451.891 134.261 450.101 137.439L449.872 137.046C449.036 135.605 448.796 132.998 448.788 130.536C448.79 130.527 448.79 130.518 448.788 130.509C448.794 129.938 448.805 129.364 448.817 128.795C448.817 128.772 448.817 128.749 448.817 128.726C448.903 126.394 449.134 124.547 449.134 124.547C457.534 120.24 459.534 124.728 459.534 124.728C471.824 135.306 474.614 122.087 474.614 122.087C481.303 119.801 490.102 125.959 490.603 126.315Z" fill="#2F1C6A"/>
<path opacity="0.1" d="M443.988 203.117C444.088 203.38 452.916 213.569 456.173 214.094C459.43 214.619 443.988 203.117 443.988 203.117Z" fill="black"/>
<path opacity="0.1" d="M450.305 187.489C450.305 187.489 450.395 194.673 448.189 196.295C445.983 197.917 450.305 187.489 450.305 187.489Z" fill="black"/>
<path opacity="0.1" d="M454.386 190.039C454.386 190.039 454.176 198.495 457.327 200.491C457.327 200.491 451.55 194.871 454.386 190.039Z" fill="black"/>
<path opacity="0.1" d="M450.501 233.474C450.501 233.474 444.619 237.833 442.991 238.148C441.363 238.463 450.501 233.474 450.501 233.474Z" fill="black"/>
<path opacity="0.1" d="M449.032 100.087C447.765 101.155 448.221 103.372 449.516 104.406C450.916 105.316 452.572 105.749 454.238 105.642C457.427 105.724 460.668 105.542 463.759 106.324C465.123 106.607 466.385 107.253 467.411 108.195C468.363 109.266 469.018 110.568 469.311 111.971C469.853 114.035 470.072 116.17 469.96 118.301C469.789 119.725 469.757 121.163 469.866 122.594C470.122 123.926 470.573 125.213 471.206 126.413C473.638 131.573 476.347 136.598 479.32 141.466C479.555 141.944 479.922 142.346 480.377 142.623C480.781 142.742 481.207 142.77 481.623 142.706C482.039 142.641 482.436 142.486 482.785 142.25C482.343 140.768 482.094 139.235 482.042 137.689C482.436 137.793 482.851 137.777 483.235 137.642C483.619 137.508 483.954 137.262 484.197 136.936C484.671 136.275 485.005 135.524 485.179 134.729L486.592 129.859C487.029 128.353 487.677 126.625 489.181 126.181C489.72 126.104 490.252 125.98 490.769 125.811C491.11 125.609 491.384 125.313 491.558 124.957C491.732 124.602 491.799 124.204 491.75 123.811C491.637 123.024 491.309 122.284 490.802 121.672C488.675 118.811 485.13 117.114 483.47 113.96C482.045 111.251 482.292 107.991 482.762 104.966C483.232 101.941 483.886 98.831 483.162 95.857C482.43 93.1431 480.773 90.77 478.478 89.147C476.189 87.5434 473.572 86.4676 470.817 85.997C469.546 85.6734 468.212 85.6824 466.945 86.023C465.99 86.346 465.172 86.983 464.24 87.367C462.122 88.239 459.681 87.718 457.459 88.273C455.416 88.8593 453.642 90.1412 452.443 91.897C451.26 93.644 450.373 95.5738 449.816 97.609C449.407 98.945 450.063 99.479 448.87 100.209" fill="black"/>
<path d="M449.241 99.6669C447.974 100.735 448.43 102.952 449.725 103.986C451.126 104.894 452.782 105.326 454.447 105.217C457.636 105.299 460.876 105.117 463.968 105.899C465.332 106.182 466.594 106.828 467.62 107.77C468.572 108.841 469.227 110.143 469.52 111.546C470.062 113.61 470.281 115.745 470.169 117.876C469.998 119.3 469.966 120.738 470.075 122.169C470.331 123.501 470.782 124.788 471.415 125.988C473.847 131.148 476.556 136.173 479.529 141.041C479.764 141.519 480.131 141.921 480.586 142.198C480.99 142.317 481.416 142.345 481.832 142.281C482.248 142.216 482.645 142.061 482.994 141.825C482.552 140.343 482.303 138.81 482.251 137.264C482.644 137.368 483.06 137.351 483.444 137.217C483.828 137.083 484.163 136.837 484.406 136.511C484.88 135.85 485.214 135.099 485.388 134.304L486.801 129.434C487.238 127.928 487.886 126.2 489.39 125.756C489.929 125.679 490.461 125.555 490.978 125.386C491.319 125.184 491.593 124.888 491.767 124.532C491.941 124.177 492.008 123.779 491.959 123.386C491.846 122.599 491.518 121.859 491.011 121.247C488.885 118.386 485.339 116.689 483.679 113.535C482.253 110.826 482.501 107.566 482.971 104.541C483.441 101.516 484.096 98.4059 483.371 95.4319C482.639 92.718 480.982 90.3448 478.687 88.7219C476.398 87.1181 473.781 86.0423 471.026 85.5719C469.755 85.2484 468.421 85.2573 467.154 85.5979C466.199 85.9209 465.381 86.5579 464.449 86.9419C462.331 87.8139 459.89 87.2929 457.668 87.8479C455.625 88.4344 453.851 89.7162 452.652 91.4719C451.47 93.2191 450.582 95.1488 450.026 97.1839C449.617 98.5199 450.273 99.0539 449.08 99.7839" fill="#3F3D56"/>
<path d="M447.926 156.899C447.926 156.899 457.537 150.492 460.268 154.431C462.999 158.37 451.812 163.202 451.812 163.202L447.926 156.899Z" fill="#FBBEBE"/>
<path d="M451.068 126.45C451.033 127.068 450.914 127.825 450.568 127.937C451.468 127.916 452.349 128.576 453.239 128.378C453.635 128.238 453.993 128.008 454.286 127.706C454.578 127.405 454.797 127.039 454.925 126.639C454.965 126.497 455.043 126.369 455.151 126.268C455.245 126.213 455.351 126.268 455.439 126.323C457.178 127.362 458.799 128.585 460.274 129.973C460.766 130.432 461.313 130.928 461.852 130.689C461.877 128.95 461.525 127.226 460.821 125.635C460.253 124.36 459.287 123.303 458.068 122.623C457.056 122.129 455.955 121.842 454.83 121.78C454.343 121.771 453.865 121.652 453.43 121.433C452.952 121.152 451.43 119.333 451.086 120.657C451.019 121.561 451.037 122.469 451.139 123.37C451.152 124.399 451.127 125.427 451.068 126.45Z" fill="#3F3D56"/>
<g opacity="0.1">
<path d="M481.482 141.152C481.027 140.875 480.66 140.473 480.425 139.995C477.452 135.127 474.743 130.102 472.311 124.942C471.678 123.742 471.227 122.455 470.971 121.123C470.862 119.692 470.893 118.254 471.065 116.83C471.176 114.699 470.958 112.564 470.416 110.5C470.123 109.097 469.468 107.795 468.516 106.724C467.49 105.782 466.228 105.136 464.864 104.853C461.772 104.069 458.531 104.253 455.343 104.171C453.677 104.278 452.021 103.845 450.621 102.935C450.119 102.529 449.749 101.984 449.557 101.368C449.365 100.753 449.36 100.094 449.542 99.4749C449.459 99.5534 449.369 99.625 449.274 99.6888C448.038 100.765 448.495 102.958 449.781 103.989C451.181 104.899 452.837 105.332 454.503 105.225C457.692 105.307 460.932 105.125 464.024 105.907C465.388 106.19 466.65 106.836 467.676 107.778C468.628 108.849 469.283 110.151 469.576 111.554C470.118 113.618 470.336 115.753 470.225 117.884C470.053 119.308 470.022 120.746 470.131 122.177C470.386 123.509 470.838 124.796 471.471 125.996C473.903 131.156 476.612 136.181 479.585 141.049C479.82 141.527 480.187 141.929 480.642 142.206C481.046 142.325 481.471 142.353 481.888 142.289C482.304 142.224 482.701 142.069 483.05 141.833C482.987 141.622 482.929 141.409 482.874 141.196C482.422 141.357 481.925 141.343 481.483 141.156L481.482 141.152Z" fill="black"/>
<path d="M449.139 99.781C449.19 99.75 449.233 99.72 449.277 99.69C449.285 99.683 449.292 99.674 449.3 99.667L449.139 99.781Z" fill="black"/>
<path d="M450.118 98.6429C450.074 98.6729 450.03 98.7039 449.98 98.7349L450.141 98.6209C450.133 98.6279 450.126 98.6359 450.118 98.6439C451.118 97.9629 450.534 97.4179 450.926 96.1439C451.475 94.1461 452.341 92.2492 453.49 90.5249C453.213 90.8293 452.954 91.1488 452.713 91.4819C451.53 93.2293 450.642 95.1594 450.086 97.1949C449.963 97.7536 449.894 98.3229 449.88 98.8949C449.952 98.8043 450.032 98.7199 450.118 98.6429Z" fill="black"/>
<path d="M491.879 124.339C491.362 124.508 490.83 124.632 490.291 124.709C489.523 124.973 488.891 125.531 488.534 126.26C488.802 126.031 489.114 125.861 489.451 125.76C489.991 125.683 490.522 125.559 491.04 125.39C491.249 125.278 491.433 125.127 491.582 124.944C491.732 124.76 491.844 124.55 491.911 124.323L491.879 124.339Z" fill="black"/>
<path d="M483.152 136.217C483.164 136.581 483.187 136.945 483.222 137.308C483.711 137.183 484.147 136.905 484.467 136.515C484.63 136.314 484.77 136.096 484.885 135.865C484.647 136.062 484.365 136.197 484.062 136.258C483.76 136.32 483.447 136.306 483.152 136.217Z" fill="black"/>
</g>
<path opacity="0.1" d="M445.602 155.648C446.876 155.114 448.244 154.842 449.625 154.848Z" fill="black"/>
<path opacity="0.1" d="M452.909 167.193C452.909 167.193 454.195 169.193 460.699 170.029C467.203 170.865 452.909 167.193 452.909 167.193Z" fill="black"/>
<path opacity="0.1" d="M450.57 174.651C452.718 176.272 455.194 177.404 457.826 177.966C460.457 178.528 463.18 178.508 465.802 177.907C475.185 176.017 450.57 174.651 450.57 174.651Z" fill="black"/>
<path d="M424.32 294.896L520.645 279.965" stroke="#3F3D56" stroke-miterlimit="10"/>
<path d="M87.6182 132.766C87.6182 145.352 95.8872 156.228 107.877 161.382L90.7302 119.826C88.6897 123.835 87.6235 128.268 87.6182 132.766ZM147.831 131.166C147.765 128.008 146.73 124.947 144.867 122.397C143.045 119.778 141.338 117.56 141.338 114.941C141.392 113.393 142.057 111.929 143.189 110.871C144.32 109.813 145.825 109.247 147.373 109.297C147.532 109.297 147.684 109.315 147.839 109.322C140.94 103.846 132.372 100.9 123.564 100.975C111.006 100.975 99.9582 106.675 93.5302 115.306C94.3732 115.328 95.1692 115.344 95.8432 115.344C99.6032 115.344 105.423 114.944 105.423 114.944C105.605 114.908 105.793 114.911 105.973 114.953C106.154 114.994 106.324 115.073 106.472 115.184C106.62 115.296 106.743 115.437 106.834 115.599C106.924 115.761 106.979 115.94 106.995 116.125C107.011 116.31 106.988 116.496 106.928 116.671C106.868 116.846 106.771 117.007 106.645 117.143C106.518 117.278 106.365 117.386 106.194 117.458C106.024 117.531 105.84 117.566 105.654 117.563C105.654 117.563 103.706 117.763 101.539 117.863L114.629 152.303L122.496 131.435L116.896 117.863C114.96 117.763 113.127 117.563 113.127 117.563C112.943 117.566 112.76 117.529 112.59 117.457C112.42 117.384 112.267 117.277 112.142 117.142C112.016 117.006 111.92 116.846 111.86 116.672C111.8 116.497 111.777 116.312 111.793 116.128C111.809 115.944 111.864 115.766 111.953 115.604C112.042 115.442 112.164 115.301 112.311 115.19C112.458 115.078 112.627 114.999 112.807 114.956C112.986 114.914 113.173 114.91 113.354 114.944C113.354 114.944 119.29 115.344 122.822 115.344C126.581 115.344 132.402 114.944 132.402 114.944C132.584 114.908 132.772 114.911 132.952 114.953C133.133 114.994 133.303 115.073 133.451 115.185C133.6 115.296 133.723 115.437 133.813 115.6C133.903 115.762 133.958 115.941 133.974 116.126C133.99 116.31 133.967 116.496 133.907 116.672C133.846 116.847 133.75 117.008 133.623 117.143C133.497 117.279 133.343 117.386 133.172 117.459C133.002 117.531 132.818 117.567 132.632 117.563C132.632 117.563 130.681 117.763 128.518 117.863L141.508 152.042L145.093 141.442C146.648 137.042 147.83 133.885 147.83 131.163L147.831 131.166Z" fill="#FC5185"/>
<path d="M124.191 135.548L113.406 163.268C120.674 165.154 128.323 164.979 135.497 162.762C135.398 162.625 135.312 162.478 135.241 162.324L124.191 135.548ZM155.101 117.512C155.264 118.594 155.345 119.687 155.343 120.781C155.275 124.731 154.342 128.619 152.61 132.17L141.63 160.25C152.317 154.738 159.505 144.497 159.505 132.766C159.497 127.369 157.973 122.083 155.105 117.511L155.101 117.512Z" fill="#FC5185"/>
</g>
<defs>
<clipPath id="clip0_1289_35677">
<rect width="537.081" height="295.39" fill="white"/>
</clipPath>
</defs>
</svg>
