<svg width="398" height="323" viewBox="0 0 398 323" fill="none" xmlns="http://www.w3.org/2000/svg">
<g clip-path="url(#clip0_163_512)">
<path d="M267.741 296.017C249.244 296.066 230.766 294.856 212.434 292.393C211.834 292.317 211.229 292.231 210.626 292.141C206.126 291.501 201.626 290.77 197.247 289.967C178.374 286.599 159.883 281.361 142.047 274.33C85.6818 251.783 50.2528 256.583 30.4529 264.583C9.02385 273.235 0.786856 287.389 0.705856 287.531L0.00585938 287.131C0.0878594 286.987 8.43086 272.621 30.0939 263.856C42.7939 258.716 57.5299 256.47 73.8939 257.178C94.3179 258.063 117.35 263.578 142.351 273.578C160.138 280.589 178.578 285.812 197.4 289.17C201.766 289.97 206.258 290.701 210.75 291.339C211.35 291.428 211.95 291.513 212.55 291.59C262.242 298.426 310.181 294.303 341.65 289.642C356.052 287.603 370.336 284.806 384.443 281.263L384.655 282.045C370.517 285.597 356.202 288.401 341.769 290.445C317.265 294.095 292.527 295.957 267.753 296.018L267.741 296.017Z" fill="#3F3D56"/>
<path d="M267.795 63.4122C253.508 63.4122 239.595 62.7442 226.18 61.4122C195.343 58.3412 167.035 51.7122 142.042 41.7172C85.6859 19.1742 50.2529 23.9722 30.4519 31.9662C9.02289 40.6172 0.78588 54.7722 0.70488 54.9142L0.00488281 54.5142C0.0868828 54.3702 8.42988 40.0052 30.0929 31.2392C42.7929 26.0992 57.5289 23.8522 73.8929 24.5612C94.3169 25.4452 117.349 30.9612 142.35 40.9612C198.795 63.5392 261.604 64.4262 304.355 61.1982C350.692 57.6982 384.105 48.7372 384.437 48.6472L384.649 49.4292C384.317 49.5192 350.849 58.4972 304.434 62.0052C292.001 62.9422 279.765 63.4122 267.795 63.4122Z" fill="#3F3D56"/>
<path d="M265.696 3.91906C265.696 3.91906 249.763 -1.77094 239.52 20.9901C229.277 43.7511 213.344 68.7901 213.344 68.7901L222.444 71.0661C222.444 71.0661 224.72 55.1331 230.411 52.8571L228.135 73.3431C228.135 73.3431 296.421 97.2431 327.149 71.0671L326.011 63.1001C326.011 63.1001 330.563 64.2381 330.563 71.0671L333.977 67.6531C333.977 67.6531 330.563 60.8241 320.32 51.7201C313.597 45.7441 311.287 34.3751 310.493 27.2671C309.898 21.3315 307.523 15.7142 303.68 11.1521C296.878 3.26206 284.475 -5.11894 265.696 3.91906Z" fill="#2F2E41"/>
<path d="M362.402 132.719C362.402 132.719 392.385 158.293 396.794 173.284C401.203 188.275 380.039 190.039 380.039 190.039L334.178 194.449C334.178 194.449 333.296 215.613 325.36 218.259C317.424 220.905 323.749 183.259 323.749 183.259L368.578 170.639L348.295 149.475L362.402 132.719Z" fill="#FBBEBE"/>
<path d="M222.186 159.174L218.659 205.912L199.259 285.279C199.259 285.279 181.622 321.435 196.613 322.317C211.604 323.199 210.722 287.925 210.722 287.925L238.941 212.967L241.587 161.82L222.186 159.174Z" fill="#FBBEBE"/>
<path d="M271.57 77.162C287.642 77.162 300.671 64.133 300.671 48.061C300.671 31.9889 287.642 18.96 271.57 18.96C255.498 18.96 242.469 31.9889 242.469 48.061C242.469 64.133 255.498 77.162 271.57 77.162Z" fill="#FBBEBE"/>
<path d="M258.342 62.1709C258.342 62.1709 268.924 100.091 252.169 109.791C235.414 119.491 294.498 126.546 310.369 97.4449C310.369 97.4449 282.15 87.7449 290.086 62.1709H258.342Z" fill="#FBBEBE"/>
<path d="M238.06 114.2L232.769 112.436C232.769 112.436 222.186 116.842 222.186 124.782C222.186 132.722 220.422 164.465 220.422 164.465L244.232 167.111L238.06 114.2Z" fill="#FC5185"/>
<path d="M341.697 290.042C309.143 294.864 261.697 298.759 212.489 291.991C212.489 291.505 212.489 291.031 212.489 290.569C212.489 287.817 212.594 285.097 212.805 282.407C215.326 249.289 232.387 221.68 238.989 212.107C239.321 211.621 239.629 211.183 239.905 210.794C240.971 209.294 241.591 208.508 241.591 208.508C241.591 208.508 292.739 207.673 319.191 218.254C320.467 218.79 321.634 219.553 322.636 220.507C332.498 229.614 338.293 259.167 341.697 290.042Z" fill="#2F2E41"/>
<path d="M322.718 101.854C322.718 101.854 334.182 95.6812 345.646 108.909L368.574 135.365L350.937 154.765L317.428 134.483L322.718 101.854Z" fill="#FC5185"/>
<path d="M240.124 48.246C250.424 40.79 258.765 32.203 264.282 21.988C264.282 21.988 283.188 42.995 294.742 44.045C306.296 45.095 295.792 18.837 295.792 18.837L274.785 13.585L254.828 15.685L239.073 26.185L240.124 48.246Z" fill="#2F2E41"/>
<path d="M305.962 95.6812C305.962 95.6812 293.621 115.193 256.581 105.881L235.562 111.67L232.768 112.439C232.768 112.439 235.414 165.35 242.468 175.05C249.522 184.75 247.759 190.042 245.995 190.923C244.231 191.804 239.822 190.041 242.468 194.45C245.114 198.859 248.641 196.214 245.114 198.859C241.587 201.504 239.823 211.207 239.823 211.207L322.717 221.79C322.717 221.79 320.071 187.398 327.126 169.761C334.181 152.124 335.945 145.069 335.945 145.069L330.654 100.976L305.962 95.6812Z" fill="#FC5185"/>
<path d="M133.682 78.417H20.21V220.257H133.682V78.417Z" fill="#D8DBFE"/>
<path d="M52.4278 90.3721H28.1128V106.582H52.4278V90.3721Z" fill="white"/>
<path d="M122.336 121.982H28.3159V127.656H122.336V121.982Z" fill="white"/>
<path d="M122.336 136.977H28.3159V142.651H122.336V136.977Z" fill="white"/>
<path d="M122.336 151.972H28.3159V157.646H122.336V151.972Z" fill="white"/>
<path d="M122.336 166.966H28.3159V172.64H122.336V166.966Z" fill="white"/>
<path d="M122.336 181.96H28.3159V187.634H122.336V181.96Z" fill="white"/>
<path d="M155.972 220.055C155.967 225.408 154.03 230.579 150.518 234.618C147.006 238.658 142.154 241.294 136.854 242.043C131.554 242.791 126.162 241.602 121.668 238.694C117.175 235.786 113.881 231.353 112.394 226.212C110.906 221.07 111.324 215.564 113.57 210.705C115.817 205.847 119.741 201.962 124.622 199.766C129.504 197.569 135.013 197.207 140.14 198.747C145.266 200.287 149.665 203.625 152.527 208.148C154.781 211.71 155.976 215.84 155.972 220.055Z" fill="#673DE6"/>
<path d="M152.527 208.149L130.587 230.085C129.208 227.95 121.525 218.029 121.525 218.029C122.51 217.034 123.56 216.107 124.67 215.253L131.041 223.747L149.962 204.83C150.921 205.853 151.781 206.964 152.531 208.149H152.527Z" fill="white"/>
</g>
<defs>
<clipPath id="clip0_163_512">
<rect width="397.398" height="322.333" fill="white"/>
</clipPath>
</defs>
</svg>
