<svg width="72" height="72" viewBox="0 0 72 72" fill="none" xmlns="http://www.w3.org/2000/svg">
<path fill-rule="evenodd" clip-rule="evenodd" d="M25.1001 61C24.3047 61 23.6001 61.7046 23.6001 62.5C23.6001 63.2954 24.3047 64 25.1001 64C25.8955 64 26.6001 63.2954 26.6001 62.5C26.6001 61.7046 25.8955 61 25.1001 61ZM19.6001 62.5C19.6001 59.4954 22.0955 57 25.1001 57C28.1047 57 30.6001 59.4954 30.6001 62.5C30.6001 65.5046 28.1047 68 25.1001 68C22.0955 68 19.6001 65.5046 19.6001 62.5ZM51.1001 61C50.3047 61 49.6001 61.7046 49.6001 62.5C49.6001 63.2954 50.3047 64 51.1001 64C51.8955 64 52.6001 63.2954 52.6001 62.5C52.6001 61.7046 51.8955 61 51.1001 61ZM45.6001 62.5C45.6001 59.4954 48.0955 57 51.1001 57C54.1047 57 56.6001 59.4954 56.6001 62.5C56.6001 65.5046 54.1047 68 51.1001 68C48.0955 68 45.6001 65.5046 45.6001 62.5Z" fill="white"/>
<path fill-rule="evenodd" clip-rule="evenodd" d="M62.0241 35.7434L56.0219 53H21.1875L10.1875 22H2V18H13.0125L15.8512 26H39.2469C39.8222 27.4373 40.5827 28.7804 41.4987 30H31.4815L33.0032 37H43.9968L44.7919 33.3425C45.9011 34.2018 47.1165 34.9308 48.4149 35.5064L48.0902 37H57.352L57.387 36.8995C59.0094 36.7255 60.5654 36.3299 62.0241 35.7434ZM19.7544 37L17.2705 30H27.3881L28.9098 37H19.7544ZM47.2206 41H55.9607L53.1781 49H45.4815L47.2206 41ZM43.1272 41L41.3881 49H35.6119L33.8728 41H43.1272ZM29.7794 41L31.5185 49H24.0125L21.1738 41H29.7794Z" fill="white"/>
<path fill-rule="evenodd" clip-rule="evenodd" d="M55.5 34C63.5081 34 70 27.5081 70 19.5C70 11.4919 63.5081 5 55.5 5C47.4919 5 41 11.4919 41 19.5C41 27.5081 47.4919 34 55.5 34ZM49.2029 14.4851L52.9 9.3L54.9355 10.7514L53.7351 12.435C54.3058 12.318 54.8961 12.2567 55.5 12.2567C60.3325 12.2567 64.25 16.1742 64.25 21.0067C64.25 25.8392 60.3325 29.7567 55.5 29.7567C50.6675 29.7567 46.75 25.8392 46.75 21.0067H49.25C49.25 24.4584 52.0482 27.2567 55.5 27.2567C58.9518 27.2567 61.75 24.4584 61.75 21.0067C61.75 17.5549 58.9518 14.7567 55.5 14.7567C55.0206 14.7567 54.5549 14.8104 54.1079 14.912L55.8394 16.1465L54.388 18.1821L49.2029 14.4851Z" fill="white"/>
</svg>
