<svg width="22" height="22" viewBox="0 0 22 22" fill="none" xmlns="http://www.w3.org/2000/svg">
<g clip-path="url(#clip0_348_11)">
<path d="M19.9375 7.5625H2.0625C1.30419 7.5625 0.6875 6.94581 0.6875 6.1875V2.0625C0.6875 1.30419 1.30419 0.6875 2.0625 0.6875H19.9375C20.6958 0.6875 21.3125 1.30419 21.3125 2.0625V6.1875C21.3125 6.94581 20.6958 7.5625 19.9375 7.5625ZM2.0625 2.0625V6.1875H19.9382L19.9375 2.0625H2.0625Z" fill="black"/>
<path d="M8.9375 4.8125H4.125C3.94266 4.8125 3.7678 4.74007 3.63886 4.61114C3.50993 4.4822 3.4375 4.30734 3.4375 4.125C3.4375 3.94266 3.50993 3.7678 3.63886 3.63886C3.7678 3.50993 3.94266 3.4375 4.125 3.4375H8.9375C9.11984 3.4375 9.2947 3.50993 9.42364 3.63886C9.55257 3.7678 9.625 3.94266 9.625 4.125C9.625 4.30734 9.55257 4.4822 9.42364 4.61114C9.2947 4.74007 9.11984 4.8125 8.9375 4.8125ZM17.875 4.8125C17.6963 4.8125 17.5175 4.73688 17.3869 4.61313C17.2631 4.4825 17.1875 4.30375 17.1875 4.125C17.1875 3.94625 17.2631 3.7675 17.3869 3.63687C17.6481 3.3825 18.1087 3.3825 18.3631 3.63687C18.4869 3.7675 18.5625 3.94625 18.5625 4.125C18.5625 4.17313 18.5556 4.21437 18.5487 4.2625C18.5419 4.30375 18.5281 4.345 18.5075 4.38625C18.4937 4.4275 18.4731 4.46875 18.4456 4.50313C18.4181 4.54438 18.3906 4.57875 18.3631 4.61313C18.2325 4.73688 18.0606 4.8125 17.875 4.8125ZM15.125 4.8125C14.9462 4.8125 14.7675 4.73688 14.6369 4.61313C14.5131 4.4825 14.4375 4.30375 14.4375 4.125C14.4375 3.94625 14.5131 3.7675 14.6369 3.63687C14.8913 3.3825 15.3519 3.3825 15.6131 3.63687C15.7369 3.7675 15.8125 3.94625 15.8125 4.125C15.8125 4.30375 15.7369 4.4825 15.6131 4.61313C15.5787 4.64062 15.5444 4.66812 15.5031 4.69562C15.4687 4.72312 15.4275 4.74375 15.3862 4.7575C15.345 4.77813 15.3038 4.79188 15.2625 4.79875C15.2144 4.80562 15.1731 4.8125 15.125 4.8125ZM19.9375 15.8125H2.0625C1.30419 15.8125 0.6875 15.1958 0.6875 14.4375V10.3125C0.6875 9.55419 1.30419 8.9375 2.0625 8.9375H19.9375C20.6958 8.9375 21.3125 9.55419 21.3125 10.3125V14.4375C21.3125 15.1958 20.6958 15.8125 19.9375 15.8125ZM2.0625 10.3125V14.4375H19.9382L19.9375 10.3125H2.0625Z" fill="black"/>
<path d="M8.9375 13.0625H4.125C3.94266 13.0625 3.7678 12.9901 3.63886 12.8611C3.50993 12.7322 3.4375 12.5573 3.4375 12.375C3.4375 12.1927 3.50993 12.0178 3.63886 11.8889C3.7678 11.7599 3.94266 11.6875 4.125 11.6875H8.9375C9.11984 11.6875 9.2947 11.7599 9.42364 11.8889C9.55257 12.0178 9.625 12.1927 9.625 12.375C9.625 12.5573 9.55257 12.7322 9.42364 12.8611C9.2947 12.9901 9.11984 13.0625 8.9375 13.0625ZM17.875 13.0625C17.6962 13.0625 17.5175 12.9869 17.3869 12.8631C17.2631 12.7325 17.1875 12.5537 17.1875 12.375C17.1875 12.1962 17.2631 12.0175 17.3869 11.8869C17.6481 11.6325 18.1087 11.6325 18.3631 11.8869C18.4869 12.0175 18.5625 12.1962 18.5625 12.375C18.5625 12.4231 18.5556 12.4644 18.5487 12.5125C18.5419 12.5537 18.5281 12.595 18.5075 12.6362C18.4937 12.6775 18.4731 12.7187 18.4456 12.7531C18.4181 12.7944 18.3906 12.8287 18.3631 12.8631C18.2325 12.9869 18.0606 13.0625 17.875 13.0625ZM15.125 13.0625C14.9462 13.0625 14.7675 12.9869 14.6369 12.8631C14.5131 12.7325 14.4375 12.5537 14.4375 12.375C14.4375 12.2856 14.4581 12.1962 14.4925 12.1137C14.5269 12.0312 14.575 11.9556 14.6369 11.8869C14.8019 11.7287 15.0356 11.6531 15.2625 11.7012C15.3038 11.7081 15.345 11.7219 15.3862 11.7425C15.4275 11.7562 15.4687 11.7769 15.5031 11.8044C15.5444 11.8319 15.5787 11.8594 15.6131 11.8869C15.675 11.9556 15.7231 12.0312 15.7575 12.1137C15.7987 12.1962 15.8125 12.2856 15.8125 12.375C15.8125 12.5537 15.7369 12.7325 15.6131 12.8631C15.4825 12.9869 15.3038 13.0625 15.125 13.0625ZM11 21.3125C10.8177 21.3125 10.6428 21.2401 10.5139 21.1111C10.3849 20.9822 10.3125 20.8073 10.3125 20.625V17.875C10.3125 17.6927 10.3849 17.5178 10.5139 17.3889C10.6428 17.2599 10.8177 17.1875 11 17.1875C11.1823 17.1875 11.3572 17.2599 11.4861 17.3889C11.6151 17.5178 11.6875 17.6927 11.6875 17.875V20.625C11.6875 20.8073 11.6151 20.9822 11.4861 21.1111C11.3572 21.2401 11.1823 21.3125 11 21.3125Z" fill="black"/>
<path d="M16.5 21.3125H5.5C5.31766 21.3125 5.1428 21.2401 5.01386 21.1111C4.88493 20.9822 4.8125 20.8073 4.8125 20.625C4.8125 20.4427 4.88493 20.2678 5.01386 20.1389C5.1428 20.0099 5.31766 19.9375 5.5 19.9375H16.5C16.6823 19.9375 16.8572 20.0099 16.9861 20.1389C17.1151 20.2678 17.1875 20.4427 17.1875 20.625C17.1875 20.8073 17.1151 20.9822 16.9861 21.1111C16.8572 21.2401 16.6823 21.3125 16.5 21.3125Z" fill="black"/>
</g>
<defs>
<clipPath id="clip0_348_11">
<rect width="22" height="22" fill="white"/>
</clipPath>
</defs>
</svg>
