<svg width="21" height="21" viewBox="0 0 21 21" fill="none" xmlns="http://www.w3.org/2000/svg">
<path d="M6.85058 8.18812C6.71137 8.12647 6.58659 8.03639 6.48427 7.92366L5.95927 7.34032C5.80933 7.17112 5.61021 7.05307 5.38982 7.00269C5.16942 6.95232 4.93878 6.97217 4.73023 7.05945C4.52168 7.14673 4.34565 7.29707 4.22683 7.48941C4.108 7.68174 4.05233 7.90643 4.0676 8.13199V8.90701C4.07604 9.05917 4.05229 9.21134 3.9979 9.35367C3.94351 9.49601 3.85971 9.62526 3.75196 9.73301C3.64422 9.84076 3.51496 9.92459 3.37262 9.97892C3.23028 10.0333 3.07808 10.0571 2.92593 10.0487L2.1426 10.007C1.91794 9.99651 1.69552 10.0557 1.50576 10.1763C1.31599 10.2971 1.16813 10.4734 1.08241 10.6814C0.996691 10.8894 0.977271 11.1187 1.02683 11.338C1.07639 11.5574 1.19249 11.7561 1.35927 11.907L1.9426 12.4237C2.05772 12.5294 2.14917 12.6584 2.21092 12.802C2.27268 12.9456 2.30336 13.1007 2.30093 13.257C2.30443 13.4135 2.27425 13.5689 2.21242 13.7127C2.15059 13.8564 2.05857 13.9853 1.9426 14.0904L1.35927 14.6154C1.19293 14.7664 1.07726 14.9651 1.02805 15.1844C0.978831 15.4036 0.998461 15.6327 1.08427 15.8404C1.1701 16.0473 1.31797 16.2224 1.5075 16.3419C1.69703 16.4613 1.91892 16.5189 2.1426 16.507H2.92593C3.07808 16.4986 3.23028 16.5224 3.37262 16.5767C3.51496 16.6311 3.64422 16.7149 3.75196 16.8226C3.85971 16.9304 3.94351 17.0597 3.9979 17.202C4.05229 17.3444 4.07604 17.4965 4.0676 17.6487V18.4237C4.05425 18.6485 4.11131 18.8719 4.23085 19.0629C4.35038 19.2538 4.52645 19.4026 4.73456 19.4888C4.94266 19.5749 5.17244 19.5942 5.39195 19.5436C5.61145 19.4931 5.80975 19.3754 5.95927 19.207L6.48427 18.632C6.58659 18.5193 6.71137 18.4292 6.85058 18.3675C6.98979 18.3059 7.14035 18.274 7.2926 18.274C7.44485 18.274 7.59542 18.3059 7.73463 18.3675C7.87383 18.4292 7.99861 18.5193 8.10093 18.632L8.62593 19.207C8.77542 19.3754 8.97375 19.4931 9.19325 19.5436C9.4128 19.5942 9.6426 19.5749 9.8507 19.4888C10.0588 19.4026 10.2348 19.2538 10.3543 19.0629C10.4739 18.8719 10.5309 18.6485 10.5176 18.4237V17.6487C10.5092 17.4965 10.5329 17.3444 10.5873 17.202C10.6417 17.0597 10.7255 16.9304 10.8333 16.8226C10.941 16.7149 11.0703 16.6311 11.2126 16.5767C11.3549 16.5224 11.5072 16.4986 11.6593 16.507H12.4426C12.6663 16.5189 12.8882 16.4613 13.0777 16.3419C13.2673 16.2224 13.4151 16.0473 13.5009 15.8404C13.5868 15.6327 13.6063 15.4036 13.5572 15.1844C13.5079 14.9651 13.3923 14.7664 13.2259 14.6154L12.6426 14.0904C12.5267 13.9853 12.4346 13.8564 12.3728 13.7127C12.3109 13.5689 12.2808 13.4135 12.2843 13.257C12.2818 13.1007 12.3125 12.9456 12.3743 12.802C12.436 12.6584 12.5275 12.5294 12.6426 12.4237L13.2259 11.907C13.3928 11.7561 13.5088 11.5574 13.5583 11.338C13.6079 11.1187 13.5885 10.8894 13.5028 10.6814C13.4171 10.4734 13.2693 10.2971 13.0794 10.1763C12.8897 10.0557 12.6673 9.99651 12.4426 10.007L11.6593 10.0487C11.5072 10.0571 11.3549 10.0333 11.2126 9.97892C11.0703 9.92459 10.941 9.84076 10.8333 9.73301C10.7255 9.62526 10.6417 9.49601 10.5873 9.35367C10.5329 9.21134 10.5092 9.05917 10.5176 8.90701V8.13199C10.5329 7.90643 10.4772 7.68174 10.3583 7.48941C10.2396 7.29707 10.0635 7.14673 9.855 7.05945C9.6464 6.97217 9.4158 6.95232 9.19542 7.00269C8.975 7.05307 8.77583 7.17112 8.62593 7.34032L8.10093 7.92366C7.99861 8.03639 7.87383 8.12647 7.73463 8.18812C7.59542 8.24977 7.44485 8.28162 7.2926 8.28162C7.14035 8.28162 6.98979 8.24977 6.85058 8.18812Z" stroke="black" stroke-width="1.5" stroke-linecap="round" stroke-linejoin="round"/>
<path d="M7.29226 14.7986C8.15751 14.7986 8.85889 14.0972 8.85889 13.232C8.85889 12.3667 8.15751 11.6653 7.29226 11.6653C6.42701 11.6653 5.72559 12.3667 5.72559 13.232C5.72559 14.0972 6.42701 14.7986 7.29226 14.7986Z" stroke="black" stroke-width="1.5" stroke-linecap="round" stroke-linejoin="round"/>
<path d="M15.5055 5.46566C15.2755 5.46566 15.0889 5.27911 15.0889 5.04899C15.0889 4.81887 15.2755 4.63232 15.5055 4.63232" stroke="black"/>
<path d="M15.5054 5.46566C15.7355 5.46566 15.922 5.27911 15.922 5.04899C15.922 4.81887 15.7355 4.63232 15.5054 4.63232" stroke="black"/>
<path d="M13.8207 1.79631C13.8259 1.61991 13.8878 1.44988 13.9973 1.31146C14.1068 1.17306 14.258 1.07363 14.4284 1.02796C14.5989 0.982281 14.7796 0.992787 14.9436 1.05792C15.1076 1.12305 15.2462 1.23932 15.3389 1.3895L15.8343 2.1847C15.9162 2.31675 16.0453 2.41275 16.1953 2.45328C16.3454 2.49381 16.5052 2.47586 16.6426 2.40303L17.4651 1.96483C17.6214 1.88254 17.7998 1.8525 17.9744 1.87911C18.1489 1.90574 18.3103 1.98761 18.4348 2.11272C18.5594 2.23784 18.6406 2.39959 18.6664 2.57423C18.6922 2.74887 18.6614 2.92721 18.5784 3.08302L18.1394 3.90891C18.0664 4.04663 18.0482 4.20687 18.0886 4.35743C18.1289 4.50798 18.2247 4.63768 18.3568 4.72046L19.1479 5.21801C19.2977 5.31146 19.4136 5.45047 19.4785 5.61464C19.5435 5.77881 19.5541 5.95946 19.5087 6.1301C19.4634 6.30072 19.3646 6.45233 19.2267 6.56265C19.0889 6.67296 18.9193 6.73617 18.7429 6.74301L17.8114 6.77483C17.6561 6.78042 17.5086 6.84479 17.399 6.95491C17.2893 7.06504 17.2256 7.2127 17.2206 7.36805L17.191 8.30136C17.1857 8.47776 17.1238 8.64776 17.0143 8.78617C16.9049 8.92459 16.7536 9.02401 16.5832 9.06967C16.4127 9.11542 16.2321 9.10484 16.0681 9.03975C15.9041 8.97459 15.7654 8.85834 15.6727 8.70817L15.1768 7.91313C15.095 7.78109 14.966 7.68506 14.8161 7.6445C14.6661 7.60394 14.5064 7.62185 14.3691 7.69463L13.5459 8.13299C13.3897 8.21529 13.2112 8.24533 13.0367 8.21871C12.8621 8.19209 12.7008 8.11021 12.5762 7.9851C12.4516 7.85999 12.3705 7.69823 12.3446 7.52359C12.3188 7.34895 12.3496 7.17062 12.4326 7.0148L12.8696 6.18821C12.9426 6.05048 12.9607 5.89024 12.9204 5.73969C12.8801 5.58913 12.7842 5.45943 12.6521 5.37666L11.8611 4.88166C11.7113 4.7882 11.5954 4.64918 11.5305 4.48501C11.4656 4.32086 11.455 4.14019 11.5002 3.96956C11.5456 3.79893 11.6444 3.64732 11.7822 3.53701C11.9201 3.4267 12.0896 3.36348 12.2661 3.35666L13.1982 3.32466C13.3534 3.31907 13.5007 3.25471 13.6103 3.14461C13.7199 3.0345 13.7836 2.88687 13.7884 2.73161L13.8207 1.79631Z" stroke="black" stroke-width="1.3" stroke-linecap="round" stroke-linejoin="round"/>
</svg>
