<svg width="23" height="20" viewBox="0 0 23 20" fill="none" xmlns="http://www.w3.org/2000/svg">
<path d="M5 16.4286C3.67392 16.4286 2.40215 15.9018 1.46447 14.9641C0.526784 14.0264 0 12.7547 0 11.4286C0 10.1025 0.526784 8.83074 1.46447 7.89306C2.40215 6.95537 3.67392 6.42859 5 6.42859C5.18944 6.42859 5.37112 6.50384 5.50508 6.6378C5.63903 6.77175 5.71429 6.95343 5.71429 7.14287C5.71429 7.33231 5.63903 7.514 5.50508 7.64795C5.37112 7.78191 5.18944 7.85716 5 7.85716C4.0528 7.85716 3.14439 8.23343 2.47462 8.90321C1.80485 9.57298 1.42857 10.4814 1.42857 11.4286C1.42857 12.3758 1.80485 13.2842 2.47462 13.954C3.14439 14.6237 4.0528 15 5 15C5.18944 15 5.37112 15.0753 5.50508 15.2092C5.63903 15.3432 5.71429 15.5249 5.71429 15.7143C5.71429 15.9037 5.63903 16.0854 5.50508 16.2194C5.37112 16.3533 5.18944 16.4286 5 16.4286Z" fill="black"/>
<path d="M17.8574 16.4286C17.6679 16.4286 17.4862 16.3533 17.3523 16.2194C17.2183 16.0854 17.1431 15.9037 17.1431 15.7143C17.1431 15.5249 17.2183 15.3432 17.3523 15.2092C17.4862 15.0753 17.6679 15 17.8574 15C18.8046 15 19.713 14.6237 20.3827 13.954C21.0525 13.2842 21.4288 12.3758 21.4288 11.4286C21.4288 10.4814 21.0525 9.57298 20.3827 8.90321C19.713 8.23343 18.8046 7.85716 17.8574 7.85716C17.6679 7.85716 17.4862 7.78191 17.3523 7.64795C17.2183 7.514 17.1431 7.33231 17.1431 7.14287C17.1431 6.95343 17.2183 6.77175 17.3523 6.6378C17.4862 6.50384 17.6679 6.42859 17.8574 6.42859C19.1834 6.42859 20.4552 6.95537 21.3929 7.89306C22.3306 8.83074 22.8574 10.1025 22.8574 11.4286C22.8574 12.7547 22.3306 14.0264 21.3929 14.9641C20.4552 15.9018 19.1834 16.4286 17.8574 16.4286Z" fill="black"/>
<path d="M17.8571 7.85714C17.6676 7.85714 17.486 7.78189 17.352 7.64793C17.218 7.51398 17.1428 7.3323 17.1428 7.14286C17.1428 5.62733 16.5407 4.17388 15.4691 3.10225C14.3975 2.03061 12.944 1.42857 11.4285 1.42857C9.91298 1.42857 8.45953 2.03061 7.38789 3.10225C6.31625 4.17388 5.71422 5.62733 5.71422 7.14286C5.71422 7.3323 5.63896 7.51398 5.50501 7.64793C5.37105 7.78189 5.18937 7.85714 4.99993 7.85714C4.81049 7.85714 4.62881 7.78189 4.49485 7.64793C4.3609 7.51398 4.28564 7.3323 4.28564 7.14286C4.28564 5.24845 5.03819 3.43164 6.37774 2.09209C7.71728 0.752549 9.5341 0 11.4285 0C13.3229 0 15.1397 0.752549 16.4793 2.09209C17.8188 3.43164 18.5714 5.24845 18.5714 7.14286C18.5714 7.3323 18.4961 7.51398 18.3622 7.64793C18.2282 7.78189 18.0465 7.85714 17.8571 7.85714Z" fill="black"/>
<rect x="7.14307" y="15" width="8.57143" height="1.42857" rx="0.714286" fill="black"/>
<rect x="10.7144" y="20" width="4.28571" height="1.42857" rx="0.714286" transform="rotate(-90 10.7144 20)" fill="black"/>
<rect x="8.57129" y="18.5714" width="5.71429" height="1.42857" rx="0.714286" fill="black"/>
<path fill-rule="evenodd" clip-rule="evenodd" d="M11.3409 5.71662H12.9257C13.2712 5.71662 13.6377 5.69766 13.9223 5.76658C14.6117 5.93346 15.15 6.29796 15.5214 6.80048C15.7184 7.06719 15.8894 7.38045 15.9959 7.73949C16.0436 7.9009 16.0744 8.06941 16.105 8.24901C16.1799 8.68833 16.0779 9.15745 15.9864 9.48266C15.7126 10.4556 15.1566 11.1075 14.2971 11.4606C13.6433 11.7293 12.5479 11.6396 11.6493 11.6405V11.6354L11.915 10.6015C11.9633 10.4322 11.9841 10.2533 12.0622 10.117C12.1352 9.98971 12.2437 9.88321 12.3659 9.80737C12.5511 9.69224 12.8616 9.7124 13.1583 9.71249L13.4145 9.70745C13.7287 9.64784 13.9646 9.48702 14.1073 9.24798C14.1684 9.14549 14.2135 9.02003 14.2449 8.88834C14.302 8.64878 14.2331 8.39855 14.1642 8.23398C13.8638 7.51633 13.1837 7.63761 12.2377 7.63966L11.1416 11.9302C10.9859 12.4755 10.9462 13.1744 10.5295 13.4486C10.3308 13.5793 9.99951 13.5585 9.67061 13.5585H8.84017L10.2827 7.88434L10.5816 6.7056C10.6553 6.44614 10.6899 6.19104 10.8284 6.00631C10.9146 5.89144 11.0509 5.79511 11.1986 5.7466L11.3409 5.71662ZM7.67768 7.64461H9.88885V7.64965L9.6516 8.58866C9.52818 9.02345 9.49812 9.33594 9.12016 9.50769C8.85781 9.62691 8.37292 9.57268 8.01453 9.57259H7.73463C7.27696 9.65287 6.97837 9.91899 6.87096 10.3618C6.82636 10.5457 6.84707 10.7682 6.89468 10.9262C7.01908 11.3386 7.28557 11.5678 7.72984 11.6454C8.02875 11.6977 8.44312 11.5629 8.63616 11.7204C8.80711 11.8599 8.78289 12.0629 8.71684 12.2947L8.38941 13.5634C7.99877 13.5681 7.55751 13.5937 7.22691 13.5185C6.19286 13.2834 5.52037 12.6336 5.16751 11.6804C5.00526 11.2421 4.9392 10.546 5.06782 10.0071C5.14208 9.69626 5.22942 9.39128 5.36681 9.1431C5.7204 8.5042 6.19912 8.08136 6.89468 7.79944C7.04946 7.73676 7.22415 7.70345 7.40241 7.66963L7.67768 7.64461Z" fill="black"/>
</svg>
