<svg width="22" height="22" viewBox="0 0 22 22" fill="none" xmlns="http://www.w3.org/2000/svg">
<path d="M11.0003 5.23337H11.0002C9.85963 5.23337 8.7447 5.57158 7.79638 6.20523C6.84805 6.83888 6.10893 7.73951 5.67246 8.79323C5.23599 9.84695 5.1218 11.0064 5.3443 12.1251C5.56681 13.2437 6.11603 14.2712 6.92252 15.0777C7.729 15.8842 8.75652 16.4334 9.87514 16.6559C10.9938 16.8784 12.1533 16.7642 13.207 16.3277C14.2607 15.8913 15.1613 15.1522 15.795 14.2038C16.4286 13.2555 16.7668 12.1406 16.7668 11V10.9999C16.7651 9.47107 16.157 8.00531 15.076 6.92424C13.9949 5.84317 12.5291 5.23508 11.0003 5.23337ZM11.0001 15.9C10.031 15.9 9.08364 15.6126 8.27787 15.0742C7.47207 14.5358 6.84403 13.7705 6.47316 12.8752C6.10229 11.9798 6.00525 10.9946 6.19432 10.0441C6.38339 9.09359 6.85006 8.22049 7.53534 7.53522C8.22062 6.84994 9.09372 6.38326 10.0442 6.19419C10.9947 6.00513 11.98 6.10216 12.8753 6.47303C13.7707 6.8439 14.5359 7.47195 15.0744 8.27775C15.6128 9.08352 15.9001 10.0308 15.9002 10.9999C15.8987 12.2991 15.382 13.5446 14.4633 14.4632C13.5447 15.3818 12.2992 15.8986 11.0001 15.9Z" fill="black" stroke="black" stroke-width="0.2"/>
<path d="M6.86428 10.7365L6.86434 10.7364L8.514 8.56975C8.514 8.56975 8.514 8.56975 8.51401 8.56975C8.58354 8.47841 8.68647 8.4184 8.80021 8.40288C8.91394 8.38736 9.02918 8.4176 9.12063 8.48696L6.86428 10.7365ZM6.86428 10.7365C6.80699 10.8119 6.77598 10.904 6.77598 10.9987C6.77598 11.0933 6.80699 11.1854 6.86428 11.2608L6.86434 11.2609L8.51146 13.4242L6.86428 10.7365ZM12.8727 8.48895C12.7816 8.55867 12.7219 8.66168 12.7066 8.77539L12.8057 8.7887L12.7066 8.77539C12.6914 8.88912 12.7218 9.00427 12.7913 9.09557L12.7914 9.09571L14.2467 11L12.7938 12.903C12.7579 12.9478 12.7313 12.9993 12.7155 13.0545C12.6996 13.1102 12.6949 13.1685 12.7019 13.226C12.7088 13.2834 12.7273 13.3389 12.756 13.3892C12.7848 13.4394 12.8233 13.4834 12.8694 13.5185C12.9154 13.5536 12.968 13.5791 13.0241 13.5935C13.0802 13.608 13.1386 13.611 13.1958 13.6025C13.2531 13.594 13.3081 13.5741 13.3575 13.5439C13.4065 13.5141 13.4491 13.4748 13.4828 13.4283L15.1367 11.2627L15.1368 11.2626C15.1943 11.1871 15.2254 11.0949 15.2254 11C15.2254 10.9051 15.1943 10.8129 15.1368 10.7374L15.1367 10.7373L13.4823 8.57096C13.4823 8.57091 13.4822 8.57086 13.4822 8.57081C13.4477 8.52528 13.4045 8.48703 13.3552 8.45824C13.3058 8.42942 13.2512 8.41067 13.1945 8.40305C13.1378 8.39544 13.0802 8.39912 13.025 8.41388C12.9698 8.42863 12.918 8.45414 12.8727 8.48895ZM12.8727 8.48895C12.8727 8.48899 12.8726 8.48902 12.8726 8.48906L12.9336 8.56833L12.8728 8.4889C12.8728 8.48892 12.8728 8.48893 12.8727 8.48895ZM11.8999 8.92609C11.9245 8.81387 11.9036 8.69646 11.8417 8.59968C11.7797 8.5029 11.6819 8.43467 11.5697 8.40999L11.5696 8.40998C11.5141 8.39779 11.4566 8.39667 11.4006 8.4067C11.3445 8.41672 11.291 8.43768 11.2431 8.46838C11.1952 8.49909 11.1538 8.53893 11.1212 8.58564C11.0887 8.63235 11.0657 8.68501 11.0535 8.74061L11.0535 8.74062L10.1058 13.0728C10.0923 13.1285 10.0899 13.1864 10.099 13.2431C10.1081 13.3002 10.1285 13.3549 10.1591 13.404C10.1896 13.4531 10.2297 13.4956 10.277 13.529C10.3242 13.5623 10.3777 13.5859 10.4341 13.5983L10.4556 13.5006L10.4341 13.5983C10.4906 13.6106 10.549 13.6116 10.6059 13.601C10.6628 13.5905 10.717 13.5687 10.7653 13.5369C10.8136 13.505 10.855 13.4639 10.8872 13.4158C10.9191 13.3681 10.9412 13.3145 10.9522 13.2582L11.8999 8.92609ZM11.8999 8.92609L11.8022 8.90466M11.8999 8.92609L11.8999 8.92603L11.8022 8.90466M11.8022 8.90466C11.8212 8.81833 11.8051 8.72802 11.7574 8.65357C11.7098 8.57912 11.6346 8.52664 11.5482 8.50766L11.8022 8.90466Z" fill="black" stroke="black" stroke-width="0.2"/>
<mask id="path-3-outside-1_361_104" maskUnits="userSpaceOnUse" x="0" y="0" width="22" height="22" fill="black">
<rect fill="white" width="22" height="22"/>
<path d="M20 8.961H18.4453C18.2749 8.33788 18.0264 7.7388 17.7057 7.178L18.8057 6.078C18.9929 5.8905 19.0981 5.63633 19.0981 5.37133C19.0981 5.10633 18.9929 4.85217 18.8057 4.66467L17.336 3.19467C17.1485 3.0072 16.8942 2.90188 16.629 2.90188C16.3638 2.90188 16.1095 3.0072 15.922 3.19467L14.822 4.29467C14.2612 3.97398 13.6621 3.72545 13.039 3.555V2C13.039 1.73478 12.9336 1.48043 12.7461 1.29289C12.5586 1.10536 12.3042 1 12.039 1H9.961C9.69578 1 9.44143 1.10536 9.25389 1.29289C9.06636 1.48043 8.961 1.73478 8.961 2V3.55467C8.33788 3.72512 7.7388 3.97364 7.178 4.29433L6.078 3.19433C5.88997 3.00794 5.63593 2.90336 5.37117 2.90336C5.10641 2.90336 4.85236 3.00794 4.66433 3.19433L3.19433 4.664C3.00686 4.85153 2.90155 5.10584 2.90155 5.371C2.90155 5.63616 3.00686 5.89047 3.19433 6.078L4.29433 7.178C3.97364 7.7388 3.72512 8.33788 3.55467 8.961H2C1.73478 8.961 1.48043 9.06636 1.29289 9.25389C1.10536 9.44143 1 9.69578 1 9.961V12.039C1 12.3042 1.10536 12.5586 1.29289 12.7461C1.48043 12.9336 1.73478 13.039 2 13.039H3.55467C3.72512 13.6621 3.97364 14.2612 4.29433 14.822L3.19433 15.922C3.00794 16.11 2.90336 16.3641 2.90336 16.6288C2.90336 16.8936 3.00794 17.1476 3.19433 17.3357L4.664 18.8057C4.85184 18.9927 5.10611 19.0977 5.37117 19.0977C5.63622 19.0977 5.89049 18.9927 6.07833 18.8057L7.17833 17.7057C7.73913 18.0264 8.33821 18.2749 8.96133 18.4453V20C8.96133 20.2652 9.06669 20.5196 9.25423 20.7071C9.44176 20.8946 9.69612 21 9.96133 21H12.0393C12.3046 21 12.5589 20.8946 12.7464 20.7071C12.934 20.5196 13.0393 20.2652 13.0393 20V18.4453C13.6625 18.2749 14.2615 18.0264 14.8223 17.7057L15.9223 18.8057C16.1098 18.9929 16.364 19.0981 16.629 19.0981C16.894 19.0981 17.1482 18.9929 17.3357 18.8057L18.8057 17.336C18.9928 17.1482 19.0978 16.8939 19.0978 16.6288C19.0978 16.3638 18.9928 16.1095 18.8057 15.9217L17.7057 14.8217C18.0264 14.2609 18.2749 13.6618 18.4453 13.0387H20C20.2652 13.0387 20.5196 12.9333 20.7071 12.7458C20.8946 12.5582 21 12.3039 21 12.0387V9.961C21 9.69578 20.8946 9.44143 20.7071 9.25389C20.5196 9.06636 20.2652 8.961 20 8.961ZM20.3333 12.039C20.3333 12.1274 20.2982 12.2122 20.2357 12.2747C20.1732 12.3372 20.0884 12.3723 20 12.3723H18.1867C18.1116 12.3723 18.0387 12.3977 17.9799 12.4443C17.921 12.4909 17.8796 12.5559 17.8623 12.629C17.6888 13.3609 17.3988 14.0602 17.0033 14.7C16.9639 14.7638 16.9472 14.8391 16.9558 14.9136C16.9645 14.9881 16.998 15.0576 17.051 15.1107L18.3333 16.3933C18.3646 16.4243 18.3894 16.4612 18.4063 16.5018C18.4232 16.5424 18.4319 16.586 18.4319 16.63C18.4319 16.674 18.4232 16.7176 18.4063 16.7582C18.3894 16.7988 18.3646 16.8357 18.3333 16.8667L16.8667 18.3333C16.8042 18.3956 16.7196 18.4306 16.6313 18.4306C16.5431 18.4306 16.4585 18.3956 16.396 18.3333L15.11 17.051C15.0569 16.9982 14.9876 16.9647 14.9133 16.9561C14.8389 16.9474 14.7638 16.9641 14.7 17.0033C14.0604 17.3987 13.3613 17.6888 12.6297 17.8623C12.5566 17.8796 12.4915 17.921 12.4449 17.9799C12.3984 18.0387 12.373 18.1116 12.373 18.1867V20C12.373 20.0884 12.3379 20.1732 12.2754 20.2357C12.2129 20.2982 12.1281 20.3333 12.0397 20.3333H9.961C9.87259 20.3333 9.78781 20.2982 9.7253 20.2357C9.66279 20.1732 9.62767 20.0884 9.62767 20V18.1867C9.62765 18.1116 9.6023 18.0387 9.55572 17.9799C9.50914 17.921 9.44405 17.8796 9.371 17.8623C8.6391 17.6888 7.93985 17.3988 7.3 17.0033C7.23617 16.9639 7.16091 16.9472 7.08638 16.9558C7.01186 16.9645 6.94243 16.998 6.88933 17.051L5.60667 18.3333C5.57571 18.3643 5.53895 18.3889 5.49848 18.4057C5.45801 18.4225 5.41464 18.4311 5.37083 18.4311C5.32703 18.4311 5.28365 18.4225 5.24319 18.4057C5.20272 18.3889 5.16596 18.3643 5.135 18.3333L3.66667 16.8667C3.60438 16.8042 3.5694 16.7196 3.5694 16.6313C3.5694 16.5431 3.60438 16.4585 3.66667 16.396L4.951 15.1117C5.00393 15.0583 5.03724 14.9885 5.04553 14.9138C5.05382 14.8391 5.0366 14.7637 4.99667 14.7C4.60128 14.0604 4.31125 13.3613 4.13767 12.6297C4.1204 12.5566 4.07899 12.4915 4.02012 12.4449C3.96126 12.3984 3.8884 12.373 3.81333 12.373H2C1.91159 12.373 1.82681 12.3379 1.7643 12.2754C1.70179 12.2129 1.66667 12.1281 1.66667 12.0397V9.961C1.66667 9.87259 1.70179 9.78781 1.7643 9.7253C1.82681 9.66279 1.91159 9.62767 2 9.62767H3.81333C3.8884 9.62765 3.96126 9.6023 4.02012 9.55572C4.07899 9.50914 4.1204 9.44405 4.13767 9.371C4.31118 8.6391 4.60121 7.93985 4.99667 7.3C5.0361 7.23617 5.05284 7.16091 5.04419 7.08638C5.03554 7.01186 5.002 6.94243 4.949 6.88933L3.66667 5.60633C3.60418 5.54382 3.56907 5.45905 3.56907 5.37067C3.56907 5.28228 3.60418 5.19751 3.66667 5.135L5.135 3.66667C5.19748 3.60438 5.28211 3.5694 5.37033 3.5694C5.45856 3.5694 5.54319 3.60438 5.60567 3.66667L6.89 4.951C6.9431 5.004 7.01253 5.03754 7.08705 5.04619C7.16158 5.05484 7.23684 5.0381 7.30067 4.99867C7.94031 4.60328 8.63933 4.31325 9.371 4.13967C9.44405 4.1224 9.50914 4.08099 9.55572 4.02212C9.6023 3.96326 9.62765 3.8904 9.62767 3.81533V2C9.62767 1.91159 9.66279 1.82681 9.7253 1.7643C9.78781 1.70179 9.87259 1.66667 9.961 1.66667H12.039C12.1274 1.66667 12.2122 1.70179 12.2747 1.7643C12.3372 1.82681 12.3723 1.91159 12.3723 2V3.81333C12.3723 3.8884 12.3977 3.96126 12.4443 4.02012C12.4909 4.07899 12.5559 4.1204 12.629 4.13767C13.3609 4.31118 14.0602 4.60121 14.7 4.99667C14.7638 5.0361 14.8391 5.05284 14.9136 5.04419C14.9881 5.03554 15.0576 5.002 15.1107 4.949L16.3937 3.66667C16.4246 3.63547 16.4615 3.61072 16.5021 3.59383C16.5427 3.57693 16.5862 3.56824 16.6302 3.56824C16.6741 3.56824 16.7177 3.57693 16.7583 3.59383C16.7988 3.61072 16.8357 3.63547 16.8667 3.66667L18.3333 5.135C18.3956 5.19748 18.4306 5.28211 18.4306 5.37033C18.4306 5.45856 18.3956 5.54319 18.3333 5.60567L17.051 6.89C16.9982 6.94305 16.9647 7.01236 16.9561 7.08673C16.9474 7.16111 16.9641 7.23624 17.0033 7.3C17.3987 7.93964 17.6888 8.63866 17.8623 9.37033C17.8796 9.44339 17.921 9.50847 17.9799 9.55505C18.0387 9.60164 18.1116 9.62699 18.1867 9.627H20C20.0884 9.627 20.1732 9.66212 20.2357 9.72463C20.2982 9.78714 20.3333 9.87193 20.3333 9.96033V12.039Z"/>
</mask>
<path d="M20 8.961H18.4453C18.2749 8.33788 18.0264 7.7388 17.7057 7.178L18.8057 6.078C18.9929 5.8905 19.0981 5.63633 19.0981 5.37133C19.0981 5.10633 18.9929 4.85217 18.8057 4.66467L17.336 3.19467C17.1485 3.0072 16.8942 2.90188 16.629 2.90188C16.3638 2.90188 16.1095 3.0072 15.922 3.19467L14.822 4.29467C14.2612 3.97398 13.6621 3.72545 13.039 3.555V2C13.039 1.73478 12.9336 1.48043 12.7461 1.29289C12.5586 1.10536 12.3042 1 12.039 1H9.961C9.69578 1 9.44143 1.10536 9.25389 1.29289C9.06636 1.48043 8.961 1.73478 8.961 2V3.55467C8.33788 3.72512 7.7388 3.97364 7.178 4.29433L6.078 3.19433C5.88997 3.00794 5.63593 2.90336 5.37117 2.90336C5.10641 2.90336 4.85236 3.00794 4.66433 3.19433L3.19433 4.664C3.00686 4.85153 2.90155 5.10584 2.90155 5.371C2.90155 5.63616 3.00686 5.89047 3.19433 6.078L4.29433 7.178C3.97364 7.7388 3.72512 8.33788 3.55467 8.961H2C1.73478 8.961 1.48043 9.06636 1.29289 9.25389C1.10536 9.44143 1 9.69578 1 9.961V12.039C1 12.3042 1.10536 12.5586 1.29289 12.7461C1.48043 12.9336 1.73478 13.039 2 13.039H3.55467C3.72512 13.6621 3.97364 14.2612 4.29433 14.822L3.19433 15.922C3.00794 16.11 2.90336 16.3641 2.90336 16.6288C2.90336 16.8936 3.00794 17.1476 3.19433 17.3357L4.664 18.8057C4.85184 18.9927 5.10611 19.0977 5.37117 19.0977C5.63622 19.0977 5.89049 18.9927 6.07833 18.8057L7.17833 17.7057C7.73913 18.0264 8.33821 18.2749 8.96133 18.4453V20C8.96133 20.2652 9.06669 20.5196 9.25423 20.7071C9.44176 20.8946 9.69612 21 9.96133 21H12.0393C12.3046 21 12.5589 20.8946 12.7464 20.7071C12.934 20.5196 13.0393 20.2652 13.0393 20V18.4453C13.6625 18.2749 14.2615 18.0264 14.8223 17.7057L15.9223 18.8057C16.1098 18.9929 16.364 19.0981 16.629 19.0981C16.894 19.0981 17.1482 18.9929 17.3357 18.8057L18.8057 17.336C18.9928 17.1482 19.0978 16.8939 19.0978 16.6288C19.0978 16.3638 18.9928 16.1095 18.8057 15.9217L17.7057 14.8217C18.0264 14.2609 18.2749 13.6618 18.4453 13.0387H20C20.2652 13.0387 20.5196 12.9333 20.7071 12.7458C20.8946 12.5582 21 12.3039 21 12.0387V9.961C21 9.69578 20.8946 9.44143 20.7071 9.25389C20.5196 9.06636 20.2652 8.961 20 8.961ZM20.3333 12.039C20.3333 12.1274 20.2982 12.2122 20.2357 12.2747C20.1732 12.3372 20.0884 12.3723 20 12.3723H18.1867C18.1116 12.3723 18.0387 12.3977 17.9799 12.4443C17.921 12.4909 17.8796 12.5559 17.8623 12.629C17.6888 13.3609 17.3988 14.0602 17.0033 14.7C16.9639 14.7638 16.9472 14.8391 16.9558 14.9136C16.9645 14.9881 16.998 15.0576 17.051 15.1107L18.3333 16.3933C18.3646 16.4243 18.3894 16.4612 18.4063 16.5018C18.4232 16.5424 18.4319 16.586 18.4319 16.63C18.4319 16.674 18.4232 16.7176 18.4063 16.7582C18.3894 16.7988 18.3646 16.8357 18.3333 16.8667L16.8667 18.3333C16.8042 18.3956 16.7196 18.4306 16.6313 18.4306C16.5431 18.4306 16.4585 18.3956 16.396 18.3333L15.11 17.051C15.0569 16.9982 14.9876 16.9647 14.9133 16.9561C14.8389 16.9474 14.7638 16.9641 14.7 17.0033C14.0604 17.3987 13.3613 17.6888 12.6297 17.8623C12.5566 17.8796 12.4915 17.921 12.4449 17.9799C12.3984 18.0387 12.373 18.1116 12.373 18.1867V20C12.373 20.0884 12.3379 20.1732 12.2754 20.2357C12.2129 20.2982 12.1281 20.3333 12.0397 20.3333H9.961C9.87259 20.3333 9.78781 20.2982 9.7253 20.2357C9.66279 20.1732 9.62767 20.0884 9.62767 20V18.1867C9.62765 18.1116 9.6023 18.0387 9.55572 17.9799C9.50914 17.921 9.44405 17.8796 9.371 17.8623C8.6391 17.6888 7.93985 17.3988 7.3 17.0033C7.23617 16.9639 7.16091 16.9472 7.08638 16.9558C7.01186 16.9645 6.94243 16.998 6.88933 17.051L5.60667 18.3333C5.57571 18.3643 5.53895 18.3889 5.49848 18.4057C5.45801 18.4225 5.41464 18.4311 5.37083 18.4311C5.32703 18.4311 5.28365 18.4225 5.24319 18.4057C5.20272 18.3889 5.16596 18.3643 5.135 18.3333L3.66667 16.8667C3.60438 16.8042 3.5694 16.7196 3.5694 16.6313C3.5694 16.5431 3.60438 16.4585 3.66667 16.396L4.951 15.1117C5.00393 15.0583 5.03724 14.9885 5.04553 14.9138C5.05382 14.8391 5.0366 14.7637 4.99667 14.7C4.60128 14.0604 4.31125 13.3613 4.13767 12.6297C4.1204 12.5566 4.07899 12.4915 4.02012 12.4449C3.96126 12.3984 3.8884 12.373 3.81333 12.373H2C1.91159 12.373 1.82681 12.3379 1.7643 12.2754C1.70179 12.2129 1.66667 12.1281 1.66667 12.0397V9.961C1.66667 9.87259 1.70179 9.78781 1.7643 9.7253C1.82681 9.66279 1.91159 9.62767 2 9.62767H3.81333C3.8884 9.62765 3.96126 9.6023 4.02012 9.55572C4.07899 9.50914 4.1204 9.44405 4.13767 9.371C4.31118 8.6391 4.60121 7.93985 4.99667 7.3C5.0361 7.23617 5.05284 7.16091 5.04419 7.08638C5.03554 7.01186 5.002 6.94243 4.949 6.88933L3.66667 5.60633C3.60418 5.54382 3.56907 5.45905 3.56907 5.37067C3.56907 5.28228 3.60418 5.19751 3.66667 5.135L5.135 3.66667C5.19748 3.60438 5.28211 3.5694 5.37033 3.5694C5.45856 3.5694 5.54319 3.60438 5.60567 3.66667L6.89 4.951C6.9431 5.004 7.01253 5.03754 7.08705 5.04619C7.16158 5.05484 7.23684 5.0381 7.30067 4.99867C7.94031 4.60328 8.63933 4.31325 9.371 4.13967C9.44405 4.1224 9.50914 4.08099 9.55572 4.02212C9.6023 3.96326 9.62765 3.8904 9.62767 3.81533V2C9.62767 1.91159 9.66279 1.82681 9.7253 1.7643C9.78781 1.70179 9.87259 1.66667 9.961 1.66667H12.039C12.1274 1.66667 12.2122 1.70179 12.2747 1.7643C12.3372 1.82681 12.3723 1.91159 12.3723 2V3.81333C12.3723 3.8884 12.3977 3.96126 12.4443 4.02012C12.4909 4.07899 12.5559 4.1204 12.629 4.13767C13.3609 4.31118 14.0602 4.60121 14.7 4.99667C14.7638 5.0361 14.8391 5.05284 14.9136 5.04419C14.9881 5.03554 15.0576 5.002 15.1107 4.949L16.3937 3.66667C16.4246 3.63547 16.4615 3.61072 16.5021 3.59383C16.5427 3.57693 16.5862 3.56824 16.6302 3.56824C16.6741 3.56824 16.7177 3.57693 16.7583 3.59383C16.7988 3.61072 16.8357 3.63547 16.8667 3.66667L18.3333 5.135C18.3956 5.19748 18.4306 5.28211 18.4306 5.37033C18.4306 5.45856 18.3956 5.54319 18.3333 5.60567L17.051 6.89C16.9982 6.94305 16.9647 7.01236 16.9561 7.08673C16.9474 7.16111 16.9641 7.23624 17.0033 7.3C17.3987 7.93964 17.6888 8.63866 17.8623 9.37033C17.8796 9.44339 17.921 9.50847 17.9799 9.55505C18.0387 9.60164 18.1116 9.62699 18.1867 9.627H20C20.0884 9.627 20.1732 9.66212 20.2357 9.72463C20.2982 9.78714 20.3333 9.87193 20.3333 9.96033V12.039Z" fill="black"/>
<path d="M20 8.961H18.4453C18.2749 8.33788 18.0264 7.7388 17.7057 7.178L18.8057 6.078C18.9929 5.8905 19.0981 5.63633 19.0981 5.37133C19.0981 5.10633 18.9929 4.85217 18.8057 4.66467L17.336 3.19467C17.1485 3.0072 16.8942 2.90188 16.629 2.90188C16.3638 2.90188 16.1095 3.0072 15.922 3.19467L14.822 4.29467C14.2612 3.97398 13.6621 3.72545 13.039 3.555V2C13.039 1.73478 12.9336 1.48043 12.7461 1.29289C12.5586 1.10536 12.3042 1 12.039 1H9.961C9.69578 1 9.44143 1.10536 9.25389 1.29289C9.06636 1.48043 8.961 1.73478 8.961 2V3.55467C8.33788 3.72512 7.7388 3.97364 7.178 4.29433L6.078 3.19433C5.88997 3.00794 5.63593 2.90336 5.37117 2.90336C5.10641 2.90336 4.85236 3.00794 4.66433 3.19433L3.19433 4.664C3.00686 4.85153 2.90155 5.10584 2.90155 5.371C2.90155 5.63616 3.00686 5.89047 3.19433 6.078L4.29433 7.178C3.97364 7.7388 3.72512 8.33788 3.55467 8.961H2C1.73478 8.961 1.48043 9.06636 1.29289 9.25389C1.10536 9.44143 1 9.69578 1 9.961V12.039C1 12.3042 1.10536 12.5586 1.29289 12.7461C1.48043 12.9336 1.73478 13.039 2 13.039H3.55467C3.72512 13.6621 3.97364 14.2612 4.29433 14.822L3.19433 15.922C3.00794 16.11 2.90336 16.3641 2.90336 16.6288C2.90336 16.8936 3.00794 17.1476 3.19433 17.3357L4.664 18.8057C4.85184 18.9927 5.10611 19.0977 5.37117 19.0977C5.63622 19.0977 5.89049 18.9927 6.07833 18.8057L7.17833 17.7057C7.73913 18.0264 8.33821 18.2749 8.96133 18.4453V20C8.96133 20.2652 9.06669 20.5196 9.25423 20.7071C9.44176 20.8946 9.69612 21 9.96133 21H12.0393C12.3046 21 12.5589 20.8946 12.7464 20.7071C12.934 20.5196 13.0393 20.2652 13.0393 20V18.4453C13.6625 18.2749 14.2615 18.0264 14.8223 17.7057L15.9223 18.8057C16.1098 18.9929 16.364 19.0981 16.629 19.0981C16.894 19.0981 17.1482 18.9929 17.3357 18.8057L18.8057 17.336C18.9928 17.1482 19.0978 16.8939 19.0978 16.6288C19.0978 16.3638 18.9928 16.1095 18.8057 15.9217L17.7057 14.8217C18.0264 14.2609 18.2749 13.6618 18.4453 13.0387H20C20.2652 13.0387 20.5196 12.9333 20.7071 12.7458C20.8946 12.5582 21 12.3039 21 12.0387V9.961C21 9.69578 20.8946 9.44143 20.7071 9.25389C20.5196 9.06636 20.2652 8.961 20 8.961ZM20.3333 12.039C20.3333 12.1274 20.2982 12.2122 20.2357 12.2747C20.1732 12.3372 20.0884 12.3723 20 12.3723H18.1867C18.1116 12.3723 18.0387 12.3977 17.9799 12.4443C17.921 12.4909 17.8796 12.5559 17.8623 12.629C17.6888 13.3609 17.3988 14.0602 17.0033 14.7C16.9639 14.7638 16.9472 14.8391 16.9558 14.9136C16.9645 14.9881 16.998 15.0576 17.051 15.1107L18.3333 16.3933C18.3646 16.4243 18.3894 16.4612 18.4063 16.5018C18.4232 16.5424 18.4319 16.586 18.4319 16.63C18.4319 16.674 18.4232 16.7176 18.4063 16.7582C18.3894 16.7988 18.3646 16.8357 18.3333 16.8667L16.8667 18.3333C16.8042 18.3956 16.7196 18.4306 16.6313 18.4306C16.5431 18.4306 16.4585 18.3956 16.396 18.3333L15.11 17.051C15.0569 16.9982 14.9876 16.9647 14.9133 16.9561C14.8389 16.9474 14.7638 16.9641 14.7 17.0033C14.0604 17.3987 13.3613 17.6888 12.6297 17.8623C12.5566 17.8796 12.4915 17.921 12.4449 17.9799C12.3984 18.0387 12.373 18.1116 12.373 18.1867V20C12.373 20.0884 12.3379 20.1732 12.2754 20.2357C12.2129 20.2982 12.1281 20.3333 12.0397 20.3333H9.961C9.87259 20.3333 9.78781 20.2982 9.7253 20.2357C9.66279 20.1732 9.62767 20.0884 9.62767 20V18.1867C9.62765 18.1116 9.6023 18.0387 9.55572 17.9799C9.50914 17.921 9.44405 17.8796 9.371 17.8623C8.6391 17.6888 7.93985 17.3988 7.3 17.0033C7.23617 16.9639 7.16091 16.9472 7.08638 16.9558C7.01186 16.9645 6.94243 16.998 6.88933 17.051L5.60667 18.3333C5.57571 18.3643 5.53895 18.3889 5.49848 18.4057C5.45801 18.4225 5.41464 18.4311 5.37083 18.4311C5.32703 18.4311 5.28365 18.4225 5.24319 18.4057C5.20272 18.3889 5.16596 18.3643 5.135 18.3333L3.66667 16.8667C3.60438 16.8042 3.5694 16.7196 3.5694 16.6313C3.5694 16.5431 3.60438 16.4585 3.66667 16.396L4.951 15.1117C5.00393 15.0583 5.03724 14.9885 5.04553 14.9138C5.05382 14.8391 5.0366 14.7637 4.99667 14.7C4.60128 14.0604 4.31125 13.3613 4.13767 12.6297C4.1204 12.5566 4.07899 12.4915 4.02012 12.4449C3.96126 12.3984 3.8884 12.373 3.81333 12.373H2C1.91159 12.373 1.82681 12.3379 1.7643 12.2754C1.70179 12.2129 1.66667 12.1281 1.66667 12.0397V9.961C1.66667 9.87259 1.70179 9.78781 1.7643 9.7253C1.82681 9.66279 1.91159 9.62767 2 9.62767H3.81333C3.8884 9.62765 3.96126 9.6023 4.02012 9.55572C4.07899 9.50914 4.1204 9.44405 4.13767 9.371C4.31118 8.6391 4.60121 7.93985 4.99667 7.3C5.0361 7.23617 5.05284 7.16091 5.04419 7.08638C5.03554 7.01186 5.002 6.94243 4.949 6.88933L3.66667 5.60633C3.60418 5.54382 3.56907 5.45905 3.56907 5.37067C3.56907 5.28228 3.60418 5.19751 3.66667 5.135L5.135 3.66667C5.19748 3.60438 5.28211 3.5694 5.37033 3.5694C5.45856 3.5694 5.54319 3.60438 5.60567 3.66667L6.89 4.951C6.9431 5.004 7.01253 5.03754 7.08705 5.04619C7.16158 5.05484 7.23684 5.0381 7.30067 4.99867C7.94031 4.60328 8.63933 4.31325 9.371 4.13967C9.44405 4.1224 9.50914 4.08099 9.55572 4.02212C9.6023 3.96326 9.62765 3.8904 9.62767 3.81533V2C9.62767 1.91159 9.66279 1.82681 9.7253 1.7643C9.78781 1.70179 9.87259 1.66667 9.961 1.66667H12.039C12.1274 1.66667 12.2122 1.70179 12.2747 1.7643C12.3372 1.82681 12.3723 1.91159 12.3723 2V3.81333C12.3723 3.8884 12.3977 3.96126 12.4443 4.02012C12.4909 4.07899 12.5559 4.1204 12.629 4.13767C13.3609 4.31118 14.0602 4.60121 14.7 4.99667C14.7638 5.0361 14.8391 5.05284 14.9136 5.04419C14.9881 5.03554 15.0576 5.002 15.1107 4.949L16.3937 3.66667C16.4246 3.63547 16.4615 3.61072 16.5021 3.59383C16.5427 3.57693 16.5862 3.56824 16.6302 3.56824C16.6741 3.56824 16.7177 3.57693 16.7583 3.59383C16.7988 3.61072 16.8357 3.63547 16.8667 3.66667L18.3333 5.135C18.3956 5.19748 18.4306 5.28211 18.4306 5.37033C18.4306 5.45856 18.3956 5.54319 18.3333 5.60567L17.051 6.89C16.9982 6.94305 16.9647 7.01236 16.9561 7.08673C16.9474 7.16111 16.9641 7.23624 17.0033 7.3C17.3987 7.93964 17.6888 8.63866 17.8623 9.37033C17.8796 9.44339 17.921 9.50847 17.9799 9.55505C18.0387 9.60164 18.1116 9.62699 18.1867 9.627H20C20.0884 9.627 20.1732 9.66212 20.2357 9.72463C20.2982 9.78714 20.3333 9.87193 20.3333 9.96033V12.039Z" stroke="black" stroke-width="0.4" mask="url(#path-3-outside-1_361_104)"/>
</svg>
