<svg width="18" height="20" viewBox="0 0 18 20" fill="none" xmlns="http://www.w3.org/2000/svg">
<path d="M1.70007 20H15.6754C16.1257 19.9996 16.5572 19.8205 16.8755 19.5022C17.1938 19.1839 17.3729 18.7522 17.3735 18.3021V10.0491C17.3735 9.8885 17.2979 9.73732 17.1693 9.64095L14.4285 7.60011V7.06541C14.428 6.75109 14.303 6.44985 14.0806 6.2275C13.8584 6.00528 13.5572 5.88015 13.2428 5.87972H12.8041V4.11633C12.8041 2.64576 12.0194 1.28682 10.7459 0.551573C9.47222 -0.183858 7.90314 -0.183858 6.62959 0.551573C5.35607 1.28686 4.57137 2.6458 4.57137 4.11633V5.87958L4.13262 5.87972C3.8183 5.88015 3.51705 6.00528 3.29486 6.2275C3.07249 6.44986 2.94751 6.75108 2.94694 7.06541V7.34699L0.183643 9.65733C0.0673367 9.75413 0 9.89777 0 10.0491V18.3021C0.000427082 18.7526 0.179798 19.1844 0.498547 19.5029C0.817428 19.8212 1.24948 20 1.70007 20ZM15.6758 18.9796H1.70007C1.52042 18.9791 1.34845 18.9075 1.22146 18.7805C1.09447 18.6536 1.02301 18.4816 1.02245 18.3021V11.0203L6.12454 14.3612L2.47763 16.9795C2.26282 17.1482 2.21897 17.456 2.37798 17.678C2.53714 17.8999 2.84278 17.9573 3.07139 17.8082L7.039 14.9673L8.40833 15.8653C8.57816 15.9765 8.79769 15.9765 8.96752 15.8653L10.3368 14.9673L14.3045 17.8082C14.5331 17.9573 14.8387 17.8999 14.9979 17.678C15.1569 17.456 15.113 17.1482 14.8982 16.9795L11.2531 14.3673L16.3534 11.0203V18.3021C16.3528 18.4816 16.2814 18.6536 16.1544 18.7805C16.0274 18.9075 15.8555 18.9791 15.6758 18.9796ZM15.9982 10.0385L14.4289 11.0589L14.4288 8.86718L15.9982 10.0385ZM5.58997 4.12008C5.58997 3.01395 6.18003 1.99197 7.13798 1.43894C8.09593 0.885905 9.27605 0.885869 10.234 1.43894C11.1917 1.992 11.7818 3.01399 11.7818 4.12008V5.88333H10.7288V4.12821C10.7288 3.39694 10.3386 2.72116 9.70524 2.35556C9.07204 1.98985 8.29164 1.98985 7.65828 2.35556C7.02508 2.72113 6.63488 3.3969 6.63488 4.12821V5.87921L5.59197 5.87936L5.58997 4.12008ZM9.70845 5.87932H7.66761V4.12818C7.66761 3.76148 7.86321 3.42267 8.18096 3.23914C8.49855 3.05578 8.88975 3.05578 9.2075 3.23914C9.5251 3.42264 9.7207 3.76144 9.7207 4.12818L9.70845 5.87932ZM4.12676 6.89974H13.2431C13.3344 6.89974 13.4084 6.97376 13.4084 7.06502V11.7345L8.68786 14.8284L3.96733 11.7345V7.06502C3.96733 6.97377 4.04135 6.89974 4.13261 6.89974H4.12676ZM2.94719 11.0671L1.34098 10.018L2.94308 8.68329L2.94719 11.0671Z" fill="black"/>
<path d="M7.7979 12.0509C7.89356 12.1469 8.02353 12.2008 8.15906 12.2008C8.29458 12.2008 8.42456 12.1469 8.52022 12.0509L10.5611 10.0101C10.7606 9.8105 10.7606 9.48705 10.5611 9.28763C10.3616 9.08804 10.0382 9.08804 9.83875 9.28763L8.15509 10.9713L7.52644 10.3426C7.32686 10.1432 7.00341 10.1432 6.80399 10.3426C6.6044 10.5422 6.6044 10.8657 6.80399 11.0651L7.7979 12.0509Z" fill="black"/>
</svg>
