<svg width="21" height="20" viewBox="0 0 21 20" fill="none" xmlns="http://www.w3.org/2000/svg">
<path d="M18.6127 0.000203038C17.6932 0.000203038 16.8909 0.528476 16.5029 1.30412H7.13473C6.26709 1.30412 5.58008 2.08025 5.58008 2.91902V9.71934C5.58008 10.6087 6.30562 11.3308 7.19831 11.3308H17.5697C18.4591 11.3308 19.1846 10.6087 19.1846 9.71934V4.64732C20.2145 4.39659 20.9767 3.46378 20.9767 2.3603C20.9767 1.05638 19.9169 0 18.6129 0L18.6127 0.000203038ZM18.6127 4.05246C17.7272 4.05246 16.9208 3.31994 16.9208 2.36046C16.9208 1.44065 17.6667 0.668786 18.6127 0.668786C19.5455 0.668786 20.3078 1.42778 20.3078 2.36046C20.3078 3.31787 19.517 4.05246 18.6127 4.05246ZM18.5158 9.71967C18.5158 10.2413 18.0912 10.6625 17.5696 10.6625H7.1982C6.67326 10.6625 6.24871 10.2413 6.24871 9.71967V3.03587L6.67992 3.90208C6.7903 4.12601 6.95412 4.31664 7.15472 4.46048L11.5179 7.57994C12.0349 7.9512 12.7473 7.95754 13.2731 7.57994L17.5994 4.48728C17.8769 4.62446 18.1879 4.70121 18.5155 4.71454L18.5158 9.71967Z" fill="black"/>
<path d="M18.9108 1.85193L18.4159 2.34675L18.3179 2.2489C18.1872 2.11822 17.9756 2.11822 17.8451 2.2489C17.7144 2.37926 17.7144 2.59113 17.8451 2.72167L18.1794 3.05598C18.3101 3.18666 18.5216 3.18666 18.6522 3.05598L19.3836 2.32455C19.5143 2.19387 19.5143 1.98215 19.3836 1.85177C19.2531 1.72126 19.0415 1.72125 18.9108 1.85193Z" fill="black"/>
<path d="M17.1779 13.3264L13.1945 15.0239C13.2644 13.9487 12.4082 13.0431 11.3398 13.0423L9.25306 13.041C8.94175 13.041 8.80915 12.8208 8.54701 12.6346C7.47382 11.7598 6.12013 11.2777 4.73546 11.2769L3.6943 11.2766V11.1673C3.6943 10.7459 3.35 10.4052 2.92864 10.4052H0.762326C0.341112 10.4052 0 10.746 0 11.1673V18.3826C0 18.8038 0.340966 19.1482 0.762326 19.1482H2.92881C3.30625 19.1482 3.61992 18.871 3.68147 18.5105L6.70451 19.5689C7.99145 20.0193 9.3425 20.2071 10.6003 19.6833L18.4403 16.2474C19.2458 15.8943 19.6126 14.9563 19.2583 14.1506C18.9094 13.3557 17.9758 12.9864 17.1779 13.3264ZM2.0528 17.7103C1.74847 17.7103 1.49774 17.4595 1.49774 17.1552C1.49774 16.8477 1.74847 16.5968 2.0528 16.5968C2.36031 16.5968 2.6112 16.8475 2.6112 17.1552C2.6112 17.4594 2.36047 17.7103 2.0528 17.7103ZM18.1718 15.6346L10.3374 19.0681C9.40332 19.4569 8.28734 19.4143 6.92536 18.9374L3.72231 17.8159L3.72469 11.9449L4.73508 11.9452C5.96636 11.9458 7.17008 12.3745 8.12444 13.1527C8.34123 13.2962 8.64081 13.709 9.25248 13.7093L11.3393 13.7106C11.9957 13.7111 12.5297 14.2455 12.5295 14.9021C12.5295 15.5572 11.9992 16.0929 11.3385 16.0929H11.3379L8.12583 16.0913H8.12567C7.94108 16.0913 7.79152 16.2409 7.79137 16.4255C7.79121 16.6101 7.94092 16.76 8.12552 16.76L11.3376 16.7615H11.3385C12.0203 16.7615 12.6083 16.3969 12.9317 15.8624L17.4398 13.9412C17.9029 13.7444 18.4437 13.9585 18.6457 14.4191C18.8506 14.8851 18.6399 15.4295 18.1717 15.6346L18.1718 15.6346Z" fill="black"/>
</svg>
