<svg width="21" height="20" viewBox="0 0 21 20" fill="none" xmlns="http://www.w3.org/2000/svg">
<path d="M13.2537 5.86178C13.9306 5.53183 14.5803 5.21602 15.2289 4.89852C16.221 4.41349 17.2188 3.93922 18.2013 3.43552C18.6614 3.19952 18.9608 3.43382 18.9597 3.9013C18.9467 8.90494 18.9529 13.908 18.9467 18.9116C18.9467 19.121 18.9886 19.2071 19.2093 19.1771C19.3479 19.1584 19.4917 19.168 19.632 19.1799C19.855 19.1986 20.005 19.3706 20.0039 19.5897C20.0027 19.8081 19.8482 19.9756 19.627 19.9966C19.5851 20.0005 19.5426 20 19.5002 20C13.1699 20 6.84027 20 0.51003 20C0.183472 20 0.00519562 19.8574 0.000102 19.597C-0.00442566 19.3752 0.142157 19.1997 0.364579 19.1816C0.525877 19.168 0.689439 19.168 0.850737 19.1765C0.975247 19.1827 1.016 19.1335 1.00298 19.0169C0.99732 18.9682 1.00185 18.9184 1.00185 18.8686C1.00185 15.3965 1.00185 11.9243 1.00185 8.45274C1.00185 8.38199 1.00072 8.31181 1.00185 8.24107C1.00807 7.88734 1.15069 7.74416 1.50895 7.74416C3.17456 7.74302 4.83961 7.74076 6.50522 7.74755C6.69086 7.74812 6.75198 7.71246 6.75085 7.51098C6.74066 6.11363 6.75028 4.71628 6.74179 3.31893C6.74009 3.03595 6.84536 2.86673 7.10287 2.74222C8.91337 1.86555 10.7188 0.977565 12.5259 0.0941049C12.9769 -0.126619 13.2531 0.0471304 13.2531 0.550267C13.2531 2.23682 13.2531 3.92337 13.2531 5.60993C13.2531 5.68464 13.2531 5.75934 13.2531 5.86178H13.2537ZM12.4155 1.11962C12.3595 1.09302 12.3323 1.12075 12.3018 1.13547C10.7725 1.88253 9.24446 2.63129 7.71184 3.37213C7.5845 3.43382 7.5845 3.51419 7.5845 3.62229C7.58563 8.72439 7.5862 13.8259 7.58224 18.928C7.58224 19.0888 7.61563 19.1403 7.78711 19.1391C9.15617 19.1312 10.5252 19.1358 11.8937 19.1335C12.0612 19.1335 12.278 19.2059 12.3827 19.1024C12.4874 18.9988 12.3985 18.7803 12.4172 18.6139C12.4331 18.4719 12.3833 18.3859 12.2582 18.3089C11.493 17.8363 10.8484 17.229 10.3215 16.5024C9.21503 14.9765 8.83187 13.2758 9.11089 11.4195C9.14655 11.1818 9.30841 11.051 9.55177 11.0561C9.6576 11.0584 9.76287 11.0714 9.86814 11.0793C10.7437 11.1422 11.5439 10.9407 12.2565 10.4115C12.3776 10.3215 12.4189 10.2287 12.4183 10.0799C12.4138 7.15839 12.415 4.23692 12.415 1.31544V1.11962H12.4155ZM18.1238 11.793C18.1238 9.41486 18.1238 7.03671 18.1238 4.65855C18.1238 4.49669 18.0479 4.45255 17.8963 4.52612C16.4174 5.24772 14.9397 5.97101 13.458 6.68808C13.3324 6.74864 13.2848 6.81372 13.2865 6.95634C13.2939 7.83811 13.2905 8.72043 13.2905 9.60276C13.2905 10.3012 13.2882 10.3057 13.9249 10.6113C14.5673 10.9197 15.2368 11.1303 15.9601 11.0799C16.4593 11.0448 16.611 11.1456 16.6444 11.6351C16.8317 14.341 15.8763 16.5363 13.6719 18.1431C13.3697 18.3632 13.2435 18.5709 13.2826 18.9286C13.3001 19.0871 13.3244 19.1403 13.4948 19.1397C14.9623 19.1324 16.4304 19.1318 17.8979 19.1403C18.0881 19.1414 18.1289 19.0916 18.1283 18.9071C18.1215 16.5363 18.1238 14.1649 18.1238 11.7942V11.793ZM6.74575 13.8678C6.74575 12.1739 6.74292 10.48 6.74971 8.78665C6.75028 8.61517 6.71349 8.5631 6.53295 8.56423C5.04392 8.57328 3.55488 8.57555 2.06585 8.56706C1.86154 8.56593 1.82928 8.63158 1.82984 8.81495C1.83494 12.1745 1.83381 15.534 1.83381 18.893C1.83381 18.9071 1.83607 18.9213 1.83381 18.9354C1.80834 19.0871 1.85644 19.1533 2.02453 19.1386C2.20677 19.1227 2.39241 19.1233 2.57464 19.1386C2.74387 19.1522 2.78631 19.0944 2.78518 18.928C2.77839 17.6931 2.78065 16.4576 2.78178 15.2227C2.78178 14.8079 2.92441 14.6681 3.34321 14.6675C3.97143 14.6664 4.59964 14.667 5.22785 14.6675C5.6727 14.6675 5.80683 14.8033 5.80739 15.2499C5.80739 16.478 5.81136 17.7061 5.80287 18.9337C5.80174 19.1063 5.8538 19.1505 6.0151 19.138C6.19055 19.1244 6.36882 19.1227 6.54371 19.138C6.71519 19.1539 6.75085 19.091 6.75028 18.928C6.74405 17.2415 6.74688 15.5544 6.74688 13.8678H6.74575ZM9.88455 12.5876C9.93492 14.7739 10.9055 16.4469 12.737 17.6326C12.8355 17.6965 12.8949 17.6744 12.9769 17.6201C13.6793 17.1566 14.2849 16.5923 14.7631 15.8979C15.5543 14.7484 15.8854 13.4683 15.8418 12.0822C15.839 11.9945 15.8447 11.917 15.7139 11.9164C14.7178 11.9096 13.8298 11.5536 12.99 11.0539C12.8904 10.9945 12.8315 11.016 12.7483 11.0759C12.0641 11.5689 11.3011 11.8474 10.4596 11.9226C10.2683 11.9396 9.99831 11.8383 9.90493 11.9883C9.81324 12.1354 9.88512 12.3844 9.88512 12.5888L9.88455 12.5876ZM4.96695 17.2664C4.96695 16.731 4.96412 16.195 4.96921 15.6596C4.97034 15.5481 4.95336 15.4978 4.82376 15.5012C4.47173 15.5102 4.11914 15.5119 3.76712 15.5012C3.62563 15.4966 3.60921 15.5521 3.60978 15.6721C3.61374 16.7293 3.61601 17.7859 3.60808 18.8432C3.60695 19.0011 3.66128 19.0254 3.79994 19.0214C4.12367 19.0118 4.44853 19.0101 4.77226 19.0214C4.92337 19.0271 4.976 18.9965 4.97148 18.8307C4.95846 18.3095 4.96695 17.7882 4.96695 17.2664Z" fill="#030303"/>
<path d="M9.88422 12.5882C9.88422 12.3838 9.81234 12.1348 9.90403 11.9877C9.99741 11.8377 10.2674 11.939 10.4587 11.922C11.3002 11.8467 12.0632 11.5683 12.7474 11.0753C12.8306 11.0154 12.8895 10.9944 12.9891 11.0533C13.8289 11.553 14.7169 11.909 15.713 11.9158C15.8438 11.9169 15.8381 11.9939 15.8409 12.0816C15.8845 13.4676 15.5534 14.7484 14.7622 15.8973C14.284 16.5917 13.679 17.156 12.976 17.6195C12.894 17.6733 12.8346 17.6959 12.7361 17.632C10.9046 16.4463 9.93402 14.7739 9.88365 12.587L9.88422 12.5882ZM14.8335 13.3448C14.8392 13.2481 14.8052 13.1649 14.7458 13.0907C14.5754 12.8774 14.3072 12.8779 14.0836 13.0998C13.5878 13.5916 13.0921 14.0845 12.6036 14.5837C12.5057 14.6833 12.4491 14.7122 12.3461 14.5911C12.2137 14.436 12.062 14.2968 11.9137 14.1559C11.7106 13.9617 11.4649 13.9498 11.2929 14.1208C11.122 14.2906 11.1305 14.5441 11.324 14.7411C11.5951 15.0184 11.8696 15.2929 12.1475 15.564C12.3625 15.7739 12.5833 15.7773 12.7972 15.5651C13.4288 14.9391 14.0553 14.3087 14.6841 13.6804C14.7769 13.5876 14.8431 13.4829 14.8335 13.3448Z" fill="#FDFDFD"/>
<path d="M9.99135 6.27159C9.61782 6.27159 9.24486 6.27329 8.87132 6.27159C8.59514 6.26989 8.40611 6.10576 8.39818 5.86693C8.39026 5.623 8.58438 5.43793 8.87019 5.43623C9.6099 5.43227 10.3496 5.43284 11.0893 5.43623C11.3842 5.43737 11.5687 5.60489 11.5692 5.85561C11.5692 6.10972 11.3864 6.27046 11.0904 6.27215C10.7243 6.27385 10.3575 6.27215 9.99135 6.27215V6.27159Z" fill="#050505"/>
<path d="M9.97972 3.77112C10.3533 3.77112 10.7262 3.76886 11.0998 3.77169C11.3844 3.77395 11.5633 3.93016 11.5695 4.17578C11.5757 4.41914 11.3991 4.60364 11.1224 4.60647C10.3617 4.61383 9.60053 4.61383 8.83988 4.60591C8.57671 4.60308 8.39844 4.41801 8.39844 4.18823C8.39844 3.9494 8.58747 3.77452 8.85969 3.77225C9.23322 3.76886 9.60619 3.77169 9.97972 3.77112Z" fill="#050505"/>
<path d="M9.99288 8.77135C10.3591 8.77135 10.7258 8.76908 11.092 8.77191C11.3863 8.77418 11.5702 8.94 11.5691 9.19242C11.5685 9.44427 11.384 9.60953 11.0886 9.61066C10.3557 9.61349 9.62274 9.61293 8.8904 9.61066C8.59893 9.60953 8.40424 9.44314 8.39858 9.19921C8.39235 8.94962 8.59383 8.77305 8.89379 8.77078C9.25997 8.76852 9.62671 8.77078 9.99288 8.77078V8.77135Z" fill="#050505"/>
<path d="M9.9798 7.93711C9.61363 7.93711 9.24745 7.93938 8.88128 7.93655C8.58528 7.93372 8.39795 7.77016 8.39795 7.52283C8.39795 7.27607 8.58755 7.11195 8.88184 7.11138C9.62098 7.10968 10.3607 7.10968 11.0998 7.11138C11.3862 7.11195 11.5634 7.26759 11.569 7.51265C11.5747 7.76619 11.3947 7.93315 11.0993 7.93598C10.7263 7.93994 10.3528 7.93711 9.9798 7.93711Z" fill="#030303"/>
<path d="M15.6903 9.61184C15.331 9.61184 14.9716 9.61411 14.6122 9.61128C14.3105 9.60901 14.1102 9.433 14.1158 9.18285C14.1215 8.94062 14.3179 8.77253 14.6071 8.77196C15.34 8.7697 16.0724 8.7697 16.8053 8.77196C17.1007 8.77309 17.2846 8.93666 17.2863 9.18851C17.2875 9.44206 17.1052 9.60788 16.8104 9.61071C16.4368 9.61467 16.0633 9.61184 15.6903 9.61184Z" fill="#050505"/>
<path d="M15.7191 7.93716C15.3461 7.93716 14.9726 7.93942 14.5996 7.93659C14.3036 7.93376 14.1157 7.7702 14.1157 7.52344C14.1157 7.27668 14.3053 7.11256 14.5996 7.11199C15.3388 7.11029 16.0785 7.11029 16.8176 7.11199C17.104 7.11256 17.2811 7.26763 17.2868 7.51326C17.2924 7.76737 17.113 7.93376 16.8176 7.93716C16.4514 7.94112 16.0853 7.93829 15.7191 7.93829V7.93716Z" fill="#030303"/>
<path d="M4.31085 9.44718C4.68438 9.44718 5.05734 9.44548 5.43088 9.44718C5.71385 9.44888 5.89213 9.60791 5.89609 9.85467C5.90005 10.1003 5.72404 10.2786 5.44616 10.2808C4.6923 10.2871 3.93845 10.2871 3.18516 10.2808C2.9101 10.2786 2.7239 10.0963 2.7256 9.85863C2.7273 9.62036 2.91859 9.44831 3.19081 9.44661C3.56435 9.44435 3.93731 9.44605 4.31085 9.44605V9.44718Z" fill="#050505"/>
<path d="M4.31265 12.0342C3.93912 12.0342 3.56616 12.0364 3.19262 12.0336C2.917 12.0313 2.72854 11.8632 2.72514 11.6244C2.72175 11.3856 2.90738 11.2056 3.183 11.2039C3.93686 11.1988 4.69015 11.1988 5.444 11.2039C5.72302 11.2056 5.8996 11.3805 5.8962 11.6255C5.89281 11.8734 5.71623 12.0313 5.43212 12.0336C5.05859 12.0364 4.68562 12.0342 4.31209 12.0342H4.31265Z" fill="#050505"/>
<path d="M4.31092 12.9605C4.68445 12.9605 5.05742 12.9588 5.43095 12.9605C5.7145 12.9622 5.89221 13.1196 5.89617 13.3669C5.90013 13.6119 5.72355 13.7902 5.44567 13.7925C4.69181 13.7987 3.93852 13.7987 3.18467 13.7925C2.90848 13.7902 2.72341 13.6097 2.72511 13.3714C2.72737 13.1326 2.91697 12.9622 3.19089 12.9605C3.56442 12.9583 3.93739 12.96 4.31092 12.96V12.9605Z" fill="#050505"/>
<path d="M14.8338 13.3443C14.8429 13.4824 14.7772 13.5871 14.6844 13.6804C14.0556 14.3092 13.4291 14.9397 12.7975 15.5651C12.5836 15.7767 12.3629 15.7739 12.1478 15.5639C11.8705 15.2928 11.596 15.0184 11.3243 14.741C11.1313 14.5435 11.1223 14.29 11.2932 14.1208C11.4658 13.9498 11.7109 13.9612 11.914 14.1558C12.0618 14.2973 12.214 14.436 12.3464 14.5911C12.4494 14.7122 12.5066 14.6839 12.604 14.5837C13.0924 14.0845 13.5882 13.5921 14.0839 13.0998C14.3075 12.8779 14.5757 12.8773 14.7461 13.0907C14.805 13.1648 14.8395 13.248 14.8338 13.3443Z" fill="#030303"/>
</svg>
