<svg width="20" height="20" viewBox="0 0 20 20" fill="none" xmlns="http://www.w3.org/2000/svg">
<path fill-rule="evenodd" clip-rule="evenodd" d="M0.88513 6.92308C0.605286 6.65977 0.382369 6.3419 0.230135 5.9891C0.0779007 5.6363 -0.000421493 5.25604 1.70588e-06 4.8718V2.82051C1.70588e-06 2.07247 0.297162 1.35506 0.826111 0.826109C1.35506 0.29716 2.07247 0 2.82051 0H17.1795C17.9275 0 18.6449 0.29716 19.1739 0.826109C19.7028 1.35506 20 2.07247 20 2.82051V4.8718C20 5.68 19.6595 6.40923 19.1149 6.92308C19.6595 7.43692 20 8.16615 20 8.97436V11.0256C20 11.8338 19.6595 12.5631 19.1149 13.0769C19.6595 13.5908 20 14.32 20 15.1282V17.1795C20 17.9275 19.7028 18.6449 19.1739 19.1739C18.6449 19.7028 17.9275 20 17.1795 20H2.82051C2.07247 20 1.35506 19.7028 0.826111 19.1739C0.297162 18.6449 1.70588e-06 17.9275 1.70588e-06 17.1795V15.1282C1.70588e-06 14.32 0.340514 13.5908 0.88513 13.0769C0.605286 12.8136 0.382369 12.4957 0.230135 12.1429C0.0779007 11.7901 -0.000421493 11.4099 1.70588e-06 11.0256V8.97436C1.70588e-06 8.16615 0.340514 7.43692 0.88513 6.92308ZM18.4615 15.1282C18.4615 14.4205 17.8872 13.8462 17.1795 13.8462H2.82051C2.11282 13.8462 1.53846 14.4205 1.53846 15.1282V17.1795C1.53846 17.8872 2.11282 18.4615 2.82051 18.4615H17.1795C17.8872 18.4615 18.4615 17.8872 18.4615 17.1795V15.1282ZM18.4615 8.97436C18.4615 8.26667 17.8872 7.69231 17.1795 7.69231H2.82051C2.11282 7.69231 1.53846 8.26667 1.53846 8.97436V11.0256C1.53846 11.7333 2.11282 12.3077 2.82051 12.3077H17.1795C17.8872 12.3077 18.4615 11.7333 18.4615 11.0256V8.97436ZM18.4615 2.82051C18.4615 2.11282 17.8872 1.53846 17.1795 1.53846H2.82051C2.11282 1.53846 1.53846 2.11282 1.53846 2.82051V4.8718C1.53846 5.57949 2.11282 6.15385 2.82051 6.15385H17.1795C17.8872 6.15385 18.4615 5.57949 18.4615 4.8718V2.82051Z" fill="#14171A"/>
<path d="M3.58954 4.61537C3.79356 4.61537 3.98921 4.53432 4.13347 4.39006C4.27773 4.2458 4.35877 4.05015 4.35877 3.84614C4.35877 3.64212 4.27773 3.44647 4.13347 3.30221C3.98921 3.15795 3.79356 3.0769 3.58954 3.0769C3.38553 3.0769 3.18987 3.15795 3.04561 3.30221C2.90136 3.44647 2.82031 3.64212 2.82031 3.84614C2.82031 4.05015 2.90136 4.2458 3.04561 4.39006C3.18987 4.53432 3.38553 4.61537 3.58954 4.61537ZM3.58954 10.7692C3.79356 10.7692 3.98921 10.6882 4.13347 10.5439C4.27773 10.3997 4.35877 10.204 4.35877 9.99998C4.35877 9.79597 4.27773 9.60031 4.13347 9.45605C3.98921 9.31179 3.79356 9.23075 3.58954 9.23075C3.38553 9.23075 3.18987 9.31179 3.04561 9.45605C2.90136 9.60031 2.82031 9.79597 2.82031 9.99998C2.82031 10.204 2.90136 10.3997 3.04561 10.5439C3.18987 10.6882 3.38553 10.7692 3.58954 10.7692ZM3.58954 16.9231C3.79356 16.9231 3.98921 16.842 4.13347 16.6978C4.27773 16.5535 4.35877 16.3578 4.35877 16.1538C4.35877 15.9498 4.27773 15.7542 4.13347 15.6099C3.98921 15.4656 3.79356 15.3846 3.58954 15.3846C3.38553 15.3846 3.18987 15.4656 3.04561 15.6099C2.90136 15.7542 2.82031 15.9498 2.82031 16.1538C2.82031 16.3578 2.90136 16.5535 3.04561 16.6978C3.18987 16.842 3.38553 16.9231 3.58954 16.9231Z" fill="#14171A"/>
<path fill-rule="evenodd" clip-rule="evenodd" d="M13.5895 10.7692H16.6665C16.8705 10.7692 17.0661 10.6882 17.2104 10.5439C17.3547 10.3997 17.4357 10.204 17.4357 9.99998C17.4357 9.79597 17.3547 9.60031 17.2104 9.45605C17.0661 9.31179 16.8705 9.23075 16.6665 9.23075H13.5895C13.3855 9.23075 13.1899 9.31179 13.0456 9.45605C12.9014 9.60031 12.8203 9.79597 12.8203 9.99998C12.8203 10.204 12.9014 10.3997 13.0456 10.5439C13.1899 10.6882 13.3855 10.7692 13.5895 10.7692ZM13.5895 16.9231H16.6665C16.8705 16.9231 17.0661 16.842 17.2104 16.6978C17.3547 16.5535 17.4357 16.3578 17.4357 16.1538C17.4357 15.9498 17.3547 15.7542 17.2104 15.6099C17.0661 15.4656 16.8705 15.3846 16.6665 15.3846H13.5895C13.3855 15.3846 13.1899 15.4656 13.0456 15.6099C12.9014 15.7542 12.8203 15.9498 12.8203 16.1538C12.8203 16.3578 12.9014 16.5535 13.0456 16.6978C13.1899 16.842 13.3855 16.9231 13.5895 16.9231ZM13.5895 4.61537H16.6665C16.8705 4.61537 17.0661 4.53432 17.2104 4.39006C17.3547 4.2458 17.4357 4.05015 17.4357 3.84614C17.4357 3.64212 17.3547 3.44647 17.2104 3.30221C17.0661 3.15795 16.8705 3.0769 16.6665 3.0769H13.5895C13.3855 3.0769 13.1899 3.15795 13.0456 3.30221C12.9014 3.44647 12.8203 3.64212 12.8203 3.84614C12.8203 4.05015 12.9014 4.2458 13.0456 4.39006C13.1899 4.53432 13.3855 4.61537 13.5895 4.61537Z" fill="#14171A"/>
</svg>
