<svg width="25" height="20" viewBox="0 0 25 20" fill="none" xmlns="http://www.w3.org/2000/svg">
<path d="M6.99506 4.7418H11.551V4.25549C11.551 1.91367 13.4644 0 15.8062 0H21.2771C21.6129 0 21.885 0.272379 21.885 0.608177V18.7839H23.718C24.5179 18.7839 24.5179 20 23.718 20C16.0119 20 8.30581 20 0.599702 20C-0.199901 20 -0.199901 18.7839 0.599702 18.7839H2.43271V9.30386C2.43271 6.79341 4.48461 4.7418 6.99506 4.7418ZM17.0523 18.7839V16.3261H16.3834V18.7839H17.0523ZM15.1673 18.7839V15.7179C15.1673 15.3821 15.4397 15.11 15.7755 15.11H17.6605C17.9963 15.11 18.2684 15.3821 18.2684 15.7179V18.7839H20.669V1.21606H15.8062C14.136 1.21606 12.7668 2.58526 12.7668 4.25549V18.7839H15.1673ZM5.06123 11.7658H6.76389C7.09939 11.7658 7.37177 12.0379 7.37177 12.3737V14.1979C7.37177 14.5337 7.09939 14.8058 6.76389 14.8058H5.06123C4.72543 14.8058 4.45334 14.5337 4.45334 14.1979V12.3737C4.45334 12.0379 4.72543 11.7658 5.06123 11.7658ZM6.15571 12.9819H5.6694V13.5897H6.15571V12.9819ZM8.43587 11.7658H10.1385C10.474 11.7658 10.7464 12.0379 10.7464 12.3737V14.1979C10.7464 14.5337 10.474 14.8058 10.1385 14.8058H8.43587C8.10007 14.8058 7.82798 14.5337 7.82798 14.1979V12.3737C7.82798 12.0379 8.10007 11.7658 8.43587 11.7658ZM9.53035 12.9819H9.04404V13.5897H9.53035V12.9819ZM5.06123 8.02613H6.76389C7.09939 8.02613 7.37177 8.29851 7.37177 8.63431V10.4585C7.37177 10.794 7.09939 11.0664 6.76389 11.0664H5.06123C4.72543 11.0664 4.45334 10.794 4.45334 10.4585V8.63431C4.45334 8.29851 4.72543 8.02613 5.06123 8.02613ZM6.15571 9.24219H5.6694V9.85037H6.15571V9.24219ZM8.43587 8.02613H10.1385C10.474 8.02613 10.7464 8.29851 10.7464 8.63431V10.4585C10.7464 10.794 10.474 11.0664 10.1385 11.0664H8.43587C8.10007 11.0664 7.82798 10.794 7.82798 10.4585V8.63431C7.82798 8.29851 8.10007 8.02613 8.43587 8.02613ZM9.53035 9.24219H9.04404V9.85037H9.53035V9.24219ZM14.1336 5.594C13.334 5.594 13.334 4.37794 14.1336 4.37794H19.3021C20.102 4.37794 20.102 5.594 19.3021 5.594H14.1336ZM14.1336 12.2825C13.334 12.2825 13.334 11.0664 14.1336 11.0664H19.3021C20.102 11.0664 20.102 12.2825 19.3021 12.2825H14.1336ZM14.1336 8.93825C13.334 8.93825 13.334 7.72219 14.1336 7.72219H19.3021C20.102 7.72219 20.102 8.93825 19.3021 8.93825H14.1336ZM11.551 5.95786H6.99506C5.15592 5.95786 3.64877 7.465 3.64877 9.30386V18.7839H11.551V5.95786Z" fill="black"/>
</svg>
