<svg width="22" height="22" viewBox="0 0 22 22" fill="none" xmlns="http://www.w3.org/2000/svg">
<path fill-rule="evenodd" clip-rule="evenodd" d="M0.88513 6.92308C0.605286 6.65977 0.382369 6.3419 0.230135 5.9891C0.0779007 5.6363 -0.000421493 5.25604 1.70588e-06 4.8718V2.82051C1.70588e-06 2.07247 0.297162 1.35506 0.826111 0.826109C1.35506 0.29716 2.07247 0 2.82051 0H17.1795C17.9275 0 18.6449 0.29716 19.1739 0.826109C19.7028 1.35506 20 2.07247 20 2.82051V4.8718C20 5.68 19.6595 6.40923 19.1149 6.92308C19.6595 7.43692 20 8.16615 20 8.97436V11.0256C20 11.8338 19.6595 12.5631 19.1149 13.0769C19.6595 13.5908 20 14.32 20 15.1282V17.1795C20 17.9275 19.7028 18.6449 19.1739 19.1739C18.6449 19.7028 17.9275 20 17.1795 20H2.82051C2.07247 20 1.35506 19.7028 0.826111 19.1739C0.297162 18.6449 1.70588e-06 17.9275 1.70588e-06 17.1795V15.1282C1.70588e-06 14.32 0.340514 13.5908 0.88513 13.0769C0.605286 12.8136 0.382369 12.4957 0.230135 12.1429C0.0779007 11.7901 -0.000421493 11.4099 1.70588e-06 11.0256V8.97436C1.70588e-06 8.16615 0.340514 7.43692 0.88513 6.92308ZM18.4615 15.1282C18.4615 14.4205 17.8872 13.8462 17.1795 13.8462H2.82051C2.11282 13.8462 1.53846 14.4205 1.53846 15.1282V17.1795C1.53846 17.8872 2.11282 18.4615 2.82051 18.4615H17.1795C17.8872 18.4615 18.4615 17.8872 18.4615 17.1795V15.1282ZM18.4615 8.97436C18.4615 8.26667 17.8872 7.69231 17.1795 7.69231H2.82051C2.11282 7.69231 1.53846 8.26667 1.53846 8.97436V11.0256C1.53846 11.7333 2.11282 12.3077 2.82051 12.3077H17.1795C17.8872 12.3077 18.4615 11.7333 18.4615 11.0256V8.97436ZM18.4615 2.82051C18.4615 2.11282 17.8872 1.53846 17.1795 1.53846H2.82051C2.11282 1.53846 1.53846 2.11282 1.53846 2.82051V4.8718C1.53846 5.57949 2.11282 6.15385 2.82051 6.15385H17.1795C17.8872 6.15385 18.4615 5.57949 18.4615 4.8718V2.82051Z" fill="#14171A"/>
<path d="M3.58954 4.61537C3.79356 4.61537 3.98921 4.53432 4.13347 4.39006C4.27773 4.2458 4.35877 4.05015 4.35877 3.84614C4.35877 3.64212 4.27773 3.44647 4.13347 3.30221C3.98921 3.15795 3.79356 3.0769 3.58954 3.0769C3.38553 3.0769 3.18987 3.15795 3.04561 3.30221C2.90136 3.44647 2.82031 3.64212 2.82031 3.84614C2.82031 4.05015 2.90136 4.2458 3.04561 4.39006C3.18987 4.53432 3.38553 4.61537 3.58954 4.61537ZM3.58954 10.7692C3.79356 10.7692 3.98921 10.6882 4.13347 10.5439C4.27773 10.3997 4.35877 10.204 4.35877 9.99998C4.35877 9.79597 4.27773 9.60031 4.13347 9.45605C3.98921 9.31179 3.79356 9.23075 3.58954 9.23075C3.38553 9.23075 3.18987 9.31179 3.04561 9.45605C2.90136 9.60031 2.82031 9.79597 2.82031 9.99998C2.82031 10.204 2.90136 10.3997 3.04561 10.5439C3.18987 10.6882 3.38553 10.7692 3.58954 10.7692ZM3.58954 16.9231C3.79356 16.9231 3.98921 16.842 4.13347 16.6978C4.27773 16.5535 4.35877 16.3578 4.35877 16.1538C4.35877 15.9498 4.27773 15.7542 4.13347 15.6099C3.98921 15.4656 3.79356 15.3846 3.58954 15.3846C3.38553 15.3846 3.18987 15.4656 3.04561 15.6099C2.90136 15.7542 2.82031 15.9498 2.82031 16.1538C2.82031 16.3578 2.90136 16.5535 3.04561 16.6978C3.18987 16.842 3.38553 16.9231 3.58954 16.9231Z" fill="#14171A"/>
<path fill-rule="evenodd" clip-rule="evenodd" d="M12.5895 4.61537H15.6665C15.8705 4.61537 16.0661 4.53432 16.2104 4.39006C16.3547 4.2458 16.4357 4.05015 16.4357 3.84614C16.4357 3.64212 16.3547 3.44647 16.2104 3.30221C16.0661 3.15795 15.8705 3.0769 15.6665 3.0769H12.5895C12.3855 3.0769 12.1899 3.15795 12.0456 3.30221C11.9014 3.44647 11.8203 3.64212 11.8203 3.84614C11.8203 4.05015 11.9014 4.2458 12.0456 4.39006C12.1899 4.53432 12.3855 4.61537 12.5895 4.61537Z" fill="#14171A"/>
<circle cx="15.5" cy="15.5" r="6.5" fill="white"/>
<path d="M14.0769 11C13.4354 11 12.9231 11.4995 12.9231 12.125C12.9231 12.6846 13.3392 13.1357 13.8846 13.2266C14.1686 13.3042 14.6764 13.4697 14.7861 13.6836C14.9648 13.9971 14.8657 14.3589 14.726 14.6797C14.5637 14.917 14.4615 15.1938 14.4615 15.5C14.4615 16.3247 15.1541 17 16 17C16.8459 17 17.5385 16.3247 17.5385 15.5C17.5385 14.731 16.936 14.0688 16.1683 14.0117C16.1608 14.0088 16.1547 14.0015 16.1442 14C15.4141 13.9253 15.2788 13.8315 15.0865 13.5312C14.9588 13.3335 15.064 12.8706 15.1466 12.5703C15.1632 12.5308 15.1707 12.4824 15.1827 12.4414C15.2112 12.3491 15.2308 12.3008 15.2308 12.3008L15.2067 12.3125C15.2172 12.2495 15.2308 12.1909 15.2308 12.125C15.2308 11.542 14.7184 11.041 14.0769 11ZM17.9231 11C17.2816 11 16.7692 11.4995 16.7692 12.125C16.7692 12.7505 17.2816 13.25 17.9231 13.25C18.5646 13.25 19.0769 12.7505 19.0769 12.125C19.0769 11.542 18.5646 11.041 17.9231 11ZM12.1538 14.375C11.5123 14.375 11 14.8745 11 15.5C11 16.1255 11.5123 16.625 12.1538 16.625C12.7954 16.625 13.3077 16.1255 13.3077 15.5C13.3077 14.917 12.7954 14.416 12.1538 14.375ZM19.8462 14.375C19.2046 14.375 18.6923 14.8745 18.6923 15.5C18.6923 16.1255 19.2046 16.625 19.8462 16.625C20.4877 16.625 21 16.1255 21 15.5C21 14.917 20.4877 14.416 19.8462 14.375ZM14.0769 17.75C13.4354 17.75 12.9231 18.2495 12.9231 18.875C12.9231 19.5005 13.4354 20 14.0769 20C14.7184 20 15.2308 19.5005 15.2308 18.875C15.2308 18.292 14.7184 17.791 14.0769 17.75ZM17.9231 17.75C17.2816 17.75 16.7692 18.2495 16.7692 18.875C16.7692 19.5005 17.2816 20 17.9231 20C18.5646 20 19.0769 19.5005 19.0769 18.875C19.0769 18.292 18.5646 17.791 17.9231 17.75Z" fill="black"/>
</svg>
