<svg width="20" height="20" viewBox="0 0 20 20" fill="none" xmlns="http://www.w3.org/2000/svg">
<path d="M5.33317 16H3.99984V15.3333H7.33317C7.70184 15.3333 7.99984 15.0353 7.99984 14.6666V9.33329C7.99984 8.96463 7.70184 8.66663 7.33317 8.66663C6.9645 8.66663 6.6665 8.96463 6.6665 9.33329V14H3.33317C2.9645 14 2.6665 14.298 2.6665 14.6666V16H1.33317C0.964504 16 0.666504 16.298 0.666504 16.6666V19.3333C0.666504 19.702 0.964504 20 1.33317 20H5.33317C5.70184 20 5.99984 19.702 5.99984 19.3333V16.6666C5.99984 16.298 5.70184 16 5.33317 16ZM4.6665 18.6666H1.99984V17.3333H4.6665V18.6666Z" fill="black"/>
<path d="M12.0002 16H10.6668V9.33329C10.6668 8.96463 10.3688 8.66663 10.0002 8.66663C9.6315 8.66663 9.3335 8.96463 9.3335 9.33329V16H8.00016C7.6315 16 7.3335 16.298 7.3335 16.6666V19.3333C7.3335 19.702 7.6315 20 8.00016 20H12.0002C12.3688 20 12.6668 19.702 12.6668 19.3333V16.6666C12.6668 16.298 12.3688 16 12.0002 16ZM11.3335 18.6666H8.66683V17.3333H11.3335V18.6666Z" fill="black"/>
<path d="M18.6667 16H17.3333V14.6666C17.3333 14.298 17.0353 14 16.6667 14H13.3333V9.33329C13.3333 8.96463 13.0353 8.66663 12.6667 8.66663C12.298 8.66663 12 8.96463 12 9.33329V14.6666C12 15.0353 12.298 15.3333 12.6667 15.3333H16V16H14.6667C14.298 16 14 16.298 14 16.6666V19.3333C14 19.702 14.298 20 14.6667 20H18.6667C19.0353 20 19.3333 19.702 19.3333 19.3333V16.6666C19.3333 16.298 19.0353 16 18.6667 16ZM18 18.6666H15.3333V17.3333H18V18.6666Z" fill="black"/>
<path d="M3.33333 12.6667H5.33333C5.702 12.6667 6 12.3687 6 12C6 11.6313 5.702 11.3333 5.33333 11.3333H3.33333C2.23067 11.3333 1.33333 10.436 1.33333 9.33333C1.33333 8.23067 2.23067 7.33333 3.33333 7.33333C3.378 7.33333 3.418 7.33267 3.46133 7.33667C3.68867 7.358 3.89933 7.26867 4.04067 7.09733C4.182 6.926 4.22867 6.696 4.16533 6.48333C4.056 6.114 4 5.72733 4 5.33333C4 3.12733 5.794 1.33333 8 1.33333C10.206 1.33333 12 3.12733 12 5.33333C12 5.702 12.298 6 12.6667 6C13.0353 6 13.3333 5.702 13.3333 5.33333C13.3333 4.87667 13.2693 4.43667 13.1613 4.014C13.2187 4.01 13.276 4 13.3333 4C14.804 4 16 5.196 16 6.66667C16 7.03533 16.298 7.33333 16.6667 7.33333C17.7693 7.33333 18.6667 8.23067 18.6667 9.33333C18.6667 10.436 17.7693 11.3333 16.6667 11.3333H14.6667C14.298 11.3333 14 11.6313 14 12C14 12.3687 14.298 12.6667 14.6667 12.6667H16.6667C18.5047 12.6667 20 11.1713 20 9.33333C20 7.70733 18.8293 6.34933 17.2873 6.058C16.9927 4.14 15.332 2.66667 13.3333 2.66667C13.104 2.66667 12.8753 2.69 12.65 2.73C11.736 1.10267 9.99533 0 8 0C5.05933 0 2.66667 2.39267 2.66667 5.33333C2.66667 5.57667 2.68267 5.81933 2.71467 6.05733C1.17133 6.348 0 7.70667 0 9.33333C0 11.1713 1.49533 12.6667 3.33333 12.6667Z" fill="black"/>
</svg>
