<svg width="15" height="20" viewBox="0 0 15 20" fill="none" xmlns="http://www.w3.org/2000/svg">
<path d="M12.6208 19.9999H1.54575C1.13575 19.9999 0.742608 19.8371 0.452715 19.5472C0.162814 19.2573 0 18.864 0 18.454V9.87902C0 9.46902 0.162807 9.07588 0.452715 8.78599C0.742615 8.49609 1.13575 8.33313 1.54575 8.33313H12.6208C13.0308 8.33313 13.4239 8.49608 13.7138 8.78599C14.0037 9.07589 14.1665 9.46902 14.1665 9.87902V18.454C14.1665 18.864 14.0037 19.2573 13.7138 19.5472C13.4239 19.8371 13.0308 19.9999 12.6208 19.9999ZM1.54575 9.1667C1.35714 9.16782 1.17661 9.24315 1.04325 9.37652C0.909741 9.5099 0.834405 9.69056 0.833291 9.87917V18.4542C0.834407 18.6429 0.909741 18.8235 1.04325 18.9568C1.17662 19.0902 1.35715 19.1657 1.54575 19.1668H12.6208C12.8094 19.1657 12.9899 19.0902 13.1233 18.9568C13.2568 18.8235 13.3321 18.6429 13.3332 18.4542V9.87917C13.3321 9.69055 13.2568 9.50988 13.1233 9.37652C12.9899 9.24315 12.8094 9.16782 12.6208 9.1667H1.54575Z" fill="black"/>
<path d="M0.416504 17.5H13.7497V18.3333H0.416504V17.5Z" fill="black"/>
<path d="M12.083 9.16677H9.58302V4.99997C9.58302 4.10683 9.10645 3.28151 8.33302 2.83493C7.55959 2.38836 6.60644 2.38836 5.83301 2.83493C5.05958 3.28151 4.58301 4.10683 4.58301 4.99997V9.16677H2.08301V4.99997C2.08301 3.21368 3.03601 1.56304 4.58301 0.669965C6.13001 -0.223322 8.03602 -0.223322 9.58302 0.669965C11.13 1.56311 12.083 3.21379 12.083 4.99997V9.16677ZM10.4163 8.33348H11.2496L11.2497 5.00004C11.2497 3.51147 10.4555 2.13593 9.1663 1.39147C7.87723 0.64718 6.2888 0.64718 4.99987 1.39147C3.71065 2.13575 2.91643 3.51129 2.91643 5.00004V8.33334H3.74972L3.74986 5.00004C3.74986 3.80918 4.38518 2.70875 5.41644 2.11333C6.44783 1.5179 7.71848 1.5179 8.74987 2.11333C9.78112 2.70875 10.4164 3.80918 10.4164 5.00004L10.4163 8.33348Z" fill="black"/>
<path d="M4.27079 15.3126C3.84208 15.296 3.42829 15.1509 3.08329 14.8958C2.89802 14.759 2.85882 14.4978 2.99582 14.3126C3.13267 14.1273 3.39385 14.0881 3.5791 14.2251C3.78335 14.3661 4.02289 14.4469 4.27078 14.4583C4.58747 14.4583 4.79157 14.2874 4.79157 14.1708C4.79157 14.0542 4.58747 13.8875 4.27078 13.8875V13.8876C3.94615 13.9169 3.62303 13.8184 3.3701 13.6129C3.11704 13.4074 2.95435 13.1112 2.91657 12.7876C2.91657 12.1584 3.51242 11.6668 4.27078 11.6668C4.49526 11.6656 4.71582 11.7251 4.90932 11.8388C5.10296 11.9523 5.26228 12.1161 5.37082 12.3126C5.43053 12.4118 5.44616 12.5315 5.41421 12.6428C5.38212 12.754 5.30511 12.847 5.20174 12.8992C5.09836 12.9515 4.97796 12.9584 4.86929 12.9182C4.76061 12.878 4.67369 12.7944 4.62919 12.6876C4.55009 12.5674 4.41462 12.4966 4.27079 12.5001C3.95411 12.5001 3.75001 12.671 3.75001 12.7876C3.75001 12.9042 3.95411 13.0751 4.27079 13.0751C5.02915 13.0751 5.62501 13.5668 5.62501 14.1918C5.62501 14.8168 5.02915 15.3126 4.27079 15.3126L4.27079 15.3126Z" fill="black"/>
<path d="M7.18733 15.3126C6.75861 15.296 6.34482 15.1509 5.99982 14.8958C5.81455 14.759 5.77535 14.4978 5.91221 14.3126C6.04921 14.1273 6.31035 14.0881 6.49564 14.2251C6.69974 14.3661 6.93943 14.4469 7.18732 14.4583C7.50401 14.4583 7.70811 14.2874 7.70811 14.1708C7.70811 14.0542 7.50401 13.8875 7.18732 13.8875V13.8876C6.86268 13.9169 6.53943 13.8184 6.2865 13.6129C6.03357 13.4074 5.87089 13.1112 5.8331 12.7876C5.8331 12.1584 6.42896 11.6668 7.18732 11.6668C7.41165 11.6656 7.63236 11.7251 7.82586 11.8388C8.01936 11.9523 8.17882 12.1161 8.28722 12.3126C8.34707 12.4118 8.36269 12.5315 8.3306 12.6428C8.29851 12.754 8.22164 12.847 8.11827 12.8992C8.01489 12.9515 7.8945 12.9584 7.78582 12.9182C7.67714 12.878 7.59009 12.7944 7.54558 12.6876C7.46648 12.5674 7.33102 12.4966 7.18733 12.5001C6.87065 12.5001 6.66654 12.671 6.66654 12.7876C6.66654 12.9042 6.87065 13.0751 7.18733 13.0751C7.94569 13.0751 8.54155 13.5668 8.54155 14.1918C8.54141 14.8168 7.94555 15.3126 7.18733 15.3126L7.18733 15.3126Z" fill="black"/>
<path d="M10.8336 15.3125H9.42941C9.19922 15.3125 9.0127 15.126 9.0127 14.8958V12.0833C9.0127 11.8533 9.19922 11.6667 9.42941 11.6667C9.65946 11.6667 9.84613 11.8533 9.84613 12.0833V14.4791L10.8336 14.4792C11.0636 14.4792 11.2503 14.6658 11.2503 14.8958C11.2503 15.126 11.0636 15.3125 10.8336 15.3125Z" fill="black"/>
</svg>
