<svg width="19" height="20" viewBox="0 0 19 20" fill="none" xmlns="http://www.w3.org/2000/svg">
<path d="M16.7089 14.1648C14.4782 14.1648 12.2469 14.1627 10.0155 14.169C9.82826 14.1697 9.7649 14.1362 9.77117 13.9336C9.78858 13.4045 9.78858 12.874 9.77187 12.3449C9.7649 12.1319 9.81433 12.0741 10.0357 12.0755C11.7373 12.0859 13.4388 12.0901 15.1403 12.0796C17.5993 12.0643 19.2584 9.86361 18.5692 7.51182C18.1521 6.08876 17.1566 5.28743 15.7077 5.0535C15.4307 5.00894 15.2984 4.9435 15.2274 4.63577C14.6606 2.16145 12.7078 0.422317 10.129 0.0588963C7.66444 -0.288512 5.25625 0.922196 4.07409 3.13057C3.9077 3.44108 3.72111 3.57893 3.37231 3.65412C1.7028 4.01336 0.564499 5.00616 0.155128 6.68054C-0.264686 8.39948 0.160002 9.91861 1.52179 11.1029C2.328 11.8039 3.30826 12.0741 4.36232 12.0796C5.81183 12.0873 7.26203 12.0859 8.71154 12.0762C8.91274 12.0748 8.95312 12.1312 8.94825 12.3198C8.93433 12.849 8.93015 13.3795 8.94964 13.9079C8.958 14.1335 8.88698 14.1704 8.67812 14.1697C6.42937 14.162 4.18061 14.1634 1.93255 14.1655C1.01773 14.1662 0.402979 14.7851 0.40089 15.7041C0.398801 16.6071 0.399498 17.5101 0.400194 18.4131C0.401586 19.3989 1.00172 19.9997 1.98964 19.9997C4.44656 20.0004 6.90348 19.9997 9.36041 19.9997C11.8173 19.9997 14.3091 20.0011 16.7834 19.999C17.6996 19.9983 18.3171 19.3808 18.3192 18.4646C18.322 17.5699 18.3206 16.676 18.3199 15.7814C18.3192 14.7566 17.7302 14.1648 16.7089 14.1648ZM15.4153 5.84857C16.9129 6.01427 17.9649 7.21453 17.8973 8.67448C17.8326 10.076 16.6393 11.2177 15.1912 11.2428C14.2993 11.2581 13.4075 11.2456 12.4648 11.2456C14.4184 9.94576 15.3945 8.15302 15.4153 5.84857ZM4.26833 11.2463C2.28622 11.2386 0.771273 9.65962 0.817919 7.6608C0.835325 6.93048 1.0964 6.25446 1.52457 5.70863C1.52457 5.70794 1.52457 5.70724 1.52527 5.70654C1.54685 5.65642 2.04255 4.57172 4.61087 4.02798C4.61087 4.02798 4.84062 2.95582 6.10284 1.97556H6.10354C7.50014 0.857448 9.11325 0.553205 10.8872 1.08232C12.8512 1.66853 14.0542 3.04215 14.4594 5.0361C15.1125 8.24701 12.6472 11.2268 9.37294 11.2456C7.6714 11.2553 5.96987 11.2525 4.26833 11.2456V11.2463ZM17.4859 18.4228C17.4852 18.9317 17.2492 19.1657 16.7354 19.1657C11.8229 19.1664 6.91045 19.1664 1.99869 19.1657C1.46539 19.1657 1.23495 18.9373 1.23425 18.4103C1.23356 17.5163 1.23286 16.6224 1.23495 15.7285C1.23495 15.2356 1.47444 14.9995 1.97223 14.9988C4.43682 14.9982 6.9014 14.9988 9.36598 14.9988H16.6824C17.27 14.9988 17.4859 15.2126 17.4859 15.7932C17.4866 16.6698 17.4873 17.5463 17.4859 18.4228Z" fill="#020202"/>
<path d="M4.78443 17.4989C4.52544 17.485 4.30683 17.4954 4.09171 17.7224C3.79442 18.035 3.22562 17.95 2.95271 17.6193C2.66935 17.2768 2.70973 16.7324 3.03904 16.4427C3.37322 16.1489 3.92044 16.1768 4.20519 16.5235C4.30127 16.6412 4.39595 16.6732 4.5338 16.6676C4.74197 16.6593 4.95013 16.6614 5.1583 16.6676C5.42982 16.6753 5.5983 16.8333 5.60387 17.0749C5.60944 17.3248 5.434 17.4905 5.14925 17.4996C5.02811 17.5038 4.90627 17.4996 4.78513 17.4996L4.78443 17.4989Z" fill="#020202"/>
<path d="M11.6518 17.2079C11.6518 17.4328 11.6573 17.6576 11.6504 17.8825C11.642 18.1422 11.4686 18.3225 11.2368 18.3246C11.0036 18.3267 10.8254 18.1506 10.8212 17.8867C10.8135 17.4112 10.8135 16.935 10.8212 16.4595C10.826 16.1935 10.9994 16.0334 11.2459 16.039C11.4819 16.0445 11.6399 16.1998 11.649 16.4553C11.658 16.7059 11.6511 16.9573 11.6511 17.2079H11.6518Z" fill="#020202"/>
<path d="M12.6937 17.1773C12.6937 16.9441 12.6888 16.7102 12.6951 16.4769C12.7028 16.2054 12.8594 16.0425 13.1045 16.0397C13.3516 16.0362 13.5201 16.1964 13.525 16.4644C13.5326 16.9399 13.5326 17.4161 13.525 17.8916C13.5208 18.1485 13.3349 18.3282 13.1038 18.3247C12.8712 18.3212 12.709 18.1437 12.6944 17.8777C12.6944 17.8694 12.6944 17.8603 12.6944 17.852C12.6944 17.6271 12.6944 17.4022 12.6944 17.1773H12.6937Z" fill="#020202"/>
<path d="M15.402 17.1863C15.402 17.4195 15.4082 17.6535 15.4006 17.8867C15.3922 18.145 15.214 18.3253 14.9829 18.3246C14.7503 18.3246 14.5749 18.1471 14.5714 17.8825C14.5644 17.407 14.5637 16.9308 14.5714 16.4553C14.5756 16.2012 14.7392 16.0445 14.9745 16.039C15.2224 16.0334 15.3901 16.1914 15.3999 16.4595C15.4089 16.7011 15.402 16.944 15.402 17.1863Z" fill="#020202"/>
<path d="M11.8196 9.79999C11.0548 9.78862 10.491 9.58469 10.032 9.13295C9.75423 8.85996 9.73692 8.48947 9.9784 8.24004C10.2158 7.99629 10.5677 7.98817 10.8586 8.24247C11.1265 8.47647 11.4215 8.60809 11.7808 8.5699C11.9531 8.55203 12.1262 8.48622 12.1542 8.3091C12.1806 8.14091 12.0001 8.08567 11.874 8.03204C11.5361 7.88823 11.1932 7.75499 10.8495 7.62418C10.3485 7.43406 10.0789 7.06357 10.0221 6.55252C9.96274 6.02685 10.1737 5.60192 10.6089 5.2948C11.2962 4.81057 12.5374 4.94138 13.1119 5.55155C13.3311 5.78473 13.3534 6.11541 13.1646 6.35427C12.966 6.60614 12.6339 6.66545 12.3396 6.47696C12.0932 6.31853 11.846 6.18528 11.541 6.21859C11.4207 6.23159 11.2699 6.24459 11.2567 6.39652C11.2451 6.52815 11.3951 6.52165 11.4817 6.55821C11.7537 6.67358 12.0314 6.77676 12.305 6.8897C13.1061 7.22119 13.5223 7.85248 13.383 8.52278C13.2273 9.27432 12.5341 9.79837 11.8188 9.79999H11.8196Z" fill="#030303"/>
<path d="M6.14208 7.3882C6.14208 6.81219 6.13668 6.23618 6.14388 5.66099C6.14838 5.2705 6.39507 5.02827 6.82272 5.01287C7.23686 4.99748 7.6555 4.991 8.06785 5.02178C9.05099 5.09389 9.75953 5.7979 9.73973 6.6526C9.71902 7.52026 8.96456 8.2024 7.97511 8.24533C7.6516 8.25938 7.48985 8.41789 7.48985 8.72088C7.48985 8.88291 7.49705 9.04494 7.48715 9.20535C7.46554 9.55209 7.18284 9.79918 6.81731 9.79999C6.45269 9.79999 6.15469 9.55371 6.14748 9.20778C6.13398 8.60179 6.14388 7.99581 6.14388 7.38901H6.14298L6.14208 7.3882ZM7.48805 6.62262C7.56997 6.75305 7.30078 7.06172 7.76084 7.03822C8.15518 7.01797 8.38386 6.89159 8.39016 6.63315C8.39646 6.37148 8.17228 6.24186 7.77885 6.21269C7.37281 6.18191 7.51686 6.43224 7.48895 6.62181L7.48805 6.62262Z" fill="#030303"/>
<path d="M4.11617 7.47136C4.34422 6.76225 4.54805 6.13427 4.7472 5.50466C4.8214 5.26937 4.94558 5.08844 5.19002 5.03083C5.67189 4.91725 6.02099 5.35213 5.86011 5.87788C5.67267 6.49207 5.47118 7.1022 5.27515 7.71315C5.10958 8.22916 4.94558 8.74518 4.7761 9.25957C4.65739 9.61819 4.42778 9.80398 4.12086 9.79993C3.82252 9.79668 3.59994 9.62062 3.48357 9.27499C3.10167 8.14397 2.72211 7.01295 2.34724 5.8795C2.2176 5.48681 2.3613 5.14523 2.68541 5.03489C3.01889 4.9213 3.31176 5.08844 3.44921 5.48681C3.66789 6.1221 3.87875 6.75981 4.11773 7.46974L4.11617 7.47136Z" fill="#030303"/>
</svg>
