<svg width="26" height="19" viewBox="0 0 26 19" fill="none" xmlns="http://www.w3.org/2000/svg">
<path d="M15.15 11.0005L15.1501 11.0005L15.15 10.9952C15.1131 8.99327 14.4032 7.2678 12.9675 5.86903L12.9675 5.86897C11.5896 4.528 9.91298 3.85 7.99398 3.85C6.03399 3.85 4.33672 4.55274 2.95076 5.93869L2.95061 5.93885C1.56517 7.32839 0.854118 9.0213 0.850017 10.9856L0.850017 10.9856C0.845916 12.999 1.58165 14.7291 3.02461 16.1311C4.40231 17.4719 6.07891 18.1541 7.99831 18.15C9.95815 18.1459 11.6553 17.4432 13.0452 16.0533C14.4361 14.6624 15.1172 12.9615 15.15 11.0005Z" fill="black" stroke="black" stroke-width="0.3"/>
<mask id="path-2-outside-1_363_120" maskUnits="userSpaceOnUse" x="1.75732" y="3.70435" width="11" height="12" fill="black">
<rect fill="white" x="1.75732" y="3.70435" width="11" height="12"/>
<path d="M12.1917 6.34195C12.1796 6.36204 12.1555 6.354 12.1395 6.354C11.6936 6.37007 11.3883 6.59504 11.2035 6.98872C11.0468 7.31813 11.0749 7.65558 11.1954 7.98901C11.2838 8.23808 11.4164 8.46304 11.557 8.688C11.6855 8.89288 11.8101 9.10178 11.9145 9.31871C12.0832 9.67222 12.1957 10.0418 12.2238 10.4315C12.2439 10.7287 12.2238 11.022 12.1716 11.3153C12.0913 11.7652 11.9507 12.195 11.79 12.6209C11.7056 12.8458 11.6454 13.0788 11.5771 13.3078C11.4646 13.6693 11.3601 14.0349 11.2517 14.3965C11.2195 14.5009 11.1874 14.6054 11.1593 14.7058C11.1553 14.7219 11.1593 14.746 11.1352 14.746C11.1151 14.746 11.1111 14.7259 11.1071 14.7098C11.0347 14.4889 10.9584 14.2679 10.8821 14.0429C10.6451 13.3359 10.4081 12.6249 10.171 11.9178C9.99027 11.3795 9.80949 10.8412 9.62872 10.3029C9.42384 9.69231 9.21495 9.08169 9.01007 8.47107C8.9699 8.35458 8.93374 8.23808 8.89357 8.12158C8.87348 8.0573 8.88152 8.04927 8.94981 8.04123C9.14665 8.02516 9.3435 8.0091 9.53632 7.99303C9.56846 7.98901 9.6006 7.98499 9.62872 7.97696C9.73718 7.94884 9.81351 7.86046 9.81753 7.75199C9.82556 7.62344 9.7653 7.52301 9.65684 7.47882C9.61265 7.46275 9.56846 7.46275 9.52025 7.46677C9.26315 7.48284 9.00605 7.50293 8.75297 7.51498C8.56014 7.52703 8.3633 7.53506 8.17047 7.53506C8.08611 7.53506 8.00577 7.55113 7.9214 7.54712C7.55985 7.53506 7.19831 7.52703 6.83676 7.50293C6.62786 7.49087 6.41495 7.47481 6.20605 7.46275C5.97707 7.44669 5.86861 7.69174 5.95699 7.86046C5.99314 7.92875 6.04537 7.97294 6.12571 7.98097C6.24623 7.99704 6.37076 8.0091 6.49128 8.02115C6.57564 8.02918 6.66 8.03722 6.74838 8.04123C6.80462 8.04525 6.83274 8.06534 6.85283 8.12158C6.96129 8.42689 7.07377 8.72818 7.18224 9.02947C7.3831 9.57581 7.57994 10.1221 7.7808 10.6685C7.79687 10.7127 7.79687 10.7488 7.7808 10.793C7.51567 11.5884 7.25053 12.3838 6.98539 13.1792C6.81265 13.6975 6.63991 14.2157 6.46316 14.7379C6.45512 14.758 6.46316 14.7982 6.427 14.7982C6.39486 14.7982 6.39888 14.758 6.39085 14.7379C6.19802 14.1635 6.00118 13.585 5.80835 13.0105C5.63159 12.4803 5.45484 11.95 5.27406 11.4197C5.0732 10.8211 4.86832 10.2266 4.66746 9.62803C4.54293 9.25443 4.4184 8.87681 4.28984 8.49919C4.24967 8.37466 4.20548 8.25013 4.16531 8.12559C4.14522 8.06132 4.15326 8.04927 4.21753 8.04525C4.41438 8.02918 4.61122 8.01311 4.80405 7.99704C4.83619 7.99303 4.86832 7.98901 4.89644 7.98097C4.99687 7.95285 5.06115 7.8926 5.08124 7.78815C5.10132 7.67567 5.07722 7.57925 4.98081 7.50694C4.93662 7.47481 4.88439 7.46275 4.82815 7.46275C4.59917 7.47882 4.37421 7.49489 4.14522 7.50694C4.00462 7.51498 3.86402 7.52301 3.72744 7.52703C3.52657 7.53506 3.32973 7.5431 3.12887 7.5431C3.02442 7.5431 2.91998 7.53908 2.81151 7.53506C2.79544 7.53506 2.77536 7.53908 2.7633 7.52301C2.74724 7.50293 2.76732 7.48686 2.77937 7.47079C2.92399 7.26189 3.07665 7.06103 3.24537 6.86821C3.75957 6.27366 4.36617 5.79561 5.05713 5.43005C5.41466 5.24124 5.78425 5.08858 6.1699 4.97208C6.49128 4.87567 6.82069 4.80336 7.15412 4.75917C7.28267 4.73908 7.41524 4.73105 7.5478 4.72302C7.74866 4.71096 7.94551 4.69891 8.14637 4.70695C8.43159 4.719 8.71681 4.7431 8.99802 4.78729C9.38367 4.84755 9.76129 4.94798 10.1309 5.08055C10.7495 5.30149 11.3119 5.61885 11.8342 6.02058C11.9507 6.10895 12.0591 6.20537 12.1716 6.29776C12.1837 6.31383 12.1957 6.32187 12.1917 6.34195Z"/>
</mask>
<path d="M12.1917 6.34195C12.1796 6.36204 12.1555 6.354 12.1395 6.354C11.6936 6.37007 11.3883 6.59504 11.2035 6.98872C11.0468 7.31813 11.0749 7.65558 11.1954 7.98901C11.2838 8.23808 11.4164 8.46304 11.557 8.688C11.6855 8.89288 11.8101 9.10178 11.9145 9.31871C12.0832 9.67222 12.1957 10.0418 12.2238 10.4315C12.2439 10.7287 12.2238 11.022 12.1716 11.3153C12.0913 11.7652 11.9507 12.195 11.79 12.6209C11.7056 12.8458 11.6454 13.0788 11.5771 13.3078C11.4646 13.6693 11.3601 14.0349 11.2517 14.3965C11.2195 14.5009 11.1874 14.6054 11.1593 14.7058C11.1553 14.7219 11.1593 14.746 11.1352 14.746C11.1151 14.746 11.1111 14.7259 11.1071 14.7098C11.0347 14.4889 10.9584 14.2679 10.8821 14.0429C10.6451 13.3359 10.4081 12.6249 10.171 11.9178C9.99027 11.3795 9.80949 10.8412 9.62872 10.3029C9.42384 9.69231 9.21495 9.08169 9.01007 8.47107C8.9699 8.35458 8.93374 8.23808 8.89357 8.12158C8.87348 8.0573 8.88152 8.04927 8.94981 8.04123C9.14665 8.02516 9.3435 8.0091 9.53632 7.99303C9.56846 7.98901 9.6006 7.98499 9.62872 7.97696C9.73718 7.94884 9.81351 7.86046 9.81753 7.75199C9.82556 7.62344 9.7653 7.52301 9.65684 7.47882C9.61265 7.46275 9.56846 7.46275 9.52025 7.46677C9.26315 7.48284 9.00605 7.50293 8.75297 7.51498C8.56014 7.52703 8.3633 7.53506 8.17047 7.53506C8.08611 7.53506 8.00577 7.55113 7.9214 7.54712C7.55985 7.53506 7.19831 7.52703 6.83676 7.50293C6.62786 7.49087 6.41495 7.47481 6.20605 7.46275C5.97707 7.44669 5.86861 7.69174 5.95699 7.86046C5.99314 7.92875 6.04537 7.97294 6.12571 7.98097C6.24623 7.99704 6.37076 8.0091 6.49128 8.02115C6.57564 8.02918 6.66 8.03722 6.74838 8.04123C6.80462 8.04525 6.83274 8.06534 6.85283 8.12158C6.96129 8.42689 7.07377 8.72818 7.18224 9.02947C7.3831 9.57581 7.57994 10.1221 7.7808 10.6685C7.79687 10.7127 7.79687 10.7488 7.7808 10.793C7.51567 11.5884 7.25053 12.3838 6.98539 13.1792C6.81265 13.6975 6.63991 14.2157 6.46316 14.7379C6.45512 14.758 6.46316 14.7982 6.427 14.7982C6.39486 14.7982 6.39888 14.758 6.39085 14.7379C6.19802 14.1635 6.00118 13.585 5.80835 13.0105C5.63159 12.4803 5.45484 11.95 5.27406 11.4197C5.0732 10.8211 4.86832 10.2266 4.66746 9.62803C4.54293 9.25443 4.4184 8.87681 4.28984 8.49919C4.24967 8.37466 4.20548 8.25013 4.16531 8.12559C4.14522 8.06132 4.15326 8.04927 4.21753 8.04525C4.41438 8.02918 4.61122 8.01311 4.80405 7.99704C4.83619 7.99303 4.86832 7.98901 4.89644 7.98097C4.99687 7.95285 5.06115 7.8926 5.08124 7.78815C5.10132 7.67567 5.07722 7.57925 4.98081 7.50694C4.93662 7.47481 4.88439 7.46275 4.82815 7.46275C4.59917 7.47882 4.37421 7.49489 4.14522 7.50694C4.00462 7.51498 3.86402 7.52301 3.72744 7.52703C3.52657 7.53506 3.32973 7.5431 3.12887 7.5431C3.02442 7.5431 2.91998 7.53908 2.81151 7.53506C2.79544 7.53506 2.77536 7.53908 2.7633 7.52301C2.74724 7.50293 2.76732 7.48686 2.77937 7.47079C2.92399 7.26189 3.07665 7.06103 3.24537 6.86821C3.75957 6.27366 4.36617 5.79561 5.05713 5.43005C5.41466 5.24124 5.78425 5.08858 6.1699 4.97208C6.49128 4.87567 6.82069 4.80336 7.15412 4.75917C7.28267 4.73908 7.41524 4.73105 7.5478 4.72302C7.74866 4.71096 7.94551 4.69891 8.14637 4.70695C8.43159 4.719 8.71681 4.7431 8.99802 4.78729C9.38367 4.84755 9.76129 4.94798 10.1309 5.08055C10.7495 5.30149 11.3119 5.61885 11.8342 6.02058C11.9507 6.10895 12.0591 6.20537 12.1716 6.29776C12.1837 6.31383 12.1957 6.32187 12.1917 6.34195Z" fill="white"/>
<path d="M12.1917 6.34195L12.3632 6.44485L12.381 6.41515L12.3878 6.38118L12.1917 6.34195ZM12.1395 6.354L12.1395 6.15387L12.1323 6.15413L12.1395 6.354ZM11.2035 6.98872L11.3841 7.07463L11.3845 7.0737L11.2035 6.98872ZM11.1954 7.98901L11.3839 7.92213L11.3835 7.92102L11.1954 7.98901ZM11.557 8.688L11.3874 8.794L11.3876 8.7943L11.557 8.688ZM11.9145 9.31871L12.095 9.23256L12.0947 9.23194L11.9145 9.31871ZM12.2238 10.4315L12.4234 10.418L12.4233 10.4171L12.2238 10.4315ZM12.1716 11.3153L12.3685 11.3504L12.3685 11.3503L12.1716 11.3153ZM11.79 12.6209L11.6029 12.5502L11.6027 12.5506L11.79 12.6209ZM11.5771 13.3078L11.7681 13.3672L11.7687 13.365L11.5771 13.3078ZM11.2517 14.3965L11.4428 14.4553L11.4432 14.4539L11.2517 14.3965ZM11.1593 14.7058L10.9666 14.6518L10.9652 14.6573L11.1593 14.7058ZM11.1071 14.7098L11.3011 14.6613L11.2994 14.6544L11.2971 14.6476L11.1071 14.7098ZM10.8821 14.0429L10.6925 14.1065L10.6927 14.1072L10.8821 14.0429ZM10.171 11.9178L10.3607 11.8543L10.3606 11.8542L10.171 11.9178ZM9.62872 10.3029L9.43911 10.3665L9.43912 10.3666L9.62872 10.3029ZM9.01007 8.47107L9.19969 8.40745L9.19914 8.40588L9.01007 8.47107ZM8.89357 8.12158L8.70259 8.18126L8.70449 8.18678L8.89357 8.12158ZM8.94981 8.04123L8.93353 7.84177L8.92644 7.8426L8.94981 8.04123ZM9.53632 7.99303L9.55295 8.1925L9.56113 8.19148L9.53632 7.99303ZM9.62872 7.97696L9.57851 7.7833L9.57377 7.78465L9.62872 7.97696ZM9.81753 7.75199L9.61785 7.73951L9.61767 7.74459L9.81753 7.75199ZM9.65684 7.47882L9.73235 7.29347L9.72519 7.29086L9.65684 7.47882ZM9.52025 7.46677L9.53273 7.66642L9.53686 7.66608L9.52025 7.46677ZM8.75297 7.51498L8.74345 7.31518L8.74049 7.31537L8.75297 7.51498ZM7.9214 7.54712L7.93092 7.34732L7.92807 7.34723L7.9214 7.54712ZM6.83676 7.50293L6.85006 7.30336L6.84828 7.30326L6.83676 7.50293ZM6.20605 7.46275L6.19205 7.66228L6.19454 7.66242L6.20605 7.46275ZM5.95699 7.86046L5.77982 7.95326L5.78023 7.95404L5.95699 7.86046ZM6.12571 7.98097L6.15216 7.78262L6.14561 7.78197L6.12571 7.98097ZM6.49128 8.02115L6.47138 8.22016L6.47232 8.22025L6.49128 8.02115ZM6.74838 8.04123L6.76263 7.84167L6.75746 7.84144L6.74838 8.04123ZM6.85283 8.12158L7.04129 8.05462L7.04117 8.05431L6.85283 8.12158ZM7.18224 9.02947L6.99406 9.09721L6.99452 9.09848L7.18224 9.02947ZM7.7808 10.6685L7.96876 10.6001L7.96852 10.5995L7.7808 10.6685ZM7.7808 10.793L7.59277 10.7246L7.59106 10.7298L7.7808 10.793ZM6.98539 13.1792L7.17513 13.2425L6.98539 13.1792ZM6.46316 14.7379L6.64912 14.8123L6.6526 14.802L6.46316 14.7379ZM6.39085 14.7379L6.20094 14.8017L6.20515 14.8122L6.39085 14.7379ZM5.80835 13.0105L5.61861 13.0738L5.61875 13.0742L5.80835 13.0105ZM5.27406 11.4197L5.08445 11.4833L5.08476 11.4842L5.27406 11.4197ZM4.66746 9.62803L4.47773 9.69128L4.47785 9.69166L4.66746 9.62803ZM4.28984 8.49919L4.09948 8.5606L4.10051 8.56365L4.28984 8.49919ZM4.16531 8.12559L3.97441 8.18525L3.97497 8.18699L4.16531 8.12559ZM4.21753 8.04525L4.23001 8.2449L4.23381 8.24459L4.21753 8.04525ZM4.80405 7.99704L4.82067 8.19652L4.82885 8.1955L4.80405 7.99704ZM4.89644 7.98097L4.84252 7.78838L4.8415 7.78867L4.89644 7.98097ZM5.08124 7.78815L5.27765 7.82592L5.27812 7.82331L5.08124 7.78815ZM4.98081 7.50694L5.10082 7.34693L5.09844 7.3452L4.98081 7.50694ZM4.82815 7.46275V7.26226L4.81415 7.26324L4.82815 7.46275ZM4.14522 7.50694L4.13471 7.30722L4.13381 7.30727L4.14522 7.50694ZM3.72744 7.52703L3.72155 7.3271L3.71944 7.32719L3.72744 7.52703ZM2.81151 7.53506L2.81892 7.33506H2.81151V7.53506ZM2.7633 7.52301L2.92338 7.40295L2.91948 7.39807L2.7633 7.52301ZM2.77937 7.47079L2.93949 7.59088L2.94381 7.58463L2.77937 7.47079ZM3.24537 6.86821L3.39589 6.99991L3.39664 6.99904L3.24537 6.86821ZM5.05713 5.43005L4.96374 5.25319L4.9636 5.25326L5.05713 5.43005ZM6.1699 4.97208L6.11243 4.78052L6.11206 4.78063L6.1699 4.97208ZM7.15412 4.75917L7.1804 4.95749L7.18499 4.95677L7.15412 4.75917ZM7.5478 4.72302L7.53583 4.52337L7.5357 4.52338L7.5478 4.72302ZM8.14637 4.70695L8.15481 4.50712L8.15436 4.50711L8.14637 4.70695ZM8.99802 4.78729L8.96697 4.98487L8.96714 4.98489L8.99802 4.78729ZM10.1309 5.08055L10.0633 5.2688L10.0636 5.2689L10.1309 5.08055ZM11.8342 6.02058L11.7122 6.1791L11.7133 6.17991L11.8342 6.02058ZM12.1716 6.29776L12.3316 6.17776L12.3172 6.1585L12.2986 6.14322L12.1716 6.29776ZM12.0202 6.23905C12.0367 6.21149 12.0617 6.188 12.0923 6.17289C12.1203 6.1591 12.1447 6.15641 12.1566 6.15579C12.1676 6.1552 12.1754 6.1562 12.1713 6.15581C12.1701 6.1557 12.1702 6.1557 12.1681 6.15551C12.1667 6.15537 12.1645 6.15517 12.162 6.15497C12.1575 6.1546 12.1493 6.154 12.1395 6.154V6.554C12.1315 6.554 12.123 6.55304 12.1341 6.55408C12.1394 6.55457 12.157 6.55632 12.1776 6.55523C12.199 6.55411 12.2327 6.54966 12.2691 6.53173C12.3082 6.51248 12.3406 6.48246 12.3632 6.44485L12.0202 6.23905ZM12.1323 6.15413C11.8761 6.16337 11.6501 6.23343 11.4597 6.36534C11.27 6.49671 11.1267 6.68164 11.0224 6.90374L11.3845 7.0737C11.4651 6.90212 11.5668 6.77772 11.6874 6.69418C11.8073 6.61116 11.957 6.56071 12.1467 6.55387L12.1323 6.15413ZM11.0229 6.90282C10.836 7.29579 10.8754 7.69191 11.0073 8.05699L11.3835 7.92102C11.2744 7.61925 11.2576 7.34048 11.3841 7.07462L11.0229 6.90282ZM11.0069 8.05589C11.1032 8.32711 11.2461 8.56789 11.3874 8.794L11.7266 8.582C11.5867 8.35819 11.4644 8.14904 11.3839 7.92213L11.0069 8.05589ZM11.3876 8.7943C11.5149 8.99721 11.6347 9.19866 11.7343 9.40547L12.0947 9.23194C11.9854 9.00489 11.8562 8.78856 11.7264 8.58171L11.3876 8.7943ZM11.734 9.40485C11.8943 9.74061 11.9984 10.0859 12.0244 10.4459L12.4233 10.4171C12.3931 9.99774 12.2722 9.60383 12.095 9.23256L11.734 9.40485ZM12.0243 10.445C12.0432 10.7242 12.0244 11.0011 11.9747 11.2802L12.3685 11.3503C12.4233 11.0429 12.4447 10.7333 12.4234 10.418L12.0243 10.445ZM11.9747 11.2801C11.8975 11.7125 11.7617 12.1293 11.6029 12.5502L11.9771 12.6915C12.1396 12.2608 12.285 11.8179 12.3685 11.3504L11.9747 11.2801ZM11.6027 12.5506C11.5151 12.7842 11.4509 13.0311 11.3854 13.2506L11.7687 13.365C11.8398 13.1266 11.8961 12.9074 11.9772 12.6911L11.6027 12.5506ZM11.3861 13.2484C11.2733 13.6108 11.1674 13.9812 11.0601 14.339L11.4432 14.4539C11.5528 14.0886 11.6558 13.7279 11.768 13.3672L11.3861 13.2484ZM11.0605 14.3376C11.0285 14.4416 10.9956 14.5485 10.9667 14.6519L11.3519 14.7597C11.3792 14.6622 11.4105 14.5602 11.4428 14.4553L11.0605 14.3376ZM10.9652 14.6573C10.9625 14.6683 10.961 14.6777 10.9602 14.6831C10.9595 14.6881 10.9588 14.6937 10.9587 14.694C10.958 14.6999 10.9591 14.6876 10.9639 14.6722C10.9692 14.6552 10.9838 14.6182 11.0221 14.587C11.0627 14.5538 11.1067 14.546 11.1352 14.546V14.946C11.1757 14.946 11.2282 14.9351 11.275 14.8969C11.3194 14.8606 11.3378 14.8166 11.3457 14.7916C11.353 14.7682 11.3553 14.7468 11.3557 14.7437C11.357 14.7333 11.356 14.7436 11.3533 14.7543L10.9652 14.6573ZM11.1352 14.546C11.1656 14.546 11.2003 14.5542 11.2323 14.5752C11.2626 14.595 11.2798 14.6191 11.2887 14.6347C11.2973 14.6496 11.3009 14.6615 11.3017 14.6642C11.3023 14.6662 11.303 14.6691 11.3011 14.6613L10.913 14.7583C10.9131 14.7585 10.9158 14.7699 10.9189 14.7802C10.9222 14.7912 10.9289 14.8112 10.9414 14.8331C10.9544 14.8558 10.9766 14.8859 11.0134 14.91C11.052 14.9352 11.0948 14.946 11.1352 14.946V14.546ZM11.2971 14.6476C11.2244 14.4253 11.1473 14.2022 11.0715 13.9787L10.6927 14.1072C10.7695 14.3336 10.8451 14.5524 10.917 14.772L11.2971 14.6476ZM11.0717 13.9794C10.9532 13.626 10.8348 13.2715 10.7162 12.917C10.5977 12.5625 10.4792 12.2079 10.3607 11.8543L9.98141 11.9814C10.0999 12.3348 10.2184 12.6893 10.3369 13.0438C10.4554 13.3983 10.5739 13.7529 10.6925 14.1065L11.0717 13.9794ZM10.3606 11.8542C10.2702 11.585 10.1799 11.3159 10.0895 11.0467C9.99909 10.7776 9.9087 10.5084 9.81831 10.2393L9.43912 10.3666C9.52951 10.6357 9.6199 10.9049 9.71029 11.1741C9.80067 11.4432 9.89106 11.7124 9.98145 11.9815L10.3606 11.8542ZM9.81833 10.2393C9.71578 9.93367 9.61224 9.62808 9.50882 9.32282C9.40536 9.01746 9.30201 8.71244 9.19968 8.40745L8.82046 8.53469C8.92301 8.84033 9.02654 9.14592 9.12997 9.45118C9.23343 9.75653 9.33678 10.0616 9.43911 10.3665L9.81833 10.2393ZM9.19914 8.40588C9.17965 8.34933 9.16104 8.29255 9.14188 8.23406C9.12288 8.17605 9.10332 8.11634 9.08264 8.05638L8.70449 8.18678C8.72399 8.24332 8.7426 8.3001 8.76176 8.35859C8.78076 8.4166 8.80032 8.47632 8.82099 8.53627L9.19914 8.40588ZM9.08447 8.06192C9.07974 8.04681 9.08206 8.051 9.08326 8.06289C9.08461 8.0762 9.08747 8.12683 9.0503 8.17795C9.01547 8.22583 8.97074 8.2386 8.96465 8.24035C8.95731 8.24246 8.95593 8.24189 8.97318 8.23986L8.92644 7.8426C8.90955 7.84459 8.88155 7.84804 8.85413 7.85592C8.82795 7.86345 8.76966 7.88375 8.7268 7.94268C8.68159 8.00485 8.68194 8.07004 8.6853 8.10319C8.68851 8.13491 8.69735 8.1642 8.70267 8.18123L9.08447 8.06192ZM8.96608 8.24057C9.1629 8.2245 9.35991 8.20842 9.55293 8.19234L9.51971 7.79372C9.32709 7.80977 9.13041 7.82582 8.93354 7.8419L8.96608 8.24057ZM9.56113 8.19148C9.58952 8.18793 9.63788 8.18234 9.68366 8.16926L9.57377 7.78465C9.56331 7.78764 9.5474 7.79009 9.51152 7.79457L9.56113 8.19148ZM9.67891 8.17056C9.86468 8.12239 10.0098 7.9644 10.0174 7.7594L9.61767 7.74459C9.61736 7.75282 9.61467 7.75944 9.60961 7.76542C9.60424 7.77177 9.59441 7.77924 9.57853 7.78336L9.67891 8.17056ZM10.0171 7.76447C10.03 7.5591 9.92827 7.37344 9.7323 7.2936L9.58138 7.66404C9.59722 7.6705 9.60447 7.6784 9.60872 7.68558C9.61336 7.69342 9.61977 7.70983 9.61792 7.73952L10.0171 7.76447ZM9.72519 7.29086C9.63941 7.25967 9.55993 7.26277 9.50365 7.26746L9.53686 7.66608C9.57699 7.66274 9.58589 7.66583 9.58849 7.66678L9.72519 7.29086ZM9.50778 7.26716C9.24619 7.28351 8.99487 7.30323 8.74345 7.3152L8.76248 7.71475C9.01723 7.70262 9.28012 7.68217 9.53273 7.66638L9.50778 7.26716ZM8.74049 7.31537C8.55042 7.32725 8.35794 7.33506 8.17047 7.33506V7.73506C8.36865 7.73506 8.56986 7.72681 8.76544 7.71459L8.74049 7.31537ZM8.17047 7.33506C8.11769 7.33506 8.0663 7.34013 8.02893 7.34332C7.98806 7.34681 7.95857 7.34866 7.93092 7.34734L7.91189 7.74689C7.9686 7.74959 8.02146 7.74541 8.06295 7.74187C8.10792 7.73803 8.13889 7.73506 8.17047 7.73506V7.33506ZM7.92807 7.34723C7.5635 7.33507 7.20725 7.32718 6.85006 7.30337L6.82345 7.70248C7.18936 7.72688 7.55621 7.73505 7.91474 7.747L7.92807 7.34723ZM6.84828 7.30326C6.74487 7.29729 6.64032 7.29032 6.53471 7.28328C6.42941 7.27626 6.32306 7.26917 6.21757 7.26309L6.19454 7.66242C6.29794 7.66839 6.40249 7.67536 6.5081 7.6824C6.6134 7.68942 6.71975 7.69651 6.82524 7.70259L6.84828 7.30326ZM6.22006 7.26324C6.02152 7.24931 5.86684 7.35287 5.78773 7.49509C5.71264 7.63008 5.70217 7.80502 5.77982 7.95326L6.13415 7.76766C6.12343 7.74718 6.123 7.71523 6.13729 7.68953C6.14351 7.67835 6.15074 7.6718 6.15711 7.66817C6.16256 7.66506 6.17275 7.66091 6.19205 7.66226L6.22006 7.26324ZM5.78023 7.95404C5.8405 8.06788 5.94481 8.16388 6.10581 8.17998L6.14561 7.78197C6.14161 7.78157 6.1405 7.78099 6.1413 7.78129C6.14219 7.78163 6.14338 7.78227 6.14431 7.78296C6.1462 7.78437 6.14171 7.78192 6.13375 7.76688L5.78023 7.95404ZM6.09928 8.17922C6.2238 8.19582 6.35212 8.20823 6.47138 8.22015L6.51118 7.82214C6.3894 7.80996 6.26865 7.79826 6.15214 7.78273L6.09928 8.17922ZM6.47232 8.22025C6.55601 8.22822 6.6452 8.23675 6.7393 8.24103L6.75746 7.84144C6.6748 7.83768 6.59526 7.83015 6.51024 7.82205L6.47232 8.22025ZM6.73413 8.24072C6.74278 8.24134 6.72009 8.24147 6.69339 8.22124C6.6668 8.2011 6.66122 8.17972 6.66448 8.18884L7.04117 8.05431C7.02435 8.00719 6.99466 7.94765 6.93493 7.9024C6.87509 7.85707 6.81022 7.84514 6.76263 7.84174L6.73413 8.24072ZM6.66437 8.18853C6.77252 8.49298 6.88715 8.80025 6.99406 9.09721L7.37041 8.96172C7.26039 8.6561 7.15006 8.36079 7.04129 8.05462L6.66437 8.18853ZM6.99452 9.09848C7.09482 9.37129 7.19414 9.64416 7.29358 9.91738C7.39299 10.1905 7.49252 10.464 7.59309 10.7375L7.96852 10.5995C7.86822 10.3267 7.7689 10.0538 7.66946 9.78057C7.57005 9.50745 7.47051 9.23398 7.36995 8.96045L6.99452 9.09848ZM7.59284 10.7368C7.59387 10.7397 7.59382 10.7401 7.59354 10.7387C7.59323 10.7371 7.59285 10.7343 7.59285 10.7308C7.59285 10.7272 7.59323 10.7244 7.59354 10.7228C7.59382 10.7214 7.59387 10.7218 7.59284 10.7247L7.96876 10.8614C8.00088 10.773 8.00088 10.6885 7.96876 10.6001L7.59284 10.7368ZM7.59106 10.7298C7.4585 11.1275 7.32593 11.5252 7.19336 11.9229C7.06079 12.3206 6.92823 12.7183 6.79566 13.116L7.17513 13.2425C7.3077 12.8448 7.44027 12.4471 7.57283 12.0494C7.7054 11.6517 7.83797 11.254 7.97054 10.8563L7.59106 10.7298ZM6.79566 13.116C6.62289 13.6343 6.4503 14.1521 6.27371 14.6738L6.6526 14.802C6.82953 14.2793 7.00241 13.7606 7.17513 13.2425L6.79566 13.116ZM6.27746 14.6636C6.26511 14.6945 6.26163 14.7246 6.26121 14.7275C6.25942 14.7401 6.26038 14.7311 6.26303 14.7217C6.26606 14.7108 6.27709 14.6758 6.31172 14.6441C6.3511 14.608 6.39636 14.5982 6.427 14.5982V14.9982C6.47572 14.9982 6.53353 14.9833 6.58182 14.9391C6.62537 14.8992 6.64167 14.8529 6.64822 14.8295C6.65439 14.8075 6.6571 14.7847 6.65719 14.7841C6.65866 14.7738 6.65718 14.7914 6.64885 14.8122L6.27746 14.6636ZM6.427 14.5982C6.46549 14.5982 6.51074 14.6122 6.54712 14.647C6.57749 14.676 6.58781 14.7066 6.59037 14.7146C6.59289 14.7225 6.59389 14.7292 6.59183 14.7184C6.59132 14.7157 6.58699 14.6898 6.57654 14.6636L6.20515 14.8122C6.19872 14.7961 6.1969 14.7828 6.1989 14.7932C6.19935 14.7956 6.20287 14.8161 6.2094 14.8365C6.21597 14.8571 6.23182 14.899 6.27073 14.9362C6.31565 14.9791 6.37244 14.9982 6.427 14.9982V14.5982ZM6.58045 14.6743C6.48396 14.3868 6.38648 14.0984 6.28907 13.8102C6.19164 13.5219 6.09429 13.2339 5.99795 12.9469L5.61875 13.0742C5.71524 13.3616 5.81272 13.6501 5.91013 13.9383C6.00756 14.2265 6.10491 14.5146 6.20124 14.8016L6.58045 14.6743ZM5.99809 12.9473C5.82137 12.4171 5.64439 11.8862 5.46336 11.3552L5.08476 11.4842C5.26528 12.0138 5.44182 12.5434 5.61861 13.0738L5.99809 12.9473ZM5.46367 11.3561C5.36309 11.0564 5.26153 10.7577 5.16011 10.4595C5.05866 10.1611 4.95735 9.86324 4.85707 9.5644L4.47785 9.69166C4.57843 9.99139 4.68 10.29 4.78141 10.5883C4.88287 10.8866 4.98417 11.1845 5.08445 11.4833L5.46367 11.3561ZM4.8572 9.56479C4.73293 9.19199 4.608 8.81316 4.47917 8.43474L4.10051 8.56365C4.22879 8.94046 4.35292 9.31687 4.47773 9.69128L4.8572 9.56479ZM4.48019 8.43779C4.45958 8.37391 4.43802 8.31026 4.41701 8.24823C4.39584 8.18573 4.37522 8.12484 4.35565 8.06419L3.97497 8.18699C3.99558 8.25088 4.01714 8.31452 4.03815 8.37656C4.05932 8.43906 4.07994 8.49994 4.0995 8.5606L4.48019 8.43779ZM4.35621 8.06594C4.35186 8.05201 4.35377 8.05507 4.35488 8.06574C4.35596 8.07614 4.35957 8.12261 4.32731 8.17208C4.29398 8.22318 4.2478 8.23894 4.23421 8.24281C4.2218 8.24635 4.21626 8.24572 4.23001 8.24486L4.20506 7.84564C4.18667 7.84679 4.15603 7.84917 4.12466 7.85811C4.09211 7.86737 4.03313 7.89092 3.99227 7.95357C3.95247 8.01459 3.95382 8.07637 3.95704 8.10723C3.96028 8.13837 3.96872 8.16704 3.97441 8.18525L4.35621 8.06594ZM4.23381 8.24459C4.43062 8.22852 4.62763 8.21244 4.82066 8.19635L4.78744 7.79773C4.59481 7.81379 4.39814 7.82984 4.20126 7.84591L4.23381 8.24459ZM4.82885 8.1955C4.85724 8.19195 4.90561 8.18636 4.95139 8.17328L4.8415 7.78867C4.83104 7.79166 4.81513 7.7941 4.77924 7.79859L4.82885 8.1955ZM4.95037 8.17357C5.02545 8.15255 5.10025 8.11573 5.16152 8.05347C5.22388 7.9901 5.26117 7.91156 5.27764 7.82592L4.88483 7.75038C4.88289 7.7605 4.88055 7.76611 4.87923 7.76873C4.87802 7.77115 4.8771 7.77221 4.87642 7.7729C4.87542 7.77391 4.86787 7.78128 4.84252 7.78838L4.95037 8.17357ZM5.27812 7.82331C5.2922 7.74444 5.29339 7.657 5.26465 7.56984C5.23508 7.48021 5.17857 7.40527 5.10081 7.34694L4.86081 7.66694C4.87945 7.68093 4.8832 7.69035 4.88477 7.69512C4.88716 7.70236 4.89035 7.71938 4.88435 7.75299L5.27812 7.82331ZM5.09844 7.3452C5.01028 7.28108 4.9127 7.26275 4.82815 7.26275V7.66275C4.84223 7.66275 4.85105 7.66429 4.85605 7.66566C4.86054 7.66689 4.8623 7.66806 4.86317 7.66869L5.09844 7.3452ZM4.81415 7.26324C4.58464 7.27935 4.36159 7.29528 4.13471 7.30722L4.15574 7.70667C4.38683 7.6945 4.6137 7.67829 4.84215 7.66226L4.81415 7.26324ZM4.13381 7.30727C3.99269 7.31533 3.85489 7.32319 3.72156 7.32712L3.73331 7.72694C3.87315 7.72283 4.01656 7.71462 4.15663 7.70662L4.13381 7.30727ZM3.71944 7.32719C3.51779 7.33526 3.32503 7.3431 3.12887 7.3431V7.7431C3.33444 7.7431 3.53536 7.73487 3.73543 7.72687L3.71944 7.32719ZM3.12887 7.3431C3.02884 7.3431 2.92832 7.33925 2.81891 7.3352L2.80411 7.73493C2.91163 7.73891 3.02 7.7431 3.12887 7.7431V7.3431ZM2.81151 7.33506C2.80566 7.33506 2.80058 7.33524 2.79789 7.33534C2.79397 7.33549 2.79423 7.33549 2.7931 7.33552C2.7916 7.33557 2.79882 7.3352 2.80927 7.33643C2.82034 7.33774 2.83973 7.34129 2.86193 7.3522C2.88555 7.36382 2.90689 7.38112 2.9233 7.40301L2.6033 7.64301C2.65266 7.70882 2.71979 7.72866 2.76253 7.73369C2.78152 7.73593 2.79752 7.73556 2.80469 7.73536C2.80789 7.73526 2.81245 7.73508 2.81275 7.73507C2.81428 7.73501 2.81334 7.73506 2.81151 7.73506V7.33506ZM2.91948 7.39807C2.93744 7.42053 2.95533 7.45559 2.95717 7.50043C2.9589 7.5425 2.94563 7.57372 2.93755 7.58897C2.93012 7.60301 2.92275 7.61147 2.92452 7.60929C2.92567 7.60788 2.92509 7.60863 2.92855 7.60445C2.9308 7.60173 2.9349 7.59675 2.93937 7.59079L2.61937 7.35079C2.62083 7.34885 2.62167 7.34788 2.62058 7.3492C2.61997 7.34993 2.6196 7.35037 2.61841 7.3518C2.61744 7.35296 2.61604 7.35464 2.61452 7.35651C2.60964 7.3625 2.59599 7.37925 2.58404 7.40182C2.57144 7.42561 2.5554 7.46562 2.55751 7.51685C2.55973 7.57085 2.58113 7.61545 2.60713 7.64795L2.91948 7.39807ZM2.94381 7.58463C3.08509 7.38056 3.23314 7.18591 3.39589 6.99991L3.09485 6.73651C2.92016 6.93616 2.76289 7.14323 2.61493 7.35695L2.94381 7.58463ZM3.39664 6.99904C3.89424 6.42369 4.48112 5.96106 5.15066 5.60683L4.9636 5.25326C4.25122 5.63016 3.6249 6.12363 3.0941 6.73738L3.39664 6.99904ZM5.15053 5.6069C5.49697 5.42395 5.85466 5.27624 6.22774 5.16354L6.11206 4.78063C5.71383 4.90093 5.33236 5.05853 4.96374 5.25319L5.15053 5.6069ZM6.22737 5.16365C6.53911 5.07012 6.8581 5.00015 7.18039 4.95744L7.12784 4.5609C6.78328 4.60657 6.44344 4.68122 6.11243 4.78052L6.22737 5.16365ZM7.18499 4.95677C7.3026 4.9384 7.42561 4.93079 7.5599 4.92265L7.5357 4.52338C7.40486 4.53131 7.26274 4.53977 7.12324 4.56157L7.18499 4.95677ZM7.55978 4.92266C7.76247 4.9105 7.94922 4.89922 8.13837 4.90679L8.15436 4.50711C7.94179 4.4986 7.73486 4.51143 7.53583 4.52337L7.55978 4.92266ZM8.13792 4.90677C8.41769 4.91859 8.69508 4.94214 8.96697 4.98487L9.02906 4.58972C8.73854 4.54406 8.44549 4.51941 8.15481 4.50713L8.13792 4.90677ZM8.96714 4.98489C9.33895 5.04299 9.70429 5.14001 10.0633 5.2688L10.1984 4.89229C9.81828 4.75595 9.42839 4.65211 9.02889 4.58969L8.96714 4.98489ZM10.0636 5.2689C10.6608 5.48217 11.2049 5.78889 11.7122 6.1791L11.9561 5.86205C11.4189 5.44882 10.8383 5.12082 10.1981 4.8922L10.0636 5.2689ZM11.7133 6.17991C11.8262 6.26557 11.9237 6.35294 12.0447 6.45231L12.2986 6.14322C12.1946 6.0578 12.0751 5.95234 11.955 5.86124L11.7133 6.17991ZM12.0116 6.41776C12.0185 6.42692 12.0262 6.43599 12.0265 6.43637C12.029 6.43941 12.0234 6.43307 12.0174 6.42317C12.0101 6.41135 12.0006 6.39243 11.9957 6.36744C11.9908 6.34225 11.9922 6.31985 11.9956 6.30273L12.3878 6.38118C12.3932 6.35401 12.3947 6.32308 12.3882 6.29023C12.3818 6.25758 12.3693 6.23188 12.358 6.21353C12.3479 6.1971 12.3373 6.18448 12.3343 6.18087C12.3291 6.1746 12.3308 6.17664 12.3316 6.17776L12.0116 6.41776Z" fill="black" mask="url(#path-2-outside-1_363_120)"/>
<path d="M8.0289 17.3934L8.0289 17.393C7.48886 17.3848 6.99095 17.332 6.49587 17.2093L6.49448 17.2089L6.49449 17.2089C6.47384 17.2035 6.45259 17.1981 6.43091 17.1927C6.37797 17.1794 6.32242 17.1654 6.26655 17.1478C6.25019 17.1433 6.23074 17.1378 6.21421 17.1308C6.19793 17.124 6.16649 17.1088 6.14633 17.0742C6.12513 17.0379 6.12859 17.0017 6.1322 16.982C6.13569 16.9629 6.14261 16.9428 6.14825 16.9268C6.18643 16.8143 6.2256 16.7008 6.26468 16.5876L6.26472 16.5875C6.3039 16.4739 6.34298 16.3607 6.38105 16.2485L6.38106 16.2485C6.4514 16.0415 6.52274 15.8335 6.59402 15.6257L6.59407 15.6255C6.66538 15.4176 6.73664 15.2099 6.80689 15.0031L6.80707 15.0026C6.98784 14.4804 7.16857 13.9583 7.34929 13.4322C7.3493 13.4321 7.34931 13.4321 7.34932 13.4321L7.5903 12.7272L7.83134 12.0222L7.83166 12.0212L7.83166 12.0212C7.8795 11.8857 7.92669 11.752 7.96994 11.6147C7.96959 11.6164 7.96951 11.6167 7.96955 11.6165L8.0289 17.3934ZM8.0289 17.3934L8.03838 17.3927M8.0289 17.3934L8.03838 17.3927M8.03838 17.3927C8.0793 17.3894 8.12648 17.3868 8.17863 17.3839C8.18848 17.3834 8.1985 17.3828 8.20869 17.3823C8.27155 17.3788 8.33971 17.3747 8.4073 17.3686M8.03838 17.3927L9.24107 14.3983M10.039 16.8672C10.0591 16.9234 10.0591 16.9314 10.0069 16.9475M10.039 16.8672L8.82581 17.2247C9.0548 17.1966 9.27976 17.1524 9.50472 17.0961C9.67345 17.0519 9.84217 17.0037 10.0069 16.9475M10.039 16.8672C10.0109 16.7888 9.98177 16.7115 9.95264 16.6342C9.92352 16.5568 9.89439 16.4795 9.86627 16.4012C9.74576 16.0738 9.62625 15.7454 9.50674 15.417C9.38723 15.0885 9.26771 14.7601 9.14719 14.4327M10.039 16.8672L8.31563 12.159L8.31626 12.1607C8.59323 12.9194 8.87021 13.6781 9.14719 14.4327M10.0069 16.9475L10.0363 17.0431C10.0368 17.0429 10.0373 17.0428 10.0378 17.0426M10.0069 16.9475L10.0392 17.0421C10.0387 17.0423 10.0382 17.0425 10.0378 17.0426M10.0378 17.0426C10.0509 17.0386 10.0688 17.0326 10.0852 17.0236C10.1041 17.0131 10.1308 16.993 10.144 16.9566C10.1559 16.9239 10.1507 16.8942 10.1474 16.8792C10.1438 16.8634 10.1379 16.8466 10.1332 16.8335L10.1331 16.8334C10.1047 16.7543 10.0754 16.6764 10.0464 16.5993L10.0462 16.5989C10.0171 16.5215 9.98821 16.4449 9.9604 16.3674L9.96012 16.3666C9.83968 16.0394 9.72023 15.7112 9.60071 15.3827L9.6007 15.3827L9.60062 15.3825C9.48116 15.0542 9.36162 14.7258 9.24107 14.3983M10.0378 17.0426C9.8704 17.0997 9.69963 17.1485 9.53006 17.1929L9.52898 17.1932L9.52898 17.1931C9.30075 17.2502 9.07171 17.2952 8.838 17.3239L8.83717 17.324L8.83717 17.324C8.80453 17.3278 8.77136 17.3318 8.73776 17.3359C8.63096 17.3488 8.5198 17.3623 8.4073 17.3686M9.24107 14.3983C8.96409 13.6436 8.68711 12.8849 8.41009 12.1261L8.40957 12.1247L8.40957 12.1247L8.40935 12.1241C8.37729 12.0379 8.34522 11.9507 8.31307 11.8633L8.31306 11.8633C8.28174 11.7782 8.25035 11.6928 8.21894 11.6084L8.21762 11.6022C8.21619 11.5959 8.21296 11.5824 8.20572 11.5679C8.19783 11.5521 8.18418 11.5331 8.16126 11.5189C8.13855 11.5049 8.11474 11.5006 8.09468 11.5006H8.08641L8.07824 11.5019C8.05847 11.5052 8.03772 11.513 8.01909 11.5275C8.00055 11.542 7.9893 11.5592 7.98247 11.5739C7.9761 11.5875 7.97311 11.6 7.97168 11.6064L7.96999 11.6144C7.96997 11.6145 7.96996 11.6146 7.96994 11.6147L9.24107 14.3983ZM9.24107 14.3983L9.14719 14.4327M9.24107 14.3983C9.24106 14.3982 9.24105 14.3982 9.24104 14.3982L9.14719 14.4327M8.4073 17.3686C8.40788 17.3686 8.40846 17.3685 8.40904 17.3685L8.39999 17.2689L8.40554 17.3687C8.40613 17.3687 8.40671 17.3687 8.4073 17.3686ZM8.02259 11.6465L8.02261 11.6466L8.02259 11.6465Z" fill="white" stroke="black" stroke-width="0.2"/>
<path d="M5.16694 16.7244L5.2308 16.755L5.27513 16.7107C5.27862 16.7085 5.28415 16.7051 5.28976 16.7013L5.35519 16.6577L5.32822 16.5838C4.83653 15.2372 4.34484 13.8896 3.85315 12.5419L3.8519 12.5385L3.85083 12.5356C3.35908 11.1878 2.86733 9.83997 2.37557 8.49316L2.37618 8.49293L2.37128 8.48313C2.3712 8.48296 2.37103 8.48258 2.37076 8.48194L2.36765 8.47458C2.36486 8.46815 2.3598 8.45689 2.35178 8.44487C2.33304 8.41676 2.30373 8.39274 2.2617 8.38223L2.18011 8.36184L2.14603 8.43872C1.79489 9.23081 1.61942 10.0597 1.60718 10.9243L1.60718 10.9243C1.59494 11.7978 1.75827 12.6389 2.0929 13.4428L2.09297 13.4429C2.52128 14.4668 3.17436 15.3281 4.04724 16.0175C4.39422 16.295 4.76611 16.5321 5.16694 16.7244Z" fill="white" stroke="black" stroke-width="0.2"/>
<path d="M13.6164 7.96543L13.6436 8.02228C13.665 8.0671 13.6875 8.11112 13.7107 8.1565L13.711 8.15704C13.7339 8.20188 13.7575 8.24806 13.7802 8.29545L13.7807 8.29647L13.7807 8.29647C14.0212 8.81429 14.1928 9.35314 14.2867 9.91689C14.3398 10.2313 14.3683 10.5493 14.3765 10.8669L14.3765 10.867C14.3846 11.2061 14.3642 11.5448 14.3194 11.879L14.3193 11.8794C14.1642 13.0059 13.7313 14.0144 13.038 14.9115M13.6164 7.96543L11.3156 16.4504M13.6164 7.96543H13.5534H13.5253H13.4253V8.06543C13.4253 8.11031 13.4286 8.15319 13.4322 8.19288C13.4329 8.20099 13.4337 8.20891 13.4344 8.2167C13.4372 8.24783 13.4399 8.27676 13.4414 8.30658M13.6164 7.96543L13.4414 8.30658M13.038 14.9115C13.038 14.9116 13.038 14.9116 13.038 14.9116L12.9588 14.8505L13.0381 14.9115C13.0381 14.9115 13.0381 14.9115 13.038 14.9115ZM13.038 14.9115C12.5608 15.5316 11.9857 16.0415 11.3176 16.4492M11.3176 16.4492C11.3179 16.4489 11.3181 16.4488 11.3181 16.4488C11.3181 16.4487 11.3171 16.4495 11.3156 16.4504M11.3176 16.4492C11.3169 16.4496 11.3163 16.45 11.3156 16.4504M11.3176 16.4492C11.3168 16.4498 11.3153 16.4511 11.3126 16.4533L11.3118 16.4541C11.3068 16.4584 11.296 16.4675 11.2834 16.4754C11.2699 16.4838 11.246 16.4962 11.2145 16.4971C11.1797 16.4982 11.1493 16.4848 11.1262 16.465L11.1204 16.46L11.1206 16.4598C11.1 16.4392 11.0877 16.4136 11.0839 16.3866C11.0804 16.3619 11.0847 16.3408 11.0884 16.3275C11.0921 16.3143 11.0971 16.3026 11.0998 16.2964L11.0998 16.2963L11.1033 16.288L11.1042 16.2858C11.1044 16.2853 11.1045 16.2851 11.1044 16.2852L11.1047 16.2843L11.1047 16.2843C11.1972 16.015 11.2906 15.7458 11.384 15.4767L11.384 15.4765C11.4774 15.2074 11.5708 14.9384 11.6631 14.6694L11.6632 14.6691C11.7636 14.3801 11.8629 14.09 11.9624 13.7997L11.9624 13.7996C12.0618 13.5095 12.1613 13.2192 12.2617 12.9298M11.3156 16.4504L11.3155 16.4505L11.2122 16.2793L11.2121 16.2792C11.2043 16.2839 11.1979 16.2888 11.1936 16.2922C11.1897 16.2953 11.1859 16.2986 11.1834 16.3007L11.1829 16.3011C11.1783 16.3051 11.1768 16.3062 11.1768 16.3062C11.1768 16.3062 11.1771 16.306 11.1774 16.3058C11.1788 16.3049 11.1892 16.2985 11.206 16.2974C11.2079 16.2916 11.2099 16.2859 11.2119 16.2802L11.2115 16.2796C11.2118 16.2795 11.212 16.2793 11.2122 16.2792C11.3004 16.0226 11.3895 15.7659 11.4785 15.5093C11.5719 15.2402 11.6653 14.971 11.7577 14.7019C11.8581 14.4126 11.9576 14.1224 12.057 13.8321C12.1564 13.5419 12.2558 13.2516 12.3563 12.9624M12.2617 12.9298C12.2617 12.9299 12.2617 12.93 12.2616 12.93L12.3563 12.9624M12.2617 12.9298C12.2617 12.9297 12.2618 12.9297 12.2618 12.9296L12.3563 12.9624M12.2617 12.9298C12.4277 12.4445 12.5963 11.9617 12.7653 11.4778C12.809 11.3526 12.8528 11.2273 12.8965 11.1018M12.3563 12.9624C12.5222 12.4774 12.6907 11.9949 12.8597 11.5109C12.9034 11.3856 12.9472 11.2602 12.991 11.1346M11.2812 16.3542C11.2815 16.3558 11.2818 16.3574 11.282 16.3589C11.2838 16.3717 11.2813 16.3804 11.281 16.3814L11.281 16.3814C11.281 16.3815 11.281 16.3816 11.281 16.3816C11.281 16.3816 11.2815 16.38 11.2838 16.3746C11.2841 16.3741 11.2843 16.3735 11.2846 16.3728C11.2867 16.3679 11.2907 16.3586 11.2939 16.3492M11.2812 16.3542L11.2942 16.3484L11.2919 16.3476C11.293 16.347 11.294 16.3463 11.2951 16.3456C11.2947 16.3468 11.2943 16.348 11.2939 16.3492M11.2812 16.3542C11.2844 16.3522 11.2877 16.3502 11.2909 16.3482L11.2939 16.3492M11.2812 16.3542L11.2939 16.3492M13.5253 8.07888V8.06543C13.5253 8.06991 13.5253 8.07437 13.5254 8.07883L13.5253 8.07888ZM13.5253 8.07888L13.4632 8.10858C13.4858 8.15596 13.5094 8.20212 13.5323 8.24695L13.5326 8.24753C13.5346 8.25134 13.5365 8.25514 13.5385 8.25893C13.5371 8.24139 13.5355 8.22398 13.5339 8.20661C13.5326 8.19287 13.5313 8.17916 13.5302 8.16543H13.5253V8.07888ZM12.991 11.1346L12.8964 11.1021C12.8964 11.102 12.8965 11.1019 12.8965 11.1018M12.991 11.1346C13.0274 11.0285 13.0653 10.9231 13.1031 10.8179C13.1569 10.668 13.2106 10.5183 13.2601 10.3673M12.991 11.1346L12.8966 11.1017C12.8965 11.1017 12.8965 11.1018 12.8965 11.1018M12.8965 11.1018C12.934 10.9928 12.9721 10.8867 13.0099 10.7814C13.0631 10.6333 13.1157 10.4868 13.1651 10.3361L13.2601 10.3673M13.2601 10.3673L13.1651 10.3362C13.3036 9.91264 13.3982 9.48257 13.4336 9.03769L13.4336 9.03759C13.4532 8.79476 13.4494 8.55472 13.4414 8.30658M13.2601 10.3673L13.4414 8.30658M13.6365 8.231C13.6355 8.21927 13.6344 8.20776 13.6334 8.19657C13.6327 8.18923 13.632 8.18203 13.6314 8.175C13.6279 8.13635 13.6253 8.10089 13.6253 8.06543H13.5534C13.5755 8.11163 13.5986 8.15682 13.6217 8.20201C13.6266 8.21167 13.6316 8.22133 13.6365 8.231Z" fill="white" stroke="black" stroke-width="0.2"/>
<path d="M16.3593 10.3742V10.3829L16.3607 10.3914C16.4062 10.6526 16.6333 10.8448 16.9039 10.8448H24.4554C24.5669 10.8448 24.6611 10.9389 24.6611 11.0504V16.7102C24.6611 16.8217 24.5669 16.9159 24.4554 16.9159H14.5144C14.3275 16.9159 14.1586 17.0032 14.0556 17.1665L14.0547 17.1675L14.0473 17.1748L14.0416 17.1836C13.8711 17.445 13.9525 17.7841 14.2097 17.9519L14.2113 17.9529C14.2982 18.0072 14.3997 18.0422 14.5052 18.0422H24.4276C25.159 18.0422 25.7503 17.4509 25.7503 16.7195V11.0603C25.7599 10.3104 25.1688 9.71846 24.4368 9.71846H16.8946C16.5866 9.71846 16.35 9.96973 16.35 10.2723L16.35 10.276C16.35 10.2984 16.3499 10.3328 16.3593 10.3698V10.3742ZM6.62927 3.23977H6.63846L6.6552 3.23361C6.86991 3.1545 7.01705 2.95073 7.01705 2.71367V2.22273C7.01705 2.11122 7.11122 2.01705 7.22273 2.01705H24.4461C24.5576 2.01705 24.6518 2.11122 24.6518 2.22273V7.88247C24.6518 7.99398 24.5576 8.08815 24.4461 8.08815H16.45C16.1447 8.08815 15.8961 8.33671 15.8961 8.64205C15.8961 8.70272 15.9053 8.75618 15.9239 8.80845V8.81735L15.9301 8.83409C16.0092 9.0488 16.2129 9.19594 16.45 9.19594H24.4276C25.159 9.19594 25.7503 8.60464 25.7503 7.87321V2.22342C25.76 1.5007 25.1683 0.9 24.4368 0.9H7.22273C6.49129 0.9 5.9 1.49129 5.9 2.22273V2.71367C5.9 3.019 6.14856 3.26756 6.45389 3.26756C6.51273 3.26756 6.57385 3.25889 6.62927 3.23977ZM19.5258 6.00019L19.5278 6.00015C20.0428 5.98985 20.4687 5.57739 20.4687 5.05723C20.4687 4.53885 20.0441 4.11429 19.5258 4.11429C19.0074 4.11429 18.5828 4.53885 18.5828 5.05723C18.5828 5.57561 19.0074 6.00017 19.5258 6.00019ZM23.683 13.8664C23.683 13.348 23.2584 12.9235 22.74 12.9235C22.2217 12.9235 21.7971 13.348 21.7971 13.8664C21.7971 14.3848 22.2217 14.8094 22.74 14.8094C23.2584 14.8094 23.683 14.3848 23.683 13.8664ZM20.4687 13.8664C20.4687 13.348 20.0441 12.9235 19.5258 12.9235C19.0074 12.9235 18.5828 13.348 18.5828 13.8664C18.5828 14.3848 19.0074 14.8094 19.5258 14.8094C20.0434 14.8094 20.4687 14.3948 20.4687 13.8664ZM23.683 5.05723C23.683 4.53885 23.2584 4.11429 22.74 4.11429C22.2217 4.11429 21.7971 4.53885 21.7971 5.05723C21.7971 5.57561 22.2217 6.00017 22.74 6.00017C23.2584 6.00017 23.683 5.57561 23.683 5.05723Z" fill="black" stroke="black" stroke-width="0.2"/>
</svg>
