<svg width="257" height="97" viewBox="0 0 257 97" fill="none" xmlns="http://www.w3.org/2000/svg">
<g clip-path="url(#clip0_1040_74)">
<path d="M21.12 58.68C24.82 58.68 27.28 60.35 28.69 63.52H41.45C39.43 53.4 32.74 48.38 21.47 48.38C7.13 48.65 0 56.66 0 72.58C0.35 88.6 7.57 96.69 21.65 96.69C32.47 96.95 39.34 90.88 41.45 81.38H32.65C31.15 81.38 29.83 81.91 28.69 83.05C26.75 85.25 24.38 86.39 21.65 86.39C15.14 86.48 11.88 81.81 11.88 72.57C11.88 63.33 14.96 58.67 21.12 58.67V58.68Z" fill="white"/>
<path d="M53.6799 35.8H47.6099V95.64H59.3099V41.5201C59.3099 38.4401 56.7599 35.8 53.6799 35.8Z" fill="white"/>
<path d="M86.6801 48.39C72.6001 48.39 65.5601 56.4 65.5601 72.59C65.5601 88.78 72.6001 96.7 86.6801 96.7C100.76 96.7 107.89 88.6 107.89 72.59C107.89 56.58 100.76 48.39 86.6801 48.39ZM86.5901 86.23C80.6101 86.23 77.5301 81.65 77.4401 72.59C77.4401 63.35 80.5201 58.69 86.6801 58.69C92.8401 58.69 95.6601 63.18 95.6601 72.24C95.5701 81.48 92.5801 86.23 86.6001 86.23H86.5901Z" fill="white"/>
<path d="M141.06 54.9001V79.4501C141.06 84.6401 138.42 87.1901 133.14 87.1901C127.86 87.1901 125.22 84.6401 125.22 79.4501V49.0901H113.52V77.0701C113.52 84.9001 115.54 90.0101 119.59 92.5601C123.64 95.2001 127.95 96.5201 132.79 96.5201C137.63 96.5201 142.38 95.2901 146.52 92.9101C150.66 90.3601 152.68 85.0801 152.68 77.0701V49.0901H146.7C142.83 49.0901 140.98 51.0301 141.07 54.9001H141.06Z" fill="white"/>
<path d="M145.92 0.670038C133.7 2.73004 122.71 7.43004 116.45 19.36C114.27 23.51 111.93 22.53 108.66 22.08C93.67 20.02 80.67 26.96 76.33 39.32C75.62 41.41 74.24 41.6 78.98 43.56C82.88 45.17 82.43 44.82 85.8 39.37C91.44 30.23 102.66 28.66 112.3 34.55C119.45 38.92 122.33 37.06 123.46 29.26C124.15 24.49 126.89 20.98 130.42 18.1C147.12 4.46004 183.62 7.28004 189.11 39.51V55.58C186.12 50.74 181.63 48.36 175.82 48.36C163.41 48.8 157.25 56.9 157.25 72.74C157.25 88.58 164.47 96.06 178.9 96.32C193.42 96.41 200.72 89.46 200.72 75.46V45.76C200.75 45.42 200.75 45.04 200.72 44.63V41.66C200.72 41.18 200.65 40.72 200.54 40.27C198.56 15.26 172.83 -3.90996 145.92 0.640038V0.670038ZM179.08 86.4C172.39 86.4 169.22 81.65 169.31 72.23C169.66 63.25 172.92 58.85 179.25 58.85C185.58 58.85 188.84 63.25 189.11 72.23C189.11 81.65 185.77 86.4 179.08 86.4Z" fill="white"/>
<path d="M230.41 85.73C229.44 84.43 228.57 83.06 227.81 81.63C226.54 79.25 225.55 76.7 224.89 74.02C224.89 74.02 224.89 74.02 224.89 74.03C224.89 74.01 224.89 74 224.88 73.98C221.89 80.64 215.2 85.27 207.43 85.27V96.35C207.43 96.35 207.44 96.35 207.45 96.35V96.39C216.66 96.39 224.9 92.27 230.44 85.77C230.44 85.76 230.42 85.75 230.42 85.74L230.41 85.73Z" fill="white"/>
<path d="M237.63 66.1501C237.63 49.4701 224.11 35.9501 207.43 35.9501V47.0301C217.99 47.0301 226.55 55.5901 226.55 66.1501C226.55 82.8301 240.07 96.3501 256.75 96.3501V85.2701C246.19 85.2701 237.63 76.7101 237.63 66.1501Z" fill="#0069FF"/>
<path d="M256.75 35.9501C247.54 35.9501 239.3 40.0701 233.76 46.5601C236.33 50.0201 238.24 54.0001 239.3 58.3101C239.3 58.3001 239.31 58.2901 239.31 58.2801C239.31 58.2901 239.31 58.3001 239.31 58.3201C242.3 51.6601 248.99 47.0301 256.76 47.0301V35.9501H256.74H256.75Z" fill="white"/>
</g>
<defs>
<clipPath id="clip0_1040_74">
<rect width="256.77" height="96.7" fill="white"/>
</clipPath>
</defs>
</svg>
