<svg width="54" height="52" viewBox="0 0 54 52" fill="none" xmlns="http://www.w3.org/2000/svg">
<path d="M18.5038 1.47649L18.2045 1.30892L17.9083 1.48174L13.916 3.81075L9.75676 6.13983L9.44991 6.31166V6.66334V15.9901V16.3418L9.75676 16.5136L13.908 18.8382L17.8926 21.3288L18.2042 21.5235L18.5193 21.3345L22.68 18.8382L26.6741 16.5084L26.9718 16.3348V15.9901V6.66334V6.31871L26.6741 6.14506L22.6768 3.81339L22.6769 3.81331L22.6677 3.80816L18.5038 1.47649Z" stroke="#1A4D80" stroke-width="1.2"/>
<path d="M27.5753 16.1393L27.2602 15.9503L26.9486 16.145L22.964 18.6356L18.8127 20.9602L18.5059 21.132V21.4837V30.8105V31.1621L18.8127 31.3339L22.972 33.6635L26.9643 35.9925L27.2605 36.1653L27.5598 35.9978L31.7236 33.6661L31.7237 33.6662L31.7328 33.6608L35.7302 31.3287L36.0278 31.1551V30.8105V21.4837V21.139L35.7301 20.9654L31.736 18.6356L27.5753 16.1393Z" stroke="#1A4D80" stroke-width="1.2"/>
<path d="M36.6159 30.6567L36.3166 30.4891L36.0204 30.6619L32.0281 32.9909L27.8688 35.32L27.562 35.4918V35.8435V45.3367V45.6884L27.8688 45.8602L32.028 48.1893L36.0204 50.5183L36.3166 50.6911L36.6159 50.5236L40.7797 48.1919L40.7798 48.192L40.7889 48.1867L44.7862 45.855L45.0839 45.6814V45.3367V35.8435V35.4989L44.7862 35.3252L40.7889 32.9936L40.7889 32.9935L40.7797 32.9883L36.6159 30.6567Z" stroke="#1A4D80" stroke-width="1.2"/>
<path d="M44.6661 6.30608L44.3669 6.13852L44.0707 6.31132L40.0734 8.64298L40.0733 8.64294L40.067 8.64675L35.9031 11.145L35.6118 11.3197V11.6595V20.9862V21.3379L35.9187 21.5098L40.0779 23.8389L44.0707 26.1679L44.3669 26.3407L44.6661 26.1731L48.83 23.8414L48.8301 23.8415L48.8392 23.8362L52.8365 21.5045L53.1342 21.3309V20.9862V11.6595V11.3269L52.8522 11.1506L48.8548 8.65245L48.8426 8.6448L48.83 8.63775L44.6661 6.30608Z" stroke="#1A4D80" stroke-width="1.2"/>
<path d="M10.4543 25.624L10.1551 25.4564L9.85888 25.6292L5.8661 27.9582L1.70685 30.2873L1.4 30.4591V30.8108V40.1376V40.4773L1.69131 40.6521L5.85517 43.1503L5.85515 43.1503L5.86155 43.1541L9.85888 45.4857L10.1551 45.6585L10.4543 45.491L14.6182 43.1593L14.6308 43.1522L14.6431 43.1446L18.6399 40.6464L18.9219 40.4701V40.1376V30.8108V30.4662L18.6243 30.2925L14.6274 27.9609L14.6274 27.9608L14.6182 27.9556L10.4543 25.624Z" stroke="#1A4D80" stroke-width="1.2"/>
<path d="M28.1357 22.3838C27.5975 22.3849 27.0693 22.5347 26.6052 22.8176C26.1413 23.1006 25.7582 23.5066 25.4955 23.994C25.2693 23.8797 25.0211 23.8202 24.7695 23.8198C24.3753 23.8209 23.9941 23.9672 23.6942 24.2327C23.3943 24.4983 23.195 24.8657 23.1319 25.2695C22.7154 25.4505 22.3598 25.7551 22.1097 26.1451C21.8595 26.5351 21.7261 26.9931 21.726 27.4616C21.7266 28.0917 21.9684 28.6957 22.3981 29.141C22.8278 29.5862 23.4104 29.8361 24.0177 29.8358C24.1138 29.8349 24.2098 29.8278 24.305 29.8144H30.6727C30.7061 29.8169 30.7396 29.8185 30.7731 29.8194C30.805 29.8185 30.837 29.8168 30.8688 29.8144H31.0213V29.8026C31.5398 29.739 32.0178 29.4793 32.3648 29.0727C32.7119 28.6661 32.9037 28.141 32.9041 27.5968V27.5925C32.9029 27.0756 32.729 26.5754 32.4122 26.1778C32.0954 25.7802 31.6556 25.5101 31.1684 25.414C31.1395 24.5998 30.8073 23.829 30.2416 23.2638C29.6759 22.6986 28.921 22.3831 28.1357 22.3838Z" fill="#2CC185"/>
<path d="M49.2832 17.8894C49.7984 17.8498 50.2146 18.1866 50.2542 18.7018C50.2938 19.2368 49.9173 19.6727 49.4021 19.7124C48.9068 19.752 48.4709 19.3755 48.4312 18.8801C48.3916 18.3451 48.7483 17.9488 49.2832 17.8894Z" fill="#2CC185"/>
<path d="M43.0217 22.1097C43.0217 21.5945 43.4181 21.1982 43.8936 21.1982C44.3692 21.1982 44.8249 21.6342 44.8249 22.1295C44.8249 22.6051 44.4286 23.0212 43.9729 23.041C43.3982 23.041 43.0217 22.6843 43.0217 22.1097Z" fill="#2CC185"/>
<path d="M44.4286 16.3237C44.3494 16.3633 44.3097 16.3039 44.2899 16.2445C43.5568 14.8772 43.7747 13.1533 45.0627 12.123C45.3996 11.8456 46.0336 11.7861 46.311 12.0635C46.4299 12.1626 46.4498 12.2815 46.4696 12.4202C46.5092 12.7174 46.5686 13.0146 46.7668 13.2524C46.9848 13.51 47.2622 13.6091 47.5792 13.5893C47.8566 13.5893 48.134 13.5496 48.3124 13.8667C48.4114 14.045 48.3718 14.7385 48.2133 14.8772C48.134 14.9367 48.0746 14.897 48.0151 14.8772C47.5594 14.6989 47.0838 14.6989 46.6083 14.7781C46.4498 14.798 46.3705 14.7583 46.3705 14.58C46.3507 14.2828 46.2912 14.0054 46.1327 13.7478C45.8355 13.2128 45.2807 13.193 44.924 13.6883C44.6268 14.0846 44.5475 14.5602 44.4683 15.0357C44.389 15.4519 44.4088 15.8878 44.4286 16.3237Z" fill="#2CC185"/>
<path d="M44.924 16.6208C44.8844 16.5614 44.9042 16.5019 44.9636 16.4623C46.0931 15.4319 47.7773 15.2338 49.0851 16.2443C49.422 16.5218 49.6399 17.0964 49.4616 17.4332C49.3823 17.5719 49.2833 17.6314 49.1644 17.671C48.887 17.7899 48.6294 17.9088 48.451 18.1664C48.2727 18.424 48.2331 18.7212 48.3123 19.0382C48.3718 19.2958 48.4709 19.5732 48.2133 19.811C48.0746 19.9497 47.4009 20.0686 47.2225 19.9497C47.1433 19.8903 47.1631 19.8308 47.1829 19.7516C47.2423 19.2562 47.1234 18.8005 46.9451 18.3645C46.8857 18.206 46.9055 18.1268 47.064 18.0871C47.3414 18.0079 47.599 17.8692 47.7971 17.671C48.2331 17.2549 48.134 16.7199 47.5594 16.4821C47.1036 16.284 46.6281 16.3236 46.1723 16.3632C45.7364 16.3831 45.3203 16.5019 44.924 16.6208Z" fill="#2CC185"/>
<path d="M44.6664 17.1366C44.7258 17.0772 44.7655 17.097 44.8249 17.1366C46.1327 17.9292 46.8064 19.4946 46.2119 21.0203C46.0534 21.4167 45.5383 21.8129 45.1618 21.7139C45.0032 21.6742 44.924 21.595 44.8447 21.4959C44.6664 21.2581 44.4682 21.0402 44.171 20.9411C43.854 20.842 43.5766 20.9015 43.2992 21.06C43.0614 21.1987 42.8236 21.377 42.5264 21.1987C42.3481 21.0996 42.0508 20.4853 42.1103 20.2872C42.1499 20.2079 42.2292 20.2079 42.3084 20.2079C42.8038 20.1287 43.2001 19.8909 43.5766 19.5739C43.6955 19.4748 43.7945 19.4748 43.8936 19.6135C44.0521 19.8513 44.2503 20.0494 44.5079 20.1881C45.0231 20.4853 45.5184 20.2277 45.5779 19.6333C45.6373 19.1379 45.459 18.702 45.3005 18.2661C45.1221 17.8698 44.9042 17.4933 44.6664 17.1366Z" fill="#2CC185"/>
<path d="M44.0323 17.2553C43.9531 17.6516 43.7747 18.0281 43.537 18.365C42.8236 19.435 41.7932 19.8709 40.5251 19.752C40.0693 19.7124 39.6929 19.3359 39.6532 18.9594C39.6334 18.8009 39.6731 18.682 39.7721 18.5631C39.9108 18.3848 40.0297 18.2262 40.0892 18.0083C40.2081 17.5724 40.0495 17.2157 39.7325 16.8986C39.2966 16.4627 39.356 16.0664 39.8712 15.7494C39.9307 15.7098 40.0099 15.6701 40.0892 15.6305C40.2081 15.5711 40.3071 15.5711 40.3468 15.7098C40.5251 16.1655 40.8818 16.5024 41.2781 16.7798C41.4168 16.8986 41.4168 16.9779 41.2979 17.1166C41.0601 17.3742 40.9214 17.6912 40.9016 18.0479C40.8619 18.4838 41.1195 18.7612 41.5555 18.7612C41.8329 18.7612 42.0905 18.6622 42.3282 18.5433C42.9425 18.2262 43.4181 17.7705 43.8738 17.295C43.9332 17.2751 43.9531 17.2355 44.0323 17.2553Z" fill="#2CC185"/>
<path d="M40.7827 13.0941C40.8223 13.0941 40.9214 13.1139 41.0205 13.1338C41.7536 13.2725 42.2094 13.0149 42.4471 12.3213C42.6057 11.8656 42.9425 11.7269 43.3784 11.9647C43.3983 11.9647 43.3983 11.9845 43.4181 11.9845C43.8738 12.2421 43.8738 12.2817 43.5964 12.678C43.3586 12.995 43.2397 13.3517 43.1803 13.7282C43.1407 13.9462 43.0614 13.9858 42.8632 13.9065C42.5462 13.7876 42.2094 13.7876 41.8725 13.9065C41.496 14.0254 41.3375 14.3623 41.4564 14.7387C41.6149 15.2341 42.0508 15.4521 42.4273 15.7097C42.8038 15.9673 43.2397 16.106 43.6558 16.2843C43.7153 16.3041 43.8144 16.3041 43.7945 16.4032C43.7747 16.4627 43.6955 16.4627 43.6162 16.4627C42.7246 16.5023 41.8725 16.3636 41.179 15.7691C40.5251 15.2341 40.0495 14.5802 40.1288 13.6688C40.1882 13.3715 40.4062 13.1536 40.7827 13.0941Z" fill="#2CC185"/>
<path d="M39.1579 18.662C38.6823 18.7214 38.2068 18.3251 38.1671 17.8298C38.1275 17.3542 38.5238 16.8786 38.9795 16.839C39.4947 16.7796 39.9703 17.1362 40.0099 17.6118C40.0297 18.0675 39.7325 18.6223 39.1579 18.662Z" fill="#2CC185"/>
<path d="M47.4801 11.6077C47.9755 11.5681 48.451 11.9644 48.4907 12.4598C48.5303 12.9353 48.134 13.391 47.6584 13.4307C47.1433 13.4703 46.6875 13.0938 46.6479 12.5985C46.6083 12.1031 46.9649 11.6473 47.4801 11.6077Z" fill="#2CC185"/>
<path d="M42.3084 11.9845C42.3679 12.4997 42.0112 12.9357 41.4762 13.0149C41.0205 13.0744 40.5449 12.6979 40.4855 12.2619C40.426 11.6873 40.743 11.2712 41.278 11.2118C41.7734 11.1523 42.249 11.5288 42.3084 11.9845Z" fill="#2CC185"/>
<path d="M23.6986 11.1896C23.6986 8.31164 21.3323 5.94531 18.4224 5.94531C15.5124 5.94531 13.1781 8.31164 13.1781 11.1896V15.2827C13.1781 15.9222 13.6897 16.4659 14.3612 16.4659H18.4224C21.3323 16.4659 23.6986 14.0995 23.6986 11.1896Z" fill="#2CC185"/>
<path opacity="0.5" d="M19.9893 7.19189C18.6143 7.19189 17.4951 8.3111 17.4951 9.65416V10.9652H16.184C14.841 10.9652 13.7218 12.0525 13.7218 13.4275C13.7218 14.8025 14.841 15.8897 16.184 15.8897C17.559 15.8897 18.6782 14.8025 18.6782 13.4275V12.1164H19.9893C21.3324 12.1164 22.4516 11.0292 22.4516 9.65416C22.4516 8.3111 21.3324 7.19189 19.9893 7.19189ZM19.9893 8.34309C20.6928 8.34309 21.2684 8.95065 21.2684 9.65416C21.2684 10.3896 20.6928 10.9652 19.9893 10.9652H19.9573H18.8701C18.7422 10.9652 18.6782 10.8693 18.6782 10.7734V9.65416C18.6782 8.95065 19.2538 8.34309 19.9893 8.34309ZM16.184 12.1164H17.3032C17.4311 12.1164 17.4951 12.2123 17.4951 12.3083V13.4275C17.4951 14.163 16.9195 14.7386 16.184 14.7386C15.4805 14.7386 14.8729 14.163 14.8729 13.4275C14.8729 12.724 15.4805 12.1164 16.184 12.1164ZM22.2277 15.2182V15.2822H22.3237V15.57H22.3876V15.2822H22.4835V15.2182H22.2277ZM22.5155 15.2182V15.57H22.5795V15.3781L22.6754 15.57L22.7713 15.3781V15.57H22.8353V15.2182H22.7713L22.7074 15.3781L22.6754 15.442V15.3781L22.5795 15.2182H22.5155Z" fill="white"/>
<path d="M17.4952 10.9652V9.65416C17.4952 8.3111 18.6144 7.19189 19.9575 7.19189C20.1813 7.19189 20.3092 7.22388 20.5011 7.25586C20.7889 7.35178 21.0127 7.57562 21.0127 7.83144C21.0127 8.15122 20.7889 8.37505 20.4371 8.37505C20.2772 8.37505 20.2133 8.34309 19.9575 8.34309C19.2539 8.34309 18.6784 8.95065 18.6784 9.65416V10.7734C18.6784 10.9013 18.7423 10.9652 18.8382 10.9652H19.7016C20.0214 10.9652 20.2772 11.221 20.2772 11.5408C20.2772 11.8606 20.0214 12.1164 19.7016 12.1164H18.6784V13.4275C18.6784 14.8025 17.5592 15.8897 16.1841 15.8897C15.9923 15.8897 15.8324 15.8897 15.6405 15.8258C15.3847 15.7618 15.1609 15.538 15.1609 15.2502C15.1609 14.9304 15.3847 14.7066 15.7364 14.7066C15.8963 14.7066 15.9603 14.7386 16.1841 14.7386C16.9196 14.7386 17.4952 14.163 17.4952 13.4275V12.3083C17.4952 12.2123 17.4312 12.1164 17.3033 12.1164H16.4719C16.1521 12.1164 15.8963 11.8606 15.8963 11.5408C15.8963 11.221 16.1521 10.9652 16.4719 10.9652H17.4952Z" fill="white"/>
<path d="M10.9703 35.8688C10.7742 35.8715 11.0074 35.9698 11.2634 36.0092C11.3342 35.954 11.3983 35.8981 11.4555 35.8438C11.2961 35.8828 11.1338 35.8837 10.9703 35.8688Z" fill="#2CC185"/>
<path d="M12.0227 35.6066C12.1394 35.4454 12.2246 35.2689 12.2546 35.0864C12.2284 35.2165 12.1578 35.3288 12.0913 35.4473C11.7247 35.6782 12.0568 35.3102 12.0911 35.1705C11.6969 35.6666 12.037 35.468 12.0227 35.6066Z" fill="#2CC185"/>
<path d="M12.4115 34.5962C12.4352 34.2431 12.342 34.3547 12.3107 34.4895C12.3472 34.5085 12.3761 34.7384 12.4115 34.5962Z" fill="#2CC185"/>
<path d="M10.2266 29.7695C10.3313 29.7883 10.4527 29.8027 10.4357 29.8277C10.5502 29.8026 10.5762 29.7795 10.2266 29.7695Z" fill="#2CC185"/>
<path d="M10.4355 29.8281L10.3615 29.8434L10.4303 29.8373L10.4355 29.8281Z" fill="#2CC185"/>
<path d="M13.699 34.7299C13.7107 35.0471 13.6062 35.201 13.512 35.4734L13.3426 35.5581C13.2039 35.8274 13.356 35.7291 13.2567 35.9433C13.0401 36.1358 12.5996 36.5457 12.4586 36.5832C12.3556 36.5809 12.5283 36.4617 12.5509 36.415C12.261 36.6141 12.3183 36.7138 11.875 36.8347L11.862 36.8059C10.7687 37.3203 9.25 36.3009 9.26998 34.9101C9.2583 34.9984 9.2368 34.9764 9.21257 35.0121C9.15614 34.2965 9.54303 33.5777 10.1955 33.2842C10.8338 32.9683 11.582 33.0979 12.0392 33.524C11.788 33.1951 11.2882 32.8464 10.6958 32.879C10.1156 32.8882 9.57271 33.257 9.39154 33.6573C9.09426 33.8444 9.05978 34.3788 8.93024 34.4765C8.75594 35.7575 9.25808 36.3109 10.1075 36.9619C10.2412 37.052 10.1451 37.0656 10.1632 37.1343C9.88102 37.0021 9.62258 36.8026 9.4101 36.5584C9.52283 36.7234 9.64453 36.8838 9.80179 37.0099C9.53572 36.9197 9.18026 36.3651 9.07648 36.3425C9.53517 37.1638 10.9375 37.7828 11.6717 37.4757C11.332 37.4882 10.9003 37.4826 10.5186 37.3415C10.3583 37.259 10.1402 37.0881 10.1792 37.0562C11.1812 37.4305 12.2164 37.3397 13.0835 36.6446C13.304 36.4728 13.545 36.1806 13.6146 36.1765C13.5097 36.3342 13.6325 36.2524 13.552 36.3916C13.7718 36.0372 13.4565 36.2473 13.7792 35.7795L13.8984 35.9436C13.8541 35.6494 14.2638 35.2921 14.2222 34.8267C14.3161 34.6844 14.3271 34.9799 14.2273 35.3073C14.3657 34.9441 14.2638 34.8857 14.2993 34.586C14.3378 34.6867 14.3882 34.7938 14.414 34.9001C14.3239 34.5491 14.5066 34.309 14.5518 34.105C14.5073 34.0853 14.4126 34.2602 14.391 33.8456C14.3942 33.6656 14.4411 33.7512 14.4592 33.7069C14.4239 33.6866 14.3311 33.5486 14.2747 33.2838C14.3156 33.2216 14.384 33.4451 14.4397 33.4543C14.4039 33.2437 14.3422 33.0832 14.3397 32.9217C14.1771 32.5818 14.2822 32.967 14.1503 32.7758C13.9772 32.2359 14.2939 32.6505 14.3153 32.4052C14.5776 32.7853 14.7273 33.3744 14.7959 33.6184C14.7435 33.3209 14.6588 33.0327 14.5555 32.7538C14.6352 32.7874 14.4271 32.1417 14.659 32.5693C14.4113 31.6578 13.5988 30.8061 12.8513 30.4065C12.9428 30.4902 13.0583 30.5953 13.0168 30.6117C12.6451 30.3904 12.7104 30.3732 12.6572 30.2796C12.3543 30.1564 12.3345 30.2896 12.1339 30.2799C11.5631 29.9771 11.4531 30.0093 10.9278 29.8196L10.9517 29.9313C10.5736 29.8053 10.5112 29.9791 10.1025 29.9317C10.0776 29.9123 10.2334 29.8614 10.3617 29.8428C9.99605 29.891 10.0132 29.7707 9.65545 29.8561C9.74362 29.7942 9.83681 29.7533 9.93089 29.7007C9.63274 29.7188 9.21913 29.8742 9.34681 29.7329C8.8605 29.9498 7.99681 30.2544 7.51214 30.7089L7.49686 30.607C7.27477 30.8737 6.52839 31.4033 6.46892 31.7486L6.40955 31.7625C6.29398 31.9581 6.21922 32.1799 6.12755 32.3813C5.9764 32.6388 5.90601 32.4803 5.9275 32.5207C5.63022 33.1235 5.48256 33.63 5.35498 34.0453C5.44589 34.1812 5.35716 34.8633 5.39154 35.4092C5.24225 38.1053 7.28372 40.723 9.51519 41.3274C9.84228 41.4444 10.3287 41.4399 10.7424 41.4519C10.2543 41.3123 10.1912 41.3779 9.71569 41.2121C9.37267 41.0506 9.29748 40.8662 9.05455 40.6553L9.15069 40.8252C8.6742 40.6566 8.87359 40.6166 8.48595 40.4938L8.58864 40.3597C8.43421 40.348 8.17961 40.0994 8.10998 39.9618L7.94104 39.9684C7.73804 39.7179 7.6299 39.5374 7.63776 39.3976L7.58319 39.4949C7.52131 39.3887 6.83637 38.5556 7.19172 38.7495C7.1257 38.6891 7.03795 38.6513 6.94278 38.4784L7.01514 38.3957C6.84412 38.1756 6.70039 37.8937 6.7113 37.7997C6.80255 37.9229 6.86584 37.9459 6.92848 37.967C6.49663 36.8955 6.4724 37.908 6.14533 36.8763L6.21452 36.8707C6.16148 36.7908 6.1293 36.7041 6.08662 36.619L6.11674 36.3188C5.80582 35.9593 6.02977 34.7903 6.07462 34.1491C6.10571 33.8884 6.33414 33.6109 6.50788 33.1756L6.40202 33.1574C6.60435 32.8045 7.55732 31.74 7.99867 31.7948C8.21245 31.5262 7.95621 31.7938 7.91442 31.7261C8.38403 31.2401 8.53168 31.3828 8.84861 31.2954C9.19042 31.0925 8.55525 31.3745 8.71732 31.218C9.30818 31.0671 9.13607 30.8749 9.90688 30.7983C9.98819 30.8445 9.71819 30.8697 9.65042 30.9298C10.1427 30.6889 11.2083 30.7437 11.9005 31.0634C12.7036 31.4388 13.6059 32.5482 13.6415 33.5921L13.682 33.603C13.6615 34.018 13.7455 34.4978 13.5999 34.9386L13.699 34.7299Z" fill="#2CC185"/>
<path d="M8.82943 36.1387L8.80194 36.2762C8.93082 36.4512 9.03307 36.6409 9.19765 36.7778C9.07925 36.5466 8.99128 36.4511 8.82943 36.1387Z" fill="#2CC185"/>
<path d="M9.13458 36.1273C9.06636 36.0519 9.02599 35.9611 8.98079 35.8706C9.02402 36.0296 9.11252 36.1662 9.19493 36.3052L9.13458 36.1273Z" fill="#2CC185"/>
<path d="M14.5261 34.9561L14.4972 35.0283C14.4444 35.4035 14.3304 35.7748 14.1555 36.119C14.3487 35.7558 14.4737 35.3585 14.5261 34.9561Z" fill="#2CC185"/>
<path d="M10.2653 29.6748C10.3979 29.6263 10.5912 29.6482 10.7319 29.6162C10.5486 29.6316 10.3661 29.6408 10.1859 29.664L10.2653 29.6748Z" fill="#2CC185"/>
<path d="M5.60992 32.1494C5.64048 32.4323 5.3971 32.5421 5.66382 32.3556C5.8068 32.0335 5.60795 32.2666 5.60992 32.1494Z" fill="#2CC185"/>
<path d="M5.29663 33.4598C5.35808 33.2712 5.36921 33.158 5.39267 33.0488C5.22286 33.2659 5.31453 33.3122 5.29663 33.4598Z" fill="#2CC185"/>
<mask id="mask0_257_56" style="mask-type:luminance" maskUnits="userSpaceOnUse" x="30" y="34" width="13" height="13">
<path d="M42.1096 34.2192H30.274V46.0549H42.1096V34.2192Z" fill="white"/>
</mask>
<g mask="url(#mask0_257_56)">
<path d="M32.8778 38.4712H34.8463L34.5417 39.6384C34.4999 39.7941 34.4081 39.9318 34.2804 40.0303C34.1535 40.1287 33.9968 40.181 33.8362 40.1784H32.9214C32.7222 40.1756 32.5279 40.24 32.3697 40.3613C32.2078 40.4867 32.0902 40.6607 32.0344 40.8577C31.9941 41.0026 31.9896 41.155 32.0214 41.302C32.0505 41.436 32.108 41.5622 32.19 41.6721C32.2731 41.781 32.3805 41.869 32.5036 41.9291C32.6335 41.9935 32.7767 42.0263 32.9217 42.0249H33.4791C33.5289 42.024 33.5782 42.035 33.6228 42.057C33.6675 42.079 33.7063 42.1112 33.7361 42.1512C33.7686 42.1897 33.791 42.2359 33.8011 42.2853C33.8113 42.3348 33.8089 42.386 33.7941 42.4343L33.4457 43.7233H32.836C32.4347 43.7273 32.0385 43.6332 31.6819 43.449C31.3395 43.2742 31.04 43.0258 30.8048 42.7217C30.5717 42.4178 30.4095 42.0657 30.3302 41.691C30.246 41.2974 30.2565 40.8894 30.3609 40.5006L30.3958 40.37C30.5431 39.8243 30.8659 39.3422 31.3144 38.9982C31.5343 38.8314 31.7793 38.7006 32.0402 38.6106C32.3096 38.5172 32.5928 38.4701 32.8778 38.4712Z" fill="#2CC185"/>
<path d="M33.8708 43.7235L35.587 37.2955C35.6288 37.1398 35.7206 37.0021 35.8483 36.9036C35.975 36.8051 36.1317 36.7529 36.2922 36.7555H38.1129C38.5142 36.7515 38.9103 36.8457 39.2669 37.0299C39.609 37.2044 39.908 37.4528 40.1422 37.7571C40.3765 38.0614 40.5401 38.4139 40.6213 38.7893C40.7085 39.1828 40.6965 39.5919 40.5865 39.9796L40.5516 40.1103C40.4782 40.3845 40.3605 40.6448 40.2033 40.8811C39.9705 41.2315 39.6546 41.5187 39.2837 41.717C38.9129 41.9154 38.4986 42.0187 38.078 42.0178H36.5015L36.8151 40.8419C36.8586 40.6894 36.9503 40.555 37.0764 40.4587C37.2033 40.3602 37.36 40.308 37.5206 40.3106H38.0257C38.2292 40.3108 38.427 40.2433 38.5878 40.1188C38.7487 39.9942 38.8635 39.8196 38.9142 39.6225C38.9543 39.4831 38.9583 39.3357 38.9258 39.1943C38.8963 39.0602 38.8384 38.934 38.7559 38.8241C38.6722 38.7147 38.5651 38.6255 38.4424 38.5628C38.3137 38.496 38.1707 38.4616 38.0257 38.4626H37.0502L35.7786 43.1922C35.735 43.3447 35.6434 43.4791 35.5173 43.5754C35.3932 43.6729 35.2396 43.7251 35.0818 43.7235H33.8708Z" fill="#2CC185"/>
<path d="M40.7601 37.6935H40.6524V36.8631H40.3592V36.7676H41.0534V36.8631H40.7601V37.6935Z" fill="#2CC185"/>
<path d="M41.6024 37.6935L41.2882 36.8715H41.2833C41.2891 36.9366 41.292 37.014 41.292 37.1038V37.6935H41.1927V36.7676H41.3547L41.648 37.5312H41.6532L41.9487 36.7676H42.1096V37.6935H42.0033V37.0968C42.0033 37.0283 42.0065 36.9543 42.0123 36.8739H42.0074L41.6892 37.6935H41.6024Z" fill="#2CC185"/>
</g>
</svg>
