<?xml version="1.0" encoding="UTF-8"?>
<svg width="752pt" height="752pt" version="1.1" viewBox="0 0 752 752" xmlns="http://www.w3.org/2000/svg" fill="#1a4d80">
 <defs>
  <clipPath id="a">
   <path d="m139.21 139.21h473.58v473.58h-473.58z"/>
  </clipPath>
 </defs>
 <g clip-path="url(#a)">
  <path fill="#1a4d80" d="m612.79 423.36v-94.715l-63.98-4.168c-3.582-11.934-8.3438-23.484-14.207-34.477l42.242-48.164-66.918-66.727-48.117 42.336c-10.973-5.9023-22.527-10.664-34.477-14.207l-3.9766-64.027h-94.715l-4.0742 63.98c-11.953 3.5234-23.508 8.2852-34.477 14.207l-48.117-42.289-66.82 66.867 42.242 48.164c-5.8672 10.992-10.625 22.543-14.207 34.477l-63.98 4.0273v94.715l63.98 4.0742c3.5664 11.938 8.3242 23.488 14.207 34.477l-42.148 48.16 66.824 66.824 48.07-42.34h-0.003906c10.977 5.9062 22.527 10.668 34.477 14.211l4.0273 64.027h94.715l4.168-63.98c11.961-3.5078 23.516-8.2734 34.477-14.207l48.07 42.34 66.871-66.773-42.438-48.215c5.8984-10.98 10.66-22.531 14.207-34.477zm-236.79 37.414c-22.449-0.011719-43.973-8.9414-59.844-24.82-15.867-15.879-24.785-37.406-24.785-59.855 0-22.449 8.918-43.98 24.785-59.859 15.871-15.879 37.395-24.805 59.844-24.82 22.449-0.011719 43.988 8.8906 59.875 24.754 15.887 15.859 24.824 37.379 24.852 59.828 0.023438 22.484-8.8945 44.055-24.785 59.953-15.895 15.902-37.457 24.832-59.941 24.82z"/>
 </g>
</svg>
