<svg xmlns="http://www.w3.org/2000/svg" viewBox="0 0 288.54 288.54"><defs><style>.cls-1{fill:#3f3f5e;}.cls-2{fill:#2cc185;}</style></defs><title>Asset 7</title><g id="Layer_2" data-name="Layer 2"><g id="Layer_1-2" data-name="Layer 1"><path class="cls-1" d="M273.77,114l-20.25-3.43a114.09,114.09,0,0,0-8.14-19.65l11.94-16.7a17.78,17.78,0,0,0-1.93-23l-18-18A17.73,17.73,0,0,0,224.83,28a17.46,17.46,0,0,0-10.31,3.32L197.77,43.28a112.73,112.73,0,0,0-20.38-8.38l-3.37-20A17.81,17.81,0,0,0,156.42,0H131a17.81,17.81,0,0,0-17.6,14.89L110,35.38a111.42,111.42,0,0,0-19.59,8.26L73.78,31.7a17.83,17.83,0,0,0-23,1.93l-18,18a17.84,17.84,0,0,0-1.93,23L42.92,91.5a111.46,111.46,0,0,0-8,19.71l-20,3.37A17.82,17.82,0,0,0,0,132.19v25.37a17.81,17.81,0,0,0,14.89,17.6l20.49,3.5a112.06,112.06,0,0,0,8.26,19.59L31.77,214.76a17.78,17.78,0,0,0,1.92,23l18,18a17.7,17.7,0,0,0,22.9,1.93L91.5,245.57a114.55,114.55,0,0,0,19,7.83l3.37,20.25a17.81,17.81,0,0,0,17.6,14.89H157a17.81,17.81,0,0,0,17.6-14.89L178,253.4a113.87,113.87,0,0,0,19.66-8.14l16.69,11.94a17.83,17.83,0,0,0,23-1.93l18-18a17.85,17.85,0,0,0,1.93-23l-11.94-16.76a112.86,112.86,0,0,0,8.14-19.64l20.25-3.38A17.81,17.81,0,0,0,288.54,157V131.58A17.6,17.6,0,0,0,273.77,114Zm-1.38,43a1.55,1.55,0,0,1-1.33,1.56l-25.31,4.23a8.07,8.07,0,0,0-6.51,6A96.62,96.62,0,0,1,228.75,194a8.14,8.14,0,0,0,.36,8.86l14.89,21a1.66,1.66,0,0,1-.18,2.06l-18,18a1.56,1.56,0,0,1-1.15.48,1.53,1.53,0,0,1-.91-.3l-20.91-14.89a8.14,8.14,0,0,0-8.86-.36,96.48,96.48,0,0,1-25.26,10.49,8,8,0,0,0-6,6.51l-4.28,25.31a1.55,1.55,0,0,1-1.56,1.33H131.58a1.57,1.57,0,0,1-1.57-1.33l-4.21-25.31a8.1,8.1,0,0,0-6-6.51,100.71,100.71,0,0,1-24.72-10.13A8.34,8.34,0,0,0,91,228a8,8,0,0,0-4.71,1.5l-21.09,15a1.79,1.79,0,0,1-.91.3,1.61,1.61,0,0,1-1.14-.48l-18-18a1.63,1.63,0,0,1-.18-2.05l14.82-20.8a8.26,8.26,0,0,0,.37-8.92,95.18,95.18,0,0,1-10.61-25.19,8.26,8.26,0,0,0-6.51-6l-25.5-4.34a1.56,1.56,0,0,1-1.32-1.57V132.19a1.56,1.56,0,0,1,1.32-1.57l25.13-4.22a8.15,8.15,0,0,0,6.58-6,96,96,0,0,1,10.3-25.31,8,8,0,0,0-.42-8.8l-15-21.1a1.65,1.65,0,0,1,.18-2l18-18A1.58,1.58,0,0,1,64.38,45L85.17,59.79a8.26,8.26,0,0,0,8.92.37,95.72,95.72,0,0,1,25.2-10.61,8.26,8.26,0,0,0,6-6.51l4.34-25.5a1.57,1.57,0,0,1,1.57-1.33h25.38a1.56,1.56,0,0,1,1.56,1.33l4.22,25.14a8.16,8.16,0,0,0,6,6.56,98,98,0,0,1,25.86,10.61,8.14,8.14,0,0,0,8.86-.36l20.8-15a1.79,1.79,0,0,1,.9-.3,1.61,1.61,0,0,1,1.14.48l18,18a1.64,1.64,0,0,1,.18,2L229.17,85.65a8.14,8.14,0,0,0-.36,8.86,97,97,0,0,1,10.49,25.26,8,8,0,0,0,6.5,6L271.12,130a1.58,1.58,0,0,1,1.33,1.57V157Z"/><path class="cls-2" d="M144.3,82a62.26,62.26,0,1,0,62.27,62.26A62.31,62.31,0,0,0,144.3,82Zm0,108.25a46,46,0,1,1,46-46,46,46,0,0,1-46,46Z"/></g></g></svg>