<svg xmlns="http://www.w3.org/2000/svg" viewBox="0 0 255.55 255.57"><defs><style>.cls-1{fill:#2cc185;}</style></defs><title>icon_13</title><g id="Layer_2" data-name="Layer 2"><g id="Layer_1-2" data-name="Layer 1"><path class="cls-1" d="M249,80.43a22.48,22.48,0,0,0-31.76,0L194.67,103V43.64a22.31,22.31,0,0,0-6.58-15.88L166.91,6.58A22.31,22.31,0,0,0,151,0H22.46A22.49,22.49,0,0,0,0,22.46V233.11a22.49,22.49,0,0,0,22.46,22.46H172.21a22.49,22.49,0,0,0,22.46-22.46V166.53L249,112.19A22.44,22.44,0,0,0,249,80.43Zm-75.47,86.11-4,4-15.88,5.3L158.86,160l4-4ZM184.08,156l-10.59-10.59,36-36,10.59,10.58ZM156.33,17.17,177.5,38.35c2.38,2.37,2.2,5,2.2,6.57H149.75V15A8.18,8.18,0,0,1,156.33,17.17Zm15.88,223.42H22.46A7.5,7.5,0,0,1,15,233.11V22.46A7.5,7.5,0,0,1,22.46,15H134.77V52.41a7.49,7.49,0,0,0,7.49,7.49H179.7V118l-22.1,22.11L147,150.65a7.63,7.63,0,0,0-1.81,2.93l-10.59,31.77a7.49,7.49,0,0,0,9.47,9.47l31.77-10.59a7.56,7.56,0,0,0,2.93-1.81l.91-.91v51.6A7.5,7.5,0,0,1,172.21,240.59Zm66.16-139-7.71,7.72L220.07,98.74,227.79,91a7.48,7.48,0,1,1,10.58,10.59Z"/><path class="cls-1" d="M37.44,89.85H142.26a7.49,7.49,0,1,0,0-15H37.44a7.49,7.49,0,0,0,0,15Z"/><path class="cls-1" d="M37.44,119.8h74.87a7.49,7.49,0,0,0,0-15H37.44a7.49,7.49,0,1,0,0,15Z"/><path class="cls-1" d="M37.44,149.75h74.87a7.49,7.49,0,1,0,0-15H37.44a7.49,7.49,0,0,0,0,15Z"/><path class="cls-1" d="M119.8,172.21a7.49,7.49,0,0,0-7.49-7.49H37.44a7.49,7.49,0,0,0,0,15h74.87A7.5,7.5,0,0,0,119.8,172.21Z"/><path class="cls-1" d="M142.26,210.64H97.34a7.49,7.49,0,0,0,0,15h44.92a7.49,7.49,0,0,0,0-15Z"/></g></g></svg>