<svg id="Layer_1" data-name="Layer 1" xmlns="http://www.w3.org/2000/svg" viewBox="0 0 48 48"><defs><style>.cls-1{fill:#2d2d56;}.cls-2,.cls-3{fill:#2cc185;}.cls-3{fill-rule:evenodd;}</style></defs><path class="cls-1" d="M45.13.77H31.19a3.87,3.87,0,0,0-3.87,3.87V18.57a3.88,3.88,0,0,0,3.87,3.88H45.13A3.88,3.88,0,0,0,49,18.57V4.64A3.87,3.87,0,0,0,45.13.77Zm2.32,17.8a2.33,2.33,0,0,1-2.32,2.33H31.19a2.33,2.33,0,0,1-2.32-2.33V4.64a2.32,2.32,0,0,1,2.32-2.32H45.13a2.32,2.32,0,0,1,2.32,2.32Zm-2.32,8.52H31.19A3.88,3.88,0,0,0,27.32,31V44.9a3.88,3.88,0,0,0,3.87,3.87H45.13A3.88,3.88,0,0,0,49,44.9V31A3.88,3.88,0,0,0,45.13,27.09ZM47.45,44.9a2.32,2.32,0,0,1-2.32,2.32H31.19a2.32,2.32,0,0,1-2.32-2.32V31a2.32,2.32,0,0,1,2.32-2.32H45.13A2.32,2.32,0,0,1,47.45,31ZM18.81,27.09H4.87A3.88,3.88,0,0,0,1,31V44.9a3.88,3.88,0,0,0,3.87,3.87H18.81a3.88,3.88,0,0,0,3.87-3.87V31A3.88,3.88,0,0,0,18.81,27.09ZM21.13,44.9a2.32,2.32,0,0,1-2.32,2.32H4.87A2.32,2.32,0,0,1,2.55,44.9V31a2.32,2.32,0,0,1,2.32-2.32H18.81A2.32,2.32,0,0,1,21.13,31ZM18.81.77H4.87A3.87,3.87,0,0,0,1,4.64V18.57a3.88,3.88,0,0,0,3.87,3.88H18.81a3.88,3.88,0,0,0,3.87-3.88V4.64A3.87,3.87,0,0,0,18.81.77Zm2.32,17.8a2.33,2.33,0,0,1-2.32,2.33H4.87a2.33,2.33,0,0,1-2.32-2.33V4.64A2.32,2.32,0,0,1,4.87,2.32H18.81a2.32,2.32,0,0,1,2.32,2.32Z" transform="translate(-1 -0.77)"/><polygon class="cls-2" points="37.86 13.99 37.23 14.35 36.59 13.99 36.59 8.36 35 9.26 35 14.92 37.23 16.18 39.46 14.92 39.46 9.25 37.86 8.34 37.86 13.99"/><polygon class="cls-2" points="37.23 4.7 32.13 7.56 32.13 13.3 33.72 14.2 33.72 8.51 37.23 6.53 40.73 8.51 40.73 14.2 42.32 13.3 42.32 7.58 37.23 4.7"/><path class="cls-3" d="M14.73,33.17h2l0,0h.16l0,0H17l0,0h.06l0,0h.05v0h0v0h0l0,0h0v0h0l0,0h0v0h0v0h0l0,0h0l0,0h0v0h0l0,0h0v0l0,0h0l0,0v0h0l0,0h0v0h0l0,0h0v0h0v0h0v0l0,0h0v0h0l0,0v0h0v0l0,0h0V35h0v0l0,0v.06h0v.22l0,0V36.5h0v0h0v0h0v1.47l0,0v.62l0,0v.1l0,0V39l0,0V39l0,0v.05l0,0v0l0,0v0l0,0v0l0,0v0l0,0v0l0,0,0,0v0l0,0v0l0,0,0,0,0,0v0l0,0,0,0,0,0v0l0,0,0,0,0,0,0,0v0l0,0,0,0,0,0,0,0,0,0,0,0,0,0,0,0,0,0,0,0,0,0h0l0,0,0,0,0,0,0,0,0,0,0,0h0l0,0,0,0,0,0h0l0,0,0,0,0,0h0l0,0h0l0,0,0,0h0l0,0h0l0,0h0l0,0h0l0,0h0l0,0h0l0,0h0l0,0h-.05l0,0h-.08l0,0h-.1l0,0H13.45v.36h0v.06h0v.08h0v.14h0v.2l0,0V42l0,0v0l0,0v0l0,0v0l0,0,0,0v0l0,0,0,0,0,0v0l0,0,0,0,0,0,0,0,0,0h0l0,0,0,0,0,0,0,0,0,0h0l0,0,0,0,0,0H12.3l0,0H7.69l0,0H7.54l0,0H7.46l0,0h0l0,0h0l0,0h0l0,0h0l0,0h0l0,0h0l0,0,0,0H7l0,0,0,0H7l0,0,0,0,0,0h0l0,0,0,0,0,0,0,0,0,0h0l0,0,0,0,0,0,0,0,0,0,0,0,0,0,0,0,0,0,0,0,0,0,0,0,0,0,0,0,0,0,0,0,0,0,0,0,0,0,0,0v0l0,0,0,0,0,0,0,0,0,0,0,0,0,0,0,0v0l0,0,0,0,0,0v0l0,0,0,0,0,0v0l0,0v0l0,0,0,0v0l0,0v0l0,0v0l0,0v-.05l0,0v0l0,0v-.06l0,0v-.08l0,0v-.11l0,0v-.1h0v0h0v0h0V38.72h0v-.1h0v-.12h0v-.14h0v-.14h0v-.61l0,0v-.06h0V37.4h0v-.08h0v-.08h0v-.1h0V37h0l0,0v-.08h0v0l0,0v-.06H6v0l0,0v0H6v0l0,0v0h0v0l0,0v0h0l0,0v0h0l0,0v0h0l0,0v0h0l0,0v0h0v0l0,0h0v0h0v0h0v0l0,0h0l0,0h0l0,0h0l0,0h0l0,0h0v0h0l0,0h0v0h0l0,0h0v0h0l0,0h0l0,0h0l0,0h0l0,0H7l0,0h.09l0,0h.15l0,0H8.65L9,35h1.9l0-.12v0h0v-.12l0-.05v-.21h0v-.08h0v-.27l0,0V34l0,0V34l0,0,0,0v0l0,0,0,0h0v0h0v0h0v0h0l0,0h0l0,0h.09v0h.61l.06,0,.31-.07h2.09ZM9.06,36.09l-.27,0H7.31v0H7.16v0H7.08v0H7v0H7v0H7v0h0v0h0v0h0v0h0v0h0v0h0v0h0v0h0v0h0v0h0v0h0v0h0v0h0v0h0v0h0v.46h0v0h0v0h0v0h0v0h0v0h0v0h0v0h0v0h0v0h0v0h0v0h0v1h0v.41h0v0l0,0v.08h0l0,0v.06h0l0,0v0h0v0l0,0v0H7l0,0v0H7l0,0v0h0l0,0h0l0,0h0l0,0v0h0v0h0v0h0l0,0h0l0,0h0l0,0h0l0,0h0l0,0h0l0,0h0l0,0h.07l0,0h.13l0,0h2l.33-1.21v0h.76v0h0v0h0v0h0v0h0v0h0v0h0v0h0V37l.24-.89H9.06Zm5.61-1.84H12.75l-.15,0h-.52V35l0,0v.18l-.3,1.13-1.45,5.43h2v0h0v0h0v0h0v0h0v0h0v-.46l0-.06v-.3l1.1-4.1h1.94v0h0v0h.07v0h0v0h0v0h0v0h0v0h-.06v0h-2v0h-.05v0h0v0h0v0h0v0h0v0h0v.11h0v0h0v0h0v0l-.26,1h3.21l0,0h.1l0,0h0l0,0h.05v0h0v0h0v0h0v0h0v0h0v0h0v0h0v0h0v0h0v0h0l0,0h0v0h0l0,0h0v0h0v0l0,0h0v0h0v-.06h0v-.06h0v-.1h0v-.73h0v0h0v0h0V37.5h0v-.1h0v-.2h0v-.42h0V36.4h0v0h0v0h0v0h0v0h0v0h0v0h0v0h0v0h0v0h0v0h0v0h0v0h0v0h0v0h0v0h0v0h0v0h0v0h0v0h0v0h0v0h0v0h0v0h0v0h0v0h0v0h0v0h0v0h0v0h0v0h0v0h-.07v0H14.67Z" transform="translate(-1 -0.77)"/><path class="cls-2" d="M38.23,32.07A5.94,5.94,0,1,0,44.16,38,5.94,5.94,0,0,0,38.23,32.07Zm0,1.29a4.61,4.61,0,0,1,2.9,1,.9.9,0,0,0-.4.76,2.3,2.3,0,0,0,.49,1.18,2.56,2.56,0,0,1,.41,1.4,4.94,4.94,0,0,1-.38,1.65l-.52,1.7L38.9,35.6l.59-.05a.21.21,0,0,0,0-.41h0s-.83.08-1.37.08-1.34-.08-1.34-.08h0c-.25,0-.28.41,0,.41l.54.05.8,2.17L36.91,41.1l-1.86-5.52.6-.06a.21.21,0,0,0,0-.41h0s-.55,0-1.05.07A4.62,4.62,0,0,1,38.23,33.36ZM33.58,38a4.51,4.51,0,0,1,.2-1.33l1.91,5.22A4.63,4.63,0,0,1,33.58,38Zm3.27,4.44,1.38-4,1.46,4a4.7,4.7,0,0,1-1.46.24A4.85,4.85,0,0,1,36.85,42.44Zm4-.63h0l1.37-4a5.82,5.82,0,0,0,.36-1.37A4.54,4.54,0,0,1,42.87,38,4.64,4.64,0,0,1,40.88,41.81Z" transform="translate(-1 -0.77)"/><circle class="cls-2" cx="10.98" cy="15.44" r="0.52"/><path class="cls-2" d="M7.3,10.66a1.92,1.92,0,0,0,1.91,1.91h2.25v1.91h1V12.57h2.26a1.91,1.91,0,0,0,1.3-3.3A1.9,1.9,0,0,0,14.76,6H9.21A1.91,1.91,0,0,0,7.9,9.27,1.93,1.93,0,0,0,7.3,10.66Zm1-2.77A.87.87,0,0,1,9.21,7h5.55a.87.87,0,0,1,0,1.73H9.21A.86.86,0,0,1,8.34,7.89Zm6.42,1.9a.87.87,0,0,1,0,1.74H9.21a.87.87,0,1,1,0-1.74Z" transform="translate(-1 -0.77)"/><rect class="cls-2" x="6.3" y="14.92" width="2.95" height="1.04"/><rect class="cls-2" x="12.72" y="14.92" width="2.95" height="1.04"/></svg>