<?xml version="1.0" encoding="UTF-8"?>
<svg width="752pt" height="752pt" version="1.1" viewBox="0 0 752 752" xmlns="http://www.w3.org/2000/svg" fill="#1a4d80">
 <g fill-rule="evenodd">
  <path d="m298.49 170.5 35.555 19.91 34.133 19.91v79.641l-34.133 19.91-35.555 21.332-34.129-21.332-35.555-19.91v-79.641l35.555-19.91z"/>
  <path d="m375.29 295.65 35.555 21.332 34.133 19.91v79.641l-34.133 19.914-35.555 19.91-34.129-19.91-35.555-19.914v-79.641l35.555-19.91z"/>
  <path d="m452.09 422.22 35.555 19.91 34.133 19.91v81.062l-34.133 19.91-35.555 19.91-34.129-19.91-35.555-19.91v-81.062l35.555-19.91z"/>
  <path d="m520.35 211.74 35.555 19.91 34.133 21.332v79.641l-34.133 19.91-35.555 19.91-34.133-19.91-35.555-19.91v-79.641l35.555-21.332z"/>
  <path d="m231.65 380.98 35.555 19.91 34.129 19.91v79.641l-34.129 21.332-35.555 19.91-34.133-19.91-35.555-21.332v-79.641l35.555-19.91z"/>
 </g>
</svg>
