<svg xmlns="http://www.w3.org/2000/svg" viewBox="0 0 309.36 281.52"><defs><style>.cls-1{fill:#2cc185;}.cls-2{fill:#2d2d56;}.cls-3{fill:#3f3f5e;}</style></defs><title>Asset 4</title><g id="Layer_2" data-name="Layer 2"><g id="Layer_1-2" data-name="Layer 1"><ellipse class="cls-1" cx="42.33" cy="141.32" rx="31.86" ry="32.26"/><path class="cls-2" d="M42.47,183.62c-23.34,0-42.33-19.23-42.4-42.86A42.87,42.87,0,0,1,12.5,110.48,41.79,41.79,0,0,1,42.4,97.9c23.34,0,42.33,19.23,42.4,42.86A42.87,42.87,0,0,1,72.37,171a41.81,41.81,0,0,1-29.9,12.58Zm0-73.07a29.4,29.4,0,0,0-21.06,8.88A30.25,30.25,0,0,0,42.47,171v0a29.4,29.4,0,0,0,21.06-8.88,30.25,30.25,0,0,0-21.06-51.54Z"/><path class="cls-2" d="M42.33,85.73h0a41.82,41.82,0,0,0,30-12.59A42.87,42.87,0,0,0,84.73,42.86C84.73,19.23,65.74,0,42.33,0a41.8,41.8,0,0,0-29.9,12.59A42.86,42.86,0,0,0,0,42.86C0,66.5,19,85.73,42.33,85.73ZM21.27,21.54a29.36,29.36,0,0,1,21.06-8.88A30.24,30.24,0,0,1,63.39,64.19a29.36,29.36,0,0,1-21.06,8.88v0A30.24,30.24,0,0,1,21.27,21.54Z"/><path class="cls-2" d="M42.54,195.79a41.8,41.8,0,0,0-29.9,12.59A42.87,42.87,0,0,0,.21,238.66c0,23.63,19,42.86,42.33,42.86s42.33-19.3,42.33-42.93-19-42.8-42.33-42.8Zm.06,73.07v0a30.24,30.24,0,0,1-21-51.53,29.33,29.33,0,0,1,21.05-8.88,30.07,30.07,0,0,1,29.84,30.21c-.07,16.64-13.4,30.2-29.84,30.2Z"/><path class="cls-3" d="M309.36,40.35A6.35,6.35,0,0,0,303.08,34l-171.81.14a6.37,6.37,0,0,0,0,12.73l171.81-.14a6.39,6.39,0,0,0,6.28-6.36Z"/><path class="cls-3" d="M309.36,132.72a6.35,6.35,0,0,0-6.28-6.37l-171.81.14a6.37,6.37,0,0,0,0,12.73l171.81-.14a6.39,6.39,0,0,0,6.28-6.36Z"/><path class="cls-3" d="M122.91,238.59A6.36,6.36,0,0,0,129.2,245l171.8-.14a6.37,6.37,0,0,0,0-12.73l-171.87.21a6.24,6.24,0,0,0-6.22,6.3Z"/></g></g></svg>