<?xml version="1.0" encoding="utf-8"?>
<!-- Generator: Adobe Illustrator 26.2.1, SVG Export Plug-In . SVG Version: 6.00 Build 0)  -->
<svg version="1.1" id="Layer_1" xmlns="http://www.w3.org/2000/svg" xmlns:xlink="http://www.w3.org/1999/xlink" x="0px" y="0px"
	 width="752px" height="752px" viewBox="0 0 752 752" style="enable-background:new 0 0 752 752;" xml:space="preserve">
<style type="text/css">
	.st0{fill:#1A4D80;}
</style>
<g>
	<path class="st0" d="M609.5,306l-88.2-148.5c-10.5-17.9-29.9-22.9-44.8-14l-235.2,140c-13,7.5-18.4,22.9-12.5,38.4
		c-20.4,13-53.8,140.5-53.8,140.5l-28.9,23.9c-6.5,5.5-8.5,14.4-5,22.4l50.8,94.7c4.5,8,14,11.5,22.4,8c15.9-7,42.4-16.9,66.3-20.4
		c18.4-2.5,41.4-20.4,44.8-25.4c12-14.4,133-163.4,133-163.4c12-14.9,9-37.4-7-48.3c-14.4-10-34.4-6.5-45.8,7l-57.3,70.3
		c-9,11-25.4,9.5-32.4-2.5l-29.9-50.3l251.6-150l50.8,85.2c2.5,4.5,1,10.5-3.5,13.5l-96.2,57.3v1c0,7.5-2.5,14.9-7.5,20.9
		l-58.8,72.2l1.5,2.5c6,11,19.9,14.4,30.9,8.5l3.5-2c11-6,15.4-18.9,12.5-30.4c2.5,1,5,1,7.5,1c4.5,0,9-1,13-3.5
		c12.5-7,16.9-23.4,10-35.9c2.5,1,5,1,8,1c4.5,0,9-1,13-3.5c12-6.5,16.4-21.4,11-33.4l63.3-37.4C611.5,336.9,616.5,317.5,609.5,306
		L609.5,306z M262.2,337.9l-13.5-22.4c-3-4.5-1-10.5,3.5-13.5l235.2-140c4.5-2.5,10.5-1,13.5,3.5l13.5,22.4L262.2,337.9z"/>
	<path class="st0" d="M501.9,341.4l44.3-26.4c4.5-2.5,6-8.5,3.5-13l-14.9-25.4c-2.5-4.5-8.5-6-13-3.5l-44.3,26.4
		c-4.5,2.5-6,8.5-3.5,13l14.9,25.4C491.4,342.4,497.4,343.9,501.9,341.4L501.9,341.4z"/>
</g>
</svg>
