<?xml version="1.0" encoding="utf-8"?>
<!-- Generator: Adobe Illustrator 23.0.3, SVG Export Plug-In . SVG Version: 6.00 Build 0)  -->
<svg version="1.1" id="Layer_1" xmlns="http://www.w3.org/2000/svg" xmlns:xlink="http://www.w3.org/1999/xlink" x="0px" y="0px"
	 viewBox="0 0 394.7 242.5" style="enable-background:new 0 0 394.7 242.5;" xml:space="preserve">
<style type="text/css">
	.st0{fill:#3EB883;}
	.st1{fill:#403F5E;}
</style>
<title>icon_11</title>
<path class="st0" d="M223.2,77.6c7.7,0,14-6.3,14-14s-6.3-14-14-14c-7.7,0-14,6.3-14,14c0,3.1,1,6.1,2.8,8.4l-24,26.1
	c-1.4-0.4-2.8-0.7-4.3-0.7c-3.7,0-7,1.4-9.5,3.7l-15.3-8.7c0.2-0.9,0.3-1.9,0.3-2.9c0-7.7-6.3-14-14-14c-7.7,0-14,6.3-14,14
	c0,1,0.1,2,0.3,2.9l-15.3,8.7c-2.5-2.3-5.8-3.7-9.5-3.7c-7.7,0-14,6.3-14,14s6.3,14,14,14s14-6.3,14-14c0-1-0.1-2-0.3-2.9l15.3-8.7
	c2.5,2.3,5.8,3.7,9.5,3.7c3.7,0,7-1.4,9.5-3.7l15.3,8.7c-0.2,0.9-0.3,1.9-0.3,2.9c0,7.7,6.3,14,14,14c7.7,0,14-6.3,14-14
	c0-3.1-1-6.1-2.8-8.4l24-26.1C220.2,77.3,221.6,77.6,223.2,77.6z M223.2,58c3.1,0,5.6,2.5,5.6,5.6c0,3.1-2.5,5.6-5.6,5.6
	c-3.1,0-5.6-2.5-5.6-5.6C217.6,60.5,220.1,58,223.2,58z M106.8,116.9c-3.1,0-5.6-2.5-5.6-5.6s2.5-5.6,5.6-5.6s5.6,2.5,5.6,5.6
	S109.8,116.9,106.8,116.9z M145.2,95.1c-3.1,0-5.6-2.5-5.6-5.6c0-3.1,2.5-5.6,5.6-5.6s5.6,2.5,5.6,5.6
	C150.8,92.6,148.3,95.1,145.2,95.1z M183.7,116.9c-3.1,0-5.6-2.5-5.6-5.6s2.5-5.6,5.6-5.6c3.1,0,5.6,2.5,5.6,5.6
	S186.8,116.9,183.7,116.9z"/>
<path class="st1" d="M294.2,19.6h-85.7v-4.2c0-8-6.5-14.5-14.5-14.5h-25.5c-8,0-14.5,6.5-14.5,14.5v4.2H88H67.1
	c-8.1,0-14.7,6.6-14.7,14.7v175.3c0,8.1,6.6,14.7,14.7,14.7h30.1v-4h0l-4.2,0v4H231l0,0.2l26.5-0.2c2.4,0,4.6-1.1,5.9-3
	c2-2.8,2.3-6.1,0.8-9c-1.4-2.7-4.2-4.4-7.3-4.4H68.8V36H88h0.6h205v22.5c0,4.5,3.7,8.2,8.2,8.2c4.5,0,8.2-3.7,8.2-8.2V35.5
	C310.1,26.7,302.9,19.6,294.2,19.6z M192.1,17.3v2.3h-21.7l0-2.3H192.1z"/>
<path class="st0" d="M98.3,150.7c-2.3,0-4.2,1.9-4.2,4.2v37c0,2.3,1.9,4.2,4.2,4.2h17c2.3,0,4.2-1.9,4.2-4.2v-37
	c0-2.3-1.9-4.2-4.2-4.2H98.3z M111.1,187.8h-8.6v-28.7h8.6V187.8z"/>
<path class="st1" d="M142.7,134.3c-2.3,0-4.2,1.9-4.2,4.2v53.5c0,2.3,1.9,4.2,4.2,4.2h17c2.3,0,4.2-1.9,4.2-4.2v-53.5
	c0-2.3-1.9-4.2-4.2-4.2H142.7z M155.5,187.8h-8.6v-45.1h8.6V187.8z"/>
<path class="st0" d="M186.2,150.7c-2.3,0-4.2,1.9-4.2,4.2v37c0,2.3,1.9,4.2,4.2,4.2h17c2.3,0,4.2-1.9,4.2-4.2v-37
	c0-2.3-1.9-4.2-4.2-4.2H186.2z M199,187.8h-8.6v-28.7h8.6V187.8z"/>
<path class="st1" d="M362.4,214.6l-23.2-40.2c5.8-6.5,10-14.5,12.3-23c3.9-14.7,1.9-30.1-5.7-43.3c-15.7-27.3-50.7-36.6-78-20.9
	c-13.2,7.6-22.6,19.9-26.6,34.7c-4,14.7-1.9,30.1,5.7,43.3c7.6,13.2,19.9,22.6,34.7,26.6c8.5,2.3,17.5,2.6,26,0.8l23.2,40.2
	c3.2,5.6,9.3,9.1,15.8,9.1c0,0,0,0,0,0c3.2,0,6.3-0.8,9.1-2.4c5.6-3.2,9.1-9.3,9.1-15.8C364.8,220.6,364,217.4,362.4,214.6z
	 M338.9,148.1c-3,11.4-10.3,20.9-20.5,26.8c-10.2,5.9-22.1,7.5-33.5,4.4c-11.4-3-20.9-10.3-26.8-20.5c-5.9-10.2-7.4-22.1-4.4-33.5
	c3.1-11.4,10.3-20.9,20.5-26.8c6.7-3.9,14.3-5.9,22-5.9c15.8,0,30.4,8.4,38.3,22C340.4,124.9,342,136.7,338.9,148.1z M349.2,228.3
	c-2.5,1.5-5.7,0.6-7.2-1.9l-21.8-37.8c1.6-0.7,3.2-1.5,4.7-2.4c1.5-0.9,3-1.8,4.4-2.8l21.8,37.8c0.5,0.8,0.7,1.7,0.7,2.6
	C351.8,225.6,350.8,227.4,349.2,228.3z"/>
</svg>
