<?xml version="1.0" encoding="utf-8"?>
<!-- Generator: Adobe Illustrator 26.2.1, SVG Export Plug-In . SVG Version: 6.00 Build 0)  -->
<svg version="1.1" id="Layer_1" xmlns="http://www.w3.org/2000/svg" xmlns:xlink="http://www.w3.org/1999/xlink" x="0px" y="0px"
	 width="752px" height="752px" viewBox="0 0 752 752" style="enable-background:new 0 0 752 752;" xml:space="preserve">
<style type="text/css">
	.st0{fill:#1A4D80;}
</style>
<path class="st0" d="M146.3,335c0-99.4,80.8-179.8,179.8-179.8v-16.1c0-1.5,2-2.5,3.5-1.5l42.2,29.1c1,1,1,2.5,0,3.5l-42.2,29.1
	c-1.5,1-3.5,0-3.5-1.5v-15.6c-84.4-0.5-153.2,68.3-153.2,152.6c0,48.7,23.6,95.4,63.3,124l-15.6,21.6
	C173.9,447,146.3,392.3,146.3,335L146.3,335z M471.7,531.9l72.3,72.3c14.1,14.1,37.2,14.1,51.2,0c14.1-14.1,14.1-37.2,0-51.2
	l-71.8-72.3c-10.5-10.5-25.6-13.1-38.2-8.5L464.1,451c26.6-31.1,42.7-71.8,42.7-116c0-57.2-27.6-112-74.3-145.6L416.9,211
	c39.7,28.6,63.3,75.3,63.3,124c0,84.4-68.8,153.1-153.1,153.1v-15.6c0-1.5-2-2.5-3.5-1.5l-42.7,28.6c-1,1-1,2.5,0,3.5l42.2,29.1
	c1.5,1,3.5,0,3.5-1.5v-15.6c44.2,0,84.9-16.1,116-42.7l21.1,21.1C458.6,506.7,461.6,521.8,471.7,531.9L471.7,531.9z M209.6,335
	c0-64.3,52.2-117,116.5-117c64.3,0,117,52.2,117,117c0,64.3-52.2,117-117,117C261.8,452,209.6,399.3,209.6,335L209.6,335z
	 M402.4,377.2h-23.1c-4.5,15.6-11.5,28.1-18.6,37.7C378.3,407.3,392.8,393.8,402.4,377.2L402.4,377.2z M383.3,310.4
	c1.5,7.5,2,16.1,2,24.6s-0.5,17.1-2,24.6h26.1c2.5-8,3.5-16.1,3.5-24.6s-1.5-17.1-3.5-24.6H383.3z M360.7,255.2
	c7,10,14.1,22.6,18.6,37.7h23.1C392.8,276.3,378.3,262.7,360.7,255.2L360.7,255.2z M335.1,292.9h26.1c-7-19.1-17.6-32.6-26.1-41.2
	V292.9z M335.1,359.6h30.6c1.5-7.5,2.5-15.6,2.5-24.6c0-9-1-17.1-2.5-24.6h-30.6V359.6z M335.1,418.4c8.5-8.5,19.1-22.1,26.1-41.2
	h-26.1V418.4z M291.9,414.9c-7-10-14.1-22.6-18.6-37.7h-23.1C259.3,393.8,273.8,407.3,291.9,414.9L291.9,414.9z M317.5,377.2h-26.1
	c7,19.1,17.6,32.6,26.1,41.2V377.2z M317.5,310.4h-30.6c-1.5,7.5-2.5,15.6-2.5,24.6c0,9,1,17.1,2.5,24.6h30.6V310.4z M317.5,251.7
	c-8.5,8.5-19.1,22.1-26.1,41.2h26.1V251.7z M250.2,292.8h23.1c4.5-15.6,11.5-28.1,18.6-37.7C273.8,262.7,259.3,276.3,250.2,292.8
	L250.2,292.8z M242.7,359.6h26.1c-1.5-7.5-2-16.1-2-24.6s0.5-17.1,2-24.6h-26.1c-2.5,8-3.5,16.1-3.5,24.6
	C239.2,343.6,240.2,352.1,242.7,359.6z"/>
</svg>
