<?xml version="1.0" encoding="utf-8"?>
<!-- Generator: Adobe Illustrator 26.2.1, SVG Export Plug-In . SVG Version: 6.00 Build 0)  -->
<svg version="1.1" id="Layer_1" xmlns="http://www.w3.org/2000/svg" xmlns:xlink="http://www.w3.org/1999/xlink" x="0px" y="0px"
	 width="752px" height="752px" viewBox="0 0 752 752" style="enable-background:new 0 0 752 752;" xml:space="preserve">
<style type="text/css">
	.st0{fill:#1A4D80;}
</style>
<path class="st0" d="M302.5,213.8l7.9,5.9L486,349.8c4.6-13.2,13.3-29.3,30.1-44.3c0,0,63.5-53.3,2.3-129
	c-40.3-49.8-159.3-44.9-238.1,25.9l14.3,7.3L302.5,213.8z M438.8,194.7c17.8,0,32.2,14.4,32.2,32.2s-14.4,32.2-32.2,32.2
	c-17.8,0-32.2-14.4-32.2-32.2C406.6,209.1,421,194.7,438.8,194.7z M516,450.1c-16.6-14.9-25.4-30.9-30-44L276.8,267.8l-8.2-5.5
	l-6.6-6.1l-16-14.8c-24.1,35.3-39.6,80.6-39.6,136.4c0,224.6,249.8,278.2,311.9,201.2C579.5,503.4,516,450.1,516,450.1L516,450.1z
	 M254.1,377.8c0-17.8,14.4-32.2,32.2-32.2s32.2,14.4,32.2,32.2S304.1,410,286.3,410C268.5,410,254.1,395.6,254.1,377.8z M333,516.1
	c-17.8,0-32.2-14.4-32.2-32.2s14.4-32.2,32.2-32.2s32.2,14.4,32.2,32.2S350.8,516.1,333,516.1z M438.8,560.9
	c-17.8,0-32.2-14.4-32.2-32.2c0-17.8,14.4-32.2,32.2-32.2s32.2,14.4,32.2,32.2C471,546.5,456.6,560.9,438.8,560.9z M591,439.3
	l-107.8-79.9l-178.1-132l-7.5-5.6l-11.6,16.6l-11.6,16.6l7.8,5.2L579,456.3c5.1,3.4,11.8,2.4,15-2.2c1.2-1.7,1.7-3.6,1.7-5.6
	C595.8,445.1,594.1,441.6,591,439.3L591,439.3z M251.5,233.7l15.9,14.7l21.7-31l-33.4-17.1L239.9,223L251.5,233.7z M233,216.5
	l14.3-20.5c0,0-0.5-5.1-3.3-11.6c-5-11.7-17.1-27.9-46.1-26.4c0,0-25.6,0.7-41.6-18.1c0,0,6.7,70.5,65.5,76.3
	C225.3,216.6,229,216.7,233,216.5L233,216.5z"/>
</svg>
