<svg class="icon-help" xmlns="http://www.w3.org/2000/svg" width="20" height="20" viewBox="0 0 20 20" fill="none">
    <path d="M10.0001 18.3333C14.6025 18.3333 18.3334 14.6024 18.3334 10C18.3334 5.39762 14.6025 1.66666 10.0001 1.66666C5.39771 1.66666 1.66675 5.39762 1.66675 10C1.66675 14.6024 5.39771 18.3333 10.0001 18.3333Z" stroke="#8A8F99" stroke-linecap="round" stroke-linejoin="round"/>
    <path d="M7.57495 7.50001C7.77087 6.94307 8.15758 6.47343 8.66658 6.17429C9.17558 5.87514 9.77403 5.76579 10.3559 5.8656C10.9378 5.96541 11.4656 6.26795 11.8458 6.71962C12.2261 7.17129 12.4342 7.74294 12.4333 8.33334C12.4333 10 9.93328 10.8333 9.93328 10.8333" stroke="#8A8F99" stroke-linecap="round" stroke-linejoin="round"/>
    <path d="M10 14.1667H10.0075" stroke="#8A8F99" stroke-linecap="round" stroke-linejoin="round"/>
</svg>
