<?xml version="1.0" encoding="utf-8"?>
<!-- Generator: Adobe Illustrator 22.0.1, SVG Export Plug-In . SVG Version: 6.00 Build 0)  -->
<svg version="1.1" id="Warstwa_1" xmlns="http://www.w3.org/2000/svg" xmlns:xlink="http://www.w3.org/1999/xlink" x="0px" y="0px"
	 viewBox="0 0 97 97" style="enable-background:new 0 0 97 97;" xml:space="preserve">
<style type="text/css">
	.st0{fill:#5C4BD1;}
	.st1{fill:#FFFFFF;}
	.st2{fill:#CCCCCC;}
</style>
<path class="st0" d="M97,14.5c0-2.7-0.8-5.3-2.2-7.5C91.8,2.1,86-0.4,80.3,0.5L57,4.1C51.4,5,45.6,5,40,4.1L16.7,0.5
	C11-0.4,5.2,2.1,2.2,7C0.8,9.2,0,11.8,0,14.5h0v0.1v43.5v24.4c0,2.8,0.8,5.4,2.2,7.6c3.1,4.9,8.8,7.4,14.6,6.5L40,93.1
	c5.6-0.9,11.3-0.9,17,0l23.3,3.6c5.7,0.9,11.5-1.6,14.6-6.5c1.4-2.2,2.2-4.8,2.2-7.6V58.1V14.6L97,14.5L97,14.5z"/>
<g>
	<path class="st1" d="M57.9,30.4c-1.6,0-3.2,0.3-4.6,0.8c4.8,1.7,8.5,5.8,9.5,11c0.2,0.5,0.3,1.1,0.3,1.7v21.3
		c0,2.3,1.9,4.2,4.2,4.2c2.3,0,4.2-1.9,4.2-4.2V43.9C71.4,36.5,65.3,30.4,57.9,30.4z"/>
	<path class="st1" d="M43.7,31.3c-1.4-0.5-3-0.8-4.6-0.8c-7.4,0-13.5,6.1-13.5,13.5v21.3c0,2.3,1.9,4.2,4.2,4.2
		c2.3,0,4.2-1.9,4.2-4.2V43.9c0-0.5,0.1-1,0.3-1.5C35.1,37.2,38.8,33,43.7,31.3z"/>
	<path class="st2" d="M53.3,31.3c-1.8,0.7-3.4,1.7-4.8,3c-1.4-1.3-3-2.3-4.8-3c-4.9,1.7-8.6,6-9.5,11.2c0.7-2.1,2.6-3.7,4.9-3.7
		c2.9,0,5.2,2.3,5.2,5.2v14.9V59c0,2.3,1.9,4.2,4.2,4.2c2.3,0,4.2-1.9,4.2-4.2v-0.2V43.9c0-2.9,2.3-5.2,5.2-5.2
		c2.3,0,4.2,1.5,4.9,3.5C61.8,37.1,58.1,32.9,53.3,31.3z"/>
</g>
</svg>
