<svg xmlns="http://www.w3.org/2000/svg" viewBox="0 0 460.81 87.89"><defs><style>.cls-1{fill:#5c4bd1;}.cls-2{fill:#414042;}.cls-3{fill:#fff;}.cls-4{fill:#ccc;}</style></defs><title>logo_1</title><g id="Warstwa_2" data-name="Warstwa 2"><g id="Warstwa_1-2" data-name="Warstwa 1"><path class="cls-1" d="M88.31,12.91a13.06,13.06,0,0,0-2-6.82A13.2,13.2,0,0,0,73.08.16l-21.2,3.3a50.28,50.28,0,0,1-15.45,0L15.24.16A13.2,13.2,0,0,0,2,6.09a13.06,13.06,0,0,0-2,6.82H0v62A13.06,13.06,0,0,0,2,81.8a13.2,13.2,0,0,0,13.26,5.92l21.2-3.3a50.28,50.28,0,0,1,15.45,0l21.2,3.3A13.2,13.2,0,0,0,86.33,81.8a13.06,13.06,0,0,0,2-6.92v-62Z"/><path class="cls-2" d="M137.69,27.42a12.24,12.24,0,0,0-8.51,3.44,12.28,12.28,0,0,0-20.8,8.85V59.08a3.79,3.79,0,1,0,7.57,0V39.71a4.72,4.72,0,1,1,9.44,0V53.44a3.79,3.79,0,1,0,7.57,0V39.71a4.72,4.72,0,0,1,9.44,0V59.08a3.79,3.79,0,0,0,7.57,0V39.71A12.31,12.31,0,0,0,137.69,27.42Z"/><path class="cls-2" d="M207.95,55.16h-2.27a3.15,3.15,0,0,1-1.24-.25,1.27,1.27,0,0,1-.63-1.3V36L206,36a3.76,3.76,0,0,0,3.33-4A3.67,3.67,0,0,0,206,28.53h-2.15V20.82h0a3.85,3.85,0,0,0-7.7,0h0v7.77l-1.42,0a3.87,3.87,0,0,0-3.36,4.1,3.73,3.73,0,0,0,3.38,3.57h1.4V53.75s0,.07,0,.11,0,.07,0,.11c0,4.57,2.67,8.27,7.6,8.27h4l.25,0a3.67,3.67,0,0,0,2.36-1.47,3.54,3.54,0,0,0-2.34-5.57Z"/><path class="cls-2" d="M231.11,26.85h-1a20.8,20.8,0,0,0-4.88.62,14.25,14.25,0,0,0-4.77,2.14,11.88,11.88,0,0,0-3.62,4,13.6,13.6,0,0,0-1.41,6.19V58.58a3.86,3.86,0,0,0,7.71,0V39.79A5.39,5.39,0,0,1,223.6,37a5,5,0,0,1,1.62-1.73,6.74,6.74,0,0,1,2.36-.78,11.87,11.87,0,0,1,2.51-.26l1,0a3.64,3.64,0,0,0,3.25-4.06A3.73,3.73,0,0,0,231.11,26.85Z"/><path class="cls-2" d="M306.82,44.41l0,0a14.08,14.08,0,0,0-5.11-2.2l-4.15-1a23.59,23.59,0,0,1-4.88-1.53,2,2,0,0,1-.95-1.87,3,3,0,0,1,.25-1.25,3.23,3.23,0,0,1,.82-1.16A5.71,5.71,0,0,1,296.55,34a7.9,7.9,0,0,1,4.14,1.32l1.07.86a3.5,3.5,0,0,0,4.78-5.11l-.2-.18a8.34,8.34,0,0,0-.77-.65,14.73,14.73,0,0,0-8.73-2.64,15.45,15.45,0,0,0-4.95.67,10.41,10.41,0,0,0-7.24,10.07,7.89,7.89,0,0,0,3.42,7,18.79,18.79,0,0,0,6,2.29l4,.92c.5.09,1.16.27,1.81.39l.19,0h0a3.35,3.35,0,0,1,2.81,2.52,5.91,5.91,0,0,1,.09,1,2.84,2.84,0,0,1-.53,1.75,4.32,4.32,0,0,1-2,1.27A10.66,10.66,0,0,1,297,56c-3,0-4.83-.78-5.82-2.21l-.07-.1a3.39,3.39,0,0,0-5.34,4.16,3.32,3.32,0,0,0,.31.35,13.46,13.46,0,0,0,1,1,11.48,11.48,0,0,0,4.23,2.4,23.13,23.13,0,0,0,5.83,1,17.07,17.07,0,0,0,8.61-2.33c2.89-1.71,4.37-4.56,4.41-8.47A8.81,8.81,0,0,0,306.82,44.41Z"/><path class="cls-2" d="M168.28,45.14a3.55,3.55,0,0,0,3.54,3.54h13.55a3.55,3.55,0,0,0,3.54-3.54,17.09,17.09,0,1,0-17.09,17.09h13.55a3.54,3.54,0,1,0,0-7.09H171.82a10,10,0,1,1,9.16-14l.22.49h-9.37A3.55,3.55,0,0,0,168.28,45.14Z"/><path class="cls-2" d="M241.65,27.42a3.79,3.79,0,0,0-3.79,3.79V59.08a3.79,3.79,0,1,0,7.57,0V31.2A3.79,3.79,0,0,0,241.65,27.42Z"/><path class="cls-2" d="M274.39,38a3.79,3.79,0,0,0,5.35-5.35,17.67,17.67,0,1,0,0,25,3.79,3.79,0,0,0-5.35-5.35,10.11,10.11,0,1,1,0-14.29Z"/><path class="cls-1" d="M457.26,55.15H443.71a10,10,0,1,1,9.16-14l.22.49h-9.37a3.54,3.54,0,1,0,0,7.09h13.55a3.55,3.55,0,0,0,3.54-3.54,17.09,17.09,0,1,0-17.09,17.09h13.55a3.54,3.54,0,1,0,0-7.09Z"/><path class="cls-1" d="M376.72,27.27a3.79,3.79,0,0,0-3.79,3.79V47a8,8,0,1,1-16.08,0V31.06a3.79,3.79,0,1,0-7.57,0V47a15.61,15.61,0,0,0,31.22,0V31.06A3.79,3.79,0,0,0,376.72,27.27Z"/><path class="cls-1" d="M338.06,38a3.79,3.79,0,0,0,5.35-5.35,17.67,17.67,0,1,0,0,25,3.79,3.79,0,0,0-5.35-5.35,10.11,10.11,0,1,1,0-14.29Z"/><path class="cls-1" d="M404.82,27.26h-1.34a4.06,4.06,0,1,0,0,8.12h1.34a10.07,10.07,0,1,1-10.07,10.07V17.51a4.06,4.06,0,0,0-8.12,0V45.45a18.19,18.19,0,1,0,18.19-18.19Z"/><path class="cls-3" d="M52.68,27.42a12.21,12.21,0,0,0-4.18.75,13.2,13.2,0,0,1,8.61,10,4.67,4.67,0,0,1,.29,1.56V59.08a3.79,3.79,0,0,0,7.57,0V39.71A12.31,12.31,0,0,0,52.68,27.42Z"/><path class="cls-3" d="M39.83,28.16A12.26,12.26,0,0,0,23.37,39.71V59.08a3.79,3.79,0,1,0,7.57,0V39.71a4.66,4.66,0,0,1,.23-1.38A13.2,13.2,0,0,1,39.83,28.16Z"/><path class="cls-4" d="M48.5,28.17a12.3,12.3,0,0,0-4.33,2.69,12.3,12.3,0,0,0-4.34-2.7,13.2,13.2,0,0,0-8.66,10.17,4.71,4.71,0,0,1,9.21,1.38V53.44a3.79,3.79,0,0,0,7.57,0V39.71a4.71,4.71,0,0,1,9.16-1.56A13.2,13.2,0,0,0,48.5,28.17Z"/></g></g></svg>