<svg xmlns="http://www.w3.org/2000/svg" viewBox="0 0 88.31 87.89"><defs><style>.cls-1{fill:#fff;}.cls-2{fill:#5c4bd1;}.cls-3{fill:#3e3e93;}</style></defs><title>logo-light-solo-sign</title><g id="Warstwa_2" data-name="Warstwa 2"><g id="Warstwa_1-2" data-name="Warstwa 1"><path class="cls-1" d="M88.31,12.91a13.06,13.06,0,0,0-2-6.82A13.2,13.2,0,0,0,73.08.16l-21.2,3.3a50.28,50.28,0,0,1-15.45,0L15.24.16A13.2,13.2,0,0,0,2,6.09a13.06,13.06,0,0,0-2,6.82H0v62A13.06,13.06,0,0,0,2,81.8a13.2,13.2,0,0,0,13.26,5.92l21.2-3.3a50.28,50.28,0,0,1,15.45,0l21.2,3.3A13.2,13.2,0,0,0,86.33,81.8a13.06,13.06,0,0,0,2-6.92v-62Z"/><path class="cls-2" d="M52.68,27.42a12.21,12.21,0,0,0-4.18.75,13.2,13.2,0,0,1,8.61,10,4.67,4.67,0,0,1,.29,1.56V59.08a3.79,3.79,0,0,0,7.57,0V39.71A12.31,12.31,0,0,0,52.68,27.42Z"/><path class="cls-2" d="M39.83,28.16A12.26,12.26,0,0,0,23.37,39.71V59.08a3.79,3.79,0,1,0,7.57,0V39.71a4.66,4.66,0,0,1,.23-1.38A13.2,13.2,0,0,1,39.83,28.16Z"/><path class="cls-3" d="M48.5,28.17a12.3,12.3,0,0,0-4.33,2.69,12.3,12.3,0,0,0-4.34-2.7,13.2,13.2,0,0,0-8.66,10.17,4.71,4.71,0,0,1,9.21,1.38V53.44a3.79,3.79,0,0,0,7.57,0V39.71a4.71,4.71,0,0,1,9.16-1.56A13.2,13.2,0,0,0,48.5,28.17Z"/></g></g></svg>